<svg width="20" height="21" viewBox="0 0 20 21" fill="none" xmlns="http://www.w3.org/2000/svg">
<path fill-rule="evenodd" clip-rule="evenodd" d="M8.49928 0.945801C7.14387 0.945916 5.80814 1.27017 4.60353 1.89149C3.39893 2.51282 2.36037 3.41322 1.57451 4.51755C0.788656 5.62189 0.278287 6.89815 0.0859852 8.23984C-0.106316 9.58154 0.0250263 10.9498 0.469055 12.2304C0.913084 13.511 1.65692 14.6669 2.63851 15.6015C3.6201 16.5362 4.81098 17.2226 6.11179 17.6034C7.4126 17.9842 8.78562 18.0484 10.1163 17.7907C11.447 17.533 12.6967 16.9608 13.7613 16.1218L17.4133 19.7738C17.6019 19.956 17.8545 20.0568 18.1167 20.0545C18.3789 20.0522 18.6297 19.947 18.8151 19.7616C19.0005 19.5762 19.1057 19.3254 19.108 19.0632C19.1102 18.801 19.0094 18.5484 18.8273 18.3598L15.1753 14.7078C16.1633 13.4544 16.7784 11.9482 16.9504 10.3615C17.1223 8.77485 16.8441 7.17182 16.1475 5.73589C15.4509 4.29997 14.3642 3.08916 13.0116 2.24203C11.659 1.39491 10.0952 0.945694 8.49928 0.945801ZM1.99928 9.4458C1.99928 7.72189 2.6841 6.06859 3.90308 4.84961C5.12207 3.63062 6.77537 2.9458 8.49928 2.9458C10.2232 2.9458 11.8765 3.63062 13.0955 4.84961C14.3145 6.06859 14.9993 7.72189 14.9993 9.4458C14.9993 11.1697 14.3145 12.823 13.0955 14.042C11.8765 15.261 10.2232 15.9458 8.49928 15.9458C6.77537 15.9458 5.12207 15.261 3.90308 14.042C2.6841 12.823 1.99928 11.1697 1.99928 9.4458Z" fill="#8D8F93"/>
</svg>
