<svg width="42" height="42" viewBox="0 0 42 42" fill="none" xmlns="http://www.w3.org/2000/svg">
<path d="M14.9876 12.9468L14.9872 12.9471C14.3572 13.2969 14.1581 14.0694 14.5045 14.652L13.86 15.0353L14.504 14.6511C15.0833 15.6222 15.237 16.6848 14.723 17.5514C14.214 18.4096 13.209 18.8047 12.0717 18.8047C11.3232 18.8047 10.75 19.3978 10.75 20.0677V21.9323C10.75 22.6023 11.3231 23.1953 12.0717 23.1953C13.209 23.1953 14.214 23.5903 14.723 24.4486C15.237 25.3152 15.0833 26.3777 14.504 27.3489L13.8599 26.9646L14.5045 27.348C14.1581 27.9306 14.3572 28.7032 14.9872 29.053L14.9876 29.0532L16.8739 30.102L16.8849 30.1081L16.8848 30.1082C17.3869 30.3984 18.0493 30.2268 18.3539 29.7334L18.4712 29.5366L18.4714 29.5363C19.0523 28.5624 19.9134 27.9231 20.9132 27.9231C21.9136 27.9231 22.7721 28.563 23.3478 29.5378C23.3481 29.5384 23.3484 29.5389 23.3487 29.5394L23.4644 29.7335C23.7689 30.2268 24.4312 30.3985 24.9334 30.1082L24.9442 30.1019L24.9443 30.102L26.8305 29.0532L26.8309 29.053C27.4597 28.7039 27.6618 27.9415 27.3125 27.346L14.9876 12.9468ZM14.9876 12.9468L16.8739 11.898L16.874 11.8981L16.8848 11.8918C17.387 11.6016 18.0493 11.7732 18.3538 12.2665L14.9876 12.9468Z" stroke="#8D8F93" stroke-width="1.5"/>
<path d="M23.6972 21.0062C23.6972 22.4734 22.4669 23.6994 20.9035 23.6994C19.3402 23.6994 18.1099 22.4734 18.1099 21.0062C18.1099 19.539 19.3402 18.313 20.9035 18.313C22.4669 18.313 23.6972 19.539 23.6972 21.0062Z" stroke="#8D8F93" stroke-width="1.5"/>
<circle cx="21" cy="21" r="20.5" stroke="#8D8F93"/>
</svg>
