<svg width="23" height="19" viewBox="0 0 23 19" fill="none" xmlns="http://www.w3.org/2000/svg">
<path fill-rule="evenodd" clip-rule="evenodd" d="M22.1701 1.58357C22.1701 1.16358 22.0031 0.760795 21.7062 0.463818C21.4092 0.166841 21.0064 0 20.5865 0H1.58358C1.16358 0 0.760794 0.166841 0.46382 0.463818C0.166838 0.760795 0 1.16358 0 1.58357C0 2.00356 0.166838 2.40635 0.46382 2.70333C0.760794 3.0003 1.16358 3.16715 1.58358 3.16715H20.5865C21.0064 3.16715 21.4092 3.0003 21.7062 2.70333C22.0031 2.40635 22.1701 2.00356 22.1701 1.58357Z" fill="#5E1EE5"/>
<path fill-rule="evenodd" clip-rule="evenodd" d="M22.1701 9.50007C22.1701 9.08008 22.0031 8.6773 21.7062 8.38031C21.4092 8.08334 21.0064 7.9165 20.5865 7.9165H1.58358C1.16358 7.9165 0.760794 8.08334 0.46382 8.38031C0.166838 8.6773 0 9.08008 0 9.50007C0 9.92006 0.166838 10.3229 0.46382 10.6198C0.760794 10.9168 1.16358 11.0836 1.58358 11.0836H20.5865C21.0064 11.0836 21.4092 10.9168 21.7062 10.6198C22.0031 10.3229 22.1701 9.92006 22.1701 9.50007Z" fill="#5E1EE5"/>
<path fill-rule="evenodd" clip-rule="evenodd" d="M22.1706 17.4166C22.1706 16.9967 22.0036 16.5938 21.7067 16.2969C21.4097 15.9999 21.0069 15.833 20.587 15.833H11.0855C10.6655 15.833 10.2627 15.9999 9.96576 16.2969C9.66879 16.5938 9.50195 16.9967 9.50195 17.4166C9.50195 17.8367 9.66879 18.2394 9.96576 18.5364C10.2627 18.8334 10.6655 19.0002 11.0855 19.0002H20.587C21.0069 19.0002 21.4097 18.8334 21.7067 18.5364C22.0036 18.2394 22.1706 17.8367 22.1706 17.4166Z" fill="#5E1EE5"/>
</svg>
