<svg width="42" height="42" viewBox="0 0 42 42" fill="none" xmlns="http://www.w3.org/2000/svg">
<path d="M23.8843 26.9405L23.8843 26.9406C24.9691 26.7566 26.041 26.4956 27.0812 26.149C27.6388 25.9603 28.0564 25.554 28.2566 25.0191C28.4561 24.4763 28.4019 23.8922 28.1046 23.3825L26.9794 21.5105C26.979 21.5098 26.9785 21.509 26.9781 21.5083C26.8042 21.2225 26.6646 20.8513 26.5687 20.5081C26.4725 20.1637 26.3998 19.7737 26.3998 19.44V17.58C26.3998 14.3635 23.7848 11.75 20.5798 11.75C17.364 11.75 14.7498 14.3642 14.7498 17.58V19.44C14.7498 19.7734 14.6771 20.1629 14.5829 20.5053C14.4884 20.8484 14.3523 21.2166 14.187 21.4989L14.1826 21.5064L14.1826 21.5064L13.0537 23.3846C13.0535 23.3849 13.0533 23.3851 13.0532 23.3854C12.726 23.9338 12.6717 24.5359 12.852 25.0167L12.8532 25.0198L12.8532 25.0198C13.0373 25.5176 13.4633 25.9348 14.0695 26.1394L23.8843 26.9405ZM23.8843 26.9405L23.8756 26.9421M23.8843 26.9405L23.8756 26.9421M23.8756 26.9421C23.7598 26.9632 23.6829 26.9766 23.6119 26.9831L23.584 26.9856M23.8756 26.9421L23.584 26.9856M23.584 26.9856L23.5565 26.9902M23.584 26.9856L23.5565 26.9902M23.5565 26.9902C23.4 27.0163 23.2402 27.0342 23.0569 27.0546L23.0477 27.0556M23.5565 26.9902L23.0477 27.0556M23.0477 27.0556L23.0384 27.0569M23.0477 27.0556L23.0384 27.0569M23.0384 27.0569C22.8405 27.0839 22.63 27.1024 22.3974 27.1226C21.7836 27.1713 21.1849 27.2 20.5798 27.2C19.9631 27.2 19.3468 27.1711 18.7409 27.1134L18.733 27.1127M23.0384 27.0569L18.733 27.1127M18.733 27.1127L18.7252 27.1121M18.733 27.1127L18.7252 27.1121M18.7252 27.1121C18.4753 27.0936 18.2349 27.0658 17.9938 27.0287L17.9864 27.0276M18.7252 27.1121L17.9864 27.0276M17.9864 27.0276L17.9789 27.0266M17.9864 27.0276L17.9789 27.0266M17.9789 27.0266C17.8328 27.0071 17.6909 26.9882 17.5586 26.9694C17.4926 26.9578 17.4296 26.9492 17.3815 26.9426L17.3761 26.9419C17.3184 26.934 17.2799 26.9287 17.2439 26.9221L17.2369 26.9208M17.9789 27.0266L17.2369 26.9208M17.2369 26.9208L17.2298 26.9197M17.2369 26.9208L17.2298 26.9197M17.2298 26.9197C16.1596 26.7461 15.0997 26.4859 14.0696 26.1394L17.2298 26.9197Z" stroke="#8D8F93" stroke-width="1.5"/>
<path d="M20.5598 19.7137C20.1398 19.7137 19.7998 19.3737 19.7998 18.9537V15.8538C19.7998 15.4338 20.1398 15.0938 20.5598 15.0938C20.9798 15.0938 21.3198 15.4338 21.3198 15.8538V18.9537C21.3098 19.3737 20.9698 19.7137 20.5598 19.7137Z" fill="#8D8F93"/>
<path d="M23.3893 28.9631C22.9693 30.1231 21.8593 30.9531 20.5593 30.9531C19.7693 30.9531 18.9893 30.6331 18.4393 30.0631C18.1193 29.7631 17.8793 29.3631 17.7393 28.9531C17.8693 28.9731 17.9993 28.9831 18.1393 29.0031C18.3693 29.0331 18.6093 29.0631 18.8493 29.0831C19.4193 29.1331 19.9993 29.1631 20.5793 29.1631C21.1493 29.1631 21.7193 29.1331 22.2793 29.0831C22.4893 29.0631 22.6993 29.0531 22.8993 29.0231C23.0593 29.0031 23.2193 28.9831 23.3893 28.9631Z" fill="#8D8F93"/>
<circle cx="21" cy="21" r="20.5" stroke="#8D8F93"/>
<circle cx="26" cy="13" r="4" fill="#5E1EE5"/>
</svg>
