<svg width="383" height="234" viewBox="0 0 383 234" fill="none" xmlns="http://www.w3.org/2000/svg">
<path d="M19.6526 0.374174L363.336 0.337891C373.997 0.337891 382.644 8.84065 382.644 19.3391L382.669 214.225C382.669 224.724 374.034 233.238 363.372 233.238L19.6895 233.275C9.02805 233.275 0.381011 224.772 0.381011 214.273L0.356445 19.3874C0.356445 8.88902 8.9912 0.374174 19.6526 0.374174Z" fill="#5E1EE5"/>
<path d="M19.6769 233.614C14.4322 233.614 9.49455 231.606 5.78516 227.954C2.07578 224.301 0.024566 219.439 0.024566 214.274L0 19.3882C0 8.72046 8.80672 0.0483784 19.6401 0.0362834L363.323 0C368.568 0 373.505 2.00777 377.215 5.66045C380.924 9.31313 382.975 14.1753 382.975 19.3398L383 214.226C383 219.39 380.961 224.253 377.252 227.905C373.542 231.558 368.605 233.578 363.36 233.578L19.6769 233.614ZM19.6524 1.85053C9.83847 1.85053 1.85469 9.71225 1.85469 19.3882L1.87926 214.274C1.87926 218.955 3.73395 223.358 7.09942 226.672C10.4649 229.986 14.9358 231.8 19.6892 231.8L363.372 231.764C368.126 231.764 372.597 229.937 375.962 226.623C379.327 223.309 381.17 218.907 381.17 214.226L381.145 19.3398C381.145 14.6591 379.291 10.2565 375.925 6.94251C372.56 3.62849 368.089 1.81424 363.335 1.81424L19.6524 1.85053Z" fill="url(#paint0_linear_17_6480)"/>
<g clip-path="url(#clip0_17_6480)">
<path d="M29.3241 26.1807H34.0907C34.2261 26.1807 34.352 26.2495 34.4239 26.3628C35.6363 28.2731 38.0019 31.9551 38.5507 32.7892C39.107 33.6348 39.6981 33.1859 39.9067 32.8518L43.0428 27.9016C43.2064 27.6433 43.0182 27.3082 42.7096 27.3082H40.7893C40.6516 27.3082 40.5239 27.3793 40.4528 27.4957L38.7841 30.2263C38.6396 30.4626 38.2983 30.4787 38.1318 30.2569L37.8416 29.8706C37.745 29.742 37.7384 29.5679 37.8251 29.4326L39.7911 26.3614C39.8631 26.2489 39.9885 26.1807 40.1234 26.1807H44.8308C45.1319 26.1807 45.3209 26.5009 45.1709 26.7585C43.9907 28.7861 41.8757 32.2896 40.7412 33.6975C39.4895 35.2509 38.342 34.5431 37.7509 33.8227L33.6939 27.4888C33.6219 27.3764 33.4965 27.3082 33.3617 27.3082H31.5443C31.2347 27.3082 31.0467 27.6448 31.212 27.9031L36.8002 36.6352C36.9526 36.8733 37.303 36.8769 37.4603 36.642L38.1883 35.5555C38.2772 35.4228 38.267 35.3031 38.4194 35.3548C38.7342 35.4618 39.2979 36.0092 39.1207 36.2874L37.4895 38.8487C37.3361 39.0895 36.9811 39.0909 36.8257 38.8514L28.9931 26.7776C28.8256 26.5194 29.0135 26.1807 29.3241 26.1807Z" fill="#FFFEFF"/>
<path d="M46.5944 39.0494V26.2788H55.8568V27.5194H48.018V31.9891H53.1391V33.2114H48.018V37.8088H55.9308V39.0494H46.5944ZM58.7264 39.0494V26.2788H64.2727C65.1232 26.2788 65.8627 26.4308 66.4912 26.7349C67.1199 27.039 67.6067 27.4646 67.9518 28.012C68.3092 28.5593 68.4879 29.2039 68.4879 29.9458C68.4879 30.785 68.2353 31.5087 67.73 32.1168C67.2369 32.7128 66.5714 33.1324 65.7333 33.3756L68.6358 39.0494H67.0644L64.2912 33.5581H60.1499V39.0494H58.7264ZM60.1499 32.3722H64.1803C65.0553 32.3722 65.7518 32.1533 66.2694 31.7155C66.7994 31.2776 67.0644 30.6877 67.0644 29.9458C67.0644 29.2161 66.7994 28.6322 66.2694 28.1944C65.7518 27.7566 65.0553 27.5376 64.1803 27.5376H60.1499V32.3722ZM71.3819 39.0494V26.2788H72.8054V39.0494H71.3819ZM77.8239 37.7724H80.745C81.4968 37.7724 82.1932 37.6447 82.8341 37.3893C83.475 37.1339 84.0358 36.7751 84.5166 36.3129C84.9972 35.8507 85.367 35.3094 85.6258 34.6892C85.897 34.0689 86.0325 33.3939 86.0325 32.6641C86.0325 31.9344 85.897 31.2593 85.6258 30.6391C85.367 30.0188 84.9972 29.4775 84.5166 29.0153C84.0358 28.5532 83.475 28.1944 82.8341 27.939C82.1932 27.6836 81.4968 27.5558 80.745 27.5558H77.8239V37.7724ZM76.4004 39.0494V26.2788H80.6711C81.6571 26.2788 82.563 26.4369 83.3888 26.7531C84.2146 27.0694 84.9295 27.5133 85.5334 28.0849C86.1497 28.6565 86.6242 29.3316 86.9569 30.11C87.302 30.8884 87.4746 31.7398 87.4746 32.6641C87.4746 33.5885 87.3082 34.4398 86.9754 35.2182C86.6427 35.9967 86.1682 36.6717 85.5519 37.2433C84.9479 37.815 84.2269 38.2589 83.3888 38.5751C82.563 38.8914 81.6571 39.0494 80.6711 39.0494H76.4004ZM90.4461 39.0494V26.2788H91.8697V39.0494H90.4461ZM101.529 39.2501C100.592 39.2501 99.717 39.0859 98.9033 38.7575C98.1019 38.417 97.3934 37.9487 96.7772 37.3528C96.1732 36.7446 95.6987 36.0453 95.3536 35.2547C95.0209 34.452 94.8545 33.5885 94.8545 32.6641C94.8545 31.7398 95.0209 30.8823 95.3536 30.0917C95.6987 29.289 96.1732 28.5897 96.7772 27.9937C97.3934 27.3856 98.1019 26.9173 98.9033 26.5889C99.717 26.2484 100.592 26.0781 101.529 26.0781C102.453 26.0781 103.316 26.2484 104.117 26.5889C104.93 26.9173 105.639 27.3856 106.243 27.9937C106.859 28.5897 107.334 29.289 107.667 30.0917C108.012 30.8823 108.184 31.7398 108.184 32.6641C108.184 33.5885 108.012 34.452 107.667 35.2547C107.334 36.0453 106.859 36.7446 106.243 37.3528C105.639 37.9487 104.93 38.417 104.117 38.7575C103.316 39.0859 102.453 39.2501 101.529 39.2501ZM101.529 37.9548C102.268 37.9548 102.952 37.821 103.581 37.5534C104.21 37.2859 104.758 36.9149 105.226 36.4406C105.707 35.9541 106.077 35.3885 106.335 34.7439C106.607 34.0993 106.742 33.4061 106.742 32.6641C106.742 31.91 106.607 31.2168 106.335 30.5843C106.077 29.9397 105.707 29.3803 105.226 28.9059C104.758 28.4194 104.21 28.0423 103.581 27.7748C102.952 27.5072 102.268 27.3734 101.529 27.3734C100.789 27.3734 100.099 27.5072 99.4582 27.7748C98.8294 28.0423 98.2745 28.4194 97.7941 28.9059C97.3257 29.3803 96.9559 29.9397 96.6847 30.5843C96.4259 31.2168 96.2965 31.904 96.2965 32.6459C96.2965 33.3999 96.4259 34.0993 96.6847 34.7439C96.9559 35.3885 97.3257 35.9541 97.7941 36.4406C98.2745 36.9149 98.8294 37.2859 99.4582 37.5534C100.099 37.821 100.789 37.9548 101.529 37.9548ZM111.153 39.0494V26.2788H112.577L120.36 36.6412V26.2788H121.71V39.0494H120.453L112.503 28.4133V39.0494H111.153Z" fill="#FFFEFF"/>
</g>
<mask id="mask0_17_6480" style="mask-type:luminance" maskUnits="userSpaceOnUse" x="299" y="173" width="36" height="37">
<path d="M316.983 209.238C326.739 209.238 334.648 201.301 334.648 191.51C334.648 181.719 326.739 173.782 316.983 173.782C307.226 173.782 299.317 181.719 299.317 191.51C299.317 201.301 307.226 209.238 316.983 209.238Z" fill="white"/>
</mask>
<g mask="url(#mask0_17_6480)">
<path d="M316.226 171.858L297.402 179.326V171.858H316.226Z" fill="#AECB3C"/>
</g>
<mask id="mask1_17_6480" style="mask-type:luminance" maskUnits="userSpaceOnUse" x="299" y="173" width="36" height="37">
<path d="M316.983 209.238C326.739 209.238 334.648 201.301 334.648 191.51C334.648 181.719 326.739 173.782 316.983 173.782C307.226 173.782 299.317 181.719 299.317 191.51C299.317 201.301 307.226 209.238 316.983 209.238Z" fill="white"/>
</mask>
<g mask="url(#mask1_17_6480)">
<path d="M317.298 171.858L297.402 179.75V179.326L316.226 171.858H317.298Z" fill="#AECB3C"/>
</g>
<mask id="mask2_17_6480" style="mask-type:luminance" maskUnits="userSpaceOnUse" x="299" y="173" width="36" height="37">
<path d="M316.983 209.238C326.739 209.238 334.648 201.301 334.648 191.51C334.648 181.719 326.739 173.782 316.983 173.782C307.226 173.782 299.317 181.719 299.317 191.51C299.317 201.301 307.226 209.238 316.983 209.238Z" fill="white"/>
</mask>
<g mask="url(#mask2_17_6480)">
<path d="M318.371 171.858L297.402 180.173V179.75L317.298 171.858H318.371Z" fill="#AFCB3D"/>
</g>
<mask id="mask3_17_6480" style="mask-type:luminance" maskUnits="userSpaceOnUse" x="299" y="173" width="36" height="37">
<path d="M316.983 209.238C326.739 209.238 334.648 201.301 334.648 191.51C334.648 181.719 326.739 173.782 316.983 173.782C307.226 173.782 299.317 181.719 299.317 191.51C299.317 201.301 307.226 209.238 316.983 209.238Z" fill="white"/>
</mask>
<g mask="url(#mask3_17_6480)">
<path d="M319.443 171.858L297.402 180.597V180.173L318.371 171.858H319.443Z" fill="#AFCC3E"/>
</g>
<mask id="mask4_17_6480" style="mask-type:luminance" maskUnits="userSpaceOnUse" x="299" y="173" width="36" height="37">
<path d="M316.983 209.238C326.739 209.238 334.648 201.301 334.648 191.51C334.648 181.719 326.739 173.782 316.983 173.782C307.226 173.782 299.317 181.719 299.317 191.51C299.317 201.301 307.226 209.238 316.983 209.238Z" fill="white"/>
</mask>
<g mask="url(#mask4_17_6480)">
<path d="M320.504 171.858L297.402 181.021V180.597L319.443 171.858H320.504Z" fill="#B0CC3F"/>
</g>
<mask id="mask5_17_6480" style="mask-type:luminance" maskUnits="userSpaceOnUse" x="299" y="173" width="36" height="37">
<path d="M316.983 209.238C326.739 209.238 334.648 201.301 334.648 191.51C334.648 181.719 326.739 173.782 316.983 173.782C307.226 173.782 299.317 181.719 299.317 191.51C299.317 201.301 307.226 209.238 316.983 209.238Z" fill="white"/>
</mask>
<g mask="url(#mask5_17_6480)">
<path d="M321.577 171.858L297.402 181.456V181.021L320.504 171.858H321.577Z" fill="#B0CC40"/>
</g>
<mask id="mask6_17_6480" style="mask-type:luminance" maskUnits="userSpaceOnUse" x="299" y="173" width="36" height="37">
<path d="M316.983 209.238C326.739 209.238 334.648 201.301 334.648 191.51C334.648 181.719 326.739 173.782 316.983 173.782C307.226 173.782 299.317 181.719 299.317 191.51C299.317 201.301 307.226 209.238 316.983 209.238Z" fill="white"/>
</mask>
<g mask="url(#mask6_17_6480)">
<path d="M322.649 171.858L297.402 181.88V181.456L321.577 171.858H322.649Z" fill="#B0CC41"/>
</g>
<mask id="mask7_17_6480" style="mask-type:luminance" maskUnits="userSpaceOnUse" x="299" y="173" width="36" height="37">
<path d="M316.983 209.238C326.739 209.238 334.648 201.301 334.648 191.51C334.648 181.719 326.739 173.782 316.983 173.782C307.226 173.782 299.317 181.719 299.317 191.51C299.317 201.301 307.226 209.238 316.983 209.238Z" fill="white"/>
</mask>
<g mask="url(#mask7_17_6480)">
<path d="M323.721 171.858L297.402 182.304V181.88L322.649 171.858H323.721Z" fill="#B1CC42"/>
</g>
<mask id="mask8_17_6480" style="mask-type:luminance" maskUnits="userSpaceOnUse" x="299" y="173" width="36" height="37">
<path d="M316.983 209.238C326.739 209.238 334.648 201.301 334.648 191.51C334.648 181.719 326.739 173.782 316.983 173.782C307.226 173.782 299.317 181.719 299.317 191.51C299.317 201.301 307.226 209.238 316.983 209.238Z" fill="white"/>
</mask>
<g mask="url(#mask8_17_6480)">
<path d="M324.783 171.858L297.402 182.728V182.304L323.721 171.858H324.783Z" fill="#B1CD43"/>
</g>
<mask id="mask9_17_6480" style="mask-type:luminance" maskUnits="userSpaceOnUse" x="299" y="173" width="36" height="37">
<path d="M316.983 209.238C326.739 209.238 334.648 201.301 334.648 191.51C334.648 181.719 326.739 173.782 316.983 173.782C307.226 173.782 299.317 181.719 299.317 191.51C299.317 201.301 307.226 209.238 316.983 209.238Z" fill="white"/>
</mask>
<g mask="url(#mask9_17_6480)">
<path d="M325.855 171.858L297.402 183.152V182.728L324.783 171.858H325.855Z" fill="#B2CD44"/>
</g>
<mask id="mask10_17_6480" style="mask-type:luminance" maskUnits="userSpaceOnUse" x="299" y="173" width="36" height="37">
<path d="M316.983 209.238C326.739 209.238 334.648 201.301 334.648 191.51C334.648 181.719 326.739 173.782 316.983 173.782C307.226 173.782 299.317 181.719 299.317 191.51C299.317 201.301 307.226 209.238 316.983 209.238Z" fill="white"/>
</mask>
<g mask="url(#mask10_17_6480)">
<path d="M326.927 171.858L297.402 183.576V183.152L325.855 171.858H326.927Z" fill="#B2CD45"/>
</g>
<mask id="mask11_17_6480" style="mask-type:luminance" maskUnits="userSpaceOnUse" x="299" y="173" width="36" height="37">
<path d="M316.983 209.238C326.739 209.238 334.648 201.301 334.648 191.51C334.648 181.719 326.739 173.782 316.983 173.782C307.226 173.782 299.317 181.719 299.317 191.51C299.317 201.301 307.226 209.238 316.983 209.238Z" fill="white"/>
</mask>
<g mask="url(#mask11_17_6480)">
<path d="M327.999 171.858L297.402 183.999V183.576L326.927 171.858H327.999Z" fill="#B3CD46"/>
</g>
<mask id="mask12_17_6480" style="mask-type:luminance" maskUnits="userSpaceOnUse" x="299" y="173" width="36" height="37">
<path d="M316.983 209.238C326.739 209.238 334.648 201.301 334.648 191.51C334.648 181.719 326.739 173.782 316.983 173.782C307.226 173.782 299.317 181.719 299.317 191.51C299.317 201.301 307.226 209.238 316.983 209.238Z" fill="white"/>
</mask>
<g mask="url(#mask12_17_6480)">
<path d="M329.061 171.858L297.402 184.423V183.999L327.999 171.858H329.061Z" fill="#B3CE47"/>
</g>
<mask id="mask13_17_6480" style="mask-type:luminance" maskUnits="userSpaceOnUse" x="299" y="173" width="36" height="37">
<path d="M316.983 209.238C326.739 209.238 334.648 201.301 334.648 191.51C334.648 181.719 326.739 173.782 316.983 173.782C307.226 173.782 299.317 181.719 299.317 191.51C299.317 201.301 307.226 209.238 316.983 209.238Z" fill="white"/>
</mask>
<g mask="url(#mask13_17_6480)">
<path d="M330.133 171.858L297.402 184.847V184.423L329.061 171.858H330.133Z" fill="#B3CE48"/>
</g>
<mask id="mask14_17_6480" style="mask-type:luminance" maskUnits="userSpaceOnUse" x="299" y="173" width="36" height="37">
<path d="M316.983 209.238C326.739 209.238 334.648 201.301 334.648 191.51C334.648 181.719 326.739 173.782 316.983 173.782C307.226 173.782 299.317 181.719 299.317 191.51C299.317 201.301 307.226 209.238 316.983 209.238Z" fill="white"/>
</mask>
<g mask="url(#mask14_17_6480)">
<path d="M331.205 171.858L297.402 185.271V184.847L330.133 171.858H331.205Z" fill="#B4CE49"/>
</g>
<mask id="mask15_17_6480" style="mask-type:luminance" maskUnits="userSpaceOnUse" x="299" y="173" width="36" height="37">
<path d="M316.983 209.238C326.739 209.238 334.648 201.301 334.648 191.51C334.648 181.719 326.739 173.782 316.983 173.782C307.226 173.782 299.317 181.719 299.317 191.51C299.317 201.301 307.226 209.238 316.983 209.238Z" fill="white"/>
</mask>
<g mask="url(#mask15_17_6480)">
<path d="M331.649 171.858L331.736 172.065L297.402 185.695V185.271L331.205 171.858H331.649Z" fill="#B4CE4A"/>
</g>
<mask id="mask16_17_6480" style="mask-type:luminance" maskUnits="userSpaceOnUse" x="299" y="173" width="36" height="37">
<path d="M316.983 209.238C326.739 209.238 334.648 201.301 334.648 191.51C334.648 181.719 326.739 173.782 316.983 173.782C307.226 173.782 299.317 181.719 299.317 191.51C299.317 201.301 307.226 209.238 316.983 209.238Z" fill="white"/>
</mask>
<g mask="url(#mask16_17_6480)">
<path d="M331.736 172.064L331.877 172.434L297.402 186.119V185.695L331.736 172.064Z" fill="#B5CE4B"/>
</g>
<mask id="mask17_17_6480" style="mask-type:luminance" maskUnits="userSpaceOnUse" x="299" y="173" width="36" height="37">
<path d="M316.983 209.238C326.739 209.238 334.648 201.301 334.648 191.51C334.648 181.719 326.739 173.782 316.983 173.782C307.226 173.782 299.317 181.719 299.317 191.51C299.317 201.301 307.226 209.238 316.983 209.238Z" fill="white"/>
</mask>
<g mask="url(#mask17_17_6480)">
<path d="M331.877 172.436L332.018 172.805L297.402 186.544V186.12L331.877 172.436Z" fill="#B5CF4C"/>
</g>
<mask id="mask18_17_6480" style="mask-type:luminance" maskUnits="userSpaceOnUse" x="299" y="173" width="36" height="37">
<path d="M316.983 209.238C326.739 209.238 334.648 201.301 334.648 191.51C334.648 181.719 326.739 173.782 316.983 173.782C307.226 173.782 299.317 181.719 299.317 191.51C299.317 201.301 307.226 209.238 316.983 209.238Z" fill="white"/>
</mask>
<g mask="url(#mask18_17_6480)">
<path d="M332.018 172.804L332.169 173.173L297.402 186.967V186.543L332.018 172.804Z" fill="#B5CF4D"/>
</g>
<mask id="mask19_17_6480" style="mask-type:luminance" maskUnits="userSpaceOnUse" x="299" y="173" width="36" height="37">
<path d="M316.983 209.238C326.739 209.238 334.648 201.301 334.648 191.51C334.648 181.719 326.739 173.782 316.983 173.782C307.226 173.782 299.317 181.719 299.317 191.51C299.317 201.301 307.226 209.238 316.983 209.238Z" fill="white"/>
</mask>
<g mask="url(#mask19_17_6480)">
<path d="M332.169 173.174L332.31 173.543L297.402 187.391V186.967L332.169 173.174Z" fill="#B6CF4E"/>
</g>
<mask id="mask20_17_6480" style="mask-type:luminance" maskUnits="userSpaceOnUse" x="299" y="173" width="36" height="37">
<path d="M316.983 209.238C326.739 209.238 334.648 201.301 334.648 191.51C334.648 181.719 326.739 173.782 316.983 173.782C307.226 173.782 299.317 181.719 299.317 191.51C299.317 201.301 307.226 209.238 316.983 209.238Z" fill="white"/>
</mask>
<g mask="url(#mask20_17_6480)">
<path d="M332.31 173.543L332.451 173.902L297.402 187.814V187.391L332.31 173.543Z" fill="#B6CF4F"/>
</g>
<mask id="mask21_17_6480" style="mask-type:luminance" maskUnits="userSpaceOnUse" x="299" y="173" width="36" height="37">
<path d="M316.983 209.238C326.739 209.238 334.648 201.301 334.648 191.51C334.648 181.719 326.739 173.782 316.983 173.782C307.226 173.782 299.317 181.719 299.317 191.51C299.317 201.301 307.226 209.238 316.983 209.238Z" fill="white"/>
</mask>
<g mask="url(#mask21_17_6480)">
<path d="M332.451 173.901L332.603 174.271L297.402 188.238V187.814L332.451 173.901Z" fill="#B7D050"/>
</g>
<mask id="mask22_17_6480" style="mask-type:luminance" maskUnits="userSpaceOnUse" x="299" y="173" width="36" height="37">
<path d="M316.983 209.238C326.739 209.238 334.648 201.301 334.648 191.51C334.648 181.719 326.739 173.782 316.983 173.782C307.226 173.782 299.317 181.719 299.317 191.51C299.317 201.301 307.226 209.238 316.983 209.238Z" fill="white"/>
</mask>
<g mask="url(#mask22_17_6480)">
<path d="M332.603 174.271L332.743 174.64L297.402 188.672V188.238L332.603 174.271Z" fill="#B7D051"/>
</g>
<mask id="mask23_17_6480" style="mask-type:luminance" maskUnits="userSpaceOnUse" x="299" y="173" width="36" height="37">
<path d="M316.983 209.238C326.739 209.238 334.648 201.301 334.648 191.51C334.648 181.719 326.739 173.782 316.983 173.782C307.226 173.782 299.317 181.719 299.317 191.51C299.317 201.301 307.226 209.238 316.983 209.238Z" fill="white"/>
</mask>
<g mask="url(#mask23_17_6480)">
<path d="M332.743 174.641L332.884 175.01L297.402 189.097V188.673L332.743 174.641Z" fill="#B7D053"/>
</g>
<mask id="mask24_17_6480" style="mask-type:luminance" maskUnits="userSpaceOnUse" x="299" y="173" width="36" height="37">
<path d="M316.983 209.238C326.739 209.238 334.648 201.301 334.648 191.51C334.648 181.719 326.739 173.782 316.983 173.782C307.226 173.782 299.317 181.719 299.317 191.51C299.317 201.301 307.226 209.238 316.983 209.238Z" fill="white"/>
</mask>
<g mask="url(#mask24_17_6480)">
<path d="M332.884 175.01L333.036 175.368L297.402 189.52V189.096L332.884 175.01Z" fill="#B8D054"/>
</g>
<mask id="mask25_17_6480" style="mask-type:luminance" maskUnits="userSpaceOnUse" x="299" y="173" width="36" height="37">
<path d="M316.983 209.238C326.739 209.238 334.648 201.301 334.648 191.51C334.648 181.719 326.739 173.782 316.983 173.782C307.226 173.782 299.317 181.719 299.317 191.51C299.317 201.301 307.226 209.238 316.983 209.238Z" fill="white"/>
</mask>
<g mask="url(#mask25_17_6480)">
<path d="M333.036 175.369L333.177 175.739L297.402 189.945V189.521L333.036 175.369Z" fill="#B8D055"/>
</g>
<mask id="mask26_17_6480" style="mask-type:luminance" maskUnits="userSpaceOnUse" x="299" y="173" width="36" height="37">
<path d="M316.983 209.238C326.739 209.238 334.648 201.301 334.648 191.51C334.648 181.719 326.739 173.782 316.983 173.782C307.226 173.782 299.317 181.719 299.317 191.51C299.317 201.301 307.226 209.238 316.983 209.238Z" fill="white"/>
</mask>
<g mask="url(#mask26_17_6480)">
<path d="M333.177 175.738L333.328 176.108L297.402 190.368V189.945L333.177 175.738Z" fill="#B9D156"/>
</g>
<mask id="mask27_17_6480" style="mask-type:luminance" maskUnits="userSpaceOnUse" x="299" y="173" width="36" height="37">
<path d="M316.983 209.238C326.739 209.238 334.648 201.301 334.648 191.51C334.648 181.719 326.739 173.782 316.983 173.782C307.226 173.782 299.317 181.719 299.317 191.51C299.317 201.301 307.226 209.238 316.983 209.238Z" fill="white"/>
</mask>
<g mask="url(#mask27_17_6480)">
<path d="M333.328 176.107L333.469 176.477L297.402 190.792V190.368L333.328 176.107Z" fill="#B9D157"/>
</g>
<mask id="mask28_17_6480" style="mask-type:luminance" maskUnits="userSpaceOnUse" x="299" y="173" width="36" height="37">
<path d="M316.983 209.238C326.739 209.238 334.648 201.301 334.648 191.51C334.648 181.719 326.739 173.782 316.983 173.782C307.226 173.782 299.317 181.719 299.317 191.51C299.317 201.301 307.226 209.238 316.983 209.238Z" fill="white"/>
</mask>
<g mask="url(#mask28_17_6480)">
<path d="M333.469 176.477L333.61 176.835L297.402 191.215V190.792L333.469 176.477Z" fill="#B9D158"/>
</g>
<mask id="mask29_17_6480" style="mask-type:luminance" maskUnits="userSpaceOnUse" x="299" y="173" width="36" height="37">
<path d="M316.983 209.238C326.739 209.238 334.648 201.301 334.648 191.51C334.648 181.719 326.739 173.782 316.983 173.782C307.226 173.782 299.317 181.719 299.317 191.51C299.317 201.301 307.226 209.238 316.983 209.238Z" fill="white"/>
</mask>
<g mask="url(#mask29_17_6480)">
<path d="M333.61 176.836L333.762 177.205L297.402 191.64V191.216L333.61 176.836Z" fill="#BAD159"/>
</g>
<mask id="mask30_17_6480" style="mask-type:luminance" maskUnits="userSpaceOnUse" x="299" y="173" width="36" height="37">
<path d="M316.983 209.238C326.739 209.238 334.648 201.301 334.648 191.51C334.648 181.719 326.739 173.782 316.983 173.782C307.226 173.782 299.317 181.719 299.317 191.51C299.317 201.301 307.226 209.238 316.983 209.238Z" fill="white"/>
</mask>
<g mask="url(#mask30_17_6480)">
<path d="M333.762 177.205L333.902 177.575L297.402 192.064V191.64L333.762 177.205Z" fill="#BAD25A"/>
</g>
<mask id="mask31_17_6480" style="mask-type:luminance" maskUnits="userSpaceOnUse" x="299" y="173" width="36" height="37">
<path d="M316.983 209.238C326.739 209.238 334.648 201.301 334.648 191.51C334.648 181.719 326.739 173.782 316.983 173.782C307.226 173.782 299.317 181.719 299.317 191.51C299.317 201.301 307.226 209.238 316.983 209.238Z" fill="white"/>
</mask>
<g mask="url(#mask31_17_6480)">
<path d="M333.902 177.576L334.043 177.946L297.402 192.489V192.065L333.902 177.576Z" fill="#BBD25B"/>
</g>
<mask id="mask32_17_6480" style="mask-type:luminance" maskUnits="userSpaceOnUse" x="299" y="173" width="36" height="37">
<path d="M316.983 209.238C326.739 209.238 334.648 201.301 334.648 191.51C334.648 181.719 326.739 173.782 316.983 173.782C307.226 173.782 299.317 181.719 299.317 191.51C299.317 201.301 307.226 209.238 316.983 209.238Z" fill="white"/>
</mask>
<g mask="url(#mask32_17_6480)">
<path d="M334.043 177.944L334.195 178.314L297.402 192.911V192.488L334.043 177.944Z" fill="#BBD25C"/>
</g>
<mask id="mask33_17_6480" style="mask-type:luminance" maskUnits="userSpaceOnUse" x="299" y="173" width="36" height="37">
<path d="M316.983 209.238C326.739 209.238 334.648 201.301 334.648 191.51C334.648 181.719 326.739 173.782 316.983 173.782C307.226 173.782 299.317 181.719 299.317 191.51C299.317 201.301 307.226 209.238 316.983 209.238Z" fill="white"/>
</mask>
<g mask="url(#mask33_17_6480)">
<path d="M334.195 178.314L334.336 178.673L297.402 193.336V192.912L334.195 178.314Z" fill="#BBD25D"/>
</g>
<mask id="mask34_17_6480" style="mask-type:luminance" maskUnits="userSpaceOnUse" x="299" y="173" width="36" height="37">
<path d="M316.983 209.238C326.739 209.238 334.648 201.301 334.648 191.51C334.648 181.719 326.739 173.782 316.983 173.782C307.226 173.782 299.317 181.719 299.317 191.51C299.317 201.301 307.226 209.238 316.983 209.238Z" fill="white"/>
</mask>
<g mask="url(#mask34_17_6480)">
<path d="M334.336 178.674L334.476 179.043L297.402 193.761V193.337L334.336 178.674Z" fill="#BCD35E"/>
</g>
<mask id="mask35_17_6480" style="mask-type:luminance" maskUnits="userSpaceOnUse" x="299" y="173" width="36" height="37">
<path d="M316.983 209.238C326.739 209.238 334.648 201.301 334.648 191.51C334.648 181.719 326.739 173.782 316.983 173.782C307.226 173.782 299.317 181.719 299.317 191.51C299.317 201.301 307.226 209.238 316.983 209.238Z" fill="white"/>
</mask>
<g mask="url(#mask35_17_6480)">
<path d="M334.476 179.042L334.628 179.412L297.402 194.183V193.759L334.476 179.042Z" fill="#BCD35F"/>
</g>
<mask id="mask36_17_6480" style="mask-type:luminance" maskUnits="userSpaceOnUse" x="299" y="173" width="36" height="37">
<path d="M316.983 209.238C326.739 209.238 334.648 201.301 334.648 191.51C334.648 181.719 326.739 173.782 316.983 173.782C307.226 173.782 299.317 181.719 299.317 191.51C299.317 201.301 307.226 209.238 316.983 209.238Z" fill="white"/>
</mask>
<g mask="url(#mask36_17_6480)">
<path d="M334.628 179.413L334.769 179.783L297.402 194.608V194.185L334.628 179.413Z" fill="#BDD360"/>
</g>
<mask id="mask37_17_6480" style="mask-type:luminance" maskUnits="userSpaceOnUse" x="299" y="173" width="36" height="37">
<path d="M316.983 209.238C326.739 209.238 334.648 201.301 334.648 191.51C334.648 181.719 326.739 173.782 316.983 173.782C307.226 173.782 299.317 181.719 299.317 191.51C299.317 201.301 307.226 209.238 316.983 209.238Z" fill="white"/>
</mask>
<g mask="url(#mask37_17_6480)">
<path d="M334.769 179.782L334.91 180.141L297.402 195.032V194.608L334.769 179.782Z" fill="#BDD361"/>
</g>
<mask id="mask38_17_6480" style="mask-type:luminance" maskUnits="userSpaceOnUse" x="299" y="173" width="36" height="37">
<path d="M316.983 209.238C326.739 209.238 334.648 201.301 334.648 191.51C334.648 181.719 326.739 173.782 316.983 173.782C307.226 173.782 299.317 181.719 299.317 191.51C299.317 201.301 307.226 209.238 316.983 209.238Z" fill="white"/>
</mask>
<g mask="url(#mask38_17_6480)">
<path d="M334.91 180.141L335.061 180.51L297.402 195.466V195.032L334.91 180.141Z" fill="#BDD362"/>
</g>
<mask id="mask39_17_6480" style="mask-type:luminance" maskUnits="userSpaceOnUse" x="299" y="173" width="36" height="37">
<path d="M316.983 209.238C326.739 209.238 334.648 201.301 334.648 191.51C334.648 181.719 326.739 173.782 316.983 173.782C307.226 173.782 299.317 181.719 299.317 191.51C299.317 201.301 307.226 209.238 316.983 209.238Z" fill="white"/>
</mask>
<g mask="url(#mask39_17_6480)">
<path d="M335.061 180.511L335.202 180.88L297.402 195.891V195.467L335.061 180.511Z" fill="#BED463"/>
</g>
<mask id="mask40_17_6480" style="mask-type:luminance" maskUnits="userSpaceOnUse" x="299" y="173" width="36" height="37">
<path d="M316.983 209.238C326.739 209.238 334.648 201.301 334.648 191.51C334.648 181.719 326.739 173.782 316.983 173.782C307.226 173.782 299.317 181.719 299.317 191.51C299.317 201.301 307.226 209.238 316.983 209.238Z" fill="white"/>
</mask>
<g mask="url(#mask40_17_6480)">
<path d="M335.202 180.88L335.354 181.249L297.402 196.314V195.891L335.202 180.88Z" fill="#BED464"/>
</g>
<mask id="mask41_17_6480" style="mask-type:luminance" maskUnits="userSpaceOnUse" x="299" y="173" width="36" height="37">
<path d="M316.983 209.238C326.739 209.238 334.648 201.301 334.648 191.51C334.648 181.719 326.739 173.782 316.983 173.782C307.226 173.782 299.317 181.719 299.317 191.51C299.317 201.301 307.226 209.238 316.983 209.238Z" fill="white"/>
</mask>
<g mask="url(#mask41_17_6480)">
<path d="M335.354 181.25L335.495 181.62L297.402 196.739V196.315L335.354 181.25Z" fill="#BED465"/>
</g>
<mask id="mask42_17_6480" style="mask-type:luminance" maskUnits="userSpaceOnUse" x="299" y="173" width="36" height="37">
<path d="M316.983 209.238C326.739 209.238 334.648 201.301 334.648 191.51C334.648 181.719 326.739 173.782 316.983 173.782C307.226 173.782 299.317 181.719 299.317 191.51C299.317 201.301 307.226 209.238 316.983 209.238Z" fill="white"/>
</mask>
<g mask="url(#mask42_17_6480)">
<path d="M335.495 181.619L335.635 181.978L297.402 197.162V196.738L335.495 181.619Z" fill="#BFD466"/>
</g>
<mask id="mask43_17_6480" style="mask-type:luminance" maskUnits="userSpaceOnUse" x="299" y="173" width="36" height="37">
<path d="M316.983 209.238C326.739 209.238 334.648 201.301 334.648 191.51C334.648 181.719 326.739 173.782 316.983 173.782C307.226 173.782 299.317 181.719 299.317 191.51C299.317 201.301 307.226 209.238 316.983 209.238Z" fill="white"/>
</mask>
<g mask="url(#mask43_17_6480)">
<path d="M335.635 181.978L335.787 182.347L297.402 197.586V197.162L335.635 181.978Z" fill="#BFD567"/>
</g>
<mask id="mask44_17_6480" style="mask-type:luminance" maskUnits="userSpaceOnUse" x="299" y="173" width="36" height="37">
<path d="M316.983 209.238C326.739 209.238 334.648 201.301 334.648 191.51C334.648 181.719 326.739 173.782 316.983 173.782C307.226 173.782 299.317 181.719 299.317 191.51C299.317 201.301 307.226 209.238 316.983 209.238Z" fill="white"/>
</mask>
<g mask="url(#mask44_17_6480)">
<path d="M335.787 182.348L335.928 182.717L297.402 198.01V197.587L335.787 182.348Z" fill="#C0D568"/>
</g>
<mask id="mask45_17_6480" style="mask-type:luminance" maskUnits="userSpaceOnUse" x="299" y="173" width="36" height="37">
<path d="M316.983 209.238C326.739 209.238 334.648 201.301 334.648 191.51C334.648 181.719 326.739 173.782 316.983 173.782C307.226 173.782 299.317 181.719 299.317 191.51C299.317 201.301 307.226 209.238 316.983 209.238Z" fill="white"/>
</mask>
<g mask="url(#mask45_17_6480)">
<path d="M335.928 182.717L336.069 183.086L297.402 198.434V198.01L335.928 182.717Z" fill="#C0D569"/>
</g>
<mask id="mask46_17_6480" style="mask-type:luminance" maskUnits="userSpaceOnUse" x="299" y="173" width="36" height="37">
<path d="M316.983 209.238C326.739 209.238 334.648 201.301 334.648 191.51C334.648 181.719 326.739 173.782 316.983 173.782C307.226 173.782 299.317 181.719 299.317 191.51C299.317 201.301 307.226 209.238 316.983 209.238Z" fill="white"/>
</mask>
<g mask="url(#mask46_17_6480)">
<path d="M336.069 183.086L336.22 183.445L297.467 198.836L297.402 198.662V198.433L336.069 183.086Z" fill="#C0D56A"/>
</g>
<mask id="mask47_17_6480" style="mask-type:luminance" maskUnits="userSpaceOnUse" x="300" y="174" width="35" height="35">
<path d="M324.985 206.509C333.264 202.114 336.424 191.814 332.042 183.504C327.66 175.193 317.397 172.019 309.118 176.414C300.839 180.809 297.679 191.109 302.061 199.42C306.443 207.73 316.706 210.904 324.985 206.509Z" fill="white"/>
</mask>
<g mask="url(#mask47_17_6480)">
<path d="M336.23 183.444L297.476 198.832L297.623 199.191L336.376 183.803L336.23 183.444Z" fill="#C1D66B"/>
</g>
<mask id="mask48_17_6480" style="mask-type:luminance" maskUnits="userSpaceOnUse" x="299" y="174" width="35" height="35">
<path d="M324.866 206.586C333.145 202.191 336.305 191.891 331.923 183.58C327.541 175.269 317.278 172.095 308.999 176.49C300.72 180.885 297.56 191.185 301.942 199.496C306.323 207.806 316.587 210.981 324.866 206.586Z" fill="white"/>
</mask>
<g mask="url(#mask48_17_6480)">
<path d="M336.377 183.811L297.623 199.198L297.757 199.528L336.511 184.141L336.377 183.811Z" fill="#C1D66B"/>
</g>
<mask id="mask49_17_6480" style="mask-type:luminance" maskUnits="userSpaceOnUse" x="299" y="173" width="36" height="37">
<path d="M316.983 209.238C326.739 209.238 334.648 201.301 334.648 191.51C334.648 181.719 326.739 173.782 316.983 173.782C307.226 173.782 299.317 181.719 299.317 191.51C299.317 201.301 307.226 209.238 316.983 209.238Z" fill="white"/>
</mask>
<g mask="url(#mask49_17_6480)">
<path d="M336.49 184.15L336.577 184.368V184.509L297.877 199.868L297.737 199.531L336.49 184.15Z" fill="#C1D66C"/>
</g>
<mask id="mask50_17_6480" style="mask-type:luminance" maskUnits="userSpaceOnUse" x="299" y="173" width="36" height="37">
<path d="M316.983 209.238C326.739 209.238 334.648 201.301 334.648 191.51C334.648 181.719 326.739 173.782 316.983 173.782C307.226 173.782 299.317 181.719 299.317 191.51C299.317 201.301 307.226 209.238 316.983 209.238Z" fill="white"/>
</mask>
<g mask="url(#mask50_17_6480)">
<path d="M336.575 184.901L298.006 200.205L297.876 199.868L336.575 184.51V184.901Z" fill="#C2D66D"/>
</g>
<mask id="mask51_17_6480" style="mask-type:luminance" maskUnits="userSpaceOnUse" x="299" y="173" width="36" height="37">
<path d="M316.983 209.238C326.739 209.238 334.648 201.301 334.648 191.51C334.648 181.719 326.739 173.782 316.983 173.782C307.226 173.782 299.317 181.719 299.317 191.51C299.317 201.301 307.226 209.238 316.983 209.238Z" fill="white"/>
</mask>
<g mask="url(#mask51_17_6480)">
<path d="M336.577 185.292L298.138 200.552L298.008 200.204L336.577 184.9V185.292Z" fill="#C2D66E"/>
</g>
<mask id="mask52_17_6480" style="mask-type:luminance" maskUnits="userSpaceOnUse" x="299" y="173" width="36" height="37">
<path d="M316.983 209.238C326.739 209.238 334.648 201.301 334.648 191.51C334.648 181.719 326.739 173.782 316.983 173.782C307.226 173.782 299.317 181.719 299.317 191.51C299.317 201.301 307.226 209.238 316.983 209.238Z" fill="white"/>
</mask>
<g mask="url(#mask52_17_6480)">
<path d="M336.578 185.684L298.28 200.891L298.139 200.554L336.578 185.293V185.684Z" fill="#C3D76F"/>
</g>
<mask id="mask53_17_6480" style="mask-type:luminance" maskUnits="userSpaceOnUse" x="299" y="173" width="36" height="37">
<path d="M316.983 209.238C326.739 209.238 334.648 201.301 334.648 191.51C334.648 181.719 326.739 173.782 316.983 173.782C307.226 173.782 299.317 181.719 299.317 191.51C299.317 201.301 307.226 209.238 316.983 209.238Z" fill="white"/>
</mask>
<g mask="url(#mask53_17_6480)">
<path d="M336.577 186.075L298.409 201.227L298.279 200.89L336.577 185.684V186.075Z" fill="#C3D770"/>
</g>
<mask id="mask54_17_6480" style="mask-type:luminance" maskUnits="userSpaceOnUse" x="299" y="173" width="36" height="37">
<path d="M316.983 209.238C326.739 209.238 334.648 201.301 334.648 191.51C334.648 181.719 326.739 173.782 316.983 173.782C307.226 173.782 299.317 181.719 299.317 191.51C299.317 201.301 307.226 209.238 316.983 209.238Z" fill="white"/>
</mask>
<g mask="url(#mask54_17_6480)">
<path d="M336.578 186.466L298.54 201.564L298.41 201.227L336.578 186.075V186.466Z" fill="#C4D771"/>
</g>
<mask id="mask55_17_6480" style="mask-type:luminance" maskUnits="userSpaceOnUse" x="299" y="173" width="36" height="37">
<path d="M316.983 209.238C326.739 209.238 334.648 201.301 334.648 191.51C334.648 181.719 326.739 173.782 316.983 173.782C307.226 173.782 299.317 181.719 299.317 191.51C299.317 201.301 307.226 209.238 316.983 209.238Z" fill="white"/>
</mask>
<g mask="url(#mask55_17_6480)">
<path d="M336.577 186.858L298.668 201.901L298.538 201.564L336.577 186.467V186.858Z" fill="#C4D772"/>
</g>
<mask id="mask56_17_6480" style="mask-type:luminance" maskUnits="userSpaceOnUse" x="299" y="173" width="36" height="37">
<path d="M316.983 209.238C326.739 209.238 334.648 201.301 334.648 191.51C334.648 181.719 326.739 173.782 316.983 173.782C307.226 173.782 299.317 181.719 299.317 191.51C299.317 201.301 307.226 209.238 316.983 209.238Z" fill="white"/>
</mask>
<g mask="url(#mask56_17_6480)">
<path d="M336.576 187.25L298.809 202.239L298.668 201.902L336.576 186.858V187.25Z" fill="#C5D873"/>
</g>
<mask id="mask57_17_6480" style="mask-type:luminance" maskUnits="userSpaceOnUse" x="299" y="173" width="36" height="37">
<path d="M316.983 209.238C326.739 209.238 334.648 201.301 334.648 191.51C334.648 181.719 326.739 173.782 316.983 173.782C307.226 173.782 299.317 181.719 299.317 191.51C299.317 201.301 307.226 209.238 316.983 209.238Z" fill="white"/>
</mask>
<g mask="url(#mask57_17_6480)">
<path d="M336.577 187.641L298.939 202.576L298.809 202.239L336.577 187.25V187.641Z" fill="#C5D874"/>
</g>
<mask id="mask58_17_6480" style="mask-type:luminance" maskUnits="userSpaceOnUse" x="299" y="173" width="36" height="37">
<path d="M316.983 209.238C326.739 209.238 334.648 201.301 334.648 191.51C334.648 181.719 326.739 173.782 316.983 173.782C307.226 173.782 299.317 181.719 299.317 191.51C299.317 201.301 307.226 209.238 316.983 209.238Z" fill="white"/>
</mask>
<g mask="url(#mask58_17_6480)">
<path d="M336.578 188.021L299.071 202.912L298.941 202.575L336.578 187.641V188.021Z" fill="#C6D875"/>
</g>
<mask id="mask59_17_6480" style="mask-type:luminance" maskUnits="userSpaceOnUse" x="299" y="173" width="36" height="37">
<path d="M316.983 209.238C326.739 209.238 334.648 201.301 334.648 191.51C334.648 181.719 326.739 173.782 316.983 173.782C307.226 173.782 299.317 181.719 299.317 191.51C299.317 201.301 307.226 209.238 316.983 209.238Z" fill="white"/>
</mask>
<g mask="url(#mask59_17_6480)">
<path d="M336.578 188.412L299.211 203.249L299.07 202.912L336.578 188.021V188.412Z" fill="#C6D976"/>
</g>
<mask id="mask60_17_6480" style="mask-type:luminance" maskUnits="userSpaceOnUse" x="299" y="173" width="36" height="37">
<path d="M316.983 209.238C326.739 209.238 334.648 201.301 334.648 191.51C334.648 181.719 326.739 173.782 316.983 173.782C307.226 173.782 299.317 181.719 299.317 191.51C299.317 201.301 307.226 209.238 316.983 209.238Z" fill="white"/>
</mask>
<g mask="url(#mask60_17_6480)">
<path d="M336.577 188.802L299.34 203.585L299.21 203.248L336.577 188.411V188.802Z" fill="#C6D977"/>
</g>
<mask id="mask61_17_6480" style="mask-type:luminance" maskUnits="userSpaceOnUse" x="299" y="173" width="36" height="37">
<path d="M316.983 209.238C326.739 209.238 334.648 201.301 334.648 191.51C334.648 181.719 326.739 173.782 316.983 173.782C307.226 173.782 299.317 181.719 299.317 191.51C299.317 201.301 307.226 209.238 316.983 209.238Z" fill="white"/>
</mask>
<g mask="url(#mask61_17_6480)">
<path d="M336.578 189.195L299.471 203.923L299.341 203.586L336.578 188.804V189.195Z" fill="#C7D978"/>
</g>
<mask id="mask62_17_6480" style="mask-type:luminance" maskUnits="userSpaceOnUse" x="299" y="173" width="36" height="37">
<path d="M316.983 209.238C326.739 209.238 334.648 201.301 334.648 191.51C334.648 181.719 326.739 173.782 316.983 173.782C307.226 173.782 299.317 181.719 299.317 191.51C299.317 201.301 307.226 209.238 316.983 209.238Z" fill="white"/>
</mask>
<g mask="url(#mask62_17_6480)">
<path d="M336.576 189.586L299.599 204.259L299.469 203.922L336.576 189.194V189.586Z" fill="#C7D979"/>
</g>
<mask id="mask63_17_6480" style="mask-type:luminance" maskUnits="userSpaceOnUse" x="299" y="173" width="36" height="37">
<path d="M316.983 209.238C326.739 209.238 334.648 201.301 334.648 191.51C334.648 181.719 326.739 173.782 316.983 173.782C307.226 173.782 299.317 181.719 299.317 191.51C299.317 201.301 307.226 209.238 316.983 209.238Z" fill="white"/>
</mask>
<g mask="url(#mask63_17_6480)">
<path d="M336.578 189.976L299.742 204.596L299.601 204.259L336.578 189.585V189.976Z" fill="#C8DA7A"/>
</g>
<mask id="mask64_17_6480" style="mask-type:luminance" maskUnits="userSpaceOnUse" x="299" y="173" width="36" height="37">
<path d="M316.983 209.238C326.739 209.238 334.648 201.301 334.648 191.51C334.648 181.719 326.739 173.782 316.983 173.782C307.226 173.782 299.317 181.719 299.317 191.51C299.317 201.301 307.226 209.238 316.983 209.238Z" fill="white"/>
</mask>
<g mask="url(#mask64_17_6480)">
<path d="M336.578 190.369L299.871 204.934L299.741 204.597L336.578 189.978V190.369Z" fill="#C8DA7B"/>
</g>
<mask id="mask65_17_6480" style="mask-type:luminance" maskUnits="userSpaceOnUse" x="299" y="173" width="36" height="37">
<path d="M316.983 209.238C326.739 209.238 334.648 201.301 334.648 191.51C334.648 181.719 326.739 173.782 316.983 173.782C307.226 173.782 299.317 181.719 299.317 191.51C299.317 201.301 307.226 209.238 316.983 209.238Z" fill="white"/>
</mask>
<g mask="url(#mask65_17_6480)">
<path d="M336.576 190.76L300 205.271L299.87 204.934L336.576 190.369V190.76Z" fill="#C9DA7C"/>
</g>
<mask id="mask66_17_6480" style="mask-type:luminance" maskUnits="userSpaceOnUse" x="299" y="173" width="36" height="37">
<path d="M316.983 209.238C326.739 209.238 334.648 201.301 334.648 191.51C334.648 181.719 326.739 173.782 316.983 173.782C307.226 173.782 299.317 181.719 299.317 191.51C299.317 201.301 307.226 209.238 316.983 209.238Z" fill="white"/>
</mask>
<g mask="url(#mask66_17_6480)">
<path d="M336.577 191.151L300.142 205.607L300.001 205.27L336.577 190.76V191.151Z" fill="#C9DA7D"/>
</g>
<mask id="mask67_17_6480" style="mask-type:luminance" maskUnits="userSpaceOnUse" x="299" y="173" width="36" height="37">
<path d="M316.983 209.238C326.739 209.238 334.648 201.301 334.648 191.51C334.648 181.719 326.739 173.782 316.983 173.782C307.226 173.782 299.317 181.719 299.317 191.51C299.317 201.301 307.226 209.238 316.983 209.238Z" fill="white"/>
</mask>
<g mask="url(#mask67_17_6480)">
<path d="M336.576 191.543L300.271 205.945L300.141 205.608L336.576 191.151V191.543Z" fill="#CADB7E"/>
</g>
<mask id="mask68_17_6480" style="mask-type:luminance" maskUnits="userSpaceOnUse" x="299" y="173" width="36" height="37">
<path d="M316.983 209.238C326.739 209.238 334.648 201.301 334.648 191.51C334.648 181.719 326.739 173.782 316.983 173.782C307.226 173.782 299.317 181.719 299.317 191.51C299.317 201.301 307.226 209.238 316.983 209.238Z" fill="white"/>
</mask>
<g mask="url(#mask68_17_6480)">
<path d="M336.578 191.934L300.402 206.293L300.272 205.945L336.578 191.543V191.934Z" fill="#CADB7F"/>
</g>
<mask id="mask69_17_6480" style="mask-type:luminance" maskUnits="userSpaceOnUse" x="299" y="173" width="36" height="37">
<path d="M316.983 209.238C326.739 209.238 334.648 201.301 334.648 191.51C334.648 181.719 326.739 173.782 316.983 173.782C307.226 173.782 299.317 181.719 299.317 191.51C299.317 201.301 307.226 209.238 316.983 209.238Z" fill="white"/>
</mask>
<g mask="url(#mask69_17_6480)">
<path d="M336.576 192.325L300.53 206.629L300.401 206.292L336.576 191.934V192.325Z" fill="#CBDB7F"/>
</g>
<mask id="mask70_17_6480" style="mask-type:luminance" maskUnits="userSpaceOnUse" x="299" y="173" width="36" height="37">
<path d="M316.983 209.238C326.739 209.238 334.648 201.301 334.648 191.51C334.648 181.719 326.739 173.782 316.983 173.782C307.226 173.782 299.317 181.719 299.317 191.51C299.317 201.301 307.226 209.238 316.983 209.238Z" fill="white"/>
</mask>
<g mask="url(#mask70_17_6480)">
<path d="M336.577 192.706L300.673 206.966L300.532 206.629L336.577 192.325V192.706Z" fill="#CBDB80"/>
</g>
<mask id="mask71_17_6480" style="mask-type:luminance" maskUnits="userSpaceOnUse" x="299" y="173" width="36" height="37">
<path d="M316.983 209.238C326.739 209.238 334.648 201.301 334.648 191.51C334.648 181.719 326.739 173.782 316.983 173.782C307.226 173.782 299.317 181.719 299.317 191.51C299.317 201.301 307.226 209.238 316.983 209.238Z" fill="white"/>
</mask>
<g mask="url(#mask71_17_6480)">
<path d="M336.577 193.096L300.802 207.303L300.672 206.966L336.577 192.705V193.096Z" fill="#CBDC81"/>
</g>
<mask id="mask72_17_6480" style="mask-type:luminance" maskUnits="userSpaceOnUse" x="299" y="173" width="36" height="37">
<path d="M316.983 209.238C326.739 209.238 334.648 201.301 334.648 191.51C334.648 181.719 326.739 173.782 316.983 173.782C307.226 173.782 299.317 181.719 299.317 191.51C299.317 201.301 307.226 209.238 316.983 209.238Z" fill="white"/>
</mask>
<g mask="url(#mask72_17_6480)">
<path d="M336.578 193.488L300.933 207.64L300.803 207.303L336.578 193.097V193.488Z" fill="#CCDC82"/>
</g>
<mask id="mask73_17_6480" style="mask-type:luminance" maskUnits="userSpaceOnUse" x="299" y="173" width="36" height="37">
<path d="M316.983 209.238C326.739 209.238 334.648 201.301 334.648 191.51C334.648 181.719 326.739 173.782 316.983 173.782C307.226 173.782 299.317 181.719 299.317 191.51C299.317 201.301 307.226 209.238 316.983 209.238Z" fill="white"/>
</mask>
<g mask="url(#mask73_17_6480)">
<path d="M336.577 193.88L301.073 207.977L300.932 207.64L336.577 193.488V193.88Z" fill="#CCDC83"/>
</g>
<mask id="mask74_17_6480" style="mask-type:luminance" maskUnits="userSpaceOnUse" x="299" y="173" width="36" height="37">
<path d="M316.983 209.238C326.739 209.238 334.648 201.301 334.648 191.51C334.648 181.719 326.739 173.782 316.983 173.782C307.226 173.782 299.317 181.719 299.317 191.51C299.317 201.301 307.226 209.238 316.983 209.238Z" fill="white"/>
</mask>
<g mask="url(#mask74_17_6480)">
<path d="M336.578 194.27L301.204 208.313L301.074 207.976L336.578 193.879V194.27Z" fill="#CDDD84"/>
</g>
<mask id="mask75_17_6480" style="mask-type:luminance" maskUnits="userSpaceOnUse" x="299" y="173" width="36" height="37">
<path d="M316.983 209.238C326.739 209.238 334.648 201.301 334.648 191.51C334.648 181.719 326.739 173.782 316.983 173.782C307.226 173.782 299.317 181.719 299.317 191.51C299.317 201.301 307.226 209.238 316.983 209.238Z" fill="white"/>
</mask>
<g mask="url(#mask75_17_6480)">
<path d="M336.577 194.661L301.333 208.65L301.203 208.313L336.577 194.27V194.661Z" fill="#CDDD85"/>
</g>
<mask id="mask76_17_6480" style="mask-type:luminance" maskUnits="userSpaceOnUse" x="299" y="173" width="36" height="37">
<path d="M316.983 209.238C326.739 209.238 334.648 201.301 334.648 191.51C334.648 181.719 326.739 173.782 316.983 173.782C307.226 173.782 299.317 181.719 299.317 191.51C299.317 201.301 307.226 209.238 316.983 209.238Z" fill="white"/>
</mask>
<g mask="url(#mask76_17_6480)">
<path d="M336.578 195.052L301.463 208.987L301.333 208.65L336.578 194.661V195.052Z" fill="#CEDD86"/>
</g>
<mask id="mask77_17_6480" style="mask-type:luminance" maskUnits="userSpaceOnUse" x="299" y="173" width="36" height="37">
<path d="M316.983 209.238C326.739 209.238 334.648 201.301 334.648 191.51C334.648 181.719 326.739 173.782 316.983 173.782C307.226 173.782 299.317 181.719 299.317 191.51C299.317 201.301 307.226 209.238 316.983 209.238Z" fill="white"/>
</mask>
<g mask="url(#mask77_17_6480)">
<path d="M336.577 195.444L301.604 209.324L301.463 208.987L336.577 195.053V195.444Z" fill="#CEDD87"/>
</g>
<mask id="mask78_17_6480" style="mask-type:luminance" maskUnits="userSpaceOnUse" x="299" y="173" width="36" height="37">
<path d="M316.983 209.238C326.739 209.238 334.648 201.301 334.648 191.51C334.648 181.719 326.739 173.782 316.983 173.782C307.226 173.782 299.317 181.719 299.317 191.51C299.317 201.301 307.226 209.238 316.983 209.238Z" fill="white"/>
</mask>
<g mask="url(#mask78_17_6480)">
<path d="M336.577 195.836L301.733 209.661L301.604 209.325L336.577 195.444V195.836Z" fill="#CEDE88"/>
</g>
<mask id="mask79_17_6480" style="mask-type:luminance" maskUnits="userSpaceOnUse" x="299" y="173" width="36" height="37">
<path d="M316.983 209.238C326.739 209.238 334.648 201.301 334.648 191.51C334.648 181.719 326.739 173.782 316.983 173.782C307.226 173.782 299.317 181.719 299.317 191.51C299.317 201.301 307.226 209.238 316.983 209.238Z" fill="white"/>
</mask>
<g mask="url(#mask79_17_6480)">
<path d="M336.575 196.228L301.862 210L301.732 209.663L336.575 195.837V196.228Z" fill="#CFDE89"/>
</g>
<mask id="mask80_17_6480" style="mask-type:luminance" maskUnits="userSpaceOnUse" x="299" y="173" width="36" height="37">
<path d="M316.983 209.238C326.739 209.238 334.648 201.301 334.648 191.51C334.648 181.719 326.739 173.782 316.983 173.782C307.226 173.782 299.317 181.719 299.317 191.51C299.317 201.301 307.226 209.238 316.983 209.238Z" fill="white"/>
</mask>
<g mask="url(#mask80_17_6480)">
<path d="M336.578 196.619L302.006 210.336L301.865 209.999L336.578 196.228V196.619Z" fill="#CFDE8A"/>
</g>
<mask id="mask81_17_6480" style="mask-type:luminance" maskUnits="userSpaceOnUse" x="299" y="173" width="36" height="37">
<path d="M316.983 209.238C326.739 209.238 334.648 201.301 334.648 191.51C334.648 181.719 326.739 173.782 316.983 173.782C307.226 173.782 299.317 181.719 299.317 191.51C299.317 201.301 307.226 209.238 316.983 209.238Z" fill="white"/>
</mask>
<g mask="url(#mask81_17_6480)">
<path d="M336.576 197.01L302.133 210.673L302.003 210.336L336.576 196.619V197.01Z" fill="#D0DE8B"/>
</g>
<mask id="mask82_17_6480" style="mask-type:luminance" maskUnits="userSpaceOnUse" x="299" y="173" width="36" height="37">
<path d="M316.983 209.238C326.739 209.238 334.648 201.301 334.648 191.51C334.648 181.719 326.739 173.782 316.983 173.782C307.226 173.782 299.317 181.719 299.317 191.51C299.317 201.301 307.226 209.238 316.983 209.238Z" fill="white"/>
</mask>
<g mask="url(#mask82_17_6480)">
<path d="M336.579 197.39L302.266 211.01L302.136 210.673L336.579 197.01V197.39Z" fill="#D0DF8C"/>
</g>
<mask id="mask83_17_6480" style="mask-type:luminance" maskUnits="userSpaceOnUse" x="299" y="173" width="36" height="37">
<path d="M316.983 209.238C326.739 209.238 334.648 201.301 334.648 191.51C334.648 181.719 326.739 173.782 316.983 173.782C307.226 173.782 299.317 181.719 299.317 191.51C299.317 201.301 307.226 209.238 316.983 209.238Z" fill="white"/>
</mask>
<g mask="url(#mask83_17_6480)">
<path d="M336.578 197.782L302.85 211.173H302.33L302.266 211.01L336.578 197.391V197.782Z" fill="#D1DF8D"/>
</g>
<mask id="mask84_17_6480" style="mask-type:luminance" maskUnits="userSpaceOnUse" x="299" y="173" width="36" height="37">
<path d="M316.983 209.238C326.739 209.238 334.648 201.301 334.648 191.51C334.648 181.719 326.739 173.782 316.983 173.782C307.226 173.782 299.317 181.719 299.317 191.51C299.317 201.301 307.226 209.238 316.983 209.238Z" fill="white"/>
</mask>
<g mask="url(#mask84_17_6480)">
<path d="M336.576 198.172L303.823 211.171H302.849L336.576 197.78V198.172Z" fill="#D1DF8E"/>
</g>
<mask id="mask85_17_6480" style="mask-type:luminance" maskUnits="userSpaceOnUse" x="299" y="173" width="36" height="37">
<path d="M316.983 209.238C326.739 209.238 334.648 201.301 334.648 191.51C334.648 181.719 326.739 173.782 316.983 173.782C307.226 173.782 299.317 181.719 299.317 191.51C299.317 201.301 307.226 209.238 316.983 209.238Z" fill="white"/>
</mask>
<g mask="url(#mask85_17_6480)">
<path d="M336.578 198.564L304.81 211.173H303.825L336.578 198.173V198.564Z" fill="#D1DF8F"/>
</g>
<mask id="mask86_17_6480" style="mask-type:luminance" maskUnits="userSpaceOnUse" x="299" y="173" width="36" height="37">
<path d="M316.983 209.238C326.739 209.238 334.648 201.301 334.648 191.51C334.648 181.719 326.739 173.782 316.983 173.782C307.226 173.782 299.317 181.719 299.317 191.51C299.317 201.301 307.226 209.238 316.983 209.238Z" fill="white"/>
</mask>
<g mask="url(#mask86_17_6480)">
<path d="M336.577 198.955L305.795 211.172H304.809L336.577 198.563V198.955Z" fill="#D2E090"/>
</g>
<mask id="mask87_17_6480" style="mask-type:luminance" maskUnits="userSpaceOnUse" x="299" y="173" width="36" height="37">
<path d="M316.983 209.238C326.739 209.238 334.648 201.301 334.648 191.51C334.648 181.719 326.739 173.782 316.983 173.782C307.226 173.782 299.317 181.719 299.317 191.51C299.317 201.301 307.226 209.238 316.983 209.238Z" fill="white"/>
</mask>
<g mask="url(#mask87_17_6480)">
<path d="M336.577 199.346L306.78 211.172H305.795L336.577 198.955V199.346Z" fill="#D2E091"/>
</g>
<mask id="mask88_17_6480" style="mask-type:luminance" maskUnits="userSpaceOnUse" x="299" y="173" width="36" height="37">
<path d="M316.983 209.238C326.739 209.238 334.648 201.301 334.648 191.51C334.648 181.719 326.739 173.782 316.983 173.782C307.226 173.782 299.317 181.719 299.317 191.51C299.317 201.301 307.226 209.238 316.983 209.238Z" fill="white"/>
</mask>
<g mask="url(#mask88_17_6480)">
<path d="M336.576 199.738L307.766 211.173H306.78L336.576 199.347V199.738Z" fill="#D3E091"/>
</g>
<mask id="mask89_17_6480" style="mask-type:luminance" maskUnits="userSpaceOnUse" x="299" y="173" width="36" height="37">
<path d="M316.983 209.238C326.739 209.238 334.648 201.301 334.648 191.51C334.648 181.719 326.739 173.782 316.983 173.782C307.226 173.782 299.317 181.719 299.317 191.51C299.317 201.301 307.226 209.238 316.983 209.238Z" fill="white"/>
</mask>
<g mask="url(#mask89_17_6480)">
<path d="M336.576 200.129L308.751 211.172H307.766L336.576 199.737V200.129Z" fill="#D3E092"/>
</g>
<mask id="mask90_17_6480" style="mask-type:luminance" maskUnits="userSpaceOnUse" x="299" y="173" width="36" height="37">
<path d="M316.983 209.238C326.739 209.238 334.648 201.301 334.648 191.51C334.648 181.719 326.739 173.782 316.983 173.782C307.226 173.782 299.317 181.719 299.317 191.51C299.317 201.301 307.226 209.238 316.983 209.238Z" fill="white"/>
</mask>
<g mask="url(#mask90_17_6480)">
<path d="M336.576 200.52L309.726 211.172H308.751L336.576 200.129V200.52Z" fill="#D3E193"/>
</g>
<mask id="mask91_17_6480" style="mask-type:luminance" maskUnits="userSpaceOnUse" x="299" y="173" width="36" height="37">
<path d="M316.983 209.238C326.739 209.238 334.648 201.301 334.648 191.51C334.648 181.719 326.739 173.782 316.983 173.782C307.226 173.782 299.317 181.719 299.317 191.51C299.317 201.301 307.226 209.238 316.983 209.238Z" fill="white"/>
</mask>
<g mask="url(#mask91_17_6480)">
<path d="M336.577 200.912L310.713 211.173H309.727L336.577 200.521V200.912Z" fill="#D4E194"/>
</g>
<mask id="mask92_17_6480" style="mask-type:luminance" maskUnits="userSpaceOnUse" x="299" y="173" width="36" height="37">
<path d="M316.983 209.238C326.739 209.238 334.648 201.301 334.648 191.51C334.648 181.719 326.739 173.782 316.983 173.782C307.226 173.782 299.317 181.719 299.317 191.51C299.317 201.301 307.226 209.238 316.983 209.238Z" fill="white"/>
</mask>
<g mask="url(#mask92_17_6480)">
<path d="M336.577 201.302L311.699 211.172H310.713L336.577 200.911V201.302Z" fill="#D4E195"/>
</g>
<mask id="mask93_17_6480" style="mask-type:luminance" maskUnits="userSpaceOnUse" x="299" y="173" width="36" height="37">
<path d="M316.983 209.238C326.739 209.238 334.648 201.301 334.648 191.51C334.648 181.719 326.739 173.782 316.983 173.782C307.226 173.782 299.317 181.719 299.317 191.51C299.317 201.301 307.226 209.238 316.983 209.238Z" fill="white"/>
</mask>
<g mask="url(#mask93_17_6480)">
<path d="M336.577 201.695L312.684 211.173H311.698L336.577 201.304V201.695Z" fill="#D5E196"/>
</g>
<mask id="mask94_17_6480" style="mask-type:luminance" maskUnits="userSpaceOnUse" x="299" y="173" width="36" height="37">
<path d="M316.983 209.238C326.739 209.238 334.648 201.301 334.648 191.51C334.648 181.719 326.739 173.782 316.983 173.782C307.226 173.782 299.317 181.719 299.317 191.51C299.317 201.301 307.226 209.238 316.983 209.238Z" fill="white"/>
</mask>
<g mask="url(#mask94_17_6480)">
<path d="M336.576 202.087L313.669 211.173H312.683L336.576 201.695V202.087Z" fill="#D5E297"/>
</g>
<mask id="mask95_17_6480" style="mask-type:luminance" maskUnits="userSpaceOnUse" x="299" y="173" width="36" height="37">
<path d="M316.983 209.238C326.739 209.238 334.648 201.301 334.648 191.51C334.648 181.719 326.739 173.782 316.983 173.782C307.226 173.782 299.317 181.719 299.317 191.51C299.317 201.301 307.226 209.238 316.983 209.238Z" fill="white"/>
</mask>
<g mask="url(#mask95_17_6480)">
<path d="M336.576 202.466L314.643 211.173H313.668L336.576 202.086V202.466Z" fill="#D5E298"/>
</g>
<mask id="mask96_17_6480" style="mask-type:luminance" maskUnits="userSpaceOnUse" x="299" y="173" width="36" height="37">
<path d="M316.983 209.238C326.739 209.238 334.648 201.301 334.648 191.51C334.648 181.719 326.739 173.782 316.983 173.782C307.226 173.782 299.317 181.719 299.317 191.51C299.317 201.301 307.226 209.238 316.983 209.238Z" fill="white"/>
</mask>
<g mask="url(#mask96_17_6480)">
<path d="M336.577 202.856L315.63 211.171H314.644L336.577 202.465V202.856Z" fill="#D6E299"/>
</g>
<mask id="mask97_17_6480" style="mask-type:luminance" maskUnits="userSpaceOnUse" x="299" y="173" width="36" height="37">
<path d="M316.983 209.238C326.739 209.238 334.648 201.301 334.648 191.51C334.648 181.719 326.739 173.782 316.983 173.782C307.226 173.782 299.317 181.719 299.317 191.51C299.317 201.301 307.226 209.238 316.983 209.238Z" fill="white"/>
</mask>
<g mask="url(#mask97_17_6480)">
<path d="M336.577 203.249L316.616 211.172H315.63L336.577 202.857V203.249Z" fill="#D6E29A"/>
</g>
<mask id="mask98_17_6480" style="mask-type:luminance" maskUnits="userSpaceOnUse" x="299" y="173" width="36" height="37">
<path d="M316.983 209.238C326.739 209.238 334.648 201.301 334.648 191.51C334.648 181.719 326.739 173.782 316.983 173.782C307.226 173.782 299.317 181.719 299.317 191.51C299.317 201.301 307.226 209.238 316.983 209.238Z" fill="white"/>
</mask>
<g mask="url(#mask98_17_6480)">
<path d="M336.577 203.64L317.601 211.173H316.615L336.577 203.249V203.64Z" fill="#D7E39B"/>
</g>
<mask id="mask99_17_6480" style="mask-type:luminance" maskUnits="userSpaceOnUse" x="299" y="173" width="36" height="37">
<path d="M316.983 209.238C326.739 209.238 334.648 201.301 334.648 191.51C334.648 181.719 326.739 173.782 316.983 173.782C307.226 173.782 299.317 181.719 299.317 191.51C299.317 201.301 307.226 209.238 316.983 209.238Z" fill="white"/>
</mask>
<g mask="url(#mask99_17_6480)">
<path d="M317.603 211.172L336.579 203.64V211.172H317.603Z" fill="#D7E39B"/>
</g>
<path d="M316.964 210.335C313.714 210.335 310.509 209.476 307.617 207.802C303.284 205.292 300.176 201.226 298.876 196.379C297.576 191.52 298.248 186.455 300.75 182.096C303.252 177.738 307.303 174.629 312.133 173.325C322.119 170.64 332.42 176.607 335.095 186.629C336.395 191.488 335.723 196.553 333.221 200.911C330.719 205.259 326.668 208.379 321.838 209.683C320.224 210.129 318.588 210.335 316.964 210.335ZM316.985 174.868C315.567 174.868 314.126 175.053 312.696 175.433C308.418 176.586 304.844 179.336 302.624 183.183C300.403 187.031 299.818 191.52 300.966 195.814C303.338 204.683 312.447 209.965 321.275 207.585C325.553 206.433 329.127 203.683 331.347 199.835C333.568 195.987 334.153 191.498 333.005 187.205C331.022 179.781 324.307 174.868 316.985 174.868Z" fill="url(#paint1_linear_17_6480)"/>
<g opacity="0.9">
<mask id="mask100_17_6480" style="mask-type:luminance" maskUnits="userSpaceOnUse" x="321" y="172" width="37" height="38">
<path d="M339.354 209.781C349.487 209.781 357.702 201.537 357.702 191.368C357.702 181.199 349.487 172.955 339.354 172.955C329.221 172.955 321.006 181.199 321.006 191.368C321.006 201.537 329.221 209.781 339.354 209.781Z" fill="white"/>
</mask>
<g mask="url(#mask100_17_6480)">
<path d="M344.4 170.945L319.013 177.771V170.945H344.4Z" fill="#EBEBEC"/>
</g>
<mask id="mask101_17_6480" style="mask-type:luminance" maskUnits="userSpaceOnUse" x="321" y="172" width="37" height="38">
<path d="M339.354 209.781C349.487 209.781 357.702 201.537 357.702 191.368C357.702 181.199 349.487 172.955 339.354 172.955C329.221 172.955 321.006 181.199 321.006 191.368C321.006 201.537 329.221 209.781 339.354 209.781Z" fill="white"/>
</mask>
<g mask="url(#mask101_17_6480)">
<path d="M347.585 170.945L319.013 178.63V177.771L344.4 170.945H347.585Z" fill="#EBEBEC"/>
</g>
<mask id="mask102_17_6480" style="mask-type:luminance" maskUnits="userSpaceOnUse" x="321" y="172" width="37" height="38">
<path d="M339.354 209.781C349.487 209.781 357.702 201.537 357.702 191.368C357.702 181.199 349.487 172.955 339.354 172.955C329.221 172.955 321.006 181.199 321.006 191.368C321.006 201.537 329.221 209.781 339.354 209.781Z" fill="white"/>
</mask>
<g mask="url(#mask102_17_6480)">
<path d="M350.78 170.945L319.013 179.489V178.63L347.585 170.945H350.78Z" fill="#EAEAEB"/>
</g>
<mask id="mask103_17_6480" style="mask-type:luminance" maskUnits="userSpaceOnUse" x="321" y="172" width="37" height="38">
<path d="M339.354 209.781C349.487 209.781 357.702 201.537 357.702 191.368C357.702 181.199 349.487 172.955 339.354 172.955C329.221 172.955 321.006 181.199 321.006 191.368C321.006 201.537 329.221 209.781 339.354 209.781Z" fill="white"/>
</mask>
<g mask="url(#mask103_17_6480)">
<path d="M353.975 170.945L319.013 180.347V179.489L350.78 170.945H353.975Z" fill="#EAE9EA"/>
</g>
<mask id="mask104_17_6480" style="mask-type:luminance" maskUnits="userSpaceOnUse" x="321" y="172" width="37" height="38">
<path d="M339.354 209.781C349.487 209.781 357.702 201.537 357.702 191.368C357.702 181.199 349.487 172.955 339.354 172.955C329.221 172.955 321.006 181.199 321.006 191.368C321.006 201.537 329.221 209.781 339.354 209.781Z" fill="white"/>
</mask>
<g mask="url(#mask104_17_6480)">
<path d="M355.145 170.945L355.286 171.456L319.013 181.206V180.347L353.975 170.945H355.145Z" fill="#E9E8E9"/>
</g>
<mask id="mask105_17_6480" style="mask-type:luminance" maskUnits="userSpaceOnUse" x="321" y="172" width="37" height="38">
<path d="M339.354 209.781C349.487 209.781 357.702 201.537 357.702 191.368C357.702 181.199 349.487 172.955 339.354 172.955C329.221 172.955 321.006 181.199 321.006 191.368C321.006 201.537 329.221 209.781 339.354 209.781Z" fill="white"/>
</mask>
<g mask="url(#mask105_17_6480)">
<path d="M355.286 171.455L355.491 172.249L319.013 182.064V181.205L355.286 171.455Z" fill="#E8E7E9"/>
</g>
<mask id="mask106_17_6480" style="mask-type:luminance" maskUnits="userSpaceOnUse" x="321" y="172" width="37" height="38">
<path d="M339.354 209.781C349.487 209.781 357.702 201.537 357.702 191.368C357.702 181.199 349.487 172.955 339.354 172.955C329.221 172.955 321.006 181.199 321.006 191.368C321.006 201.537 329.221 209.781 339.354 209.781Z" fill="white"/>
</mask>
<g mask="url(#mask106_17_6480)">
<path d="M355.491 172.249L355.708 173.053L319.013 182.923V182.064L355.491 172.249Z" fill="#E7E7E8"/>
</g>
<mask id="mask107_17_6480" style="mask-type:luminance" maskUnits="userSpaceOnUse" x="321" y="172" width="37" height="38">
<path d="M339.354 209.781C349.487 209.781 357.702 201.537 357.702 191.368C357.702 181.199 349.487 172.955 339.354 172.955C329.221 172.955 321.006 181.199 321.006 191.368C321.006 201.537 329.221 209.781 339.354 209.781Z" fill="white"/>
</mask>
<g mask="url(#mask107_17_6480)">
<path d="M355.708 173.054L355.925 173.858L319.013 183.782V182.923L355.708 173.054Z" fill="#E6E6E7"/>
</g>
<mask id="mask108_17_6480" style="mask-type:luminance" maskUnits="userSpaceOnUse" x="321" y="172" width="37" height="38">
<path d="M339.354 209.781C349.487 209.781 357.702 201.537 357.702 191.368C357.702 181.199 349.487 172.955 339.354 172.955C329.221 172.955 321.006 181.199 321.006 191.368C321.006 201.537 329.221 209.781 339.354 209.781Z" fill="white"/>
</mask>
<g mask="url(#mask108_17_6480)">
<path d="M355.925 173.858L356.13 174.652L319.013 184.641V183.782L355.925 173.858Z" fill="#E5E5E6"/>
</g>
<mask id="mask109_17_6480" style="mask-type:luminance" maskUnits="userSpaceOnUse" x="321" y="172" width="37" height="38">
<path d="M339.354 209.781C349.487 209.781 357.702 201.537 357.702 191.368C357.702 181.199 349.487 172.955 339.354 172.955C329.221 172.955 321.006 181.199 321.006 191.368C321.006 201.537 329.221 209.781 339.354 209.781Z" fill="white"/>
</mask>
<g mask="url(#mask109_17_6480)">
<path d="M356.13 174.649L356.347 175.454L319.013 185.486V184.638L356.13 174.649Z" fill="#E4E4E5"/>
</g>
<mask id="mask110_17_6480" style="mask-type:luminance" maskUnits="userSpaceOnUse" x="321" y="172" width="37" height="38">
<path d="M339.354 209.781C349.487 209.781 357.702 201.537 357.702 191.368C357.702 181.199 349.487 172.955 339.354 172.955C329.221 172.955 321.006 181.199 321.006 191.368C321.006 201.537 329.221 209.781 339.354 209.781Z" fill="white"/>
</mask>
<g mask="url(#mask110_17_6480)">
<path d="M356.347 175.454L356.564 176.258L319.013 186.345V185.487L356.347 175.454Z" fill="#E3E3E4"/>
</g>
<mask id="mask111_17_6480" style="mask-type:luminance" maskUnits="userSpaceOnUse" x="321" y="172" width="37" height="38">
<path d="M339.354 209.781C349.487 209.781 357.702 201.537 357.702 191.368C357.702 181.199 349.487 172.955 339.354 172.955C329.221 172.955 321.006 181.199 321.006 191.368C321.006 201.537 329.221 209.781 339.354 209.781Z" fill="white"/>
</mask>
<g mask="url(#mask111_17_6480)">
<path d="M356.564 176.259L356.78 177.052L319.013 187.204V186.346L356.564 176.259Z" fill="#E2E2E3"/>
</g>
<mask id="mask112_17_6480" style="mask-type:luminance" maskUnits="userSpaceOnUse" x="321" y="172" width="37" height="38">
<path d="M339.354 209.781C349.487 209.781 357.702 201.537 357.702 191.368C357.702 181.199 349.487 172.955 339.354 172.955C329.221 172.955 321.006 181.199 321.006 191.368C321.006 201.537 329.221 209.781 339.354 209.781Z" fill="white"/>
</mask>
<g mask="url(#mask112_17_6480)">
<path d="M356.78 177.054L356.986 177.858L319.013 188.064V187.206L356.78 177.054Z" fill="#E1E1E3"/>
</g>
<mask id="mask113_17_6480" style="mask-type:luminance" maskUnits="userSpaceOnUse" x="321" y="172" width="37" height="38">
<path d="M339.354 209.781C349.487 209.781 357.702 201.537 357.702 191.368C357.702 181.199 349.487 172.955 339.354 172.955C329.221 172.955 321.006 181.199 321.006 191.368C321.006 201.537 329.221 209.781 339.354 209.781Z" fill="white"/>
</mask>
<g mask="url(#mask113_17_6480)">
<path d="M356.986 177.857L357.203 178.662L319.013 188.922V188.064L356.986 177.857Z" fill="#E1E0E2"/>
</g>
<mask id="mask114_17_6480" style="mask-type:luminance" maskUnits="userSpaceOnUse" x="321" y="172" width="37" height="38">
<path d="M339.354 209.781C349.487 209.781 357.702 201.537 357.702 191.368C357.702 181.199 349.487 172.955 339.354 172.955C329.221 172.955 321.006 181.199 321.006 191.368C321.006 201.537 329.221 209.781 339.354 209.781Z" fill="white"/>
</mask>
<g mask="url(#mask114_17_6480)">
<path d="M357.203 178.662L357.419 179.456L319.013 189.781V188.923L357.203 178.662Z" fill="#E0DFE1"/>
</g>
<mask id="mask115_17_6480" style="mask-type:luminance" maskUnits="userSpaceOnUse" x="321" y="172" width="37" height="38">
<path d="M339.354 209.781C349.487 209.781 357.702 201.537 357.702 191.368C357.702 181.199 349.487 172.955 339.354 172.955C329.221 172.955 321.006 181.199 321.006 191.368C321.006 201.537 329.221 209.781 339.354 209.781Z" fill="white"/>
</mask>
<g mask="url(#mask115_17_6480)">
<path d="M357.419 179.454L357.636 180.258L319.013 190.639V189.78L357.419 179.454Z" fill="#DFDEE0"/>
</g>
<mask id="mask116_17_6480" style="mask-type:luminance" maskUnits="userSpaceOnUse" x="321" y="172" width="37" height="38">
<path d="M339.354 209.781C349.487 209.781 357.702 201.537 357.702 191.368C357.702 181.199 349.487 172.955 339.354 172.955C329.221 172.955 321.006 181.199 321.006 191.368C321.006 201.537 329.221 209.781 339.354 209.781Z" fill="white"/>
</mask>
<g mask="url(#mask116_17_6480)">
<path d="M357.636 180.259L357.842 181.052L319.013 191.498V190.639L357.636 180.259Z" fill="#DEDEDF"/>
</g>
<mask id="mask117_17_6480" style="mask-type:luminance" maskUnits="userSpaceOnUse" x="321" y="172" width="37" height="38">
<path d="M339.354 209.781C349.487 209.781 357.702 201.537 357.702 191.368C357.702 181.199 349.487 172.955 339.354 172.955C329.221 172.955 321.006 181.199 321.006 191.368C321.006 201.537 329.221 209.781 339.354 209.781Z" fill="white"/>
</mask>
<g mask="url(#mask117_17_6480)">
<path d="M357.842 181.053L358.058 181.857L319.013 192.357V191.498L357.842 181.053Z" fill="#DDDDDE"/>
</g>
<mask id="mask118_17_6480" style="mask-type:luminance" maskUnits="userSpaceOnUse" x="321" y="172" width="37" height="38">
<path d="M339.354 209.781C349.487 209.781 357.702 201.537 357.702 191.368C357.702 181.199 349.487 172.955 339.354 172.955C329.221 172.955 321.006 181.199 321.006 191.368C321.006 201.537 329.221 209.781 339.354 209.781Z" fill="white"/>
</mask>
<g mask="url(#mask118_17_6480)">
<path d="M358.058 181.857L358.275 182.662L319.013 193.216V192.357L358.058 181.857Z" fill="#DCDCDD"/>
</g>
<mask id="mask119_17_6480" style="mask-type:luminance" maskUnits="userSpaceOnUse" x="321" y="172" width="37" height="38">
<path d="M339.354 209.781C349.487 209.781 357.702 201.537 357.702 191.368C357.702 181.199 349.487 172.955 339.354 172.955C329.221 172.955 321.006 181.199 321.006 191.368C321.006 201.537 329.221 209.781 339.354 209.781Z" fill="white"/>
</mask>
<g mask="url(#mask119_17_6480)">
<path d="M358.275 182.662L358.481 183.456L319.013 194.075V193.216L358.275 182.662Z" fill="#DBDBDD"/>
</g>
<mask id="mask120_17_6480" style="mask-type:luminance" maskUnits="userSpaceOnUse" x="321" y="172" width="37" height="38">
<path d="M339.354 209.781C349.487 209.781 357.702 201.537 357.702 191.368C357.702 181.199 349.487 172.955 339.354 172.955C329.221 172.955 321.006 181.199 321.006 191.368C321.006 201.537 329.221 209.781 339.354 209.781Z" fill="white"/>
</mask>
<g mask="url(#mask120_17_6480)">
<path d="M358.481 183.454L358.697 184.258L319.067 194.91L319.013 194.704V194.073L358.481 183.454Z" fill="#DADADC"/>
</g>
<mask id="mask121_17_6480" style="mask-type:luminance" maskUnits="userSpaceOnUse" x="323" y="174" width="34" height="34">
<path d="M347.345 206.114C355.535 201.89 358.754 191.794 354.534 183.564C350.314 175.335 340.254 172.089 332.064 176.313C323.873 180.538 320.655 190.634 324.875 198.863C329.095 207.093 339.155 210.339 347.345 206.114Z" fill="white"/>
</mask>
<g mask="url(#mask121_17_6480)">
<path d="M358.669 184.249L319.071 194.955L319.315 195.703L358.913 184.997L358.669 184.249Z" fill="#D9D9DB"/>
</g>
<mask id="mask122_17_6480" style="mask-type:luminance" maskUnits="userSpaceOnUse" x="322" y="174" width="35" height="35">
<path d="M347.147 206.196C355.337 201.972 358.555 191.876 354.335 183.646C350.116 175.417 340.055 172.171 331.865 176.395C323.675 180.62 320.456 190.716 324.676 198.945C328.896 207.175 338.957 210.421 347.147 206.196Z" fill="white"/>
</mask>
<g mask="url(#mask122_17_6480)">
<path d="M358.886 185.052L319.288 195.758L319.531 196.506L359.13 185.8L358.886 185.052Z" fill="#D8D8DA"/>
</g>
<mask id="mask123_17_6480" style="mask-type:luminance" maskUnits="userSpaceOnUse" x="322" y="174" width="34" height="35">
<path d="M346.941 206.281C355.131 202.057 358.35 191.961 354.13 183.731C349.91 175.502 339.849 172.256 331.659 176.48C323.469 180.705 320.251 190.801 324.47 199.03C328.69 207.26 338.751 210.506 346.941 206.281Z" fill="white"/>
</mask>
<g mask="url(#mask123_17_6480)">
<path d="M359.095 185.847L319.498 196.555L319.749 197.321L359.346 186.613L359.095 185.847Z" fill="#D8D8DA"/>
</g>
<mask id="mask124_17_6480" style="mask-type:luminance" maskUnits="userSpaceOnUse" x="322" y="174" width="34" height="35">
<path d="M346.74 206.365C354.931 202.141 358.149 192.045 353.929 183.815C349.709 175.586 339.649 172.34 331.459 176.564C323.269 180.789 320.05 190.885 324.27 199.114C328.49 207.344 338.55 210.59 346.74 206.365Z" fill="white"/>
</mask>
<g mask="url(#mask124_17_6480)">
<path d="M359.313 186.663L319.716 197.371L319.967 198.138L359.564 187.43L359.313 186.663Z" fill="#D7D7DA"/>
</g>
<mask id="mask125_17_6480" style="mask-type:luminance" maskUnits="userSpaceOnUse" x="321" y="172" width="37" height="38">
<path d="M339.354 209.781C349.487 209.781 357.702 201.537 357.702 191.368C357.702 181.199 349.487 172.955 339.354 172.955C329.221 172.955 321.006 181.199 321.006 191.368C321.006 201.537 329.221 209.781 339.354 209.781Z" fill="white"/>
</mask>
<g mask="url(#mask125_17_6480)">
<path d="M359.565 187.498L359.706 188.02V188.335L320.151 198.965L319.934 198.15L359.565 187.498Z" fill="#D6D7D9"/>
</g>
<mask id="mask126_17_6480" style="mask-type:luminance" maskUnits="userSpaceOnUse" x="321" y="172" width="37" height="38">
<path d="M339.354 209.781C349.487 209.781 357.702 201.537 357.702 191.368C357.702 181.199 349.487 172.955 339.354 172.955C329.221 172.955 321.006 181.199 321.006 191.368C321.006 201.537 329.221 209.781 339.354 209.781Z" fill="white"/>
</mask>
<g mask="url(#mask126_17_6480)">
<path d="M359.704 189.205L320.366 199.78L320.149 198.965L359.704 188.335V189.205Z" fill="#D5D6D8"/>
</g>
<mask id="mask127_17_6480" style="mask-type:luminance" maskUnits="userSpaceOnUse" x="321" y="172" width="37" height="38">
<path d="M339.354 209.781C349.487 209.781 357.702 201.537 357.702 191.368C357.702 181.199 349.487 172.955 339.354 172.955C329.221 172.955 321.006 181.199 321.006 191.368C321.006 201.537 329.221 209.781 339.354 209.781Z" fill="white"/>
</mask>
<g mask="url(#mask127_17_6480)">
<path d="M359.705 190.085L320.583 200.596L320.367 199.781L359.705 189.205V190.085Z" fill="#D4D5D8"/>
</g>
<mask id="mask128_17_6480" style="mask-type:luminance" maskUnits="userSpaceOnUse" x="321" y="172" width="37" height="38">
<path d="M339.354 209.781C349.487 209.781 357.702 201.537 357.702 191.368C357.702 181.199 349.487 172.955 339.354 172.955C329.221 172.955 321.006 181.199 321.006 191.368C321.006 201.537 329.221 209.781 339.354 209.781Z" fill="white"/>
</mask>
<g mask="url(#mask128_17_6480)">
<path d="M359.705 190.954L320.8 201.41L320.583 200.595L359.705 190.084V190.954Z" fill="#D3D4D7"/>
</g>
<mask id="mask129_17_6480" style="mask-type:luminance" maskUnits="userSpaceOnUse" x="321" y="172" width="37" height="38">
<path d="M339.354 209.781C349.487 209.781 357.702 201.537 357.702 191.368C357.702 181.199 349.487 172.955 339.354 172.955C329.221 172.955 321.006 181.199 321.006 191.368C321.006 201.537 329.221 209.781 339.354 209.781Z" fill="white"/>
</mask>
<g mask="url(#mask129_17_6480)">
<path d="M359.705 191.836L321.017 202.228L320.8 201.412L359.705 190.956V191.836Z" fill="#D2D3D7"/>
</g>
<mask id="mask130_17_6480" style="mask-type:luminance" maskUnits="userSpaceOnUse" x="321" y="172" width="37" height="38">
<path d="M339.354 209.781C349.487 209.781 357.702 201.537 357.702 191.368C357.702 181.199 349.487 172.955 339.354 172.955C329.221 172.955 321.006 181.199 321.006 191.368C321.006 201.537 329.221 209.781 339.354 209.781Z" fill="white"/>
</mask>
<g mask="url(#mask130_17_6480)">
<path d="M359.706 192.705L321.234 203.052L321.017 202.226L359.706 191.835V192.705Z" fill="#D1D2D6"/>
</g>
<mask id="mask131_17_6480" style="mask-type:luminance" maskUnits="userSpaceOnUse" x="321" y="172" width="37" height="38">
<path d="M339.354 209.781C349.487 209.781 357.702 201.537 357.702 191.368C357.702 181.199 349.487 172.955 339.354 172.955C329.221 172.955 321.006 181.199 321.006 191.368C321.006 201.537 329.221 209.781 339.354 209.781Z" fill="white"/>
</mask>
<g mask="url(#mask131_17_6480)">
<path d="M359.706 193.585L321.461 203.867L321.234 203.052L359.706 192.704V193.585Z" fill="#D1D1D5"/>
</g>
<mask id="mask132_17_6480" style="mask-type:luminance" maskUnits="userSpaceOnUse" x="321" y="172" width="37" height="38">
<path d="M339.354 209.781C349.487 209.781 357.702 201.537 357.702 191.368C357.702 181.199 349.487 172.955 339.354 172.955C329.221 172.955 321.006 181.199 321.006 191.368C321.006 201.537 329.221 209.781 339.354 209.781Z" fill="white"/>
</mask>
<g mask="url(#mask132_17_6480)">
<path d="M359.704 194.454L321.677 204.683L321.46 203.867L359.704 193.585V194.454Z" fill="#D0D1D5"/>
</g>
<mask id="mask133_17_6480" style="mask-type:luminance" maskUnits="userSpaceOnUse" x="321" y="172" width="37" height="38">
<path d="M339.354 209.781C349.487 209.781 357.702 201.537 357.702 191.368C357.702 181.199 349.487 172.955 339.354 172.955C329.221 172.955 321.006 181.199 321.006 191.368C321.006 201.537 329.221 209.781 339.354 209.781Z" fill="white"/>
</mask>
<g mask="url(#mask133_17_6480)">
<path d="M359.704 195.336L321.893 205.498L321.677 204.683L359.704 194.455V195.336Z" fill="#CFD0D4"/>
</g>
<mask id="mask134_17_6480" style="mask-type:luminance" maskUnits="userSpaceOnUse" x="321" y="172" width="37" height="38">
<path d="M339.354 209.781C349.487 209.781 357.702 201.537 357.702 191.368C357.702 181.199 349.487 172.955 339.354 172.955C329.221 172.955 321.006 181.199 321.006 191.368C321.006 201.537 329.221 209.781 339.354 209.781Z" fill="white"/>
</mask>
<g mask="url(#mask134_17_6480)">
<path d="M359.705 196.204L322.111 206.312L321.894 205.497L359.705 195.334V196.204Z" fill="#CECFD4"/>
</g>
<mask id="mask135_17_6480" style="mask-type:luminance" maskUnits="userSpaceOnUse" x="321" y="172" width="37" height="38">
<path d="M339.354 209.781C349.487 209.781 357.702 201.537 357.702 191.368C357.702 181.199 349.487 172.955 339.354 172.955C329.221 172.955 321.006 181.199 321.006 191.368C321.006 201.537 329.221 209.781 339.354 209.781Z" fill="white"/>
</mask>
<g mask="url(#mask135_17_6480)">
<path d="M359.705 197.085L322.327 207.128L322.111 206.313L359.705 196.204V197.085Z" fill="#CDCED3"/>
</g>
<mask id="mask136_17_6480" style="mask-type:luminance" maskUnits="userSpaceOnUse" x="321" y="172" width="37" height="38">
<path d="M339.354 209.781C349.487 209.781 357.702 201.537 357.702 191.368C357.702 181.199 349.487 172.955 339.354 172.955C329.221 172.955 321.006 181.199 321.006 191.368C321.006 201.537 329.221 209.781 339.354 209.781Z" fill="white"/>
</mask>
<g mask="url(#mask136_17_6480)">
<path d="M359.705 197.954L322.544 207.943L322.327 207.128L359.705 197.085V197.954Z" fill="#CCCDD2"/>
</g>
<mask id="mask137_17_6480" style="mask-type:luminance" maskUnits="userSpaceOnUse" x="321" y="172" width="37" height="38">
<path d="M339.354 209.781C349.487 209.781 357.702 201.537 357.702 191.368C357.702 181.199 349.487 172.955 339.354 172.955C329.221 172.955 321.006 181.199 321.006 191.368C321.006 201.537 329.221 209.781 339.354 209.781Z" fill="white"/>
</mask>
<g mask="url(#mask137_17_6480)">
<path d="M359.706 198.835L322.761 208.758L322.545 207.943L359.706 197.954V198.835Z" fill="#CBCCD2"/>
</g>
<mask id="mask138_17_6480" style="mask-type:luminance" maskUnits="userSpaceOnUse" x="321" y="172" width="37" height="38">
<path d="M339.354 209.781C349.487 209.781 357.702 201.537 357.702 191.368C357.702 181.199 349.487 172.955 339.354 172.955C329.221 172.955 321.006 181.199 321.006 191.368C321.006 201.537 329.221 209.781 339.354 209.781Z" fill="white"/>
</mask>
<g mask="url(#mask138_17_6480)">
<path d="M359.704 199.704L322.976 209.585L322.76 208.759L359.704 198.835V199.704Z" fill="#CACCD1"/>
</g>
<mask id="mask139_17_6480" style="mask-type:luminance" maskUnits="userSpaceOnUse" x="321" y="172" width="37" height="38">
<path d="M339.354 209.781C349.487 209.781 357.702 201.537 357.702 191.368C357.702 181.199 349.487 172.955 339.354 172.955C329.221 172.955 321.006 181.199 321.006 191.368C321.006 201.537 329.221 209.781 339.354 209.781Z" fill="white"/>
</mask>
<g mask="url(#mask139_17_6480)">
<path d="M359.704 200.585L323.204 210.4L322.976 209.584L359.704 199.704V200.585Z" fill="#C9CBD1"/>
</g>
<mask id="mask140_17_6480" style="mask-type:luminance" maskUnits="userSpaceOnUse" x="321" y="172" width="37" height="38">
<path d="M339.354 209.781C349.487 209.781 357.702 201.537 357.702 191.368C357.702 181.199 349.487 172.955 339.354 172.955C329.221 172.955 321.006 181.199 321.006 191.368C321.006 201.537 329.221 209.781 339.354 209.781Z" fill="white"/>
</mask>
<g mask="url(#mask140_17_6480)">
<path d="M359.705 201.454L323.422 211.215L323.205 210.4L359.705 200.585V201.454Z" fill="#C8CAD0"/>
</g>
<mask id="mask141_17_6480" style="mask-type:luminance" maskUnits="userSpaceOnUse" x="321" y="172" width="37" height="38">
<path d="M339.354 209.781C349.487 209.781 357.702 201.537 357.702 191.368C357.702 181.199 349.487 172.955 339.354 172.955C329.221 172.955 321.006 181.199 321.006 191.368C321.006 201.537 329.221 209.781 339.354 209.781Z" fill="white"/>
</mask>
<g mask="url(#mask141_17_6480)">
<path d="M359.704 202.335L324.546 211.78H323.571L323.42 211.215L359.704 201.454V202.335Z" fill="#C7C9CF"/>
</g>
<mask id="mask142_17_6480" style="mask-type:luminance" maskUnits="userSpaceOnUse" x="321" y="172" width="37" height="38">
<path d="M339.354 209.781C349.487 209.781 357.702 201.537 357.702 191.368C357.702 181.199 349.487 172.955 339.354 172.955C329.221 172.955 321.006 181.199 321.006 191.368C321.006 201.537 329.221 209.781 339.354 209.781Z" fill="white"/>
</mask>
<g mask="url(#mask142_17_6480)">
<path d="M359.704 203.204L327.807 211.779H324.547L359.704 202.334V203.204Z" fill="#C6C8CF"/>
</g>
<mask id="mask143_17_6480" style="mask-type:luminance" maskUnits="userSpaceOnUse" x="321" y="172" width="37" height="38">
<path d="M339.354 209.781C349.487 209.781 357.702 201.537 357.702 191.368C357.702 181.199 349.487 172.955 339.354 172.955C329.221 172.955 321.006 181.199 321.006 191.368C321.006 201.537 329.221 209.781 339.354 209.781Z" fill="white"/>
</mask>
<g mask="url(#mask143_17_6480)">
<path d="M359.705 204.085L331.057 211.781H327.808L359.705 203.205V204.085Z" fill="#C5C7CE"/>
</g>
<mask id="mask144_17_6480" style="mask-type:luminance" maskUnits="userSpaceOnUse" x="321" y="172" width="37" height="38">
<path d="M339.354 209.781C349.487 209.781 357.702 201.537 357.702 191.368C357.702 181.199 349.487 172.955 339.354 172.955C329.221 172.955 321.006 181.199 321.006 191.368C321.006 201.537 329.221 209.781 339.354 209.781Z" fill="white"/>
</mask>
<g mask="url(#mask144_17_6480)">
<path d="M359.706 204.955L334.318 211.78H331.058L359.706 204.085V204.955Z" fill="#C4C7CE"/>
</g>
<mask id="mask145_17_6480" style="mask-type:luminance" maskUnits="userSpaceOnUse" x="321" y="172" width="37" height="38">
<path d="M339.354 209.781C349.487 209.781 357.702 201.537 357.702 191.368C357.702 181.199 349.487 172.955 339.354 172.955C329.221 172.955 321.006 181.199 321.006 191.368C321.006 201.537 329.221 209.781 339.354 209.781Z" fill="white"/>
</mask>
<g mask="url(#mask145_17_6480)">
<path d="M334.316 211.781L359.704 204.955V211.781H334.316Z" fill="#C4C7CE"/>
</g>
</g>
<defs>
<linearGradient id="paint0_linear_17_6480" x1="172.318" y1="-8.72067" x2="224.277" y2="341.72" gradientUnits="userSpaceOnUse">
<stop stop-color="#4A4596" stop-opacity="0.4"/>
<stop offset="0.361" stop-color="white" stop-opacity="0.62"/>
<stop offset="0.671" stop-color="white" stop-opacity="0.45"/>
<stop offset="1" stop-color="white" stop-opacity="0.35"/>
</linearGradient>
<linearGradient id="paint1_linear_17_6480" x1="312.102" y1="173.324" x2="321.872" y2="209.658" gradientUnits="userSpaceOnUse">
<stop stop-color="#AECB3C"/>
<stop offset="0.48" stop-color="#C1D66B" stop-opacity="0.8"/>
<stop offset="1" stop-color="#D7E39B" stop-opacity="0"/>
</linearGradient>
<clipPath id="clip0_17_6480">
<rect width="94.5581" height="23.8382" fill="white" transform="translate(28.6058 20.6602)"/>
</clipPath>
</defs>
</svg>
