<svg width="42" height="42" viewBox="0 0 42 42" fill="none" xmlns="http://www.w3.org/2000/svg">
<circle cx="21" cy="21" r="20.5" fill="white" stroke="#8D8F93"/>
<path d="M29.1637 26.4272C29.0387 26.4272 28.915 26.4027 28.7996 26.3549C28.6842 26.3072 28.5793 26.2371 28.491 26.1488C28.4027 26.0605 28.3327 25.9556 28.2849 25.8402C28.2371 25.7248 28.2126 25.6011 28.2126 25.4762L28.2136 15.6727L15.0495 28.8369C14.8712 29.0152 14.6294 29.1153 14.3773 29.1153C14.1253 29.1153 13.8835 29.0152 13.7053 28.8369C13.527 28.6587 13.4269 28.4169 13.4269 28.1648C13.4269 27.9127 13.527 27.671 13.7053 27.4927L26.8695 14.3285L17.066 14.3295C16.8138 14.3295 16.5719 14.2293 16.3935 14.051C16.2152 13.8726 16.115 13.6308 16.115 13.3785C16.115 13.1263 16.2152 12.8844 16.3936 12.706C16.5719 12.5277 16.8138 12.4275 17.066 12.4275L29.1639 12.4273C29.2888 12.4272 29.4125 12.4518 29.5279 12.4995C29.6433 12.5473 29.7482 12.6173 29.8365 12.7057C29.9248 12.794 29.9949 12.8988 30.0427 13.0143C30.0904 13.1297 30.115 13.2534 30.1149 13.3783L30.1147 25.4761C30.1148 25.601 30.0902 25.7247 30.0424 25.8402C29.9947 25.9556 29.9246 26.0604 29.8363 26.1488C29.748 26.2371 29.6431 26.3071 29.5277 26.3549C29.4123 26.4027 29.2886 26.4272 29.1637 26.4272Z" fill="#8D8F93"/>
</svg>
