<svg width="172" height="211" viewBox="0 0 172 211" fill="none" xmlns="http://www.w3.org/2000/svg">
<path d="M144.064 118.083L149.627 107.693L171.615 128.583H144.064V118.083Z" fill="#6556A0"/>
<path d="M136.225 118.083L146.131 112.063L163.767 128.583H136.225V118.083Z" fill="#4A4595"/>
<path d="M27.9338 118.083L22.3711 107.693L0.382812 128.583H27.9338V118.083Z" fill="#6556A0"/>
<path d="M35.7834 118.083L25.8688 112.063L8.23242 128.583H35.7834V118.083Z" fill="#4A4595"/>
<path d="M151.788 0.16748H20.2051V185.241H151.788V0.16748Z" fill="#D6E29A"/>
<path d="M142.271 13.9492H28.875V75.3087H142.271V13.9492Z" fill="white"/>
<path d="M109.25 91.9813H49.4485C47.6789 91.9813 46.248 90.5444 46.248 88.7675C46.248 86.9906 47.6789 85.5537 49.4485 85.5537H109.25C111.019 85.5537 112.45 86.9906 112.45 88.7675C112.45 90.5444 111.011 91.9813 109.25 91.9813Z" fill="white"/>
<path d="M126.107 107.693H50.3036C48.0599 107.693 46.248 106.256 46.248 104.479C46.248 102.702 48.0599 101.266 50.3036 101.266H126.107C128.351 101.266 130.163 102.702 130.163 104.479C130.163 106.256 128.342 107.693 126.107 107.693Z" fill="white"/>
<path d="M109.25 123.533H49.4485C47.6789 123.533 46.248 122.096 46.248 120.319C46.248 118.542 47.6789 117.105 49.4485 117.105H109.25C111.019 117.105 112.45 118.542 112.45 120.319C112.45 122.096 111.011 123.533 109.25 123.533Z" fill="white"/>
<path opacity="0.25" d="M151.796 160.083V0.16748H76.6781C70.3873 16.5 62.8349 22.9701 55.7566 24.951C48.4074 27.0086 40.8212 27.0426 34.5811 30.5709C26.0889 35.3831 22.9393 40.5354 19.9844 52.9654V160.083H151.796Z" fill="#AECA3B"/>
<path d="M42.6074 135.206L50.6085 148.869C51.3452 150.127 52.6829 150.892 54.1307 150.892H117.86C119.308 150.892 120.654 150.119 121.383 148.869L129.384 135.206C131.788 131.1 136.174 128.583 140.915 128.583H171.608V193.887C171.608 203.248 164.047 210.841 154.725 210.841H17.2578C7.93586 210.841 0.375 203.248 0.375 193.887V128.583H31.0672C35.817 128.583 40.2028 131.1 42.6074 135.206Z" fill="#6556A0"/>
<path d="M171.624 128.574V193.879C171.624 203.248 164.063 210.832 154.741 210.832H27.5273L88.2936 150.892H117.86C119.308 150.892 120.654 150.136 121.382 148.877L129.391 135.214C131.796 131.099 136.19 128.583 140.923 128.583H171.624V128.574Z" fill="#4A4595"/>
<path d="M95.6016 44.6079C94.086 43.1626 91.8084 42.0913 88.6334 41.3431V34.856C89.9627 35.4852 91.165 36.6075 92.1979 38.1974L92.7821 39.0901L97.5151 34.1759L97.024 33.5212C94.7125 30.4605 91.8931 28.573 88.6334 27.9268V22.8086H84.129V27.7993C82.4865 28.0204 80.9963 28.4965 79.7009 29.2277C78.1684 30.0864 76.9492 31.2597 76.0602 32.6965C75.1712 34.1504 74.7224 35.8168 74.7224 37.6362C74.7224 40.3399 75.5691 42.5334 77.2371 44.1658C78.7188 45.6197 80.9709 46.7164 83.9174 47.4306V54.7424C81.9361 54.1983 80.2682 52.9655 78.8288 51.0185L78.2277 50.2023L73.6387 55.0995L74.1213 55.7457C75.4082 57.4546 76.9661 58.8234 78.7696 59.8097C80.3444 60.6684 82.0716 61.221 83.9174 61.4761V66.4668H88.3794V61.4761C90.132 61.2295 91.7068 60.7194 93.0615 59.9372C94.6533 59.0275 95.9064 57.8117 96.7869 56.3323C97.6675 54.8359 98.1162 53.11 98.1162 51.2055C98.1331 48.4254 97.278 46.2148 95.6016 44.6079ZM91.1396 51.4521C91.1396 52.4043 90.8517 53.161 90.2505 53.7647C89.7933 54.2238 89.1668 54.5639 88.3878 54.7679V48.5189C89.5393 48.9185 90.132 49.3096 90.4284 49.5987C90.911 50.0578 91.1396 50.6529 91.1396 51.4521ZM81.6313 37.4577C81.6313 36.6415 81.9192 35.9698 82.5034 35.4087C82.9437 34.9921 83.4771 34.686 84.129 34.499V40.3484C83.3332 40.0593 82.732 39.7277 82.3426 39.3451C81.8684 38.869 81.6313 38.2569 81.6313 37.4577Z" fill="#AECA3B"/>
</svg>
