<svg width="240" height="240" viewBox="0 0 240 240" fill="none" xmlns="http://www.w3.org/2000/svg">
<path d="M208.14 66.2778H176.551V215.04H208.14V66.2778Z" fill="#9F8CC2"/>
<path d="M208.139 66.2778H199.309V215.04H208.139V66.2778Z" fill="#6556A0"/>
<path d="M159.914 118.247H128.324V215.048H159.914V118.247Z" fill="#9F8CC2"/>
<path d="M159.913 118.247H151.082V215.048H159.913V118.247Z" fill="#6556A0"/>
<path d="M111.687 108.062H80.0977V215.048H111.687V108.062Z" fill="#9F8CC2"/>
<path d="M111.679 108.062H102.848V215.048H111.679V108.062Z" fill="#6556A0"/>
<path d="M63.451 138.288H31.8613V215.048H63.451V138.288Z" fill="#9F8CC2"/>
<path d="M63.45 138.288H54.6191V215.048H63.45V138.288Z" fill="#6556A0"/>
<path d="M217.478 217.707H22.5219C21.0486 217.707 19.8633 216.513 19.8633 215.048C19.8633 213.583 21.0571 212.39 22.5219 212.39H217.478C218.952 212.39 220.137 213.583 220.137 215.048C220.137 216.513 218.952 217.707 217.478 217.707Z" fill="#6556A0"/>
<path d="M204.228 22.9195C203.542 22.3437 202.611 22.1574 201.756 22.4114L183.222 27.9826C181.816 28.4059 181.012 29.8876 181.435 31.2931C181.859 32.6986 183.349 33.503 184.746 33.0796L194.559 30.1332L139.948 93.5411L95.6412 78.8004L25.4345 115.902C24.1391 116.588 23.6395 118.196 24.3253 119.5C24.7995 120.406 25.7224 120.914 26.6791 120.914C27.094 120.914 27.5258 120.813 27.9237 120.609L96.1238 84.5747L141.658 99.7218L198.911 33.2405L197.827 42.8926C197.666 44.3489 198.716 45.6698 200.172 45.8306C200.274 45.8391 200.376 45.8476 200.477 45.8476C201.815 45.8476 202.966 44.84 203.119 43.4853L205.168 25.2563C205.269 24.3673 204.914 23.4867 204.228 22.9195Z" fill="#AECA3B"/>
</svg>
