<svg width="240" height="240" viewBox="0 0 240 240" fill="none" xmlns="http://www.w3.org/2000/svg">
<path d="M117.993 44.0273V218.367H83.5502V173.451C83.5502 167.964 81.0694 162.791 76.8275 159.311C62.29 147.39 53.002 129.297 53.002 109.027C52.9935 73.1362 82.0939 44.0273 117.993 44.0273Z" fill="#D6E29A"/>
<path d="M117.992 44.0273V218.367H152.435V173.451C152.435 167.964 154.916 162.791 159.158 159.311C173.695 147.39 182.983 129.297 182.983 109.027C182.992 73.1362 153.891 44.0273 117.992 44.0273Z" fill="#C0D56B"/>
<path d="M132.944 113.548C131.801 112.405 129.939 112.405 128.796 113.548L117.687 124.656L107.18 114.149C106.037 113.006 104.174 113.006 103.031 114.149C101.888 115.292 101.888 117.155 103.031 118.298L114.749 130.024V180.258C114.749 181.875 116.062 183.187 117.679 183.187C119.296 183.187 120.608 181.875 120.608 180.258V130.024L132.927 117.705C134.096 116.553 134.096 114.691 132.944 113.548Z" fill="#4A4595"/>
<path d="M152.443 181.224H83.5488V218.368H152.443V181.224Z" fill="#4A4595"/>
<path d="M152.443 209.985H83.5488V218.376H152.443V209.985Z" fill="#6556A0"/>
<path d="M152.443 181.224H83.5488V189.614H152.443V181.224Z" fill="#6556A0"/>
<path d="M152.443 193.06H83.5488V197.852H152.443V193.06Z" fill="#6556A0"/>
<path d="M152.443 201.519H83.5488V206.311H152.443V201.519Z" fill="#6556A0"/>
<path d="M139.879 218.367C135.739 226.216 127.492 231.558 118.001 231.558C108.509 231.558 100.263 226.224 96.1055 218.367H139.879Z" fill="#4A4595"/>
<path d="M106.562 52.6294C81.8644 60.5713 63.4491 82.5341 60.6974 109.171C60.4603 107.215 60.3418 105.217 60.3418 103.202C60.3503 76.692 80.6621 54.9239 106.562 52.6294Z" fill="white"/>
<path d="M117.992 32.8849C116.375 32.8849 115.062 31.5725 115.062 29.9554V11.3792C115.062 9.76206 116.375 8.44971 117.992 8.44971C119.609 8.44971 120.922 9.76206 120.922 11.3792V29.9554C120.922 31.5725 119.609 32.8849 117.992 32.8849Z" fill="#AECA3B"/>
<path d="M145.51 37.1269C144.172 36.2125 143.842 34.3837 144.757 33.0459L155.289 17.7464C156.204 16.4086 158.032 16.0784 159.37 16.9928C160.708 17.9073 161.038 19.7361 160.124 21.0738L149.591 36.3734C148.668 37.7026 146.848 38.0413 145.51 37.1269Z" fill="#AECA3B"/>
<path d="M173.798 54.746C172.732 53.5268 172.85 51.6726 174.069 50.6058L188.031 38.3628C189.25 37.296 191.104 37.4145 192.171 38.6337C193.238 39.8529 193.12 41.7072 191.9 42.774L177.939 55.017C176.719 56.0923 174.874 55.9653 173.798 54.746Z" fill="#AECA3B"/>
<path d="M66.2012 54.7464C67.2681 53.5271 67.1495 51.6729 65.9303 50.6061L51.9601 38.3716C50.7409 37.3047 48.8866 37.4233 47.8198 38.6425C46.753 39.8617 46.8715 41.716 48.0907 42.7828L62.061 55.0258C63.2802 56.0926 65.1344 55.9656 66.2012 54.7464Z" fill="#AECA3B"/>
<path d="M90.3917 37.1269C91.7295 36.2125 92.0597 34.3837 91.1452 33.0459L80.6125 17.7464C79.6981 16.4086 77.8693 16.0784 76.5315 16.9928C75.1938 17.9073 74.8636 19.7361 75.778 21.0738L86.3107 36.3734C87.2251 37.7026 89.0539 38.0413 90.3917 37.1269Z" fill="#AECA3B"/>
</svg>
