<svg width="1823" height="302" viewBox="0 0 1823 302" fill="none" xmlns="http://www.w3.org/2000/svg">
<path d="M0.190218 240.34L11.7426 236.273L15.8098 247.825L4.25737 251.892L0.190218 240.34ZM328.391 211.225L329.056 212.569L328.391 211.225ZM1477.5 233.252L1478.64 232.283L1477.5 233.252ZM1822.48 238.339L1821.74 250.564L1809.52 249.826L1810.26 237.601L1822.48 238.339ZM8.64824 242.73C62.3641 268.472 174.541 285.743 327.725 209.88L329.056 212.569C175.167 288.78 62.0149 271.631 7.35176 245.435L8.64824 242.73ZM327.725 209.88C423.81 162.296 465.892 158.135 505.898 165.661C545.752 173.157 582.684 191.949 669.696 190.2L669.756 193.2C582.345 194.957 544.57 175.988 505.343 168.609C466.267 161.258 424.892 165.107 329.056 212.569L327.725 209.88ZM669.696 190.2C712.966 189.331 754.063 174.048 795.296 152.415C836.578 130.756 877.748 102.877 921.407 76.8095C1008.59 24.7519 1105.1 -19.6743 1228.74 10.0726L1228.04 12.9894C1105.58 -16.4727 1009.96 27.4326 922.945 79.3853C879.504 105.323 838.054 133.369 796.689 155.072C755.275 176.8 713.696 192.316 669.756 193.2L669.696 190.2ZM1228.74 10.0726C1351.97 39.7187 1399.46 77.2887 1423.66 116.805C1435.71 136.486 1441.92 156.588 1448.88 176.047C1455.85 195.549 1463.58 214.494 1478.64 232.283L1476.35 234.221C1460.93 216.002 1453.05 196.629 1446.05 177.057C1439.04 157.443 1432.94 137.719 1421.1 118.372C1397.51 79.8346 1350.92 42.5525 1228.04 12.9894L1228.74 10.0726ZM1478.64 232.283C1507.65 266.559 1566.08 291.993 1630.26 297.422C1694.39 302.848 1763.88 288.263 1815.01 242.96L1816.99 245.205C1765.09 291.201 1694.7 305.885 1630 300.412C1565.36 294.943 1506.05 269.313 1476.35 234.221L1478.64 232.283Z" fill="#5E1EE5"/>
</svg>
