<svg width="172" height="210" viewBox="0 0 172 210" fill="none" xmlns="http://www.w3.org/2000/svg">
<path d="M144.064 117.531L149.627 107.185L171.615 127.988H144.064V117.531Z" fill="#6556A0"/>
<path d="M136.225 117.531L146.131 111.537L163.767 127.988H136.225V117.531Z" fill="#4A4595"/>
<path d="M27.9338 117.531L22.3711 107.185L0.382812 127.988H27.9338V117.531Z" fill="#6556A0"/>
<path d="M35.7834 117.531L25.8688 111.537L8.23242 127.988H35.7834V117.531Z" fill="#4A4595"/>
<path d="M151.788 0.10498H20.2051V184.41H151.788V0.10498Z" fill="#D6E29A"/>
<path d="M142.271 13.8296H28.875V74.9345H142.271V13.8296Z" fill="white"/>
<path d="M109.25 91.5381H49.4485C47.6789 91.5381 46.248 90.1072 46.248 88.3377C46.248 86.5681 47.6789 85.1372 49.4485 85.1372H109.25C111.019 85.1372 112.45 86.5681 112.45 88.3377C112.45 90.1072 111.011 91.5381 109.25 91.5381Z" fill="white"/>
<path d="M126.107 107.185H50.3036C48.0599 107.185 46.248 105.754 46.248 103.984C46.248 102.215 48.0599 100.784 50.3036 100.784H126.107C128.351 100.784 130.163 102.215 130.163 103.984C130.163 105.754 128.342 107.185 126.107 107.185Z" fill="white"/>
<path d="M109.25 122.958H49.4485C47.6789 122.958 46.248 121.527 46.248 119.758C46.248 117.988 47.6789 116.557 49.4485 116.557H109.25C111.019 116.557 112.45 117.988 112.45 119.758C112.45 121.527 111.011 122.958 109.25 122.958Z" fill="white"/>
<path opacity="0.25" d="M151.796 159.357V0.10498H76.6781C70.3873 16.3697 62.8349 22.8129 55.7566 24.7857C48.4074 26.8347 40.8212 26.8685 34.5811 30.3823C26.0889 35.1745 22.9393 40.3054 19.9844 52.6838V159.357H151.796Z" fill="#AECA3B"/>
<path d="M42.6074 134.583L50.6085 148.19C51.3452 149.443 52.6829 150.205 54.1307 150.205H117.86C119.308 150.205 120.654 149.434 121.383 148.19L129.384 134.583C131.788 130.494 136.174 127.988 140.915 127.988H171.608V193.021C171.608 202.343 164.047 209.904 154.725 209.904H17.2578C7.93586 209.904 0.375 202.343 0.375 193.021V127.988H31.0672C35.817 127.988 40.2028 130.494 42.6074 134.583Z" fill="#6556A0"/>
<path d="M171.624 127.979V193.013C171.624 202.343 164.063 209.895 154.741 209.895H27.5273L88.2936 150.204H117.86C119.308 150.204 120.654 149.451 121.382 148.198L129.391 134.592C131.796 130.494 136.19 127.987 140.923 127.987H171.624V127.979Z" fill="#4A4595"/>
<path d="M95.6016 44.3607C94.086 42.9214 91.8084 41.8546 88.6334 41.1095V34.6493C89.9627 35.2759 91.165 36.3935 92.1979 37.9768L92.7821 38.8658L97.5151 33.972L97.024 33.32C94.7125 30.272 91.8931 28.3923 88.6334 27.7489V22.6519H84.129V27.6219C82.4865 27.842 80.9963 28.3161 79.7009 29.0443C78.1684 29.8994 76.9492 31.0679 76.0602 32.4987C75.1712 33.9466 74.7224 35.6061 74.7224 37.418C74.7224 40.1104 75.5691 42.2948 77.2371 43.9205C78.7188 45.3683 80.9709 46.4605 83.9174 47.1717V54.4532C81.9361 53.9113 80.2682 52.6836 78.8288 50.7447L78.2277 49.9319L73.6387 54.8088L74.1213 55.4523C75.4082 57.1541 76.9661 58.5172 78.7696 59.4994C80.3444 60.3545 82.0716 60.9049 83.9174 61.1589V66.1289H88.3794V61.1589C90.132 60.9133 91.7068 60.4053 93.0615 59.6264C94.6533 58.7204 95.9064 57.5097 96.7869 56.0365C97.6675 54.5463 98.1162 52.8275 98.1162 50.931C98.1331 48.1623 97.278 45.961 95.6016 44.3607ZM91.1396 51.1765C91.1396 52.1248 90.8517 52.8783 90.2505 53.4795C89.7933 53.9367 89.1668 54.2754 88.3878 54.4786V48.2555C89.5393 48.6534 90.132 49.0429 90.4284 49.3308C90.911 49.788 91.1396 50.3806 91.1396 51.1765ZM81.6313 37.2402C81.6313 36.4273 81.9192 35.7585 82.5034 35.1997C82.9437 34.7848 83.4771 34.48 84.129 34.2937V40.1189C83.3332 39.831 82.732 39.5008 82.3426 39.1198C81.8684 38.6456 81.6313 38.036 81.6313 37.2402Z" fill="#AECA3B"/>
</svg>
