<svg width="161" height="169" viewBox="0 0 161 169" fill="none" xmlns="http://www.w3.org/2000/svg">
<path d="M103.757 39.7004H14.7461V16.9162C14.7461 14.1164 17.0163 11.8462 19.8161 11.8462H98.6802C101.48 11.8462 103.75 14.1164 103.75 16.9162V39.7004H103.757Z" fill="#6556A0"/>
<path d="M100.93 24.9787H14.7461V16.9162C14.7461 14.1164 17.0163 11.8462 19.8161 11.8462H95.8459C98.6458 11.8462 100.916 14.1164 100.916 16.9162V24.9787H100.93Z" fill="#9F8CC2"/>
<path d="M122.889 183.161H12.6076C10.2824 183.161 8.39062 181.276 8.39062 178.944V47.4946C8.39062 45.1694 10.2755 43.2776 12.6076 43.2776H122.889C125.215 43.2776 127.106 45.1625 127.106 47.4946V178.944C127.106 181.276 125.221 183.161 122.889 183.161Z" fill="#C0D56B"/>
<path d="M114.4 175.594H4.11153C1.78633 175.594 -0.105469 173.709 -0.105469 171.377V39.9343C-0.105469 37.6091 1.77945 35.7173 4.11153 35.7173H114.393C116.718 35.7173 118.61 37.6022 118.61 39.9343V171.384C118.61 173.709 116.725 175.594 114.4 175.594Z" fill="#D6E29A"/>
<path d="M102.609 50.6936H15.9028C14.5751 50.6936 13.502 49.6204 13.502 48.2927C13.502 46.965 14.5751 45.8918 15.9028 45.8918H102.609C103.937 45.8918 105.01 46.965 105.01 48.2927C105.01 49.6204 103.937 50.6936 102.609 50.6936Z" fill="#AECA3B"/>
<path d="M102.609 64.397H15.9028C14.5751 64.397 13.502 63.3238 13.502 61.9961C13.502 60.6684 14.5751 59.5952 15.9028 59.5952H102.609C103.937 59.5952 105.01 60.6684 105.01 61.9961C105.01 63.3238 103.937 64.397 102.609 64.397Z" fill="#AECA3B"/>
<path d="M53.3941 80.5564H13.3361C12.7238 80.5564 12.2285 79.4832 12.2285 78.1555C12.2285 76.8278 12.7238 75.7546 13.3361 75.7546H53.3941C54.0064 75.7546 54.5017 76.8278 54.5017 78.1555C54.5017 79.4832 54.0064 80.5564 53.3941 80.5564Z" fill="#AECA3B"/>
<path d="M53.3941 96.709H13.3361C12.7238 96.709 12.2285 95.6358 12.2285 94.3081C12.2285 92.9804 12.7238 91.9072 13.3361 91.9072H53.3941C54.0064 91.9072 54.5017 92.9804 54.5017 94.3081C54.5017 95.6358 54.0064 96.709 53.3941 96.709Z" fill="#AECA3B"/>
<path d="M53.3941 110.461H13.3361C12.7238 110.461 12.2285 109.388 12.2285 108.06C12.2285 106.732 12.7238 105.659 13.3361 105.659H53.3941C54.0064 105.659 54.5017 106.732 54.5017 108.06C54.5017 109.388 54.0064 110.461 53.3941 110.461Z" fill="#AECA3B"/>
<path d="M53.3941 126.414H13.3361C12.7238 126.414 12.2285 125.341 12.2285 124.013C12.2285 122.685 12.7238 121.612 13.3361 121.612H53.3941C54.0064 121.612 54.5017 122.685 54.5017 124.013C54.5017 125.341 54.0064 126.414 53.3941 126.414Z" fill="#AECA3B"/>
<path d="M104.474 126.414H64.4162C63.8039 126.414 63.3086 125.341 63.3086 124.013C63.3086 122.685 63.8039 121.612 64.4162 121.612H104.474C105.086 121.612 105.582 122.685 105.582 124.013C105.582 125.341 105.086 126.414 104.474 126.414Z" fill="#AECA3B"/>
<path d="M104.474 110.461H64.4162C63.8039 110.461 63.3086 109.388 63.3086 108.06C63.3086 106.732 63.8039 105.659 64.4162 105.659H104.474C105.086 105.659 105.582 106.732 105.582 108.06C105.582 109.388 105.086 110.461 104.474 110.461Z" fill="#AECA3B"/>
<path d="M103.104 96.0968H65.7843C64.9243 96.0968 64.2227 95.4019 64.2227 94.5352V77.3026C64.2227 76.4427 64.9175 75.741 65.7843 75.741H103.104C103.964 75.741 104.666 76.4358 104.666 77.3026V94.5352C104.659 95.3951 103.964 96.0968 103.104 96.0968Z" fill="#AECA3B"/>
</svg>
