<svg width="161" height="169" viewBox="0 0 161 169" fill="none" xmlns="http://www.w3.org/2000/svg">
<path d="M110.68 107.681L115.199 99.2749L133.065 116.177H110.68V107.681Z" fill="#6556A0"/>
<path d="M104.309 107.681L112.357 102.811L126.687 116.177H104.309V107.681Z" fill="#4A4595"/>
<path d="M16.3227 107.681L11.803 99.2749L-6.0625 116.177H16.3227V107.681Z" fill="#6556A0"/>
<path d="M22.6996 107.681L14.644 102.811L0.314453 116.177H22.6996V107.681Z" fill="#4A4595"/>
<path d="M116.952 12.2727H10.041V162.021H116.952V12.2727Z" fill="#D6E29A"/>
<path d="M109.22 23.4241H17.0859V73.0718H109.22V23.4241Z" fill="white"/>
<path d="M82.3918 86.5621H33.8035C32.3657 86.5621 31.2031 85.3995 31.2031 83.9617C31.2031 82.5239 32.3657 81.3613 33.8035 81.3613H82.3918C83.8296 81.3613 84.9922 82.5239 84.9922 83.9617C84.9922 85.3995 83.8227 86.5621 82.3918 86.5621Z" fill="white"/>
<path d="M96.0885 99.275H34.4983C32.6753 99.275 31.2031 98.1124 31.2031 96.6746C31.2031 95.2368 32.6753 94.0742 34.4983 94.0742H96.0885C97.9115 94.0742 99.3837 95.2368 99.3837 96.6746C99.3837 98.1124 97.9046 99.275 96.0885 99.275Z" fill="white"/>
<path d="M82.3918 112.091H33.8035C32.3657 112.091 31.2031 110.929 31.2031 109.491C31.2031 108.053 32.3657 106.89 33.8035 106.89H82.3918C83.8296 106.89 84.9922 108.053 84.9922 109.491C84.9922 110.929 83.8227 112.091 82.3918 112.091Z" fill="white"/>
<path opacity="0.25" d="M116.958 141.665V12.2727H55.925C50.8137 25.4878 44.6774 30.7229 38.9263 32.3258C32.9551 33.9906 26.7912 34.0181 21.7212 36.873C14.8213 40.7667 12.2622 44.9355 9.86133 54.993V141.665H116.958Z" fill="#AECA3B"/>
<path d="M28.2435 121.536L34.7444 132.591C35.3429 133.609 36.4299 134.228 37.6062 134.228H89.3866C90.5629 134.228 91.6567 133.602 92.2483 132.591L98.7492 121.536C100.703 118.214 104.266 116.177 108.119 116.177H133.056V169.017C133.056 176.591 126.913 182.734 119.339 182.734H7.64697C0.0728841 182.734 -6.07031 176.591 -6.07031 169.017V116.177H18.8671C22.7263 116.177 26.2898 118.214 28.2435 121.536Z" fill="#6556A0"/>
<path d="M133.071 116.17V169.01C133.071 176.591 126.927 182.727 119.353 182.727H15.9922L65.3648 134.229H89.3872C90.5636 134.229 91.6574 133.616 92.249 132.598L98.7568 121.543C100.711 118.214 104.281 116.177 108.126 116.177H133.071V116.17Z" fill="#4A4595"/>
<path d="M71.3019 48.2308C70.0705 47.0613 68.22 46.1945 65.6402 45.5891V40.3402C66.7203 40.8493 67.6971 41.7574 68.5364 43.0438L69.0111 43.7661L72.8566 39.7899L72.4576 39.2602C70.5796 36.7836 68.2888 35.2564 65.6402 34.7336V30.5923H61.9805V34.6304C60.6459 34.8093 59.4351 35.1945 58.3826 35.7861C57.1374 36.4809 56.1468 37.4303 55.4245 38.5929C54.7022 39.7692 54.3376 41.1176 54.3376 42.5897C54.3376 44.7774 55.0255 46.5522 56.3807 47.873C57.5846 49.0494 59.4145 49.9368 61.8085 50.5147V56.4308C60.1987 55.9906 58.8435 54.9931 57.674 53.4177L57.1856 52.7573L53.457 56.7198L53.8491 57.2426C54.8948 58.6253 56.1606 59.7329 57.6259 60.5309C58.9054 61.2257 60.3088 61.6729 61.8085 61.8792V65.9174H65.4338V61.8792C66.8579 61.6797 68.1374 61.267 69.2381 60.6341C70.5314 59.898 71.5495 58.9143 72.265 57.7173C72.9804 56.5065 73.345 55.11 73.345 53.5691C73.3588 51.3195 72.664 49.5309 71.3019 48.2308ZM67.6765 53.7686C67.6765 54.5391 67.4426 55.1513 66.9542 55.6397C66.5827 56.0112 66.0736 56.2864 65.4407 56.4515V51.3952C66.3763 51.7185 66.8579 52.035 67.0986 52.2689C67.4908 52.6404 67.6765 53.1219 67.6765 53.7686ZM59.9511 42.4453C59.9511 41.7849 60.185 41.2414 60.6596 40.7874C61.0174 40.4503 61.4508 40.2026 61.9805 40.0513V44.7842C61.3338 44.5503 60.8454 44.282 60.5289 43.9725C60.1437 43.5872 59.9511 43.0919 59.9511 42.4453Z" fill="#AECA3B"/>
</svg>
