<svg width="1232" height="397" viewBox="0 0 1232 397" fill="none" xmlns="http://www.w3.org/2000/svg">
<g filter="url(#filter0_d_1_20812)">
<rect x="10" y="10" width="1212" height="377" rx="24" fill="#FFFEFF"/>
<path d="M39.52 54.12H42.4C43.1333 54.12 43.8133 53.9933 44.44 53.74C45.0667 53.4733 45.6133 53.1133 46.08 52.66C46.56 52.1933 46.9267 51.6533 47.18 51.04C47.4467 50.4133 47.58 49.7333 47.58 49C47.58 48.28 47.4467 47.6067 47.18 46.98C46.9267 46.3533 46.56 45.8133 46.08 45.36C45.6133 44.8933 45.0667 44.5333 44.44 44.28C43.8133 44.0133 43.1333 43.88 42.4 43.88H39.52V54.12ZM37.42 56V42H42.36C43.4133 42 44.3867 42.18 45.28 42.54C46.1733 42.8867 46.9533 43.3733 47.62 44C48.2867 44.6267 48.8067 45.3667 49.18 46.22C49.5533 47.0733 49.74 48 49.74 49C49.74 50.0133 49.5533 50.9467 49.18 51.8C48.82 52.64 48.3067 53.3733 47.64 54C46.9733 54.6267 46.1867 55.12 45.28 55.48C44.3867 55.8267 43.4133 56 42.36 56H37.42ZM56.9912 56.18C55.9912 56.18 55.0846 55.9467 54.2712 55.48C53.4712 55.0133 52.8312 54.38 52.3512 53.58C51.8846 52.78 51.6512 51.8867 51.6512 50.9C51.6512 49.9267 51.8779 49.0467 52.3312 48.26C52.7846 47.46 53.3979 46.8267 54.1712 46.36C54.9446 45.88 55.8046 45.64 56.7512 45.64C57.6979 45.64 58.5379 45.88 59.2713 46.36C60.0046 46.8267 60.5846 47.4667 61.0112 48.28C61.4512 49.08 61.6712 49.9867 61.6712 51V51.56H53.6512C53.7579 52.12 53.9646 52.62 54.2712 53.06C54.5912 53.5 54.9912 53.8467 55.4712 54.1C55.9646 54.3533 56.4979 54.48 57.0712 54.48C57.5646 54.48 58.0379 54.4067 58.4913 54.26C58.9579 54.1 59.3446 53.8733 59.6513 53.58L60.9312 54.84C60.3312 55.2933 59.7112 55.6333 59.0712 55.86C58.4446 56.0733 57.7512 56.18 56.9912 56.18ZM53.6712 50.06H59.6913C59.6112 49.5267 59.4246 49.06 59.1313 48.66C58.8513 48.2467 58.4979 47.9267 58.0713 47.7C57.6579 47.46 57.2046 47.34 56.7112 47.34C56.2046 47.34 55.7379 47.4533 55.3112 47.68C54.8846 47.9067 54.5246 48.2267 54.2312 48.64C53.9512 49.04 53.7646 49.5133 53.6712 50.06ZM63.9761 56V42L65.9761 41.62V46.78C66.8294 46.0333 67.8628 45.66 69.0761 45.66C70.0361 45.66 70.9028 45.8933 71.6761 46.36C72.4628 46.8267 73.0828 47.4533 73.5361 48.24C73.9894 49.0267 74.2161 49.9133 74.2161 50.9C74.2161 51.8867 73.9828 52.78 73.5161 53.58C73.0628 54.3667 72.4428 54.9933 71.6561 55.46C70.8828 55.9267 70.0094 56.16 69.0361 56.16C68.4761 56.16 67.9294 56.0733 67.3961 55.9C66.8761 55.7133 66.3961 55.4533 65.9561 55.12V56H63.9761ZM68.8161 54.42C69.4694 54.42 70.0494 54.2667 70.5561 53.96C71.0761 53.6533 71.4894 53.24 71.7961 52.72C72.1028 52.1867 72.2561 51.5867 72.2561 50.92C72.2561 50.2533 72.1028 49.6533 71.7961 49.12C71.4894 48.5867 71.0761 48.1667 70.5561 47.86C70.0494 47.5533 69.4694 47.4 68.8161 47.4C68.2428 47.4 67.7094 47.5067 67.2161 47.72C66.7228 47.9333 66.3094 48.2333 65.9761 48.62V53.22C66.3094 53.5933 66.7228 53.8867 67.2161 54.1C67.7228 54.3133 68.2561 54.42 68.8161 54.42ZM76.5245 56V45.82H78.5245V56H76.5245ZM77.5245 44.18C77.1912 44.18 76.9045 44.06 76.6645 43.82C76.4245 43.5667 76.3045 43.2733 76.3045 42.94C76.3045 42.5933 76.4245 42.3067 76.6645 42.08C76.9045 41.84 77.1912 41.72 77.5245 41.72C77.8712 41.72 78.1645 41.84 78.4045 42.08C78.6445 42.3067 78.7645 42.5933 78.7645 42.94C78.7645 43.2733 78.6445 43.5667 78.4045 43.82C78.1645 44.06 77.8712 44.18 77.5245 44.18ZM85.64 56.18C84.6533 56.18 83.9 55.9533 83.38 55.5C82.86 55.0333 82.6 54.36 82.6 53.48V47.5H80.44V45.82H82.6V43.22L84.58 42.74V45.82H87.58V47.5H84.58V53.02C84.58 53.54 84.6933 53.9133 84.92 54.14C85.16 54.3533 85.5467 54.46 86.08 54.46C86.36 54.46 86.6067 54.44 86.82 54.4C87.0467 54.36 87.2867 54.3 87.54 54.22V55.9C87.2733 55.9933 86.96 56.06 86.6 56.1C86.2533 56.1533 85.9333 56.18 85.64 56.18ZM98.1131 56.22C97.1665 56.22 96.3331 56.0533 95.6131 55.72C94.9065 55.3867 94.3531 54.92 93.9531 54.32C93.5531 53.72 93.3531 53.0267 93.3531 52.24C93.3531 51.6667 93.4465 51.16 93.6331 50.72C93.8198 50.28 94.1265 49.8667 94.5531 49.48C94.9931 49.08 95.5731 48.68 96.2931 48.28C95.8531 47.7067 95.5398 47.18 95.3531 46.7C95.1665 46.22 95.0731 45.7133 95.0731 45.18C95.0731 44.5267 95.2265 43.9467 95.5331 43.44C95.8398 42.92 96.2665 42.5133 96.8131 42.22C97.3598 41.9267 97.9798 41.78 98.6731 41.78C99.3265 41.78 99.9065 41.9133 100.413 42.18C100.933 42.4333 101.34 42.7933 101.633 43.26C101.94 43.7133 102.093 44.24 102.093 44.84C102.093 45.48 101.92 46.06 101.573 46.58C101.226 47.0867 100.686 47.5533 99.9531 47.98L98.9531 48.6C99.4331 49.1333 99.9598 49.68 100.533 50.24C101.106 50.8 101.686 51.3533 102.273 51.9C102.58 51.4067 102.833 50.8667 103.033 50.28C103.233 49.68 103.4 49.0467 103.533 48.38L105.313 48.68C105.126 49.5333 104.893 50.3267 104.613 51.06C104.333 51.7933 103.993 52.46 103.593 53.06C103.993 53.4067 104.38 53.7333 104.753 54.04C105.14 54.3333 105.513 54.62 105.873 54.9L104.673 56.32C104.326 56.0533 103.96 55.7733 103.573 55.48C103.2 55.1733 102.826 54.86 102.453 54.54C101.88 55.0867 101.22 55.5067 100.473 55.8C99.7398 56.08 98.9531 56.22 98.1131 56.22ZM97.9331 47.42L98.9531 46.82C99.3931 46.5667 99.7198 46.2867 99.9331 45.98C100.146 45.66 100.253 45.3 100.253 44.9C100.253 44.4467 100.093 44.0733 99.7731 43.78C99.4665 43.4733 99.0798 43.32 98.6131 43.32C98.1198 43.32 97.7131 43.4933 97.3931 43.84C97.0731 44.1733 96.9131 44.6067 96.9131 45.14C96.9131 45.5 96.9865 45.8533 97.1331 46.2C97.2931 46.5333 97.5598 46.94 97.9331 47.42ZM98.2331 54.58C98.8065 54.58 99.3398 54.48 99.8331 54.28C100.326 54.08 100.766 53.7867 101.153 53.4C100.46 52.76 99.7798 52.1133 99.1131 51.46C98.4465 50.7933 97.8398 50.1467 97.2931 49.52C96.7731 49.8 96.3598 50.0733 96.0531 50.34C95.7465 50.6067 95.5331 50.8867 95.4131 51.18C95.2931 51.46 95.2331 51.7733 95.2331 52.12C95.2331 52.8667 95.5065 53.4667 96.0531 53.92C96.5998 54.36 97.3265 54.58 98.2331 54.58ZM119.313 56.22C118.273 56.22 117.306 56.04 116.413 55.68C115.533 55.3067 114.753 54.7933 114.073 54.14C113.406 53.4733 112.886 52.7067 112.513 51.84C112.153 50.96 111.973 50.0133 111.973 49C111.973 47.9867 112.153 47.0467 112.513 46.18C112.886 45.3 113.406 44.5333 114.073 43.88C114.753 43.2133 115.54 42.7 116.433 42.34C117.326 41.9667 118.286 41.78 119.313 41.78C120.046 41.78 120.76 41.88 121.453 42.08C122.16 42.2667 122.806 42.54 123.393 42.9C123.993 43.26 124.513 43.6933 124.953 44.2L123.553 45.64C123.033 45.0133 122.4 44.54 121.653 44.22C120.906 43.8867 120.126 43.72 119.313 43.72C118.566 43.72 117.873 43.8533 117.233 44.12C116.606 44.3867 116.06 44.76 115.593 45.24C115.126 45.7067 114.76 46.26 114.493 46.9C114.24 47.54 114.113 48.24 114.113 49C114.113 49.7467 114.24 50.44 114.493 51.08C114.76 51.72 115.133 52.28 115.613 52.76C116.093 53.24 116.653 53.6133 117.293 53.88C117.933 54.1467 118.626 54.28 119.373 54.28C120.186 54.28 120.953 54.12 121.673 53.8C122.406 53.4667 123.026 53 123.533 52.4L124.913 53.8C124.446 54.2933 123.913 54.7267 123.313 55.1C122.726 55.46 122.086 55.74 121.393 55.94C120.713 56.1267 120.02 56.22 119.313 56.22ZM127.128 56V45.82H129.128V47.12C129.448 46.64 129.841 46.2667 130.308 46C130.788 45.72 131.328 45.58 131.928 45.58C132.341 45.5933 132.681 45.6533 132.948 45.76V47.56C132.761 47.48 132.568 47.4267 132.368 47.4C132.168 47.36 131.968 47.34 131.768 47.34C131.181 47.34 130.661 47.5 130.208 47.82C129.754 48.1267 129.394 48.58 129.128 49.18V56H127.128ZM139.244 56.18C138.244 56.18 137.337 55.9467 136.524 55.48C135.724 55.0133 135.084 54.38 134.604 53.58C134.137 52.78 133.904 51.8867 133.904 50.9C133.904 49.9267 134.13 49.0467 134.584 48.26C135.037 47.46 135.65 46.8267 136.424 46.36C137.197 45.88 138.057 45.64 139.004 45.64C139.95 45.64 140.79 45.88 141.524 46.36C142.257 46.8267 142.837 47.4667 143.264 48.28C143.704 49.08 143.924 49.9867 143.924 51V51.56H135.904C136.01 52.12 136.217 52.62 136.524 53.06C136.844 53.5 137.244 53.8467 137.724 54.1C138.217 54.3533 138.75 54.48 139.324 54.48C139.817 54.48 140.29 54.4067 140.744 54.26C141.21 54.1 141.597 53.8733 141.904 53.58L143.184 54.84C142.584 55.2933 141.964 55.6333 141.324 55.86C140.697 56.0733 140.004 56.18 139.244 56.18ZM135.924 50.06H141.944C141.864 49.5267 141.677 49.06 141.384 48.66C141.104 48.2467 140.75 47.9267 140.324 47.7C139.91 47.46 139.457 47.34 138.964 47.34C138.457 47.34 137.99 47.4533 137.564 47.68C137.137 47.9067 136.777 48.2267 136.484 48.64C136.204 49.04 136.017 49.5133 135.924 50.06ZM150.948 56.16C150.001 56.16 149.134 55.9267 148.348 55.46C147.561 54.9933 146.941 54.3667 146.488 53.58C146.034 52.78 145.808 51.8867 145.808 50.9C145.808 49.9133 146.034 49.0267 146.488 48.24C146.954 47.4533 147.581 46.8267 148.368 46.36C149.154 45.8933 150.028 45.66 150.988 45.66C151.548 45.66 152.088 45.7467 152.608 45.92C153.128 46.0933 153.608 46.3467 154.048 46.68V42L156.048 41.62V56H154.068V55.02C153.201 55.78 152.161 56.16 150.948 56.16ZM151.208 54.42C151.794 54.42 152.328 54.3133 152.808 54.1C153.301 53.8867 153.714 53.58 154.048 53.18V48.6C153.714 48.2267 153.301 47.9333 152.808 47.72C152.328 47.4933 151.794 47.38 151.208 47.38C150.568 47.38 149.988 47.5333 149.468 47.84C148.948 48.1467 148.534 48.5667 148.228 49.1C147.921 49.62 147.768 50.2133 147.768 50.88C147.768 51.5467 147.921 52.1467 148.228 52.68C148.534 53.2133 148.948 53.64 149.468 53.96C149.988 54.2667 150.568 54.42 151.208 54.42ZM158.816 56V45.82H160.816V56H158.816ZM159.816 44.18C159.483 44.18 159.196 44.06 158.956 43.82C158.716 43.5667 158.596 43.2733 158.596 42.94C158.596 42.5933 158.716 42.3067 158.956 42.08C159.196 41.84 159.483 41.72 159.816 41.72C160.163 41.72 160.456 41.84 160.696 42.08C160.936 42.3067 161.056 42.5933 161.056 42.94C161.056 43.2733 160.936 43.5667 160.696 43.82C160.456 44.06 160.163 44.18 159.816 44.18ZM167.931 56.18C166.945 56.18 166.191 55.9533 165.671 55.5C165.151 55.0333 164.891 54.36 164.891 53.48V47.5H162.731V45.82H164.891V43.22L166.871 42.74V45.82H169.871V47.5H166.871V53.02C166.871 53.54 166.985 53.9133 167.211 54.14C167.451 54.3533 167.838 54.46 168.371 54.46C168.651 54.46 168.898 54.44 169.111 54.4C169.338 54.36 169.578 54.3 169.831 54.22V55.9C169.565 55.9933 169.251 56.06 168.891 56.1C168.545 56.1533 168.225 56.18 167.931 56.18ZM183.245 56.22C182.231 56.22 181.285 56.04 180.405 55.68C179.525 55.3067 178.745 54.7933 178.065 54.14C177.398 53.4733 176.878 52.7067 176.505 51.84C176.145 50.96 175.965 50.0133 175.965 49C175.965 47.9867 176.145 47.0467 176.505 46.18C176.878 45.3 177.398 44.5333 178.065 43.88C178.745 43.2133 179.525 42.7 180.405 42.34C181.285 41.9667 182.231 41.78 183.245 41.78C184.258 41.78 185.205 41.9667 186.085 42.34C186.978 42.7 187.758 43.2133 188.425 43.88C189.091 44.5333 189.611 45.3 189.985 46.18C190.358 47.0467 190.545 47.9867 190.545 49C190.545 50.0133 190.358 50.96 189.985 51.84C189.611 52.7067 189.091 53.4733 188.425 54.14C187.758 54.7933 186.978 55.3067 186.085 55.68C185.205 56.04 184.258 56.22 183.245 56.22ZM183.265 54.28C183.985 54.28 184.651 54.1467 185.265 53.88C185.891 53.6133 186.438 53.2467 186.905 52.78C187.371 52.3 187.738 51.74 188.005 51.1C188.271 50.4467 188.405 49.7467 188.405 49C188.405 48.24 188.271 47.54 188.005 46.9C187.738 46.26 187.371 45.7067 186.905 45.24C186.438 44.76 185.891 44.3867 185.265 44.12C184.651 43.8533 183.985 43.72 183.265 43.72C182.531 43.72 181.851 43.8533 181.225 44.12C180.598 44.3867 180.051 44.76 179.585 45.24C179.118 45.7067 178.751 46.26 178.485 46.9C178.231 47.54 178.105 48.2333 178.105 48.98C178.105 49.74 178.231 50.4467 178.485 51.1C178.751 51.74 179.118 52.3 179.585 52.78C180.051 53.2467 180.598 53.6133 181.225 53.88C181.851 54.1467 182.531 54.28 183.265 54.28ZM196.196 56L191.796 45.82H193.996L197.176 53.44L200.356 45.82H202.476L198.116 56H196.196ZM208.704 56.18C207.704 56.18 206.797 55.9467 205.984 55.48C205.184 55.0133 204.544 54.38 204.064 53.58C203.597 52.78 203.364 51.8867 203.364 50.9C203.364 49.9267 203.59 49.0467 204.044 48.26C204.497 47.46 205.11 46.8267 205.884 46.36C206.657 45.88 207.517 45.64 208.464 45.64C209.41 45.64 210.25 45.88 210.984 46.36C211.717 46.8267 212.297 47.4667 212.724 48.28C213.164 49.08 213.384 49.9867 213.384 51V51.56H205.364C205.47 52.12 205.677 52.62 205.984 53.06C206.304 53.5 206.704 53.8467 207.184 54.1C207.677 54.3533 208.21 54.48 208.784 54.48C209.277 54.48 209.75 54.4067 210.204 54.26C210.67 54.1 211.057 53.8733 211.364 53.58L212.644 54.84C212.044 55.2933 211.424 55.6333 210.784 55.86C210.157 56.0733 209.464 56.18 208.704 56.18ZM205.384 50.06H211.404C211.324 49.5267 211.137 49.06 210.844 48.66C210.564 48.2467 210.21 47.9267 209.784 47.7C209.37 47.46 208.917 47.34 208.424 47.34C207.917 47.34 207.45 47.4533 207.024 47.68C206.597 47.9067 206.237 48.2267 205.944 48.64C205.664 49.04 205.477 49.5133 205.384 50.06ZM215.689 56V45.82H217.689V47.12C218.009 46.64 218.402 46.2667 218.869 46C219.349 45.72 219.889 45.58 220.489 45.58C220.902 45.5933 221.242 45.6533 221.509 45.76V47.56C221.322 47.48 221.129 47.4267 220.929 47.4C220.729 47.36 220.529 47.34 220.329 47.34C219.742 47.34 219.222 47.5 218.769 47.82C218.315 48.1267 217.955 48.58 217.689 49.18V56H215.689ZM227.083 56L222.683 45.82H224.883L228.063 53.44L231.243 45.82H233.363L229.003 56H227.083ZM235.004 56V45.82H237.004V56H235.004ZM236.004 44.18C235.671 44.18 235.384 44.06 235.144 43.82C234.904 43.5667 234.784 43.2733 234.784 42.94C234.784 42.5933 234.904 42.3067 235.144 42.08C235.384 41.84 235.671 41.72 236.004 41.72C236.351 41.72 236.644 41.84 236.884 42.08C237.124 42.3067 237.244 42.5933 237.244 42.94C237.244 43.2733 237.124 43.5667 236.884 43.82C236.644 44.06 236.351 44.18 236.004 44.18ZM244.64 56.18C243.64 56.18 242.733 55.9467 241.92 55.48C241.12 55.0133 240.48 54.38 240 53.58C239.533 52.78 239.3 51.8867 239.3 50.9C239.3 49.9267 239.526 49.0467 239.98 48.26C240.433 47.46 241.046 46.8267 241.82 46.36C242.593 45.88 243.453 45.64 244.4 45.64C245.346 45.64 246.186 45.88 246.92 46.36C247.653 46.8267 248.233 47.4667 248.66 48.28C249.1 49.08 249.32 49.9867 249.32 51V51.56H241.3C241.406 52.12 241.613 52.62 241.92 53.06C242.24 53.5 242.64 53.8467 243.12 54.1C243.613 54.3533 244.146 54.48 244.72 54.48C245.213 54.48 245.686 54.4067 246.14 54.26C246.606 54.1 246.993 53.8733 247.3 53.58L248.58 54.84C247.98 55.2933 247.36 55.6333 246.72 55.86C246.093 56.0733 245.4 56.18 244.64 56.18ZM241.32 50.06H247.34C247.26 49.5267 247.073 49.06 246.78 48.66C246.5 48.2467 246.146 47.9267 245.72 47.7C245.306 47.46 244.853 47.34 244.36 47.34C243.853 47.34 243.386 47.4533 242.96 47.68C242.533 47.9067 242.173 48.2267 241.88 48.64C241.6 49.04 241.413 49.5133 241.32 50.06ZM253.329 56L250.489 45.82H252.429L254.409 53.3L256.729 45.82H258.449L260.769 53.3L262.749 45.82H264.629L261.769 56H259.849L257.569 48.54L255.269 56H253.329Z" fill="black"/>
<path d="M40.626 97.206V95.64C39.774 95.568 38.976 95.364 38.232 95.028C37.488 94.68 36.84 94.218 36.288 93.642L37.296 92.418C38.244 93.39 39.354 93.972 40.626 94.164V90.366L39.852 90.204C38.664 89.964 37.812 89.604 37.296 89.124C36.792 88.644 36.54 87.96 36.54 87.072C36.54 86.4 36.708 85.812 37.044 85.308C37.392 84.804 37.872 84.414 38.484 84.138C39.096 83.862 39.81 83.718 40.626 83.706V82.194H41.652V83.742C42.36 83.826 43.056 83.994 43.74 84.246C44.436 84.498 45.078 84.828 45.666 85.236L44.838 86.604C44.286 86.244 43.746 85.956 43.218 85.74C42.69 85.512 42.168 85.356 41.652 85.272V88.908L42.408 89.034C43.692 89.31 44.604 89.688 45.144 90.168C45.684 90.648 45.954 91.32 45.954 92.184C45.954 92.856 45.774 93.45 45.414 93.966C45.054 94.47 44.55 94.872 43.902 95.172C43.266 95.46 42.516 95.622 41.652 95.658V97.206H40.626ZM40.626 88.728V85.2C39.906 85.212 39.324 85.374 38.88 85.686C38.436 85.998 38.214 86.412 38.214 86.928C38.214 87.264 38.28 87.546 38.412 87.774C38.544 88.002 38.766 88.188 39.078 88.332C39.39 88.464 39.81 88.584 40.338 88.692L40.626 88.728ZM41.652 94.218C42.408 94.17 43.026 93.978 43.506 93.642C43.986 93.294 44.226 92.85 44.226 92.31C44.226 91.974 44.154 91.698 44.01 91.482C43.878 91.266 43.644 91.086 43.308 90.942C42.984 90.798 42.522 90.672 41.922 90.564L41.652 90.51V94.218ZM51.967 96.198C51.067 96.198 50.269 96.042 49.573 95.73C48.889 95.418 48.349 94.986 47.953 94.434C47.557 93.882 47.359 93.252 47.359 92.544C47.359 92.052 47.473 91.596 47.701 91.176C47.941 90.756 48.271 90.39 48.691 90.078C49.123 89.766 49.609 89.544 50.149 89.412C49.453 89.196 48.889 88.83 48.457 88.314C48.025 87.798 47.809 87.222 47.809 86.586C47.809 85.938 47.989 85.362 48.349 84.858C48.721 84.342 49.219 83.94 49.843 83.652C50.467 83.352 51.175 83.202 51.967 83.202C52.759 83.202 53.467 83.352 54.091 83.652C54.727 83.94 55.225 84.342 55.585 84.858C55.945 85.362 56.125 85.938 56.125 86.586C56.125 87.222 55.909 87.798 55.477 88.314C55.045 88.83 54.481 89.196 53.785 89.412C54.613 89.628 55.285 90.024 55.801 90.6C56.317 91.164 56.575 91.812 56.575 92.544C56.575 93.252 56.377 93.882 55.981 94.434C55.597 94.986 55.057 95.418 54.361 95.73C53.665 96.042 52.867 96.198 51.967 96.198ZM51.967 88.746C52.435 88.746 52.855 88.656 53.227 88.476C53.599 88.296 53.893 88.05 54.109 87.738C54.325 87.426 54.433 87.078 54.433 86.694C54.433 86.298 54.325 85.944 54.109 85.632C53.893 85.308 53.599 85.062 53.227 84.894C52.855 84.714 52.435 84.624 51.967 84.624C51.499 84.624 51.079 84.714 50.707 84.894C50.335 85.062 50.041 85.302 49.825 85.614C49.609 85.926 49.501 86.28 49.501 86.676C49.501 87.072 49.609 87.426 49.825 87.738C50.041 88.05 50.335 88.296 50.707 88.476C51.079 88.656 51.499 88.746 51.967 88.746ZM51.967 94.776C52.519 94.776 53.011 94.68 53.443 94.488C53.875 94.284 54.217 94.008 54.469 93.66C54.721 93.3 54.847 92.898 54.847 92.454C54.847 92.01 54.721 91.614 54.469 91.266C54.217 90.906 53.875 90.63 53.443 90.438C53.011 90.234 52.519 90.132 51.967 90.132C51.415 90.132 50.923 90.234 50.491 90.438C50.059 90.642 49.717 90.918 49.465 91.266C49.213 91.614 49.087 92.01 49.087 92.454C49.087 92.898 49.213 93.3 49.465 93.66C49.717 94.008 50.059 94.284 50.491 94.488C50.923 94.68 51.415 94.776 51.967 94.776ZM57.7731 98.574L58.8891 94.38H60.7971L59.1411 98.574H57.7731ZM66.4961 83.202C67.5041 83.202 68.3921 83.466 69.1601 83.994C69.9281 84.51 70.5281 85.224 70.9601 86.136C71.3921 87.048 71.6081 88.11 71.6081 89.322C71.6081 90.702 71.3681 91.908 70.8881 92.94C70.4081 93.96 69.7301 94.758 68.8541 95.334C67.9901 95.898 66.9761 96.18 65.8121 96.18C65.2481 96.18 64.6781 96.09 64.1021 95.91C63.5261 95.73 63.0281 95.49 62.6081 95.19L63.5261 93.894C63.8981 94.134 64.2881 94.32 64.6961 94.452C65.1041 94.572 65.5241 94.632 65.9561 94.632C66.7721 94.632 67.4681 94.422 68.0441 94.002C68.6321 93.582 69.0821 92.982 69.3941 92.202C69.7061 91.41 69.8681 90.474 69.8801 89.394C69.4361 89.982 68.9021 90.444 68.2781 90.78C67.6541 91.104 67.0061 91.266 66.3341 91.266C65.5061 91.266 64.7741 91.098 64.1381 90.762C63.5021 90.414 63.0041 89.952 62.6441 89.376C62.2841 88.788 62.1041 88.116 62.1041 87.36C62.1041 86.556 62.2961 85.842 62.6801 85.218C63.0641 84.594 63.5861 84.102 64.2461 83.742C64.9061 83.382 65.6561 83.202 66.4961 83.202ZM66.5861 89.88C67.2101 89.88 67.7981 89.736 68.3501 89.448C68.9141 89.148 69.4001 88.746 69.8081 88.242C69.7121 87.522 69.5141 86.898 69.2141 86.37C68.9261 85.842 68.5541 85.434 68.0981 85.146C67.6421 84.846 67.1261 84.696 66.5501 84.696C66.0341 84.696 65.5661 84.81 65.1461 85.038C64.7381 85.266 64.4141 85.578 64.1741 85.974C63.9461 86.37 63.8321 86.82 63.8321 87.324C63.8321 87.816 63.9461 88.26 64.1741 88.656C64.4141 89.04 64.7441 89.34 65.1641 89.556C65.5841 89.772 66.0581 89.88 66.5861 89.88ZM78.0353 96.198C77.1353 96.198 76.3373 96.042 75.6413 95.73C74.9573 95.418 74.4173 94.986 74.0213 94.434C73.6253 93.882 73.4273 93.252 73.4273 92.544C73.4273 92.052 73.5413 91.596 73.7693 91.176C74.0093 90.756 74.3393 90.39 74.7593 90.078C75.1913 89.766 75.6773 89.544 76.2173 89.412C75.5213 89.196 74.9573 88.83 74.5253 88.314C74.0933 87.798 73.8773 87.222 73.8773 86.586C73.8773 85.938 74.0573 85.362 74.4173 84.858C74.7893 84.342 75.2873 83.94 75.9113 83.652C76.5353 83.352 77.2433 83.202 78.0353 83.202C78.8273 83.202 79.5353 83.352 80.1593 83.652C80.7953 83.94 81.2933 84.342 81.6533 84.858C82.0133 85.362 82.1933 85.938 82.1933 86.586C82.1933 87.222 81.9773 87.798 81.5453 88.314C81.1133 88.83 80.5493 89.196 79.8533 89.412C80.6813 89.628 81.3533 90.024 81.8693 90.6C82.3853 91.164 82.6433 91.812 82.6433 92.544C82.6433 93.252 82.4453 93.882 82.0493 94.434C81.6653 94.986 81.1253 95.418 80.4293 95.73C79.7333 96.042 78.9353 96.198 78.0353 96.198ZM78.0353 88.746C78.5033 88.746 78.9233 88.656 79.2953 88.476C79.6673 88.296 79.9613 88.05 80.1773 87.738C80.3933 87.426 80.5013 87.078 80.5013 86.694C80.5013 86.298 80.3933 85.944 80.1773 85.632C79.9613 85.308 79.6673 85.062 79.2953 84.894C78.9233 84.714 78.5033 84.624 78.0353 84.624C77.5673 84.624 77.1473 84.714 76.7753 84.894C76.4033 85.062 76.1093 85.302 75.8933 85.614C75.6773 85.926 75.5693 86.28 75.5693 86.676C75.5693 87.072 75.6773 87.426 75.8933 87.738C76.1093 88.05 76.4033 88.296 76.7753 88.476C77.1473 88.656 77.5673 88.746 78.0353 88.746ZM78.0353 94.776C78.5873 94.776 79.0793 94.68 79.5113 94.488C79.9433 94.284 80.2853 94.008 80.5373 93.66C80.7893 93.3 80.9153 92.898 80.9153 92.454C80.9153 92.01 80.7893 91.614 80.5373 91.266C80.2853 90.906 79.9433 90.63 79.5113 90.438C79.0793 90.234 78.5873 90.132 78.0353 90.132C77.4833 90.132 76.9913 90.234 76.5593 90.438C76.1273 90.642 75.7853 90.918 75.5333 91.266C75.2813 91.614 75.1553 92.01 75.1553 92.454C75.1553 92.898 75.2813 93.3 75.5333 93.66C75.7853 94.008 76.1273 94.284 76.5593 94.488C76.9913 94.68 77.4833 94.776 78.0353 94.776ZM85.1396 96L91.1516 84.93H83.8076V83.4H93.0236V84.714L87.1556 96H85.1396Z" fill="black"/>
<path d="M192.626 97.206V95.64C191.774 95.568 190.976 95.364 190.232 95.028C189.488 94.68 188.84 94.218 188.288 93.642L189.296 92.418C190.244 93.39 191.354 93.972 192.626 94.164V90.366L191.852 90.204C190.664 89.964 189.812 89.604 189.296 89.124C188.792 88.644 188.54 87.96 188.54 87.072C188.54 86.4 188.708 85.812 189.044 85.308C189.392 84.804 189.872 84.414 190.484 84.138C191.096 83.862 191.81 83.718 192.626 83.706V82.194H193.652V83.742C194.36 83.826 195.056 83.994 195.74 84.246C196.436 84.498 197.078 84.828 197.666 85.236L196.838 86.604C196.286 86.244 195.746 85.956 195.218 85.74C194.69 85.512 194.168 85.356 193.652 85.272V88.908L194.408 89.034C195.692 89.31 196.604 89.688 197.144 90.168C197.684 90.648 197.954 91.32 197.954 92.184C197.954 92.856 197.774 93.45 197.414 93.966C197.054 94.47 196.55 94.872 195.902 95.172C195.266 95.46 194.516 95.622 193.652 95.658V97.206H192.626ZM192.626 88.728V85.2C191.906 85.212 191.324 85.374 190.88 85.686C190.436 85.998 190.214 86.412 190.214 86.928C190.214 87.264 190.28 87.546 190.412 87.774C190.544 88.002 190.766 88.188 191.078 88.332C191.39 88.464 191.81 88.584 192.338 88.692L192.626 88.728ZM193.652 94.218C194.408 94.17 195.026 93.978 195.506 93.642C195.986 93.294 196.226 92.85 196.226 92.31C196.226 91.974 196.154 91.698 196.01 91.482C195.878 91.266 195.644 91.086 195.308 90.942C194.984 90.798 194.522 90.672 193.922 90.564L193.652 90.51V94.218ZM203.499 96.198C201.819 96.198 200.361 95.628 199.125 94.488L200.187 93.3C200.727 93.792 201.261 94.152 201.789 94.38C202.329 94.596 202.917 94.704 203.553 94.704C204.129 94.704 204.627 94.596 205.047 94.38C205.467 94.152 205.797 93.84 206.037 93.444C206.277 93.036 206.397 92.574 206.397 92.058C206.397 91.302 206.127 90.69 205.587 90.222C205.059 89.754 204.369 89.52 203.517 89.52C203.085 89.52 202.653 89.58 202.221 89.7C201.801 89.808 201.363 89.976 200.907 90.204L199.701 89.844L199.989 83.4H207.477V84.894H201.465L201.285 88.8C201.741 88.572 202.185 88.41 202.617 88.314C203.049 88.206 203.505 88.152 203.985 88.152C204.825 88.152 205.551 88.314 206.163 88.638C206.787 88.95 207.273 89.394 207.621 89.97C207.969 90.546 208.143 91.212 208.143 91.968C208.143 92.808 207.945 93.546 207.549 94.182C207.165 94.806 206.625 95.298 205.929 95.658C205.233 96.018 204.423 96.198 203.499 96.198ZM209.105 98.574L210.221 94.38H212.129L210.473 98.574H209.105ZM220.382 96V92.796H213.236V91.374L220.166 83.4H222.164V91.284H223.694V92.796H222.164V96H220.382ZM215.36 91.284H220.382V85.506L215.36 91.284ZM230.311 96.18C229.303 96.18 228.415 95.922 227.647 95.406C226.879 94.89 226.279 94.176 225.847 93.264C225.415 92.34 225.199 91.272 225.199 90.06C225.199 88.68 225.439 87.48 225.919 86.46C226.399 85.428 227.071 84.63 227.935 84.066C228.811 83.49 229.831 83.202 230.995 83.202C231.571 83.202 232.141 83.292 232.705 83.472C233.281 83.64 233.779 83.886 234.199 84.21L233.281 85.488C232.909 85.248 232.519 85.068 232.111 84.948C231.715 84.828 231.295 84.768 230.851 84.768C230.035 84.768 229.333 84.978 228.745 85.398C228.169 85.806 227.725 86.4 227.413 87.18C227.101 87.96 226.939 88.902 226.927 90.006C227.371 89.418 227.905 88.962 228.529 88.638C229.153 88.302 229.801 88.134 230.473 88.134C231.301 88.134 232.033 88.302 232.669 88.638C233.305 88.962 233.803 89.418 234.163 90.006C234.523 90.594 234.703 91.266 234.703 92.022C234.703 92.814 234.511 93.528 234.127 94.164C233.743 94.788 233.221 95.28 232.561 95.64C231.901 96 231.151 96.18 230.311 96.18ZM230.221 89.52C229.597 89.52 229.003 89.664 228.439 89.952C227.887 90.24 227.407 90.636 226.999 91.14C227.107 91.848 227.305 92.472 227.593 93.012C227.893 93.54 228.271 93.954 228.727 94.254C229.183 94.542 229.693 94.686 230.257 94.686C230.785 94.686 231.253 94.572 231.661 94.344C232.069 94.116 232.387 93.804 232.615 93.408C232.855 93.012 232.975 92.562 232.975 92.058C232.975 91.566 232.855 91.128 232.615 90.744C232.387 90.36 232.063 90.06 231.643 89.844C231.235 89.628 230.761 89.52 230.221 89.52ZM240.863 96.198C239.963 96.198 239.165 96.042 238.469 95.73C237.785 95.418 237.245 94.986 236.849 94.434C236.453 93.882 236.255 93.252 236.255 92.544C236.255 92.052 236.369 91.596 236.597 91.176C236.837 90.756 237.167 90.39 237.587 90.078C238.019 89.766 238.505 89.544 239.045 89.412C238.349 89.196 237.785 88.83 237.353 88.314C236.921 87.798 236.705 87.222 236.705 86.586C236.705 85.938 236.885 85.362 237.245 84.858C237.617 84.342 238.115 83.94 238.739 83.652C239.363 83.352 240.071 83.202 240.863 83.202C241.655 83.202 242.363 83.352 242.987 83.652C243.623 83.94 244.121 84.342 244.481 84.858C244.841 85.362 245.021 85.938 245.021 86.586C245.021 87.222 244.805 87.798 244.373 88.314C243.941 88.83 243.377 89.196 242.681 89.412C243.509 89.628 244.181 90.024 244.697 90.6C245.213 91.164 245.471 91.812 245.471 92.544C245.471 93.252 245.273 93.882 244.877 94.434C244.493 94.986 243.953 95.418 243.257 95.73C242.561 96.042 241.763 96.198 240.863 96.198ZM240.863 88.746C241.331 88.746 241.751 88.656 242.123 88.476C242.495 88.296 242.789 88.05 243.005 87.738C243.221 87.426 243.329 87.078 243.329 86.694C243.329 86.298 243.221 85.944 243.005 85.632C242.789 85.308 242.495 85.062 242.123 84.894C241.751 84.714 241.331 84.624 240.863 84.624C240.395 84.624 239.975 84.714 239.603 84.894C239.231 85.062 238.937 85.302 238.721 85.614C238.505 85.926 238.397 86.28 238.397 86.676C238.397 87.072 238.505 87.426 238.721 87.738C238.937 88.05 239.231 88.296 239.603 88.476C239.975 88.656 240.395 88.746 240.863 88.746ZM240.863 94.776C241.415 94.776 241.907 94.68 242.339 94.488C242.771 94.284 243.113 94.008 243.365 93.66C243.617 93.3 243.743 92.898 243.743 92.454C243.743 92.01 243.617 91.614 243.365 91.266C243.113 90.906 242.771 90.63 242.339 90.438C241.907 90.234 241.415 90.132 240.863 90.132C240.311 90.132 239.819 90.234 239.387 90.438C238.955 90.642 238.613 90.918 238.361 91.266C238.109 91.614 237.983 92.01 237.983 92.454C237.983 92.898 238.109 93.3 238.361 93.66C238.613 94.008 238.955 94.284 239.387 94.488C239.819 94.68 240.311 94.776 240.863 94.776Z" fill="black"/>
<path d="M105.816 93.496H108.12C108.707 93.496 109.251 93.3947 109.752 93.192C110.253 92.9787 110.691 92.6907 111.064 92.328C111.448 91.9547 111.741 91.5227 111.944 91.032C112.157 90.5307 112.264 89.9867 112.264 89.4C112.264 88.824 112.157 88.2853 111.944 87.784C111.741 87.2827 111.448 86.8507 111.064 86.488C110.691 86.1147 110.253 85.8267 109.752 85.624C109.251 85.4107 108.707 85.304 108.12 85.304H105.816V93.496ZM104.136 95V83.8H108.088C108.931 83.8 109.709 83.944 110.424 84.232C111.139 84.5093 111.763 84.8987 112.296 85.4C112.829 85.9013 113.245 86.4933 113.544 87.176C113.843 87.8587 113.992 88.6 113.992 89.4C113.992 90.2107 113.843 90.9573 113.544 91.64C113.256 92.312 112.845 92.8987 112.312 93.4C111.779 93.9013 111.149 94.296 110.424 94.584C109.709 94.8613 108.931 95 108.088 95H104.136ZM119.793 95.144C118.993 95.144 118.268 94.9573 117.617 94.584C116.977 94.2107 116.465 93.704 116.081 93.064C115.708 92.424 115.521 91.7093 115.521 90.92C115.521 90.1413 115.702 89.4373 116.065 88.808C116.428 88.168 116.918 87.6613 117.537 87.288C118.156 86.904 118.844 86.712 119.601 86.712C120.358 86.712 121.03 86.904 121.617 87.288C122.204 87.6613 122.668 88.1733 123.009 88.824C123.361 89.464 123.537 90.1893 123.537 91V91.448H117.121C117.206 91.896 117.372 92.296 117.617 92.648C117.873 93 118.193 93.2773 118.577 93.48C118.972 93.6827 119.398 93.784 119.857 93.784C120.252 93.784 120.63 93.7253 120.993 93.608C121.366 93.48 121.676 93.2987 121.921 93.064L122.945 94.072C122.465 94.4347 121.969 94.7067 121.457 94.888C120.956 95.0587 120.401 95.144 119.793 95.144ZM117.137 90.248H121.953C121.889 89.8213 121.74 89.448 121.505 89.128C121.281 88.7973 120.998 88.5413 120.657 88.36C120.326 88.168 119.964 88.072 119.569 88.072C119.164 88.072 118.79 88.1627 118.449 88.344C118.108 88.5253 117.82 88.7813 117.585 89.112C117.361 89.432 117.212 89.8107 117.137 90.248ZM125.381 95V83.8L126.981 83.496V87.624C127.664 87.0267 128.49 86.728 129.461 86.728C130.229 86.728 130.922 86.9147 131.541 87.288C132.17 87.6613 132.666 88.1627 133.029 88.792C133.392 89.4213 133.573 90.1307 133.573 90.92C133.573 91.7093 133.386 92.424 133.013 93.064C132.65 93.6933 132.154 94.1947 131.525 94.568C130.906 94.9413 130.208 95.128 129.429 95.128C128.981 95.128 128.544 95.0587 128.117 94.92C127.701 94.7707 127.317 94.5627 126.965 94.296V95H125.381ZM129.253 93.736C129.776 93.736 130.24 93.6133 130.645 93.368C131.061 93.1227 131.392 92.792 131.637 92.376C131.882 91.9493 132.005 91.4693 132.005 90.936C132.005 90.4027 131.882 89.9227 131.637 89.496C131.392 89.0693 131.061 88.7333 130.645 88.488C130.24 88.2427 129.776 88.12 129.253 88.12C128.794 88.12 128.368 88.2053 127.973 88.376C127.578 88.5467 127.248 88.7867 126.981 89.096V92.776C127.248 93.0747 127.578 93.3093 127.973 93.48C128.378 93.6507 128.805 93.736 129.253 93.736ZM135.42 95V86.856H137.02V95H135.42ZM136.22 85.544C135.953 85.544 135.724 85.448 135.532 85.256C135.34 85.0533 135.244 84.8187 135.244 84.552C135.244 84.2747 135.34 84.0453 135.532 83.864C135.724 83.672 135.953 83.576 136.22 83.576C136.497 83.576 136.732 83.672 136.924 83.864C137.116 84.0453 137.212 84.2747 137.212 84.552C137.212 84.8187 137.116 85.0533 136.924 85.256C136.732 85.448 136.497 85.544 136.22 85.544ZM142.712 95.144C141.923 95.144 141.32 94.9627 140.904 94.6C140.488 94.2267 140.28 93.688 140.28 92.984V88.2H138.552V86.856H140.28V84.776L141.864 84.392V86.856H144.264V88.2H141.864V92.616C141.864 93.032 141.955 93.3307 142.136 93.512C142.328 93.6827 142.637 93.768 143.064 93.768C143.288 93.768 143.485 93.752 143.656 93.72C143.837 93.688 144.029 93.64 144.232 93.576V94.92C144.019 94.9947 143.768 95.048 143.48 95.08C143.203 95.1227 142.947 95.144 142.712 95.144ZM149.542 95.144C148.742 95.144 148.016 94.9573 147.366 94.584C146.726 94.2107 146.214 93.704 145.83 93.064C145.456 92.424 145.27 91.7093 145.27 90.92C145.27 90.1413 145.451 89.4373 145.814 88.808C146.176 88.168 146.667 87.6613 147.286 87.288C147.904 86.904 148.592 86.712 149.35 86.712C150.107 86.712 150.779 86.904 151.366 87.288C151.952 87.6613 152.416 88.1733 152.758 88.824C153.11 89.464 153.286 90.1893 153.286 91V91.448H146.87C146.955 91.896 147.12 92.296 147.366 92.648C147.622 93 147.942 93.2773 148.326 93.48C148.72 93.6827 149.147 93.784 149.606 93.784C150 93.784 150.379 93.7253 150.742 93.608C151.115 93.48 151.424 93.2987 151.67 93.064L152.694 94.072C152.214 94.4347 151.718 94.7067 151.206 94.888C150.704 95.0587 150.15 95.144 149.542 95.144ZM146.886 90.248H151.702C151.638 89.8213 151.488 89.448 151.254 89.128C151.03 88.7973 150.747 88.5413 150.406 88.36C150.075 88.168 149.712 88.072 149.318 88.072C148.912 88.072 148.539 88.1627 148.198 88.344C147.856 88.5253 147.568 88.7813 147.334 89.112C147.11 89.432 146.96 89.8107 146.886 90.248ZM158.905 95.128C158.148 95.128 157.454 94.9413 156.825 94.568C156.196 94.1947 155.7 93.6933 155.337 93.064C154.974 92.424 154.793 91.7093 154.793 90.92C154.793 90.1307 154.974 89.4213 155.337 88.792C155.71 88.1627 156.212 87.6613 156.841 87.288C157.47 86.9147 158.169 86.728 158.937 86.728C159.385 86.728 159.817 86.7973 160.233 86.936C160.649 87.0747 161.033 87.2773 161.385 87.544V83.8L162.985 83.496V95H161.401V94.216C160.708 94.824 159.876 95.128 158.905 95.128ZM159.113 93.736C159.582 93.736 160.009 93.6507 160.393 93.48C160.788 93.3093 161.118 93.064 161.385 92.744V89.08C161.118 88.7813 160.788 88.5467 160.393 88.376C160.009 88.1947 159.582 88.104 159.113 88.104C158.601 88.104 158.137 88.2267 157.721 88.472C157.305 88.7173 156.974 89.0533 156.729 89.48C156.484 89.896 156.361 90.3707 156.361 90.904C156.361 91.4373 156.484 91.9173 156.729 92.344C156.974 92.7707 157.305 93.112 157.721 93.368C158.137 93.6133 158.601 93.736 159.113 93.736ZM172.127 95.176C171.37 95.176 170.703 95.0427 170.127 94.776C169.562 94.5093 169.119 94.136 168.799 93.656C168.479 93.176 168.319 92.6213 168.319 91.992C168.319 91.5333 168.394 91.128 168.543 90.776C168.693 90.424 168.938 90.0933 169.279 89.784C169.631 89.464 170.095 89.144 170.671 88.824C170.319 88.3653 170.069 87.944 169.919 87.56C169.77 87.176 169.695 86.7707 169.695 86.344C169.695 85.8213 169.818 85.3573 170.063 84.952C170.309 84.536 170.65 84.2107 171.087 83.976C171.525 83.7413 172.021 83.624 172.575 83.624C173.098 83.624 173.562 83.7307 173.967 83.944C174.383 84.1467 174.709 84.4347 174.943 84.808C175.189 85.1707 175.311 85.592 175.311 86.072C175.311 86.584 175.173 87.048 174.895 87.464C174.618 87.8693 174.186 88.2427 173.599 88.584L172.799 89.08C173.183 89.5067 173.605 89.944 174.063 90.392C174.522 90.84 174.986 91.2827 175.455 91.72C175.701 91.3253 175.903 90.8933 176.063 90.424C176.223 89.944 176.357 89.4373 176.463 88.904L177.887 89.144C177.738 89.8267 177.551 90.4613 177.327 91.048C177.103 91.6347 176.831 92.168 176.511 92.648C176.831 92.9253 177.141 93.1867 177.439 93.432C177.749 93.6667 178.047 93.896 178.335 94.12L177.375 95.256C177.098 95.0427 176.805 94.8187 176.495 94.584C176.197 94.3387 175.898 94.088 175.599 93.832C175.141 94.2693 174.613 94.6053 174.015 94.84C173.429 95.064 172.799 95.176 172.127 95.176ZM171.983 88.136L172.799 87.656C173.151 87.4533 173.413 87.2293 173.583 86.984C173.754 86.728 173.839 86.44 173.839 86.12C173.839 85.7573 173.711 85.4587 173.455 85.224C173.21 84.9787 172.901 84.856 172.527 84.856C172.133 84.856 171.807 84.9947 171.551 85.272C171.295 85.5387 171.167 85.8853 171.167 86.312C171.167 86.6 171.226 86.8827 171.343 87.16C171.471 87.4267 171.685 87.752 171.983 88.136ZM172.223 93.864C172.682 93.864 173.109 93.784 173.503 93.624C173.898 93.464 174.25 93.2293 174.559 92.92C174.005 92.408 173.461 91.8907 172.927 91.368C172.394 90.8347 171.909 90.312 171.471 89.8C171.055 90.0347 170.725 90.2587 170.479 90.472C170.234 90.6853 170.063 90.9093 169.967 91.144C169.871 91.368 169.823 91.6187 169.823 91.896C169.823 92.4933 170.042 92.9733 170.479 93.336C170.917 93.688 171.498 93.864 172.223 93.864Z" fill="#8D8F93"/>
<path d="M262.528 95.176C261.696 95.176 260.923 95.032 260.208 94.744C259.504 94.4453 258.88 94.0347 258.336 93.512C257.803 92.9787 257.387 92.3653 257.088 91.672C256.8 90.968 256.656 90.2107 256.656 89.4C256.656 88.5893 256.8 87.8373 257.088 87.144C257.387 86.44 257.803 85.8267 258.336 85.304C258.88 84.7707 259.509 84.36 260.224 84.072C260.939 83.7733 261.707 83.624 262.528 83.624C263.115 83.624 263.685 83.704 264.24 83.864C264.805 84.0133 265.323 84.232 265.792 84.52C266.272 84.808 266.688 85.1547 267.04 85.56L265.92 86.712C265.504 86.2107 264.997 85.832 264.4 85.576C263.803 85.3093 263.179 85.176 262.528 85.176C261.931 85.176 261.376 85.2827 260.864 85.496C260.363 85.7093 259.925 86.008 259.552 86.392C259.179 86.7653 258.885 87.208 258.672 87.72C258.469 88.232 258.368 88.792 258.368 89.4C258.368 89.9973 258.469 90.552 258.672 91.064C258.885 91.576 259.184 92.024 259.568 92.408C259.952 92.792 260.4 93.0907 260.912 93.304C261.424 93.5173 261.979 93.624 262.576 93.624C263.227 93.624 263.84 93.496 264.416 93.24C265.003 92.9733 265.499 92.6 265.904 92.12L267.008 93.24C266.635 93.6347 266.208 93.9813 265.728 94.28C265.259 94.568 264.747 94.792 264.192 94.952C263.648 95.1013 263.093 95.176 262.528 95.176ZM268.78 95V86.856H270.38V87.896C270.636 87.512 270.95 87.2133 271.324 87C271.708 86.776 272.14 86.664 272.62 86.664C272.95 86.6747 273.222 86.7227 273.436 86.808V88.248C273.286 88.184 273.132 88.1413 272.972 88.12C272.812 88.088 272.652 88.072 272.492 88.072C272.022 88.072 271.606 88.2 271.244 88.456C270.881 88.7013 270.593 89.064 270.38 89.544V95H268.78ZM278.472 95.144C277.672 95.144 276.947 94.9573 276.296 94.584C275.656 94.2107 275.144 93.704 274.76 93.064C274.387 92.424 274.2 91.7093 274.2 90.92C274.2 90.1413 274.382 89.4373 274.744 88.808C275.107 88.168 275.598 87.6613 276.216 87.288C276.835 86.904 277.523 86.712 278.28 86.712C279.038 86.712 279.71 86.904 280.296 87.288C280.883 87.6613 281.347 88.1733 281.688 88.824C282.04 89.464 282.216 90.1893 282.216 91V91.448H275.8C275.886 91.896 276.051 92.296 276.296 92.648C276.552 93 276.872 93.2773 277.256 93.48C277.651 93.6827 278.078 93.784 278.536 93.784C278.931 93.784 279.31 93.7253 279.672 93.608C280.046 93.48 280.355 93.2987 280.6 93.064L281.624 94.072C281.144 94.4347 280.648 94.7067 280.136 94.888C279.635 95.0587 279.08 95.144 278.472 95.144ZM275.816 90.248H280.632C280.568 89.8213 280.419 89.448 280.184 89.128C279.96 88.7973 279.678 88.5413 279.336 88.36C279.006 88.168 278.643 88.072 278.248 88.072C277.843 88.072 277.47 88.1627 277.128 88.344C276.787 88.5253 276.499 88.7813 276.264 89.112C276.04 89.432 275.891 89.8107 275.816 90.248ZM287.835 95.128C287.078 95.128 286.385 94.9413 285.755 94.568C285.126 94.1947 284.63 93.6933 284.267 93.064C283.905 92.424 283.723 91.7093 283.723 90.92C283.723 90.1307 283.905 89.4213 284.267 88.792C284.641 88.1627 285.142 87.6613 285.771 87.288C286.401 86.9147 287.099 86.728 287.867 86.728C288.315 86.728 288.747 86.7973 289.163 86.936C289.579 87.0747 289.963 87.2773 290.315 87.544V83.8L291.915 83.496V95H290.331V94.216C289.638 94.824 288.806 95.128 287.835 95.128ZM288.043 93.736C288.513 93.736 288.939 93.6507 289.323 93.48C289.718 93.3093 290.049 93.064 290.315 92.744V89.08C290.049 88.7813 289.718 88.5467 289.323 88.376C288.939 88.1947 288.513 88.104 288.043 88.104C287.531 88.104 287.067 88.2267 286.651 88.472C286.235 88.7173 285.905 89.0533 285.659 89.48C285.414 89.896 285.291 90.3707 285.291 90.904C285.291 91.4373 285.414 91.9173 285.659 92.344C285.905 92.7707 286.235 93.112 286.651 93.368C287.067 93.6133 287.531 93.736 288.043 93.736ZM294.13 95V86.856H295.73V95H294.13ZM294.93 85.544C294.664 85.544 294.434 85.448 294.242 85.256C294.05 85.0533 293.954 84.8187 293.954 84.552C293.954 84.2747 294.05 84.0453 294.242 83.864C294.434 83.672 294.664 83.576 294.93 83.576C295.208 83.576 295.442 83.672 295.634 83.864C295.826 84.0453 295.922 84.2747 295.922 84.552C295.922 84.8187 295.826 85.0533 295.634 85.256C295.442 85.448 295.208 85.544 294.93 85.544ZM301.423 95.144C300.633 95.144 300.031 94.9627 299.615 94.6C299.199 94.2267 298.991 93.688 298.991 92.984V88.2H297.263V86.856H298.991V84.776L300.575 84.392V86.856H302.975V88.2H300.575V92.616C300.575 93.032 300.665 93.3307 300.847 93.512C301.039 93.6827 301.348 93.768 301.775 93.768C301.999 93.768 302.196 93.752 302.367 93.72C302.548 93.688 302.74 93.64 302.943 93.576V94.92C302.729 94.9947 302.479 95.048 302.191 95.08C301.913 95.1227 301.657 95.144 301.423 95.144ZM308.252 95.144C307.452 95.144 306.727 94.9573 306.076 94.584C305.436 94.2107 304.924 93.704 304.54 93.064C304.167 92.424 303.98 91.7093 303.98 90.92C303.98 90.1413 304.162 89.4373 304.524 88.808C304.887 88.168 305.378 87.6613 305.996 87.288C306.615 86.904 307.303 86.712 308.06 86.712C308.818 86.712 309.49 86.904 310.076 87.288C310.663 87.6613 311.127 88.1733 311.468 88.824C311.82 89.464 311.996 90.1893 311.996 91V91.448H305.58C305.666 91.896 305.831 92.296 306.076 92.648C306.332 93 306.652 93.2773 307.036 93.48C307.431 93.6827 307.858 93.784 308.316 93.784C308.711 93.784 309.09 93.7253 309.452 93.608C309.826 93.48 310.135 93.2987 310.38 93.064L311.404 94.072C310.924 94.4347 310.428 94.7067 309.916 94.888C309.415 95.0587 308.86 95.144 308.252 95.144ZM305.596 90.248H310.412C310.348 89.8213 310.199 89.448 309.964 89.128C309.74 88.7973 309.458 88.5413 309.116 88.36C308.786 88.168 308.423 88.072 308.028 88.072C307.623 88.072 307.25 88.1627 306.908 88.344C306.567 88.5253 306.279 88.7813 306.044 89.112C305.82 89.432 305.671 89.8107 305.596 90.248ZM317.616 95.128C316.858 95.128 316.165 94.9413 315.536 94.568C314.906 94.1947 314.41 93.6933 314.048 93.064C313.685 92.424 313.504 91.7093 313.504 90.92C313.504 90.1307 313.685 89.4213 314.048 88.792C314.421 88.1627 314.922 87.6613 315.552 87.288C316.181 86.9147 316.88 86.728 317.648 86.728C318.096 86.728 318.528 86.7973 318.944 86.936C319.36 87.0747 319.744 87.2773 320.096 87.544V83.8L321.696 83.496V95H320.112V94.216C319.418 94.824 318.586 95.128 317.616 95.128ZM317.824 93.736C318.293 93.736 318.72 93.6507 319.104 93.48C319.498 93.3093 319.829 93.064 320.096 92.744V89.08C319.829 88.7813 319.498 88.5467 319.104 88.376C318.72 88.1947 318.293 88.104 317.824 88.104C317.312 88.104 316.848 88.2267 316.432 88.472C316.016 88.7173 315.685 89.0533 315.44 89.48C315.194 89.896 315.072 90.3707 315.072 90.904C315.072 91.4373 315.194 91.9173 315.44 92.344C315.685 92.7707 316.016 93.112 316.432 93.368C316.848 93.6133 317.312 93.736 317.824 93.736ZM327.574 95V86.856H329.174V95H327.574ZM328.374 85.544C328.107 85.544 327.878 85.448 327.686 85.256C327.494 85.0533 327.398 84.8187 327.398 84.552C327.398 84.2747 327.494 84.0453 327.686 83.864C327.878 83.672 328.107 83.576 328.374 83.576C328.651 83.576 328.886 83.672 329.078 83.864C329.27 84.0453 329.366 84.2747 329.366 84.552C329.366 84.8187 329.27 85.0533 329.078 85.256C328.886 85.448 328.651 85.544 328.374 85.544ZM331.378 95V86.856H332.978V87.688C333.608 87.0267 334.424 86.696 335.426 86.696C336.056 86.696 336.605 86.8293 337.074 87.096C337.554 87.3627 337.928 87.736 338.194 88.216C338.472 88.696 338.61 89.2507 338.61 89.88V95H337.01V90.152C337.01 89.512 336.829 89.0107 336.466 88.648C336.114 88.2747 335.618 88.088 334.978 88.088C334.552 88.088 334.168 88.1787 333.826 88.36C333.485 88.5413 333.202 88.8027 332.978 89.144V95H331.378ZM347.928 95.144C347.139 95.144 346.536 94.9627 346.12 94.6C345.704 94.2267 345.496 93.688 345.496 92.984V88.2H343.768V86.856H345.496V84.776L347.08 84.392V86.856H349.48V88.2H347.08V92.616C347.08 93.032 347.171 93.3307 347.352 93.512C347.544 93.6827 347.854 93.768 348.28 93.768C348.504 93.768 348.702 93.752 348.872 93.72C349.054 93.688 349.246 93.64 349.448 93.576V94.92C349.235 94.9947 348.984 95.048 348.696 95.08C348.419 95.1227 348.163 95.144 347.928 95.144ZM350.979 95V83.8L352.579 83.448V87.688C353.208 87.0267 354.024 86.696 355.027 86.696C355.656 86.696 356.206 86.8293 356.675 87.096C357.155 87.3627 357.528 87.736 357.795 88.216C358.072 88.696 358.211 89.2507 358.211 89.88V95H356.611V90.152C356.611 89.512 356.43 89.0107 356.067 88.648C355.704 88.2747 355.208 88.088 354.579 88.088C354.152 88.088 353.768 88.1787 353.427 88.36C353.086 88.5413 352.803 88.8027 352.579 89.144V95H350.979ZM360.377 95V86.856H361.977V95H360.377ZM361.177 85.544C360.91 85.544 360.681 85.448 360.489 85.256C360.297 85.0533 360.201 84.8187 360.201 84.552C360.201 84.2747 360.297 84.0453 360.489 83.864C360.681 83.672 360.91 83.576 361.177 83.576C361.454 83.576 361.689 83.672 361.881 83.864C362.073 84.0453 362.169 84.2747 362.169 84.552C362.169 84.8187 362.073 85.0533 361.881 85.256C361.689 85.448 361.454 85.544 361.177 85.544ZM366.982 95.16C366.278 95.16 365.616 95.0587 364.998 94.856C364.39 94.6427 363.862 94.344 363.414 93.96L364.294 92.904C364.71 93.2347 365.136 93.4907 365.574 93.672C366.022 93.8427 366.475 93.928 366.934 93.928C367.51 93.928 367.979 93.816 368.342 93.592C368.704 93.368 368.886 93.0747 368.886 92.712C368.886 92.4133 368.779 92.1787 368.566 92.008C368.352 91.8373 368.022 91.72 367.574 91.656L366.102 91.448C365.291 91.3307 364.683 91.08 364.278 90.696C363.872 90.312 363.67 89.8 363.67 89.16C363.67 88.6693 363.803 88.2427 364.07 87.88C364.336 87.5067 364.71 87.2187 365.19 87.016C365.67 86.8027 366.23 86.696 366.87 86.696C367.456 86.696 368.022 86.7813 368.566 86.952C369.11 87.1227 369.632 87.3893 370.134 87.752L369.318 88.808C368.87 88.5093 368.432 88.2907 368.006 88.152C367.59 88.0133 367.168 87.944 366.742 87.944C366.251 87.944 365.856 88.0507 365.558 88.264C365.259 88.4667 365.11 88.7333 365.11 89.064C365.11 89.3627 365.211 89.5973 365.414 89.768C365.627 89.928 365.974 90.04 366.454 90.104L367.926 90.312C368.736 90.4293 369.35 90.68 369.766 91.064C370.182 91.4373 370.39 91.944 370.39 92.584C370.39 93.0747 370.24 93.5173 369.942 93.912C369.643 94.296 369.238 94.6 368.726 94.824C368.214 95.048 367.632 95.16 366.982 95.16ZM377.603 95L375.155 83.8H376.883L378.627 92.36L381.155 83.8H382.755L385.283 92.344L387.043 83.8H388.691L386.243 95H384.515L381.939 86.2L379.347 95H377.603ZM393.639 95.144C392.839 95.144 392.114 94.9573 391.463 94.584C390.823 94.2107 390.311 93.704 389.927 93.064C389.554 92.424 389.367 91.7093 389.367 90.92C389.367 90.1413 389.549 89.4373 389.911 88.808C390.274 88.168 390.765 87.6613 391.383 87.288C392.002 86.904 392.69 86.712 393.447 86.712C394.205 86.712 394.877 86.904 395.463 87.288C396.05 87.6613 396.514 88.1733 396.855 88.824C397.207 89.464 397.383 90.1893 397.383 91V91.448H390.967C391.053 91.896 391.218 92.296 391.463 92.648C391.719 93 392.039 93.2773 392.423 93.48C392.818 93.6827 393.245 93.784 393.703 93.784C394.098 93.784 394.477 93.7253 394.839 93.608C395.213 93.48 395.522 93.2987 395.767 93.064L396.791 94.072C396.311 94.4347 395.815 94.7067 395.303 94.888C394.802 95.0587 394.247 95.144 393.639 95.144ZM390.983 90.248H395.799C395.735 89.8213 395.586 89.448 395.351 89.128C395.127 88.7973 394.845 88.5413 394.503 88.36C394.173 88.168 393.81 88.072 393.415 88.072C393.01 88.072 392.637 88.1627 392.295 88.344C391.954 88.5253 391.666 88.7813 391.431 89.112C391.207 89.432 391.058 89.8107 390.983 90.248ZM403.162 95.144C402.362 95.144 401.637 94.9573 400.986 94.584C400.346 94.2107 399.834 93.704 399.45 93.064C399.077 92.424 398.89 91.7093 398.89 90.92C398.89 90.1413 399.072 89.4373 399.434 88.808C399.797 88.168 400.288 87.6613 400.906 87.288C401.525 86.904 402.213 86.712 402.97 86.712C403.728 86.712 404.4 86.904 404.986 87.288C405.573 87.6613 406.037 88.1733 406.378 88.824C406.73 89.464 406.906 90.1893 406.906 91V91.448H400.49C400.576 91.896 400.741 92.296 400.986 92.648C401.242 93 401.562 93.2773 401.946 93.48C402.341 93.6827 402.768 93.784 403.226 93.784C403.621 93.784 404 93.7253 404.362 93.608C404.736 93.48 405.045 93.2987 405.29 93.064L406.314 94.072C405.834 94.4347 405.338 94.7067 404.826 94.888C404.325 95.0587 403.77 95.144 403.162 95.144ZM400.506 90.248H405.322C405.258 89.8213 405.109 89.448 404.874 89.128C404.65 88.7973 404.368 88.5413 404.026 88.36C403.696 88.168 403.333 88.072 402.938 88.072C402.533 88.072 402.16 88.1627 401.818 88.344C401.477 88.5253 401.189 88.7813 400.954 89.112C400.73 89.432 400.581 89.8107 400.506 90.248ZM408.75 95V83.8L410.35 83.496V90.424L414.302 86.856H416.174L411.966 90.664L416.398 95H414.286L410.35 91.176V95H408.75Z" fill="#8D8F93"/>
<path d="M55.136 356V344.8H57.392L60.896 351.968L64.4 344.8H66.64V356H65.056V346.848L60.88 355.2L56.704 346.848V356H55.136ZM72.9173 356.16C72.1279 356.16 71.4079 355.973 70.7572 355.6C70.1172 355.227 69.6106 354.72 69.2372 354.08C68.8639 353.44 68.6772 352.725 68.6772 351.936C68.6772 351.147 68.8639 350.432 69.2372 349.792C69.6106 349.152 70.1172 348.645 70.7572 348.272C71.4079 347.888 72.1279 347.696 72.9173 347.696C73.7173 347.696 74.4372 347.888 75.0773 348.272C75.7173 348.645 76.2239 349.152 76.5972 349.792C76.9706 350.432 77.1573 351.147 77.1573 351.936C77.1573 352.725 76.9706 353.44 76.5972 354.08C76.2239 354.72 75.7173 355.227 75.0773 355.6C74.4372 355.973 73.7173 356.16 72.9173 356.16ZM72.9173 354.752C73.4186 354.752 73.8719 354.629 74.2772 354.384C74.6826 354.128 75.0026 353.787 75.2372 353.36C75.4719 352.933 75.5893 352.453 75.5893 351.92C75.5893 351.397 75.4666 350.928 75.2213 350.512C74.9866 350.085 74.6666 349.744 74.2613 349.488C73.8666 349.232 73.4186 349.104 72.9173 349.104C72.4159 349.104 71.9626 349.232 71.5572 349.488C71.1626 349.744 70.8426 350.085 70.5972 350.512C70.3626 350.928 70.2452 351.397 70.2452 351.92C70.2452 352.453 70.3626 352.933 70.5972 353.36C70.8319 353.787 71.1519 354.128 71.5572 354.384C71.9626 354.629 72.4159 354.752 72.9173 354.752ZM78.9902 356V347.856H80.5902V348.688C81.2196 348.027 82.0356 347.696 83.0382 347.696C83.6676 347.696 84.2169 347.829 84.6862 348.096C85.1662 348.363 85.5396 348.736 85.8062 349.216C86.0836 349.696 86.2222 350.251 86.2222 350.88V356H84.6222V351.152C84.6222 350.512 84.4409 350.011 84.0782 349.648C83.7262 349.275 83.2302 349.088 82.5902 349.088C82.1636 349.088 81.7796 349.179 81.4382 349.36C81.0969 349.541 80.8142 349.803 80.5902 350.144V356H78.9902ZM92.1324 356.128C91.375 356.128 90.6817 355.941 90.0524 355.568C89.423 355.195 88.927 354.693 88.5644 354.064C88.2017 353.424 88.0204 352.709 88.0204 351.92C88.0204 351.131 88.2017 350.421 88.5644 349.792C88.9377 349.163 89.439 348.661 90.0684 348.288C90.6977 347.915 91.3964 347.728 92.1644 347.728C92.6124 347.728 93.0444 347.797 93.4604 347.936C93.8764 348.075 94.2604 348.277 94.6124 348.544V344.8L96.2124 344.496V356H94.6284V355.216C93.935 355.824 93.103 356.128 92.1324 356.128ZM92.3404 354.736C92.8097 354.736 93.2364 354.651 93.6204 354.48C94.015 354.309 94.3457 354.064 94.6124 353.744V350.08C94.3457 349.781 94.015 349.547 93.6204 349.376C93.2364 349.195 92.8097 349.104 92.3404 349.104C91.8284 349.104 91.3644 349.227 90.9484 349.472C90.5324 349.717 90.2017 350.053 89.9564 350.48C89.711 350.896 89.5884 351.371 89.5884 351.904C89.5884 352.437 89.711 352.917 89.9564 353.344C90.2017 353.771 90.5324 354.112 90.9484 354.368C91.3644 354.613 91.8284 354.736 92.3404 354.736ZM101.003 356.144C100.416 356.144 99.8991 356.043 99.4511 355.84C99.0031 355.627 98.6511 355.333 98.3951 354.96C98.1391 354.587 98.0111 354.155 98.0111 353.664C98.0111 352.896 98.3045 352.293 98.8911 351.856C99.4778 351.408 100.283 351.184 101.307 351.184C102.107 351.184 102.848 351.339 103.531 351.648V350.784C103.531 350.197 103.36 349.76 103.019 349.472C102.688 349.184 102.198 349.04 101.547 349.04C101.174 349.04 100.784 349.099 100.379 349.216C99.9738 349.323 99.5205 349.493 99.0191 349.728L98.4271 348.528C99.0458 348.24 99.6218 348.032 100.155 347.904C100.688 347.765 101.227 347.696 101.771 347.696C102.827 347.696 103.643 347.947 104.219 348.448C104.806 348.949 105.099 349.664 105.099 350.592V356H103.531V355.296C103.168 355.584 102.779 355.797 102.363 355.936C101.947 356.075 101.494 356.144 101.003 356.144ZM99.5471 353.632C99.5471 354.027 99.7125 354.347 100.043 354.592C100.384 354.837 100.827 354.96 101.371 354.96C101.798 354.96 102.187 354.896 102.539 354.768C102.902 354.64 103.232 354.443 103.531 354.176V352.8C103.222 352.619 102.896 352.491 102.555 352.416C102.224 352.331 101.851 352.288 101.435 352.288C100.848 352.288 100.384 352.411 100.043 352.656C99.7125 352.891 99.5471 353.216 99.5471 353.632ZM107.65 359.44C107.48 359.44 107.32 359.429 107.17 359.408C107.021 359.397 106.898 359.376 106.802 359.344V357.936C106.994 357.979 107.229 358 107.506 358C108.253 358 108.792 357.6 109.122 356.8L109.474 356.016L106.21 347.856H107.986L110.354 354.064L112.978 347.856H114.706L110.77 357.008C110.514 357.584 110.242 358.048 109.954 358.4C109.666 358.763 109.336 359.024 108.962 359.184C108.589 359.355 108.152 359.44 107.65 359.44Z" fill="#8D8F93"/>
<path d="M231.208 356V346.288H227.272V344.8H236.824V346.288H232.888V356H231.208ZM240.807 356.16C240.177 356.16 239.623 356.027 239.143 355.76C238.663 355.493 238.289 355.12 238.023 354.64C237.756 354.149 237.623 353.589 237.623 352.96V347.856H239.207V352.688C239.207 353.328 239.388 353.835 239.751 354.208C240.124 354.581 240.62 354.768 241.239 354.768C241.676 354.768 242.065 354.677 242.407 354.496C242.748 354.304 243.025 354.037 243.239 353.696V347.856H244.839V356H243.239V355.168C242.609 355.829 241.799 356.16 240.807 356.16ZM250.957 356.144C250.157 356.144 249.431 355.957 248.781 355.584C248.141 355.211 247.629 354.704 247.245 354.064C246.871 353.424 246.685 352.709 246.685 351.92C246.685 351.141 246.866 350.437 247.229 349.808C247.591 349.168 248.082 348.661 248.701 348.288C249.319 347.904 250.007 347.712 250.765 347.712C251.522 347.712 252.194 347.904 252.781 348.288C253.367 348.661 253.831 349.173 254.173 349.824C254.525 350.464 254.701 351.189 254.701 352V352.448H248.285C248.37 352.896 248.535 353.296 248.781 353.648C249.037 354 249.357 354.277 249.741 354.48C250.135 354.683 250.562 354.784 251.021 354.784C251.415 354.784 251.794 354.725 252.157 354.608C252.53 354.48 252.839 354.299 253.085 354.064L254.109 355.072C253.629 355.435 253.133 355.707 252.621 355.888C252.119 356.059 251.565 356.144 250.957 356.144ZM248.301 351.248H253.117C253.053 350.821 252.903 350.448 252.669 350.128C252.445 349.797 252.162 349.541 251.821 349.36C251.49 349.168 251.127 349.072 250.733 349.072C250.327 349.072 249.954 349.163 249.613 349.344C249.271 349.525 248.983 349.781 248.749 350.112C248.525 350.432 248.375 350.811 248.301 351.248ZM259.423 356.16C258.719 356.16 258.057 356.059 257.439 355.856C256.831 355.643 256.303 355.344 255.855 354.96L256.735 353.904C257.151 354.235 257.577 354.491 258.015 354.672C258.463 354.843 258.916 354.928 259.375 354.928C259.951 354.928 260.42 354.816 260.783 354.592C261.145 354.368 261.327 354.075 261.327 353.712C261.327 353.413 261.22 353.179 261.007 353.008C260.793 352.837 260.463 352.72 260.015 352.656L258.543 352.448C257.732 352.331 257.124 352.08 256.719 351.696C256.313 351.312 256.111 350.8 256.111 350.16C256.111 349.669 256.244 349.243 256.511 348.88C256.777 348.507 257.151 348.219 257.631 348.016C258.111 347.803 258.671 347.696 259.311 347.696C259.897 347.696 260.463 347.781 261.007 347.952C261.551 348.123 262.073 348.389 262.575 348.752L261.759 349.808C261.311 349.509 260.873 349.291 260.447 349.152C260.031 349.013 259.609 348.944 259.183 348.944C258.692 348.944 258.297 349.051 257.999 349.264C257.7 349.467 257.551 349.733 257.551 350.064C257.551 350.363 257.652 350.597 257.855 350.768C258.068 350.928 258.415 351.04 258.895 351.104L260.367 351.312C261.177 351.429 261.791 351.68 262.207 352.064C262.623 352.437 262.831 352.944 262.831 353.584C262.831 354.075 262.681 354.517 262.383 354.912C262.084 355.296 261.679 355.6 261.167 355.824C260.655 356.048 260.073 356.16 259.423 356.16ZM268.202 356.128C267.445 356.128 266.752 355.941 266.122 355.568C265.493 355.195 264.997 354.693 264.634 354.064C264.272 353.424 264.09 352.709 264.09 351.92C264.09 351.131 264.272 350.421 264.634 349.792C265.008 349.163 265.509 348.661 266.138 348.288C266.768 347.915 267.466 347.728 268.234 347.728C268.682 347.728 269.114 347.797 269.53 347.936C269.946 348.075 270.33 348.277 270.682 348.544V344.8L272.282 344.496V356H270.698V355.216C270.005 355.824 269.173 356.128 268.202 356.128ZM268.41 354.736C268.88 354.736 269.306 354.651 269.69 354.48C270.085 354.309 270.416 354.064 270.682 353.744V350.08C270.416 349.781 270.085 349.547 269.69 349.376C269.306 349.195 268.88 349.104 268.41 349.104C267.898 349.104 267.434 349.227 267.018 349.472C266.602 349.717 266.272 350.053 266.026 350.48C265.781 350.896 265.658 351.371 265.658 351.904C265.658 352.437 265.781 352.917 266.026 353.344C266.272 353.771 266.602 354.112 267.018 354.368C267.434 354.613 267.898 354.736 268.41 354.736ZM277.073 356.144C276.486 356.144 275.969 356.043 275.521 355.84C275.073 355.627 274.721 355.333 274.465 354.96C274.209 354.587 274.081 354.155 274.081 353.664C274.081 352.896 274.374 352.293 274.961 351.856C275.548 351.408 276.353 351.184 277.377 351.184C278.177 351.184 278.918 351.339 279.601 351.648V350.784C279.601 350.197 279.43 349.76 279.089 349.472C278.758 349.184 278.268 349.04 277.617 349.04C277.244 349.04 276.854 349.099 276.449 349.216C276.044 349.323 275.59 349.493 275.089 349.728L274.497 348.528C275.116 348.24 275.692 348.032 276.225 347.904C276.758 347.765 277.297 347.696 277.841 347.696C278.897 347.696 279.713 347.947 280.289 348.448C280.876 348.949 281.169 349.664 281.169 350.592V356H279.601V355.296C279.238 355.584 278.849 355.797 278.433 355.936C278.017 356.075 277.564 356.144 277.073 356.144ZM275.617 353.632C275.617 354.027 275.782 354.347 276.113 354.592C276.454 354.837 276.897 354.96 277.441 354.96C277.868 354.96 278.257 354.896 278.609 354.768C278.972 354.64 279.302 354.443 279.601 354.176V352.8C279.292 352.619 278.966 352.491 278.625 352.416C278.294 352.331 277.921 352.288 277.505 352.288C276.918 352.288 276.454 352.411 276.113 352.656C275.782 352.891 275.617 353.216 275.617 353.632ZM283.72 359.44C283.55 359.44 283.39 359.429 283.24 359.408C283.091 359.397 282.968 359.376 282.872 359.344V357.936C283.064 357.979 283.299 358 283.576 358C284.323 358 284.862 357.6 285.192 356.8L285.544 356.016L282.28 347.856H284.056L286.424 354.064L289.048 347.856H290.776L286.84 357.008C286.584 357.584 286.312 358.048 286.024 358.4C285.736 358.763 285.406 359.024 285.032 359.184C284.659 359.355 284.222 359.44 283.72 359.44Z" fill="#8D8F93"/>
<path d="M397.944 356L395.496 344.8H397.224L398.968 353.36L401.496 344.8H403.096L405.624 353.344L407.384 344.8H409.032L406.584 356H404.856L402.28 347.2L399.688 356H397.944ZM413.98 356.144C413.18 356.144 412.455 355.957 411.804 355.584C411.164 355.211 410.652 354.704 410.268 354.064C409.895 353.424 409.708 352.709 409.708 351.92C409.708 351.141 409.89 350.437 410.252 349.808C410.615 349.168 411.106 348.661 411.724 348.288C412.343 347.904 413.031 347.712 413.788 347.712C414.546 347.712 415.218 347.904 415.805 348.288C416.391 348.661 416.855 349.173 417.196 349.824C417.548 350.464 417.724 351.189 417.724 352V352.448H411.308C411.394 352.896 411.559 353.296 411.804 353.648C412.06 354 412.38 354.277 412.764 354.48C413.159 354.683 413.586 354.784 414.044 354.784C414.439 354.784 414.818 354.725 415.181 354.608C415.554 354.48 415.863 354.299 416.109 354.064L417.132 355.072C416.652 355.435 416.156 355.707 415.644 355.888C415.143 356.059 414.588 356.144 413.98 356.144ZM411.324 351.248H416.141C416.076 350.821 415.927 350.448 415.693 350.128C415.469 349.797 415.186 349.541 414.845 349.36C414.514 349.168 414.151 349.072 413.756 349.072C413.351 349.072 412.978 349.163 412.636 349.344C412.295 349.525 412.007 349.781 411.772 350.112C411.548 350.432 411.399 350.811 411.324 351.248ZM423.344 356.128C422.586 356.128 421.893 355.941 421.264 355.568C420.634 355.195 420.138 354.693 419.776 354.064C419.413 353.424 419.232 352.709 419.232 351.92C419.232 351.131 419.413 350.421 419.776 349.792C420.149 349.163 420.65 348.661 421.28 348.288C421.909 347.915 422.608 347.728 423.376 347.728C423.824 347.728 424.256 347.797 424.672 347.936C425.088 348.075 425.472 348.277 425.824 348.544V344.8L427.424 344.496V356H425.84V355.216C425.146 355.824 424.314 356.128 423.344 356.128ZM423.552 354.736C424.021 354.736 424.448 354.651 424.832 354.48C425.226 354.309 425.557 354.064 425.824 353.744V350.08C425.557 349.781 425.226 349.547 424.832 349.376C424.448 349.195 424.021 349.104 423.552 349.104C423.04 349.104 422.576 349.227 422.16 349.472C421.744 349.717 421.413 350.053 421.168 350.48C420.922 350.896 420.8 351.371 420.8 351.904C420.8 352.437 420.922 352.917 421.168 353.344C421.413 353.771 421.744 354.112 422.16 354.368C422.576 354.613 423.04 354.736 423.552 354.736ZM429.638 356V347.856H431.238V348.688C431.868 348.027 432.684 347.696 433.686 347.696C434.316 347.696 434.865 347.829 435.334 348.096C435.814 348.363 436.188 348.736 436.454 349.216C436.732 349.696 436.87 350.251 436.87 350.88V356H435.27V351.152C435.27 350.512 435.089 350.011 434.726 349.648C434.374 349.275 433.878 349.088 433.238 349.088C432.812 349.088 432.428 349.179 432.086 349.36C431.745 349.541 431.462 349.803 431.238 350.144V356H429.638ZM442.94 356.144C442.14 356.144 441.415 355.957 440.764 355.584C440.124 355.211 439.612 354.704 439.228 354.064C438.855 353.424 438.668 352.709 438.668 351.92C438.668 351.141 438.85 350.437 439.212 349.808C439.575 349.168 440.066 348.661 440.684 348.288C441.303 347.904 441.991 347.712 442.748 347.712C443.506 347.712 444.178 347.904 444.764 348.288C445.351 348.661 445.815 349.173 446.156 349.824C446.508 350.464 446.684 351.189 446.684 352V352.448H440.268C440.354 352.896 440.519 353.296 440.764 353.648C441.02 354 441.34 354.277 441.724 354.48C442.119 354.683 442.546 354.784 443.004 354.784C443.399 354.784 443.778 354.725 444.14 354.608C444.514 354.48 444.823 354.299 445.068 354.064L446.092 355.072C445.612 355.435 445.116 355.707 444.604 355.888C444.103 356.059 443.548 356.144 442.94 356.144ZM440.284 351.248H445.1C445.036 350.821 444.887 350.448 444.652 350.128C444.428 349.797 444.146 349.541 443.804 349.36C443.474 349.168 443.111 349.072 442.716 349.072C442.311 349.072 441.938 349.163 441.596 349.344C441.255 349.525 440.967 349.781 440.732 350.112C440.508 350.432 440.359 350.811 440.284 351.248ZM451.406 356.16C450.702 356.16 450.041 356.059 449.422 355.856C448.814 355.643 448.286 355.344 447.838 354.96L448.718 353.904C449.134 354.235 449.561 354.491 449.998 354.672C450.446 354.843 450.9 354.928 451.358 354.928C451.934 354.928 452.404 354.816 452.766 354.592C453.129 354.368 453.31 354.075 453.31 353.712C453.31 353.413 453.204 353.179 452.99 353.008C452.777 352.837 452.446 352.72 451.998 352.656L450.526 352.448C449.716 352.331 449.108 352.08 448.702 351.696C448.297 351.312 448.094 350.8 448.094 350.16C448.094 349.669 448.228 349.243 448.494 348.88C448.761 348.507 449.134 348.219 449.614 348.016C450.094 347.803 450.654 347.696 451.294 347.696C451.881 347.696 452.446 347.781 452.99 347.952C453.534 348.123 454.057 348.389 454.558 348.752L453.742 349.808C453.294 349.509 452.857 349.291 452.43 349.152C452.014 349.013 451.593 348.944 451.166 348.944C450.676 348.944 450.281 349.051 449.982 349.264C449.684 349.467 449.534 349.733 449.534 350.064C449.534 350.363 449.636 350.597 449.838 350.768C450.052 350.928 450.398 351.04 450.878 351.104L452.35 351.312C453.161 351.429 453.774 351.68 454.19 352.064C454.606 352.437 454.814 352.944 454.814 353.584C454.814 354.075 454.665 354.517 454.366 354.912C454.068 355.296 453.662 355.6 453.15 355.824C452.638 356.048 452.057 356.16 451.406 356.16ZM460.186 356.128C459.429 356.128 458.735 355.941 458.106 355.568C457.477 355.195 456.981 354.693 456.618 354.064C456.255 353.424 456.074 352.709 456.074 351.92C456.074 351.131 456.255 350.421 456.618 349.792C456.991 349.163 457.493 348.661 458.122 348.288C458.751 347.915 459.45 347.728 460.218 347.728C460.666 347.728 461.098 347.797 461.514 347.936C461.93 348.075 462.314 348.277 462.666 348.544V344.8L464.266 344.496V356H462.682V355.216C461.989 355.824 461.157 356.128 460.186 356.128ZM460.394 354.736C460.863 354.736 461.29 354.651 461.674 354.48C462.069 354.309 462.399 354.064 462.666 353.744V350.08C462.399 349.781 462.069 349.547 461.674 349.376C461.29 349.195 460.863 349.104 460.394 349.104C459.882 349.104 459.418 349.227 459.002 349.472C458.586 349.717 458.255 350.053 458.01 350.48C457.765 350.896 457.642 351.371 457.642 351.904C457.642 352.437 457.765 352.917 458.01 353.344C458.255 353.771 458.586 354.112 459.002 354.368C459.418 354.613 459.882 354.736 460.394 354.736ZM469.057 356.144C468.47 356.144 467.953 356.043 467.505 355.84C467.057 355.627 466.705 355.333 466.449 354.96C466.193 354.587 466.065 354.155 466.065 353.664C466.065 352.896 466.358 352.293 466.945 351.856C467.532 351.408 468.337 351.184 469.361 351.184C470.161 351.184 470.902 351.339 471.585 351.648V350.784C471.585 350.197 471.414 349.76 471.073 349.472C470.742 349.184 470.252 349.04 469.601 349.04C469.228 349.04 468.838 349.099 468.433 349.216C468.028 349.323 467.574 349.493 467.073 349.728L466.481 348.528C467.1 348.24 467.676 348.032 468.209 347.904C468.742 347.765 469.281 347.696 469.825 347.696C470.881 347.696 471.697 347.947 472.273 348.448C472.86 348.949 473.153 349.664 473.153 350.592V356H471.585V355.296C471.222 355.584 470.833 355.797 470.417 355.936C470.001 356.075 469.548 356.144 469.057 356.144ZM467.601 353.632C467.601 354.027 467.766 354.347 468.097 354.592C468.438 354.837 468.881 354.96 469.425 354.96C469.852 354.96 470.241 354.896 470.593 354.768C470.956 354.64 471.286 354.443 471.585 354.176V352.8C471.276 352.619 470.95 352.491 470.609 352.416C470.278 352.331 469.905 352.288 469.489 352.288C468.902 352.288 468.438 352.411 468.097 352.656C467.766 352.891 467.601 353.216 467.601 353.632ZM475.704 359.44C475.534 359.44 475.374 359.429 475.224 359.408C475.075 359.397 474.952 359.376 474.856 359.344V357.936C475.048 357.979 475.283 358 475.56 358C476.307 358 476.846 357.6 477.176 356.8L477.528 356.016L474.264 347.856H476.04L478.408 354.064L481.032 347.856H482.76L478.824 357.008C478.568 357.584 478.296 358.048 478.008 358.4C477.72 358.763 477.39 359.024 477.016 359.184C476.643 359.355 476.206 359.44 475.704 359.44Z" fill="#8D8F93"/>
<path d="M585.208 356V346.288H581.272V344.8H590.824V346.288H586.888V356H585.208ZM592.358 356V344.8L593.958 344.448V348.688C594.587 348.027 595.403 347.696 596.406 347.696C597.035 347.696 597.584 347.829 598.054 348.096C598.534 348.363 598.907 348.736 599.174 349.216C599.451 349.696 599.59 350.251 599.59 350.88V356H597.99V351.152C597.99 350.512 597.808 350.011 597.446 349.648C597.083 349.275 596.587 349.088 595.958 349.088C595.531 349.088 595.147 349.179 594.806 349.36C594.464 349.541 594.182 349.803 593.958 350.144V356H592.358ZM604.83 356.16C604.2 356.16 603.646 356.027 603.166 355.76C602.686 355.493 602.312 355.12 602.046 354.64C601.779 354.149 601.646 353.589 601.646 352.96V347.856H603.23V352.688C603.23 353.328 603.411 353.835 603.774 354.208C604.147 354.581 604.643 354.768 605.262 354.768C605.699 354.768 606.088 354.677 606.43 354.496C606.771 354.304 607.048 354.037 607.262 353.696V347.856H608.862V356H607.262V355.168C606.632 355.829 605.822 356.16 604.83 356.16ZM611.076 356V347.856H612.676V348.896C612.932 348.512 613.247 348.213 613.62 348C614.004 347.776 614.436 347.664 614.916 347.664C615.247 347.675 615.519 347.723 615.732 347.808V349.248C615.583 349.184 615.428 349.141 615.268 349.12C615.108 349.088 614.948 349.072 614.788 349.072C614.319 349.072 613.903 349.2 613.54 349.456C613.177 349.701 612.889 350.064 612.676 350.544V356H611.076ZM620.133 356.16C619.429 356.16 618.768 356.059 618.149 355.856C617.541 355.643 617.013 355.344 616.565 354.96L617.445 353.904C617.861 354.235 618.288 354.491 618.725 354.672C619.173 354.843 619.627 354.928 620.085 354.928C620.661 354.928 621.131 354.816 621.493 354.592C621.856 354.368 622.037 354.075 622.037 353.712C622.037 353.413 621.931 353.179 621.717 353.008C621.504 352.837 621.173 352.72 620.725 352.656L619.253 352.448C618.443 352.331 617.835 352.08 617.429 351.696C617.024 351.312 616.821 350.8 616.821 350.16C616.821 349.669 616.955 349.243 617.221 348.88C617.488 348.507 617.861 348.219 618.341 348.016C618.821 347.803 619.381 347.696 620.021 347.696C620.608 347.696 621.173 347.781 621.717 347.952C622.261 348.123 622.784 348.389 623.285 348.752L622.469 349.808C622.021 349.509 621.584 349.291 621.157 349.152C620.741 349.013 620.32 348.944 619.893 348.944C619.403 348.944 619.008 349.051 618.709 349.264C618.411 349.467 618.261 349.733 618.261 350.064C618.261 350.363 618.363 350.597 618.565 350.768C618.779 350.928 619.125 351.04 619.605 351.104L621.077 351.312C621.888 351.429 622.501 351.68 622.917 352.064C623.333 352.437 623.541 352.944 623.541 353.584C623.541 354.075 623.392 354.517 623.093 354.912C622.795 355.296 622.389 355.6 621.877 355.824C621.365 356.048 620.784 356.16 620.133 356.16ZM628.913 356.128C628.156 356.128 627.462 355.941 626.833 355.568C626.204 355.195 625.708 354.693 625.345 354.064C624.982 353.424 624.801 352.709 624.801 351.92C624.801 351.131 624.982 350.421 625.345 349.792C625.718 349.163 626.22 348.661 626.849 348.288C627.478 347.915 628.177 347.728 628.945 347.728C629.393 347.728 629.825 347.797 630.241 347.936C630.657 348.075 631.041 348.277 631.393 348.544V344.8L632.993 344.496V356H631.409V355.216C630.716 355.824 629.884 356.128 628.913 356.128ZM629.121 354.736C629.59 354.736 630.017 354.651 630.401 354.48C630.796 354.309 631.126 354.064 631.393 353.744V350.08C631.126 349.781 630.796 349.547 630.401 349.376C630.017 349.195 629.59 349.104 629.121 349.104C628.609 349.104 628.145 349.227 627.729 349.472C627.313 349.717 626.982 350.053 626.737 350.48C626.492 350.896 626.369 351.371 626.369 351.904C626.369 352.437 626.492 352.917 626.737 353.344C626.982 353.771 627.313 354.112 627.729 354.368C628.145 354.613 628.609 354.736 629.121 354.736ZM637.784 356.144C637.197 356.144 636.68 356.043 636.232 355.84C635.784 355.627 635.432 355.333 635.176 354.96C634.92 354.587 634.792 354.155 634.792 353.664C634.792 352.896 635.085 352.293 635.672 351.856C636.258 351.408 637.064 351.184 638.088 351.184C638.888 351.184 639.629 351.339 640.312 351.648V350.784C640.312 350.197 640.141 349.76 639.8 349.472C639.469 349.184 638.978 349.04 638.328 349.04C637.954 349.04 637.565 349.099 637.16 349.216C636.754 349.323 636.301 349.493 635.8 349.728L635.208 348.528C635.826 348.24 636.402 348.032 636.936 347.904C637.469 347.765 638.008 347.696 638.552 347.696C639.608 347.696 640.424 347.947 641 348.448C641.586 348.949 641.88 349.664 641.88 350.592V356H640.312V355.296C639.949 355.584 639.56 355.797 639.144 355.936C638.728 356.075 638.274 356.144 637.784 356.144ZM636.328 353.632C636.328 354.027 636.493 354.347 636.824 354.592C637.165 354.837 637.608 354.96 638.152 354.96C638.578 354.96 638.968 354.896 639.32 354.768C639.682 354.64 640.013 354.443 640.312 354.176V352.8C640.002 352.619 639.677 352.491 639.336 352.416C639.005 352.331 638.632 352.288 638.216 352.288C637.629 352.288 637.165 352.411 636.824 352.656C636.493 352.891 636.328 353.216 636.328 353.632ZM644.431 359.44C644.26 359.44 644.1 359.429 643.951 359.408C643.802 359.397 643.679 359.376 643.583 359.344V357.936C643.775 357.979 644.01 358 644.287 358C645.034 358 645.572 357.6 645.903 356.8L646.255 356.016L642.991 347.856H644.767L647.135 354.064L649.759 347.856H651.487L647.551 357.008C647.295 357.584 647.023 358.048 646.735 358.4C646.447 358.763 646.116 359.024 645.743 359.184C645.37 359.355 644.932 359.44 644.431 359.44Z" fill="#8D8F93"/>
<path d="M773.136 356V344.8H781.424V346.272H774.816V349.712H779.168V351.136H774.816V356H773.136ZM782.295 356V347.856H783.895V348.896C784.151 348.512 784.466 348.213 784.839 348C785.223 347.776 785.655 347.664 786.135 347.664C786.466 347.675 786.738 347.723 786.951 347.808V349.248C786.802 349.184 786.647 349.141 786.487 349.12C786.327 349.088 786.167 349.072 786.007 349.072C785.538 349.072 785.122 349.2 784.759 349.456C784.397 349.701 784.109 350.064 783.895 350.544V356H782.295ZM788.553 356V347.856H790.153V356H788.553ZM789.353 346.544C789.086 346.544 788.857 346.448 788.665 346.256C788.473 346.053 788.377 345.819 788.377 345.552C788.377 345.275 788.473 345.045 788.665 344.864C788.857 344.672 789.086 344.576 789.353 344.576C789.63 344.576 789.865 344.672 790.057 344.864C790.249 345.045 790.345 345.275 790.345 345.552C790.345 345.819 790.249 346.053 790.057 346.256C789.865 346.448 789.63 346.544 789.353 346.544ZM796.101 356.128C795.344 356.128 794.65 355.941 794.021 355.568C793.392 355.195 792.896 354.693 792.533 354.064C792.17 353.424 791.989 352.709 791.989 351.92C791.989 351.131 792.17 350.421 792.533 349.792C792.906 349.163 793.408 348.661 794.037 348.288C794.666 347.915 795.365 347.728 796.133 347.728C796.581 347.728 797.013 347.797 797.429 347.936C797.845 348.075 798.229 348.277 798.581 348.544V344.8L800.181 344.496V356H798.597V355.216C797.904 355.824 797.072 356.128 796.101 356.128ZM796.309 354.736C796.778 354.736 797.205 354.651 797.589 354.48C797.984 354.309 798.314 354.064 798.581 353.744V350.08C798.314 349.781 797.984 349.547 797.589 349.376C797.205 349.195 796.778 349.104 796.309 349.104C795.797 349.104 795.333 349.227 794.917 349.472C794.501 349.717 794.17 350.053 793.925 350.48C793.68 350.896 793.557 351.371 793.557 351.904C793.557 352.437 793.68 352.917 793.925 353.344C794.17 353.771 794.501 354.112 794.917 354.368C795.333 354.613 795.797 354.736 796.309 354.736ZM804.972 356.144C804.385 356.144 803.868 356.043 803.42 355.84C802.972 355.627 802.62 355.333 802.364 354.96C802.108 354.587 801.98 354.155 801.98 353.664C801.98 352.896 802.273 352.293 802.86 351.856C803.447 351.408 804.252 351.184 805.276 351.184C806.076 351.184 806.817 351.339 807.5 351.648V350.784C807.5 350.197 807.329 349.76 806.988 349.472C806.657 349.184 806.167 349.04 805.516 349.04C805.143 349.04 804.753 349.099 804.348 349.216C803.943 349.323 803.489 349.493 802.988 349.728L802.396 348.528C803.015 348.24 803.591 348.032 804.124 347.904C804.657 347.765 805.196 347.696 805.74 347.696C806.796 347.696 807.612 347.947 808.188 348.448C808.775 348.949 809.068 349.664 809.068 350.592V356H807.5V355.296C807.137 355.584 806.748 355.797 806.332 355.936C805.916 356.075 805.463 356.144 804.972 356.144ZM803.516 353.632C803.516 354.027 803.681 354.347 804.012 354.592C804.353 354.837 804.796 354.96 805.34 354.96C805.767 354.96 806.156 354.896 806.508 354.768C806.871 354.64 807.201 354.443 807.5 354.176V352.8C807.191 352.619 806.865 352.491 806.524 352.416C806.193 352.331 805.82 352.288 805.404 352.288C804.817 352.288 804.353 352.411 804.012 352.656C803.681 352.891 803.516 353.216 803.516 353.632ZM811.619 359.44C811.449 359.44 811.289 359.429 811.139 359.408C810.99 359.397 810.867 359.376 810.771 359.344V357.936C810.963 357.979 811.198 358 811.475 358C812.222 358 812.761 357.6 813.091 356.8L813.443 356.016L810.179 347.856H811.955L814.323 354.064L816.947 347.856H818.675L814.739 357.008C814.483 357.584 814.211 358.048 813.923 358.4C813.635 358.763 813.305 359.024 812.931 359.184C812.558 359.355 812.121 359.44 811.619 359.44Z" fill="#8D8F93"/>
<path d="M943.928 356.16C943.032 356.16 942.168 355.984 941.336 355.632C940.504 355.28 939.768 354.784 939.128 354.144L940.152 352.96C940.76 353.557 941.379 354 942.008 354.288C942.648 354.576 943.315 354.72 944.008 354.72C944.552 354.72 945.027 354.645 945.432 354.496C945.848 354.336 946.168 354.112 946.392 353.824C946.616 353.536 946.728 353.211 946.728 352.848C946.728 352.347 946.552 351.963 946.2 351.696C945.848 351.429 945.267 351.227 944.456 351.088L942.584 350.784C941.56 350.603 940.792 350.272 940.28 349.792C939.779 349.312 939.528 348.672 939.528 347.872C939.528 347.232 939.699 346.672 940.04 346.192C940.381 345.701 940.861 345.323 941.48 345.056C942.109 344.789 942.835 344.656 943.656 344.656C944.467 344.656 945.261 344.789 946.04 345.056C946.829 345.312 947.539 345.685 948.168 346.176L947.24 347.456C946.035 346.539 944.813 346.08 943.576 346.08C943.085 346.08 942.659 346.149 942.296 346.288C941.933 346.427 941.651 346.624 941.448 346.88C941.245 347.125 941.144 347.413 941.144 347.744C941.144 348.203 941.299 348.555 941.608 348.8C941.917 349.035 942.429 349.205 943.144 349.312L944.952 349.616C946.136 349.808 947.005 350.155 947.56 350.656C948.115 351.157 948.392 351.845 948.392 352.72C948.392 353.403 948.205 354.005 947.832 354.528C947.459 355.04 946.936 355.44 946.264 355.728C945.592 356.016 944.813 356.16 943.928 356.16ZM952.887 356.144C952.3 356.144 951.783 356.043 951.335 355.84C950.887 355.627 950.535 355.333 950.279 354.96C950.023 354.587 949.895 354.155 949.895 353.664C949.895 352.896 950.188 352.293 950.775 351.856C951.362 351.408 952.167 351.184 953.191 351.184C953.991 351.184 954.732 351.339 955.415 351.648V350.784C955.415 350.197 955.244 349.76 954.903 349.472C954.572 349.184 954.082 349.04 953.431 349.04C953.058 349.04 952.668 349.099 952.263 349.216C951.858 349.323 951.404 349.493 950.903 349.728L950.311 348.528C950.93 348.24 951.506 348.032 952.039 347.904C952.572 347.765 953.111 347.696 953.655 347.696C954.711 347.696 955.527 347.947 956.103 348.448C956.69 348.949 956.983 349.664 956.983 350.592V356H955.415V355.296C955.052 355.584 954.663 355.797 954.247 355.936C953.831 356.075 953.378 356.144 952.887 356.144ZM951.431 353.632C951.431 354.027 951.596 354.347 951.927 354.592C952.268 354.837 952.711 354.96 953.255 354.96C953.682 354.96 954.071 354.896 954.423 354.768C954.786 354.64 955.116 354.443 955.415 354.176V352.8C955.106 352.619 954.78 352.491 954.439 352.416C954.108 352.331 953.735 352.288 953.319 352.288C952.732 352.288 952.268 352.411 951.927 352.656C951.596 352.891 951.431 353.216 951.431 353.632ZM962.4 356.144C961.611 356.144 961.008 355.963 960.592 355.6C960.176 355.227 959.968 354.688 959.968 353.984V349.2H958.24V347.856H959.968V345.776L961.552 345.392V347.856H963.952V349.2H961.552V353.616C961.552 354.032 961.643 354.331 961.824 354.512C962.016 354.683 962.325 354.768 962.752 354.768C962.976 354.768 963.173 354.752 963.344 354.72C963.525 354.688 963.717 354.64 963.92 354.576V355.92C963.707 355.995 963.456 356.048 963.168 356.08C962.891 356.123 962.635 356.144 962.4 356.144ZM968.603 356.16C967.974 356.16 967.419 356.027 966.939 355.76C966.459 355.493 966.086 355.12 965.819 354.64C965.552 354.149 965.419 353.589 965.419 352.96V347.856H967.003V352.688C967.003 353.328 967.184 353.835 967.547 354.208C967.92 354.581 968.416 354.768 969.035 354.768C969.472 354.768 969.862 354.677 970.203 354.496C970.544 354.304 970.822 354.037 971.035 353.696V347.856H972.635V356H971.035V355.168C970.406 355.829 969.595 356.16 968.603 356.16ZM974.849 356V347.856H976.449V348.896C976.705 348.512 977.02 348.213 977.393 348C977.777 347.776 978.209 347.664 978.689 347.664C979.02 347.675 979.292 347.723 979.505 347.808V349.248C979.356 349.184 979.201 349.141 979.041 349.12C978.881 349.088 978.721 349.072 978.561 349.072C978.092 349.072 977.676 349.2 977.313 349.456C976.95 349.701 976.662 350.064 976.449 350.544V356H974.849ZM984.382 356.128C983.624 356.128 982.931 355.941 982.302 355.568C981.672 355.195 981.176 354.693 980.814 354.064C980.451 353.424 980.27 352.709 980.27 351.92C980.27 351.131 980.451 350.421 980.814 349.792C981.187 349.163 981.688 348.661 982.318 348.288C982.947 347.915 983.646 347.728 984.414 347.728C984.862 347.728 985.294 347.797 985.71 347.936C986.126 348.075 986.51 348.277 986.862 348.544V344.8L988.462 344.496V356H986.878V355.216C986.184 355.824 985.352 356.128 984.382 356.128ZM984.59 354.736C985.059 354.736 985.486 354.651 985.87 354.48C986.264 354.309 986.595 354.064 986.862 353.744V350.08C986.595 349.781 986.264 349.547 985.87 349.376C985.486 349.195 985.059 349.104 984.59 349.104C984.078 349.104 983.614 349.227 983.198 349.472C982.782 349.717 982.451 350.053 982.206 350.48C981.96 350.896 981.838 351.371 981.838 351.904C981.838 352.437 981.96 352.917 982.206 353.344C982.451 353.771 982.782 354.112 983.198 354.368C983.614 354.613 984.078 354.736 984.59 354.736ZM993.252 356.144C992.666 356.144 992.148 356.043 991.7 355.84C991.252 355.627 990.9 355.333 990.644 354.96C990.388 354.587 990.26 354.155 990.26 353.664C990.26 352.896 990.554 352.293 991.14 351.856C991.727 351.408 992.532 351.184 993.556 351.184C994.356 351.184 995.098 351.339 995.78 351.648V350.784C995.78 350.197 995.61 349.76 995.268 349.472C994.938 349.184 994.447 349.04 993.796 349.04C993.423 349.04 993.034 349.099 992.628 349.216C992.223 349.323 991.77 349.493 991.268 349.728L990.676 348.528C991.295 348.24 991.871 348.032 992.404 347.904C992.938 347.765 993.476 347.696 994.02 347.696C995.076 347.696 995.892 347.947 996.468 348.448C997.055 348.949 997.348 349.664 997.348 350.592V356H995.78V355.296C995.418 355.584 995.028 355.797 994.612 355.936C994.196 356.075 993.743 356.144 993.252 356.144ZM991.796 353.632C991.796 354.027 991.962 354.347 992.292 354.592C992.634 354.837 993.076 354.96 993.62 354.96C994.047 354.96 994.436 354.896 994.788 354.768C995.151 354.64 995.482 354.443 995.78 354.176V352.8C995.471 352.619 995.146 352.491 994.804 352.416C994.474 352.331 994.1 352.288 993.684 352.288C993.098 352.288 992.634 352.411 992.292 352.656C991.962 352.891 991.796 353.216 991.796 353.632ZM999.9 359.44C999.729 359.44 999.569 359.429 999.42 359.408C999.271 359.397 999.148 359.376 999.052 359.344V357.936C999.244 357.979 999.479 358 999.756 358C1000.5 358 1001.04 357.6 1001.37 356.8L1001.72 356.016L998.46 347.856H1000.24L1002.6 354.064L1005.23 347.856H1006.96L1003.02 357.008C1002.76 357.584 1002.49 358.048 1002.2 358.4C1001.92 358.763 1001.59 359.024 1001.21 359.184C1000.84 359.355 1000.4 359.44 999.9 359.44Z" fill="#8D8F93"/>
<path d="M1121.93 356.16C1121.03 356.16 1120.17 355.984 1119.34 355.632C1118.5 355.28 1117.77 354.784 1117.13 354.144L1118.15 352.96C1118.76 353.557 1119.38 354 1120.01 354.288C1120.65 354.576 1121.31 354.72 1122.01 354.72C1122.55 354.72 1123.03 354.645 1123.43 354.496C1123.85 354.336 1124.17 354.112 1124.39 353.824C1124.62 353.536 1124.73 353.211 1124.73 352.848C1124.73 352.347 1124.55 351.963 1124.2 351.696C1123.85 351.429 1123.27 351.227 1122.46 351.088L1120.58 350.784C1119.56 350.603 1118.79 350.272 1118.28 349.792C1117.78 349.312 1117.53 348.672 1117.53 347.872C1117.53 347.232 1117.7 346.672 1118.04 346.192C1118.38 345.701 1118.86 345.323 1119.48 345.056C1120.11 344.789 1120.83 344.656 1121.66 344.656C1122.47 344.656 1123.26 344.789 1124.04 345.056C1124.83 345.312 1125.54 345.685 1126.17 346.176L1125.24 347.456C1124.03 346.539 1122.81 346.08 1121.58 346.08C1121.09 346.08 1120.66 346.149 1120.3 346.288C1119.93 346.427 1119.65 346.624 1119.45 346.88C1119.25 347.125 1119.14 347.413 1119.14 347.744C1119.14 348.203 1119.3 348.555 1119.61 348.8C1119.92 349.035 1120.43 349.205 1121.14 349.312L1122.95 349.616C1124.14 349.808 1125.01 350.155 1125.56 350.656C1126.11 351.157 1126.39 351.845 1126.39 352.72C1126.39 353.403 1126.21 354.005 1125.83 354.528C1125.46 355.04 1124.94 355.44 1124.26 355.728C1123.59 356.016 1122.81 356.16 1121.93 356.16ZM1131.23 356.16C1130.6 356.16 1130.04 356.027 1129.56 355.76C1129.08 355.493 1128.71 355.12 1128.44 354.64C1128.18 354.149 1128.04 353.589 1128.04 352.96V347.856H1129.63V352.688C1129.63 353.328 1129.81 353.835 1130.17 354.208C1130.55 354.581 1131.04 354.768 1131.66 354.768C1132.1 354.768 1132.49 354.677 1132.83 354.496C1133.17 354.304 1133.45 354.037 1133.66 353.696V347.856H1135.26V356H1133.66V355.168C1133.03 355.829 1132.22 356.16 1131.23 356.16ZM1137.47 356V347.856H1139.07V348.688C1139.7 348.027 1140.52 347.696 1141.52 347.696C1142.15 347.696 1142.7 347.829 1143.17 348.096C1143.65 348.363 1144.02 348.736 1144.29 349.216C1144.57 349.696 1144.71 350.251 1144.71 350.88V356H1143.11V351.152C1143.11 350.512 1142.93 350.011 1142.56 349.648C1142.21 349.275 1141.71 349.088 1141.07 349.088C1140.65 349.088 1140.26 349.179 1139.92 349.36C1139.58 349.541 1139.3 349.803 1139.07 350.144V356H1137.47ZM1150.62 356.128C1149.86 356.128 1149.17 355.941 1148.54 355.568C1147.91 355.195 1147.41 354.693 1147.05 354.064C1146.69 353.424 1146.5 352.709 1146.5 351.92C1146.5 351.131 1146.69 350.421 1147.05 349.792C1147.42 349.163 1147.92 348.661 1148.55 348.288C1149.18 347.915 1149.88 347.728 1150.65 347.728C1151.1 347.728 1151.53 347.797 1151.94 347.936C1152.36 348.075 1152.74 348.277 1153.1 348.544V344.8L1154.7 344.496V356H1153.11V355.216C1152.42 355.824 1151.59 356.128 1150.62 356.128ZM1150.82 354.736C1151.29 354.736 1151.72 354.651 1152.1 354.48C1152.5 354.309 1152.83 354.064 1153.1 353.744V350.08C1152.83 349.781 1152.5 349.547 1152.1 349.376C1151.72 349.195 1151.29 349.104 1150.82 349.104C1150.31 349.104 1149.85 349.227 1149.43 349.472C1149.02 349.717 1148.69 350.053 1148.44 350.48C1148.2 350.896 1148.07 351.371 1148.07 351.904C1148.07 352.437 1148.2 352.917 1148.44 353.344C1148.69 353.771 1149.02 354.112 1149.43 354.368C1149.85 354.613 1150.31 354.736 1150.82 354.736ZM1159.49 356.144C1158.9 356.144 1158.38 356.043 1157.94 355.84C1157.49 355.627 1157.14 355.333 1156.88 354.96C1156.62 354.587 1156.5 354.155 1156.5 353.664C1156.5 352.896 1156.79 352.293 1157.38 351.856C1157.96 351.408 1158.77 351.184 1159.79 351.184C1160.59 351.184 1161.33 351.339 1162.02 351.648V350.784C1162.02 350.197 1161.84 349.76 1161.5 349.472C1161.17 349.184 1160.68 349.04 1160.03 349.04C1159.66 349.04 1159.27 349.099 1158.86 349.216C1158.46 349.323 1158 349.493 1157.5 349.728L1156.91 348.528C1157.53 348.24 1158.11 348.032 1158.64 347.904C1159.17 347.765 1159.71 347.696 1160.26 347.696C1161.31 347.696 1162.13 347.947 1162.7 348.448C1163.29 348.949 1163.58 349.664 1163.58 350.592V356H1162.02V355.296C1161.65 355.584 1161.26 355.797 1160.85 355.936C1160.43 356.075 1159.98 356.144 1159.49 356.144ZM1158.03 353.632C1158.03 354.027 1158.2 354.347 1158.53 354.592C1158.87 354.837 1159.31 354.96 1159.86 354.96C1160.28 354.96 1160.67 354.896 1161.02 354.768C1161.39 354.64 1161.72 354.443 1162.02 354.176V352.8C1161.71 352.619 1161.38 352.491 1161.04 352.416C1160.71 352.331 1160.34 352.288 1159.92 352.288C1159.33 352.288 1158.87 352.411 1158.53 352.656C1158.2 352.891 1158.03 353.216 1158.03 353.632ZM1166.13 359.44C1165.96 359.44 1165.8 359.429 1165.65 359.408C1165.51 359.397 1165.38 359.376 1165.29 359.344V357.936C1165.48 357.979 1165.71 358 1165.99 358C1166.74 358 1167.28 357.6 1167.61 356.8L1167.96 356.016L1164.69 347.856H1166.47L1168.84 354.064L1171.46 347.856H1173.19L1169.25 357.008C1169 357.584 1168.73 358.048 1168.44 358.4C1168.15 358.763 1167.82 359.024 1167.45 359.184C1167.07 359.355 1166.64 359.44 1166.13 359.44Z" fill="#8D8F93"/>
<path d="M1041.17 52.308H1043.76C1044.42 52.308 1045.03 52.194 1045.6 51.966C1046.16 51.726 1046.65 51.402 1047.07 50.994C1047.5 50.574 1047.83 50.088 1048.06 49.536C1048.3 48.972 1048.42 48.36 1048.42 47.7C1048.42 47.052 1048.3 46.446 1048.06 45.882C1047.83 45.318 1047.5 44.832 1047.07 44.424C1046.65 44.004 1046.16 43.68 1045.6 43.452C1045.03 43.212 1044.42 43.092 1043.76 43.092H1041.17V52.308ZM1039.28 54V41.4H1043.72C1044.67 41.4 1045.55 41.562 1046.35 41.886C1047.16 42.198 1047.86 42.636 1048.46 43.2C1049.06 43.764 1049.53 44.43 1049.86 45.198C1050.2 45.966 1050.37 46.8 1050.37 47.7C1050.37 48.612 1050.2 49.452 1049.86 50.22C1049.54 50.976 1049.08 51.636 1048.48 52.2C1047.88 52.764 1047.17 53.208 1046.35 53.532C1045.55 53.844 1044.67 54 1043.72 54H1039.28ZM1056.89 54.162C1055.99 54.162 1055.18 53.952 1054.44 53.532C1053.72 53.112 1053.15 52.542 1052.72 51.822C1052.3 51.102 1052.09 50.298 1052.09 49.41C1052.09 48.534 1052.29 47.742 1052.7 47.034C1053.11 46.314 1053.66 45.744 1054.35 45.324C1055.05 44.892 1055.82 44.676 1056.68 44.676C1057.53 44.676 1058.28 44.892 1058.94 45.324C1059.6 45.744 1060.13 46.32 1060.51 47.052C1060.91 47.772 1061.1 48.588 1061.1 49.5V50.004H1053.89C1053.98 50.508 1054.17 50.958 1054.44 51.354C1054.73 51.75 1055.09 52.062 1055.52 52.29C1055.97 52.518 1056.45 52.632 1056.96 52.632C1057.41 52.632 1057.83 52.566 1058.24 52.434C1058.66 52.29 1059.01 52.086 1059.29 51.822L1060.44 52.956C1059.9 53.364 1059.34 53.67 1058.76 53.874C1058.2 54.066 1057.58 54.162 1056.89 54.162ZM1053.9 48.654H1059.32C1059.25 48.174 1059.08 47.754 1058.82 47.394C1058.57 47.022 1058.25 46.734 1057.86 46.53C1057.49 46.314 1057.08 46.206 1056.64 46.206C1056.18 46.206 1055.76 46.308 1055.38 46.512C1055 46.716 1054.67 47.004 1054.41 47.376C1054.16 47.736 1053.99 48.162 1053.9 48.654ZM1063.18 54V41.4L1064.98 41.058V45.702C1065.75 45.03 1066.68 44.694 1067.77 44.694C1068.63 44.694 1069.41 44.904 1070.11 45.324C1070.82 45.744 1071.37 46.308 1071.78 47.016C1072.19 47.724 1072.39 48.522 1072.39 49.41C1072.39 50.298 1072.18 51.102 1071.76 51.822C1071.36 52.53 1070.8 53.094 1070.09 53.514C1069.39 53.934 1068.61 54.144 1067.73 54.144C1067.23 54.144 1066.74 54.066 1066.26 53.91C1065.79 53.742 1065.36 53.508 1064.96 53.208V54H1063.18ZM1067.53 52.578C1068.12 52.578 1068.64 52.44 1069.1 52.164C1069.57 51.888 1069.94 51.516 1070.22 51.048C1070.49 50.568 1070.63 50.028 1070.63 49.428C1070.63 48.828 1070.49 48.288 1070.22 47.808C1069.94 47.328 1069.57 46.95 1069.1 46.674C1068.64 46.398 1068.12 46.26 1067.53 46.26C1067.02 46.26 1066.54 46.356 1066.09 46.548C1065.65 46.74 1065.28 47.01 1064.98 47.358V51.498C1065.28 51.834 1065.65 52.098 1066.09 52.29C1066.55 52.482 1067.03 52.578 1067.53 52.578ZM1074.47 54V44.838H1076.27V54H1074.47ZM1075.37 43.362C1075.07 43.362 1074.81 43.254 1074.6 43.038C1074.38 42.81 1074.27 42.546 1074.27 42.246C1074.27 41.934 1074.38 41.676 1074.6 41.472C1074.81 41.256 1075.07 41.148 1075.37 41.148C1075.68 41.148 1075.95 41.256 1076.16 41.472C1076.38 41.676 1076.49 41.934 1076.49 42.246C1076.49 42.546 1076.38 42.81 1076.16 43.038C1075.95 43.254 1075.68 43.362 1075.37 43.362ZM1082.68 54.162C1081.79 54.162 1081.11 53.958 1080.64 53.55C1080.17 53.13 1079.94 52.524 1079.94 51.732V46.35H1078V44.838H1079.94V42.498L1081.72 42.066V44.838H1084.42V46.35H1081.72V51.318C1081.72 51.786 1081.82 52.122 1082.03 52.326C1082.24 52.518 1082.59 52.614 1083.07 52.614C1083.32 52.614 1083.55 52.596 1083.74 52.56C1083.94 52.524 1084.16 52.47 1084.39 52.398V53.91C1084.15 53.994 1083.86 54.054 1083.54 54.09C1083.23 54.138 1082.94 54.162 1082.68 54.162Z" fill="#8D8F93"/>
<path d="M1149.34 54.198C1148.41 54.198 1147.54 54.036 1146.73 53.712C1145.94 53.376 1145.24 52.914 1144.63 52.326C1144.03 51.726 1143.56 51.036 1143.22 50.256C1142.9 49.464 1142.74 48.612 1142.74 47.7C1142.74 46.788 1142.9 45.942 1143.22 45.162C1143.56 44.37 1144.03 43.68 1144.63 43.092C1145.24 42.492 1145.95 42.03 1146.75 41.706C1147.56 41.37 1148.42 41.202 1149.34 41.202C1150 41.202 1150.65 41.292 1151.27 41.472C1151.91 41.64 1152.49 41.886 1153.02 42.21C1153.56 42.534 1154.02 42.924 1154.42 43.38L1153.16 44.676C1152.69 44.112 1152.12 43.686 1151.45 43.398C1150.78 43.098 1150.08 42.948 1149.34 42.948C1148.67 42.948 1148.05 43.068 1147.47 43.308C1146.91 43.548 1146.42 43.884 1146 44.316C1145.58 44.736 1145.25 45.234 1145.01 45.81C1144.78 46.386 1144.66 47.016 1144.66 47.7C1144.66 48.372 1144.78 48.996 1145.01 49.572C1145.25 50.148 1145.58 50.652 1146.01 51.084C1146.45 51.516 1146.95 51.852 1147.53 52.092C1148.1 52.332 1148.73 52.452 1149.4 52.452C1150.13 52.452 1150.82 52.308 1151.47 52.02C1152.13 51.72 1152.69 51.3 1153.14 50.76L1154.38 52.02C1153.96 52.464 1153.48 52.854 1152.94 53.19C1152.42 53.514 1151.84 53.766 1151.22 53.946C1150.6 54.114 1149.98 54.198 1149.34 54.198ZM1156.38 54V44.838H1158.18V46.008C1158.47 45.576 1158.82 45.24 1159.24 45C1159.67 44.748 1160.16 44.622 1160.7 44.622C1161.07 44.634 1161.38 44.688 1161.62 44.784V46.404C1161.45 46.332 1161.27 46.284 1161.09 46.26C1160.91 46.224 1160.73 46.206 1160.55 46.206C1160.03 46.206 1159.56 46.35 1159.15 46.638C1158.74 46.914 1158.42 47.322 1158.18 47.862V54H1156.38ZM1167.28 54.162C1166.38 54.162 1165.57 53.952 1164.83 53.532C1164.11 53.112 1163.54 52.542 1163.11 51.822C1162.69 51.102 1162.48 50.298 1162.48 49.41C1162.48 48.534 1162.68 47.742 1163.09 47.034C1163.5 46.314 1164.05 45.744 1164.74 45.324C1165.44 44.892 1166.21 44.676 1167.07 44.676C1167.92 44.676 1168.67 44.892 1169.33 45.324C1169.99 45.744 1170.52 46.32 1170.9 47.052C1171.3 47.772 1171.49 48.588 1171.49 49.5V50.004H1164.28C1164.37 50.508 1164.56 50.958 1164.83 51.354C1165.12 51.75 1165.48 52.062 1165.91 52.29C1166.36 52.518 1166.84 52.632 1167.35 52.632C1167.8 52.632 1168.22 52.566 1168.63 52.434C1169.05 52.29 1169.4 52.086 1169.68 51.822L1170.83 52.956C1170.29 53.364 1169.73 53.67 1169.15 53.874C1168.59 54.066 1167.97 54.162 1167.28 54.162ZM1164.29 48.654H1169.71C1169.64 48.174 1169.47 47.754 1169.21 47.394C1168.96 47.022 1168.64 46.734 1168.25 46.53C1167.88 46.314 1167.47 46.206 1167.03 46.206C1166.57 46.206 1166.15 46.308 1165.77 46.512C1165.39 46.716 1165.06 47.004 1164.8 47.376C1164.55 47.736 1164.38 48.162 1164.29 48.654ZM1177.81 54.144C1176.96 54.144 1176.18 53.934 1175.47 53.514C1174.77 53.094 1174.21 52.53 1173.8 51.822C1173.39 51.102 1173.19 50.298 1173.19 49.41C1173.19 48.522 1173.39 47.724 1173.8 47.016C1174.22 46.308 1174.78 45.744 1175.49 45.324C1176.2 44.904 1176.99 44.694 1177.85 44.694C1178.35 44.694 1178.84 44.772 1179.31 44.928C1179.78 45.084 1180.21 45.312 1180.6 45.612V41.4L1182.4 41.058V54H1180.62V53.118C1179.84 53.802 1178.91 54.144 1177.81 54.144ZM1178.05 52.578C1178.58 52.578 1179.06 52.482 1179.49 52.29C1179.93 52.098 1180.3 51.822 1180.6 51.462V47.34C1180.3 47.004 1179.93 46.74 1179.49 46.548C1179.06 46.344 1178.58 46.242 1178.05 46.242C1177.47 46.242 1176.95 46.38 1176.48 46.656C1176.01 46.932 1175.64 47.31 1175.37 47.79C1175.09 48.258 1174.95 48.792 1174.95 49.392C1174.95 49.992 1175.09 50.532 1175.37 51.012C1175.64 51.492 1176.01 51.876 1176.48 52.164C1176.95 52.44 1177.47 52.578 1178.05 52.578ZM1184.9 54V44.838H1186.7V54H1184.9ZM1185.8 43.362C1185.5 43.362 1185.24 43.254 1185.02 43.038C1184.81 42.81 1184.7 42.546 1184.7 42.246C1184.7 41.934 1184.81 41.676 1185.02 41.472C1185.24 41.256 1185.5 41.148 1185.8 41.148C1186.11 41.148 1186.37 41.256 1186.59 41.472C1186.8 41.676 1186.91 41.934 1186.91 42.246C1186.91 42.546 1186.8 42.81 1186.59 43.038C1186.37 43.254 1186.11 43.362 1185.8 43.362ZM1193.1 54.162C1192.21 54.162 1191.53 53.958 1191.07 53.55C1190.6 53.13 1190.36 52.524 1190.36 51.732V46.35H1188.42V44.838H1190.36V42.498L1192.15 42.066V44.838H1194.85V46.35H1192.15V51.318C1192.15 51.786 1192.25 52.122 1192.45 52.326C1192.67 52.518 1193.02 52.614 1193.5 52.614C1193.75 52.614 1193.97 52.596 1194.16 52.56C1194.37 52.524 1194.58 52.47 1194.81 52.398V53.91C1194.57 53.994 1194.29 54.054 1193.96 54.09C1193.65 54.138 1193.36 54.162 1193.1 54.162Z" fill="#8D8F93"/>
<rect x="36" y="178" width="43.4457" height="152" rx="10" fill="#AFE638"/>
<rect x="89.582" y="128" width="43.4457" height="202" rx="10" fill="#5E1EE5"/>
<rect x="213" y="155" width="43.4457" height="175" rx="10" fill="#AFE638"/>
<rect x="266.582" y="231" width="43.4457" height="99" rx="10" fill="#5E1EE5"/>
<rect x="390" y="215" width="43" height="115" rx="10" fill="#AFE638"/>
<rect x="443.582" y="146" width="43.4457" height="184" rx="10" fill="#5E1EE5"/>
<rect x="567" y="166" width="43.4457" height="164" rx="10" fill="#AFE638"/>
<rect x="620.582" y="251" width="43.4457" height="79" rx="10" fill="#5E1EE5"/>
<rect x="744" y="166" width="43.4457" height="164" rx="10" fill="#AFE638"/>
<rect x="798" y="128" width="43" height="202" rx="10" fill="#5E1EE5"/>
<rect x="921" y="146" width="43" height="184" rx="10" fill="#AFE638"/>
<rect x="975" y="215" width="43" height="115" rx="10" fill="#5E1EE5"/>
<rect x="1098" y="166" width="43.4457" height="164" rx="10" fill="#AFE638"/>
<rect x="1151.58" y="251" width="43.4457" height="79" rx="10" fill="#5E1EE5"/>
<circle cx="1121" cy="47" r="11" fill="#5E1EE5"/>
<circle cx="1017" cy="47" r="11" fill="#AFE638"/>
</g>
<defs>
<filter id="filter0_d_1_20812" x="0" y="0" width="1232" height="397" filterUnits="userSpaceOnUse" color-interpolation-filters="sRGB">
<feFlood flood-opacity="0" result="BackgroundImageFix"/>
<feColorMatrix in="SourceAlpha" type="matrix" values="0 0 0 0 0 0 0 0 0 0 0 0 0 0 0 0 0 0 127 0" result="hardAlpha"/>
<feOffset/>
<feGaussianBlur stdDeviation="5"/>
<feComposite in2="hardAlpha" operator="out"/>
<feColorMatrix type="matrix" values="0 0 0 0 0.552941 0 0 0 0 0.560784 0 0 0 0 0.576471 0 0 0 0.25 0"/>
<feBlend mode="normal" in2="BackgroundImageFix" result="effect1_dropShadow_1_20812"/>
<feBlend mode="normal" in="SourceGraphic" in2="effect1_dropShadow_1_20812" result="shape"/>
</filter>
</defs>
</svg>
