<svg width="161" height="169" viewBox="0 0 161 169" fill="none" xmlns="http://www.w3.org/2000/svg">
<path d="M63.4996 10V183.778C15.5131 183.778 -23.3965 144.868 -23.3965 96.8815C-23.3965 48.9095 15.5131 10 63.4996 10Z" fill="#6556A0"/>
<path d="M63.5 10V183.778C111.486 183.778 150.396 144.868 150.396 96.8815C150.396 48.9095 111.494 10 63.5 10Z" fill="#4A4595"/>
<path d="M63.4991 154.941C95.5602 154.941 121.551 128.95 121.551 96.8887C121.551 64.8276 95.5602 38.8369 63.4991 38.8369C31.438 38.8369 5.44727 64.8276 5.44727 96.8887C5.44727 128.95 31.438 154.941 63.4991 154.941Z" fill="#FDFDFC"/>
<path d="M80.6798 96.8525C77.9981 94.3016 73.972 92.4194 68.3688 91.1112V79.6942C70.7234 80.8061 72.8455 82.7756 74.6769 85.5808L75.7016 87.1505L84.0664 78.4951L83.2015 77.3468C79.1245 71.9544 74.1391 68.6478 68.3688 67.4995V58.4807H60.4038V67.2597C57.4968 67.6449 54.866 68.4879 52.5695 69.7742C49.8661 71.2931 47.7004 73.3425 46.1379 75.8788C44.5682 78.4442 43.7687 81.373 43.7687 84.5706C43.7687 89.3235 45.2658 93.1897 48.2164 96.0531C50.8399 98.6112 54.8152 100.544 60.0259 101.802V114.679C56.5303 113.72 53.5797 111.554 51.0289 108.117L49.9678 106.678L41.8574 115.29L42.7077 116.424C44.9824 119.432 47.744 121.845 50.9271 123.575C53.7105 125.079 56.7628 126.067 60.0259 126.503V135.29H67.9182V126.503C71.0141 126.075 73.7976 125.166 76.1958 123.793C79.0083 122.187 81.2248 120.05 82.7728 117.441C84.3353 114.803 85.1274 111.772 85.1274 108.422C85.1419 103.568 83.6376 99.6722 80.6798 96.8525ZM72.7801 108.895C72.7801 110.573 72.2641 111.903 71.2104 112.964C70.3964 113.771 69.2991 114.367 67.9255 114.73V103.735C69.9676 104.44 71.0069 105.13 71.5374 105.631C72.3877 106.445 72.7801 107.485 72.7801 108.895ZM55.9852 84.2654C55.9852 82.8264 56.4939 81.6419 57.5332 80.6535C58.3108 79.9195 59.2555 79.389 60.411 79.0547V89.3453C59.0012 88.8438 57.9474 88.2479 57.257 87.5793C56.3922 86.7508 55.9852 85.668 55.9852 84.2654Z" fill="#AECA3B"/>
</svg>
