<svg width="161" height="169" viewBox="0 0 161 169" fill="none" xmlns="http://www.w3.org/2000/svg">
<path d="M106.2 99.2748H20.808C17.4165 99.2748 14.1488 97.8439 11.8443 95.3536C9.5397 92.8633 8.3771 89.4925 8.64539 86.1079C11.8787 45.589 35.4608 15.0381 63.5076 15.0381C91.5476 15.0381 115.123 45.5958 118.349 86.1079C118.618 89.4925 117.455 92.8633 115.15 95.3536C112.853 97.8439 109.592 99.2748 106.2 99.2748ZM63.5145 22.4608C39.3751 22.4608 18.9712 50.0742 16.0475 86.6995C15.9374 88.041 16.3846 89.3274 17.2995 90.318C18.2145 91.3086 19.4596 91.8521 20.808 91.8521H106.2C107.549 91.8521 108.794 91.3086 109.709 90.318C110.624 89.3274 111.071 88.041 110.961 86.6995C108.037 50.0742 87.6401 22.4608 63.5145 22.4608Z" fill="#6556A0"/>
<path d="M131.929 179.969H-4.92044C-10.3551 179.969 -14.7578 175.566 -14.7578 170.131V71.737C-14.7578 66.3024 -10.3551 61.8997 -4.92044 61.8997H131.929C137.364 61.8997 141.766 66.3024 141.766 71.737V170.131C141.76 175.566 137.357 179.969 131.929 179.969Z" fill="#9F8CC2"/>
<path d="M131.929 117.14H-4.92044C-10.3551 117.14 -14.7578 112.738 -14.7578 107.303V71.7302C-14.7578 66.2956 -10.3551 61.8928 -4.92044 61.8928H131.929C137.364 61.8928 141.766 66.2956 141.766 71.7302V107.303C141.76 112.738 137.357 117.14 131.929 117.14Z" fill="#4A4595"/>
<g opacity="0.5">
<path d="M141.616 91.8521L141.767 164.8C141.767 173.179 134.977 179.969 126.612 179.969H32.5312L141.616 91.8521Z" fill="#9F8CC2" style="mix-blend-mode:multiply"/>
</g>
<path d="M77.9542 127.466H49.0543C47.3758 127.466 46.0619 126.035 46.1926 124.363C47.2176 111.472 54.5853 101.469 63.5077 101.469C72.437 101.469 79.791 111.472 80.816 124.363C80.9467 126.028 79.6327 127.466 77.9542 127.466Z" fill="white"/>
<path d="M73.6623 123.6H53.3478C52.1646 123.6 51.2427 122.596 51.3322 121.419C52.0545 112.352 57.2277 105.322 63.5016 105.322C69.7755 105.322 74.9487 112.352 75.6711 121.419C75.7674 122.596 74.8387 123.6 73.6623 123.6Z" fill="#D6E29A"/>
<path d="M75.6763 121.426C75.7726 122.596 74.8371 123.6 73.6607 123.6H63.5V105.329H63.5138C69.7808 105.329 74.954 112.359 75.6763 121.426Z" fill="#AECA3B"/>
</svg>
