<svg width="164" height="26" viewBox="0 0 164 26" fill="none" xmlns="http://www.w3.org/2000/svg">
<path d="M1.54 20V6H7.62C8.54 6 9.33333 6.16667 10 6.5C10.68 6.83333 11.2067 7.30667 11.58 7.92C11.9533 8.52 12.14 9.22667 12.14 10.04C12.14 10.8533 11.9533 11.5667 11.58 12.18C11.2067 12.78 10.68 13.2533 10 13.6C9.32 13.9333 8.52667 14.1 7.62 14.1H3.08V20H1.54ZM3.08 12.76H7.5C8.44667 12.76 9.2 12.52 9.76 12.04C10.32 11.5467 10.6 10.8867 10.6 10.06C10.6 9.23333 10.32 8.58 9.76 8.1C9.2 7.62 8.44667 7.38 7.5 7.38H3.08V12.76ZM14.8892 20V6H20.8892C21.8092 6 22.6092 6.16667 23.2892 6.5C23.9692 6.83333 24.4959 7.3 24.8692 7.9C25.2559 8.5 25.4492 9.20667 25.4492 10.02C25.4492 10.94 25.1759 11.7333 24.6292 12.4C24.0959 13.0533 23.3759 13.5133 22.4692 13.78L25.6092 20H23.9092L20.9092 13.98H16.4292V20H14.8892ZM16.4292 12.68H20.7892C21.7359 12.68 22.4892 12.44 23.0492 11.96C23.6226 11.48 23.9092 10.8333 23.9092 10.02C23.9092 9.22 23.6226 8.58 23.0492 8.1C22.4892 7.62 21.7359 7.38 20.7892 7.38H16.4292V12.68ZM28.1798 20V6H29.7198V20H28.1798ZM37.4888 20L31.7488 6H33.4088L38.4688 18.56L43.6088 6H45.1688L39.3488 20H37.4888ZM43.4378 20L49.2378 6H51.0978L56.8578 20H55.1778L53.4178 15.6H46.8178L45.0378 20H43.4378ZM47.3578 14.28H52.8778L50.1178 7.42L47.3578 14.28ZM64.7689 20.22C63.7556 20.22 62.8089 20.04 61.9289 19.68C61.0489 19.3067 60.2756 18.7933 59.6089 18.14C58.9422 17.4733 58.4222 16.7067 58.0489 15.84C57.6889 14.96 57.5089 14.0133 57.5089 13C57.5089 11.9867 57.6889 11.0467 58.0489 10.18C58.4222 9.3 58.9422 8.53333 59.6089 7.88C60.2756 7.21333 61.0489 6.7 61.9289 6.34C62.8089 5.96667 63.7556 5.78 64.7689 5.78C65.5022 5.78 66.2022 5.87333 66.8689 6.06C67.5489 6.23333 68.1756 6.49333 68.7489 6.84C69.3356 7.17333 69.8556 7.58667 70.3089 8.08L69.2889 9.16C68.7422 8.53333 68.0689 8.05333 67.2689 7.72C66.4689 7.37333 65.6356 7.2 64.7689 7.2C63.9556 7.2 63.2022 7.34667 62.5089 7.64C61.8156 7.93333 61.2089 8.34667 60.6889 8.88C60.1822 9.4 59.7822 10.0133 59.4889 10.72C59.2089 11.4133 59.0689 12.1733 59.0689 13C59.0689 13.8133 59.2089 14.5733 59.4889 15.28C59.7822 15.9867 60.1889 16.6067 60.7089 17.14C61.2289 17.66 61.8356 18.0667 62.5289 18.36C63.2356 18.6533 63.9956 18.8 64.8089 18.8C65.6756 18.8 66.5022 18.6333 67.2889 18.3C68.0756 17.9533 68.7356 17.48 69.2689 16.88L70.2689 17.92C69.8022 18.4 69.2756 18.8133 68.6889 19.16C68.1156 19.5067 67.4956 19.7733 66.8289 19.96C66.1622 20.1333 65.4756 20.22 64.7689 20.22ZM76.7895 20V14.3L71.2295 6H73.0295L77.6095 12.94L82.1695 6H83.9095L78.3295 14.36V20H76.7895ZM90.5798 20V6H96.6598C97.5798 6 98.3732 6.16667 99.0398 6.5C99.7198 6.83333 100.247 7.30667 100.62 7.92C100.993 8.52 101.18 9.22667 101.18 10.04C101.18 10.8533 100.993 11.5667 100.62 12.18C100.247 12.78 99.7198 13.2533 99.0398 13.6C98.3598 13.9333 97.5665 14.1 96.6598 14.1H92.1198V20H90.5798ZM92.1198 12.76H96.5398C97.4865 12.76 98.2398 12.52 98.7998 12.04C99.3598 11.5467 99.6398 10.8867 99.6398 10.06C99.6398 9.23333 99.3598 8.58 98.7998 8.1C98.2398 7.62 97.4865 7.38 96.5398 7.38H92.1198V12.76ZM110.489 20.22C109.476 20.22 108.529 20.04 107.649 19.68C106.782 19.3067 106.016 18.7933 105.349 18.14C104.696 17.4733 104.182 16.7067 103.809 15.84C103.449 14.96 103.269 14.0133 103.269 13C103.269 11.9867 103.449 11.0467 103.809 10.18C104.182 9.3 104.696 8.53333 105.349 7.88C106.016 7.21333 106.782 6.7 107.649 6.34C108.529 5.96667 109.476 5.78 110.489 5.78C111.489 5.78 112.422 5.96667 113.289 6.34C114.169 6.7 114.936 7.21333 115.589 7.88C116.256 8.53333 116.769 9.3 117.129 10.18C117.502 11.0467 117.689 11.9867 117.689 13C117.689 14.0133 117.502 14.96 117.129 15.84C116.769 16.7067 116.256 17.4733 115.589 18.14C114.936 18.7933 114.169 19.3067 113.289 19.68C112.422 20.04 111.489 20.22 110.489 20.22ZM110.489 18.8C111.289 18.8 112.029 18.6533 112.709 18.36C113.389 18.0667 113.982 17.66 114.489 17.14C115.009 16.6067 115.409 15.9867 115.689 15.28C115.982 14.5733 116.129 13.8133 116.129 13C116.129 12.1733 115.982 11.4133 115.689 10.72C115.409 10.0133 115.009 9.4 114.489 8.88C113.982 8.34667 113.389 7.93333 112.709 7.64C112.029 7.34667 111.289 7.2 110.489 7.2C109.689 7.2 108.942 7.34667 108.249 7.64C107.569 7.93333 106.969 8.34667 106.449 8.88C105.942 9.4 105.542 10.0133 105.249 10.72C104.969 11.4133 104.829 12.1667 104.829 12.98C104.829 13.8067 104.969 14.5733 105.249 15.28C105.542 15.9867 105.942 16.6067 106.449 17.14C106.969 17.66 107.569 18.0667 108.249 18.36C108.942 18.6533 109.689 18.8 110.489 18.8ZM120.501 20V6H122.041V18.62H130.381V20H120.501ZM132.971 20V6H134.511V20H132.971ZM144.6 20.22C143.587 20.22 142.64 20.04 141.76 19.68C140.88 19.3067 140.107 18.7933 139.44 18.14C138.773 17.4733 138.253 16.7067 137.88 15.84C137.52 14.96 137.34 14.0133 137.34 13C137.34 11.9867 137.52 11.0467 137.88 10.18C138.253 9.3 138.773 8.53333 139.44 7.88C140.107 7.21333 140.88 6.7 141.76 6.34C142.64 5.96667 143.587 5.78 144.6 5.78C145.333 5.78 146.033 5.87333 146.7 6.06C147.38 6.23333 148.007 6.49333 148.58 6.84C149.167 7.17333 149.687 7.58667 150.14 8.08L149.12 9.16C148.573 8.53333 147.9 8.05333 147.1 7.72C146.3 7.37333 145.467 7.2 144.6 7.2C143.787 7.2 143.033 7.34667 142.34 7.64C141.647 7.93333 141.04 8.34667 140.52 8.88C140.013 9.4 139.613 10.0133 139.32 10.72C139.04 11.4133 138.9 12.1733 138.9 13C138.9 13.8133 139.04 14.5733 139.32 15.28C139.613 15.9867 140.02 16.6067 140.54 17.14C141.06 17.66 141.667 18.0667 142.36 18.36C143.067 18.6533 143.827 18.8 144.64 18.8C145.507 18.8 146.333 18.6333 147.12 18.3C147.907 17.9533 148.567 17.48 149.1 16.88L150.1 17.92C149.633 18.4 149.107 18.8133 148.52 19.16C147.947 19.5067 147.327 19.7733 146.66 19.96C145.993 20.1333 145.307 20.22 144.6 20.22ZM156.621 20V14.3L151.061 6H152.861L157.441 12.94L162.001 6H163.741L158.161 14.36V20H156.621Z" fill="#55585D"/>
</svg>
