<svg width="240" height="240" viewBox="0 0 240 240" fill="none" xmlns="http://www.w3.org/2000/svg">
<path d="M169.548 48.8622H59.9961V20.8201C59.9961 17.3741 62.7901 14.5801 66.2361 14.5801H163.3C166.746 14.5801 169.54 17.3741 169.54 20.8201V48.8622H169.548Z" fill="#6556A0"/>
<path d="M166.068 30.7432H59.9961V20.8201C59.9961 17.3741 62.7901 14.5801 66.2361 14.5801H159.811C163.257 14.5801 166.051 17.3741 166.051 20.8201V30.7432H166.068Z" fill="#9F8CC2"/>
<path d="M193.095 225.429H57.364C54.5022 225.429 52.1738 223.109 52.1738 220.239V58.4553C52.1738 55.5935 54.4937 53.2651 57.364 53.2651H193.095C195.957 53.2651 198.285 55.585 198.285 58.4553V220.239C198.285 223.109 195.966 225.429 193.095 225.429Z" fill="#C0D56B"/>
<path d="M182.647 216.115H46.9069C44.0452 216.115 41.7168 213.796 41.7168 210.925V49.1501C41.7168 46.2883 44.0367 43.96 46.9069 43.96H182.638C185.5 43.96 187.828 46.2799 187.828 49.1501V210.934C187.828 213.796 185.509 216.115 182.647 216.115Z" fill="#D6E29A"/>
<path d="M168.135 62.3923H61.4198C59.7857 62.3923 58.4648 61.0714 58.4648 59.4373C58.4648 57.8032 59.7857 56.4824 61.4198 56.4824H168.135C169.769 56.4824 171.09 57.8032 171.09 59.4373C171.09 61.0714 169.769 62.3923 168.135 62.3923Z" fill="#AECA3B"/>
<path d="M168.135 79.258H61.4198C59.7857 79.258 58.4648 77.9372 58.4648 76.3031C58.4648 74.669 59.7857 73.3481 61.4198 73.3481H168.135C169.769 73.3481 171.09 74.669 171.09 76.3031C171.09 77.9372 169.769 79.258 168.135 79.258Z" fill="#AECA3B"/>
<path d="M107.564 99.1466H58.2616C57.508 99.1466 56.8984 97.8258 56.8984 96.1917C56.8984 94.5576 57.508 93.2368 58.2616 93.2368H107.564C108.317 93.2368 108.927 94.5576 108.927 96.1917C108.927 97.8258 108.317 99.1466 107.564 99.1466Z" fill="#AECA3B"/>
<path d="M107.564 119.027H58.2616C57.508 119.027 56.8984 117.706 56.8984 116.072C56.8984 114.438 57.508 113.117 58.2616 113.117H107.564C108.317 113.117 108.927 114.438 108.927 116.072C108.927 117.706 108.317 119.027 107.564 119.027Z" fill="#AECA3B"/>
<path d="M107.564 135.952H58.2616C57.508 135.952 56.8984 134.631 56.8984 132.997C56.8984 131.363 57.508 130.042 58.2616 130.042H107.564C108.317 130.042 108.927 131.363 108.927 132.997C108.927 134.631 108.317 135.952 107.564 135.952Z" fill="#AECA3B"/>
<path d="M107.564 155.586H58.2616C57.508 155.586 56.8984 154.265 56.8984 152.631C56.8984 150.997 57.508 149.676 58.2616 149.676H107.564C108.317 149.676 108.927 150.997 108.927 152.631C108.927 154.265 108.317 155.586 107.564 155.586Z" fill="#AECA3B"/>
<path d="M170.429 155.586H121.127C120.373 155.586 119.764 154.265 119.764 152.631C119.764 150.997 120.373 149.676 121.127 149.676H170.429C171.183 149.676 171.792 150.997 171.792 152.631C171.792 154.265 171.183 155.586 170.429 155.586Z" fill="#AECA3B"/>
<path d="M170.429 135.952H121.127C120.373 135.952 119.764 134.631 119.764 132.997C119.764 131.363 120.373 130.042 121.127 130.042H170.429C171.183 130.042 171.792 131.363 171.792 132.997C171.792 134.631 171.183 135.952 170.429 135.952Z" fill="#AECA3B"/>
<path d="M168.745 118.273H122.813C121.754 118.273 120.891 117.418 120.891 116.351V95.1417C120.891 94.0833 121.746 93.2197 122.813 93.2197H168.745C169.803 93.2197 170.667 94.0749 170.667 95.1417V116.351C170.659 117.409 169.803 118.273 168.745 118.273Z" fill="#AECA3B"/>
</svg>
