<svg width="240" height="240" viewBox="0 0 240 240" fill="none" xmlns="http://www.w3.org/2000/svg">
<path d="M178.064 132.531L183.627 122.185L205.615 142.988H178.064V132.531Z" fill="#6556A0"/>
<path d="M170.225 132.531L180.131 126.537L197.767 142.988H170.225V132.531Z" fill="#4A4595"/>
<path d="M61.9338 132.531L56.3711 122.185L34.3828 142.988H61.9338V132.531Z" fill="#6556A0"/>
<path d="M69.7834 132.531L59.8688 126.537L42.2324 142.988H69.7834V132.531Z" fill="#4A4595"/>
<path d="M185.788 15.105H54.2051V199.41H185.788V15.105Z" fill="#D6E29A"/>
<path d="M176.271 28.8296H62.875V89.9345H176.271V28.8296Z" fill="white"/>
<path d="M143.25 106.538H83.4485C81.6789 106.538 80.248 105.107 80.248 103.338C80.248 101.568 81.6789 100.137 83.4485 100.137H143.25C145.019 100.137 146.45 101.568 146.45 103.338C146.45 105.107 145.011 106.538 143.25 106.538Z" fill="white"/>
<path d="M160.107 122.185H84.3036C82.0599 122.185 80.248 120.754 80.248 118.984C80.248 117.215 82.0599 115.784 84.3036 115.784H160.107C162.351 115.784 164.163 117.215 164.163 118.984C164.163 120.754 162.342 122.185 160.107 122.185Z" fill="white"/>
<path d="M143.25 137.958H83.4485C81.6789 137.958 80.248 136.527 80.248 134.758C80.248 132.988 81.6789 131.557 83.4485 131.557H143.25C145.019 131.557 146.45 132.988 146.45 134.758C146.45 136.527 145.011 137.958 143.25 137.958Z" fill="white"/>
<path opacity="0.25" d="M185.796 174.357V15.105H110.678C104.387 31.3697 96.8349 37.8129 89.7566 39.7857C82.4074 41.8347 74.8212 41.8685 68.5811 45.3823C60.0889 50.1745 56.9393 55.3054 53.9844 67.6838V174.357H185.796Z" fill="#AECA3B"/>
<path d="M76.6074 149.583L84.6085 163.19C85.3452 164.443 86.6829 165.205 88.1307 165.205H151.86C153.308 165.205 154.654 164.434 155.383 163.19L163.384 149.583C165.788 145.494 170.174 142.988 174.915 142.988H205.608V208.021C205.608 217.343 198.047 224.904 188.725 224.904H51.2578C41.9359 224.904 34.375 217.343 34.375 208.021V142.988H65.0672C69.817 142.988 74.2028 145.494 76.6074 149.583Z" fill="#6556A0"/>
<path d="M205.624 142.979V208.013C205.624 217.343 198.063 224.895 188.741 224.895H61.5273L122.294 165.204H151.86C153.308 165.204 154.654 164.451 155.382 163.198L163.391 149.592C165.796 145.494 170.19 142.987 174.923 142.987H205.624V142.979Z" fill="#4A4595"/>
<path d="M129.602 59.3607C128.086 57.9214 125.808 56.8546 122.633 56.1095V49.6493C123.963 50.2759 125.165 51.3935 126.198 52.9768L126.782 53.8658L131.515 48.972L131.024 48.32C128.713 45.272 125.893 43.3923 122.633 42.7489V37.6519H118.129V42.6219C116.486 42.842 114.996 43.3161 113.701 44.0443C112.168 44.8994 110.949 46.0679 110.06 47.4987C109.171 48.9466 108.722 50.6061 108.722 52.418C108.722 55.1104 109.569 57.2948 111.237 58.9205C112.719 60.3683 114.971 61.4605 117.917 62.1717V69.4532C115.936 68.9113 114.268 67.6836 112.829 65.7447L112.228 64.9319L107.639 69.8088L108.121 70.4523C109.408 72.1541 110.966 73.5172 112.77 74.4994C114.344 75.3545 116.072 75.9049 117.917 76.1589V81.1289H122.379V76.1589C124.132 75.9133 125.707 75.4053 127.062 74.6264C128.653 73.7204 129.906 72.5097 130.787 71.0365C131.667 69.5463 132.116 67.8275 132.116 65.931C132.133 63.1623 131.278 60.961 129.602 59.3607ZM125.14 66.1765C125.14 67.1248 124.852 67.8783 124.251 68.4795C123.793 68.9367 123.167 69.2754 122.388 69.4786V63.2555C123.539 63.6534 124.132 64.0429 124.428 64.3308C124.911 64.788 125.14 65.3806 125.14 66.1765ZM115.631 52.2402C115.631 51.4273 115.919 50.7585 116.503 50.1997C116.944 49.7848 117.477 49.48 118.129 49.2937V55.1189C117.333 54.831 116.732 54.5008 116.343 54.1198C115.868 53.6456 115.631 53.036 115.631 52.2402Z" fill="#AECA3B"/>
</svg>
