<svg width="240" height="240" viewBox="0 0 240 240" fill="none" xmlns="http://www.w3.org/2000/svg">
<path d="M52.8398 135.681L67.6313 112.99H89.8144L79.1039 135.681H52.8398Z" fill="#D6E29A"/>
<path d="M57.4297 135.681L72.2212 112.99H94.4042L83.6937 135.681H57.4297Z" fill="#AECA3B"/>
<path d="M185.432 135.681L170.64 112.99H148.457L159.168 135.681H185.432Z" fill="#D6E29A"/>
<path d="M180.842 135.681L166.05 112.99H143.867L154.578 135.681H180.842Z" fill="#AECA3B"/>
<path d="M163.755 183.019H74.5146C69.4007 183.019 65.252 178.87 65.252 173.756V38.6172C65.252 33.5032 69.4007 29.3545 74.5146 29.3545H163.763C168.877 29.3545 173.026 33.5032 173.026 38.6172V173.756C173.017 178.878 168.869 183.019 163.755 183.019Z" fill="#9F8CC2"/>
<path d="M139.328 139.203L121.683 156.848C120.278 158.253 117.992 158.253 116.586 156.848L98.9416 139.203C96.6894 136.951 93.6329 135.681 90.4409 135.681H52.8398V200.062C52.8398 205.904 57.5813 210.646 63.4233 210.646H119.135H174.846C180.689 210.646 185.43 205.904 185.43 200.062V135.681H147.829C144.637 135.681 141.58 136.951 139.328 139.203Z" fill="#C0D56B"/>
<path d="M148.878 80.2991H93.5563C92.1762 80.2991 91.0586 79.1815 91.0586 77.8014C91.0586 76.4213 92.1762 75.3037 93.5563 75.3037H148.887C150.267 75.3037 151.385 76.4213 151.385 77.8014C151.376 79.1815 150.258 80.2991 148.878 80.2991Z" fill="#4A4595"/>
<path d="M148.878 91.8563H93.5563C92.1762 91.8563 91.0586 90.7386 91.0586 89.3586C91.0586 87.9785 92.1762 86.8608 93.5563 86.8608H148.887C150.267 86.8608 151.385 87.9785 151.385 89.3586C151.385 90.7386 150.258 91.8563 148.878 91.8563Z" fill="#4A4595"/>
<path d="M148.878 103.422H93.5563C92.1762 103.422 91.0586 102.305 91.0586 100.924C91.0586 99.5444 92.1762 98.4268 93.5563 98.4268H148.887C150.267 98.4268 151.385 99.5444 151.385 100.924C151.385 102.305 150.258 103.422 148.878 103.422Z" fill="#4A4595"/>
<path d="M122.962 114.979H93.5563C92.1762 114.979 91.0586 113.862 91.0586 112.482C91.0586 111.102 92.1762 109.984 93.5563 109.984H122.962C124.342 109.984 125.459 111.102 125.459 112.482C125.459 113.862 124.342 114.979 122.962 114.979Z" fill="#4A4595"/>
<path d="M135.873 29.3628V49.844C135.873 50.8007 137.448 51.1563 138.091 50.352L142.604 44.62C143.078 44.0273 144.171 44.0273 144.636 44.62L149.149 50.352C149.784 51.1648 151.367 50.8007 151.367 49.844V29.3628" fill="#4A4595"/>
<path d="M206.581 99.6711C205.937 99.6711 205.302 99.4341 204.803 98.9515C203.787 97.9693 203.761 96.3521 204.743 95.3361L213.837 85.9126C214.819 84.8966 216.436 84.8712 217.452 85.8533C218.468 86.8355 218.494 88.4526 217.511 89.4686L208.418 98.8922C207.919 99.4087 207.25 99.6711 206.581 99.6711Z" fill="#6556A0"/>
<path d="M208.046 186.075C207.902 186.075 207.758 186.058 207.623 186.032C206.438 185.795 205.667 184.644 205.896 183.459L208.072 172.46C208.309 171.275 209.46 170.496 210.645 170.733C211.831 170.97 212.601 172.122 212.373 173.307L210.197 184.305C209.985 185.355 209.071 186.075 208.046 186.075Z" fill="#6556A0"/>
<path d="M226.596 171.148C225.546 171.148 224.589 170.454 224.293 169.396L220.991 157.602C220.635 156.332 221.381 155.011 222.651 154.655C223.929 154.3 225.241 155.045 225.597 156.315L228.899 168.109C229.255 169.379 228.51 170.7 227.24 171.055C227.028 171.123 226.808 171.148 226.596 171.148Z" fill="#6556A0"/>
<path d="M24.8832 160.691C24.3498 160.691 23.808 160.53 23.3423 160.2L12.1492 152.292C10.9384 151.437 10.6506 149.769 11.5057 148.558C12.3608 147.348 14.0288 147.06 15.2396 147.915L26.4327 155.823C27.6434 156.678 27.9313 158.346 27.0762 159.557C26.5512 160.302 25.7215 160.691 24.8832 160.691Z" fill="#6556A0"/>
<path d="M25.4841 139.736C24.5273 139.736 23.6637 139.067 23.452 138.093L21.2253 127.705C20.9882 126.587 21.6994 125.478 22.817 125.241C23.9346 125.004 25.0438 125.715 25.2809 126.833L27.5076 137.221C27.7447 138.339 27.0335 139.448 25.9159 139.685C25.7719 139.719 25.628 139.736 25.4841 139.736Z" fill="#6556A0"/>
<path d="M20.9216 75.3121C20.4221 75.3121 19.931 75.1259 19.55 74.7449C18.788 73.9829 18.788 72.7552 19.55 71.9932L26.5859 64.9573C27.3479 64.1952 28.5756 64.1952 29.3377 64.9573C30.0997 65.7193 30.0997 66.947 29.3377 67.709L22.3017 74.7449C21.9123 75.1174 21.4127 75.3121 20.9216 75.3121Z" fill="#6556A0"/>
<path d="M42.7149 44.5946C42.029 44.5946 41.3602 44.2813 40.9199 43.6886L34.0872 34.5021C33.3506 33.5115 33.5538 32.106 34.5444 31.3694C35.535 30.6328 36.9405 30.836 37.6771 31.8266L44.5098 41.0131C45.2464 42.0037 45.0432 43.4092 44.0526 44.1458C43.6462 44.4506 43.1805 44.5946 42.7149 44.5946Z" fill="#6556A0"/>
</svg>
