<svg width="576" height="483" viewBox="0 0 576 483" fill="none" xmlns="http://www.w3.org/2000/svg">
<g filter="url(#filter0_d_328_610)">
<g clip-path="url(#clip0_328_610)">
<rect x="28" y="28" width="520" height="427" rx="36" fill="white"/>
<path d="M69.856 336.32C68.064 336.32 66.336 335.968 64.672 335.264C63.008 334.56 61.536 333.568 60.256 332.288L62.304 329.92C63.52 331.115 64.7573 332 66.016 332.576C67.296 333.152 68.6293 333.44 70.016 333.44C71.104 333.44 72.0533 333.291 72.864 332.992C73.696 332.672 74.336 332.224 74.784 331.648C75.232 331.072 75.456 330.421 75.456 329.696C75.456 328.693 75.104 327.925 74.4 327.392C73.696 326.859 72.5333 326.453 70.912 326.176L67.168 325.568C65.12 325.205 63.584 324.544 62.56 323.584C61.5573 322.624 61.056 321.344 61.056 319.744C61.056 318.464 61.3973 317.344 62.08 316.384C62.7627 315.403 63.7227 314.645 64.96 314.112C66.2187 313.579 67.6693 313.312 69.312 313.312C70.9333 313.312 72.5227 313.579 74.08 314.112C75.6587 314.624 77.0773 315.371 78.336 316.352L76.48 318.912C74.0693 317.077 71.6267 316.16 69.152 316.16C68.1707 316.16 67.3173 316.299 66.592 316.576C65.8667 316.853 65.3013 317.248 64.896 317.76C64.4907 318.251 64.288 318.827 64.288 319.488C64.288 320.405 64.5973 321.109 65.216 321.6C65.8347 322.069 66.8587 322.411 68.288 322.624L71.904 323.232C74.272 323.616 76.0107 324.309 77.12 325.312C78.2293 326.315 78.784 327.691 78.784 329.44C78.784 330.805 78.4107 332.011 77.664 333.056C76.9173 334.08 75.872 334.88 74.528 335.456C73.184 336.032 71.6267 336.32 69.856 336.32ZM79.9845 336L89.2325 313.6H93.2005L102.353 336H98.7045L96.1125 329.44H86.0965L83.4725 336H79.9845ZM87.1845 326.656H95.0245L91.1205 316.8L87.1845 326.656ZM108.495 336L99.3432 313.6H102.959L110.543 332.672L118.255 313.6H121.711L112.431 336H108.495ZM124.661 336V313.6H128.021V336H124.661ZM133.238 336V313.6H136.502L149.014 330.24V313.6H152.182V336H149.238L136.438 318.848V336H133.238ZM168.161 336.352C166.519 336.352 164.983 336.053 163.553 335.456C162.145 334.859 160.908 334.037 159.841 332.992C158.775 331.925 157.943 330.699 157.345 329.312C156.748 327.904 156.449 326.4 156.449 324.8C156.449 323.2 156.737 321.707 157.313 320.32C157.911 318.912 158.743 317.685 159.809 316.64C160.876 315.573 162.113 314.741 163.521 314.144C164.929 313.547 166.455 313.248 168.097 313.248C169.868 313.248 171.543 313.589 173.121 314.272C174.7 314.955 176.033 315.904 177.121 317.12L174.817 319.36C174.007 318.4 173.004 317.664 171.809 317.152C170.636 316.619 169.399 316.352 168.097 316.352C166.924 316.352 165.836 316.565 164.833 316.992C163.852 317.419 162.988 318.016 162.241 318.784C161.495 319.531 160.908 320.416 160.481 321.44C160.076 322.464 159.873 323.584 159.873 324.8C159.873 325.995 160.076 327.115 160.481 328.16C160.908 329.184 161.495 330.08 162.241 330.848C163.009 331.616 163.895 332.213 164.897 332.64C165.9 333.067 166.988 333.28 168.161 333.28C169.484 333.28 170.679 333.003 171.745 332.448C172.833 331.893 173.719 331.136 174.401 330.176C175.084 329.195 175.5 328.096 175.649 326.88H168.193V323.936H179.169V325.088C179.169 326.688 178.892 328.171 178.337 329.536C177.783 330.901 177.004 332.096 176.001 333.12C175.02 334.144 173.857 334.944 172.513 335.52C171.169 336.075 169.719 336.352 168.161 336.352ZM190.915 336.32C189.123 336.32 187.395 335.968 185.731 335.264C184.067 334.56 182.595 333.568 181.315 332.288L183.363 329.92C184.579 331.115 185.816 332 187.075 332.576C188.355 333.152 189.688 333.44 191.075 333.44C192.163 333.44 193.112 333.291 193.923 332.992C194.755 332.672 195.395 332.224 195.843 331.648C196.291 331.072 196.515 330.421 196.515 329.696C196.515 328.693 196.163 327.925 195.459 327.392C194.755 326.859 193.592 326.453 191.971 326.176L188.227 325.568C186.179 325.205 184.643 324.544 183.619 323.584C182.616 322.624 182.115 321.344 182.115 319.744C182.115 318.464 182.456 317.344 183.139 316.384C183.821 315.403 184.781 314.645 186.019 314.112C187.277 313.579 188.728 313.312 190.371 313.312C191.992 313.312 193.581 313.579 195.139 314.112C196.717 314.624 198.136 315.371 199.395 316.352L197.539 318.912C195.128 317.077 192.685 316.16 190.211 316.16C189.229 316.16 188.376 316.299 187.651 316.576C186.925 316.853 186.36 317.248 185.955 317.76C185.549 318.251 185.347 318.827 185.347 319.488C185.347 320.405 185.656 321.109 186.275 321.6C186.893 322.069 187.917 322.411 189.347 322.624L192.963 323.232C195.331 323.616 197.069 324.309 198.179 325.312C199.288 326.315 199.843 327.691 199.843 329.44C199.843 330.805 199.469 332.011 198.723 333.056C197.976 334.08 196.931 334.88 195.587 335.456C194.243 336.032 192.685 336.32 190.915 336.32ZM208.683 336L217.931 313.6H221.899L231.051 336H227.403L224.811 329.44H214.795L212.171 336H208.683ZM215.883 326.656H223.723L219.819 316.8L215.883 326.656ZM243.628 336.352C241.964 336.352 240.418 336.064 238.988 335.488C237.58 334.891 236.332 334.069 235.244 333.024C234.178 331.957 233.346 330.731 232.748 329.344C232.172 327.936 231.884 326.421 231.884 324.8C231.884 323.179 232.172 321.675 232.748 320.288C233.346 318.88 234.178 317.653 235.244 316.608C236.332 315.541 237.591 314.72 239.02 314.144C240.45 313.547 241.986 313.248 243.628 313.248C244.802 313.248 245.943 313.408 247.052 313.728C248.183 314.027 249.218 314.464 250.156 315.04C251.116 315.616 251.948 316.309 252.652 317.12L250.412 319.424C249.58 318.421 248.567 317.664 247.372 317.152C246.178 316.619 244.93 316.352 243.628 316.352C242.434 316.352 241.324 316.565 240.3 316.992C239.298 317.419 238.423 318.016 237.676 318.784C236.93 319.531 236.343 320.416 235.916 321.44C235.511 322.464 235.308 323.584 235.308 324.8C235.308 325.995 235.511 327.104 235.916 328.128C236.343 329.152 236.94 330.048 237.708 330.816C238.476 331.584 239.372 332.181 240.396 332.608C241.42 333.035 242.53 333.248 243.724 333.248C245.026 333.248 246.252 332.992 247.404 332.48C248.578 331.947 249.57 331.2 250.38 330.24L252.588 332.48C251.842 333.269 250.988 333.963 250.028 334.56C249.09 335.136 248.066 335.584 246.956 335.904C245.868 336.203 244.759 336.352 243.628 336.352ZM266.831 336.352C265.167 336.352 263.62 336.064 262.191 335.488C260.783 334.891 259.535 334.069 258.447 333.024C257.38 331.957 256.548 330.731 255.951 329.344C255.375 327.936 255.087 326.421 255.087 324.8C255.087 323.179 255.375 321.675 255.951 320.288C256.548 318.88 257.38 317.653 258.447 316.608C259.535 315.541 260.794 314.72 262.223 314.144C263.652 313.547 265.188 313.248 266.831 313.248C268.004 313.248 269.146 313.408 270.255 313.728C271.386 314.027 272.42 314.464 273.359 315.04C274.319 315.616 275.151 316.309 275.855 317.12L273.615 319.424C272.783 318.421 271.77 317.664 270.575 317.152C269.38 316.619 268.132 316.352 266.831 316.352C265.636 316.352 264.527 316.565 263.503 316.992C262.5 317.419 261.626 318.016 260.879 318.784C260.132 319.531 259.546 320.416 259.119 321.44C258.714 322.464 258.511 323.584 258.511 324.8C258.511 325.995 258.714 327.104 259.119 328.128C259.546 329.152 260.143 330.048 260.911 330.816C261.679 331.584 262.575 332.181 263.599 332.608C264.623 333.035 265.732 333.248 266.927 333.248C268.228 333.248 269.455 332.992 270.607 332.48C271.78 331.947 272.772 331.2 273.583 330.24L275.791 332.48C275.044 333.269 274.191 333.963 273.231 334.56C272.292 335.136 271.268 335.584 270.159 335.904C269.071 336.203 267.962 336.352 266.831 336.352ZM289.937 336.352C288.316 336.352 286.801 336.064 285.393 335.488C283.985 334.891 282.737 334.069 281.649 333.024C280.583 331.957 279.751 330.731 279.153 329.344C278.577 327.936 278.289 326.421 278.289 324.8C278.289 323.179 278.577 321.675 279.153 320.288C279.751 318.88 280.583 317.653 281.649 316.608C282.737 315.541 283.985 314.72 285.393 314.144C286.801 313.547 288.316 313.248 289.937 313.248C291.559 313.248 293.073 313.547 294.481 314.144C295.911 314.72 297.159 315.541 298.225 316.608C299.292 317.653 300.124 318.88 300.721 320.288C301.319 321.675 301.617 323.179 301.617 324.8C301.617 326.421 301.319 327.936 300.721 329.344C300.124 330.731 299.292 331.957 298.225 333.024C297.159 334.069 295.911 334.891 294.481 335.488C293.073 336.064 291.559 336.352 289.937 336.352ZM289.969 333.248C291.121 333.248 292.188 333.035 293.169 332.608C294.172 332.181 295.047 331.595 295.793 330.848C296.54 330.08 297.127 329.184 297.553 328.16C297.98 327.115 298.193 325.995 298.193 324.8C298.193 323.584 297.98 322.464 297.553 321.44C297.127 320.416 296.54 319.531 295.793 318.784C295.047 318.016 294.172 317.419 293.169 316.992C292.188 316.565 291.121 316.352 289.969 316.352C288.796 316.352 287.708 316.565 286.705 316.992C285.703 317.419 284.828 318.016 284.081 318.784C283.335 319.531 282.748 320.416 282.321 321.44C281.916 322.464 281.713 323.573 281.713 324.768C281.713 325.984 281.916 327.115 282.321 328.16C282.748 329.184 283.335 330.08 284.081 330.848C284.828 331.595 285.703 332.181 286.705 332.608C287.708 333.035 288.796 333.248 289.969 333.248ZM314.916 336.352C312.974 336.352 311.289 335.947 309.86 335.136C308.43 334.325 307.332 333.184 306.564 331.712C305.796 330.219 305.412 328.459 305.412 326.432V313.6H308.772V326.432C308.772 327.819 309.017 329.024 309.508 330.048C310.02 331.072 310.734 331.861 311.652 332.416C312.59 332.971 313.678 333.248 314.916 333.248C316.196 333.248 317.294 332.971 318.212 332.416C319.129 331.861 319.833 331.072 320.324 330.048C320.836 329.024 321.092 327.819 321.092 326.432V313.6H324.452V326.432C324.452 328.459 324.057 330.219 323.268 331.712C322.5 333.184 321.401 334.325 319.972 335.136C318.542 335.947 316.857 336.352 314.916 336.352ZM329.248 336V313.6H332.512L345.024 330.24V313.6H348.192V336H345.248L332.448 318.848V336H329.248ZM359.563 336V316.576H351.691V313.6H370.795V316.576H362.923V336H359.563ZM382.144 336.32C380.352 336.32 378.624 335.968 376.96 335.264C375.296 334.56 373.824 333.568 372.544 332.288L374.592 329.92C375.808 331.115 377.045 332 378.304 332.576C379.584 333.152 380.917 333.44 382.304 333.44C383.392 333.44 384.341 333.291 385.152 332.992C385.984 332.672 386.624 332.224 387.072 331.648C387.52 331.072 387.744 330.421 387.744 329.696C387.744 328.693 387.392 327.925 386.688 327.392C385.984 326.859 384.821 326.453 383.2 326.176L379.456 325.568C377.408 325.205 375.872 324.544 374.848 323.584C373.845 322.624 373.344 321.344 373.344 319.744C373.344 318.464 373.685 317.344 374.368 316.384C375.05 315.403 376.01 314.645 377.248 314.112C378.506 313.579 379.957 313.312 381.6 313.312C383.221 313.312 384.81 313.579 386.368 314.112C387.946 314.624 389.365 315.371 390.624 316.352L388.768 318.912C386.357 317.077 383.914 316.16 381.44 316.16C380.458 316.16 379.605 316.299 378.88 316.576C378.154 316.853 377.589 317.248 377.184 317.76C376.778 318.251 376.576 318.827 376.576 319.488C376.576 320.405 376.885 321.109 377.504 321.6C378.122 322.069 379.146 322.411 380.576 322.624L384.192 323.232C386.56 323.616 388.298 324.309 389.408 325.312C390.517 326.315 391.072 327.691 391.072 329.44C391.072 330.805 390.698 332.011 389.952 333.056C389.205 334.08 388.16 334.88 386.816 335.456C385.472 336.032 383.914 336.32 382.144 336.32ZM396.552 336.224C395.998 336.224 395.518 336.032 395.112 335.648C394.728 335.243 394.536 334.763 394.536 334.208C394.536 333.653 394.728 333.184 395.112 332.8C395.518 332.395 395.998 332.192 396.552 332.192C397.107 332.192 397.576 332.395 397.96 332.8C398.366 333.184 398.568 333.653 398.568 334.208C398.568 334.763 398.366 335.243 397.96 335.648C397.576 336.032 397.107 336.224 396.552 336.224ZM396.552 323.424C395.998 323.424 395.518 323.232 395.112 322.848C394.728 322.443 394.536 321.963 394.536 321.408C394.536 320.853 394.728 320.384 395.112 320C395.518 319.595 395.998 319.392 396.552 319.392C397.107 319.392 397.576 319.595 397.96 320C398.366 320.384 398.568 320.853 398.568 321.408C398.568 321.963 398.366 322.443 397.96 322.848C397.576 323.232 397.107 323.424 396.552 323.424Z" fill="black"/>
<path d="M61.42 378V364H71.74V365.84H63.52V370.04H68.92V371.82H63.52V376.16H71.82V378H61.42ZM77.3586 378.18C76.6253 378.18 75.9786 378.053 75.4186 377.8C74.8586 377.533 74.4186 377.167 74.0986 376.7C73.7786 376.233 73.6186 375.693 73.6186 375.08C73.6186 374.12 73.9853 373.367 74.7186 372.82C75.4519 372.26 76.4586 371.98 77.7386 371.98C78.7386 371.98 79.6653 372.173 80.5186 372.56V371.48C80.5186 370.747 80.3053 370.2 79.8786 369.84C79.4653 369.48 78.8519 369.3 78.0386 369.3C77.5719 369.3 77.0853 369.373 76.5786 369.52C76.0719 369.653 75.5053 369.867 74.8786 370.16L74.1386 368.66C74.9119 368.3 75.6319 368.04 76.2986 367.88C76.9653 367.707 77.6386 367.62 78.3186 367.62C79.6386 367.62 80.6586 367.933 81.3786 368.56C82.1119 369.187 82.4786 370.08 82.4786 371.24V378H80.5186V377.12C80.0653 377.48 79.5786 377.747 79.0586 377.92C78.5386 378.093 77.9719 378.18 77.3586 378.18ZM75.5386 375.04C75.5386 375.533 75.7453 375.933 76.1586 376.24C76.5853 376.533 77.1386 376.68 77.8186 376.68C78.3519 376.68 78.8386 376.607 79.2786 376.46C79.7319 376.3 80.1453 376.053 80.5186 375.72V374C80.1319 373.773 79.7253 373.613 79.2986 373.52C78.8853 373.413 78.4186 373.36 77.8986 373.36C77.1653 373.36 76.5853 373.513 76.1586 373.82C75.7453 374.113 75.5386 374.52 75.5386 375.04ZM85.1831 378V367.82H87.1831V369.12C87.5031 368.64 87.8965 368.267 88.3631 368C88.8431 367.72 89.3831 367.58 89.9831 367.58C90.3965 367.593 90.7365 367.653 91.0031 367.76V369.56C90.8165 369.48 90.6231 369.427 90.4231 369.4C90.2231 369.36 90.0231 369.34 89.8231 369.34C89.2365 369.34 88.7165 369.5 88.2631 369.82C87.8098 370.127 87.4498 370.58 87.1831 371.18V378H85.1831ZM93.005 378V367.82H95.005V368.86C95.7917 368.033 96.8117 367.62 98.065 367.62C98.8517 367.62 99.5383 367.787 100.125 368.12C100.725 368.453 101.192 368.92 101.525 369.52C101.872 370.12 102.045 370.813 102.045 371.6V378H100.045V371.94C100.045 371.14 99.8183 370.513 99.365 370.06C98.925 369.593 98.305 369.36 97.505 369.36C96.9717 369.36 96.4917 369.473 96.065 369.7C95.6383 369.927 95.285 370.253 95.005 370.68V378H93.005ZM109.332 378V367.82H111.332V378H109.332ZM110.332 366.18C109.999 366.18 109.712 366.06 109.472 365.82C109.232 365.567 109.112 365.273 109.112 364.94C109.112 364.593 109.232 364.307 109.472 364.08C109.712 363.84 109.999 363.72 110.332 363.72C110.679 363.72 110.972 363.84 111.212 364.08C111.452 364.307 111.572 364.593 111.572 364.94C111.572 365.273 111.452 365.567 111.212 365.82C110.972 366.06 110.679 366.18 110.332 366.18ZM114.088 378V367.82H116.088V368.86C116.874 368.033 117.894 367.62 119.148 367.62C119.934 367.62 120.621 367.787 121.208 368.12C121.808 368.453 122.274 368.92 122.608 369.52C122.954 370.12 123.128 370.813 123.128 371.6V378H121.128V371.94C121.128 371.14 120.901 370.513 120.448 370.06C120.008 369.593 119.388 369.36 118.588 369.36C118.054 369.36 117.574 369.473 117.148 369.7C116.721 369.927 116.368 370.253 116.088 370.68V378H114.088ZM129.903 378.18C128.916 378.18 128.163 377.953 127.643 377.5C127.123 377.033 126.863 376.36 126.863 375.48V369.5H124.703V367.82H126.863V365.22L128.843 364.74V367.82H131.843V369.5H128.843V375.02C128.843 375.54 128.956 375.913 129.183 376.14C129.423 376.353 129.809 376.46 130.343 376.46C130.623 376.46 130.869 376.44 131.083 376.4C131.309 376.36 131.549 376.3 131.803 376.22V377.9C131.536 377.993 131.223 378.06 130.863 378.1C130.516 378.153 130.196 378.18 129.903 378.18ZM138.44 378.18C137.44 378.18 136.533 377.947 135.72 377.48C134.92 377.013 134.28 376.38 133.8 375.58C133.333 374.78 133.1 373.887 133.1 372.9C133.1 371.927 133.326 371.047 133.78 370.26C134.233 369.46 134.846 368.827 135.62 368.36C136.393 367.88 137.253 367.64 138.2 367.64C139.146 367.64 139.986 367.88 140.72 368.36C141.453 368.827 142.033 369.467 142.46 370.28C142.9 371.08 143.12 371.987 143.12 373V373.56H135.1C135.206 374.12 135.413 374.62 135.72 375.06C136.04 375.5 136.44 375.847 136.92 376.1C137.413 376.353 137.946 376.48 138.52 376.48C139.013 376.48 139.486 376.407 139.94 376.26C140.406 376.1 140.793 375.873 141.1 375.58L142.38 376.84C141.78 377.293 141.16 377.633 140.52 377.86C139.893 378.073 139.2 378.18 138.44 378.18ZM135.12 372.06H141.14C141.06 371.527 140.873 371.06 140.58 370.66C140.3 370.247 139.946 369.927 139.52 369.7C139.106 369.46 138.653 369.34 138.16 369.34C137.653 369.34 137.186 369.453 136.76 369.68C136.333 369.907 135.973 370.227 135.68 370.64C135.4 371.04 135.213 371.513 135.12 372.06ZM145.425 378V367.82H147.425V369.12C147.745 368.64 148.138 368.267 148.605 368C149.085 367.72 149.625 367.58 150.225 367.58C150.638 367.593 150.978 367.653 151.245 367.76V369.56C151.058 369.48 150.865 369.427 150.665 369.4C150.465 369.36 150.265 369.34 150.065 369.34C149.478 369.34 148.958 369.5 148.505 369.82C148.051 370.127 147.691 370.58 147.425 371.18V378H145.425ZM157.54 378.18C156.54 378.18 155.634 377.947 154.82 377.48C154.02 377.013 153.38 376.38 152.9 375.58C152.434 374.78 152.2 373.887 152.2 372.9C152.2 371.927 152.427 371.047 152.88 370.26C153.334 369.46 153.947 368.827 154.72 368.36C155.494 367.88 156.354 367.64 157.3 367.64C158.247 367.64 159.087 367.88 159.82 368.36C160.554 368.827 161.134 369.467 161.56 370.28C162 371.08 162.22 371.987 162.22 373V373.56H154.2C154.307 374.12 154.514 374.62 154.82 375.06C155.14 375.5 155.54 375.847 156.02 376.1C156.514 376.353 157.047 376.48 157.62 376.48C158.114 376.48 158.587 376.407 159.04 376.26C159.507 376.1 159.894 375.873 160.2 375.58L161.48 376.84C160.88 377.293 160.26 377.633 159.62 377.86C158.994 378.073 158.3 378.18 157.54 378.18ZM154.22 372.06H160.24C160.16 371.527 159.974 371.06 159.68 370.66C159.4 370.247 159.047 369.927 158.62 369.7C158.207 369.46 157.754 369.34 157.26 369.34C156.754 369.34 156.287 369.453 155.86 369.68C155.434 369.907 155.074 370.227 154.78 370.64C154.5 371.04 154.314 371.513 154.22 372.06ZM168.123 378.2C167.243 378.2 166.416 378.073 165.643 377.82C164.883 377.553 164.223 377.18 163.663 376.7L164.763 375.38C165.283 375.793 165.816 376.113 166.363 376.34C166.923 376.553 167.49 376.66 168.063 376.66C168.783 376.66 169.37 376.52 169.823 376.24C170.276 375.96 170.503 375.593 170.503 375.14C170.503 374.767 170.37 374.473 170.103 374.26C169.836 374.047 169.423 373.9 168.863 373.82L167.023 373.56C166.01 373.413 165.25 373.1 164.743 372.62C164.236 372.14 163.983 371.5 163.983 370.7C163.983 370.087 164.15 369.553 164.483 369.1C164.816 368.633 165.283 368.273 165.883 368.02C166.483 367.753 167.183 367.62 167.983 367.62C168.716 367.62 169.423 367.727 170.103 367.94C170.783 368.153 171.436 368.487 172.063 368.94L171.043 370.26C170.483 369.887 169.936 369.613 169.403 369.44C168.883 369.267 168.356 369.18 167.823 369.18C167.21 369.18 166.716 369.313 166.343 369.58C165.97 369.833 165.783 370.167 165.783 370.58C165.783 370.953 165.91 371.247 166.163 371.46C166.43 371.66 166.863 371.8 167.463 371.88L169.303 372.14C170.316 372.287 171.083 372.6 171.603 373.08C172.123 373.547 172.383 374.18 172.383 374.98C172.383 375.593 172.196 376.147 171.823 376.64C171.45 377.12 170.943 377.5 170.303 377.78C169.663 378.06 168.936 378.2 168.123 378.2ZM178.485 378.18C177.498 378.18 176.745 377.953 176.225 377.5C175.705 377.033 175.445 376.36 175.445 375.48V369.5H173.285V367.82H175.445V365.22L177.425 364.74V367.82H180.425V369.5H177.425V375.02C177.425 375.54 177.538 375.913 177.765 376.14C178.005 376.353 178.391 376.46 178.925 376.46C179.205 376.46 179.451 376.44 179.665 376.4C179.891 376.36 180.131 376.3 180.385 376.22V377.9C180.118 377.993 179.805 378.06 179.445 378.1C179.098 378.153 178.778 378.18 178.485 378.18ZM188.778 378L185.938 367.82H187.878L189.858 375.3L192.178 367.82H193.898L196.218 375.3L198.198 367.82H200.078L197.218 378H195.298L193.018 370.54L190.718 378H188.778ZM201.907 378V367.82H203.907V378H201.907ZM202.907 366.18C202.573 366.18 202.287 366.06 202.047 365.82C201.807 365.567 201.687 365.273 201.687 364.94C201.687 364.593 201.807 364.307 202.047 364.08C202.287 363.84 202.573 363.72 202.907 363.72C203.253 363.72 203.547 363.84 203.787 364.08C204.027 364.307 204.147 364.593 204.147 364.94C204.147 365.273 204.027 365.567 203.787 365.82C203.547 366.06 203.253 366.18 202.907 366.18ZM211.022 378.18C210.035 378.18 209.282 377.953 208.762 377.5C208.242 377.033 207.982 376.36 207.982 375.48V369.5H205.822V367.82H207.982V365.22L209.962 364.74V367.82H212.962V369.5H209.962V375.02C209.962 375.54 210.075 375.913 210.302 376.14C210.542 376.353 210.929 376.46 211.462 376.46C211.742 376.46 211.989 376.44 212.202 376.4C212.429 376.36 212.669 376.3 212.922 376.22V377.9C212.655 377.993 212.342 378.06 211.982 378.1C211.635 378.153 211.315 378.18 211.022 378.18ZM214.835 378V364L216.835 363.56V368.86C217.622 368.033 218.642 367.62 219.895 367.62C220.682 367.62 221.369 367.787 221.955 368.12C222.555 368.453 223.022 368.92 223.355 369.52C223.702 370.12 223.875 370.813 223.875 371.6V378H221.875V371.94C221.875 371.14 221.649 370.513 221.195 370.06C220.742 369.593 220.122 369.36 219.335 369.36C218.802 369.36 218.322 369.473 217.895 369.7C217.469 369.927 217.115 370.253 216.835 370.68V378H214.835ZM236.043 378.18C235.043 378.18 234.136 377.947 233.323 377.48C232.523 377.013 231.883 376.38 231.403 375.58C230.936 374.78 230.703 373.887 230.703 372.9C230.703 371.927 230.929 371.047 231.383 370.26C231.836 369.46 232.449 368.827 233.223 368.36C233.996 367.88 234.856 367.64 235.803 367.64C236.749 367.64 237.589 367.88 238.323 368.36C239.056 368.827 239.636 369.467 240.063 370.28C240.503 371.08 240.723 371.987 240.723 373V373.56H232.703C232.809 374.12 233.016 374.62 233.323 375.06C233.643 375.5 234.043 375.847 234.523 376.1C235.016 376.353 235.549 376.48 236.123 376.48C236.616 376.48 237.089 376.407 237.543 376.26C238.009 376.1 238.396 375.873 238.703 375.58L239.983 376.84C239.383 377.293 238.763 377.633 238.123 377.86C237.496 378.073 236.803 378.18 236.043 378.18ZM232.723 372.06H238.743C238.663 371.527 238.476 371.06 238.183 370.66C237.903 370.247 237.549 369.927 237.123 369.7C236.709 369.46 236.256 369.34 235.763 369.34C235.256 369.34 234.789 369.453 234.363 369.68C233.936 369.907 233.576 370.227 233.283 370.64C233.003 371.04 232.816 371.513 232.723 372.06ZM246.111 378.18C245.378 378.18 244.731 378.053 244.171 377.8C243.611 377.533 243.171 377.167 242.851 376.7C242.531 376.233 242.371 375.693 242.371 375.08C242.371 374.12 242.738 373.367 243.471 372.82C244.204 372.26 245.211 371.98 246.491 371.98C247.491 371.98 248.418 372.173 249.271 372.56V371.48C249.271 370.747 249.058 370.2 248.631 369.84C248.218 369.48 247.604 369.3 246.791 369.3C246.324 369.3 245.838 369.373 245.331 369.52C244.824 369.653 244.258 369.867 243.631 370.16L242.891 368.66C243.664 368.3 244.384 368.04 245.051 367.88C245.718 367.707 246.391 367.62 247.071 367.62C248.391 367.62 249.411 367.933 250.131 368.56C250.864 369.187 251.231 370.08 251.231 371.24V378H249.271V377.12C248.818 377.48 248.331 377.747 247.811 377.92C247.291 378.093 246.724 378.18 246.111 378.18ZM244.291 375.04C244.291 375.533 244.498 375.933 244.911 376.24C245.338 376.533 245.891 376.68 246.571 376.68C247.104 376.68 247.591 376.607 248.031 376.46C248.484 376.3 248.898 376.053 249.271 375.72V374C248.884 373.773 248.478 373.613 248.051 373.52C247.638 373.413 247.171 373.36 246.651 373.36C245.918 373.36 245.338 373.513 244.911 373.82C244.498 374.113 244.291 374.52 244.291 375.04ZM257.435 378.2C256.555 378.2 255.729 378.073 254.955 377.82C254.195 377.553 253.535 377.18 252.975 376.7L254.075 375.38C254.595 375.793 255.129 376.113 255.675 376.34C256.235 376.553 256.802 376.66 257.375 376.66C258.095 376.66 258.682 376.52 259.135 376.24C259.589 375.96 259.815 375.593 259.815 375.14C259.815 374.767 259.682 374.473 259.415 374.26C259.149 374.047 258.735 373.9 258.175 373.82L256.335 373.56C255.322 373.413 254.562 373.1 254.055 372.62C253.549 372.14 253.295 371.5 253.295 370.7C253.295 370.087 253.462 369.553 253.795 369.1C254.129 368.633 254.595 368.273 255.195 368.02C255.795 367.753 256.495 367.62 257.295 367.62C258.029 367.62 258.735 367.727 259.415 367.94C260.095 368.153 260.749 368.487 261.375 368.94L260.355 370.26C259.795 369.887 259.249 369.613 258.715 369.44C258.195 369.267 257.669 369.18 257.135 369.18C256.522 369.18 256.029 369.313 255.655 369.58C255.282 369.833 255.095 370.167 255.095 370.58C255.095 370.953 255.222 371.247 255.475 371.46C255.742 371.66 256.175 371.8 256.775 371.88L258.615 372.14C259.629 372.287 260.395 372.6 260.915 373.08C261.435 373.547 261.695 374.18 261.695 374.98C261.695 375.593 261.509 376.147 261.135 376.64C260.762 377.12 260.255 377.5 259.615 377.78C258.975 378.06 258.249 378.2 257.435 378.2ZM264.117 382.3C263.904 382.3 263.704 382.287 263.517 382.26C263.33 382.247 263.177 382.22 263.057 382.18V380.42C263.297 380.473 263.59 380.5 263.937 380.5C264.87 380.5 265.544 380 265.957 379L266.397 378.02L262.317 367.82H264.537L267.497 375.58L270.777 367.82H272.937L268.017 379.26C267.697 379.98 267.357 380.56 266.997 381C266.637 381.453 266.224 381.78 265.757 381.98C265.29 382.193 264.744 382.3 264.117 382.3ZM282.379 378.18C281.646 378.18 280.999 378.053 280.439 377.8C279.879 377.533 279.439 377.167 279.119 376.7C278.799 376.233 278.639 375.693 278.639 375.08C278.639 374.12 279.006 373.367 279.739 372.82C280.472 372.26 281.479 371.98 282.759 371.98C283.759 371.98 284.686 372.173 285.539 372.56V371.48C285.539 370.747 285.326 370.2 284.899 369.84C284.486 369.48 283.872 369.3 283.059 369.3C282.592 369.3 282.106 369.373 281.599 369.52C281.092 369.653 280.526 369.867 279.899 370.16L279.159 368.66C279.932 368.3 280.652 368.04 281.319 367.88C281.986 367.707 282.659 367.62 283.339 367.62C284.659 367.62 285.679 367.933 286.399 368.56C287.132 369.187 287.499 370.08 287.499 371.24V378H285.539V377.12C285.086 377.48 284.599 377.747 284.079 377.92C283.559 378.093 282.992 378.18 282.379 378.18ZM280.559 375.04C280.559 375.533 280.766 375.933 281.179 376.24C281.606 376.533 282.159 376.68 282.839 376.68C283.372 376.68 283.859 376.607 284.299 376.46C284.752 376.3 285.166 376.053 285.539 375.72V374C285.152 373.773 284.746 373.613 284.319 373.52C283.906 373.413 283.439 373.36 282.919 373.36C282.186 373.36 281.606 373.513 281.179 373.82C280.766 374.113 280.559 374.52 280.559 375.04ZM294.983 378.18C294.01 378.18 293.123 377.947 292.323 377.48C291.523 377.013 290.89 376.38 290.423 375.58C289.97 374.78 289.743 373.887 289.743 372.9C289.743 371.913 289.977 371.027 290.443 370.24C290.91 369.44 291.537 368.807 292.323 368.34C293.123 367.86 294.01 367.62 294.983 367.62C295.757 367.62 296.497 367.767 297.203 368.06C297.923 368.353 298.543 368.767 299.063 369.3L297.823 370.68C297.437 370.253 297.003 369.933 296.523 369.72C296.043 369.507 295.543 369.4 295.023 369.4C294.41 369.4 293.85 369.553 293.343 369.86C292.85 370.167 292.457 370.587 292.163 371.12C291.87 371.653 291.723 372.247 291.723 372.9C291.723 373.553 291.87 374.147 292.163 374.68C292.457 375.213 292.857 375.64 293.363 375.96C293.87 376.267 294.437 376.42 295.063 376.42C295.583 376.42 296.07 376.32 296.523 376.12C296.977 375.907 297.403 375.6 297.803 375.2L299.023 376.48C298.49 377.027 297.87 377.447 297.163 377.74C296.47 378.033 295.743 378.18 294.983 378.18ZM305.52 378.18C304.547 378.18 303.66 377.947 302.86 377.48C302.06 377.013 301.427 376.38 300.96 375.58C300.507 374.78 300.28 373.887 300.28 372.9C300.28 371.913 300.513 371.027 300.98 370.24C301.447 369.44 302.073 368.807 302.86 368.34C303.66 367.86 304.547 367.62 305.52 367.62C306.293 367.62 307.033 367.767 307.74 368.06C308.46 368.353 309.08 368.767 309.6 369.3L308.36 370.68C307.973 370.253 307.54 369.933 307.06 369.72C306.58 369.507 306.08 369.4 305.56 369.4C304.947 369.4 304.387 369.553 303.88 369.86C303.387 370.167 302.993 370.587 302.7 371.12C302.407 371.653 302.26 372.247 302.26 372.9C302.26 373.553 302.407 374.147 302.7 374.68C302.993 375.213 303.393 375.64 303.9 375.96C304.407 376.267 304.973 376.42 305.6 376.42C306.12 376.42 306.607 376.32 307.06 376.12C307.513 375.907 307.94 375.6 308.34 375.2L309.56 376.48C309.027 377.027 308.407 377.447 307.7 377.74C307.007 378.033 306.28 378.18 305.52 378.18ZM316.157 378.18C315.157 378.18 314.25 377.947 313.437 377.48C312.637 377.013 311.997 376.38 311.517 375.58C311.05 374.78 310.817 373.887 310.817 372.9C310.817 371.927 311.044 371.047 311.497 370.26C311.95 369.46 312.564 368.827 313.337 368.36C314.11 367.88 314.97 367.64 315.917 367.64C316.864 367.64 317.704 367.88 318.437 368.36C319.17 368.827 319.75 369.467 320.177 370.28C320.617 371.08 320.837 371.987 320.837 373V373.56H312.817C312.924 374.12 313.13 374.62 313.437 375.06C313.757 375.5 314.157 375.847 314.637 376.1C315.13 376.353 315.664 376.48 316.237 376.48C316.73 376.48 317.204 376.407 317.657 376.26C318.124 376.1 318.51 375.873 318.817 375.58L320.097 376.84C319.497 377.293 318.877 377.633 318.237 377.86C317.61 378.073 316.917 378.18 316.157 378.18ZM312.837 372.06H318.857C318.777 371.527 318.59 371.06 318.297 370.66C318.017 370.247 317.664 369.927 317.237 369.7C316.824 369.46 316.37 369.34 315.877 369.34C315.37 369.34 314.904 369.453 314.477 369.68C314.05 369.907 313.69 370.227 313.397 370.64C313.117 371.04 312.93 371.513 312.837 372.06ZM326.739 378.2C325.859 378.2 325.033 378.073 324.259 377.82C323.499 377.553 322.839 377.18 322.279 376.7L323.379 375.38C323.899 375.793 324.433 376.113 324.979 376.34C325.539 376.553 326.106 376.66 326.679 376.66C327.399 376.66 327.986 376.52 328.439 376.24C328.893 375.96 329.119 375.593 329.119 375.14C329.119 374.767 328.986 374.473 328.719 374.26C328.453 374.047 328.039 373.9 327.479 373.82L325.639 373.56C324.626 373.413 323.866 373.1 323.359 372.62C322.853 372.14 322.599 371.5 322.599 370.7C322.599 370.087 322.766 369.553 323.099 369.1C323.433 368.633 323.899 368.273 324.499 368.02C325.099 367.753 325.799 367.62 326.599 367.62C327.333 367.62 328.039 367.727 328.719 367.94C329.399 368.153 330.053 368.487 330.679 368.94L329.659 370.26C329.099 369.887 328.553 369.613 328.019 369.44C327.499 369.267 326.973 369.18 326.439 369.18C325.826 369.18 325.333 369.313 324.959 369.58C324.586 369.833 324.399 370.167 324.399 370.58C324.399 370.953 324.526 371.247 324.779 371.46C325.046 371.66 325.479 371.8 326.079 371.88L327.919 372.14C328.933 372.287 329.699 372.6 330.219 373.08C330.739 373.547 330.999 374.18 330.999 374.98C330.999 375.593 330.813 376.147 330.439 376.64C330.066 377.12 329.559 377.5 328.919 377.78C328.279 378.06 327.553 378.2 326.739 378.2ZM336.436 378.2C335.556 378.2 334.73 378.073 333.956 377.82C333.196 377.553 332.536 377.18 331.976 376.7L333.076 375.38C333.596 375.793 334.13 376.113 334.676 376.34C335.236 376.553 335.803 376.66 336.376 376.66C337.096 376.66 337.683 376.52 338.136 376.24C338.59 375.96 338.816 375.593 338.816 375.14C338.816 374.767 338.683 374.473 338.416 374.26C338.15 374.047 337.736 373.9 337.176 373.82L335.336 373.56C334.323 373.413 333.563 373.1 333.056 372.62C332.55 372.14 332.296 371.5 332.296 370.7C332.296 370.087 332.463 369.553 332.796 369.1C333.13 368.633 333.596 368.273 334.196 368.02C334.796 367.753 335.496 367.62 336.296 367.62C337.03 367.62 337.736 367.727 338.416 367.94C339.096 368.153 339.75 368.487 340.376 368.94L339.356 370.26C338.796 369.887 338.25 369.613 337.716 369.44C337.196 369.267 336.67 369.18 336.136 369.18C335.523 369.18 335.03 369.313 334.656 369.58C334.283 369.833 334.096 370.167 334.096 370.58C334.096 370.953 334.223 371.247 334.476 371.46C334.743 371.66 335.176 371.8 335.776 371.88L337.616 372.14C338.63 372.287 339.396 372.6 339.916 373.08C340.436 373.547 340.696 374.18 340.696 374.98C340.696 375.593 340.51 376.147 340.136 376.64C339.763 377.12 339.256 377.5 338.616 377.78C337.976 378.06 337.25 378.2 336.436 378.2ZM65.54 404.18C64.5533 404.18 63.8 403.953 63.28 403.5C62.76 403.033 62.5 402.36 62.5 401.48V395.5H60.34V393.82H62.5V391.22L64.48 390.74V393.82H67.48V395.5H64.48V401.02C64.48 401.54 64.5933 401.913 64.82 402.14C65.06 402.353 65.4467 402.46 65.98 402.46C66.26 402.46 66.5067 402.44 66.72 402.4C66.9467 402.36 67.1867 402.3 67.44 402.22V403.9C67.1733 403.993 66.86 404.06 66.5 404.1C66.1533 404.153 65.8333 404.18 65.54 404.18ZM74.0372 404.2C73.0505 404.2 72.1505 403.967 71.3372 403.5C70.5372 403.033 69.9039 402.4 69.4372 401.6C68.9705 400.8 68.7372 399.907 68.7372 398.92C68.7372 397.933 68.9705 397.04 69.4372 396.24C69.9039 395.44 70.5372 394.807 71.3372 394.34C72.1505 393.86 73.0505 393.62 74.0372 393.62C75.0372 393.62 75.9372 393.86 76.7372 394.34C77.5372 394.807 78.1705 395.44 78.6372 396.24C79.1039 397.04 79.3372 397.933 79.3372 398.92C79.3372 399.907 79.1039 400.8 78.6372 401.6C78.1705 402.4 77.5372 403.033 76.7372 403.5C75.9372 403.967 75.0372 404.2 74.0372 404.2ZM74.0372 402.44C74.6639 402.44 75.2305 402.287 75.7372 401.98C76.2439 401.66 76.6439 401.233 76.9372 400.7C77.2305 400.167 77.3772 399.567 77.3772 398.9C77.3772 398.247 77.2239 397.66 76.9172 397.14C76.6239 396.607 76.2239 396.18 75.7172 395.86C75.2239 395.54 74.6639 395.38 74.0372 395.38C73.4105 395.38 72.8439 395.54 72.3372 395.86C71.8439 396.18 71.4439 396.607 71.1372 397.14C70.8439 397.66 70.6972 398.247 70.6972 398.9C70.6972 399.567 70.8439 400.167 71.1372 400.7C71.4305 401.233 71.8305 401.66 72.3372 401.98C72.8439 402.287 73.4105 402.44 74.0372 402.44ZM86.8881 408.3C86.6748 408.3 86.4748 408.287 86.2881 408.26C86.1015 408.247 85.9481 408.22 85.8281 408.18V406.42C86.0681 406.473 86.3615 406.5 86.7081 406.5C87.6415 406.5 88.3148 406 88.7281 405L89.1681 404.02L85.0881 393.82H87.3081L90.2681 401.58L93.5481 393.82H95.7081L90.7881 405.26C90.4681 405.98 90.1281 406.56 89.7681 407C89.4081 407.453 88.9948 407.78 88.5281 407.98C88.0615 408.193 87.5148 408.3 86.8881 408.3ZM101.897 404.2C100.911 404.2 100.011 403.967 99.1973 403.5C98.3973 403.033 97.764 402.4 97.2973 401.6C96.8307 400.8 96.5973 399.907 96.5973 398.92C96.5973 397.933 96.8307 397.04 97.2973 396.24C97.764 395.44 98.3973 394.807 99.1973 394.34C100.011 393.86 100.911 393.62 101.897 393.62C102.897 393.62 103.797 393.86 104.597 394.34C105.397 394.807 106.031 395.44 106.497 396.24C106.964 397.04 107.197 397.933 107.197 398.92C107.197 399.907 106.964 400.8 106.497 401.6C106.031 402.4 105.397 403.033 104.597 403.5C103.797 403.967 102.897 404.2 101.897 404.2ZM101.897 402.44C102.524 402.44 103.091 402.287 103.597 401.98C104.104 401.66 104.504 401.233 104.797 400.7C105.091 400.167 105.237 399.567 105.237 398.9C105.237 398.247 105.084 397.66 104.777 397.14C104.484 396.607 104.084 396.18 103.577 395.86C103.084 395.54 102.524 395.38 101.897 395.38C101.271 395.38 100.704 395.54 100.197 395.86C99.704 396.18 99.304 396.607 98.9973 397.14C98.704 397.66 98.5573 398.247 98.5573 398.9C98.5573 399.567 98.704 400.167 98.9973 400.7C99.2907 401.233 99.6907 401.66 100.197 401.98C100.704 402.287 101.271 402.44 101.897 402.44ZM113.429 404.2C112.642 404.2 111.949 404.033 111.349 403.7C110.749 403.367 110.282 402.9 109.949 402.3C109.615 401.687 109.449 400.987 109.449 400.2V393.82H111.429V399.86C111.429 400.66 111.655 401.293 112.109 401.76C112.575 402.227 113.195 402.46 113.969 402.46C114.515 402.46 115.002 402.347 115.429 402.12C115.855 401.88 116.202 401.547 116.469 401.12V393.82H118.469V404H116.469V402.96C115.682 403.787 114.669 404.2 113.429 404.2ZM121.236 404V393.82H123.236V395.12C123.556 394.64 123.95 394.267 124.416 394C124.896 393.72 125.436 393.58 126.036 393.58C126.45 393.593 126.79 393.653 127.056 393.76V395.56C126.87 395.48 126.676 395.427 126.476 395.4C126.276 395.36 126.076 395.34 125.876 395.34C125.29 395.34 124.77 395.5 124.316 395.82C123.863 396.127 123.503 396.58 123.236 397.18V404H121.236ZM135.158 404V395.5H132.798V393.82H135.158V392.28C135.158 391.213 135.451 390.4 136.038 389.84C136.638 389.28 137.491 389 138.598 389C138.878 389 139.138 389.02 139.378 389.06C139.631 389.087 139.858 389.133 140.058 389.2V390.92C139.818 390.853 139.604 390.807 139.418 390.78C139.231 390.74 139.024 390.72 138.798 390.72C138.238 390.72 137.818 390.853 137.538 391.12C137.271 391.373 137.138 391.78 137.138 392.34V393.82H140.058V395.5H137.138V404H135.158ZM145.927 404.2C145.14 404.2 144.447 404.033 143.847 403.7C143.247 403.367 142.78 402.9 142.447 402.3C142.114 401.687 141.947 400.987 141.947 400.2V393.82H143.927V399.86C143.927 400.66 144.154 401.293 144.607 401.76C145.074 402.227 145.694 402.46 146.467 402.46C147.014 402.46 147.5 402.347 147.927 402.12C148.354 401.88 148.7 401.547 148.967 401.12V393.82H150.967V404H148.967V402.96C148.18 403.787 147.167 404.2 145.927 404.2ZM153.735 404V393.82H155.735V394.86C156.521 394.033 157.541 393.62 158.795 393.62C159.581 393.62 160.268 393.787 160.855 394.12C161.455 394.453 161.921 394.92 162.255 395.52C162.601 396.12 162.775 396.813 162.775 397.6V404H160.775V397.94C160.775 397.14 160.548 396.513 160.095 396.06C159.655 395.593 159.035 395.36 158.235 395.36C157.701 395.36 157.221 395.473 156.795 395.7C156.368 395.927 156.015 396.253 155.735 396.68V404H153.735ZM170.162 404.16C169.216 404.16 168.349 403.927 167.562 403.46C166.776 402.993 166.156 402.367 165.702 401.58C165.249 400.78 165.022 399.887 165.022 398.9C165.022 397.913 165.249 397.027 165.702 396.24C166.169 395.453 166.796 394.827 167.582 394.36C168.369 393.893 169.242 393.66 170.202 393.66C170.762 393.66 171.302 393.747 171.822 393.92C172.342 394.093 172.822 394.347 173.262 394.68V390L175.262 389.62V404H173.282V403.02C172.416 403.78 171.376 404.16 170.162 404.16ZM170.422 402.42C171.009 402.42 171.542 402.313 172.022 402.1C172.516 401.887 172.929 401.58 173.262 401.18V396.6C172.929 396.227 172.516 395.933 172.022 395.72C171.542 395.493 171.009 395.38 170.422 395.38C169.782 395.38 169.202 395.533 168.682 395.84C168.162 396.147 167.749 396.567 167.442 397.1C167.136 397.62 166.982 398.213 166.982 398.88C166.982 399.547 167.136 400.147 167.442 400.68C167.749 401.213 168.162 401.64 168.682 401.96C169.202 402.267 169.782 402.42 170.422 402.42ZM181.531 404.2C180.651 404.2 179.824 404.073 179.051 403.82C178.291 403.553 177.631 403.18 177.071 402.7L178.171 401.38C178.691 401.793 179.224 402.113 179.771 402.34C180.331 402.553 180.897 402.66 181.471 402.66C182.191 402.66 182.777 402.52 183.231 402.24C183.684 401.96 183.911 401.593 183.911 401.14C183.911 400.767 183.777 400.473 183.511 400.26C183.244 400.047 182.831 399.9 182.271 399.82L180.431 399.56C179.417 399.413 178.657 399.1 178.151 398.62C177.644 398.14 177.391 397.5 177.391 396.7C177.391 396.087 177.557 395.553 177.891 395.1C178.224 394.633 178.691 394.273 179.291 394.02C179.891 393.753 180.591 393.62 181.391 393.62C182.124 393.62 182.831 393.727 183.511 393.94C184.191 394.153 184.844 394.487 185.471 394.94L184.451 396.26C183.891 395.887 183.344 395.613 182.811 395.44C182.291 395.267 181.764 395.18 181.231 395.18C180.617 395.18 180.124 395.313 179.751 395.58C179.377 395.833 179.191 396.167 179.191 396.58C179.191 396.953 179.317 397.247 179.571 397.46C179.837 397.66 180.271 397.8 180.871 397.88L182.711 398.14C183.724 398.287 184.491 398.6 185.011 399.08C185.531 399.547 185.791 400.18 185.791 400.98C185.791 401.593 185.604 402.147 185.231 402.64C184.857 403.12 184.351 403.5 183.711 403.78C183.071 404.06 182.344 404.2 181.531 404.2ZM188.911 404.14C188.564 404.14 188.264 404.02 188.011 403.78C187.771 403.527 187.651 403.227 187.651 402.88C187.651 402.533 187.771 402.24 188.011 402C188.264 401.747 188.564 401.62 188.911 401.62C189.258 401.62 189.551 401.747 189.791 402C190.044 402.24 190.171 402.533 190.171 402.88C190.171 403.227 190.044 403.527 189.791 403.78C189.551 404.02 189.258 404.14 188.911 404.14Z" fill="#5B5B5B"/>
<path d="M346.064 177.531L351.627 167.185L373.615 187.988H346.064V177.531Z" fill="#6556A0"/>
<path d="M338.225 177.531L348.131 171.537L365.767 187.988H338.225V177.531Z" fill="#4A4595"/>
<path d="M229.934 177.531L224.371 167.185L202.383 187.988H229.934V177.531Z" fill="#6556A0"/>
<path d="M237.783 177.531L227.869 171.537L210.232 187.988H237.783V177.531Z" fill="#4A4595"/>
<path d="M353.788 60.105H222.205V244.41H353.788V60.105Z" fill="#D6E29A"/>
<path d="M344.271 73.8296H230.875V134.935H344.271V73.8296Z" fill="white"/>
<path d="M311.25 151.538H251.448C249.679 151.538 248.248 150.107 248.248 148.338C248.248 146.568 249.679 145.137 251.448 145.137H311.25C313.019 145.137 314.45 146.568 314.45 148.338C314.45 150.107 313.011 151.538 311.25 151.538Z" fill="white"/>
<path d="M328.107 167.185H252.304C250.06 167.185 248.248 165.754 248.248 163.984C248.248 162.215 250.06 160.784 252.304 160.784H328.107C330.351 160.784 332.163 162.215 332.163 163.984C332.163 165.754 330.342 167.185 328.107 167.185Z" fill="white"/>
<path d="M311.25 182.958H251.448C249.679 182.958 248.248 181.527 248.248 179.758C248.248 177.988 249.679 176.557 251.448 176.557H311.25C313.019 176.557 314.45 177.988 314.45 179.758C314.45 181.527 313.011 182.958 311.25 182.958Z" fill="white"/>
<path opacity="0.25" d="M353.796 219.357V60.105H278.678C272.387 76.3697 264.835 82.8129 257.757 84.7857C250.407 86.8347 242.821 86.8685 236.581 90.3823C228.089 95.1745 224.939 100.305 221.984 112.684V219.357H353.796Z" fill="#AECA3B"/>
<path d="M244.607 194.583L252.609 208.19C253.345 209.443 254.683 210.205 256.131 210.205H319.86C321.308 210.205 322.654 209.434 323.383 208.19L331.384 194.583C333.788 190.494 338.174 187.988 342.915 187.988H373.608V253.021C373.608 262.343 366.047 269.904 356.725 269.904H219.258C209.936 269.904 202.375 262.343 202.375 253.021V187.988H233.067C237.817 187.988 242.203 190.494 244.607 194.583Z" fill="#6556A0"/>
<path d="M373.624 187.979V253.013C373.624 262.343 366.063 269.895 356.741 269.895H229.527L290.294 210.204H319.86C321.308 210.204 322.654 209.451 323.382 208.198L331.391 194.592C333.796 190.494 338.19 187.987 342.923 187.987H373.624V187.979Z" fill="#4A4595"/>
<path d="M297.602 104.361C296.086 102.921 293.808 101.855 290.633 101.109V94.6493C291.963 95.2759 293.165 96.3935 294.198 97.9768L294.782 98.8658L299.515 93.972L299.024 93.32C296.713 90.272 293.893 88.3923 290.633 87.7489V82.6519H286.129V87.6219C284.486 87.842 282.996 88.3161 281.701 89.0443C280.168 89.8994 278.949 91.0679 278.06 92.4987C277.171 93.9466 276.722 95.6061 276.722 97.418C276.722 100.11 277.569 102.295 279.237 103.92C280.719 105.368 282.971 106.461 285.917 107.172V114.453C283.936 113.911 282.268 112.684 280.829 110.745L280.228 109.932L275.639 114.809L276.121 115.452C277.408 117.154 278.966 118.517 280.77 119.499C282.344 120.355 284.072 120.905 285.917 121.159V126.129H290.379V121.159C292.132 120.913 293.707 120.405 295.062 119.626C296.653 118.72 297.906 117.51 298.787 116.036C299.667 114.546 300.116 112.828 300.116 110.931C300.133 108.162 299.278 105.961 297.602 104.361ZM293.14 111.177C293.14 112.125 292.852 112.878 292.251 113.479C291.793 113.937 291.167 114.275 290.388 114.479V108.255C291.539 108.653 292.132 109.043 292.428 109.331C292.911 109.788 293.14 110.381 293.14 111.177ZM283.631 97.2402C283.631 96.4273 283.919 95.7585 284.503 95.1997C284.944 94.7848 285.477 94.48 286.129 94.2937V100.119C285.333 99.831 284.732 99.5008 284.343 99.1198C283.868 98.6456 283.631 98.036 283.631 97.2402Z" fill="#AECA3B"/>
<path d="M521.017 383.185C521.223 382.1 522.777 382.1 522.983 383.185L529.771 419.008C529.844 419.395 530.138 419.703 530.521 419.795L562.924 427.527C563.948 427.772 563.948 429.228 562.924 429.473L530.521 437.205C530.138 437.297 529.844 437.605 529.771 437.992L522.983 473.815C522.777 474.9 521.223 474.9 521.017 473.815L514.229 437.992C514.156 437.605 513.862 437.297 513.479 437.205L481.076 429.473C480.052 429.228 480.052 427.772 481.076 427.527L513.479 419.795C513.862 419.703 514.156 419.395 514.229 419.008L521.017 383.185Z" fill="#D4C4F6"/>
<path d="M476.018 341.079C476.227 339.998 477.773 339.998 477.982 341.079L482.138 362.577C482.213 362.964 482.508 363.271 482.892 363.361L502.837 368.026C503.867 368.267 503.867 369.733 502.837 369.974L482.892 374.639C482.508 374.729 482.213 375.036 482.138 375.423L477.982 396.921C477.773 398.002 476.227 398.002 476.018 396.921L471.862 375.423C471.787 375.036 471.492 374.729 471.108 374.639L451.163 369.974C450.133 369.733 450.133 368.267 451.163 368.026L471.108 363.361C471.492 363.271 471.787 362.964 471.862 362.577L476.018 341.079Z" fill="#5E1EE5"/>
</g>
</g>
<defs>
<filter id="filter0_d_328_610" x="0" y="0" width="576" height="483" filterUnits="userSpaceOnUse" color-interpolation-filters="sRGB">
<feFlood flood-opacity="0" result="BackgroundImageFix"/>
<feColorMatrix in="SourceAlpha" type="matrix" values="0 0 0 0 0 0 0 0 0 0 0 0 0 0 0 0 0 0 127 0" result="hardAlpha"/>
<feOffset/>
<feGaussianBlur stdDeviation="14"/>
<feComposite in2="hardAlpha" operator="out"/>
<feColorMatrix type="matrix" values="0 0 0 0 0.832336 0 0 0 0 0.768601 0 0 0 0 0.965781 0 0 0 1 0"/>
<feBlend mode="normal" in2="BackgroundImageFix" result="effect1_dropShadow_328_610"/>
<feBlend mode="normal" in="SourceGraphic" in2="effect1_dropShadow_328_610" result="shape"/>
</filter>
<clipPath id="clip0_328_610">
<rect x="28" y="28" width="520" height="427" rx="36" fill="white"/>
</clipPath>
</defs>
</svg>
