<svg width="164" height="210" viewBox="0 0 164 210" fill="none" xmlns="http://www.w3.org/2000/svg">
<path d="M0.310547 0.113281C0.310547 0.113281 49.4603 3.74554 82.0067 46.8416V89.7683C81.9983 89.7683 15.1952 90.2932 0.310547 0.113281Z" fill="#AECA3B"/>
<path d="M0.311331 0.113281C0.0149928 5.4389 -1.23809 37.0116 23.1548 62.6491C45.6849 86.3223 76.013 89.4973 81.999 89.7683V84.1124C69.6375 69.5495 64.9384 63.6566 52.5769 49.0937C50.0707 46.1388 37.8531 33.4386 34.9575 30.8647L0.311331 0.113281Z" fill="#C0D56B"/>
<path d="M163.696 0.113281C163.696 0.113281 114.546 3.74554 82 46.8416V89.7683C82 89.7683 148.812 90.2932 163.696 0.113281Z" fill="#C0D56B"/>
<path d="M163.696 0.113281C163.992 5.4389 165.245 37.0116 140.852 62.6491C118.322 86.3223 87.9938 89.4973 82.0078 89.7683V84.1124C94.3693 69.5495 99.0684 63.6566 111.43 49.0937C113.936 46.1388 126.154 33.4386 129.049 30.8647L163.696 0.113281Z" fill="#AECA3B"/>
<path d="M46.3624 209.887H82.0077V96.6943H13.1133L31.2576 197.271C32.5785 204.578 38.937 209.887 46.3624 209.887Z" fill="#9F8CC2"/>
<path d="M117.645 209.887H82V96.6943H150.886L132.742 197.271C131.421 204.578 125.062 209.887 117.645 209.887Z" fill="#4A4595"/>
<path d="M10.7001 84.1211H82.0075V96.6943H10.7001C8.53258 96.6943 6.77148 94.9332 6.77148 92.7657V88.0412C6.77148 85.8737 8.53258 84.1211 10.7001 84.1211Z" fill="#D6E29A"/>
<path d="M153.307 84.1211H82V96.6943H153.307C155.475 96.6943 157.236 94.9332 157.236 92.7657V88.0412C157.236 85.8737 155.475 84.1211 153.307 84.1211Z" fill="#C0D56B"/>
</svg>
