<svg width="367" height="224" viewBox="0 0 367 224" fill="none" xmlns="http://www.w3.org/2000/svg">
<path d="M0 24C0 10.7452 10.7452 0 24 0H291C304.255 0 315 10.7452 315 24V25C315 38.2548 325.745 49 339 49H343C356.255 49 367 59.7452 367 73V200C367 213.255 356.255 224 343 224H24C10.7452 224 0 213.255 0 200V24Z" fill="#AFE638"/>
<path d="M27.078 119V117.46L33.326 110.816C33.7513 110.376 34.0813 109.98 34.316 109.628C34.5507 109.276 34.712 108.946 34.8 108.638C34.9027 108.315 34.954 107.978 34.954 107.626C34.954 106.937 34.6753 106.365 34.118 105.91C33.5607 105.455 32.8567 105.228 32.006 105.228C31.302 105.228 30.642 105.367 30.026 105.646C29.41 105.925 28.728 106.409 27.98 107.098L26.792 105.646C27.6133 104.883 28.4567 104.311 29.322 103.93C30.202 103.549 31.1113 103.358 32.05 103.358C33.0327 103.358 33.898 103.534 34.646 103.886C35.394 104.238 35.9733 104.729 36.384 105.36C36.8093 105.976 37.022 106.687 37.022 107.494C37.022 108.007 36.956 108.484 36.824 108.924C36.692 109.349 36.4647 109.804 36.142 110.288C35.8193 110.757 35.3647 111.3 34.778 111.916L29.762 117.196L37.33 117.174V119H27.078ZM39.7211 119V117.46L45.9691 110.816C46.3945 110.376 46.7245 109.98 46.9591 109.628C47.1938 109.276 47.3551 108.946 47.4431 108.638C47.5458 108.315 47.5971 107.978 47.5971 107.626C47.5971 106.937 47.3185 106.365 46.7611 105.91C46.2038 105.455 45.4998 105.228 44.6491 105.228C43.9451 105.228 43.2851 105.367 42.6691 105.646C42.0531 105.925 41.3711 106.409 40.6231 107.098L39.4351 105.646C40.2565 104.883 41.0998 104.311 41.9651 103.93C42.8451 103.549 43.7545 103.358 44.6931 103.358C45.6758 103.358 46.5411 103.534 47.2891 103.886C48.0371 104.238 48.6165 104.729 49.0271 105.36C49.4525 105.976 49.6651 106.687 49.6651 107.494C49.6651 108.007 49.5991 108.484 49.4671 108.924C49.3351 109.349 49.1078 109.804 48.7851 110.288C48.4625 110.757 48.0078 111.3 47.4211 111.916L42.4051 117.196L49.9731 117.174V119H39.7211ZM60.2275 119V115.084H51.4935V113.346L59.9635 103.6H62.4055V113.236H64.2755V115.084H62.4055V119H60.2275ZM54.0895 113.236H60.2275V106.174L54.0895 113.236ZM71.314 119.242C69.2607 119.242 67.4787 118.545 65.968 117.152L67.266 115.7C67.926 116.301 68.5787 116.741 69.224 117.02C69.884 117.284 70.6027 117.416 71.38 117.416C72.084 117.416 72.6927 117.284 73.206 117.02C73.7193 116.741 74.1227 116.36 74.416 115.876C74.7093 115.377 74.856 114.813 74.856 114.182C74.856 113.258 74.526 112.51 73.866 111.938C73.2207 111.366 72.3773 111.08 71.336 111.08C70.808 111.08 70.28 111.153 69.752 111.3C69.2387 111.432 68.7033 111.637 68.146 111.916L66.672 111.476L67.024 103.6H76.176V105.426H68.828L68.608 110.2C69.1653 109.921 69.708 109.723 70.236 109.606C70.764 109.474 71.3213 109.408 71.908 109.408C72.9347 109.408 73.822 109.606 74.57 110.002C75.3327 110.383 75.9267 110.926 76.352 111.63C76.7773 112.334 76.99 113.148 76.99 114.072C76.99 115.099 76.748 116.001 76.264 116.778C75.7947 117.541 75.1347 118.142 74.284 118.582C73.4333 119.022 72.4433 119.242 71.314 119.242ZM92.7643 119V115.084H84.0303V113.346L92.5003 103.6H94.9423V113.236H96.8123V115.084H94.9423V119H92.7643ZM86.6263 113.236H92.7643V106.174L86.6263 113.236ZM103.851 119.242C101.797 119.242 100.015 118.545 98.5048 117.152L99.8028 115.7C100.463 116.301 101.115 116.741 101.761 117.02C102.421 117.284 103.139 117.416 103.917 117.416C104.621 117.416 105.229 117.284 105.743 117.02C106.256 116.741 106.659 116.36 106.953 115.876C107.246 115.377 107.393 114.813 107.393 114.182C107.393 113.258 107.063 112.51 106.403 111.938C105.757 111.366 104.914 111.08 103.873 111.08C103.345 111.08 102.817 111.153 102.289 111.3C101.775 111.432 101.24 111.637 100.683 111.916L99.2088 111.476L99.5608 103.6H108.713V105.426H101.365L101.145 110.2C101.702 109.921 102.245 109.723 102.773 109.606C103.301 109.474 103.858 109.408 104.445 109.408C105.471 109.408 106.359 109.606 107.107 110.002C107.869 110.383 108.463 110.926 108.889 111.63C109.314 112.334 109.527 113.148 109.527 114.072C109.527 115.099 109.285 116.001 108.801 116.778C108.331 117.541 107.671 118.142 106.821 118.582C105.97 119.022 104.98 119.242 103.851 119.242ZM117.517 119.242C116.417 119.242 115.442 119.051 114.591 118.67C113.755 118.289 113.095 117.761 112.611 117.086C112.127 116.411 111.885 115.641 111.885 114.776C111.885 114.175 112.024 113.617 112.303 113.104C112.596 112.591 113 112.143 113.513 111.762C114.041 111.381 114.635 111.109 115.295 110.948C114.444 110.684 113.755 110.237 113.227 109.606C112.699 108.975 112.435 108.271 112.435 107.494C112.435 106.702 112.655 105.998 113.095 105.382C113.55 104.751 114.158 104.26 114.921 103.908C115.684 103.541 116.549 103.358 117.517 103.358C118.485 103.358 119.35 103.541 120.113 103.908C120.89 104.26 121.499 104.751 121.939 105.382C122.379 105.998 122.599 106.702 122.599 107.494C122.599 108.271 122.335 108.975 121.807 109.606C121.279 110.237 120.59 110.684 119.739 110.948C120.751 111.212 121.572 111.696 122.203 112.4C122.834 113.089 123.149 113.881 123.149 114.776C123.149 115.641 122.907 116.411 122.423 117.086C121.954 117.761 121.294 118.289 120.443 118.67C119.592 119.051 118.617 119.242 117.517 119.242ZM117.517 110.134C118.089 110.134 118.602 110.024 119.057 109.804C119.512 109.584 119.871 109.283 120.135 108.902C120.399 108.521 120.531 108.095 120.531 107.626C120.531 107.142 120.399 106.709 120.135 106.328C119.871 105.932 119.512 105.631 119.057 105.426C118.602 105.206 118.089 105.096 117.517 105.096C116.945 105.096 116.432 105.206 115.977 105.426C115.522 105.631 115.163 105.925 114.899 106.306C114.635 106.687 114.503 107.12 114.503 107.604C114.503 108.088 114.635 108.521 114.899 108.902C115.163 109.283 115.522 109.584 115.977 109.804C116.432 110.024 116.945 110.134 117.517 110.134ZM117.517 117.504C118.192 117.504 118.793 117.387 119.321 117.152C119.849 116.903 120.267 116.565 120.575 116.14C120.883 115.7 121.037 115.209 121.037 114.666C121.037 114.123 120.883 113.639 120.575 113.214C120.267 112.774 119.849 112.437 119.321 112.202C118.793 111.953 118.192 111.828 117.517 111.828C116.842 111.828 116.241 111.953 115.713 112.202C115.185 112.451 114.767 112.789 114.459 113.214C114.151 113.639 113.997 114.123 113.997 114.666C113.997 115.209 114.151 115.7 114.459 116.14C114.767 116.565 115.185 116.903 115.713 117.152C116.241 117.387 116.842 117.504 117.517 117.504ZM130.773 103.358C132.005 103.358 133.091 103.681 134.029 104.326C134.968 104.957 135.701 105.829 136.229 106.944C136.757 108.059 137.021 109.357 137.021 110.838C137.021 112.525 136.728 113.999 136.141 115.26C135.555 116.507 134.726 117.482 133.655 118.186C132.599 118.875 131.36 119.22 129.937 119.22C129.248 119.22 128.551 119.11 127.847 118.89C127.143 118.67 126.535 118.377 126.021 118.01L127.143 116.426C127.598 116.719 128.075 116.947 128.573 117.108C129.072 117.255 129.585 117.328 130.113 117.328C131.111 117.328 131.961 117.071 132.665 116.558C133.384 116.045 133.934 115.311 134.315 114.358C134.697 113.39 134.895 112.246 134.909 110.926C134.367 111.645 133.714 112.209 132.951 112.62C132.189 113.016 131.397 113.214 130.575 113.214C129.563 113.214 128.669 113.009 127.891 112.598C127.114 112.173 126.505 111.608 126.065 110.904C125.625 110.185 125.405 109.364 125.405 108.44C125.405 107.457 125.64 106.585 126.109 105.822C126.579 105.059 127.217 104.458 128.023 104.018C128.83 103.578 129.747 103.358 130.773 103.358ZM130.883 111.52C131.646 111.52 132.365 111.344 133.039 110.992C133.729 110.625 134.323 110.134 134.821 109.518C134.704 108.638 134.462 107.875 134.095 107.23C133.743 106.585 133.289 106.086 132.731 105.734C132.174 105.367 131.543 105.184 130.839 105.184C130.209 105.184 129.637 105.323 129.123 105.602C128.625 105.881 128.229 106.262 127.935 106.746C127.657 107.23 127.517 107.78 127.517 108.396C127.517 108.997 127.657 109.54 127.935 110.024C128.229 110.493 128.632 110.86 129.145 111.124C129.659 111.388 130.238 111.52 130.883 111.52ZM149.937 103.358C151.169 103.358 152.254 103.681 153.193 104.326C154.131 104.957 154.865 105.829 155.393 106.944C155.921 108.059 156.185 109.357 156.185 110.838C156.185 112.525 155.891 113.999 155.305 115.26C154.718 116.507 153.889 117.482 152.819 118.186C151.763 118.875 150.523 119.22 149.101 119.22C148.411 119.22 147.715 119.11 147.011 118.89C146.307 118.67 145.698 118.377 145.185 118.01L146.307 116.426C146.761 116.719 147.238 116.947 147.737 117.108C148.235 117.255 148.749 117.328 149.277 117.328C150.274 117.328 151.125 117.071 151.829 116.558C152.547 116.045 153.097 115.311 153.479 114.358C153.86 113.39 154.058 112.246 154.073 110.926C153.53 111.645 152.877 112.209 152.115 112.62C151.352 113.016 150.56 113.214 149.739 113.214C148.727 113.214 147.832 113.009 147.055 112.598C146.277 112.173 145.669 111.608 145.229 110.904C144.789 110.185 144.569 109.364 144.569 108.44C144.569 107.457 144.803 106.585 145.273 105.822C145.742 105.059 146.38 104.458 147.187 104.018C147.993 103.578 148.91 103.358 149.937 103.358ZM150.047 111.52C150.809 111.52 151.528 111.344 152.203 110.992C152.892 110.625 153.486 110.134 153.985 109.518C153.867 108.638 153.625 107.875 153.259 107.23C152.907 106.585 152.452 106.086 151.895 105.734C151.337 105.367 150.707 105.184 150.003 105.184C149.372 105.184 148.8 105.323 148.287 105.602C147.788 105.881 147.392 106.262 147.099 106.746C146.82 107.23 146.681 107.78 146.681 108.396C146.681 108.997 146.82 109.54 147.099 110.024C147.392 110.493 147.795 110.86 148.309 111.124C148.822 111.388 149.401 111.52 150.047 111.52ZM164.128 119.242C163.028 119.242 161.994 119.051 161.026 118.67C160.073 118.274 159.244 117.709 158.54 116.976L159.97 115.612C160.586 116.257 161.21 116.719 161.84 116.998C162.486 117.262 163.241 117.394 164.106 117.394C164.796 117.394 165.404 117.277 165.932 117.042C166.475 116.807 166.893 116.485 167.186 116.074C167.48 115.663 167.626 115.187 167.626 114.644C167.626 114.145 167.494 113.705 167.23 113.324C166.981 112.928 166.636 112.627 166.196 112.422C165.771 112.202 165.265 112.092 164.678 112.092H162.808V110.31H164.524C165.302 110.31 165.925 110.083 166.394 109.628C166.864 109.173 167.098 108.579 167.098 107.846C167.098 107.362 166.966 106.922 166.702 106.526C166.438 106.13 166.072 105.822 165.602 105.602C165.148 105.367 164.627 105.25 164.04 105.25C163.263 105.25 162.574 105.389 161.972 105.668C161.386 105.932 160.777 106.401 160.146 107.076L158.716 105.712C159.42 104.949 160.234 104.37 161.158 103.974C162.082 103.563 163.058 103.358 164.084 103.358C165.082 103.358 165.962 103.541 166.724 103.908C167.502 104.275 168.11 104.788 168.55 105.448C169.005 106.093 169.232 106.827 169.232 107.648C169.232 108.455 168.961 109.181 168.418 109.826C167.89 110.457 167.194 110.897 166.328 111.146C167.37 111.366 168.198 111.806 168.814 112.466C169.43 113.111 169.738 113.874 169.738 114.754C169.738 115.619 169.496 116.389 169.012 117.064C168.543 117.739 167.883 118.274 167.032 118.67C166.182 119.051 165.214 119.242 164.128 119.242ZM172.221 119V117.46L178.469 110.816C178.895 110.376 179.225 109.98 179.459 109.628C179.694 109.276 179.855 108.946 179.943 108.638C180.046 108.315 180.097 107.978 180.097 107.626C180.097 106.937 179.819 106.365 179.261 105.91C178.704 105.455 178 105.228 177.149 105.228C176.445 105.228 175.785 105.367 175.169 105.646C174.553 105.925 173.871 106.409 173.123 107.098L171.935 105.646C172.757 104.883 173.6 104.311 174.465 103.93C175.345 103.549 176.255 103.358 177.193 103.358C178.176 103.358 179.041 103.534 179.789 103.886C180.537 104.238 181.117 104.729 181.527 105.36C181.953 105.976 182.165 106.687 182.165 107.494C182.165 108.007 182.099 108.484 181.967 108.924C181.835 109.349 181.608 109.804 181.285 110.288C180.963 110.757 180.508 111.3 179.921 111.916L174.905 117.196L182.473 117.174V119H172.221ZM191.178 119.242C189.888 119.242 188.758 118.912 187.79 118.252C186.822 117.577 186.06 116.646 185.502 115.458C184.96 114.255 184.688 112.869 184.688 111.3C184.688 109.731 184.96 108.352 185.502 107.164C186.06 105.961 186.822 105.03 187.79 104.37C188.758 103.695 189.888 103.358 191.178 103.358C192.454 103.358 193.576 103.695 194.544 104.37C195.512 105.03 196.268 105.961 196.81 107.164C197.368 108.352 197.646 109.731 197.646 111.3C197.646 112.869 197.368 114.255 196.81 115.458C196.268 116.646 195.512 117.577 194.544 118.252C193.576 118.912 192.454 119.242 191.178 119.242ZM191.178 117.328C192.058 117.328 192.821 117.086 193.466 116.602C194.112 116.103 194.61 115.399 194.962 114.49C195.314 113.581 195.49 112.517 195.49 111.3C195.49 110.068 195.314 109.005 194.962 108.11C194.61 107.201 194.112 106.504 193.466 106.02C192.821 105.521 192.058 105.272 191.178 105.272C190.298 105.272 189.528 105.521 188.868 106.02C188.223 106.504 187.724 107.201 187.372 108.11C187.02 109.005 186.844 110.068 186.844 111.3C186.844 112.517 187.02 113.581 187.372 114.49C187.724 115.399 188.223 116.103 188.868 116.602C189.528 117.086 190.298 117.328 191.178 117.328ZM209.083 119L214.979 111.036L209.413 103.6H212.207L216.365 109.276L220.501 103.6H223.185L217.685 111.014L223.647 119H220.875L216.321 112.752L211.745 119H209.083ZM224.434 119L230.33 111.036L224.764 103.6H227.558L231.716 109.276L235.852 103.6H238.536L233.036 111.014L238.998 119H236.226L231.672 112.752L227.096 119H224.434ZM239.784 119L245.68 111.036L240.114 103.6H242.908L247.066 109.276L251.202 103.6H253.886L248.386 111.014L254.348 119H251.576L247.022 112.752L242.446 119H239.784ZM255.134 119L261.03 111.036L255.464 103.6H258.258L262.416 109.276L266.552 103.6H269.236L263.736 111.014L269.698 119H266.926L262.372 112.752L257.796 119H255.134Z" fill="#1C2027"/>
<path d="M31.376 193.176C30.4373 193.176 29.616 192.936 28.912 192.456C28.208 191.965 27.6533 191.288 27.248 190.424C26.8533 189.549 26.656 188.541 26.656 187.4C26.656 186.259 26.8533 185.256 27.248 184.392C27.6533 183.517 28.208 182.84 28.912 182.36C29.616 181.869 30.4373 181.624 31.376 181.624C32.304 181.624 33.12 181.869 33.824 182.36C34.528 182.84 35.0773 183.517 35.472 184.392C35.8773 185.256 36.08 186.259 36.08 187.4C36.08 188.541 35.8773 189.549 35.472 190.424C35.0773 191.288 34.528 191.965 33.824 192.456C33.12 192.936 32.304 193.176 31.376 193.176ZM31.376 191.784C32.016 191.784 32.5707 191.608 33.04 191.256C33.5093 190.893 33.872 190.381 34.128 189.72C34.384 189.059 34.512 188.285 34.512 187.4C34.512 186.504 34.384 185.731 34.128 185.08C33.872 184.419 33.5093 183.912 33.04 183.56C32.5707 183.197 32.016 183.016 31.376 183.016C30.736 183.016 30.1813 183.197 29.712 183.56C29.2427 183.912 28.8747 184.419 28.608 185.08C28.352 185.731 28.224 186.504 28.224 187.4C28.224 188.285 28.352 189.059 28.608 189.72C28.8747 190.381 29.2427 190.893 29.712 191.256C30.1813 191.608 30.736 191.784 31.376 191.784ZM42.4144 193.16C41.5184 193.16 40.729 192.931 40.0464 192.472C39.3637 192.013 38.8304 191.379 38.4464 190.568C38.0624 189.747 37.8704 188.797 37.8704 187.72C37.8704 186.493 38.0837 185.427 38.5104 184.52C38.937 183.603 39.5344 182.893 40.3024 182.392C41.081 181.88 41.9877 181.624 43.0224 181.624C43.5344 181.624 44.041 181.704 44.5424 181.864C45.0544 182.013 45.497 182.232 45.8704 182.52L45.0544 183.656C44.7237 183.443 44.377 183.283 44.0144 183.176C43.6624 183.069 43.289 183.016 42.8944 183.016C42.169 183.016 41.545 183.203 41.0224 183.576C40.5104 183.939 40.1157 184.467 39.8384 185.16C39.561 185.853 39.417 186.691 39.4064 187.672C39.801 187.149 40.2757 186.744 40.8304 186.456C41.385 186.157 41.961 186.008 42.5584 186.008C43.2944 186.008 43.945 186.157 44.5104 186.456C45.0757 186.744 45.5184 187.149 45.8384 187.672C46.1584 188.195 46.3184 188.792 46.3184 189.464C46.3184 190.168 46.1477 190.803 45.8064 191.368C45.465 191.923 45.001 192.36 44.4144 192.68C43.8277 193 43.161 193.16 42.4144 193.16ZM42.3344 187.24C41.7797 187.24 41.2517 187.368 40.7504 187.624C40.2597 187.88 39.833 188.232 39.4704 188.68C39.5664 189.309 39.7424 189.864 39.9984 190.344C40.265 190.813 40.601 191.181 41.0064 191.448C41.4117 191.704 41.865 191.832 42.3664 191.832C42.8357 191.832 43.2517 191.731 43.6144 191.528C43.977 191.325 44.2597 191.048 44.4624 190.696C44.6757 190.344 44.7824 189.944 44.7824 189.496C44.7824 189.059 44.6757 188.669 44.4624 188.328C44.2597 187.987 43.9717 187.72 43.5984 187.528C43.2357 187.336 42.8144 187.24 42.3344 187.24ZM46.0851 196.28L52.7411 181.8H54.3091L47.6531 196.28H46.0851ZM59.2562 193.176C58.4562 193.176 57.7042 193.037 57.0002 192.76C56.3069 192.472 55.7042 192.061 55.1922 191.528L56.2322 190.536C56.6802 191.005 57.1336 191.341 57.5922 191.544C58.0616 191.736 58.6109 191.832 59.2402 191.832C59.7416 191.832 60.1842 191.747 60.5682 191.576C60.9629 191.405 61.2669 191.171 61.4802 190.872C61.6936 190.573 61.8002 190.227 61.8002 189.832C61.8002 189.469 61.7042 189.149 61.5122 188.872C61.3309 188.584 61.0802 188.365 60.7602 188.216C60.4509 188.056 60.0829 187.976 59.6562 187.976H58.2962V186.68H59.5442C60.1096 186.68 60.5629 186.515 60.9042 186.184C61.2456 185.853 61.4162 185.421 61.4162 184.888C61.4162 184.536 61.3202 184.216 61.1282 183.928C60.9362 183.64 60.6696 183.416 60.3282 183.256C59.9976 183.085 59.6189 183 59.1922 183C58.6269 183 58.1256 183.101 57.6882 183.304C57.2616 183.496 56.8189 183.837 56.3602 184.328L55.3202 183.336C55.8322 182.781 56.4242 182.36 57.0962 182.072C57.7682 181.773 58.4776 181.624 59.2242 181.624C59.9496 181.624 60.5896 181.757 61.1442 182.024C61.7096 182.291 62.1522 182.664 62.4722 183.144C62.8029 183.613 62.9682 184.147 62.9682 184.744C62.9682 185.331 62.7709 185.859 62.3762 186.328C61.9922 186.787 61.4856 187.107 60.8562 187.288C61.6136 187.448 62.2162 187.768 62.6642 188.248C63.1122 188.717 63.3362 189.272 63.3362 189.912C63.3362 190.541 63.1602 191.101 62.8082 191.592C62.4669 192.083 61.9869 192.472 61.3682 192.76C60.7496 193.037 60.0456 193.176 59.2562 193.176ZM65.1421 193V191.88L69.6861 187.048C69.9955 186.728 70.2355 186.44 70.4061 186.184C70.5768 185.928 70.6941 185.688 70.7581 185.464C70.8328 185.229 70.8701 184.984 70.8701 184.728C70.8701 184.227 70.6675 183.811 70.2621 183.48C69.8568 183.149 69.3448 182.984 68.7261 182.984C68.2141 182.984 67.7341 183.085 67.2861 183.288C66.8381 183.491 66.3421 183.843 65.7981 184.344L64.9341 183.288C65.5315 182.733 66.1448 182.317 66.7741 182.04C67.4141 181.763 68.0755 181.624 68.7581 181.624C69.4728 181.624 70.1021 181.752 70.6461 182.008C71.1901 182.264 71.6115 182.621 71.9101 183.08C72.2195 183.528 72.3741 184.045 72.3741 184.632C72.3741 185.005 72.3261 185.352 72.2301 185.672C72.1341 185.981 71.9688 186.312 71.7341 186.664C71.4995 187.005 71.1688 187.4 70.7421 187.848L67.0941 191.688L72.5981 191.672V193H65.1421Z" fill="#1C2027"/>
<path d="M28.91 170L26.04 163H26.87L29.4 169.28L31.97 163H32.75L29.84 170H28.91ZM31.8845 170L34.7845 163H35.7145L38.5945 170H37.7545L36.8745 167.8H33.5745L32.6845 170H31.8845ZM33.8445 167.14H36.6045L35.2245 163.71L33.8445 167.14ZM39.6016 170V163H40.3716V169.31H44.5416V170H39.6016ZM45.8368 170V163H46.6068V170H45.8368ZM49.1212 169.3H50.7012C51.1079 169.3 51.4846 169.23 51.8312 169.09C52.1779 168.95 52.4812 168.753 52.7412 168.5C53.0012 168.247 53.2012 167.95 53.3412 167.61C53.4879 167.27 53.5612 166.9 53.5612 166.5C53.5612 166.1 53.4879 165.73 53.3412 165.39C53.2012 165.05 53.0012 164.753 52.7412 164.5C52.4812 164.247 52.1779 164.05 51.8312 163.91C51.4846 163.77 51.1079 163.7 50.7012 163.7H49.1212V169.3ZM48.3512 170V163H50.6612C51.1946 163 51.6846 163.087 52.1312 163.26C52.5779 163.433 52.9646 163.677 53.2912 163.99C53.6246 164.303 53.8812 164.673 54.0612 165.1C54.2479 165.527 54.3412 165.993 54.3412 166.5C54.3412 167.007 54.2512 167.473 54.0712 167.9C53.8912 168.327 53.6346 168.697 53.3012 169.01C52.9746 169.323 52.5846 169.567 52.1312 169.74C51.6846 169.913 51.1946 170 50.6612 170H48.3512ZM60.027 170V163.69H57.497V163H63.327V163.69H60.797V170H60.027ZM64.4688 170V163H65.2388V166.13H69.3088V163H70.0788V170H69.3088V166.82H65.2388V170H64.4688ZM71.8173 170V163H74.8173C75.2773 163 75.6773 163.083 76.0173 163.25C76.3573 163.417 76.6206 163.65 76.8073 163.95C77.0006 164.25 77.0973 164.603 77.0973 165.01C77.0973 165.47 76.9606 165.867 76.6873 166.2C76.4206 166.527 76.0606 166.757 75.6073 166.89L77.1773 170H76.3273L74.8273 166.99H72.5873V170H71.8173ZM72.5873 166.34H74.7673C75.2406 166.34 75.6173 166.22 75.8973 165.98C76.1839 165.74 76.3273 165.417 76.3273 165.01C76.3273 164.61 76.1839 164.29 75.8973 164.05C75.6173 163.81 75.2406 163.69 74.7673 163.69H72.5873V166.34ZM81.2126 170.11C80.6192 170.11 80.1059 169.987 79.6726 169.74C79.2392 169.487 78.9059 169.13 78.6726 168.67C78.4392 168.21 78.3226 167.667 78.3226 167.04V163H79.0926V167.04C79.0926 167.52 79.1792 167.937 79.3526 168.29C79.5259 168.643 79.7726 168.917 80.0926 169.11C80.4126 169.303 80.7859 169.4 81.2126 169.4C81.6459 169.4 82.0192 169.303 82.3326 169.11C82.6526 168.917 82.8992 168.643 83.0726 168.29C83.2459 167.937 83.3326 167.52 83.3326 167.04V163H84.1026V167.04C84.1026 167.667 83.9826 168.21 83.7426 168.67C83.5092 169.13 83.1759 169.487 82.7426 169.74C82.3159 169.987 81.8059 170.11 81.2126 170.11Z" fill="#1C2027"/>
<path d="M121.07 170.11C120.563 170.11 120.09 170.02 119.65 169.84C119.21 169.653 118.823 169.397 118.49 169.07C118.157 168.737 117.897 168.353 117.71 167.92C117.53 167.48 117.44 167.007 117.44 166.5C117.44 165.993 117.53 165.523 117.71 165.09C117.897 164.65 118.157 164.267 118.49 163.94C118.823 163.607 119.21 163.35 119.65 163.17C120.09 162.983 120.563 162.89 121.07 162.89C121.437 162.89 121.787 162.937 122.12 163.03C122.46 163.117 122.773 163.247 123.06 163.42C123.353 163.587 123.613 163.793 123.84 164.04L123.33 164.58C123.057 164.267 122.72 164.027 122.32 163.86C121.92 163.687 121.503 163.6 121.07 163.6C120.663 163.6 120.287 163.673 119.94 163.82C119.593 163.967 119.29 164.173 119.03 164.44C118.777 164.7 118.577 165.007 118.43 165.36C118.29 165.707 118.22 166.087 118.22 166.5C118.22 166.907 118.29 167.287 118.43 167.64C118.577 167.993 118.78 168.303 119.04 168.57C119.3 168.83 119.603 169.033 119.95 169.18C120.303 169.327 120.683 169.4 121.09 169.4C121.523 169.4 121.937 169.317 122.33 169.15C122.723 168.977 123.053 168.74 123.32 168.44L123.82 168.96C123.587 169.2 123.323 169.407 123.03 169.58C122.743 169.753 122.433 169.887 122.1 169.98C121.767 170.067 121.423 170.11 121.07 170.11ZM127.327 170L124.457 163H125.287L127.817 169.28L130.387 163H131.167L128.257 170H127.327ZM134.46 170L131.59 163H132.42L134.95 169.28L137.52 163H138.3L135.39 170H134.46Z" fill="#1C2027"/>
<path d="M122.376 193.176C121.437 193.176 120.616 192.936 119.912 192.456C119.208 191.965 118.653 191.288 118.248 190.424C117.853 189.549 117.656 188.541 117.656 187.4C117.656 186.259 117.853 185.256 118.248 184.392C118.653 183.517 119.208 182.84 119.912 182.36C120.616 181.869 121.437 181.624 122.376 181.624C123.304 181.624 124.12 181.869 124.824 182.36C125.528 182.84 126.077 183.517 126.472 184.392C126.877 185.256 127.08 186.259 127.08 187.4C127.08 188.541 126.877 189.549 126.472 190.424C126.077 191.288 125.528 191.965 124.824 192.456C124.12 192.936 123.304 193.176 122.376 193.176ZM122.376 191.784C123.016 191.784 123.571 191.608 124.04 191.256C124.509 190.893 124.872 190.381 125.128 189.72C125.384 189.059 125.512 188.285 125.512 187.4C125.512 186.504 125.384 185.731 125.128 185.08C124.872 184.419 124.509 183.912 124.04 183.56C123.571 183.197 123.016 183.016 122.376 183.016C121.736 183.016 121.181 183.197 120.712 183.56C120.243 183.912 119.875 184.419 119.608 185.08C119.352 185.731 119.224 186.504 119.224 187.4C119.224 188.285 119.352 189.059 119.608 189.72C119.875 190.381 120.243 190.893 120.712 191.256C121.181 191.608 121.736 191.784 122.376 191.784ZM132.537 181.624C133.433 181.624 134.222 181.859 134.905 182.328C135.588 182.787 136.121 183.421 136.505 184.232C136.889 185.043 137.081 185.987 137.081 187.064C137.081 188.291 136.868 189.363 136.441 190.28C136.014 191.187 135.412 191.896 134.633 192.408C133.865 192.909 132.964 193.16 131.929 193.16C131.428 193.16 130.921 193.08 130.409 192.92C129.897 192.76 129.454 192.547 129.081 192.28L129.897 191.128C130.228 191.341 130.574 191.507 130.937 191.624C131.3 191.731 131.673 191.784 132.057 191.784C132.782 191.784 133.401 191.597 133.913 191.224C134.436 190.851 134.836 190.317 135.113 189.624C135.39 188.92 135.534 188.088 135.545 187.128C135.15 187.651 134.676 188.061 134.121 188.36C133.566 188.648 132.99 188.792 132.393 188.792C131.657 188.792 131.006 188.643 130.441 188.344C129.876 188.035 129.433 187.624 129.113 187.112C128.793 186.589 128.633 185.992 128.633 185.32C128.633 184.605 128.804 183.971 129.145 183.416C129.486 182.861 129.95 182.424 130.537 182.104C131.124 181.784 131.79 181.624 132.537 181.624ZM132.617 187.56C133.172 187.56 133.694 187.432 134.185 187.176C134.686 186.909 135.118 186.552 135.481 186.104C135.396 185.464 135.22 184.909 134.953 184.44C134.697 183.971 134.366 183.608 133.961 183.352C133.556 183.085 133.097 182.952 132.585 182.952C132.126 182.952 131.71 183.053 131.337 183.256C130.974 183.459 130.686 183.736 130.473 184.088C130.27 184.44 130.169 184.84 130.169 185.288C130.169 185.725 130.27 186.12 130.473 186.472C130.686 186.813 130.98 187.08 131.353 187.272C131.726 187.464 132.148 187.56 132.617 187.56ZM138.596 193V191.88L143.14 187.048C143.449 186.728 143.689 186.44 143.86 186.184C144.031 185.928 144.148 185.688 144.212 185.464C144.287 185.229 144.324 184.984 144.324 184.728C144.324 184.227 144.121 183.811 143.716 183.48C143.311 183.149 142.799 182.984 142.18 182.984C141.668 182.984 141.188 183.085 140.74 183.288C140.292 183.491 139.796 183.843 139.252 184.344L138.388 183.288C138.985 182.733 139.599 182.317 140.228 182.04C140.868 181.763 141.529 181.624 142.212 181.624C142.927 181.624 143.556 181.752 144.1 182.008C144.644 182.264 145.065 182.621 145.364 183.08C145.673 183.528 145.828 184.045 145.828 184.632C145.828 185.005 145.78 185.352 145.684 185.672C145.588 185.981 145.423 186.312 145.188 186.664C144.953 187.005 144.623 187.4 144.196 187.848L140.548 191.688L146.052 191.672V193H138.596Z" fill="#1C2027"/>
<circle cx="342" cy="21" r="20.5" stroke="#AFE638"/>
<path d="M351.5 20.787H339.145M334.784 20.787H333M334.784 20.787C334.784 20.2088 335.014 19.6543 335.423 19.2455C335.831 18.8367 336.386 18.607 336.964 18.607C337.542 18.607 338.097 18.8367 338.505 19.2455C338.914 19.6543 339.144 20.2088 339.144 20.787C339.144 21.3652 338.914 21.9197 338.505 22.3285C338.097 22.7373 337.542 22.967 336.964 22.967C336.386 22.967 335.831 22.7373 335.423 22.3285C335.014 21.9197 334.784 21.3652 334.784 20.787ZM351.5 27.394H345.752M345.752 27.394C345.752 27.9723 345.522 28.5274 345.113 28.9363C344.704 29.3453 344.149 29.575 343.571 29.575C342.993 29.575 342.438 29.3443 342.03 28.9355C341.621 28.5267 341.391 27.9722 341.391 27.394M345.752 27.394C345.752 26.8157 345.522 26.2616 345.113 25.8527C344.704 25.4437 344.149 25.214 343.571 25.214C342.993 25.214 342.438 25.4437 342.03 25.8525C341.621 26.2613 341.391 26.8158 341.391 27.394M341.391 27.394H333M351.5 14.18H348.395M344.034 14.18H333M344.034 14.18C344.034 13.6018 344.264 13.0473 344.673 12.6385C345.081 12.2297 345.636 12 346.214 12C346.5 12 346.784 12.0564 347.048 12.1659C347.313 12.2755 347.553 12.4361 347.755 12.6385C347.958 12.8409 348.119 13.0813 348.228 13.3458C348.338 13.6102 348.394 13.8937 348.394 14.18C348.394 14.4663 348.338 14.7498 348.228 15.0143C348.119 15.2787 347.958 15.5191 347.755 15.7215C347.553 15.9239 347.313 16.0845 347.048 16.1941C346.784 16.3036 346.5 16.36 346.214 16.36C345.636 16.36 345.081 16.1303 344.673 15.7215C344.264 15.3127 344.034 14.7582 344.034 14.18Z" stroke="#AFE638" stroke-width="1.5" stroke-miterlimit="10" stroke-linecap="round"/>
<path fill-rule="evenodd" clip-rule="evenodd" d="M283.843 179.487C283.843 179.487 283.61 177.48 281.121 177.48H272.11L272 177.858C272 177.858 276.328 178.767 280.496 182.176C284.468 185.433 285.768 189.497 285.768 189.497L283.843 179.487Z" fill="#1C2027"/>
<path fill-rule="evenodd" clip-rule="evenodd" d="M299.881 177.404L296.375 199.621H301.99L305.508 177.404H299.881ZM291.642 177.404L286.285 192.691L285.647 189.396L285.512 188.664C284.863 187.225 283.355 184.498 280.523 182.163C279.677 181.469 278.843 180.888 278.021 180.383L282.889 199.634H288.737L297.674 177.417L291.642 177.404ZM313.576 183.564C313.576 181.052 319.044 181.38 321.447 182.744L322.256 177.972C322.256 177.972 319.779 177 317.205 177C314.422 177 307.801 178.25 307.801 184.359C307.801 190.091 315.574 190.166 315.574 193.183C315.574 196.2 308.61 195.657 306.305 193.764L305.472 198.75C305.472 198.75 307.985 200.013 311.81 200C315.648 200 321.422 197.955 321.422 192.401C321.41 186.619 313.576 186.089 313.576 183.564ZM336.502 177.404H331.99C329.906 177.404 329.391 179.058 329.391 179.058L321.017 199.621H326.865L328.042 196.326H335.178L335.84 199.634H341.001L336.502 177.404ZM329.648 191.769L332.603 183.451L334.258 191.769H329.648Z" fill="#1C2027"/>
<path d="M26.6307 28.863H30.8146C30.9336 28.863 31.044 28.9236 31.1072 29.0235C32.1713 30.7064 34.2478 33.95 34.7295 34.6847C35.2178 35.4297 35.7367 35.0342 35.9198 34.7399L38.6725 30.3791C38.8162 30.1515 38.651 29.8563 38.38 29.8563H36.6945C36.5736 29.8563 36.4615 29.919 36.3991 30.0215L34.9344 32.427C34.8076 32.6352 34.508 32.6493 34.3618 32.454L34.1071 32.1137C34.0223 32.0003 34.0165 31.847 34.0926 31.7278L35.8183 29.0222C35.8815 28.9231 35.9916 28.863 36.11 28.863H40.242C40.5063 28.863 40.6722 29.1451 40.5405 29.3721C39.5046 31.1583 37.6481 34.2446 36.6523 35.4849C35.5536 36.8534 34.5463 36.2298 34.0274 35.5952L30.4664 30.0154C30.4032 29.9164 30.2931 29.8563 30.1748 29.8563H28.5795C28.3078 29.8563 28.1428 30.1529 28.2878 30.3804L33.193 38.0729C33.3267 38.2826 33.6344 38.2857 33.7724 38.0789L34.4114 37.1217C34.4895 37.0048 34.4805 36.8993 34.6143 36.9449C34.8906 37.0392 35.3854 37.5213 35.2299 37.7664L33.798 40.0228C33.6634 40.2349 33.3518 40.2362 33.2154 40.0252L26.3402 29.3889C26.1932 29.1615 26.3581 28.863 26.6307 28.863Z" fill="#1C2027"/>
<path d="M41.7891 40.1999V28.9497H49.9194V30.0426H43.0387V33.9802H47.5338V35.0569H43.0387V39.107H49.9843V40.1999H41.7891ZM52.4381 40.1999V28.9497H57.3065C58.0531 28.9497 58.7022 29.0837 59.2539 29.3515C59.8057 29.6194 60.233 29.9944 60.5359 30.4765C60.8497 30.9587 61.0065 31.5265 61.0065 32.1801C61.0065 32.9194 60.7848 33.5569 60.3412 34.0927C59.9084 34.6177 59.3242 34.9873 58.5886 35.2016L61.1364 40.1999H59.757L57.3228 35.3623H53.6877V40.1999H52.4381ZM53.6877 34.3177H57.2254C57.9935 34.3177 58.6048 34.1248 59.0592 33.7391C59.5244 33.3534 59.757 32.8337 59.757 32.1801C59.757 31.5373 59.5244 31.023 59.0592 30.6373C58.6048 30.2515 57.9935 30.0587 57.2254 30.0587H53.6877V34.3177ZM63.5468 40.1999V28.9497H64.7963V40.1999H63.5468ZM69.2014 39.0749H71.7654C72.4253 39.0749 73.0366 38.9624 73.5991 38.7374C74.1617 38.5124 74.654 38.1963 75.0759 37.7892C75.4978 37.382 75.8224 36.9052 76.0496 36.3588C76.2876 35.8123 76.4066 35.2177 76.4066 34.5748C76.4066 33.9319 76.2876 33.3373 76.0496 32.7909C75.8224 32.2444 75.4978 31.7676 75.0759 31.3605C74.654 30.9534 74.1617 30.6373 73.5991 30.4123C73.0366 30.1873 72.4253 30.0747 71.7654 30.0747H69.2014V39.0749ZM67.9518 40.1999V28.9497H71.7005C72.5659 28.9497 73.3612 29.089 74.086 29.3676C74.8109 29.6462 75.4384 30.0372 75.9685 30.5408C76.5094 31.0444 76.9259 31.639 77.218 32.3248C77.5209 33.0105 77.6724 33.7605 77.6724 34.5748C77.6724 35.3891 77.5264 36.1391 77.2342 36.8248C76.9422 37.5106 76.5257 38.1052 75.9847 38.6088C75.4546 39.1124 74.8217 39.5035 74.086 39.7821C73.3612 40.0606 72.5659 40.1999 71.7005 40.1999H67.9518ZM80.2807 40.1999V28.9497H81.5302V40.1999H80.2807ZM90.0087 40.3767C89.1866 40.3767 88.4184 40.2321 87.7041 39.9427C87.0007 39.6427 86.3788 39.2302 85.8379 38.7052C85.3078 38.1695 84.8913 37.5534 84.5883 36.857C84.2963 36.1498 84.1502 35.3891 84.1502 34.5748C84.1502 33.7605 84.2963 33.0052 84.5883 32.3087C84.8913 31.6015 85.3078 30.9855 85.8379 30.4605C86.3788 29.9248 87.0007 29.5122 87.7041 29.223C88.4184 28.9229 89.1866 28.7729 90.0087 28.7729C90.8199 28.7729 91.5772 28.9229 92.2806 29.223C92.9943 29.5122 93.6165 29.9248 94.1466 30.4605C94.6876 30.9855 95.1044 31.6015 95.3965 32.3087C95.6994 33.0052 95.8508 33.7605 95.8508 34.5748C95.8508 35.3891 95.6994 36.1498 95.3965 36.857C95.1044 37.5534 94.6876 38.1695 94.1466 38.7052C93.6165 39.2302 92.9943 39.6427 92.2806 39.9427C91.5772 40.2321 90.8199 40.3767 90.0087 40.3767ZM90.0087 39.2356C90.6576 39.2356 91.258 39.1177 91.8099 38.882C92.3618 38.6463 92.8428 38.3195 93.2542 37.9017C93.6759 37.4731 94.0006 36.9748 94.2278 36.407C94.4659 35.8391 94.5846 35.2284 94.5846 34.5748C94.5846 33.9105 94.4659 33.2998 94.2278 32.7426C94.0006 32.1748 93.6759 31.6819 93.2542 31.264C92.8428 30.8355 92.3618 30.5033 91.8099 30.2676C91.258 30.0319 90.6576 29.914 90.0087 29.914C89.3593 29.914 88.7534 30.0319 88.1912 30.2676C87.6393 30.5033 87.1522 30.8355 86.7305 31.264C86.3193 31.6819 85.9948 32.1748 85.7568 32.7426C85.5296 33.2998 85.416 33.9052 85.416 34.5588C85.416 35.223 85.5296 35.8391 85.7568 36.407C85.9948 36.9748 86.3193 37.4731 86.7305 37.9017C87.1522 38.3195 87.6393 38.6463 88.1912 38.882C88.7534 39.1177 89.3593 39.2356 90.0087 39.2356ZM98.4566 40.1999V28.9497H99.7064L106.538 38.0784V28.9497H107.723V40.1999H106.62L99.6416 30.8301V40.1999H98.4566Z" fill="#1C2027"/>
</svg>
