<svg width="600" height="287" viewBox="0 0 600 287" fill="none" xmlns="http://www.w3.org/2000/svg">
<g filter="url(#filter0_d_1_5623)">
<rect x="10" y="10" width="580" height="267" rx="24" fill="#FFFEFF"/>
</g>
<path d="M44.16 56.22C43.12 56.22 42.1533 56.04 41.26 55.68C40.38 55.3067 39.6 54.7933 38.92 54.14C38.2533 53.4733 37.7333 52.7067 37.36 51.84C37 50.96 36.82 50.0133 36.82 49C36.82 47.9867 37 47.0467 37.36 46.18C37.7333 45.3 38.2533 44.5333 38.92 43.88C39.6 43.2133 40.3867 42.7 41.28 42.34C42.1733 41.9667 43.1333 41.78 44.16 41.78C44.8933 41.78 45.6067 41.88 46.3 42.08C47.0067 42.2667 47.6533 42.54 48.24 42.9C48.84 43.26 49.36 43.6933 49.8 44.2L48.4 45.64C47.88 45.0133 47.2467 44.54 46.5 44.22C45.7533 43.8867 44.9733 43.72 44.16 43.72C43.4133 43.72 42.72 43.8533 42.08 44.12C41.4533 44.3867 40.9067 44.76 40.44 45.24C39.9733 45.7067 39.6067 46.26 39.34 46.9C39.0867 47.54 38.96 48.24 38.96 49C38.96 49.7467 39.0867 50.44 39.34 51.08C39.6067 51.72 39.98 52.28 40.46 52.76C40.94 53.24 41.5 53.6133 42.14 53.88C42.78 54.1467 43.4733 54.28 44.22 54.28C45.0333 54.28 45.8 54.12 46.52 53.8C47.2533 53.4667 47.8733 53 48.38 52.4L49.76 53.8C49.2933 54.2933 48.76 54.7267 48.16 55.1C47.5733 55.46 46.9333 55.74 46.24 55.94C45.56 56.1267 44.8667 56.22 44.16 56.22ZM54.7945 56.18C54.0612 56.18 53.4145 56.0533 52.8545 55.8C52.2945 55.5333 51.8545 55.1667 51.5345 54.7C51.2145 54.2333 51.0545 53.6933 51.0545 53.08C51.0545 52.12 51.4212 51.3667 52.1545 50.82C52.8879 50.26 53.8945 49.98 55.1745 49.98C56.1745 49.98 57.1012 50.1733 57.9545 50.56V49.48C57.9545 48.7467 57.7412 48.2 57.3145 47.84C56.9012 47.48 56.2879 47.3 55.4745 47.3C55.0079 47.3 54.5212 47.3733 54.0145 47.52C53.5079 47.6533 52.9412 47.8667 52.3145 48.16L51.5745 46.66C52.3479 46.3 53.0679 46.04 53.7345 45.88C54.4012 45.7067 55.0745 45.62 55.7545 45.62C57.0745 45.62 58.0945 45.9333 58.8145 46.56C59.5479 47.1867 59.9145 48.08 59.9145 49.24V56H57.9545V55.12C57.5012 55.48 57.0145 55.7467 56.4945 55.92C55.9745 56.0933 55.4079 56.18 54.7945 56.18ZM52.9745 53.04C52.9745 53.5333 53.1812 53.9333 53.5945 54.24C54.0212 54.5333 54.5745 54.68 55.2545 54.68C55.7879 54.68 56.2745 54.6067 56.7145 54.46C57.1679 54.3 57.5812 54.0533 57.9545 53.72V52C57.5679 51.7733 57.1612 51.6133 56.7345 51.52C56.3212 51.4133 55.8545 51.36 55.3345 51.36C54.6012 51.36 54.0212 51.5133 53.5945 51.82C53.1812 52.1133 52.9745 52.52 52.9745 53.04ZM65.7191 56.2C64.8391 56.2 64.0124 56.0733 63.2391 55.82C62.4791 55.5533 61.8191 55.18 61.2591 54.7L62.3591 53.38C62.8791 53.7933 63.4124 54.1133 63.9591 54.34C64.5191 54.5533 65.0857 54.66 65.6591 54.66C66.3791 54.66 66.9657 54.52 67.4191 54.24C67.8724 53.96 68.0991 53.5933 68.0991 53.14C68.0991 52.7667 67.9657 52.4733 67.6991 52.26C67.4324 52.0467 67.0191 51.9 66.4591 51.82L64.6191 51.56C63.6057 51.4133 62.8457 51.1 62.3391 50.62C61.8324 50.14 61.5791 49.5 61.5791 48.7C61.5791 48.0867 61.7457 47.5533 62.0791 47.1C62.4124 46.6333 62.8791 46.2733 63.4791 46.02C64.0791 45.7533 64.7791 45.62 65.5791 45.62C66.3124 45.62 67.0191 45.7267 67.6991 45.94C68.3791 46.1533 69.0324 46.4867 69.6591 46.94L68.6391 48.26C68.0791 47.8867 67.5324 47.6133 66.9991 47.44C66.4791 47.2667 65.9524 47.18 65.4191 47.18C64.8057 47.18 64.3124 47.3133 63.9391 47.58C63.5657 47.8333 63.3791 48.1667 63.3791 48.58C63.3791 48.9533 63.5057 49.2467 63.7591 49.46C64.0257 49.66 64.4591 49.8 65.0591 49.88L66.8991 50.14C67.9124 50.2867 68.6791 50.6 69.1991 51.08C69.7191 51.5467 69.9791 52.18 69.9791 52.98C69.9791 53.5933 69.7924 54.1467 69.4191 54.64C69.0457 55.12 68.5391 55.5 67.8991 55.78C67.2591 56.06 66.5324 56.2 65.7191 56.2ZM71.5159 56V42L73.5159 41.56V46.86C74.3026 46.0333 75.3226 45.62 76.5759 45.62C77.3626 45.62 78.0493 45.7867 78.6359 46.12C79.2359 46.4533 79.7026 46.92 80.0359 47.52C80.3826 48.12 80.5559 48.8133 80.5559 49.6V56H78.5559V49.94C78.5559 49.14 78.3293 48.5133 77.8759 48.06C77.4226 47.5933 76.8026 47.36 76.0159 47.36C75.4826 47.36 75.0026 47.4733 74.5759 47.7C74.1493 47.9267 73.7959 48.2533 73.5159 48.68V56H71.5159ZM82.8636 56V42L84.8636 41.62V46.78C85.7169 46.0333 86.7503 45.66 87.9636 45.66C88.9236 45.66 89.7903 45.8933 90.5636 46.36C91.3503 46.8267 91.9703 47.4533 92.4236 48.24C92.8769 49.0267 93.1036 49.9133 93.1036 50.9C93.1036 51.8867 92.8703 52.78 92.4036 53.58C91.9503 54.3667 91.3303 54.9933 90.5436 55.46C89.7703 55.9267 88.8969 56.16 87.9236 56.16C87.3636 56.16 86.8169 56.0733 86.2836 55.9C85.7636 55.7133 85.2836 55.4533 84.8436 55.12V56H82.8636ZM87.7036 54.42C88.3569 54.42 88.9369 54.2667 89.4436 53.96C89.9636 53.6533 90.3769 53.24 90.6836 52.72C90.9903 52.1867 91.1436 51.5867 91.1436 50.92C91.1436 50.2533 90.9903 49.6533 90.6836 49.12C90.3769 48.5867 89.9636 48.1667 89.4436 47.86C88.9369 47.5533 88.3569 47.4 87.7036 47.4C87.1303 47.4 86.5969 47.5067 86.1036 47.72C85.6103 47.9333 85.1969 48.2333 84.8636 48.62V53.22C85.1969 53.5933 85.6103 53.8867 86.1036 54.1C86.6103 54.3133 87.1436 54.42 87.7036 54.42ZM98.3297 56.18C97.5964 56.18 96.9497 56.0533 96.3897 55.8C95.8297 55.5333 95.3897 55.1667 95.0697 54.7C94.7497 54.2333 94.5897 53.6933 94.5897 53.08C94.5897 52.12 94.9564 51.3667 95.6897 50.82C96.423 50.26 97.4297 49.98 98.7097 49.98C99.7097 49.98 100.636 50.1733 101.49 50.56V49.48C101.49 48.7467 101.276 48.2 100.85 47.84C100.436 47.48 99.823 47.3 99.0097 47.3C98.543 47.3 98.0564 47.3733 97.5497 47.52C97.043 47.6533 96.4764 47.8667 95.8497 48.16L95.1097 46.66C95.883 46.3 96.603 46.04 97.2697 45.88C97.9364 45.7067 98.6097 45.62 99.2897 45.62C100.61 45.62 101.63 45.9333 102.35 46.56C103.083 47.1867 103.45 48.08 103.45 49.24V56H101.49V55.12C101.036 55.48 100.55 55.7467 100.03 55.92C99.5097 56.0933 98.943 56.18 98.3297 56.18ZM96.5097 53.04C96.5097 53.5333 96.7164 53.9333 97.1297 54.24C97.5564 54.5333 98.1097 54.68 98.7897 54.68C99.323 54.68 99.8097 54.6067 100.25 54.46C100.703 54.3 101.116 54.0533 101.49 53.72V52C101.103 51.7733 100.696 51.6133 100.27 51.52C99.8564 51.4133 99.3897 51.36 98.8697 51.36C98.1364 51.36 97.5564 51.5133 97.1297 51.82C96.7164 52.1133 96.5097 52.52 96.5097 53.04ZM110.534 56.18C109.561 56.18 108.674 55.9467 107.874 55.48C107.074 55.0133 106.441 54.38 105.974 53.58C105.521 52.78 105.294 51.8867 105.294 50.9C105.294 49.9133 105.528 49.0267 105.994 48.24C106.461 47.44 107.088 46.8067 107.874 46.34C108.674 45.86 109.561 45.62 110.534 45.62C111.308 45.62 112.048 45.7667 112.754 46.06C113.474 46.3533 114.094 46.7667 114.614 47.3L113.374 48.68C112.988 48.2533 112.554 47.9333 112.074 47.72C111.594 47.5067 111.094 47.4 110.574 47.4C109.961 47.4 109.401 47.5533 108.894 47.86C108.401 48.1667 108.008 48.5867 107.714 49.12C107.421 49.6533 107.274 50.2467 107.274 50.9C107.274 51.5533 107.421 52.1467 107.714 52.68C108.008 53.2133 108.408 53.64 108.914 53.96C109.421 54.2667 109.988 54.42 110.614 54.42C111.134 54.42 111.621 54.32 112.074 54.12C112.528 53.9067 112.954 53.6 113.354 53.2L114.574 54.48C114.041 55.0267 113.421 55.4467 112.714 55.74C112.021 56.0333 111.294 56.18 110.534 56.18ZM116.184 56V42L118.184 41.62V50.28L123.124 45.82H125.464L120.204 50.58L125.744 56H123.104L118.184 51.22V56H116.184ZM132.372 56V47.5H130.012V45.82H132.372V44.28C132.372 43.2133 132.665 42.4 133.252 41.84C133.852 41.28 134.705 41 135.812 41C136.092 41 136.352 41.02 136.592 41.06C136.845 41.0867 137.072 41.1333 137.272 41.2V42.92C137.032 42.8533 136.819 42.8067 136.632 42.78C136.445 42.74 136.239 42.72 136.012 42.72C135.452 42.72 135.032 42.8533 134.752 43.12C134.485 43.3733 134.352 43.78 134.352 44.34V45.82H137.272V47.5H134.352V56H132.372ZM138.801 56V45.82H140.801V47.12C141.121 46.64 141.514 46.2667 141.981 46C142.461 45.72 143.001 45.58 143.601 45.58C144.014 45.5933 144.354 45.6533 144.621 45.76V47.56C144.434 47.48 144.241 47.4267 144.041 47.4C143.841 47.36 143.641 47.34 143.441 47.34C142.854 47.34 142.334 47.5 141.881 47.82C141.428 48.1267 141.068 48.58 140.801 49.18V56H138.801ZM150.477 56.2C149.49 56.2 148.59 55.9667 147.777 55.5C146.977 55.0333 146.344 54.4 145.877 53.6C145.41 52.8 145.177 51.9067 145.177 50.92C145.177 49.9333 145.41 49.04 145.877 48.24C146.344 47.44 146.977 46.8067 147.777 46.34C148.59 45.86 149.49 45.62 150.477 45.62C151.477 45.62 152.377 45.86 153.177 46.34C153.977 46.8067 154.61 47.44 155.077 48.24C155.544 49.04 155.777 49.9333 155.777 50.92C155.777 51.9067 155.544 52.8 155.077 53.6C154.61 54.4 153.977 55.0333 153.177 55.5C152.377 55.9667 151.477 56.2 150.477 56.2ZM150.477 54.44C151.104 54.44 151.67 54.2867 152.177 53.98C152.684 53.66 153.084 53.2333 153.377 52.7C153.67 52.1667 153.817 51.5667 153.817 50.9C153.817 50.2467 153.664 49.66 153.357 49.14C153.064 48.6067 152.664 48.18 152.157 47.86C151.664 47.54 151.104 47.38 150.477 47.38C149.85 47.38 149.284 47.54 148.777 47.86C148.284 48.18 147.884 48.6067 147.577 49.14C147.284 49.66 147.137 50.2467 147.137 50.9C147.137 51.5667 147.284 52.1667 147.577 52.7C147.87 53.2333 148.27 53.66 148.777 53.98C149.284 54.2867 149.85 54.44 150.477 54.44ZM157.668 56V45.82H159.668V46.8C160.428 46.0133 161.382 45.62 162.528 45.62C163.222 45.62 163.835 45.7733 164.368 46.08C164.915 46.3867 165.348 46.8 165.668 47.32C166.095 46.76 166.595 46.34 167.168 46.06C167.742 45.7667 168.388 45.62 169.108 45.62C169.868 45.62 170.528 45.7867 171.088 46.12C171.662 46.4533 172.108 46.92 172.428 47.52C172.762 48.12 172.928 48.8133 172.928 49.6V56H170.928V49.94C170.928 49.14 170.715 48.5133 170.288 48.06C169.875 47.5933 169.308 47.36 168.588 47.36C168.095 47.36 167.648 47.4733 167.248 47.7C166.848 47.9267 166.502 48.2733 166.208 48.74C166.235 48.8733 166.255 49.0133 166.268 49.16C166.282 49.3067 166.288 49.4533 166.288 49.6V56H164.308V49.94C164.308 49.14 164.095 48.5133 163.668 48.06C163.255 47.5933 162.688 47.36 161.968 47.36C161.488 47.36 161.055 47.4667 160.668 47.68C160.282 47.88 159.948 48.1867 159.668 48.6V56H157.668ZM179.407 60.08V45.82H181.387V46.8C182.24 46.04 183.28 45.66 184.507 45.66C185.467 45.66 186.333 45.8933 187.107 46.36C187.893 46.8267 188.513 47.4533 188.967 48.24C189.42 49.0267 189.647 49.9133 189.647 50.9C189.647 51.8867 189.413 52.78 188.947 53.58C188.493 54.3667 187.873 54.9933 187.087 55.46C186.313 55.9267 185.44 56.16 184.467 56.16C183.907 56.16 183.367 56.0733 182.847 55.9C182.327 55.7133 181.847 55.4533 181.407 55.12V60.08H179.407ZM184.247 54.42C184.9 54.42 185.48 54.2667 185.987 53.96C186.507 53.6533 186.92 53.24 187.227 52.72C187.533 52.1867 187.687 51.5867 187.687 50.92C187.687 50.2533 187.533 49.6533 187.227 49.12C186.92 48.5867 186.507 48.1667 185.987 47.86C185.48 47.5533 184.9 47.4 184.247 47.4C183.673 47.4 183.14 47.5067 182.647 47.72C182.153 47.9333 181.74 48.2333 181.407 48.62V53.22C181.74 53.5933 182.153 53.8867 182.647 54.1C183.153 54.3133 183.687 54.42 184.247 54.42ZM194.873 56.18C194.139 56.18 193.493 56.0533 192.933 55.8C192.373 55.5333 191.933 55.1667 191.613 54.7C191.293 54.2333 191.133 53.6933 191.133 53.08C191.133 52.12 191.499 51.3667 192.233 50.82C192.966 50.26 193.973 49.98 195.253 49.98C196.253 49.98 197.179 50.1733 198.033 50.56V49.48C198.033 48.7467 197.819 48.2 197.393 47.84C196.979 47.48 196.366 47.3 195.553 47.3C195.086 47.3 194.599 47.3733 194.093 47.52C193.586 47.6533 193.019 47.8667 192.393 48.16L191.653 46.66C192.426 46.3 193.146 46.04 193.813 45.88C194.479 45.7067 195.153 45.62 195.833 45.62C197.153 45.62 198.173 45.9333 198.893 46.56C199.626 47.1867 199.993 48.08 199.993 49.24V56H198.033V55.12C197.579 55.48 197.093 55.7467 196.573 55.92C196.053 56.0933 195.486 56.18 194.873 56.18ZM193.053 53.04C193.053 53.5333 193.259 53.9333 193.673 54.24C194.099 54.5333 194.653 54.68 195.333 54.68C195.866 54.68 196.353 54.6067 196.793 54.46C197.246 54.3 197.659 54.0533 198.033 53.72V52C197.646 51.7733 197.239 51.6133 196.813 51.52C196.399 51.4133 195.933 51.36 195.413 51.36C194.679 51.36 194.099 51.5133 193.673 51.82C193.259 52.1133 193.053 52.52 193.053 53.04ZM202.297 56V45.82H204.297V47.12C204.617 46.64 205.011 46.2667 205.477 46C205.957 45.72 206.497 45.58 207.097 45.58C207.511 45.5933 207.851 45.6533 208.117 45.76V47.56C207.931 47.48 207.737 47.4267 207.537 47.4C207.337 47.36 207.137 47.34 206.937 47.34C206.351 47.34 205.831 47.5 205.377 47.82C204.924 48.1267 204.564 48.58 204.297 49.18V56H202.297ZM214.079 56.18C213.092 56.18 212.339 55.9533 211.819 55.5C211.299 55.0333 211.039 54.36 211.039 53.48V47.5H208.879V45.82H211.039V43.22L213.019 42.74V45.82H216.019V47.5H213.019V53.02C213.019 53.54 213.132 53.9133 213.359 54.14C213.599 54.3533 213.986 54.46 214.519 54.46C214.799 54.46 215.046 54.44 215.259 54.4C215.486 54.36 215.726 54.3 215.979 54.22V55.9C215.712 55.9933 215.399 56.06 215.039 56.1C214.692 56.1533 214.372 56.18 214.079 56.18ZM217.493 56V45.82H219.493V46.86C220.279 46.0333 221.299 45.62 222.553 45.62C223.339 45.62 224.026 45.7867 224.613 46.12C225.213 46.4533 225.679 46.92 226.013 47.52C226.359 48.12 226.533 48.8133 226.533 49.6V56H224.533V49.94C224.533 49.14 224.306 48.5133 223.853 48.06C223.413 47.5933 222.793 47.36 221.993 47.36C221.459 47.36 220.979 47.4733 220.553 47.7C220.126 47.9267 219.773 48.2533 219.493 48.68V56H217.493ZM233.72 56.18C232.72 56.18 231.813 55.9467 231 55.48C230.2 55.0133 229.56 54.38 229.08 53.58C228.613 52.78 228.38 51.8867 228.38 50.9C228.38 49.9267 228.607 49.0467 229.06 48.26C229.513 47.46 230.127 46.8267 230.9 46.36C231.673 45.88 232.533 45.64 233.48 45.64C234.427 45.64 235.267 45.88 236 46.36C236.733 46.8267 237.313 47.4667 237.74 48.28C238.18 49.08 238.4 49.9867 238.4 51V51.56H230.38C230.487 52.12 230.693 52.62 231 53.06C231.32 53.5 231.72 53.8467 232.2 54.1C232.693 54.3533 233.227 54.48 233.8 54.48C234.293 54.48 234.767 54.4067 235.22 54.26C235.687 54.1 236.073 53.8733 236.38 53.58L237.66 54.84C237.06 55.2933 236.44 55.6333 235.8 55.86C235.173 56.0733 234.48 56.18 233.72 56.18ZM230.4 50.06H236.42C236.34 49.5267 236.153 49.06 235.86 48.66C235.58 48.2467 235.227 47.9267 234.8 47.7C234.387 47.46 233.933 47.34 233.44 47.34C232.933 47.34 232.467 47.4533 232.04 47.68C231.613 47.9067 231.253 48.2267 230.96 48.64C230.68 49.04 230.493 49.5133 230.4 50.06ZM240.305 56V45.82H242.305V47.12C242.625 46.64 243.018 46.2667 243.485 46C243.965 45.72 244.505 45.58 245.105 45.58C245.518 45.5933 245.858 45.6533 246.125 45.76V47.56C245.938 47.48 245.745 47.4267 245.545 47.4C245.345 47.36 245.145 47.34 244.945 47.34C244.358 47.34 243.838 47.5 243.385 47.82C242.932 48.1267 242.572 48.58 242.305 49.18V56H240.305ZM251.227 56.2C250.347 56.2 249.52 56.0733 248.747 55.82C247.987 55.5533 247.327 55.18 246.767 54.7L247.867 53.38C248.387 53.7933 248.92 54.1133 249.467 54.34C250.027 54.5533 250.594 54.66 251.167 54.66C251.887 54.66 252.474 54.52 252.927 54.24C253.38 53.96 253.607 53.5933 253.607 53.14C253.607 52.7667 253.474 52.4733 253.207 52.26C252.94 52.0467 252.527 51.9 251.967 51.82L250.127 51.56C249.114 51.4133 248.354 51.1 247.847 50.62C247.34 50.14 247.087 49.5 247.087 48.7C247.087 48.0867 247.254 47.5533 247.587 47.1C247.92 46.6333 248.387 46.2733 248.987 46.02C249.587 45.7533 250.287 45.62 251.087 45.62C251.82 45.62 252.527 45.7267 253.207 45.94C253.887 46.1533 254.54 46.4867 255.167 46.94L254.147 48.26C253.587 47.8867 253.04 47.6133 252.507 47.44C251.987 47.2667 251.46 47.18 250.927 47.18C250.314 47.18 249.82 47.3133 249.447 47.58C249.074 47.8333 248.887 48.1667 248.887 48.58C248.887 48.9533 249.014 49.2467 249.267 49.46C249.534 49.66 249.967 49.8 250.567 49.88L252.407 50.14C253.42 50.2867 254.187 50.6 254.707 51.08C255.227 51.5467 255.487 52.18 255.487 52.98C255.487 53.5933 255.3 54.1467 254.927 54.64C254.554 55.12 254.047 55.5 253.407 55.78C252.767 56.06 252.04 56.2 251.227 56.2Z" fill="black"/>
<rect x="36.5" y="95.5" width="197" height="67" rx="33.5" stroke="#8D8F93"/>
<circle cx="73" cy="129" r="23" fill="#1C2027"/>
<path d="M78.1643 137.157C77.0658 138.266 75.8665 138.091 74.712 137.566C73.4903 137.029 72.3695 137.006 71.0805 137.566C69.4665 138.289 68.6146 138.079 67.6507 137.157C62.1809 131.29 62.988 122.354 69.1975 122.028C70.7106 122.109 71.7642 122.891 72.6497 122.961C73.9723 122.681 75.2388 121.876 76.6511 121.981C78.3436 122.121 79.6214 122.821 80.462 124.081C76.9649 126.262 77.7944 131.057 81 132.398C80.3611 134.148 79.5317 135.886 78.153 137.169L78.1643 137.157ZM72.5376 121.958C72.3695 119.356 74.3982 117.21 76.7296 117C77.0546 120.01 74.1068 122.249 72.5376 121.958Z" fill="#FFFEFF"/>
<path d="M104.016 124L108.64 112.8H110.624L115.2 124H113.376L112.08 120.72H107.072L105.76 124H104.016ZM107.616 119.328H111.536L109.584 114.4L107.616 119.328ZM116.483 127.264V115.856H118.067V116.64C118.749 116.032 119.581 115.728 120.563 115.728C121.331 115.728 122.024 115.915 122.643 116.288C123.272 116.661 123.768 117.163 124.131 117.792C124.493 118.421 124.675 119.131 124.675 119.92C124.675 120.709 124.488 121.424 124.115 122.064C123.752 122.693 123.256 123.195 122.627 123.568C122.008 123.941 121.309 124.128 120.531 124.128C120.083 124.128 119.651 124.059 119.235 123.92C118.819 123.771 118.435 123.563 118.083 123.296V127.264H116.483ZM120.355 122.736C120.877 122.736 121.341 122.613 121.747 122.368C122.163 122.123 122.493 121.792 122.739 121.376C122.984 120.949 123.107 120.469 123.107 119.936C123.107 119.403 122.984 118.923 122.739 118.496C122.493 118.069 122.163 117.733 121.747 117.488C121.341 117.243 120.877 117.12 120.355 117.12C119.896 117.12 119.469 117.205 119.075 117.376C118.68 117.547 118.349 117.787 118.083 118.096V121.776C118.349 122.075 118.68 122.309 119.075 122.48C119.48 122.651 119.907 122.736 120.355 122.736ZM126.521 127.264V115.856H128.105V116.64C128.788 116.032 129.62 115.728 130.601 115.728C131.369 115.728 132.063 115.915 132.681 116.288C133.311 116.661 133.807 117.163 134.169 117.792C134.532 118.421 134.714 119.131 134.714 119.92C134.714 120.709 134.527 121.424 134.153 122.064C133.791 122.693 133.295 123.195 132.665 123.568C132.047 123.941 131.348 124.128 130.569 124.128C130.121 124.128 129.689 124.059 129.273 123.92C128.857 123.771 128.473 123.563 128.121 123.296V127.264H126.521ZM130.393 122.736C130.916 122.736 131.38 122.613 131.785 122.368C132.201 122.123 132.532 121.792 132.777 121.376C133.023 120.949 133.145 120.469 133.145 119.936C133.145 119.403 133.023 118.923 132.777 118.496C132.532 118.069 132.201 117.733 131.785 117.488C131.38 117.243 130.916 117.12 130.393 117.12C129.935 117.12 129.508 117.205 129.113 117.376C128.719 117.547 128.388 117.787 128.121 118.096V121.776C128.388 122.075 128.719 122.309 129.113 122.48C129.519 122.651 129.945 122.736 130.393 122.736ZM136.56 124V112.8L138.16 112.496V124H136.56ZM144.269 124.144C143.469 124.144 142.743 123.957 142.093 123.584C141.453 123.211 140.941 122.704 140.557 122.064C140.183 121.424 139.997 120.709 139.997 119.92C139.997 119.141 140.178 118.437 140.541 117.808C140.903 117.168 141.394 116.661 142.013 116.288C142.631 115.904 143.319 115.712 144.077 115.712C144.834 115.712 145.506 115.904 146.093 116.288C146.679 116.661 147.143 117.173 147.485 117.824C147.837 118.464 148.013 119.189 148.013 120V120.448H141.597C141.682 120.896 141.847 121.296 142.093 121.648C142.349 122 142.669 122.277 143.053 122.48C143.447 122.683 143.874 122.784 144.333 122.784C144.727 122.784 145.106 122.725 145.469 122.608C145.842 122.48 146.151 122.299 146.397 122.064L147.421 123.072C146.941 123.435 146.445 123.707 145.933 123.888C145.431 124.059 144.877 124.144 144.269 124.144ZM141.613 119.248H146.429C146.365 118.821 146.215 118.448 145.981 118.128C145.757 117.797 145.474 117.541 145.133 117.36C144.802 117.168 144.439 117.072 144.045 117.072C143.639 117.072 143.266 117.163 142.925 117.344C142.583 117.525 142.295 117.781 142.061 118.112C141.837 118.432 141.687 118.811 141.613 119.248Z" fill="black"/>
<path d="M109.698 148.154C108.989 148.154 108.326 148.028 107.71 147.776C107.094 147.515 106.553 147.155 106.086 146.698C105.619 146.231 105.255 145.695 104.994 145.088C104.742 144.472 104.616 143.809 104.616 143.1C104.616 142.391 104.742 141.733 104.994 141.126C105.255 140.51 105.619 139.973 106.086 139.516C106.553 139.049 107.094 138.69 107.71 138.438C108.326 138.177 108.989 138.046 109.698 138.046C110.211 138.046 110.701 138.111 111.168 138.242C111.644 138.363 112.083 138.545 112.484 138.788C112.895 139.021 113.259 139.311 113.576 139.656L112.862 140.412C112.479 139.973 112.008 139.637 111.448 139.404C110.888 139.161 110.305 139.04 109.698 139.04C109.129 139.04 108.601 139.143 108.116 139.348C107.631 139.553 107.206 139.843 106.842 140.216C106.487 140.58 106.207 141.009 106.002 141.504C105.806 141.989 105.708 142.521 105.708 143.1C105.708 143.669 105.806 144.201 106.002 144.696C106.207 145.191 106.492 145.625 106.856 145.998C107.22 146.362 107.645 146.647 108.13 146.852C108.625 147.057 109.157 147.16 109.726 147.16C110.333 147.16 110.911 147.043 111.462 146.81C112.013 146.567 112.475 146.236 112.848 145.816L113.548 146.544C113.221 146.88 112.853 147.169 112.442 147.412C112.041 147.655 111.607 147.841 111.14 147.972C110.673 148.093 110.193 148.154 109.698 148.154ZM117.478 148.126C116.964 148.126 116.512 148.037 116.12 147.86C115.737 147.683 115.434 147.435 115.21 147.118C114.995 146.801 114.888 146.432 114.888 146.012C114.888 145.349 115.14 144.827 115.644 144.444C116.148 144.061 116.829 143.87 117.688 143.87C118.444 143.87 119.13 144.029 119.746 144.346V143.422C119.746 142.862 119.587 142.442 119.27 142.162C118.952 141.873 118.49 141.728 117.884 141.728C117.538 141.728 117.188 141.779 116.834 141.882C116.488 141.975 116.106 142.129 115.686 142.344L115.294 141.546C115.798 141.303 116.264 141.126 116.694 141.014C117.123 140.902 117.552 140.846 117.982 140.846C118.868 140.846 119.55 141.056 120.026 141.476C120.511 141.896 120.754 142.498 120.754 143.282V148H119.746V147.314C119.428 147.585 119.078 147.79 118.696 147.93C118.322 148.061 117.916 148.126 117.478 148.126ZM115.882 145.984C115.882 146.376 116.045 146.698 116.372 146.95C116.708 147.193 117.137 147.314 117.66 147.314C118.08 147.314 118.462 147.249 118.808 147.118C119.153 146.987 119.466 146.782 119.746 146.502V145.186C119.456 144.99 119.148 144.85 118.822 144.766C118.495 144.673 118.126 144.626 117.716 144.626C117.156 144.626 116.708 144.752 116.372 145.004C116.045 145.247 115.882 145.573 115.882 145.984ZM125.004 148.14C124.426 148.14 123.88 148.047 123.366 147.86C122.862 147.664 122.424 147.393 122.05 147.048L122.68 146.376C123.007 146.675 123.366 146.908 123.758 147.076C124.15 147.235 124.552 147.314 124.962 147.314C125.522 147.314 125.98 147.197 126.334 146.964C126.689 146.731 126.866 146.427 126.866 146.054C126.866 145.746 126.759 145.508 126.544 145.34C126.339 145.163 126.012 145.041 125.564 144.976L124.346 144.808C123.646 144.705 123.124 144.495 122.778 144.178C122.442 143.861 122.274 143.431 122.274 142.89C122.274 142.498 122.386 142.148 122.61 141.84C122.834 141.532 123.142 141.289 123.534 141.112C123.936 140.935 124.393 140.846 124.906 140.846C125.42 140.846 125.9 140.921 126.348 141.07C126.796 141.219 127.235 141.453 127.664 141.77L127.118 142.47C126.726 142.199 126.344 142.003 125.97 141.882C125.606 141.751 125.233 141.686 124.85 141.686C124.365 141.686 123.973 141.793 123.674 142.008C123.376 142.223 123.226 142.503 123.226 142.848C123.226 143.165 123.329 143.408 123.534 143.576C123.74 143.735 124.071 143.847 124.528 143.912L125.746 144.08C126.446 144.173 126.969 144.379 127.314 144.696C127.669 145.013 127.846 145.447 127.846 145.998C127.846 146.399 127.72 146.763 127.468 147.09C127.216 147.417 126.876 147.673 126.446 147.86C126.026 148.047 125.546 148.14 125.004 148.14ZM129.292 148V138.2L130.328 137.962V141.812C130.879 141.168 131.616 140.846 132.54 140.846C133.072 140.846 133.539 140.963 133.94 141.196C134.351 141.42 134.668 141.737 134.892 142.148C135.126 142.549 135.242 143.021 135.242 143.562V148H134.22V143.772C134.22 143.147 134.043 142.657 133.688 142.302C133.343 141.938 132.867 141.756 132.26 141.756C131.84 141.756 131.467 141.849 131.14 142.036C130.814 142.223 130.543 142.489 130.328 142.834V148H129.292ZM137.256 148V138.2L138.292 137.962V141.728C138.889 141.159 139.641 140.874 140.546 140.874C141.209 140.874 141.806 141.037 142.338 141.364C142.87 141.681 143.29 142.111 143.598 142.652C143.915 143.193 144.074 143.805 144.074 144.486C144.074 145.167 143.915 145.783 143.598 146.334C143.29 146.875 142.87 147.309 142.338 147.636C141.806 147.953 141.204 148.112 140.532 148.112C140.121 148.112 139.72 148.042 139.328 147.902C138.945 147.762 138.595 147.561 138.278 147.3V148H137.256ZM140.448 147.202C140.943 147.202 141.386 147.085 141.778 146.852C142.17 146.609 142.478 146.287 142.702 145.886C142.935 145.475 143.052 145.013 143.052 144.5C143.052 143.987 142.935 143.525 142.702 143.114C142.478 142.703 142.17 142.381 141.778 142.148C141.386 141.905 140.943 141.784 140.448 141.784C140.009 141.784 139.599 141.873 139.216 142.05C138.843 142.218 138.535 142.456 138.292 142.764V146.236C138.535 146.535 138.847 146.773 139.23 146.95C139.613 147.118 140.019 147.202 140.448 147.202ZM148.074 148.126C147.561 148.126 147.108 148.037 146.716 147.86C146.333 147.683 146.03 147.435 145.806 147.118C145.591 146.801 145.484 146.432 145.484 146.012C145.484 145.349 145.736 144.827 146.24 144.444C146.744 144.061 147.425 143.87 148.284 143.87C149.04 143.87 149.726 144.029 150.342 144.346V143.422C150.342 142.862 150.183 142.442 149.866 142.162C149.549 141.873 149.087 141.728 148.48 141.728C148.135 141.728 147.785 141.779 147.43 141.882C147.085 141.975 146.702 142.129 146.282 142.344L145.89 141.546C146.394 141.303 146.861 141.126 147.29 141.014C147.719 140.902 148.149 140.846 148.578 140.846C149.465 140.846 150.146 141.056 150.622 141.476C151.107 141.896 151.35 142.498 151.35 143.282V148H150.342V147.314C150.025 147.585 149.675 147.79 149.292 147.93C148.919 148.061 148.513 148.126 148.074 148.126ZM146.478 145.984C146.478 146.376 146.641 146.698 146.968 146.95C147.304 147.193 147.733 147.314 148.256 147.314C148.676 147.314 149.059 147.249 149.404 147.118C149.749 146.987 150.062 146.782 150.342 146.502V145.186C150.053 144.99 149.745 144.85 149.418 144.766C149.091 144.673 148.723 144.626 148.312 144.626C147.752 144.626 147.304 144.752 146.968 145.004C146.641 145.247 146.478 145.573 146.478 145.984ZM156.609 148.126C155.946 148.126 155.344 147.967 154.803 147.65C154.261 147.323 153.832 146.885 153.515 146.334C153.197 145.783 153.039 145.167 153.039 144.486C153.039 143.805 153.197 143.193 153.515 142.652C153.832 142.101 154.261 141.663 154.803 141.336C155.344 141.009 155.946 140.846 156.609 140.846C157.122 140.846 157.617 140.944 158.093 141.14C158.569 141.327 158.989 141.597 159.353 141.952L158.695 142.708C158.415 142.409 158.093 142.185 157.729 142.036C157.374 141.877 157.005 141.798 156.623 141.798C156.147 141.798 155.713 141.919 155.321 142.162C154.938 142.395 154.63 142.717 154.397 143.128C154.173 143.529 154.061 143.982 154.061 144.486C154.061 144.99 154.173 145.447 154.397 145.858C154.63 146.269 154.943 146.595 155.335 146.838C155.727 147.071 156.161 147.188 156.637 147.188C157.019 147.188 157.379 147.113 157.715 146.964C158.06 146.815 158.382 146.595 158.681 146.306L159.325 147.006C158.951 147.361 158.531 147.636 158.065 147.832C157.598 148.028 157.113 148.126 156.609 148.126ZM160.819 148V138.2L161.855 137.962V144.15L165.523 140.986H166.783L162.933 144.318L166.965 148H165.551L161.855 144.64V148H160.819ZM171.108 148V147.258L175.028 142.974C175.336 142.638 175.574 142.344 175.742 142.092C175.92 141.831 176.041 141.588 176.106 141.364C176.181 141.14 176.218 140.902 176.218 140.65C176.218 140.155 176.022 139.749 175.63 139.432C175.248 139.105 174.758 138.942 174.16 138.942C173.703 138.942 173.278 139.031 172.886 139.208C172.494 139.385 172.056 139.693 171.57 140.132L170.982 139.432C171.496 138.965 172.014 138.62 172.536 138.396C173.059 138.163 173.605 138.046 174.174 138.046C174.762 138.046 175.285 138.158 175.742 138.382C176.2 138.597 176.559 138.895 176.82 139.278C177.082 139.661 177.212 140.099 177.212 140.594C177.212 140.921 177.17 141.224 177.086 141.504C177.002 141.775 176.853 142.069 176.638 142.386C176.424 142.694 176.116 143.067 175.714 143.506L172.368 147.132L177.422 147.118V148H171.108ZM178.906 149.918L179.718 146.964H180.838L179.718 149.918H178.906ZM185.812 148.154C184.524 148.154 183.413 147.711 182.48 146.824L183.11 146.138C183.539 146.539 183.964 146.833 184.384 147.02C184.813 147.197 185.294 147.286 185.826 147.286C186.302 147.286 186.722 147.188 187.086 146.992C187.45 146.796 187.73 146.521 187.926 146.166C188.131 145.811 188.234 145.405 188.234 144.948C188.234 144.295 188.01 143.767 187.562 143.366C187.123 142.965 186.544 142.764 185.826 142.764C185.452 142.764 185.088 142.811 184.734 142.904C184.379 142.988 184.01 143.128 183.628 143.324L182.928 143.1L183.152 138.2H188.724V139.082H184.02L183.866 142.47C184.239 142.283 184.598 142.153 184.944 142.078C185.289 141.994 185.653 141.952 186.036 141.952C186.68 141.952 187.24 142.078 187.716 142.33C188.201 142.573 188.574 142.918 188.836 143.366C189.106 143.805 189.242 144.318 189.242 144.906C189.242 145.55 189.097 146.115 188.808 146.6C188.518 147.085 188.117 147.468 187.604 147.748C187.09 148.019 186.493 148.154 185.812 148.154ZM192.635 143.17C192.009 143.17 191.505 142.937 191.123 142.47C190.74 142.003 190.549 141.397 190.549 140.65C190.549 139.903 190.74 139.297 191.123 138.83C191.505 138.363 192.009 138.13 192.635 138.13C193.241 138.13 193.736 138.363 194.119 138.83C194.501 139.297 194.697 139.903 194.707 140.65C194.697 141.397 194.501 142.003 194.119 142.47C193.736 142.937 193.241 143.17 192.635 143.17ZM192.635 142.526C193.045 142.526 193.372 142.358 193.615 142.022C193.867 141.677 193.993 141.219 193.993 140.65C193.993 140.071 193.867 139.614 193.615 139.278C193.372 138.933 193.045 138.76 192.635 138.76C192.215 138.76 191.883 138.933 191.641 139.278C191.398 139.614 191.272 140.071 191.263 140.65C191.272 141.219 191.398 141.677 191.641 142.022C191.883 142.358 192.215 142.526 192.635 142.526ZM192.159 148L197.661 138.2H198.529L193.013 148H192.159ZM198.095 148.07C197.469 148.07 196.965 147.837 196.583 147.37C196.2 146.903 196.009 146.297 196.009 145.55C196.009 144.803 196.2 144.197 196.583 143.73C196.965 143.263 197.469 143.03 198.095 143.03C198.701 143.03 199.196 143.263 199.579 143.73C199.961 144.197 200.157 144.803 200.167 145.55C200.157 146.297 199.961 146.903 199.579 147.37C199.196 147.837 198.701 148.07 198.095 148.07ZM198.095 147.426C198.505 147.426 198.832 147.258 199.075 146.922C199.327 146.577 199.453 146.119 199.453 145.55C199.453 144.971 199.327 144.514 199.075 144.178C198.832 143.833 198.505 143.66 198.095 143.66C197.675 143.66 197.343 143.833 197.101 144.178C196.858 144.514 196.732 144.971 196.723 145.55C196.732 146.119 196.858 146.577 197.101 146.922C197.343 147.258 197.675 147.426 198.095 147.426Z" fill="#8D8F93"/>
<rect x="254.5" y="95.5" width="197" height="67" rx="33.5" stroke="#8D8F93"/>
<circle cx="291" cy="129" r="23" fill="#1C2027"/>
<path d="M291 123.363L293.476 120.336C293.476 120.336 297.719 120.426 301.945 122.391C300.863 124.028 298.715 124.829 298.715 124.829C298.571 123.391 297.563 123.04 294.36 123.04L291.001 142L287.618 123.036C284.438 123.036 283.431 123.388 283.286 124.825C283.286 124.825 281.138 124.032 280.056 122.395C284.282 120.43 288.525 120.34 288.525 120.34L291.002 123.363H290.998H291ZM291 119.465C294.414 119.433 298.325 119.992 302.328 121.742C302.864 120.773 303 120.347 303 120.347C298.625 118.613 294.527 118.016 291 118C287.473 118.016 283.375 118.61 279 120.347C279 120.347 279.195 120.875 279.672 121.746C283.676 119.988 287.586 119.434 291 119.461V119.465Z" fill="#FFFEFF"/>
<path d="M326.208 124V114.288H322.272V112.8H331.824V114.288H327.888V124H326.208ZM335.402 124.144C334.602 124.144 333.877 123.957 333.226 123.584C332.586 123.211 332.074 122.704 331.69 122.064C331.317 121.424 331.13 120.709 331.13 119.92C331.13 119.141 331.312 118.437 331.674 117.808C332.037 117.168 332.528 116.661 333.146 116.288C333.765 115.904 334.453 115.712 335.21 115.712C335.968 115.712 336.64 115.904 337.226 116.288C337.813 116.661 338.277 117.173 338.618 117.824C338.97 118.464 339.146 119.189 339.146 120V120.448H332.73C332.816 120.896 332.981 121.296 333.226 121.648C333.482 122 333.802 122.277 334.186 122.48C334.581 122.683 335.008 122.784 335.466 122.784C335.861 122.784 336.24 122.725 336.602 122.608C336.976 122.48 337.285 122.299 337.53 122.064L338.554 123.072C338.074 123.435 337.578 123.707 337.066 123.888C336.565 124.059 336.01 124.144 335.402 124.144ZM332.746 119.248H337.562C337.498 118.821 337.349 118.448 337.114 118.128C336.89 117.797 336.608 117.541 336.266 117.36C335.936 117.168 335.573 117.072 335.178 117.072C334.773 117.072 334.4 117.163 334.058 117.344C333.717 117.525 333.429 117.781 333.194 118.112C332.97 118.432 332.821 118.811 332.746 119.248ZM343.868 124.16C343.164 124.16 342.503 124.059 341.884 123.856C341.276 123.643 340.748 123.344 340.3 122.96L341.18 121.904C341.596 122.235 342.023 122.491 342.46 122.672C342.908 122.843 343.362 122.928 343.82 122.928C344.396 122.928 344.866 122.816 345.228 122.592C345.591 122.368 345.772 122.075 345.772 121.712C345.772 121.413 345.666 121.179 345.452 121.008C345.239 120.837 344.908 120.72 344.46 120.656L342.988 120.448C342.178 120.331 341.57 120.08 341.164 119.696C340.759 119.312 340.556 118.8 340.556 118.16C340.556 117.669 340.69 117.243 340.956 116.88C341.223 116.507 341.596 116.219 342.076 116.016C342.556 115.803 343.116 115.696 343.756 115.696C344.343 115.696 344.908 115.781 345.452 115.952C345.996 116.123 346.519 116.389 347.02 116.752L346.204 117.808C345.756 117.509 345.319 117.291 344.892 117.152C344.476 117.013 344.055 116.944 343.628 116.944C343.138 116.944 342.743 117.051 342.444 117.264C342.146 117.467 341.996 117.733 341.996 118.064C341.996 118.363 342.098 118.597 342.3 118.768C342.514 118.928 342.86 119.04 343.34 119.104L344.812 119.312C345.623 119.429 346.236 119.68 346.652 120.064C347.068 120.437 347.276 120.944 347.276 121.584C347.276 122.075 347.127 122.517 346.828 122.912C346.53 123.296 346.124 123.6 345.612 123.824C345.1 124.048 344.519 124.16 343.868 124.16ZM348.826 124V112.8L350.426 112.496V124H348.826ZM355.206 124.144C354.62 124.144 354.102 124.043 353.654 123.84C353.206 123.627 352.854 123.333 352.598 122.96C352.342 122.587 352.214 122.155 352.214 121.664C352.214 120.896 352.508 120.293 353.094 119.856C353.681 119.408 354.486 119.184 355.51 119.184C356.31 119.184 357.052 119.339 357.734 119.648V118.784C357.734 118.197 357.564 117.76 357.222 117.472C356.892 117.184 356.401 117.04 355.75 117.04C355.377 117.04 354.988 117.099 354.582 117.216C354.177 117.323 353.724 117.493 353.222 117.728L352.63 116.528C353.249 116.24 353.825 116.032 354.358 115.904C354.892 115.765 355.43 115.696 355.974 115.696C357.03 115.696 357.846 115.947 358.422 116.448C359.009 116.949 359.302 117.664 359.302 118.592V124H357.734V123.296C357.372 123.584 356.982 123.797 356.566 123.936C356.15 124.075 355.697 124.144 355.206 124.144ZM353.75 121.632C353.75 122.027 353.916 122.347 354.246 122.592C354.588 122.827 355.03 122.944 355.574 122.944C356.001 122.944 356.39 122.885 356.742 122.768C357.105 122.64 357.436 122.443 357.734 122.176V120.8C357.425 120.619 357.1 120.491 356.758 120.416C356.428 120.331 356.054 120.288 355.638 120.288C355.052 120.288 354.588 120.411 354.246 120.656C353.916 120.891 353.75 121.216 353.75 121.632Z" fill="black"/>
<path d="M327.698 148.154C326.989 148.154 326.326 148.028 325.71 147.776C325.094 147.515 324.553 147.155 324.086 146.698C323.619 146.231 323.255 145.695 322.994 145.088C322.742 144.472 322.616 143.809 322.616 143.1C322.616 142.391 322.742 141.733 322.994 141.126C323.255 140.51 323.619 139.973 324.086 139.516C324.553 139.049 325.094 138.69 325.71 138.438C326.326 138.177 326.989 138.046 327.698 138.046C328.211 138.046 328.701 138.111 329.168 138.242C329.644 138.363 330.083 138.545 330.484 138.788C330.895 139.021 331.259 139.311 331.576 139.656L330.862 140.412C330.479 139.973 330.008 139.637 329.448 139.404C328.888 139.161 328.305 139.04 327.698 139.04C327.129 139.04 326.601 139.143 326.116 139.348C325.631 139.553 325.206 139.843 324.842 140.216C324.487 140.58 324.207 141.009 324.002 141.504C323.806 141.989 323.708 142.521 323.708 143.1C323.708 143.669 323.806 144.201 324.002 144.696C324.207 145.191 324.492 145.625 324.856 145.998C325.22 146.362 325.645 146.647 326.13 146.852C326.625 147.057 327.157 147.16 327.726 147.16C328.333 147.16 328.911 147.043 329.462 146.81C330.013 146.567 330.475 146.236 330.848 145.816L331.548 146.544C331.221 146.88 330.853 147.169 330.442 147.412C330.041 147.655 329.607 147.841 329.14 147.972C328.673 148.093 328.193 148.154 327.698 148.154ZM335.478 148.126C334.964 148.126 334.512 148.037 334.12 147.86C333.737 147.683 333.434 147.435 333.21 147.118C332.995 146.801 332.888 146.432 332.888 146.012C332.888 145.349 333.14 144.827 333.644 144.444C334.148 144.061 334.829 143.87 335.688 143.87C336.444 143.87 337.13 144.029 337.746 144.346V143.422C337.746 142.862 337.587 142.442 337.27 142.162C336.952 141.873 336.49 141.728 335.884 141.728C335.538 141.728 335.188 141.779 334.834 141.882C334.488 141.975 334.106 142.129 333.686 142.344L333.294 141.546C333.798 141.303 334.264 141.126 334.694 141.014C335.123 140.902 335.552 140.846 335.982 140.846C336.868 140.846 337.55 141.056 338.026 141.476C338.511 141.896 338.754 142.498 338.754 143.282V148H337.746V147.314C337.428 147.585 337.078 147.79 336.696 147.93C336.322 148.061 335.916 148.126 335.478 148.126ZM333.882 145.984C333.882 146.376 334.045 146.698 334.372 146.95C334.708 147.193 335.137 147.314 335.66 147.314C336.08 147.314 336.462 147.249 336.808 147.118C337.153 146.987 337.466 146.782 337.746 146.502V145.186C337.456 144.99 337.148 144.85 336.822 144.766C336.495 144.673 336.126 144.626 335.716 144.626C335.156 144.626 334.708 144.752 334.372 145.004C334.045 145.247 333.882 145.573 333.882 145.984ZM343.004 148.14C342.426 148.14 341.88 148.047 341.366 147.86C340.862 147.664 340.424 147.393 340.05 147.048L340.68 146.376C341.007 146.675 341.366 146.908 341.758 147.076C342.15 147.235 342.552 147.314 342.962 147.314C343.522 147.314 343.98 147.197 344.334 146.964C344.689 146.731 344.866 146.427 344.866 146.054C344.866 145.746 344.759 145.508 344.544 145.34C344.339 145.163 344.012 145.041 343.564 144.976L342.346 144.808C341.646 144.705 341.124 144.495 340.778 144.178C340.442 143.861 340.274 143.431 340.274 142.89C340.274 142.498 340.386 142.148 340.61 141.84C340.834 141.532 341.142 141.289 341.534 141.112C341.936 140.935 342.393 140.846 342.906 140.846C343.42 140.846 343.9 140.921 344.348 141.07C344.796 141.219 345.235 141.453 345.664 141.77L345.118 142.47C344.726 142.199 344.344 142.003 343.97 141.882C343.606 141.751 343.233 141.686 342.85 141.686C342.365 141.686 341.973 141.793 341.674 142.008C341.376 142.223 341.226 142.503 341.226 142.848C341.226 143.165 341.329 143.408 341.534 143.576C341.74 143.735 342.071 143.847 342.528 143.912L343.746 144.08C344.446 144.173 344.969 144.379 345.314 144.696C345.669 145.013 345.846 145.447 345.846 145.998C345.846 146.399 345.72 146.763 345.468 147.09C345.216 147.417 344.876 147.673 344.446 147.86C344.026 148.047 343.546 148.14 343.004 148.14ZM347.292 148V138.2L348.328 137.962V141.812C348.879 141.168 349.616 140.846 350.54 140.846C351.072 140.846 351.539 140.963 351.94 141.196C352.351 141.42 352.668 141.737 352.892 142.148C353.126 142.549 353.242 143.021 353.242 143.562V148H352.22V143.772C352.22 143.147 352.043 142.657 351.688 142.302C351.343 141.938 350.867 141.756 350.26 141.756C349.84 141.756 349.467 141.849 349.14 142.036C348.814 142.223 348.543 142.489 348.328 142.834V148H347.292ZM355.256 148V138.2L356.292 137.962V141.728C356.889 141.159 357.641 140.874 358.546 140.874C359.209 140.874 359.806 141.037 360.338 141.364C360.87 141.681 361.29 142.111 361.598 142.652C361.915 143.193 362.074 143.805 362.074 144.486C362.074 145.167 361.915 145.783 361.598 146.334C361.29 146.875 360.87 147.309 360.338 147.636C359.806 147.953 359.204 148.112 358.532 148.112C358.121 148.112 357.72 148.042 357.328 147.902C356.945 147.762 356.595 147.561 356.278 147.3V148H355.256ZM358.448 147.202C358.943 147.202 359.386 147.085 359.778 146.852C360.17 146.609 360.478 146.287 360.702 145.886C360.935 145.475 361.052 145.013 361.052 144.5C361.052 143.987 360.935 143.525 360.702 143.114C360.478 142.703 360.17 142.381 359.778 142.148C359.386 141.905 358.943 141.784 358.448 141.784C358.009 141.784 357.599 141.873 357.216 142.05C356.843 142.218 356.535 142.456 356.292 142.764V146.236C356.535 146.535 356.847 146.773 357.23 146.95C357.613 147.118 358.019 147.202 358.448 147.202ZM366.074 148.126C365.561 148.126 365.108 148.037 364.716 147.86C364.333 147.683 364.03 147.435 363.806 147.118C363.591 146.801 363.484 146.432 363.484 146.012C363.484 145.349 363.736 144.827 364.24 144.444C364.744 144.061 365.425 143.87 366.284 143.87C367.04 143.87 367.726 144.029 368.342 144.346V143.422C368.342 142.862 368.183 142.442 367.866 142.162C367.549 141.873 367.087 141.728 366.48 141.728C366.135 141.728 365.785 141.779 365.43 141.882C365.085 141.975 364.702 142.129 364.282 142.344L363.89 141.546C364.394 141.303 364.861 141.126 365.29 141.014C365.719 140.902 366.149 140.846 366.578 140.846C367.465 140.846 368.146 141.056 368.622 141.476C369.107 141.896 369.35 142.498 369.35 143.282V148H368.342V147.314C368.025 147.585 367.675 147.79 367.292 147.93C366.919 148.061 366.513 148.126 366.074 148.126ZM364.478 145.984C364.478 146.376 364.641 146.698 364.968 146.95C365.304 147.193 365.733 147.314 366.256 147.314C366.676 147.314 367.059 147.249 367.404 147.118C367.749 146.987 368.062 146.782 368.342 146.502V145.186C368.053 144.99 367.745 144.85 367.418 144.766C367.091 144.673 366.723 144.626 366.312 144.626C365.752 144.626 365.304 144.752 364.968 145.004C364.641 145.247 364.478 145.573 364.478 145.984ZM374.609 148.126C373.946 148.126 373.344 147.967 372.803 147.65C372.261 147.323 371.832 146.885 371.515 146.334C371.197 145.783 371.039 145.167 371.039 144.486C371.039 143.805 371.197 143.193 371.515 142.652C371.832 142.101 372.261 141.663 372.803 141.336C373.344 141.009 373.946 140.846 374.609 140.846C375.122 140.846 375.617 140.944 376.093 141.14C376.569 141.327 376.989 141.597 377.353 141.952L376.695 142.708C376.415 142.409 376.093 142.185 375.729 142.036C375.374 141.877 375.005 141.798 374.623 141.798C374.147 141.798 373.713 141.919 373.321 142.162C372.938 142.395 372.63 142.717 372.397 143.128C372.173 143.529 372.061 143.982 372.061 144.486C372.061 144.99 372.173 145.447 372.397 145.858C372.63 146.269 372.943 146.595 373.335 146.838C373.727 147.071 374.161 147.188 374.637 147.188C375.019 147.188 375.379 147.113 375.715 146.964C376.06 146.815 376.382 146.595 376.681 146.306L377.325 147.006C376.951 147.361 376.531 147.636 376.065 147.832C375.598 148.028 375.113 148.126 374.609 148.126ZM378.819 148V138.2L379.855 137.962V144.15L383.523 140.986H384.783L380.933 144.318L384.965 148H383.551L379.855 144.64V148H378.819ZM394.372 148V145.382H388.8V144.57L394.302 138.2H395.394V144.5H396.57V145.382H395.394V148H394.372ZM390.06 144.5H394.372V139.502L390.06 144.5ZM399.834 143.17C399.209 143.17 398.705 142.937 398.322 142.47C397.94 142.003 397.748 141.397 397.748 140.65C397.748 139.903 397.94 139.297 398.322 138.83C398.705 138.363 399.209 138.13 399.834 138.13C400.441 138.13 400.936 138.363 401.318 138.83C401.701 139.297 401.897 139.903 401.906 140.65C401.897 141.397 401.701 142.003 401.318 142.47C400.936 142.937 400.441 143.17 399.834 143.17ZM399.834 142.526C400.245 142.526 400.572 142.358 400.814 142.022C401.066 141.677 401.192 141.219 401.192 140.65C401.192 140.071 401.066 139.614 400.814 139.278C400.572 138.933 400.245 138.76 399.834 138.76C399.414 138.76 399.083 138.933 398.84 139.278C398.598 139.614 398.472 140.071 398.462 140.65C398.472 141.219 398.598 141.677 398.84 142.022C399.083 142.358 399.414 142.526 399.834 142.526ZM399.358 148L404.86 138.2H405.728L400.212 148H399.358ZM405.294 148.07C404.669 148.07 404.165 147.837 403.782 147.37C403.4 146.903 403.208 146.297 403.208 145.55C403.208 144.803 403.4 144.197 403.782 143.73C404.165 143.263 404.669 143.03 405.294 143.03C405.901 143.03 406.396 143.263 406.778 143.73C407.161 144.197 407.357 144.803 407.366 145.55C407.357 146.297 407.161 146.903 406.778 147.37C406.396 147.837 405.901 148.07 405.294 148.07ZM405.294 147.426C405.705 147.426 406.032 147.258 406.274 146.922C406.526 146.577 406.652 146.119 406.652 145.55C406.652 144.971 406.526 144.514 406.274 144.178C406.032 143.833 405.705 143.66 405.294 143.66C404.874 143.66 404.543 143.833 404.3 144.178C404.058 144.514 403.932 144.971 403.922 145.55C403.932 146.119 404.058 146.577 404.3 146.922C404.543 147.258 404.874 147.426 405.294 147.426Z" fill="#8D8F93"/>
<rect x="36.5" y="183.5" width="255" height="67" rx="33.5" stroke="#8D8F93"/>
<circle cx="73" cy="217" r="23" fill="#1C2027"/>
<path d="M75.1875 211.44C75.2419 211.812 75.2597 212.189 75.2404 212.565L75.2413 212.552C75.2413 214.603 75.2352 216.654 75.2465 218.705C75.8151 219.002 76.4852 219.185 77.1953 219.204H77.2014L77.2656 219.205C77.7016 219.205 78.131 219.096 78.5147 218.888L78.5009 218.895C78.908 218.667 79.2497 218.336 79.493 217.936L79.5 217.924C79.7669 217.472 79.9482 216.974 80.0347 216.456L80.0382 216.431C80.1393 215.82 80.1708 215.2 80.1319 214.583L80.1328 214.605C80.1234 213.649 79.9189 212.704 79.5321 211.831L79.5495 211.876C79.3275 211.405 79.0258 210.978 78.658 210.613L78.6571 210.612C78.3183 210.275 77.9399 209.981 77.5304 209.737L77.5035 209.722C76.597 209.205 75.6354 208.793 74.6371 208.494L74.5364 208.467C73.8854 208.257 73.23 208.056 72.5729 207.864C71.4244 207.535 70.2708 207.221 69.0963 207V226.594L73.493 228C73.4965 222.509 73.4965 217.017 73.493 211.526L73.4922 211.474C73.4922 211.159 73.5894 210.868 73.7561 210.628L73.7526 210.632C73.8131 210.554 73.8935 210.494 73.9853 210.459C74.077 210.423 74.1767 210.414 74.2734 210.431L74.2699 210.43C74.4731 210.468 74.6519 210.555 74.7986 210.68L74.7969 210.678C75.0008 210.875 75.1415 211.136 75.184 211.429L75.1849 211.436L75.1875 211.44ZM63.7066 223.053C65.2152 222.509 66.723 221.96 68.2343 221.42C68.2431 221.316 68.2454 221.212 68.2413 221.108V218.842C66.3298 219.522 64.4218 220.21 62.5104 220.891C62.0442 221.063 61.5711 221.215 61.1145 221.411C60.5679 221.63 60.0456 221.907 59.5564 222.236L59.5868 222.217C59.378 222.351 59.2077 222.538 59.0928 222.759L59.0894 222.767C59.0353 222.883 59.0051 223.009 59.0006 223.138C58.9961 223.266 59.0174 223.394 59.0633 223.514L59.0607 223.508C59.1814 223.789 59.368 224.023 59.6024 224.195L59.6067 224.198C60.0147 224.494 60.4921 224.724 61.0069 224.86L61.0373 224.867C62.381 225.33 63.9296 225.597 65.5399 225.597C65.6415 225.597 65.743 225.596 65.8446 225.594H65.8298C66.668 225.574 67.5031 225.484 68.3264 225.324L68.2326 225.339C68.2448 225.211 68.2378 225.083 68.2395 224.955V223.035C67.5937 223.268 66.9487 223.505 66.3038 223.74C66.0684 223.837 65.8253 223.913 65.5772 223.968L65.5451 223.974C65.1593 224.055 64.7664 224.096 64.3724 224.096H64.3437C63.9895 224.096 63.6379 224.036 63.3038 223.917L63.3255 223.924C63.1985 223.883 63.0917 223.795 63.0269 223.677L63.0251 223.675C63.0113 223.622 63.0128 223.565 63.0296 223.513C63.0464 223.461 63.0776 223.414 63.1197 223.379C63.2829 223.235 63.4791 223.122 63.6935 223.054L63.7048 223.05L63.7066 223.053ZM85.5677 221.583C85.1801 221.26 84.7358 221.013 84.2578 220.856L84.2292 220.848C83.9609 220.762 83.7005 220.655 83.4323 220.573C82.1892 220.18 80.7595 219.953 79.2778 219.953H79.1831H79.1884C78.7526 219.969 78.3168 219.981 77.8837 220.032C76.5642 220.177 75.3594 220.456 74.2135 220.86L74.3281 220.825V223.485C75.9158 222.925 77.5 222.359 79.0868 221.798C79.6038 221.629 80.1441 221.544 80.6875 221.546H80.7326H80.73L80.7821 221.545C81.1397 221.545 81.4835 221.607 81.8029 221.721L81.7812 221.714C81.9069 221.754 82.013 221.84 82.079 221.955L82.0807 221.958C82.0951 222.026 82.0879 222.097 82.0602 222.161C82.0325 222.225 81.9856 222.278 81.9262 222.313L81.9245 222.314C81.6605 222.491 81.3705 222.625 81.0651 222.711L81.0434 222.716C78.8154 223.517 76.5877 224.318 74.3602 225.118C74.3133 225.126 74.3316 225.184 74.3272 225.217V227.697C77.2555 226.636 80.184 225.576 83.1128 224.517C83.6901 224.326 84.1632 224.134 84.6215 223.917L84.5417 223.951C84.9829 223.748 85.3829 223.463 85.7214 223.112L85.7222 223.111C85.8941 222.929 86 222.681 86 222.408V222.397C85.9863 222.24 85.941 222.087 85.8669 221.947C85.7927 221.808 85.6912 221.684 85.5686 221.585L85.566 221.584L85.5677 221.583Z" fill="#FFFEFF"/>
<path d="M105.136 212V200.8H110.32C111.056 200.8 111.696 200.944 112.24 201.232C112.784 201.509 113.211 201.899 113.52 202.4C113.829 202.901 113.984 203.483 113.984 204.144C113.984 204.805 113.829 205.387 113.52 205.888C113.211 206.389 112.779 206.784 112.224 207.072C111.68 207.349 111.045 207.488 110.32 207.488H106.816V212H105.136ZM106.816 206.064H110.144C110.805 206.064 111.328 205.893 111.712 205.552C112.107 205.2 112.304 204.736 112.304 204.16C112.304 203.584 112.107 203.125 111.712 202.784C111.328 202.443 110.805 202.272 110.144 202.272H106.816V206.064ZM115.842 212V200.8L117.442 200.496V212H115.842ZM122.223 212.144C121.636 212.144 121.119 212.043 120.671 211.84C120.223 211.627 119.871 211.333 119.615 210.96C119.359 210.587 119.231 210.155 119.231 209.664C119.231 208.896 119.524 208.293 120.111 207.856C120.697 207.408 121.503 207.184 122.527 207.184C123.327 207.184 124.068 207.339 124.751 207.648V206.784C124.751 206.197 124.58 205.76 124.239 205.472C123.908 205.184 123.417 205.04 122.767 205.04C122.393 205.04 122.004 205.099 121.599 205.216C121.193 205.323 120.74 205.493 120.239 205.728L119.647 204.528C120.265 204.24 120.841 204.032 121.375 203.904C121.908 203.765 122.447 203.696 122.991 203.696C124.047 203.696 124.863 203.947 125.439 204.448C126.025 204.949 126.319 205.664 126.319 206.592V212H124.751V211.296C124.388 211.584 123.999 211.797 123.583 211.936C123.167 212.075 122.713 212.144 122.223 212.144ZM120.767 209.632C120.767 210.027 120.932 210.347 121.263 210.592C121.604 210.827 122.047 210.944 122.591 210.944C123.017 210.944 123.407 210.885 123.759 210.768C124.121 210.64 124.452 210.443 124.751 210.176V208.8C124.441 208.619 124.116 208.491 123.775 208.416C123.444 208.331 123.071 208.288 122.655 208.288C122.068 208.288 121.604 208.411 121.263 208.656C120.932 208.891 120.767 209.216 120.767 209.632ZM128.87 215.44C128.699 215.44 128.539 215.429 128.39 215.408C128.241 215.397 128.118 215.376 128.022 215.344V213.936C128.214 213.979 128.449 214 128.726 214C129.473 214 130.011 213.6 130.342 212.8L130.694 212.016L127.43 203.856H129.206L131.574 210.064L134.198 203.856H135.926L131.99 213.008C131.734 213.584 131.462 214.048 131.174 214.4C130.886 214.763 130.555 215.024 130.182 215.184C129.809 215.355 129.371 215.44 128.87 215.44ZM141.224 212.16C140.328 212.16 139.464 211.984 138.632 211.632C137.8 211.28 137.064 210.784 136.424 210.144L137.448 208.96C138.056 209.557 138.674 210 139.304 210.288C139.944 210.576 140.61 210.72 141.304 210.72C141.848 210.72 142.322 210.645 142.728 210.496C143.144 210.336 143.464 210.112 143.688 209.824C143.912 209.536 144.024 209.211 144.024 208.848C144.024 208.347 143.848 207.963 143.496 207.696C143.144 207.429 142.562 207.227 141.752 207.088L139.88 206.784C138.856 206.603 138.088 206.272 137.576 205.792C137.074 205.312 136.824 204.672 136.824 203.872C136.824 203.232 136.994 202.672 137.336 202.192C137.677 201.701 138.157 201.323 138.776 201.056C139.405 200.789 140.13 200.656 140.952 200.656C141.762 200.656 142.557 200.789 143.336 201.056C144.125 201.312 144.834 201.685 145.464 202.176L144.536 203.456C143.33 202.539 142.109 202.08 140.872 202.08C140.381 202.08 139.954 202.149 139.592 202.288C139.229 202.427 138.946 202.624 138.744 202.88C138.541 203.125 138.44 203.413 138.44 203.744C138.44 204.203 138.594 204.555 138.904 204.8C139.213 205.035 139.725 205.205 140.44 205.312L142.248 205.616C143.432 205.808 144.301 206.155 144.856 206.656C145.41 207.157 145.688 207.845 145.688 208.72C145.688 209.403 145.501 210.005 145.128 210.528C144.754 211.04 144.232 211.44 143.56 211.728C142.888 212.016 142.109 212.16 141.224 212.16ZM150.626 212.144C149.836 212.144 149.234 211.963 148.818 211.6C148.402 211.227 148.194 210.688 148.194 209.984V205.2H146.466V203.856H148.194V201.776L149.778 201.392V203.856H152.178V205.2H149.778V209.616C149.778 210.032 149.868 210.331 150.05 210.512C150.242 210.683 150.551 210.768 150.978 210.768C151.202 210.768 151.399 210.752 151.57 210.72C151.751 210.688 151.943 210.64 152.146 210.576V211.92C151.932 211.995 151.682 212.048 151.394 212.08C151.116 212.123 150.86 212.144 150.626 212.144ZM156.252 212.144C155.666 212.144 155.148 212.043 154.7 211.84C154.252 211.627 153.9 211.333 153.644 210.96C153.388 210.587 153.26 210.155 153.26 209.664C153.26 208.896 153.554 208.293 154.14 207.856C154.727 207.408 155.532 207.184 156.556 207.184C157.356 207.184 158.098 207.339 158.78 207.648V206.784C158.78 206.197 158.61 205.76 158.268 205.472C157.938 205.184 157.447 205.04 156.796 205.04C156.423 205.04 156.034 205.099 155.628 205.216C155.223 205.323 154.77 205.493 154.268 205.728L153.676 204.528C154.295 204.24 154.871 204.032 155.404 203.904C155.938 203.765 156.476 203.696 157.02 203.696C158.076 203.696 158.892 203.947 159.468 204.448C160.055 204.949 160.348 205.664 160.348 206.592V212H158.78V211.296C158.418 211.584 158.028 211.797 157.612 211.936C157.196 212.075 156.743 212.144 156.252 212.144ZM154.796 209.632C154.796 210.027 154.962 210.347 155.292 210.592C155.634 210.827 156.076 210.944 156.62 210.944C157.047 210.944 157.436 210.885 157.788 210.768C158.151 210.64 158.482 210.443 158.78 210.176V208.8C158.471 208.619 158.146 208.491 157.804 208.416C157.474 208.331 157.1 208.288 156.684 208.288C156.098 208.288 155.634 208.411 155.292 208.656C154.962 208.891 154.796 209.216 154.796 209.632ZM165.766 212.144C164.976 212.144 164.374 211.963 163.958 211.6C163.542 211.227 163.334 210.688 163.334 209.984V205.2H161.606V203.856H163.334V201.776L164.918 201.392V203.856H167.318V205.2H164.918V209.616C164.918 210.032 165.008 210.331 165.19 210.512C165.382 210.683 165.691 210.768 166.118 210.768C166.342 210.768 166.539 210.752 166.71 210.72C166.891 210.688 167.083 210.64 167.286 210.576V211.92C167.072 211.995 166.822 212.048 166.534 212.08C166.256 212.123 166 212.144 165.766 212.144ZM168.817 212V203.856H170.417V212H168.817ZM169.617 202.544C169.35 202.544 169.121 202.448 168.929 202.256C168.737 202.053 168.641 201.819 168.641 201.552C168.641 201.275 168.737 201.045 168.929 200.864C169.121 200.672 169.35 200.576 169.617 200.576C169.894 200.576 170.129 200.672 170.321 200.864C170.513 201.045 170.609 201.275 170.609 201.552C170.609 201.819 170.513 202.053 170.321 202.256C170.129 202.448 169.894 202.544 169.617 202.544ZM176.493 212.16C175.704 212.16 174.984 211.973 174.333 211.6C173.693 211.227 173.186 210.72 172.813 210.08C172.44 209.44 172.253 208.725 172.253 207.936C172.253 207.147 172.44 206.432 172.813 205.792C173.186 205.152 173.693 204.645 174.333 204.272C174.984 203.888 175.704 203.696 176.493 203.696C177.293 203.696 178.013 203.888 178.653 204.272C179.293 204.645 179.8 205.152 180.173 205.792C180.546 206.432 180.733 207.147 180.733 207.936C180.733 208.725 180.546 209.44 180.173 210.08C179.8 210.72 179.293 211.227 178.653 211.6C178.013 211.973 177.293 212.16 176.493 212.16ZM176.493 210.752C176.994 210.752 177.448 210.629 177.853 210.384C178.258 210.128 178.578 209.787 178.813 209.36C179.048 208.933 179.165 208.453 179.165 207.92C179.165 207.397 179.042 206.928 178.797 206.512C178.562 206.085 178.242 205.744 177.837 205.488C177.442 205.232 176.994 205.104 176.493 205.104C175.992 205.104 175.538 205.232 175.133 205.488C174.738 205.744 174.418 206.085 174.173 206.512C173.938 206.928 173.821 207.397 173.821 207.92C173.821 208.453 173.938 208.933 174.173 209.36C174.408 209.787 174.728 210.128 175.133 210.384C175.538 210.629 175.992 210.752 176.493 210.752ZM182.566 212V203.856H184.166V204.688C184.795 204.027 185.611 203.696 186.614 203.696C187.243 203.696 187.793 203.829 188.262 204.096C188.742 204.363 189.115 204.736 189.382 205.216C189.659 205.696 189.798 206.251 189.798 206.88V212H188.198V207.152C188.198 206.512 188.017 206.011 187.654 205.648C187.302 205.275 186.806 205.088 186.166 205.088C185.739 205.088 185.355 205.179 185.014 205.36C184.673 205.541 184.39 205.803 184.166 206.144V212H182.566ZM195.82 212V200.8H197.452L203.708 209.12V200.8H205.292V212H203.82L197.42 203.424V212H195.82ZM211.617 212.144C210.817 212.144 210.092 211.957 209.441 211.584C208.801 211.211 208.289 210.704 207.905 210.064C207.532 209.424 207.345 208.709 207.345 207.92C207.345 207.141 207.527 206.437 207.889 205.808C208.252 205.168 208.743 204.661 209.361 204.288C209.98 203.904 210.668 203.712 211.425 203.712C212.183 203.712 212.855 203.904 213.441 204.288C214.028 204.661 214.492 205.173 214.833 205.824C215.185 206.464 215.361 207.189 215.361 208V208.448H208.945C209.031 208.896 209.196 209.296 209.441 209.648C209.697 210 210.017 210.277 210.401 210.48C210.796 210.683 211.223 210.784 211.681 210.784C212.076 210.784 212.455 210.725 212.817 210.608C213.191 210.48 213.5 210.299 213.745 210.064L214.769 211.072C214.289 211.435 213.793 211.707 213.281 211.888C212.78 212.059 212.225 212.144 211.617 212.144ZM208.961 207.248H213.777C213.713 206.821 213.564 206.448 213.329 206.128C213.105 205.797 212.823 205.541 212.481 205.36C212.151 205.168 211.788 205.072 211.393 205.072C210.988 205.072 210.615 205.163 210.273 205.344C209.932 205.525 209.644 205.781 209.409 206.112C209.185 206.432 209.036 206.811 208.961 207.248ZM220.459 212.144C219.67 212.144 219.067 211.963 218.651 211.6C218.235 211.227 218.027 210.688 218.027 209.984V205.2H216.299V203.856H218.027V201.776L219.611 201.392V203.856H222.011V205.2H219.611V209.616C219.611 210.032 219.702 210.331 219.883 210.512C220.075 210.683 220.384 210.768 220.811 210.768C221.035 210.768 221.232 210.752 221.403 210.72C221.584 210.688 221.776 210.64 221.979 210.576V211.92C221.766 211.995 221.515 212.048 221.227 212.08C220.95 212.123 220.694 212.144 220.459 212.144ZM225.186 212L222.914 203.856H224.466L226.05 209.84L227.906 203.856H229.282L231.138 209.84L232.722 203.856H234.226L231.938 212H230.402L228.578 206.032L226.738 212H225.186ZM239.405 212.16C238.615 212.16 237.895 211.973 237.245 211.6C236.605 211.227 236.098 210.72 235.725 210.08C235.351 209.44 235.165 208.725 235.165 207.936C235.165 207.147 235.351 206.432 235.725 205.792C236.098 205.152 236.605 204.645 237.245 204.272C237.895 203.888 238.615 203.696 239.405 203.696C240.205 203.696 240.925 203.888 241.565 204.272C242.205 204.645 242.711 205.152 243.085 205.792C243.458 206.432 243.645 207.147 243.645 207.936C243.645 208.725 243.458 209.44 243.085 210.08C242.711 210.72 242.205 211.227 241.565 211.6C240.925 211.973 240.205 212.16 239.405 212.16ZM239.405 210.752C239.906 210.752 240.359 210.629 240.765 210.384C241.17 210.128 241.49 209.787 241.725 209.36C241.959 208.933 242.077 208.453 242.077 207.92C242.077 207.397 241.954 206.928 241.709 206.512C241.474 206.085 241.154 205.744 240.749 205.488C240.354 205.232 239.906 205.104 239.405 205.104C238.903 205.104 238.45 205.232 238.045 205.488C237.65 205.744 237.33 206.085 237.085 206.512C236.85 206.928 236.733 207.397 236.733 207.92C236.733 208.453 236.85 208.933 237.085 209.36C237.319 209.787 237.639 210.128 238.045 210.384C238.45 210.629 238.903 210.752 239.405 210.752ZM245.478 212V203.856H247.078V204.896C247.334 204.512 247.648 204.213 248.022 204C248.406 203.776 248.838 203.664 249.318 203.664C249.648 203.675 249.92 203.723 250.134 203.808V205.248C249.984 205.184 249.83 205.141 249.67 205.12C249.51 205.088 249.35 205.072 249.19 205.072C248.72 205.072 248.304 205.2 247.942 205.456C247.579 205.701 247.291 206.064 247.078 206.544V212H245.478ZM251.735 212V200.8L253.335 200.496V207.424L257.287 203.856H259.159L254.951 207.664L259.383 212H257.271L253.335 208.176V212H251.735Z" fill="black"/>
<path d="M109.698 236.154C108.989 236.154 108.326 236.028 107.71 235.776C107.094 235.515 106.553 235.155 106.086 234.698C105.619 234.231 105.255 233.695 104.994 233.088C104.742 232.472 104.616 231.809 104.616 231.1C104.616 230.391 104.742 229.733 104.994 229.126C105.255 228.51 105.619 227.973 106.086 227.516C106.553 227.049 107.094 226.69 107.71 226.438C108.326 226.177 108.989 226.046 109.698 226.046C110.211 226.046 110.701 226.111 111.168 226.242C111.644 226.363 112.083 226.545 112.484 226.788C112.895 227.021 113.259 227.311 113.576 227.656L112.862 228.412C112.479 227.973 112.008 227.637 111.448 227.404C110.888 227.161 110.305 227.04 109.698 227.04C109.129 227.04 108.601 227.143 108.116 227.348C107.631 227.553 107.206 227.843 106.842 228.216C106.487 228.58 106.207 229.009 106.002 229.504C105.806 229.989 105.708 230.521 105.708 231.1C105.708 231.669 105.806 232.201 106.002 232.696C106.207 233.191 106.492 233.625 106.856 233.998C107.22 234.362 107.645 234.647 108.13 234.852C108.625 235.057 109.157 235.16 109.726 235.16C110.333 235.16 110.911 235.043 111.462 234.81C112.013 234.567 112.475 234.236 112.848 233.816L113.548 234.544C113.221 234.88 112.853 235.169 112.442 235.412C112.041 235.655 111.607 235.841 111.14 235.972C110.673 236.093 110.193 236.154 109.698 236.154ZM117.478 236.126C116.964 236.126 116.512 236.037 116.12 235.86C115.737 235.683 115.434 235.435 115.21 235.118C114.995 234.801 114.888 234.432 114.888 234.012C114.888 233.349 115.14 232.827 115.644 232.444C116.148 232.061 116.829 231.87 117.688 231.87C118.444 231.87 119.13 232.029 119.746 232.346V231.422C119.746 230.862 119.587 230.442 119.27 230.162C118.952 229.873 118.49 229.728 117.884 229.728C117.538 229.728 117.188 229.779 116.834 229.882C116.488 229.975 116.106 230.129 115.686 230.344L115.294 229.546C115.798 229.303 116.264 229.126 116.694 229.014C117.123 228.902 117.552 228.846 117.982 228.846C118.868 228.846 119.55 229.056 120.026 229.476C120.511 229.896 120.754 230.498 120.754 231.282V236H119.746V235.314C119.428 235.585 119.078 235.79 118.696 235.93C118.322 236.061 117.916 236.126 117.478 236.126ZM115.882 233.984C115.882 234.376 116.045 234.698 116.372 234.95C116.708 235.193 117.137 235.314 117.66 235.314C118.08 235.314 118.462 235.249 118.808 235.118C119.153 234.987 119.466 234.782 119.746 234.502V233.186C119.456 232.99 119.148 232.85 118.822 232.766C118.495 232.673 118.126 232.626 117.716 232.626C117.156 232.626 116.708 232.752 116.372 233.004C116.045 233.247 115.882 233.573 115.882 233.984ZM125.004 236.14C124.426 236.14 123.88 236.047 123.366 235.86C122.862 235.664 122.424 235.393 122.05 235.048L122.68 234.376C123.007 234.675 123.366 234.908 123.758 235.076C124.15 235.235 124.552 235.314 124.962 235.314C125.522 235.314 125.98 235.197 126.334 234.964C126.689 234.731 126.866 234.427 126.866 234.054C126.866 233.746 126.759 233.508 126.544 233.34C126.339 233.163 126.012 233.041 125.564 232.976L124.346 232.808C123.646 232.705 123.124 232.495 122.778 232.178C122.442 231.861 122.274 231.431 122.274 230.89C122.274 230.498 122.386 230.148 122.61 229.84C122.834 229.532 123.142 229.289 123.534 229.112C123.936 228.935 124.393 228.846 124.906 228.846C125.42 228.846 125.9 228.921 126.348 229.07C126.796 229.219 127.235 229.453 127.664 229.77L127.118 230.47C126.726 230.199 126.344 230.003 125.97 229.882C125.606 229.751 125.233 229.686 124.85 229.686C124.365 229.686 123.973 229.793 123.674 230.008C123.376 230.223 123.226 230.503 123.226 230.848C123.226 231.165 123.329 231.408 123.534 231.576C123.74 231.735 124.071 231.847 124.528 231.912L125.746 232.08C126.446 232.173 126.969 232.379 127.314 232.696C127.669 233.013 127.846 233.447 127.846 233.998C127.846 234.399 127.72 234.763 127.468 235.09C127.216 235.417 126.876 235.673 126.446 235.86C126.026 236.047 125.546 236.14 125.004 236.14ZM129.292 236V226.2L130.328 225.962V229.812C130.879 229.168 131.616 228.846 132.54 228.846C133.072 228.846 133.539 228.963 133.94 229.196C134.351 229.42 134.668 229.737 134.892 230.148C135.126 230.549 135.242 231.021 135.242 231.562V236H134.22V231.772C134.22 231.147 134.043 230.657 133.688 230.302C133.343 229.938 132.867 229.756 132.26 229.756C131.84 229.756 131.467 229.849 131.14 230.036C130.814 230.223 130.543 230.489 130.328 230.834V236H129.292ZM137.256 236V226.2L138.292 225.962V229.728C138.889 229.159 139.641 228.874 140.546 228.874C141.209 228.874 141.806 229.037 142.338 229.364C142.87 229.681 143.29 230.111 143.598 230.652C143.915 231.193 144.074 231.805 144.074 232.486C144.074 233.167 143.915 233.783 143.598 234.334C143.29 234.875 142.87 235.309 142.338 235.636C141.806 235.953 141.204 236.112 140.532 236.112C140.121 236.112 139.72 236.042 139.328 235.902C138.945 235.762 138.595 235.561 138.278 235.3V236H137.256ZM140.448 235.202C140.943 235.202 141.386 235.085 141.778 234.852C142.17 234.609 142.478 234.287 142.702 233.886C142.935 233.475 143.052 233.013 143.052 232.5C143.052 231.987 142.935 231.525 142.702 231.114C142.478 230.703 142.17 230.381 141.778 230.148C141.386 229.905 140.943 229.784 140.448 229.784C140.009 229.784 139.599 229.873 139.216 230.05C138.843 230.218 138.535 230.456 138.292 230.764V234.236C138.535 234.535 138.847 234.773 139.23 234.95C139.613 235.118 140.019 235.202 140.448 235.202ZM148.074 236.126C147.561 236.126 147.108 236.037 146.716 235.86C146.333 235.683 146.03 235.435 145.806 235.118C145.591 234.801 145.484 234.432 145.484 234.012C145.484 233.349 145.736 232.827 146.24 232.444C146.744 232.061 147.425 231.87 148.284 231.87C149.04 231.87 149.726 232.029 150.342 232.346V231.422C150.342 230.862 150.183 230.442 149.866 230.162C149.549 229.873 149.087 229.728 148.48 229.728C148.135 229.728 147.785 229.779 147.43 229.882C147.085 229.975 146.702 230.129 146.282 230.344L145.89 229.546C146.394 229.303 146.861 229.126 147.29 229.014C147.719 228.902 148.149 228.846 148.578 228.846C149.465 228.846 150.146 229.056 150.622 229.476C151.107 229.896 151.35 230.498 151.35 231.282V236H150.342V235.314C150.025 235.585 149.675 235.79 149.292 235.93C148.919 236.061 148.513 236.126 148.074 236.126ZM146.478 233.984C146.478 234.376 146.641 234.698 146.968 234.95C147.304 235.193 147.733 235.314 148.256 235.314C148.676 235.314 149.059 235.249 149.404 235.118C149.749 234.987 150.062 234.782 150.342 234.502V233.186C150.053 232.99 149.745 232.85 149.418 232.766C149.091 232.673 148.723 232.626 148.312 232.626C147.752 232.626 147.304 232.752 146.968 233.004C146.641 233.247 146.478 233.573 146.478 233.984ZM156.609 236.126C155.946 236.126 155.344 235.967 154.803 235.65C154.261 235.323 153.832 234.885 153.515 234.334C153.197 233.783 153.039 233.167 153.039 232.486C153.039 231.805 153.197 231.193 153.515 230.652C153.832 230.101 154.261 229.663 154.803 229.336C155.344 229.009 155.946 228.846 156.609 228.846C157.122 228.846 157.617 228.944 158.093 229.14C158.569 229.327 158.989 229.597 159.353 229.952L158.695 230.708C158.415 230.409 158.093 230.185 157.729 230.036C157.374 229.877 157.005 229.798 156.623 229.798C156.147 229.798 155.713 229.919 155.321 230.162C154.938 230.395 154.63 230.717 154.397 231.128C154.173 231.529 154.061 231.982 154.061 232.486C154.061 232.99 154.173 233.447 154.397 233.858C154.63 234.269 154.943 234.595 155.335 234.838C155.727 235.071 156.161 235.188 156.637 235.188C157.019 235.188 157.379 235.113 157.715 234.964C158.06 234.815 158.382 234.595 158.681 234.306L159.325 235.006C158.951 235.361 158.531 235.636 158.065 235.832C157.598 236.028 157.113 236.126 156.609 236.126ZM160.819 236V226.2L161.855 225.962V232.15L165.523 228.986H166.783L162.933 232.318L166.965 236H165.551L161.855 232.64V236H160.819ZM174.398 236.154C173.726 236.154 173.096 236.037 172.508 235.804C171.93 235.571 171.416 235.225 170.968 234.768L171.64 234.11C172.051 234.521 172.471 234.819 172.9 235.006C173.339 235.183 173.834 235.272 174.384 235.272C174.86 235.272 175.28 235.188 175.644 235.02C176.018 234.852 176.307 234.619 176.512 234.32C176.718 234.021 176.82 233.681 176.82 233.298C176.82 232.934 176.727 232.612 176.54 232.332C176.363 232.043 176.116 231.819 175.798 231.66C175.481 231.501 175.117 231.422 174.706 231.422H173.544V230.554H174.664C175.196 230.554 175.626 230.391 175.952 230.064C176.288 229.737 176.456 229.313 176.456 228.79C176.456 228.445 176.363 228.132 176.176 227.852C175.99 227.572 175.733 227.353 175.406 227.194C175.089 227.026 174.73 226.942 174.328 226.942C173.824 226.942 173.372 227.035 172.97 227.222C172.578 227.399 172.177 227.703 171.766 228.132L171.094 227.46C171.533 226.993 172.028 226.643 172.578 226.41C173.129 226.167 173.717 226.046 174.342 226.046C174.94 226.046 175.472 226.163 175.938 226.396C176.414 226.629 176.788 226.951 177.058 227.362C177.329 227.763 177.464 228.221 177.464 228.734C177.464 229.247 177.296 229.709 176.96 230.12C176.624 230.521 176.181 230.801 175.63 230.96C176.293 231.109 176.825 231.399 177.226 231.828C177.628 232.257 177.828 232.757 177.828 233.326C177.828 233.867 177.679 234.353 177.38 234.782C177.091 235.211 176.685 235.547 176.162 235.79C175.649 236.033 175.061 236.154 174.398 236.154ZM179.111 237.918L179.923 234.964H181.043L179.923 237.918H179.111ZM186.017 236.154C184.729 236.154 183.618 235.711 182.685 234.824L183.315 234.138C183.744 234.539 184.169 234.833 184.589 235.02C185.018 235.197 185.499 235.286 186.031 235.286C186.507 235.286 186.927 235.188 187.291 234.992C187.655 234.796 187.935 234.521 188.131 234.166C188.336 233.811 188.439 233.405 188.439 232.948C188.439 232.295 188.215 231.767 187.767 231.366C187.328 230.965 186.749 230.764 186.031 230.764C185.657 230.764 185.293 230.811 184.939 230.904C184.584 230.988 184.215 231.128 183.833 231.324L183.133 231.1L183.357 226.2H188.929V227.082H184.225L184.071 230.47C184.444 230.283 184.803 230.153 185.149 230.078C185.494 229.994 185.858 229.952 186.241 229.952C186.885 229.952 187.445 230.078 187.921 230.33C188.406 230.573 188.779 230.918 189.041 231.366C189.311 231.805 189.447 232.318 189.447 232.906C189.447 233.55 189.302 234.115 189.013 234.6C188.723 235.085 188.322 235.468 187.809 235.748C187.295 236.019 186.698 236.154 186.017 236.154ZM192.84 231.17C192.214 231.17 191.71 230.937 191.328 230.47C190.945 230.003 190.754 229.397 190.754 228.65C190.754 227.903 190.945 227.297 191.328 226.83C191.71 226.363 192.214 226.13 192.84 226.13C193.446 226.13 193.941 226.363 194.324 226.83C194.706 227.297 194.902 227.903 194.912 228.65C194.902 229.397 194.706 230.003 194.324 230.47C193.941 230.937 193.446 231.17 192.84 231.17ZM192.84 230.526C193.25 230.526 193.577 230.358 193.82 230.022C194.072 229.677 194.198 229.219 194.198 228.65C194.198 228.071 194.072 227.614 193.82 227.278C193.577 226.933 193.25 226.76 192.84 226.76C192.42 226.76 192.088 226.933 191.846 227.278C191.603 227.614 191.477 228.071 191.468 228.65C191.477 229.219 191.603 229.677 191.846 230.022C192.088 230.358 192.42 230.526 192.84 230.526ZM192.364 236L197.866 226.2H198.734L193.218 236H192.364ZM198.3 236.07C197.674 236.07 197.17 235.837 196.788 235.37C196.405 234.903 196.214 234.297 196.214 233.55C196.214 232.803 196.405 232.197 196.788 231.73C197.17 231.263 197.674 231.03 198.3 231.03C198.906 231.03 199.401 231.263 199.784 231.73C200.166 232.197 200.362 232.803 200.372 233.55C200.362 234.297 200.166 234.903 199.784 235.37C199.401 235.837 198.906 236.07 198.3 236.07ZM198.3 235.426C198.71 235.426 199.037 235.258 199.28 234.922C199.532 234.577 199.658 234.119 199.658 233.55C199.658 232.971 199.532 232.514 199.28 232.178C199.037 231.833 198.71 231.66 198.3 231.66C197.88 231.66 197.548 231.833 197.306 232.178C197.063 232.514 196.937 232.971 196.928 233.55C196.937 234.119 197.063 234.577 197.306 234.922C197.548 235.258 197.88 235.426 198.3 235.426Z" fill="#8D8F93"/>
<rect x="312.5" y="183.5" width="197" height="67" rx="33.5" stroke="#8D8F93"/>
<circle cx="349" cy="217" r="23" fill="#1C2027"/>
<path d="M354.243 207.49C356.309 207.49 357.985 216.204 357.985 226.968H361C361 215.38 357.958 206 354.234 206C352.107 206 350.227 208.81 348.986 213.227C347.745 208.811 345.865 206 343.755 206C340.031 206 337 215.372 337 226.96H340.014C340.014 216.197 341.672 207.49 343.738 207.49C345.804 207.49 347.479 215.54 347.479 225.47H350.476C350.476 215.54 352.16 207.49 354.226 207.49H354.243Z" fill="white"/>
<path d="M381.136 212V200.8H383.392L386.896 207.968L390.4 200.8H392.64V212H391.056V202.848L386.88 211.2L382.704 202.848V212H381.136ZM398.869 212.144C398.091 212.144 397.381 211.957 396.741 211.584C396.101 211.211 395.595 210.704 395.221 210.064C394.859 209.424 394.677 208.709 394.677 207.92C394.677 207.131 394.864 206.421 395.237 205.792C395.611 205.152 396.112 204.645 396.741 204.272C397.381 203.888 398.091 203.696 398.869 203.696C399.488 203.696 400.08 203.813 400.645 204.048C401.221 204.283 401.717 204.613 402.133 205.04L401.141 206.144C400.832 205.803 400.485 205.547 400.101 205.376C399.717 205.205 399.317 205.12 398.901 205.12C398.411 205.12 397.963 205.243 397.557 205.488C397.163 205.733 396.848 206.069 396.613 206.496C396.379 206.923 396.261 207.397 396.261 207.92C396.261 208.443 396.379 208.917 396.613 209.344C396.848 209.771 397.168 210.112 397.573 210.368C397.979 210.613 398.432 210.736 398.933 210.736C399.349 210.736 399.739 210.656 400.101 210.496C400.464 210.325 400.805 210.08 401.125 209.76L402.101 210.784C401.675 211.221 401.179 211.557 400.613 211.792C400.059 212.027 399.477 212.144 398.869 212.144ZM405.581 210.496H407.885C408.472 210.496 409.016 210.395 409.517 210.192C410.018 209.979 410.456 209.691 410.829 209.328C411.213 208.955 411.506 208.523 411.709 208.032C411.922 207.531 412.029 206.987 412.029 206.4C412.029 205.824 411.922 205.285 411.709 204.784C411.506 204.283 411.213 203.851 410.829 203.488C410.456 203.115 410.018 202.827 409.517 202.624C409.016 202.411 408.472 202.304 407.885 202.304H405.581V210.496ZM403.901 212V200.8H407.853C408.696 200.8 409.474 200.944 410.189 201.232C410.904 201.509 411.528 201.899 412.061 202.4C412.594 202.901 413.01 203.493 413.309 204.176C413.608 204.859 413.757 205.6 413.757 206.4C413.757 207.211 413.608 207.957 413.309 208.64C413.021 209.312 412.61 209.899 412.077 210.4C411.544 210.901 410.914 211.296 410.189 211.584C409.474 211.861 408.696 212 407.853 212H403.901ZM419.526 212.16C418.737 212.16 418.017 211.973 417.366 211.6C416.726 211.227 416.219 210.72 415.846 210.08C415.473 209.44 415.286 208.725 415.286 207.936C415.286 207.147 415.473 206.432 415.846 205.792C416.219 205.152 416.726 204.645 417.366 204.272C418.017 203.888 418.737 203.696 419.526 203.696C420.326 203.696 421.046 203.888 421.686 204.272C422.326 204.645 422.833 205.152 423.206 205.792C423.579 206.432 423.766 207.147 423.766 207.936C423.766 208.725 423.579 209.44 423.206 210.08C422.833 210.72 422.326 211.227 421.686 211.6C421.046 211.973 420.326 212.16 419.526 212.16ZM419.526 210.752C420.027 210.752 420.481 210.629 420.886 210.384C421.291 210.128 421.611 209.787 421.846 209.36C422.081 208.933 422.198 208.453 422.198 207.92C422.198 207.397 422.075 206.928 421.83 206.512C421.595 206.085 421.275 205.744 420.87 205.488C420.475 205.232 420.027 205.104 419.526 205.104C419.025 205.104 418.571 205.232 418.166 205.488C417.771 205.744 417.451 206.085 417.206 206.512C416.971 206.928 416.854 207.397 416.854 207.92C416.854 208.453 416.971 208.933 417.206 209.36C417.441 209.787 417.761 210.128 418.166 210.384C418.571 210.629 419.025 210.752 419.526 210.752ZM425.599 212V203.856H427.199V204.688C427.828 204.027 428.644 203.696 429.647 203.696C430.276 203.696 430.826 203.829 431.295 204.096C431.775 204.363 432.148 204.736 432.415 205.216C432.692 205.696 432.831 206.251 432.831 206.88V212H431.231V207.152C431.231 206.512 431.05 206.011 430.687 205.648C430.335 205.275 429.839 205.088 429.199 205.088C428.772 205.088 428.388 205.179 428.047 205.36C427.706 205.541 427.423 205.803 427.199 206.144V212H425.599ZM437.573 212.144C436.986 212.144 436.469 212.043 436.021 211.84C435.573 211.627 435.221 211.333 434.965 210.96C434.709 210.587 434.581 210.155 434.581 209.664C434.581 208.896 434.874 208.293 435.461 207.856C436.048 207.408 436.853 207.184 437.877 207.184C438.677 207.184 439.418 207.339 440.101 207.648V206.784C440.101 206.197 439.93 205.76 439.589 205.472C439.258 205.184 438.768 205.04 438.117 205.04C437.744 205.04 437.354 205.099 436.949 205.216C436.544 205.323 436.09 205.493 435.589 205.728L434.997 204.528C435.616 204.24 436.192 204.032 436.725 203.904C437.258 203.765 437.797 203.696 438.341 203.696C439.397 203.696 440.213 203.947 440.789 204.448C441.376 204.949 441.669 205.664 441.669 206.592V212H440.101V211.296C439.738 211.584 439.349 211.797 438.933 211.936C438.517 212.075 438.064 212.144 437.573 212.144ZM436.117 209.632C436.117 210.027 436.282 210.347 436.613 210.592C436.954 210.827 437.397 210.944 437.941 210.944C438.368 210.944 438.757 210.885 439.109 210.768C439.472 210.64 439.802 210.443 440.101 210.176V208.8C439.792 208.619 439.466 208.491 439.125 208.416C438.794 208.331 438.421 208.288 438.005 208.288C437.418 208.288 436.954 208.411 436.613 208.656C436.282 208.891 436.117 209.216 436.117 209.632ZM443.833 212V200.8L445.433 200.496V212H443.833ZM451.381 212.128C450.624 212.128 449.93 211.941 449.301 211.568C448.672 211.195 448.176 210.693 447.813 210.064C447.45 209.424 447.269 208.709 447.269 207.92C447.269 207.131 447.45 206.421 447.813 205.792C448.186 205.163 448.688 204.661 449.317 204.288C449.946 203.915 450.645 203.728 451.413 203.728C451.861 203.728 452.293 203.797 452.709 203.936C453.125 204.075 453.509 204.277 453.861 204.544V200.8L455.461 200.496V212H453.877V211.216C453.184 211.824 452.352 212.128 451.381 212.128ZM451.589 210.736C452.058 210.736 452.485 210.651 452.869 210.48C453.264 210.309 453.594 210.064 453.861 209.744V206.08C453.594 205.781 453.264 205.547 452.869 205.376C452.485 205.195 452.058 205.104 451.589 205.104C451.077 205.104 450.613 205.227 450.197 205.472C449.781 205.717 449.45 206.053 449.205 206.48C448.96 206.896 448.837 207.371 448.837 207.904C448.837 208.437 448.96 208.917 449.205 209.344C449.45 209.771 449.781 210.112 450.197 210.368C450.613 210.613 451.077 210.736 451.589 210.736ZM457.884 204.528L457.676 200.768H459.244L459.036 204.528H457.884ZM464.249 212.16C463.545 212.16 462.884 212.059 462.265 211.856C461.657 211.643 461.129 211.344 460.681 210.96L461.561 209.904C461.977 210.235 462.404 210.491 462.841 210.672C463.289 210.843 463.742 210.928 464.201 210.928C464.777 210.928 465.246 210.816 465.609 210.592C465.972 210.368 466.153 210.075 466.153 209.712C466.153 209.413 466.046 209.179 465.833 209.008C465.62 208.837 465.289 208.72 464.841 208.656L463.369 208.448C462.558 208.331 461.95 208.08 461.545 207.696C461.14 207.312 460.937 206.8 460.937 206.16C460.937 205.669 461.07 205.243 461.337 204.88C461.604 204.507 461.977 204.219 462.457 204.016C462.937 203.803 463.497 203.696 464.137 203.696C464.724 203.696 465.289 203.781 465.833 203.952C466.377 204.123 466.9 204.389 467.401 204.752L466.585 205.808C466.137 205.509 465.7 205.291 465.273 205.152C464.857 205.013 464.436 204.944 464.009 204.944C463.518 204.944 463.124 205.051 462.825 205.264C462.526 205.467 462.377 205.733 462.377 206.064C462.377 206.363 462.478 206.597 462.681 206.768C462.894 206.928 463.241 207.04 463.721 207.104L465.193 207.312C466.004 207.429 466.617 207.68 467.033 208.064C467.449 208.437 467.657 208.944 467.657 209.584C467.657 210.075 467.508 210.517 467.209 210.912C466.91 211.296 466.505 211.6 465.993 211.824C465.481 212.048 464.9 212.16 464.249 212.16Z" fill="black"/>
<path d="M385.698 236.154C384.989 236.154 384.326 236.028 383.71 235.776C383.094 235.515 382.553 235.155 382.086 234.698C381.619 234.231 381.255 233.695 380.994 233.088C380.742 232.472 380.616 231.809 380.616 231.1C380.616 230.391 380.742 229.733 380.994 229.126C381.255 228.51 381.619 227.973 382.086 227.516C382.553 227.049 383.094 226.69 383.71 226.438C384.326 226.177 384.989 226.046 385.698 226.046C386.211 226.046 386.701 226.111 387.168 226.242C387.644 226.363 388.083 226.545 388.484 226.788C388.895 227.021 389.259 227.311 389.576 227.656L388.862 228.412C388.479 227.973 388.008 227.637 387.448 227.404C386.888 227.161 386.305 227.04 385.698 227.04C385.129 227.04 384.601 227.143 384.116 227.348C383.631 227.553 383.206 227.843 382.842 228.216C382.487 228.58 382.207 229.009 382.002 229.504C381.806 229.989 381.708 230.521 381.708 231.1C381.708 231.669 381.806 232.201 382.002 232.696C382.207 233.191 382.492 233.625 382.856 233.998C383.22 234.362 383.645 234.647 384.13 234.852C384.625 235.057 385.157 235.16 385.726 235.16C386.333 235.16 386.911 235.043 387.462 234.81C388.013 234.567 388.475 234.236 388.848 233.816L389.548 234.544C389.221 234.88 388.853 235.169 388.442 235.412C388.041 235.655 387.607 235.841 387.14 235.972C386.673 236.093 386.193 236.154 385.698 236.154ZM393.478 236.126C392.964 236.126 392.512 236.037 392.12 235.86C391.737 235.683 391.434 235.435 391.21 235.118C390.995 234.801 390.888 234.432 390.888 234.012C390.888 233.349 391.14 232.827 391.644 232.444C392.148 232.061 392.829 231.87 393.688 231.87C394.444 231.87 395.13 232.029 395.746 232.346V231.422C395.746 230.862 395.587 230.442 395.27 230.162C394.952 229.873 394.49 229.728 393.884 229.728C393.538 229.728 393.188 229.779 392.834 229.882C392.488 229.975 392.106 230.129 391.686 230.344L391.294 229.546C391.798 229.303 392.264 229.126 392.694 229.014C393.123 228.902 393.552 228.846 393.982 228.846C394.868 228.846 395.55 229.056 396.026 229.476C396.511 229.896 396.754 230.498 396.754 231.282V236H395.746V235.314C395.428 235.585 395.078 235.79 394.696 235.93C394.322 236.061 393.916 236.126 393.478 236.126ZM391.882 233.984C391.882 234.376 392.045 234.698 392.372 234.95C392.708 235.193 393.137 235.314 393.66 235.314C394.08 235.314 394.462 235.249 394.808 235.118C395.153 234.987 395.466 234.782 395.746 234.502V233.186C395.456 232.99 395.148 232.85 394.822 232.766C394.495 232.673 394.126 232.626 393.716 232.626C393.156 232.626 392.708 232.752 392.372 233.004C392.045 233.247 391.882 233.573 391.882 233.984ZM401.004 236.14C400.426 236.14 399.88 236.047 399.366 235.86C398.862 235.664 398.424 235.393 398.05 235.048L398.68 234.376C399.007 234.675 399.366 234.908 399.758 235.076C400.15 235.235 400.552 235.314 400.962 235.314C401.522 235.314 401.98 235.197 402.334 234.964C402.689 234.731 402.866 234.427 402.866 234.054C402.866 233.746 402.759 233.508 402.544 233.34C402.339 233.163 402.012 233.041 401.564 232.976L400.346 232.808C399.646 232.705 399.124 232.495 398.778 232.178C398.442 231.861 398.274 231.431 398.274 230.89C398.274 230.498 398.386 230.148 398.61 229.84C398.834 229.532 399.142 229.289 399.534 229.112C399.936 228.935 400.393 228.846 400.906 228.846C401.42 228.846 401.9 228.921 402.348 229.07C402.796 229.219 403.235 229.453 403.664 229.77L403.118 230.47C402.726 230.199 402.344 230.003 401.97 229.882C401.606 229.751 401.233 229.686 400.85 229.686C400.365 229.686 399.973 229.793 399.674 230.008C399.376 230.223 399.226 230.503 399.226 230.848C399.226 231.165 399.329 231.408 399.534 231.576C399.74 231.735 400.071 231.847 400.528 231.912L401.746 232.08C402.446 232.173 402.969 232.379 403.314 232.696C403.669 233.013 403.846 233.447 403.846 233.998C403.846 234.399 403.72 234.763 403.468 235.09C403.216 235.417 402.876 235.673 402.446 235.86C402.026 236.047 401.546 236.14 401.004 236.14ZM405.292 236V226.2L406.328 225.962V229.812C406.879 229.168 407.616 228.846 408.54 228.846C409.072 228.846 409.539 228.963 409.94 229.196C410.351 229.42 410.668 229.737 410.892 230.148C411.126 230.549 411.242 231.021 411.242 231.562V236H410.22V231.772C410.22 231.147 410.043 230.657 409.688 230.302C409.343 229.938 408.867 229.756 408.26 229.756C407.84 229.756 407.467 229.849 407.14 230.036C406.814 230.223 406.543 230.489 406.328 230.834V236H405.292ZM413.256 236V226.2L414.292 225.962V229.728C414.889 229.159 415.641 228.874 416.546 228.874C417.209 228.874 417.806 229.037 418.338 229.364C418.87 229.681 419.29 230.111 419.598 230.652C419.915 231.193 420.074 231.805 420.074 232.486C420.074 233.167 419.915 233.783 419.598 234.334C419.29 234.875 418.87 235.309 418.338 235.636C417.806 235.953 417.204 236.112 416.532 236.112C416.121 236.112 415.72 236.042 415.328 235.902C414.945 235.762 414.595 235.561 414.278 235.3V236H413.256ZM416.448 235.202C416.943 235.202 417.386 235.085 417.778 234.852C418.17 234.609 418.478 234.287 418.702 233.886C418.935 233.475 419.052 233.013 419.052 232.5C419.052 231.987 418.935 231.525 418.702 231.114C418.478 230.703 418.17 230.381 417.778 230.148C417.386 229.905 416.943 229.784 416.448 229.784C416.009 229.784 415.599 229.873 415.216 230.05C414.843 230.218 414.535 230.456 414.292 230.764V234.236C414.535 234.535 414.847 234.773 415.23 234.95C415.613 235.118 416.019 235.202 416.448 235.202ZM424.074 236.126C423.561 236.126 423.108 236.037 422.716 235.86C422.333 235.683 422.03 235.435 421.806 235.118C421.591 234.801 421.484 234.432 421.484 234.012C421.484 233.349 421.736 232.827 422.24 232.444C422.744 232.061 423.425 231.87 424.284 231.87C425.04 231.87 425.726 232.029 426.342 232.346V231.422C426.342 230.862 426.183 230.442 425.866 230.162C425.549 229.873 425.087 229.728 424.48 229.728C424.135 229.728 423.785 229.779 423.43 229.882C423.085 229.975 422.702 230.129 422.282 230.344L421.89 229.546C422.394 229.303 422.861 229.126 423.29 229.014C423.719 228.902 424.149 228.846 424.578 228.846C425.465 228.846 426.146 229.056 426.622 229.476C427.107 229.896 427.35 230.498 427.35 231.282V236H426.342V235.314C426.025 235.585 425.675 235.79 425.292 235.93C424.919 236.061 424.513 236.126 424.074 236.126ZM422.478 233.984C422.478 234.376 422.641 234.698 422.968 234.95C423.304 235.193 423.733 235.314 424.256 235.314C424.676 235.314 425.059 235.249 425.404 235.118C425.749 234.987 426.062 234.782 426.342 234.502V233.186C426.053 232.99 425.745 232.85 425.418 232.766C425.091 232.673 424.723 232.626 424.312 232.626C423.752 232.626 423.304 232.752 422.968 233.004C422.641 233.247 422.478 233.573 422.478 233.984ZM432.609 236.126C431.946 236.126 431.344 235.967 430.803 235.65C430.261 235.323 429.832 234.885 429.515 234.334C429.197 233.783 429.039 233.167 429.039 232.486C429.039 231.805 429.197 231.193 429.515 230.652C429.832 230.101 430.261 229.663 430.803 229.336C431.344 229.009 431.946 228.846 432.609 228.846C433.122 228.846 433.617 228.944 434.093 229.14C434.569 229.327 434.989 229.597 435.353 229.952L434.695 230.708C434.415 230.409 434.093 230.185 433.729 230.036C433.374 229.877 433.005 229.798 432.623 229.798C432.147 229.798 431.713 229.919 431.321 230.162C430.938 230.395 430.63 230.717 430.397 231.128C430.173 231.529 430.061 231.982 430.061 232.486C430.061 232.99 430.173 233.447 430.397 233.858C430.63 234.269 430.943 234.595 431.335 234.838C431.727 235.071 432.161 235.188 432.637 235.188C433.019 235.188 433.379 235.113 433.715 234.964C434.06 234.815 434.382 234.595 434.681 234.306L435.325 235.006C434.951 235.361 434.531 235.636 434.065 235.832C433.598 236.028 433.113 236.126 432.609 236.126ZM436.819 236V226.2L437.855 225.962V232.15L441.523 228.986H442.783L438.933 232.318L442.965 236H441.551L437.855 232.64V236H436.819ZM447.108 236V235.258L451.028 230.974C451.336 230.638 451.574 230.344 451.742 230.092C451.92 229.831 452.041 229.588 452.106 229.364C452.181 229.14 452.218 228.902 452.218 228.65C452.218 228.155 452.022 227.749 451.63 227.432C451.248 227.105 450.758 226.942 450.16 226.942C449.703 226.942 449.278 227.031 448.886 227.208C448.494 227.385 448.056 227.693 447.57 228.132L446.982 227.432C447.496 226.965 448.014 226.62 448.536 226.396C449.059 226.163 449.605 226.046 450.174 226.046C450.762 226.046 451.285 226.158 451.742 226.382C452.2 226.597 452.559 226.895 452.82 227.278C453.082 227.661 453.212 228.099 453.212 228.594C453.212 228.921 453.17 229.224 453.086 229.504C453.002 229.775 452.853 230.069 452.638 230.386C452.424 230.694 452.116 231.067 451.714 231.506L448.368 235.132L453.422 235.118V236H447.108ZM454.906 237.918L455.718 234.964H456.838L455.718 237.918H454.906ZM461.812 236.154C460.524 236.154 459.413 235.711 458.48 234.824L459.11 234.138C459.539 234.539 459.964 234.833 460.384 235.02C460.813 235.197 461.294 235.286 461.826 235.286C462.302 235.286 462.722 235.188 463.086 234.992C463.45 234.796 463.73 234.521 463.926 234.166C464.131 233.811 464.234 233.405 464.234 232.948C464.234 232.295 464.01 231.767 463.562 231.366C463.123 230.965 462.544 230.764 461.826 230.764C461.452 230.764 461.088 230.811 460.734 230.904C460.379 230.988 460.01 231.128 459.628 231.324L458.928 231.1L459.152 226.2H464.724V227.082H460.02L459.866 230.47C460.239 230.283 460.598 230.153 460.944 230.078C461.289 229.994 461.653 229.952 462.036 229.952C462.68 229.952 463.24 230.078 463.716 230.33C464.201 230.573 464.574 230.918 464.836 231.366C465.106 231.805 465.242 232.318 465.242 232.906C465.242 233.55 465.097 234.115 464.808 234.6C464.518 235.085 464.117 235.468 463.604 235.748C463.09 236.019 462.493 236.154 461.812 236.154ZM468.635 231.17C468.009 231.17 467.505 230.937 467.123 230.47C466.74 230.003 466.549 229.397 466.549 228.65C466.549 227.903 466.74 227.297 467.123 226.83C467.505 226.363 468.009 226.13 468.635 226.13C469.241 226.13 469.736 226.363 470.119 226.83C470.501 227.297 470.697 227.903 470.707 228.65C470.697 229.397 470.501 230.003 470.119 230.47C469.736 230.937 469.241 231.17 468.635 231.17ZM468.635 230.526C469.045 230.526 469.372 230.358 469.615 230.022C469.867 229.677 469.993 229.219 469.993 228.65C469.993 228.071 469.867 227.614 469.615 227.278C469.372 226.933 469.045 226.76 468.635 226.76C468.215 226.76 467.883 226.933 467.641 227.278C467.398 227.614 467.272 228.071 467.263 228.65C467.272 229.219 467.398 229.677 467.641 230.022C467.883 230.358 468.215 230.526 468.635 230.526ZM468.159 236L473.661 226.2H474.529L469.013 236H468.159ZM474.095 236.07C473.469 236.07 472.965 235.837 472.583 235.37C472.2 234.903 472.009 234.297 472.009 233.55C472.009 232.803 472.2 232.197 472.583 231.73C472.965 231.263 473.469 231.03 474.095 231.03C474.701 231.03 475.196 231.263 475.579 231.73C475.961 232.197 476.157 232.803 476.167 233.55C476.157 234.297 475.961 234.903 475.579 235.37C475.196 235.837 474.701 236.07 474.095 236.07ZM474.095 235.426C474.505 235.426 474.832 235.258 475.075 234.922C475.327 234.577 475.453 234.119 475.453 233.55C475.453 232.971 475.327 232.514 475.075 232.178C474.832 231.833 474.505 231.66 474.095 231.66C473.675 231.66 473.343 231.833 473.101 232.178C472.858 232.514 472.732 232.971 472.723 233.55C472.732 234.119 472.858 234.577 473.101 234.922C473.343 235.258 473.675 235.426 474.095 235.426Z" fill="#8D8F93"/>
<circle cx="543" cy="49" r="20.5" fill="white" stroke="#8D8F93"/>
<path d="M551.164 54.4277C551.039 54.4277 550.915 54.4032 550.8 54.3554C550.684 54.3076 550.579 54.2376 550.491 54.1493C550.403 54.061 550.333 53.9561 550.285 53.8407C550.237 53.7253 550.213 53.6016 550.213 53.4766L550.214 43.6732L537.049 56.8374C536.871 57.0156 536.629 57.1158 536.377 57.1158C536.125 57.1158 535.884 57.0157 535.705 56.8374C535.527 56.6592 535.427 56.4174 535.427 56.1653C535.427 55.9132 535.527 55.6715 535.705 55.4932L548.869 42.329L539.066 42.33C538.814 42.33 538.572 42.2298 538.394 42.0515C538.215 41.8731 538.115 41.6312 538.115 41.379C538.115 41.1268 538.215 40.8849 538.394 40.7065C538.572 40.5282 538.814 40.428 539.066 40.428L551.164 40.4278C551.289 40.4277 551.412 40.4522 551.528 40.5C551.643 40.5478 551.748 40.6178 551.837 40.7061C551.925 40.7945 551.995 40.8993 552.043 41.0147C552.09 41.1302 552.115 41.2539 552.115 41.3788L552.115 53.4766C552.115 53.6015 552.09 53.7252 552.042 53.8406C551.995 53.9561 551.925 54.0609 551.836 54.1493C551.748 54.2376 551.643 54.3076 551.528 54.3554C551.412 54.4032 551.289 54.4277 551.164 54.4277Z" fill="#8D8F93"/>
<defs>
<filter id="filter0_d_1_5623" x="0" y="0" width="600" height="287" filterUnits="userSpaceOnUse" color-interpolation-filters="sRGB">
<feFlood flood-opacity="0" result="BackgroundImageFix"/>
<feColorMatrix in="SourceAlpha" type="matrix" values="0 0 0 0 0 0 0 0 0 0 0 0 0 0 0 0 0 0 127 0" result="hardAlpha"/>
<feOffset/>
<feGaussianBlur stdDeviation="5"/>
<feComposite in2="hardAlpha" operator="out"/>
<feColorMatrix type="matrix" values="0 0 0 0 0.552941 0 0 0 0 0.560784 0 0 0 0 0.576471 0 0 0 0.25 0"/>
<feBlend mode="normal" in2="BackgroundImageFix" result="effect1_dropShadow_1_5623"/>
<feBlend mode="normal" in="SourceGraphic" in2="effect1_dropShadow_1_5623" result="shape"/>
</filter>
</defs>
</svg>
