<svg width="526" height="156" viewBox="0 0 526 156" fill="none" xmlns="http://www.w3.org/2000/svg">
<g clip-path="url(#clip0_1_5660)">
<path d="M26.5 34C26.5 25.4396 33.4396 18.5 42 18.5H484C492.56 18.5 499.5 25.4396 499.5 34V196.5H26.5V34Z" stroke="#1C2027"/>
<rect y="59" width="526" height="168" fill="url(#paint0_linear_1_5660)"/>
<path d="M109.78 109V100.166H106.238V99.2H114.4V100.166H110.858V109H109.78ZM117.185 109.14C116.522 109.14 115.916 108.981 115.365 108.664C114.824 108.337 114.394 107.899 114.077 107.348C113.76 106.797 113.601 106.181 113.601 105.5C113.601 104.819 113.76 104.203 114.077 103.652C114.394 103.101 114.824 102.667 115.365 102.35C115.916 102.023 116.522 101.86 117.185 101.86C117.857 101.86 118.464 102.023 119.005 102.35C119.546 102.667 119.976 103.101 120.293 103.652C120.61 104.203 120.769 104.819 120.769 105.5C120.769 106.181 120.61 106.797 120.293 107.348C119.976 107.899 119.546 108.337 119.005 108.664C118.464 108.981 117.857 109.14 117.185 109.14ZM117.185 108.216C117.661 108.216 118.09 108.095 118.473 107.852C118.865 107.609 119.173 107.283 119.397 106.872C119.63 106.461 119.747 106.004 119.747 105.5C119.747 104.987 119.63 104.529 119.397 104.128C119.173 103.717 118.865 103.391 118.473 103.148C118.09 102.905 117.661 102.784 117.185 102.784C116.709 102.784 116.275 102.905 115.883 103.148C115.5 103.391 115.192 103.717 114.959 104.128C114.735 104.529 114.623 104.987 114.623 105.5C114.623 106.004 114.735 106.461 114.959 106.872C115.192 107.283 115.5 107.609 115.883 107.852C116.275 108.095 116.709 108.216 117.185 108.216ZM125.414 109.112C124.761 109.112 124.164 108.953 123.622 108.636C123.09 108.309 122.666 107.875 122.348 107.334C122.04 106.783 121.886 106.167 121.886 105.486C121.886 104.805 122.04 104.193 122.348 103.652C122.666 103.111 123.09 102.681 123.622 102.364C124.164 102.037 124.766 101.874 125.428 101.874C125.839 101.874 126.236 101.944 126.618 102.084C127.001 102.215 127.351 102.411 127.668 102.672V99.2L128.704 98.962V109H127.682V108.258C127.066 108.827 126.31 109.112 125.414 109.112ZM125.512 108.202C125.951 108.202 126.357 108.118 126.73 107.95C127.113 107.773 127.426 107.53 127.668 107.222V103.75C127.426 103.451 127.113 103.218 126.73 103.05C126.357 102.873 125.951 102.784 125.512 102.784C125.027 102.784 124.584 102.901 124.182 103.134C123.79 103.367 123.478 103.689 123.244 104.1C123.02 104.501 122.908 104.959 122.908 105.472C122.908 105.985 123.02 106.447 123.244 106.858C123.478 107.269 123.79 107.595 124.182 107.838C124.584 108.081 125.027 108.202 125.512 108.202ZM132.678 109.126C132.165 109.126 131.712 109.037 131.32 108.86C130.937 108.683 130.634 108.435 130.41 108.118C130.195 107.801 130.088 107.432 130.088 107.012C130.088 106.349 130.34 105.827 130.844 105.444C131.348 105.061 132.029 104.87 132.888 104.87C133.644 104.87 134.33 105.029 134.946 105.346V104.422C134.946 103.862 134.787 103.442 134.47 103.162C134.153 102.873 133.691 102.728 133.084 102.728C132.739 102.728 132.389 102.779 132.034 102.882C131.689 102.975 131.306 103.129 130.886 103.344L130.494 102.546C130.998 102.303 131.465 102.126 131.894 102.014C132.323 101.902 132.753 101.846 133.182 101.846C134.069 101.846 134.75 102.056 135.226 102.476C135.711 102.896 135.954 103.498 135.954 104.282V109H134.946V108.314C134.629 108.585 134.279 108.79 133.896 108.93C133.523 109.061 133.117 109.126 132.678 109.126ZM131.082 106.984C131.082 107.376 131.245 107.698 131.572 107.95C131.908 108.193 132.337 108.314 132.86 108.314C133.28 108.314 133.663 108.249 134.008 108.118C134.353 107.987 134.666 107.782 134.946 107.502V106.186C134.657 105.99 134.349 105.85 134.022 105.766C133.695 105.673 133.327 105.626 132.916 105.626C132.356 105.626 131.908 105.752 131.572 106.004C131.245 106.247 131.082 106.573 131.082 106.984ZM137.842 111.996C137.711 111.996 137.585 111.987 137.464 111.968C137.352 111.959 137.259 111.945 137.184 111.926V110.988C137.343 111.025 137.539 111.044 137.772 111.044C138.388 111.044 138.855 110.68 139.172 109.952L139.592 108.986L136.736 101.986H137.884L140.152 107.74L142.602 101.986H143.722L140.222 110.092C140.026 110.54 139.816 110.904 139.592 111.184C139.368 111.464 139.111 111.669 138.822 111.8C138.542 111.931 138.215 111.996 137.842 111.996ZM149.905 109.126C149.391 109.126 148.939 109.037 148.547 108.86C148.164 108.683 147.861 108.435 147.637 108.118C147.422 107.801 147.315 107.432 147.315 107.012C147.315 106.349 147.567 105.827 148.071 105.444C148.575 105.061 149.256 104.87 150.115 104.87C150.871 104.87 151.557 105.029 152.173 105.346V104.422C152.173 103.862 152.014 103.442 151.697 103.162C151.379 102.873 150.917 102.728 150.311 102.728C149.965 102.728 149.615 102.779 149.261 102.882C148.915 102.975 148.533 103.129 148.113 103.344L147.721 102.546C148.225 102.303 148.691 102.126 149.121 102.014C149.55 101.902 149.979 101.846 150.409 101.846C151.295 101.846 151.977 102.056 152.453 102.476C152.938 102.896 153.181 103.498 153.181 104.282V109H152.173V108.314C151.855 108.585 151.505 108.79 151.123 108.93C150.749 109.061 150.343 109.126 149.905 109.126ZM148.309 106.984C148.309 107.376 148.472 107.698 148.799 107.95C149.135 108.193 149.564 108.314 150.087 108.314C150.507 108.314 150.889 108.249 151.235 108.118C151.58 107.987 151.893 107.782 152.173 107.502V106.186C151.883 105.99 151.575 105.85 151.249 105.766C150.922 105.673 150.553 105.626 150.143 105.626C149.583 105.626 149.135 105.752 148.799 106.004C148.472 106.247 148.309 106.573 148.309 106.984ZM157.464 109.14C156.858 109.14 156.391 108.995 156.064 108.706C155.738 108.417 155.574 107.997 155.574 107.446V102.868H154.062V101.986H155.574V100.208L156.596 99.942V101.986H158.71V102.868H156.596V107.18C156.596 107.553 156.68 107.824 156.848 107.992C157.016 108.151 157.292 108.23 157.674 108.23C157.87 108.23 158.043 108.216 158.192 108.188C158.351 108.16 158.519 108.113 158.696 108.048V108.958C158.519 109.023 158.318 109.07 158.094 109.098C157.88 109.126 157.67 109.14 157.464 109.14ZM166.579 109.154C165.795 109.154 165.105 108.939 164.507 108.51C163.91 108.081 163.439 107.488 163.093 106.732C162.757 105.967 162.589 105.089 162.589 104.1C162.589 103.111 162.757 102.238 163.093 101.482C163.439 100.717 163.91 100.119 164.507 99.69C165.105 99.2607 165.795 99.046 166.579 99.046C167.363 99.046 168.054 99.2607 168.651 99.69C169.249 100.119 169.715 100.717 170.051 101.482C170.397 102.238 170.569 103.111 170.569 104.1C170.569 105.089 170.397 105.967 170.051 106.732C169.715 107.488 169.249 108.081 168.651 108.51C168.054 108.939 167.363 109.154 166.579 109.154ZM166.579 108.244C167.186 108.244 167.709 108.076 168.147 107.74C168.595 107.395 168.941 106.909 169.183 106.284C169.426 105.659 169.547 104.931 169.547 104.1C169.547 103.26 169.426 102.532 169.183 101.916C168.941 101.291 168.595 100.81 168.147 100.474C167.709 100.129 167.186 99.956 166.579 99.956C165.982 99.956 165.459 100.129 165.011 100.474C164.563 100.81 164.218 101.291 163.975 101.916C163.733 102.532 163.611 103.26 163.611 104.1C163.611 104.931 163.733 105.659 163.975 106.284C164.218 106.909 164.563 107.395 165.011 107.74C165.459 108.076 165.982 108.244 166.579 108.244ZM175.012 99.046C175.768 99.046 176.431 99.2467 177 99.648C177.579 100.049 178.031 100.605 178.358 101.314C178.685 102.014 178.848 102.826 178.848 103.75C178.848 104.833 178.666 105.78 178.302 106.592C177.938 107.395 177.425 108.02 176.762 108.468C176.109 108.916 175.339 109.14 174.452 109.14C174.051 109.14 173.645 109.084 173.234 108.972C172.833 108.851 172.473 108.687 172.156 108.482L172.66 107.698C172.949 107.866 173.253 107.997 173.57 108.09C173.897 108.183 174.219 108.23 174.536 108.23C175.208 108.23 175.787 108.057 176.272 107.712C176.767 107.357 177.149 106.853 177.42 106.2C177.691 105.537 177.831 104.753 177.84 103.848C177.476 104.315 177.042 104.679 176.538 104.94C176.034 105.201 175.511 105.332 174.97 105.332C174.335 105.332 173.771 105.201 173.276 104.94C172.781 104.669 172.394 104.305 172.114 103.848C171.834 103.391 171.694 102.868 171.694 102.28C171.694 101.655 171.839 101.099 172.128 100.614C172.417 100.129 172.809 99.746 173.304 99.466C173.808 99.186 174.377 99.046 175.012 99.046ZM175.11 104.506C175.623 104.506 176.113 104.38 176.58 104.128C177.056 103.867 177.467 103.512 177.812 103.064C177.747 102.429 177.588 101.879 177.336 101.412C177.084 100.945 176.762 100.581 176.37 100.32C175.978 100.059 175.53 99.928 175.026 99.928C174.587 99.928 174.191 100.031 173.836 100.236C173.481 100.432 173.201 100.707 172.996 101.062C172.8 101.407 172.702 101.804 172.702 102.252C172.702 102.691 172.805 103.083 173.01 103.428C173.215 103.764 173.5 104.03 173.864 104.226C174.228 104.413 174.643 104.506 175.11 104.506ZM181.4 109.084C181.204 109.084 181.036 109.014 180.896 108.874C180.756 108.734 180.686 108.566 180.686 108.37C180.686 108.174 180.756 108.006 180.896 107.866C181.036 107.726 181.204 107.656 181.4 107.656C181.596 107.656 181.764 107.726 181.904 107.866C182.044 108.006 182.114 108.174 182.114 108.37C182.114 108.566 182.044 108.734 181.904 108.874C181.764 109.014 181.596 109.084 181.4 109.084ZM181.4 103.26C181.204 103.26 181.036 103.19 180.896 103.05C180.756 102.91 180.686 102.742 180.686 102.546C180.686 102.35 180.756 102.182 180.896 102.042C181.036 101.902 181.204 101.832 181.4 101.832C181.596 101.832 181.764 101.902 181.904 102.042C182.044 102.182 182.114 102.35 182.114 102.546C182.114 102.742 182.044 102.91 181.904 103.05C181.764 103.19 181.596 103.26 181.4 103.26ZM189.1 109V106.382H183.528V105.57L189.03 99.2H190.122V105.5H191.298V106.382H190.122V109H189.1ZM184.788 105.5H189.1V100.502L184.788 105.5ZM195.882 109.154C195.21 109.154 194.612 109.033 194.09 108.79C193.567 108.547 193.152 108.216 192.844 107.796C192.545 107.367 192.396 106.886 192.396 106.354C192.396 105.953 192.494 105.584 192.69 105.248C192.886 104.903 193.156 104.609 193.502 104.366C193.856 104.114 194.258 103.937 194.706 103.834C194.136 103.675 193.67 103.391 193.306 102.98C192.951 102.569 192.774 102.107 192.774 101.594C192.774 101.109 192.909 100.675 193.18 100.292C193.45 99.9093 193.819 99.606 194.286 99.382C194.762 99.158 195.294 99.046 195.882 99.046C196.479 99.046 197.011 99.158 197.478 99.382C197.944 99.606 198.313 99.9093 198.584 100.292C198.854 100.675 198.99 101.109 198.99 101.594C198.99 102.107 198.812 102.569 198.458 102.98C198.103 103.391 197.636 103.675 197.058 103.834C197.739 103.993 198.294 104.305 198.724 104.772C199.153 105.229 199.368 105.757 199.368 106.354C199.368 106.886 199.218 107.367 198.92 107.796C198.621 108.216 198.206 108.547 197.674 108.79C197.151 109.033 196.554 109.154 195.882 109.154ZM195.882 103.414C196.283 103.414 196.642 103.335 196.96 103.176C197.286 103.017 197.543 102.807 197.73 102.546C197.916 102.275 198.01 101.972 198.01 101.636C198.01 101.3 197.916 100.997 197.73 100.726C197.543 100.455 197.286 100.245 196.96 100.096C196.642 99.9373 196.283 99.858 195.882 99.858C195.48 99.858 195.116 99.9373 194.79 100.096C194.472 100.245 194.22 100.455 194.034 100.726C193.847 100.997 193.754 101.3 193.754 101.636C193.754 101.972 193.847 102.275 194.034 102.546C194.22 102.807 194.472 103.017 194.79 103.176C195.116 103.335 195.48 103.414 195.882 103.414ZM195.882 108.342C196.358 108.342 196.782 108.253 197.156 108.076C197.529 107.899 197.823 107.656 198.038 107.348C198.262 107.04 198.374 106.695 198.374 106.312C198.374 105.929 198.262 105.584 198.038 105.276C197.823 104.968 197.529 104.725 197.156 104.548C196.782 104.371 196.358 104.282 195.882 104.282C195.406 104.282 194.981 104.371 194.608 104.548C194.234 104.725 193.936 104.968 193.712 105.276C193.497 105.584 193.39 105.929 193.39 106.312C193.39 106.695 193.497 107.04 193.712 107.348C193.936 107.656 194.234 107.899 194.608 108.076C194.981 108.253 195.406 108.342 195.882 108.342ZM203.359 109L207.419 99.2H208.721L212.753 109H211.577L210.345 105.92H205.725L204.479 109H203.359ZM206.103 104.996H209.967L208.035 100.194L206.103 104.996ZM213.883 109V99.2H215.395L218.741 106.158L222.073 99.2H223.585V109H222.563V100.432L218.727 108.3L214.891 100.446V109H213.883Z" fill="#8D8F93"/>
<path d="M112.528 53.176C111.696 53.176 110.923 53.032 110.208 52.744C109.504 52.4453 108.88 52.0347 108.336 51.512C107.803 50.9787 107.387 50.3653 107.088 49.672C106.8 48.968 106.656 48.2107 106.656 47.4C106.656 46.5893 106.8 45.8373 107.088 45.144C107.387 44.44 107.803 43.8267 108.336 43.304C108.88 42.7707 109.509 42.36 110.224 42.072C110.939 41.7733 111.707 41.624 112.528 41.624C113.115 41.624 113.685 41.704 114.24 41.864C114.805 42.0133 115.323 42.232 115.792 42.52C116.272 42.808 116.688 43.1547 117.04 43.56L115.92 44.712C115.504 44.2107 114.997 43.832 114.4 43.576C113.803 43.3093 113.179 43.176 112.528 43.176C111.931 43.176 111.376 43.2827 110.864 43.496C110.363 43.7093 109.925 44.008 109.552 44.392C109.179 44.7653 108.885 45.208 108.672 45.72C108.469 46.232 108.368 46.792 108.368 47.4C108.368 47.9973 108.469 48.552 108.672 49.064C108.885 49.576 109.184 50.024 109.568 50.408C109.952 50.792 110.4 51.0907 110.912 51.304C111.424 51.5173 111.979 51.624 112.576 51.624C113.227 51.624 113.84 51.496 114.416 51.24C115.003 50.9733 115.499 50.6 115.904 50.12L117.008 51.24C116.635 51.6347 116.208 51.9813 115.728 52.28C115.259 52.568 114.747 52.792 114.192 52.952C113.648 53.1013 113.093 53.176 112.528 53.176ZM122.097 53.16C121.308 53.16 120.588 52.9733 119.937 52.6C119.297 52.2267 118.791 51.72 118.417 51.08C118.044 50.44 117.857 49.7253 117.857 48.936C117.857 48.1467 118.044 47.432 118.417 46.792C118.791 46.152 119.297 45.6453 119.937 45.272C120.588 44.888 121.308 44.696 122.097 44.696C122.897 44.696 123.617 44.888 124.257 45.272C124.897 45.6453 125.404 46.152 125.777 46.792C126.151 47.432 126.337 48.1467 126.337 48.936C126.337 49.7253 126.151 50.44 125.777 51.08C125.404 51.72 124.897 52.2267 124.257 52.6C123.617 52.9733 122.897 53.16 122.097 53.16ZM122.097 51.752C122.599 51.752 123.052 51.6293 123.457 51.384C123.863 51.128 124.183 50.7867 124.417 50.36C124.652 49.9333 124.769 49.4533 124.769 48.92C124.769 48.3973 124.647 47.928 124.401 47.512C124.167 47.0853 123.847 46.744 123.441 46.488C123.047 46.232 122.599 46.104 122.097 46.104C121.596 46.104 121.143 46.232 120.737 46.488C120.343 46.744 120.023 47.0853 119.777 47.512C119.543 47.928 119.425 48.3973 119.425 48.92C119.425 49.4533 119.543 49.9333 119.777 50.36C120.012 50.7867 120.332 51.128 120.737 51.384C121.143 51.6293 121.596 51.752 122.097 51.752ZM127.85 53V44.856H129.45V45.688C130.08 45.0267 130.896 44.696 131.898 44.696C132.528 44.696 133.077 44.8293 133.546 45.096C134.026 45.3627 134.4 45.736 134.666 46.216C134.944 46.696 135.082 47.2507 135.082 47.88V53H133.482V48.152C133.482 47.512 133.301 47.0107 132.938 46.648C132.586 46.2747 132.09 46.088 131.45 46.088C131.024 46.088 130.64 46.1787 130.298 46.36C129.957 46.5413 129.674 46.8027 129.45 47.144V53H127.85ZM140.96 56.424C140.363 56.424 139.782 56.3547 139.216 56.216C138.651 56.0773 138.139 55.88 137.68 55.624L138.288 54.376C138.768 54.6213 139.216 54.7973 139.632 54.904C140.059 55.0213 140.486 55.08 140.912 55.08C141.627 55.08 142.166 54.9147 142.528 54.584C142.902 54.2533 143.088 53.768 143.088 53.128V52.2C142.374 52.7653 141.558 53.048 140.64 53.048C139.894 53.048 139.206 52.8667 138.576 52.504C137.958 52.1307 137.467 51.6293 137.104 51C136.742 50.36 136.56 49.656 136.56 48.888C136.56 48.1093 136.742 47.4053 137.104 46.776C137.478 46.136 137.974 45.6347 138.592 45.272C139.222 44.8987 139.926 44.712 140.704 44.712C141.142 44.712 141.563 44.7867 141.968 44.936C142.384 45.0747 142.763 45.2773 143.104 45.544V44.856H144.688V53.128C144.688 54.184 144.363 54.9947 143.712 55.56C143.072 56.136 142.155 56.424 140.96 56.424ZM140.848 51.672C141.318 51.672 141.744 51.592 142.128 51.432C142.512 51.2613 142.832 51.0213 143.088 50.712V47.064C142.832 46.7653 142.507 46.5307 142.112 46.36C141.728 46.1893 141.307 46.104 140.848 46.104C140.336 46.104 139.872 46.2267 139.456 46.472C139.051 46.7173 138.726 47.0533 138.48 47.48C138.246 47.896 138.128 48.3653 138.128 48.888C138.128 49.4107 138.246 49.8853 138.48 50.312C138.726 50.728 139.051 51.0587 139.456 51.304C139.872 51.5493 140.336 51.672 140.848 51.672ZM146.569 53V44.856H148.169V45.896C148.425 45.512 148.74 45.2133 149.113 45C149.497 44.776 149.929 44.664 150.409 44.664C150.74 44.6747 151.012 44.7227 151.225 44.808V46.248C151.076 46.184 150.921 46.1413 150.761 46.12C150.601 46.088 150.441 46.072 150.281 46.072C149.812 46.072 149.396 46.2 149.033 46.456C148.67 46.7013 148.382 47.064 148.169 47.544V53H146.569ZM154.754 53.144C154.168 53.144 153.65 53.0427 153.202 52.84C152.754 52.6267 152.402 52.3333 152.146 51.96C151.89 51.5867 151.762 51.1547 151.762 50.664C151.762 49.896 152.056 49.2933 152.642 48.856C153.229 48.408 154.034 48.184 155.058 48.184C155.858 48.184 156.6 48.3387 157.282 48.648V47.784C157.282 47.1973 157.112 46.76 156.77 46.472C156.44 46.184 155.949 46.04 155.298 46.04C154.925 46.04 154.536 46.0987 154.13 46.216C153.725 46.3227 153.272 46.4933 152.77 46.728L152.178 45.528C152.797 45.24 153.373 45.032 153.906 44.904C154.44 44.7653 154.978 44.696 155.522 44.696C156.578 44.696 157.394 44.9467 157.97 45.448C158.557 45.9493 158.85 46.664 158.85 47.592V53H157.282V52.296C156.92 52.584 156.53 52.7973 156.114 52.936C155.698 53.0747 155.245 53.144 154.754 53.144ZM153.298 50.632C153.298 51.0267 153.464 51.3467 153.794 51.592C154.136 51.8373 154.578 51.96 155.122 51.96C155.549 51.96 155.938 51.896 156.29 51.768C156.653 51.64 156.984 51.4427 157.282 51.176V49.8C156.973 49.6187 156.648 49.4907 156.306 49.416C155.976 49.3307 155.602 49.288 155.186 49.288C154.6 49.288 154.136 49.4107 153.794 49.656C153.464 49.8907 153.298 50.216 153.298 50.632ZM163.948 53.144C163.158 53.144 162.556 52.9627 162.14 52.6C161.724 52.2267 161.516 51.688 161.516 50.984V46.2H159.788V44.856H161.516V42.776L163.1 42.392V44.856H165.5V46.2H163.1V50.616C163.1 51.032 163.19 51.3307 163.372 51.512C163.564 51.6827 163.873 51.768 164.3 51.768C164.524 51.768 164.721 51.752 164.892 51.72C165.073 51.688 165.265 51.64 165.468 51.576V52.92C165.254 52.9947 165.004 53.048 164.716 53.08C164.438 53.1227 164.182 53.144 163.948 53.144ZM169.83 53.16C169.201 53.16 168.646 53.0267 168.166 52.76C167.686 52.4933 167.313 52.12 167.046 51.64C166.78 51.1493 166.646 50.5893 166.646 49.96V44.856H168.23V49.688C168.23 50.328 168.412 50.8347 168.774 51.208C169.148 51.5813 169.644 51.768 170.262 51.768C170.7 51.768 171.089 51.6773 171.43 51.496C171.772 51.304 172.049 51.0373 172.262 50.696V44.856H173.862V53H172.262V52.168C171.633 52.8293 170.822 53.16 169.83 53.16ZM175.757 53V41.8L177.357 41.496V53H175.757ZM181.817 53.144C181.23 53.144 180.713 53.0427 180.265 52.84C179.817 52.6267 179.465 52.3333 179.209 51.96C178.953 51.5867 178.825 51.1547 178.825 50.664C178.825 49.896 179.118 49.2933 179.705 48.856C180.292 48.408 181.097 48.184 182.121 48.184C182.921 48.184 183.662 48.3387 184.345 48.648V47.784C184.345 47.1973 184.174 46.76 183.833 46.472C183.502 46.184 183.012 46.04 182.361 46.04C181.988 46.04 181.598 46.0987 181.193 46.216C180.788 46.3227 180.334 46.4933 179.833 46.728L179.241 45.528C179.86 45.24 180.436 45.032 180.969 44.904C181.502 44.7653 182.041 44.696 182.585 44.696C183.641 44.696 184.457 44.9467 185.033 45.448C185.62 45.9493 185.913 46.664 185.913 47.592V53H184.345V52.296C183.982 52.584 183.593 52.7973 183.177 52.936C182.761 53.0747 182.308 53.144 181.817 53.144ZM180.361 50.632C180.361 51.0267 180.526 51.3467 180.857 51.592C181.198 51.8373 181.641 51.96 182.185 51.96C182.612 51.96 183.001 51.896 183.353 51.768C183.716 51.64 184.046 51.4427 184.345 51.176V49.8C184.036 49.6187 183.71 49.4907 183.369 49.416C183.038 49.3307 182.665 49.288 182.249 49.288C181.662 49.288 181.198 49.4107 180.857 49.656C180.526 49.8907 180.361 50.216 180.361 50.632ZM191.01 53.144C190.221 53.144 189.618 52.9627 189.202 52.6C188.786 52.2267 188.578 51.688 188.578 50.984V46.2H186.85V44.856H188.578V42.776L190.162 42.392V44.856H192.562V46.2H190.162V50.616C190.162 51.032 190.253 51.3307 190.434 51.512C190.626 51.6827 190.935 51.768 191.362 51.768C191.586 51.768 191.783 51.752 191.954 51.72C192.135 51.688 192.327 51.64 192.53 51.576V52.92C192.317 52.9947 192.066 53.048 191.778 53.08C191.501 53.1227 191.245 53.144 191.01 53.144ZM193.741 53V44.856H195.341V53H193.741ZM194.541 43.544C194.274 43.544 194.045 43.448 193.853 43.256C193.661 43.0533 193.565 42.8187 193.565 42.552C193.565 42.2747 193.661 42.0453 193.853 41.864C194.045 41.672 194.274 41.576 194.541 41.576C194.818 41.576 195.053 41.672 195.245 41.864C195.437 42.0453 195.533 42.2747 195.533 42.552C195.533 42.8187 195.437 43.0533 195.245 43.256C195.053 43.448 194.818 43.544 194.541 43.544ZM201.097 53.16C200.308 53.16 199.588 52.9733 198.937 52.6C198.297 52.2267 197.791 51.72 197.417 51.08C197.044 50.44 196.857 49.7253 196.857 48.936C196.857 48.1467 197.044 47.432 197.417 46.792C197.791 46.152 198.297 45.6453 198.937 45.272C199.588 44.888 200.308 44.696 201.097 44.696C201.897 44.696 202.617 44.888 203.257 45.272C203.897 45.6453 204.404 46.152 204.777 46.792C205.151 47.432 205.337 48.1467 205.337 48.936C205.337 49.7253 205.151 50.44 204.777 51.08C204.404 51.72 203.897 52.2267 203.257 52.6C202.617 52.9733 201.897 53.16 201.097 53.16ZM201.097 51.752C201.599 51.752 202.052 51.6293 202.457 51.384C202.863 51.128 203.183 50.7867 203.417 50.36C203.652 49.9333 203.769 49.4533 203.769 48.92C203.769 48.3973 203.647 47.928 203.401 47.512C203.167 47.0853 202.847 46.744 202.441 46.488C202.047 46.232 201.599 46.104 201.097 46.104C200.596 46.104 200.143 46.232 199.737 46.488C199.343 46.744 199.023 47.0853 198.777 47.512C198.543 47.928 198.425 48.3973 198.425 48.92C198.425 49.4533 198.543 49.9333 198.777 50.36C199.012 50.7867 199.332 51.128 199.737 51.384C200.143 51.6293 200.596 51.752 201.097 51.752ZM206.85 53V44.856H208.45V45.688C209.08 45.0267 209.896 44.696 210.898 44.696C211.528 44.696 212.077 44.8293 212.546 45.096C213.026 45.3627 213.4 45.736 213.666 46.216C213.944 46.696 214.082 47.2507 214.082 47.88V53H212.482V48.152C212.482 47.512 212.301 47.0107 211.938 46.648C211.586 46.2747 211.09 46.088 210.45 46.088C210.024 46.088 209.64 46.1787 209.298 46.36C208.957 46.5413 208.674 46.8027 208.45 47.144V53H206.85ZM218.728 53.16C218.024 53.16 217.363 53.0587 216.744 52.856C216.136 52.6427 215.608 52.344 215.16 51.96L216.04 50.904C216.456 51.2347 216.883 51.4907 217.32 51.672C217.768 51.8427 218.222 51.928 218.68 51.928C219.256 51.928 219.726 51.816 220.088 51.592C220.451 51.368 220.632 51.0747 220.632 50.712C220.632 50.4133 220.526 50.1787 220.312 50.008C220.099 49.8373 219.768 49.72 219.32 49.656L217.848 49.448C217.038 49.3307 216.43 49.08 216.024 48.696C215.619 48.312 215.416 47.8 215.416 47.16C215.416 46.6693 215.55 46.2427 215.816 45.88C216.083 45.5067 216.456 45.2187 216.936 45.016C217.416 44.8027 217.976 44.696 218.616 44.696C219.203 44.696 219.768 44.7813 220.312 44.952C220.856 45.1227 221.379 45.3893 221.88 45.752L221.064 46.808C220.616 46.5093 220.179 46.2907 219.752 46.152C219.336 46.0133 218.915 45.944 218.488 45.944C217.998 45.944 217.603 46.0507 217.304 46.264C217.006 46.4667 216.856 46.7333 216.856 47.064C216.856 47.3627 216.958 47.5973 217.16 47.768C217.374 47.928 217.72 48.04 218.2 48.104L219.672 48.312C220.483 48.4293 221.096 48.68 221.512 49.064C221.928 49.4373 222.136 49.944 222.136 50.584C222.136 51.0747 221.987 51.5173 221.688 51.912C221.39 52.296 220.984 52.6 220.472 52.824C219.96 53.048 219.379 53.16 218.728 53.16ZM223.51 49.8L223.318 41.72H224.966L224.774 49.8H223.51ZM224.15 53.112C223.873 53.112 223.633 53.016 223.43 52.824C223.227 52.6213 223.126 52.3813 223.126 52.104C223.126 51.8267 223.227 51.592 223.43 51.4C223.633 51.1973 223.873 51.096 224.15 51.096C224.427 51.096 224.662 51.1973 224.854 51.4C225.057 51.592 225.158 51.8267 225.158 52.104C225.158 52.3813 225.057 52.6213 224.854 52.824C224.662 53.016 224.427 53.112 224.15 53.112ZM235.699 53.176C234.888 53.176 234.131 53.032 233.427 52.744C232.723 52.4453 232.099 52.0347 231.555 51.512C231.021 50.9787 230.605 50.3653 230.307 49.672C230.019 48.968 229.875 48.2107 229.875 47.4C229.875 46.5893 230.019 45.8373 230.307 45.144C230.605 44.44 231.021 43.8267 231.555 43.304C232.099 42.7707 232.723 42.36 233.427 42.072C234.131 41.7733 234.888 41.624 235.699 41.624C236.509 41.624 237.267 41.7733 237.971 42.072C238.685 42.36 239.309 42.7707 239.843 43.304C240.376 43.8267 240.792 44.44 241.091 45.144C241.389 45.8373 241.539 46.5893 241.539 47.4C241.539 48.2107 241.389 48.968 241.091 49.672C240.792 50.3653 240.376 50.9787 239.843 51.512C239.309 52.0347 238.685 52.4453 237.971 52.744C237.267 53.032 236.509 53.176 235.699 53.176ZM235.715 51.624C236.291 51.624 236.824 51.5173 237.315 51.304C237.816 51.0907 238.253 50.7973 238.627 50.424C239 50.04 239.293 49.592 239.507 49.08C239.72 48.5573 239.827 47.9973 239.827 47.4C239.827 46.792 239.72 46.232 239.507 45.72C239.293 45.208 239 44.7653 238.627 44.392C238.253 44.008 237.816 43.7093 237.315 43.496C236.824 43.2827 236.291 43.176 235.715 43.176C235.128 43.176 234.584 43.2827 234.083 43.496C233.581 43.7093 233.144 44.008 232.771 44.392C232.397 44.7653 232.104 45.208 231.891 45.72C231.688 46.232 231.587 46.792 231.587 47.4C231.587 47.9973 231.688 48.5573 231.891 49.08C232.104 49.592 232.397 50.04 232.771 50.424C233.144 50.7973 233.581 51.0907 234.083 51.304C234.584 51.5173 235.128 51.624 235.715 51.624ZM243.116 53V41.8L244.716 41.448V45.688C245.345 45.0267 246.161 44.696 247.164 44.696C247.793 44.696 248.343 44.8293 248.812 45.096C249.292 45.3627 249.665 45.736 249.932 46.216C250.209 46.696 250.348 47.2507 250.348 47.88V53H248.748V48.152C248.748 47.512 248.567 47.0107 248.204 46.648C247.841 46.2747 247.345 46.088 246.716 46.088C246.289 46.088 245.905 46.1787 245.564 46.36C245.223 46.5413 244.94 46.8027 244.716 47.144V53H243.116ZM255.538 53V44.856H257.138V53H255.538ZM256.338 43.544C256.071 43.544 255.842 43.448 255.65 43.256C255.458 43.0533 255.362 42.8187 255.362 42.552C255.362 42.2747 255.458 42.0453 255.65 41.864C255.842 41.672 256.071 41.576 256.338 41.576C256.615 41.576 256.85 41.672 257.042 41.864C257.234 42.0453 257.33 42.2747 257.33 42.552C257.33 42.8187 257.234 43.0533 257.042 43.256C256.85 43.448 256.615 43.544 256.338 43.544ZM263.582 53V46.2H261.694V44.856H263.582V43.624C263.582 42.7707 263.817 42.12 264.286 41.672C264.766 41.224 265.449 41 266.334 41C266.558 41 266.766 41.016 266.958 41.048C267.161 41.0693 267.342 41.1067 267.502 41.16V42.536C267.31 42.4827 267.139 42.4453 266.99 42.424C266.841 42.392 266.675 42.376 266.494 42.376C266.046 42.376 265.71 42.4827 265.486 42.696C265.273 42.8987 265.166 43.224 265.166 43.672V44.856H267.502V46.2H265.166V53H263.582ZM268.725 53V44.856H270.325V53H268.725ZM269.525 43.544C269.259 43.544 269.029 43.448 268.837 43.256C268.645 43.0533 268.549 42.8187 268.549 42.552C268.549 42.2747 268.645 42.0453 268.837 41.864C269.029 41.672 269.259 41.576 269.525 41.576C269.803 41.576 270.037 41.672 270.229 41.864C270.421 42.0453 270.517 42.2747 270.517 42.552C270.517 42.8187 270.421 43.0533 270.229 43.256C270.037 43.448 269.803 43.544 269.525 43.544ZM272.21 53V44.856H273.81V45.688C274.439 45.0267 275.255 44.696 276.258 44.696C276.887 44.696 277.436 44.8293 277.906 45.096C278.386 45.3627 278.759 45.736 279.026 46.216C279.303 46.696 279.442 47.2507 279.442 47.88V53H277.842V48.152C277.842 47.512 277.66 47.0107 277.298 46.648C276.946 46.2747 276.45 46.088 275.81 46.088C275.383 46.088 274.999 46.1787 274.658 46.36C274.316 46.5413 274.034 46.8027 273.81 47.144V53H272.21ZM281.288 53V44.856H282.888V53H281.288ZM282.088 43.544C281.821 43.544 281.592 43.448 281.4 43.256C281.208 43.0533 281.112 42.8187 281.112 42.552C281.112 42.2747 281.208 42.0453 281.4 41.864C281.592 41.672 281.821 41.576 282.088 41.576C282.365 41.576 282.6 41.672 282.792 41.864C282.984 42.0453 283.08 42.2747 283.08 42.552C283.08 42.8187 282.984 43.0533 282.792 43.256C282.6 43.448 282.365 43.544 282.088 43.544ZM287.572 53.16C286.868 53.16 286.207 53.0587 285.588 52.856C284.98 52.6427 284.452 52.344 284.004 51.96L284.884 50.904C285.3 51.2347 285.727 51.4907 286.164 51.672C286.612 51.8427 287.065 51.928 287.524 51.928C288.1 51.928 288.569 51.816 288.932 51.592C289.295 51.368 289.476 51.0747 289.476 50.712C289.476 50.4133 289.369 50.1787 289.156 50.008C288.943 49.8373 288.612 49.72 288.164 49.656L286.692 49.448C285.881 49.3307 285.273 49.08 284.868 48.696C284.463 48.312 284.26 47.8 284.26 47.16C284.26 46.6693 284.393 46.2427 284.66 45.88C284.927 45.5067 285.3 45.2187 285.78 45.016C286.26 44.8027 286.82 44.696 287.46 44.696C288.047 44.696 288.612 44.7813 289.156 44.952C289.7 45.1227 290.223 45.3893 290.724 45.752L289.908 46.808C289.46 46.5093 289.023 46.2907 288.596 46.152C288.18 46.0133 287.759 45.944 287.332 45.944C286.841 45.944 286.447 46.0507 286.148 46.264C285.849 46.4667 285.7 46.7333 285.7 47.064C285.7 47.3627 285.801 47.5973 286.004 47.768C286.217 47.928 286.564 48.04 287.044 48.104L288.516 48.312C289.327 48.4293 289.94 48.68 290.356 49.064C290.772 49.4373 290.98 49.944 290.98 50.584C290.98 51.0747 290.831 51.5173 290.532 51.912C290.233 52.296 289.828 52.6 289.316 52.824C288.804 53.048 288.223 53.16 287.572 53.16ZM292.21 53V41.8L293.81 41.448V45.688C294.439 45.0267 295.255 44.696 296.258 44.696C296.887 44.696 297.436 44.8293 297.906 45.096C298.386 45.3627 298.759 45.736 299.026 46.216C299.303 46.696 299.442 47.2507 299.442 47.88V53H297.842V48.152C297.842 47.512 297.66 47.0107 297.298 46.648C296.935 46.2747 296.439 46.088 295.81 46.088C295.383 46.088 294.999 46.1787 294.658 46.36C294.316 46.5413 294.034 46.8027 293.81 47.144V53H292.21ZM305.192 53.144C304.392 53.144 303.666 52.9573 303.016 52.584C302.376 52.2107 301.864 51.704 301.48 51.064C301.106 50.424 300.92 49.7093 300.92 48.92C300.92 48.1413 301.101 47.4373 301.464 46.808C301.826 46.168 302.317 45.6613 302.936 45.288C303.554 44.904 304.242 44.712 305 44.712C305.757 44.712 306.429 44.904 307.016 45.288C307.602 45.6613 308.066 46.1733 308.408 46.824C308.76 47.464 308.936 48.1893 308.936 49V49.448H302.52C302.605 49.896 302.77 50.296 303.016 50.648C303.272 51 303.592 51.2773 303.976 51.48C304.37 51.6827 304.797 51.784 305.256 51.784C305.65 51.784 306.029 51.7253 306.392 51.608C306.765 51.48 307.074 51.2987 307.32 51.064L308.344 52.072C307.864 52.4347 307.368 52.7067 306.856 52.888C306.354 53.0587 305.8 53.144 305.192 53.144ZM302.536 48.248H307.352C307.288 47.8213 307.138 47.448 306.904 47.128C306.68 46.7973 306.397 46.5413 306.056 46.36C305.725 46.168 305.362 46.072 304.968 46.072C304.562 46.072 304.189 46.1627 303.848 46.344C303.506 46.5253 303.218 46.7813 302.984 47.112C302.76 47.432 302.61 47.8107 302.536 48.248ZM314.235 53.128C313.478 53.128 312.784 52.9413 312.155 52.568C311.526 52.1947 311.03 51.6933 310.667 51.064C310.304 50.424 310.123 49.7093 310.123 48.92C310.123 48.1307 310.304 47.4213 310.667 46.792C311.04 46.1627 311.542 45.6613 312.171 45.288C312.8 44.9147 313.499 44.728 314.267 44.728C314.715 44.728 315.147 44.7973 315.563 44.936C315.979 45.0747 316.363 45.2773 316.715 45.544V41.8L318.315 41.496V53H316.731V52.216C316.038 52.824 315.206 53.128 314.235 53.128ZM314.443 51.736C314.912 51.736 315.339 51.6507 315.723 51.48C316.118 51.3093 316.448 51.064 316.715 50.744V47.08C316.448 46.7813 316.118 46.5467 315.723 46.376C315.339 46.1947 314.912 46.104 314.443 46.104C313.931 46.104 313.467 46.2267 313.051 46.472C312.635 46.7173 312.304 47.0533 312.059 47.48C311.814 47.896 311.691 48.3707 311.691 48.904C311.691 49.4373 311.814 49.9173 312.059 50.344C312.304 50.7707 312.635 51.112 313.051 51.368C313.467 51.6133 313.931 51.736 314.443 51.736ZM327.297 53.128C326.54 53.128 325.847 52.9413 325.217 52.568C324.588 52.1947 324.092 51.6933 323.729 51.064C323.367 50.424 323.185 49.7093 323.185 48.92C323.185 48.1307 323.367 47.4213 323.729 46.792C324.103 46.1627 324.604 45.6613 325.233 45.288C325.863 44.9147 326.561 44.728 327.329 44.728C327.777 44.728 328.209 44.7973 328.625 44.936C329.041 45.0747 329.425 45.2773 329.777 45.544V41.8L331.377 41.496V53H329.793V52.216C329.1 52.824 328.268 53.128 327.297 53.128ZM327.505 51.736C327.975 51.736 328.401 51.6507 328.785 51.48C329.18 51.3093 329.511 51.064 329.777 50.744V47.08C329.511 46.7813 329.18 46.5467 328.785 46.376C328.401 46.1947 327.975 46.104 327.505 46.104C326.993 46.104 326.529 46.2267 326.113 46.472C325.697 46.7173 325.367 47.0533 325.121 47.48C324.876 47.896 324.753 48.3707 324.753 48.904C324.753 49.4373 324.876 49.9173 325.121 50.344C325.367 50.7707 325.697 51.112 326.113 51.368C326.529 51.6133 326.993 51.736 327.505 51.736ZM337.176 53.144C336.376 53.144 335.651 52.9573 335 52.584C334.36 52.2107 333.848 51.704 333.464 51.064C333.091 50.424 332.904 49.7093 332.904 48.92C332.904 48.1413 333.085 47.4373 333.448 46.808C333.811 46.168 334.301 45.6613 334.92 45.288C335.539 44.904 336.227 44.712 336.984 44.712C337.741 44.712 338.413 44.904 339 45.288C339.587 45.6613 340.051 46.1733 340.392 46.824C340.744 47.464 340.92 48.1893 340.92 49V49.448H334.504C334.589 49.896 334.755 50.296 335 50.648C335.256 51 335.576 51.2773 335.96 51.48C336.355 51.6827 336.781 51.784 337.24 51.784C337.635 51.784 338.013 51.7253 338.376 51.608C338.749 51.48 339.059 51.2987 339.304 51.064L340.328 52.072C339.848 52.4347 339.352 52.7067 338.84 52.888C338.339 53.0587 337.784 53.144 337.176 53.144ZM334.52 48.248H339.336C339.272 47.8213 339.123 47.448 338.888 47.128C338.664 46.7973 338.381 46.5413 338.04 46.36C337.709 46.168 337.347 46.072 336.952 46.072C336.547 46.072 336.173 46.1627 335.832 46.344C335.491 46.5253 335.203 46.7813 334.968 47.112C334.744 47.432 334.595 47.8107 334.52 48.248ZM342.283 49.176V47.784H348.043V49.176H342.283ZM349.725 53V41.8L351.325 41.496V45.624C352.008 45.0267 352.835 44.728 353.805 44.728C354.573 44.728 355.267 44.9147 355.885 45.288C356.515 45.6613 357.011 46.1627 357.373 46.792C357.736 47.4213 357.917 48.1307 357.917 48.92C357.917 49.7093 357.731 50.424 357.357 51.064C356.995 51.6933 356.499 52.1947 355.869 52.568C355.251 52.9413 354.552 53.128 353.773 53.128C353.325 53.128 352.888 53.0587 352.461 52.92C352.045 52.7707 351.661 52.5627 351.309 52.296V53H349.725ZM353.597 51.736C354.12 51.736 354.584 51.6133 354.989 51.368C355.405 51.1227 355.736 50.792 355.981 50.376C356.227 49.9493 356.349 49.4693 356.349 48.936C356.349 48.4027 356.227 47.9227 355.981 47.496C355.736 47.0693 355.405 46.7333 354.989 46.488C354.584 46.2427 354.12 46.12 353.597 46.12C353.139 46.12 352.712 46.2053 352.317 46.376C351.923 46.5467 351.592 46.7867 351.325 47.096V50.776C351.592 51.0747 351.923 51.3093 352.317 51.48C352.723 51.6507 353.149 51.736 353.597 51.736ZM362.596 53.16C361.967 53.16 361.412 53.0267 360.932 52.76C360.452 52.4933 360.079 52.12 359.812 51.64C359.545 51.1493 359.412 50.5893 359.412 49.96V44.856H360.996V49.688C360.996 50.328 361.177 50.8347 361.54 51.208C361.913 51.5813 362.409 51.768 363.028 51.768C363.465 51.768 363.855 51.6773 364.196 51.496C364.537 51.304 364.815 51.0373 365.028 50.696V44.856H366.628V53H365.028V52.168C364.399 52.8293 363.588 53.16 362.596 53.16ZM372.554 56.424C371.957 56.424 371.375 56.3547 370.81 56.216C370.245 56.0773 369.733 55.88 369.274 55.624L369.882 54.376C370.362 54.6213 370.81 54.7973 371.226 54.904C371.653 55.0213 372.079 55.08 372.506 55.08C373.221 55.08 373.759 54.9147 374.122 54.584C374.495 54.2533 374.682 53.768 374.682 53.128V52.2C373.967 52.7653 373.151 53.048 372.234 53.048C371.487 53.048 370.799 52.8667 370.17 52.504C369.551 52.1307 369.061 51.6293 368.698 51C368.335 50.36 368.154 49.656 368.154 48.888C368.154 48.1093 368.335 47.4053 368.698 46.776C369.071 46.136 369.567 45.6347 370.186 45.272C370.815 44.8987 371.519 44.712 372.298 44.712C372.735 44.712 373.157 44.7867 373.562 44.936C373.978 45.0747 374.357 45.2773 374.698 45.544V44.856H376.282V53.128C376.282 54.184 375.957 54.9947 375.306 55.56C374.666 56.136 373.749 56.424 372.554 56.424ZM372.442 51.672C372.911 51.672 373.338 51.592 373.722 51.432C374.106 51.2613 374.426 51.0213 374.682 50.712V47.064C374.426 46.7653 374.101 46.5307 373.706 46.36C373.322 46.1893 372.901 46.104 372.442 46.104C371.93 46.104 371.466 46.2267 371.05 46.472C370.645 46.7173 370.319 47.0533 370.074 47.48C369.839 47.896 369.722 48.3653 369.722 48.888C369.722 49.4107 369.839 49.8853 370.074 50.312C370.319 50.728 370.645 51.0587 371.05 51.304C371.466 51.5493 371.93 51.672 372.442 51.672ZM382.195 56.424C381.597 56.424 381.016 56.3547 380.451 56.216C379.885 56.0773 379.373 55.88 378.915 55.624L379.523 54.376C380.003 54.6213 380.451 54.7973 380.867 54.904C381.293 55.0213 381.72 55.08 382.147 55.08C382.861 55.08 383.4 54.9147 383.763 54.584C384.136 54.2533 384.323 53.768 384.323 53.128V52.2C383.608 52.7653 382.792 53.048 381.875 53.048C381.128 53.048 380.44 52.8667 379.811 52.504C379.192 52.1307 378.701 51.6293 378.339 51C377.976 50.36 377.795 49.656 377.795 48.888C377.795 48.1093 377.976 47.4053 378.339 46.776C378.712 46.136 379.208 45.6347 379.827 45.272C380.456 44.8987 381.16 44.712 381.939 44.712C382.376 44.712 382.797 44.7867 383.203 44.936C383.619 45.0747 383.997 45.2773 384.339 45.544V44.856H385.923V53.128C385.923 54.184 385.597 54.9947 384.947 55.56C384.307 56.136 383.389 56.424 382.195 56.424ZM382.083 51.672C382.552 51.672 382.979 51.592 383.363 51.432C383.747 51.2613 384.067 51.0213 384.323 50.712V47.064C384.067 46.7653 383.741 46.5307 383.347 46.36C382.963 46.1893 382.541 46.104 382.083 46.104C381.571 46.104 381.107 46.2267 380.691 46.472C380.285 46.7173 379.96 47.0533 379.715 47.48C379.48 47.896 379.363 48.3653 379.363 48.888C379.363 49.4107 379.48 49.8853 379.715 50.312C379.96 50.728 380.285 51.0587 380.691 51.304C381.107 51.5493 381.571 51.672 382.083 51.672ZM391.707 53.144C390.907 53.144 390.182 52.9573 389.531 52.584C388.891 52.2107 388.379 51.704 387.995 51.064C387.622 50.424 387.435 49.7093 387.435 48.92C387.435 48.1413 387.617 47.4373 387.979 46.808C388.342 46.168 388.833 45.6613 389.451 45.288C390.07 44.904 390.758 44.712 391.515 44.712C392.273 44.712 392.945 44.904 393.531 45.288C394.118 45.6613 394.582 46.1733 394.923 46.824C395.275 47.464 395.451 48.1893 395.451 49V49.448H389.035C389.121 49.896 389.286 50.296 389.531 50.648C389.787 51 390.107 51.2773 390.491 51.48C390.886 51.6827 391.313 51.784 391.771 51.784C392.166 51.784 392.545 51.7253 392.907 51.608C393.281 51.48 393.59 51.2987 393.835 51.064L394.859 52.072C394.379 52.4347 393.883 52.7067 393.371 52.888C392.87 53.0587 392.315 53.144 391.707 53.144ZM389.051 48.248H393.867C393.803 47.8213 393.654 47.448 393.419 47.128C393.195 46.7973 392.913 46.5413 392.571 46.36C392.241 46.168 391.878 46.072 391.483 46.072C391.078 46.072 390.705 46.1627 390.363 46.344C390.022 46.5253 389.734 46.7813 389.499 47.112C389.275 47.432 389.126 47.8107 389.051 48.248ZM400.751 53.128C399.993 53.128 399.3 52.9413 398.671 52.568C398.041 52.1947 397.545 51.6933 397.183 51.064C396.82 50.424 396.639 49.7093 396.639 48.92C396.639 48.1307 396.82 47.4213 397.183 46.792C397.556 46.1627 398.057 45.6613 398.687 45.288C399.316 44.9147 400.015 44.728 400.783 44.728C401.231 44.728 401.663 44.7973 402.079 44.936C402.495 45.0747 402.879 45.2773 403.231 45.544V41.8L404.831 41.496V53H403.247V52.216C402.553 52.824 401.721 53.128 400.751 53.128ZM400.959 51.736C401.428 51.736 401.855 51.6507 402.239 51.48C402.633 51.3093 402.964 51.064 403.231 50.744V47.08C402.964 46.7813 402.633 46.5467 402.239 46.376C401.855 46.1947 401.428 46.104 400.959 46.104C400.447 46.104 399.983 46.2267 399.567 46.472C399.151 46.7173 398.82 47.0533 398.575 47.48C398.329 47.896 398.207 48.3707 398.207 48.904C398.207 49.4373 398.329 49.9173 398.575 50.344C398.82 50.7707 399.151 51.112 399.567 51.368C399.983 51.6133 400.447 51.736 400.959 51.736ZM413.557 53.144C412.768 53.144 412.165 52.9627 411.749 52.6C411.333 52.2267 411.125 51.688 411.125 50.984V46.2H409.397V44.856H411.125V42.776L412.709 42.392V44.856H415.109V46.2H412.709V50.616C412.709 51.032 412.8 51.3307 412.981 51.512C413.173 51.6827 413.482 51.768 413.909 51.768C414.133 51.768 414.33 51.752 414.501 51.72C414.682 51.688 414.874 51.64 415.077 51.576V52.92C414.864 52.9947 414.613 53.048 414.325 53.08C414.048 53.1227 413.792 53.144 413.557 53.144ZM416.288 53V41.8L417.888 41.448V45.688C418.517 45.0267 419.333 44.696 420.336 44.696C420.965 44.696 421.514 44.8293 421.984 45.096C422.464 45.3627 422.837 45.736 423.104 46.216C423.381 46.696 423.52 47.2507 423.52 47.88V53H421.92V48.152C421.92 47.512 421.738 47.0107 421.376 46.648C421.013 46.2747 420.517 46.088 419.888 46.088C419.461 46.088 419.077 46.1787 418.736 46.36C418.394 46.5413 418.112 46.8027 417.888 47.144V53H416.288ZM429.27 53.144C428.47 53.144 427.745 52.9573 427.094 52.584C426.454 52.2107 425.942 51.704 425.558 51.064C425.185 50.424 424.998 49.7093 424.998 48.92C424.998 48.1413 425.179 47.4373 425.542 46.808C425.905 46.168 426.395 45.6613 427.014 45.288C427.633 44.904 428.321 44.712 429.078 44.712C429.835 44.712 430.507 44.904 431.094 45.288C431.681 45.6613 432.145 46.1733 432.486 46.824C432.838 47.464 433.014 48.1893 433.014 49V49.448H426.598C426.683 49.896 426.849 50.296 427.094 50.648C427.35 51 427.67 51.2773 428.054 51.48C428.449 51.6827 428.875 51.784 429.334 51.784C429.729 51.784 430.107 51.7253 430.47 51.608C430.843 51.48 431.153 51.2987 431.398 51.064L432.422 52.072C431.942 52.4347 431.446 52.7067 430.934 52.888C430.433 53.0587 429.878 53.144 429.27 53.144ZM426.614 48.248H431.43C431.366 47.8213 431.217 47.448 430.982 47.128C430.758 46.7973 430.475 46.5413 430.134 46.36C429.803 46.168 429.441 46.072 429.046 46.072C428.641 46.072 428.267 46.1627 427.926 46.344C427.585 46.5253 427.297 46.7813 427.062 47.112C426.838 47.432 426.689 47.8107 426.614 48.248ZM437.882 56.264V44.856H439.466V45.64C440.148 45.032 440.98 44.728 441.962 44.728C442.73 44.728 443.423 44.9147 444.042 45.288C444.671 45.6613 445.167 46.1627 445.53 46.792C445.892 47.4213 446.074 48.1307 446.074 48.92C446.074 49.7093 445.887 50.424 445.514 51.064C445.151 51.6933 444.655 52.1947 444.026 52.568C443.407 52.9413 442.708 53.128 441.93 53.128C441.482 53.128 441.05 53.0587 440.634 52.92C440.218 52.7707 439.834 52.5627 439.482 52.296V56.264H437.882ZM441.754 51.736C442.276 51.736 442.74 51.6133 443.146 51.368C443.562 51.1227 443.892 50.792 444.138 50.376C444.383 49.9493 444.506 49.4693 444.506 48.936C444.506 48.4027 444.383 47.9227 444.138 47.496C443.892 47.0693 443.562 46.7333 443.146 46.488C442.74 46.2427 442.276 46.12 441.754 46.12C441.295 46.12 440.868 46.2053 440.474 46.376C440.079 46.5467 439.748 46.7867 439.482 47.096V50.776C439.748 51.0747 440.079 51.3093 440.474 51.48C440.879 51.6507 441.306 51.736 441.754 51.736ZM447.6 53V41.8L449.2 41.448V45.688C449.83 45.0267 450.646 44.696 451.648 44.696C452.278 44.696 452.827 44.8293 453.296 45.096C453.776 45.3627 454.15 45.736 454.416 46.216C454.694 46.696 454.832 47.2507 454.832 47.88V53H453.232V48.152C453.232 47.512 453.051 47.0107 452.688 46.648C452.326 46.2747 451.83 46.088 451.2 46.088C450.774 46.088 450.39 46.1787 450.048 46.36C449.707 46.5413 449.424 46.8027 449.2 47.144V53H447.6ZM460.55 53.16C459.761 53.16 459.041 52.9733 458.39 52.6C457.75 52.2267 457.244 51.72 456.87 51.08C456.497 50.44 456.31 49.7253 456.31 48.936C456.31 48.1467 456.497 47.432 456.87 46.792C457.244 46.152 457.75 45.6453 458.39 45.272C459.041 44.888 459.761 44.696 460.55 44.696C461.35 44.696 462.07 44.888 462.71 45.272C463.35 45.6453 463.857 46.152 464.23 46.792C464.604 47.432 464.79 48.1467 464.79 48.936C464.79 49.7253 464.604 50.44 464.23 51.08C463.857 51.72 463.35 52.2267 462.71 52.6C462.07 52.9733 461.35 53.16 460.55 53.16ZM460.55 51.752C461.052 51.752 461.505 51.6293 461.91 51.384C462.316 51.128 462.636 50.7867 462.87 50.36C463.105 49.9333 463.222 49.4533 463.222 48.92C463.222 48.3973 463.1 47.928 462.854 47.512C462.62 47.0853 462.3 46.744 461.894 46.488C461.5 46.232 461.052 46.104 460.55 46.104C460.049 46.104 459.596 46.232 459.19 46.488C458.796 46.744 458.476 47.0853 458.23 47.512C457.996 47.928 457.878 48.3973 457.878 48.92C457.878 49.4533 457.996 49.9333 458.23 50.36C458.465 50.7867 458.785 51.128 459.19 51.384C459.596 51.6293 460.049 51.752 460.55 51.752ZM466.303 53V44.856H467.903V45.688C468.533 45.0267 469.349 44.696 470.351 44.696C470.981 44.696 471.53 44.8293 471.999 45.096C472.479 45.3627 472.853 45.736 473.119 46.216C473.397 46.696 473.535 47.2507 473.535 47.88V53H471.935V48.152C471.935 47.512 471.754 47.0107 471.391 46.648C471.039 46.2747 470.543 46.088 469.903 46.088C469.477 46.088 469.093 46.1787 468.751 46.36C468.41 46.5413 468.127 46.8027 467.903 47.144V53H466.303ZM479.286 53.144C478.486 53.144 477.76 52.9573 477.11 52.584C476.47 52.2107 475.958 51.704 475.574 51.064C475.2 50.424 475.014 49.7093 475.014 48.92C475.014 48.1413 475.195 47.4373 475.558 46.808C475.92 46.168 476.411 45.6613 477.03 45.288C477.648 44.904 478.336 44.712 479.094 44.712C479.851 44.712 480.523 44.904 481.11 45.288C481.696 45.6613 482.16 46.1733 482.502 46.824C482.854 47.464 483.03 48.1893 483.03 49V49.448H476.614C476.699 49.896 476.864 50.296 477.11 50.648C477.366 51 477.686 51.2773 478.07 51.48C478.464 51.6827 478.891 51.784 479.35 51.784C479.744 51.784 480.123 51.7253 480.486 51.608C480.859 51.48 481.168 51.2987 481.414 51.064L482.438 52.072C481.958 52.4347 481.462 52.7067 480.95 52.888C480.448 53.0587 479.894 53.144 479.286 53.144ZM476.63 48.248H481.446C481.382 47.8213 481.232 47.448 480.998 47.128C480.774 46.7973 480.491 46.5413 480.15 46.36C479.819 46.168 479.456 46.072 479.062 46.072C478.656 46.072 478.283 46.1627 477.942 46.344C477.6 46.5253 477.312 46.7813 477.078 47.112C476.854 47.432 476.704 47.8107 476.63 48.248ZM109.52 77.144C108.933 77.144 108.416 77.0427 107.968 76.84C107.52 76.6267 107.168 76.3333 106.912 75.96C106.656 75.5867 106.528 75.1547 106.528 74.664C106.528 73.896 106.821 73.2933 107.408 72.856C107.995 72.408 108.8 72.184 109.824 72.184C110.624 72.184 111.365 72.3387 112.048 72.648V71.784C112.048 71.1973 111.877 70.76 111.536 70.472C111.205 70.184 110.715 70.04 110.064 70.04C109.691 70.04 109.301 70.0987 108.896 70.216C108.491 70.3227 108.037 70.4933 107.536 70.728L106.944 69.528C107.563 69.24 108.139 69.032 108.672 68.904C109.205 68.7653 109.744 68.696 110.288 68.696C111.344 68.696 112.16 68.9467 112.736 69.448C113.323 69.9493 113.616 70.664 113.616 71.592V77H112.048V76.296C111.685 76.584 111.296 76.7973 110.88 76.936C110.464 77.0747 110.011 77.144 109.52 77.144ZM108.064 74.632C108.064 75.0267 108.229 75.3467 108.56 75.592C108.901 75.8373 109.344 75.96 109.888 75.96C110.315 75.96 110.704 75.896 111.056 75.768C111.419 75.64 111.749 75.4427 112.048 75.176V73.8C111.739 73.6187 111.413 73.4907 111.072 73.416C110.741 73.3307 110.368 73.288 109.952 73.288C109.365 73.288 108.901 73.4107 108.56 73.656C108.229 73.8907 108.064 74.216 108.064 74.632ZM115.46 77V68.856H117.06V69.688C117.689 69.0267 118.505 68.696 119.508 68.696C120.137 68.696 120.686 68.8293 121.156 69.096C121.636 69.3627 122.009 69.736 122.276 70.216C122.553 70.696 122.692 71.2507 122.692 71.88V77H121.092V72.152C121.092 71.512 120.91 71.0107 120.548 70.648C120.196 70.2747 119.7 70.088 119.06 70.088C118.633 70.088 118.249 70.1787 117.908 70.36C117.566 70.5413 117.284 70.8027 117.06 71.144V77H115.46ZM128.282 77.128C127.524 77.128 126.831 76.9413 126.202 76.568C125.572 76.1947 125.076 75.6933 124.714 75.064C124.351 74.424 124.17 73.7093 124.17 72.92C124.17 72.1307 124.351 71.4213 124.714 70.792C125.087 70.1627 125.588 69.6613 126.218 69.288C126.847 68.9147 127.546 68.728 128.314 68.728C128.762 68.728 129.194 68.7973 129.61 68.936C130.026 69.0747 130.41 69.2773 130.762 69.544V65.8L132.362 65.496V77H130.778V76.216C130.084 76.824 129.252 77.128 128.282 77.128ZM128.49 75.736C128.959 75.736 129.386 75.6507 129.77 75.48C130.164 75.3093 130.495 75.064 130.762 74.744V71.08C130.495 70.7813 130.164 70.5467 129.77 70.376C129.386 70.1947 128.959 70.104 128.49 70.104C127.978 70.104 127.514 70.2267 127.098 70.472C126.682 70.7173 126.351 71.0533 126.106 71.48C125.86 71.896 125.738 72.3707 125.738 72.904C125.738 73.4373 125.86 73.9173 126.106 74.344C126.351 74.7707 126.682 75.112 127.098 75.368C127.514 75.6133 127.978 75.736 128.49 75.736ZM138.816 77V70.2H136.928V68.856H138.816V67.624C138.816 66.7707 139.051 66.12 139.52 65.672C140 65.224 140.683 65 141.568 65C141.792 65 142 65.016 142.192 65.048C142.395 65.0693 142.576 65.1067 142.736 65.16V66.536C142.544 66.4827 142.374 66.4453 142.224 66.424C142.075 66.392 141.91 66.376 141.728 66.376C141.28 66.376 140.944 66.4827 140.72 66.696C140.507 66.8987 140.4 67.224 140.4 67.672V68.856H142.736V70.2H140.4V77H138.816ZM143.96 77V68.856H145.56V77H143.96ZM144.76 67.544C144.493 67.544 144.264 67.448 144.072 67.256C143.88 67.0533 143.784 66.8187 143.784 66.552C143.784 66.2747 143.88 66.0453 144.072 65.864C144.264 65.672 144.493 65.576 144.76 65.576C145.037 65.576 145.272 65.672 145.464 65.864C145.656 66.0453 145.752 66.2747 145.752 66.552C145.752 66.8187 145.656 67.0533 145.464 67.256C145.272 67.448 145.037 67.544 144.76 67.544ZM147.444 77V68.856H149.044V69.688C149.673 69.0267 150.489 68.696 151.492 68.696C152.121 68.696 152.671 68.8293 153.14 69.096C153.62 69.3627 153.993 69.736 154.26 70.216C154.537 70.696 154.676 71.2507 154.676 71.88V77H153.076V72.152C153.076 71.512 152.895 71.0107 152.532 70.648C152.18 70.2747 151.684 70.088 151.044 70.088C150.617 70.088 150.233 70.1787 149.892 70.36C149.551 70.5413 149.268 70.8027 149.044 71.144V77H147.444ZM159.098 77.144C158.511 77.144 157.994 77.0427 157.546 76.84C157.098 76.6267 156.746 76.3333 156.49 75.96C156.234 75.5867 156.106 75.1547 156.106 74.664C156.106 73.896 156.399 73.2933 156.986 72.856C157.573 72.408 158.378 72.184 159.402 72.184C160.202 72.184 160.943 72.3387 161.626 72.648V71.784C161.626 71.1973 161.455 70.76 161.114 70.472C160.783 70.184 160.293 70.04 159.642 70.04C159.269 70.04 158.879 70.0987 158.474 70.216C158.069 70.3227 157.615 70.4933 157.114 70.728L156.522 69.528C157.141 69.24 157.717 69.032 158.25 68.904C158.783 68.7653 159.322 68.696 159.866 68.696C160.922 68.696 161.738 68.9467 162.314 69.448C162.901 69.9493 163.194 70.664 163.194 71.592V77H161.626V76.296C161.263 76.584 160.874 76.7973 160.458 76.936C160.042 77.0747 159.589 77.144 159.098 77.144ZM157.642 74.632C157.642 75.0267 157.807 75.3467 158.138 75.592C158.479 75.8373 158.922 75.96 159.466 75.96C159.893 75.96 160.282 75.896 160.634 75.768C160.997 75.64 161.327 75.4427 161.626 75.176V73.8C161.317 73.6187 160.991 73.4907 160.65 73.416C160.319 73.3307 159.946 73.288 159.53 73.288C158.943 73.288 158.479 73.4107 158.138 73.656C157.807 73.8907 157.642 74.216 157.642 74.632ZM165.038 77V65.8L166.638 65.496V77H165.038ZM169.066 80.44C168.895 80.44 168.735 80.4293 168.586 80.408C168.437 80.3973 168.314 80.376 168.218 80.344V78.936C168.41 78.9787 168.645 79 168.922 79C169.669 79 170.207 78.6 170.538 77.8L170.89 77.016L167.626 68.856H169.402L171.77 75.064L174.394 68.856H176.122L172.186 78.008C171.93 78.584 171.658 79.048 171.37 79.4C171.082 79.7627 170.751 80.024 170.378 80.184C170.005 80.3547 169.567 80.44 169.066 80.44ZM184.284 77.144C183.505 77.144 182.796 76.9573 182.156 76.584C181.516 76.2107 181.009 75.704 180.636 75.064C180.273 74.424 180.092 73.7093 180.092 72.92C180.092 72.1307 180.278 71.4213 180.652 70.792C181.025 70.152 181.526 69.6453 182.156 69.272C182.796 68.888 183.505 68.696 184.284 68.696C184.902 68.696 185.494 68.8133 186.06 69.048C186.636 69.2827 187.132 69.6133 187.548 70.04L186.556 71.144C186.246 70.8027 185.9 70.5467 185.516 70.376C185.132 70.2053 184.732 70.12 184.316 70.12C183.825 70.12 183.377 70.2427 182.972 70.488C182.577 70.7333 182.262 71.0693 182.028 71.496C181.793 71.9227 181.676 72.3973 181.676 72.92C181.676 73.4427 181.793 73.9173 182.028 74.344C182.262 74.7707 182.582 75.112 182.988 75.368C183.393 75.6133 183.846 75.736 184.348 75.736C184.764 75.736 185.153 75.656 185.516 75.496C185.878 75.3253 186.22 75.08 186.54 74.76L187.516 75.784C187.089 76.2213 186.593 76.5573 186.028 76.792C185.473 77.0267 184.892 77.144 184.284 77.144ZM191.379 77.144C190.793 77.144 190.275 77.0427 189.827 76.84C189.379 76.6267 189.027 76.3333 188.771 75.96C188.515 75.5867 188.387 75.1547 188.387 74.664C188.387 73.896 188.681 73.2933 189.267 72.856C189.854 72.408 190.659 72.184 191.683 72.184C192.483 72.184 193.225 72.3387 193.907 72.648V71.784C193.907 71.1973 193.737 70.76 193.395 70.472C193.065 70.184 192.574 70.04 191.923 70.04C191.55 70.04 191.161 70.0987 190.755 70.216C190.35 70.3227 189.897 70.4933 189.395 70.728L188.803 69.528C189.422 69.24 189.998 69.032 190.531 68.904C191.065 68.7653 191.603 68.696 192.147 68.696C193.203 68.696 194.019 68.9467 194.595 69.448C195.182 69.9493 195.475 70.664 195.475 71.592V77H193.907V76.296C193.545 76.584 193.155 76.7973 192.739 76.936C192.323 77.0747 191.87 77.144 191.379 77.144ZM189.923 74.632C189.923 75.0267 190.089 75.3467 190.419 75.592C190.761 75.8373 191.203 75.96 191.747 75.96C192.174 75.96 192.563 75.896 192.915 75.768C193.278 75.64 193.609 75.4427 193.907 75.176V73.8C193.598 73.6187 193.273 73.4907 192.931 73.416C192.601 73.3307 192.227 73.288 191.811 73.288C191.225 73.288 190.761 73.4107 190.419 73.656C190.089 73.8907 189.923 74.216 189.923 74.632ZM197.319 77V68.856H198.919V69.688C199.548 69.0267 200.364 68.696 201.367 68.696C201.996 68.696 202.546 68.8293 203.015 69.096C203.495 69.3627 203.868 69.736 204.135 70.216C204.412 70.696 204.551 71.2507 204.551 71.88V77H202.951V72.152C202.951 71.512 202.77 71.0107 202.407 70.648C202.055 70.2747 201.559 70.088 200.919 70.088C200.492 70.088 200.108 70.1787 199.767 70.36C199.426 70.5413 199.143 70.8027 198.919 71.144V77H197.319ZM213.229 77.144C212.44 77.144 211.837 76.9627 211.421 76.6C211.005 76.2267 210.797 75.688 210.797 74.984V70.2H209.069V68.856H210.797V66.776L212.381 66.392V68.856H214.781V70.2H212.381V74.616C212.381 75.032 212.472 75.3307 212.653 75.512C212.845 75.6827 213.154 75.768 213.581 75.768C213.805 75.768 214.002 75.752 214.173 75.72C214.354 75.688 214.546 75.64 214.749 75.576V76.92C214.536 76.9947 214.285 77.048 213.997 77.08C213.72 77.1227 213.464 77.144 213.229 77.144ZM215.96 77V68.856H217.56V69.896C217.816 69.512 218.13 69.2133 218.504 69C218.888 68.776 219.32 68.664 219.8 68.664C220.13 68.6747 220.402 68.7227 220.616 68.808V70.248C220.466 70.184 220.312 70.1413 220.152 70.12C219.992 70.088 219.832 70.072 219.672 70.072C219.202 70.072 218.786 70.2 218.424 70.456C218.061 70.7013 217.773 71.064 217.56 71.544V77H215.96ZM224.145 77.144C223.558 77.144 223.041 77.0427 222.593 76.84C222.145 76.6267 221.793 76.3333 221.537 75.96C221.281 75.5867 221.153 75.1547 221.153 74.664C221.153 73.896 221.446 73.2933 222.033 72.856C222.62 72.408 223.425 72.184 224.449 72.184C225.249 72.184 225.99 72.3387 226.673 72.648V71.784C226.673 71.1973 226.502 70.76 226.161 70.472C225.83 70.184 225.34 70.04 224.689 70.04C224.316 70.04 223.926 70.0987 223.521 70.216C223.116 70.3227 222.662 70.4933 222.161 70.728L221.569 69.528C222.188 69.24 222.764 69.032 223.297 68.904C223.83 68.7653 224.369 68.696 224.913 68.696C225.969 68.696 226.785 68.9467 227.361 69.448C227.948 69.9493 228.241 70.664 228.241 71.592V77H226.673V76.296C226.31 76.584 225.921 76.7973 225.505 76.936C225.089 77.0747 224.636 77.144 224.145 77.144ZM222.689 74.632C222.689 75.0267 222.854 75.3467 223.185 75.592C223.526 75.8373 223.969 75.96 224.513 75.96C224.94 75.96 225.329 75.896 225.681 75.768C226.044 75.64 226.374 75.4427 226.673 75.176V73.8C226.364 73.6187 226.038 73.4907 225.697 73.416C225.366 73.3307 224.993 73.288 224.577 73.288C223.99 73.288 223.526 73.4107 223.185 73.656C222.854 73.8907 222.689 74.216 222.689 74.632ZM230.085 77V68.856H231.685V69.688C232.314 69.0267 233.13 68.696 234.133 68.696C234.762 68.696 235.311 68.8293 235.781 69.096C236.261 69.3627 236.634 69.736 236.901 70.216C237.178 70.696 237.317 71.2507 237.317 71.88V77H235.717V72.152C235.717 71.512 235.535 71.0107 235.173 70.648C234.821 70.2747 234.325 70.088 233.685 70.088C233.258 70.088 232.874 70.1787 232.533 70.36C232.191 70.5413 231.909 70.8027 231.685 71.144V77H230.085ZM241.963 77.16C241.259 77.16 240.597 77.0587 239.979 76.856C239.371 76.6427 238.843 76.344 238.395 75.96L239.275 74.904C239.691 75.2347 240.117 75.4907 240.555 75.672C241.003 75.8427 241.456 75.928 241.915 75.928C242.491 75.928 242.96 75.816 243.323 75.592C243.685 75.368 243.867 75.0747 243.867 74.712C243.867 74.4133 243.76 74.1787 243.547 74.008C243.333 73.8373 243.003 73.72 242.555 73.656L241.083 73.448C240.272 73.3307 239.664 73.08 239.259 72.696C238.853 72.312 238.651 71.8 238.651 71.16C238.651 70.6693 238.784 70.2427 239.051 69.88C239.317 69.5067 239.691 69.2187 240.171 69.016C240.651 68.8027 241.211 68.696 241.851 68.696C242.437 68.696 243.003 68.7813 243.547 68.952C244.091 69.1227 244.613 69.3893 245.115 69.752L244.299 70.808C243.851 70.5093 243.413 70.2907 242.987 70.152C242.571 70.0133 242.149 69.944 241.723 69.944C241.232 69.944 240.837 70.0507 240.539 70.264C240.24 70.4667 240.091 70.7333 240.091 71.064C240.091 71.3627 240.192 71.5973 240.395 71.768C240.608 71.928 240.955 72.04 241.435 72.104L242.907 72.312C243.717 72.4293 244.331 72.68 244.747 73.064C245.163 73.4373 245.371 73.944 245.371 74.584C245.371 75.0747 245.221 75.5173 244.923 75.912C244.624 76.296 244.219 76.6 243.707 76.824C243.195 77.048 242.613 77.16 241.963 77.16ZM247.66 77V70.2H245.772V68.856H247.66V67.624C247.66 66.7707 247.895 66.12 248.364 65.672C248.844 65.224 249.527 65 250.412 65C250.636 65 250.844 65.016 251.036 65.048C251.239 65.0693 251.42 65.1067 251.58 65.16V66.536C251.388 66.4827 251.217 66.4453 251.068 66.424C250.919 66.392 250.753 66.376 250.572 66.376C250.124 66.376 249.788 66.4827 249.564 66.696C249.351 66.8987 249.244 67.224 249.244 67.672V68.856H251.58V70.2H249.244V77H247.66ZM256.332 77.144C255.532 77.144 254.807 76.9573 254.156 76.584C253.516 76.2107 253.004 75.704 252.62 75.064C252.247 74.424 252.06 73.7093 252.06 72.92C252.06 72.1413 252.242 71.4373 252.604 70.808C252.967 70.168 253.458 69.6613 254.076 69.288C254.695 68.904 255.383 68.712 256.14 68.712C256.898 68.712 257.57 68.904 258.156 69.288C258.743 69.6613 259.207 70.1733 259.548 70.824C259.9 71.464 260.076 72.1893 260.076 73V73.448H253.66C253.746 73.896 253.911 74.296 254.156 74.648C254.412 75 254.732 75.2773 255.116 75.48C255.511 75.6827 255.938 75.784 256.396 75.784C256.791 75.784 257.17 75.7253 257.532 75.608C257.906 75.48 258.215 75.2987 258.46 75.064L259.484 76.072C259.004 76.4347 258.508 76.7067 257.996 76.888C257.495 77.0587 256.94 77.144 256.332 77.144ZM253.676 72.248H258.492C258.428 71.8213 258.279 71.448 258.044 71.128C257.82 70.7973 257.538 70.5413 257.196 70.36C256.866 70.168 256.503 70.072 256.108 70.072C255.703 70.072 255.33 70.1627 254.988 70.344C254.647 70.5253 254.359 70.7813 254.124 71.112C253.9 71.432 253.751 71.8107 253.676 72.248ZM261.6 77V68.856H263.2V69.896C263.456 69.512 263.771 69.2133 264.144 69C264.528 68.776 264.96 68.664 265.44 68.664C265.771 68.6747 266.043 68.7227 266.256 68.808V70.248C266.107 70.184 265.952 70.1413 265.792 70.12C265.632 70.088 265.472 70.072 265.312 70.072C264.843 70.072 264.427 70.2 264.064 70.456C263.702 70.7013 263.414 71.064 263.2 71.544V77H261.6ZM270.882 77V68.856H272.482V69.64C273.09 69.0107 273.852 68.696 274.77 68.696C275.324 68.696 275.815 68.8187 276.242 69.064C276.679 69.3093 277.026 69.64 277.282 70.056C277.623 69.608 278.023 69.272 278.482 69.048C278.94 68.8133 279.458 68.696 280.034 68.696C280.642 68.696 281.17 68.8293 281.618 69.096C282.076 69.3627 282.434 69.736 282.69 70.216C282.956 70.696 283.09 71.2507 283.09 71.88V77H281.49V72.152C281.49 71.512 281.319 71.0107 280.978 70.648C280.647 70.2747 280.194 70.088 279.618 70.088C279.223 70.088 278.866 70.1787 278.546 70.36C278.226 70.5413 277.948 70.8187 277.714 71.192C277.735 71.2987 277.751 71.4107 277.762 71.528C277.772 71.6453 277.778 71.7627 277.778 71.88V77H276.194V72.152C276.194 71.512 276.023 71.0107 275.682 70.648C275.351 70.2747 274.898 70.088 274.322 70.088C273.938 70.088 273.591 70.1733 273.282 70.344C272.972 70.504 272.706 70.7493 272.482 71.08V77H270.882ZM288.8 77.16C288.011 77.16 287.291 76.9733 286.64 76.6C286 76.2267 285.494 75.72 285.12 75.08C284.747 74.44 284.56 73.7253 284.56 72.936C284.56 72.1467 284.747 71.432 285.12 70.792C285.494 70.152 286 69.6453 286.64 69.272C287.291 68.888 288.011 68.696 288.8 68.696C289.6 68.696 290.32 68.888 290.96 69.272C291.6 69.6453 292.107 70.152 292.48 70.792C292.854 71.432 293.04 72.1467 293.04 72.936C293.04 73.7253 292.854 74.44 292.48 75.08C292.107 75.72 291.6 76.2267 290.96 76.6C290.32 76.9733 289.6 77.16 288.8 77.16ZM288.8 75.752C289.302 75.752 289.755 75.6293 290.16 75.384C290.566 75.128 290.886 74.7867 291.12 74.36C291.355 73.9333 291.472 73.4533 291.472 72.92C291.472 72.3973 291.35 71.928 291.104 71.512C290.87 71.0853 290.55 70.744 290.144 70.488C289.75 70.232 289.302 70.104 288.8 70.104C288.299 70.104 287.846 70.232 287.44 70.488C287.046 70.744 286.726 71.0853 286.48 71.512C286.246 71.928 286.128 72.3973 286.128 72.92C286.128 73.4533 286.246 73.9333 286.48 74.36C286.715 74.7867 287.035 75.128 287.44 75.384C287.846 75.6293 288.299 75.752 288.8 75.752ZM294.553 77V68.856H296.153V69.688C296.783 69.0267 297.599 68.696 298.601 68.696C299.231 68.696 299.78 68.8293 300.249 69.096C300.729 69.3627 301.103 69.736 301.369 70.216C301.647 70.696 301.785 71.2507 301.785 71.88V77H300.185V72.152C300.185 71.512 300.004 71.0107 299.641 70.648C299.289 70.2747 298.793 70.088 298.153 70.088C297.727 70.088 297.343 70.1787 297.001 70.36C296.66 70.5413 296.377 70.8027 296.153 71.144V77H294.553ZM307.536 77.144C306.736 77.144 306.01 76.9573 305.36 76.584C304.72 76.2107 304.208 75.704 303.824 75.064C303.45 74.424 303.264 73.7093 303.264 72.92C303.264 72.1413 303.445 71.4373 303.808 70.808C304.17 70.168 304.661 69.6613 305.28 69.288C305.898 68.904 306.586 68.712 307.344 68.712C308.101 68.712 308.773 68.904 309.36 69.288C309.946 69.6613 310.41 70.1733 310.752 70.824C311.104 71.464 311.28 72.1893 311.28 73V73.448H304.864C304.949 73.896 305.114 74.296 305.36 74.648C305.616 75 305.936 75.2773 306.32 75.48C306.714 75.6827 307.141 75.784 307.6 75.784C307.994 75.784 308.373 75.7253 308.736 75.608C309.109 75.48 309.418 75.2987 309.664 75.064L310.688 76.072C310.208 76.4347 309.712 76.7067 309.2 76.888C308.698 77.0587 308.144 77.144 307.536 77.144ZM304.88 72.248H309.696C309.632 71.8213 309.482 71.448 309.248 71.128C309.024 70.7973 308.741 70.5413 308.4 70.36C308.069 70.168 307.706 70.072 307.312 70.072C306.906 70.072 306.533 70.1627 306.192 70.344C305.85 70.5253 305.562 70.7813 305.328 71.112C305.104 71.432 304.954 71.8107 304.88 72.248ZM313.113 80.44C312.942 80.44 312.782 80.4293 312.633 80.408C312.484 80.3973 312.361 80.376 312.265 80.344V78.936C312.457 78.9787 312.692 79 312.969 79C313.716 79 314.254 78.6 314.585 77.8L314.937 77.016L311.673 68.856H313.449L315.817 75.064L318.441 68.856H320.169L316.233 78.008C315.977 78.584 315.705 79.048 315.417 79.4C315.129 79.7627 314.798 80.024 314.425 80.184C314.052 80.3547 313.614 80.44 313.113 80.44ZM327.995 77.144C327.205 77.144 326.603 76.9627 326.187 76.6C325.771 76.2267 325.562 75.688 325.562 74.984V70.2H323.835V68.856H325.562V66.776L327.147 66.392V68.856H329.547V70.2H327.147V74.616C327.147 75.032 327.237 75.3307 327.419 75.512C327.611 75.6827 327.92 75.768 328.347 75.768C328.571 75.768 328.768 75.752 328.939 75.72C329.12 75.688 329.312 75.64 329.515 75.576V76.92C329.301 76.9947 329.051 77.048 328.763 77.08C328.485 77.1227 328.229 77.144 327.995 77.144ZM334.472 77.16C333.683 77.16 332.963 76.9733 332.312 76.6C331.672 76.2267 331.166 75.72 330.792 75.08C330.419 74.44 330.232 73.7253 330.232 72.936C330.232 72.1467 330.419 71.432 330.792 70.792C331.166 70.152 331.672 69.6453 332.312 69.272C332.963 68.888 333.683 68.696 334.472 68.696C335.272 68.696 335.992 68.888 336.632 69.272C337.272 69.6453 337.779 70.152 338.152 70.792C338.526 71.432 338.712 72.1467 338.712 72.936C338.712 73.7253 338.526 74.44 338.152 75.08C337.779 75.72 337.272 76.2267 336.632 76.6C335.992 76.9733 335.272 77.16 334.472 77.16ZM334.472 75.752C334.974 75.752 335.427 75.6293 335.832 75.384C336.238 75.128 336.558 74.7867 336.792 74.36C337.027 73.9333 337.144 73.4533 337.144 72.92C337.144 72.3973 337.022 71.928 336.776 71.512C336.542 71.0853 336.222 70.744 335.816 70.488C335.422 70.232 334.974 70.104 334.472 70.104C333.971 70.104 333.518 70.232 333.112 70.488C332.718 70.744 332.398 71.0853 332.152 71.512C331.918 71.928 331.8 72.3973 331.8 72.92C331.8 73.4533 331.918 73.9333 332.152 74.36C332.387 74.7867 332.707 75.128 333.112 75.384C333.518 75.6293 333.971 75.752 334.472 75.752ZM344.113 80.44C343.942 80.44 343.782 80.4293 343.633 80.408C343.484 80.3973 343.361 80.376 343.265 80.344V78.936C343.457 78.9787 343.692 79 343.969 79C344.716 79 345.254 78.6 345.585 77.8L345.937 77.016L342.673 68.856H344.449L346.817 75.064L349.441 68.856H351.169L347.233 78.008C346.977 78.584 346.705 79.048 346.417 79.4C346.129 79.7627 345.798 80.024 345.425 80.184C345.052 80.3547 344.614 80.44 344.113 80.44ZM355.8 77.16C355.011 77.16 354.291 76.9733 353.64 76.6C353 76.2267 352.494 75.72 352.12 75.08C351.747 74.44 351.56 73.7253 351.56 72.936C351.56 72.1467 351.747 71.432 352.12 70.792C352.494 70.152 353 69.6453 353.64 69.272C354.291 68.888 355.011 68.696 355.8 68.696C356.6 68.696 357.32 68.888 357.96 69.272C358.6 69.6453 359.107 70.152 359.48 70.792C359.854 71.432 360.04 72.1467 360.04 72.936C360.04 73.7253 359.854 74.44 359.48 75.08C359.107 75.72 358.6 76.2267 357.96 76.6C357.32 76.9733 356.6 77.16 355.8 77.16ZM355.8 75.752C356.302 75.752 356.755 75.6293 357.16 75.384C357.566 75.128 357.886 74.7867 358.12 74.36C358.355 73.9333 358.472 73.4533 358.472 72.92C358.472 72.3973 358.35 71.928 358.104 71.512C357.87 71.0853 357.55 70.744 357.144 70.488C356.75 70.232 356.302 70.104 355.8 70.104C355.299 70.104 354.846 70.232 354.44 70.488C354.046 70.744 353.726 71.0853 353.48 71.512C353.246 71.928 353.128 72.3973 353.128 72.92C353.128 73.4533 353.246 73.9333 353.48 74.36C353.715 74.7867 354.035 75.128 354.44 75.384C354.846 75.6293 355.299 75.752 355.8 75.752ZM364.705 77.16C364.076 77.16 363.521 77.0267 363.041 76.76C362.561 76.4933 362.188 76.12 361.921 75.64C361.655 75.1493 361.521 74.5893 361.521 73.96V68.856H363.105V73.688C363.105 74.328 363.287 74.8347 363.649 75.208C364.023 75.5813 364.519 75.768 365.137 75.768C365.575 75.768 365.964 75.6773 366.305 75.496C366.647 75.304 366.924 75.0373 367.137 74.696V68.856H368.737V77H367.137V76.168C366.508 76.8293 365.697 77.16 364.705 77.16ZM371.688 77.112C371.41 77.112 371.17 77.016 370.968 76.824C370.776 76.6213 370.68 76.3813 370.68 76.104C370.68 75.8267 370.776 75.592 370.968 75.4C371.17 75.1973 371.41 75.096 371.688 75.096C371.965 75.096 372.2 75.1973 372.392 75.4C372.594 75.592 372.696 75.8267 372.696 76.104C372.696 76.3813 372.594 76.6213 372.392 76.824C372.2 77.016 371.965 77.112 371.688 77.112Z" fill="#1C2027"/>
<circle cx="70" cy="62" r="26" fill="#1C2027"/>
<path d="M58.511 52.7144H65.5741C65.7749 52.7144 65.9614 52.8187 66.068 52.9907C67.8644 55.8898 71.3697 61.4775 72.1829 62.7432C73.0072 64.0265 73.8832 63.3453 74.1923 62.8383L78.8393 55.326C79.0818 54.9339 78.8029 54.4254 78.3455 54.4254H75.5002C75.296 54.4254 75.1068 54.5334 75.0015 54.7101L72.5288 58.8539C72.3147 59.2125 71.809 59.2369 71.5622 58.9004L71.1323 58.3141C70.9891 58.1189 70.9794 57.8548 71.1078 57.6494L74.021 52.9886C74.1277 52.8179 74.3135 52.7144 74.5133 52.7144H81.4888C81.9349 52.7144 82.215 53.2003 81.9927 53.5913C80.2439 56.6683 77.11 61.9851 75.4289 64.1216C73.574 66.4791 71.8737 65.405 70.9978 64.3117L64.9863 54.6995C64.8795 54.5289 64.6937 54.4254 64.494 54.4254H61.8009C61.3423 54.4254 61.0636 54.9363 61.3085 55.3283L69.5891 68.5799C69.8149 68.9411 70.3342 68.9466 70.5673 68.5902L71.646 66.9413C71.7777 66.74 71.7626 66.5583 71.9884 66.6368C72.4549 66.7992 73.2901 67.6298 73.0276 68.052L70.6105 71.939C70.3832 72.3044 69.8571 72.3065 69.6269 71.9431L58.0206 53.6202C57.7724 53.2285 58.0508 52.7144 58.511 52.7144Z" fill="#FFFEFF"/>
</g>
<defs>
<linearGradient id="paint0_linear_1_5660" x1="263" y1="59" x2="263" y2="162.5" gradientUnits="userSpaceOnUse">
<stop stop-color="#FFFEFF" stop-opacity="0"/>
<stop offset="1" stop-color="#FFFEFF"/>
</linearGradient>
<clipPath id="clip0_1_5660">
<rect width="526" height="197" fill="white"/>
</clipPath>
</defs>
</svg>
