<svg width="526" height="197" viewBox="0 0 526 197" fill="none" xmlns="http://www.w3.org/2000/svg">
<g clip-path="url(#clip0_1_5657)">
<path d="M26.5 34C26.5 25.4396 33.4396 18.5 42 18.5H484C492.56 18.5 499.5 25.4396 499.5 34V196.5H26.5V34Z" stroke="#1C2027"/>
<rect y="59" width="526" height="168" fill="url(#paint0_linear_1_5657)"/>
<path d="M108.044 109V100.278L106.392 101.006V100.068L108.408 99.2H109.066V109H108.044ZM111.013 109V108.258L114.933 103.974C115.241 103.638 115.479 103.344 115.647 103.092C115.824 102.831 115.946 102.588 116.011 102.364C116.086 102.14 116.123 101.902 116.123 101.65C116.123 101.155 115.927 100.749 115.535 100.432C115.152 100.105 114.662 99.942 114.065 99.942C113.608 99.942 113.183 100.031 112.791 100.208C112.399 100.385 111.96 100.693 111.475 101.132L110.887 100.432C111.4 99.9653 111.918 99.62 112.441 99.396C112.964 99.1627 113.51 99.046 114.079 99.046C114.667 99.046 115.19 99.158 115.647 99.382C116.104 99.5967 116.464 99.8953 116.725 100.278C116.986 100.661 117.117 101.099 117.117 101.594C117.117 101.921 117.075 102.224 116.991 102.504C116.907 102.775 116.758 103.069 116.543 103.386C116.328 103.694 116.02 104.067 115.619 104.506L112.273 108.132L117.327 108.118V109H111.013ZM122.561 109V99.2H124.073L127.419 106.158L130.751 99.2H132.263V109H131.241V100.432L127.405 108.3L123.569 100.446V109H122.561ZM136.573 109.126C136.06 109.126 135.607 109.037 135.215 108.86C134.833 108.683 134.529 108.435 134.305 108.118C134.091 107.801 133.983 107.432 133.983 107.012C133.983 106.349 134.235 105.827 134.739 105.444C135.243 105.061 135.925 104.87 136.783 104.87C137.539 104.87 138.225 105.029 138.841 105.346V104.422C138.841 103.862 138.683 103.442 138.365 103.162C138.048 102.873 137.586 102.728 136.979 102.728C136.634 102.728 136.284 102.779 135.929 102.882C135.584 102.975 135.201 103.129 134.781 103.344L134.389 102.546C134.893 102.303 135.36 102.126 135.789 102.014C136.219 101.902 136.648 101.846 137.077 101.846C137.964 101.846 138.645 102.056 139.121 102.476C139.607 102.896 139.849 103.498 139.849 104.282V109H138.841V108.314C138.524 108.585 138.174 108.79 137.791 108.93C137.418 109.061 137.012 109.126 136.573 109.126ZM134.977 106.984C134.977 107.376 135.141 107.698 135.467 107.95C135.803 108.193 136.233 108.314 136.755 108.314C137.175 108.314 137.558 108.249 137.903 108.118C138.249 107.987 138.561 107.782 138.841 107.502V106.186C138.552 105.99 138.244 105.85 137.917 105.766C137.591 105.673 137.222 105.626 136.811 105.626C136.251 105.626 135.803 105.752 135.467 106.004C135.141 106.247 134.977 106.573 134.977 106.984ZM141.86 109V101.986H142.896V102.98C143.111 102.616 143.381 102.336 143.708 102.14C144.044 101.935 144.427 101.832 144.856 101.832C145.099 101.832 145.318 101.865 145.514 101.93V102.882C145.393 102.835 145.271 102.803 145.15 102.784C145.029 102.765 144.907 102.756 144.786 102.756C144.357 102.756 143.979 102.882 143.652 103.134C143.335 103.377 143.083 103.731 142.896 104.198V109H141.86ZM146.659 109.084C146.463 109.084 146.295 109.014 146.155 108.874C146.015 108.734 145.945 108.566 145.945 108.37C145.945 108.174 146.015 108.006 146.155 107.866C146.295 107.726 146.463 107.656 146.659 107.656C146.855 107.656 147.023 107.726 147.163 107.866C147.303 108.006 147.373 108.174 147.373 108.37C147.373 108.566 147.303 108.734 147.163 108.874C147.023 109.014 146.855 109.084 146.659 109.084ZM152.662 109V108.258L156.582 103.974C156.89 103.638 157.128 103.344 157.296 103.092C157.474 102.831 157.595 102.588 157.66 102.364C157.735 102.14 157.772 101.902 157.772 101.65C157.772 101.155 157.576 100.749 157.184 100.432C156.802 100.105 156.312 99.942 155.714 99.942C155.257 99.942 154.832 100.031 154.44 100.208C154.048 100.385 153.61 100.693 153.124 101.132L152.536 100.432C153.05 99.9653 153.568 99.62 154.09 99.396C154.613 99.1627 155.159 99.046 155.728 99.046C156.316 99.046 156.839 99.158 157.296 99.382C157.754 99.5967 158.113 99.8953 158.374 100.278C158.636 100.661 158.766 101.099 158.766 101.594C158.766 101.921 158.724 102.224 158.64 102.504C158.556 102.775 158.407 103.069 158.192 103.386C157.978 103.694 157.67 104.067 157.268 104.506L153.922 108.132L158.976 108.118V109H152.662ZM164.478 109.154C163.694 109.154 163.004 108.939 162.406 108.51C161.809 108.081 161.338 107.488 160.992 106.732C160.656 105.967 160.488 105.089 160.488 104.1C160.488 103.111 160.656 102.238 160.992 101.482C161.338 100.717 161.809 100.119 162.406 99.69C163.004 99.2607 163.694 99.046 164.478 99.046C165.262 99.046 165.953 99.2607 166.55 99.69C167.148 100.119 167.614 100.717 167.95 101.482C168.296 102.238 168.468 103.111 168.468 104.1C168.468 105.089 168.296 105.967 167.95 106.732C167.614 107.488 167.148 108.081 166.55 108.51C165.953 108.939 165.262 109.154 164.478 109.154ZM164.478 108.244C165.085 108.244 165.608 108.076 166.046 107.74C166.494 107.395 166.84 106.909 167.082 106.284C167.325 105.659 167.446 104.931 167.446 104.1C167.446 103.26 167.325 102.532 167.082 101.916C166.84 101.291 166.494 100.81 166.046 100.474C165.608 100.129 165.085 99.956 164.478 99.956C163.881 99.956 163.358 100.129 162.91 100.474C162.462 100.81 162.117 101.291 161.874 101.916C161.632 102.532 161.51 103.26 161.51 104.1C161.51 104.931 161.632 105.659 161.874 106.284C162.117 106.909 162.462 107.395 162.91 107.74C163.358 108.076 163.881 108.244 164.478 108.244ZM169.656 109V108.258L173.576 103.974C173.884 103.638 174.122 103.344 174.29 103.092C174.467 102.831 174.589 102.588 174.654 102.364C174.729 102.14 174.766 101.902 174.766 101.65C174.766 101.155 174.57 100.749 174.178 100.432C173.795 100.105 173.305 99.942 172.708 99.942C172.251 99.942 171.826 100.031 171.434 100.208C171.042 100.385 170.603 100.693 170.118 101.132L169.53 100.432C170.043 99.9653 170.561 99.62 171.084 99.396C171.607 99.1627 172.153 99.046 172.722 99.046C173.31 99.046 173.833 99.158 174.29 99.382C174.747 99.5967 175.107 99.8953 175.368 100.278C175.629 100.661 175.76 101.099 175.76 101.594C175.76 101.921 175.718 102.224 175.634 102.504C175.55 102.775 175.401 103.069 175.186 103.386C174.971 103.694 174.663 104.067 174.262 104.506L170.916 108.132L175.97 108.118V109H169.656ZM182.432 109V106.382H176.86V105.57L182.362 99.2H183.454V105.5H184.63V106.382H183.454V109H182.432ZM178.12 105.5H182.432V100.502L178.12 105.5Z" fill="#8D8F93"/>
<path d="M110.592 53L106.016 41.8H107.824L111.616 51.336L115.472 41.8H117.2L112.56 53H110.592ZM121.293 53.144C120.493 53.144 119.768 52.9573 119.117 52.584C118.477 52.2107 117.965 51.704 117.581 51.064C117.208 50.424 117.021 49.7093 117.021 48.92C117.021 48.1413 117.202 47.4373 117.565 46.808C117.928 46.168 118.418 45.6613 119.037 45.288C119.656 44.904 120.344 44.712 121.101 44.712C121.858 44.712 122.53 44.904 123.117 45.288C123.704 45.6613 124.168 46.1733 124.509 46.824C124.861 47.464 125.037 48.1893 125.037 49V49.448H118.621C118.706 49.896 118.872 50.296 119.117 50.648C119.373 51 119.693 51.2773 120.077 51.48C120.472 51.6827 120.898 51.784 121.357 51.784C121.752 51.784 122.13 51.7253 122.493 51.608C122.866 51.48 123.176 51.2987 123.421 51.064L124.445 52.072C123.965 52.4347 123.469 52.7067 122.957 52.888C122.456 53.0587 121.901 53.144 121.293 53.144ZM118.637 48.248H123.453C123.389 47.8213 123.24 47.448 123.005 47.128C122.781 46.7973 122.498 46.5413 122.157 46.36C121.826 46.168 121.464 46.072 121.069 46.072C120.664 46.072 120.29 46.1627 119.949 46.344C119.608 46.5253 119.32 46.7813 119.085 47.112C118.861 47.432 118.712 47.8107 118.637 48.248ZM126.881 53V44.856H128.481V45.896C128.737 45.512 129.052 45.2133 129.425 45C129.809 44.776 130.241 44.664 130.721 44.664C131.052 44.6747 131.324 44.7227 131.537 44.808V46.248C131.388 46.184 131.233 46.1413 131.073 46.12C130.913 46.088 130.753 46.072 130.593 46.072C130.124 46.072 129.708 46.2 129.345 46.456C128.982 46.7013 128.694 47.064 128.481 47.544V53H126.881ZM133.138 53V44.856H134.738V53H133.138ZM133.938 43.544C133.672 43.544 133.442 43.448 133.25 43.256C133.058 43.0533 132.962 42.8187 132.962 42.552C132.962 42.2747 133.058 42.0453 133.25 41.864C133.442 41.672 133.672 41.576 133.938 41.576C134.216 41.576 134.45 41.672 134.642 41.864C134.834 42.0453 134.93 42.2747 134.93 42.552C134.93 42.8187 134.834 43.0533 134.642 43.256C134.45 43.448 134.216 43.544 133.938 43.544ZM140.687 53.128C139.929 53.128 139.236 52.9413 138.607 52.568C137.977 52.1947 137.481 51.6933 137.119 51.064C136.756 50.424 136.575 49.7093 136.575 48.92C136.575 48.1307 136.756 47.4213 137.119 46.792C137.492 46.1627 137.993 45.6613 138.623 45.288C139.252 44.9147 139.951 44.728 140.719 44.728C141.167 44.728 141.599 44.7973 142.015 44.936C142.431 45.0747 142.815 45.2773 143.167 45.544V41.8L144.767 41.496V53H143.183V52.216C142.489 52.824 141.657 53.128 140.687 53.128ZM140.895 51.736C141.364 51.736 141.791 51.6507 142.175 51.48C142.569 51.3093 142.9 51.064 143.167 50.744V47.08C142.9 46.7813 142.569 46.5467 142.175 46.376C141.791 46.1947 141.364 46.104 140.895 46.104C140.383 46.104 139.919 46.2267 139.503 46.472C139.087 46.7173 138.756 47.0533 138.511 47.48C138.265 47.896 138.143 48.3707 138.143 48.904C138.143 49.4373 138.265 49.9173 138.511 50.344C138.756 50.7707 139.087 51.112 139.503 51.368C139.919 51.6133 140.383 51.736 140.895 51.736ZM146.981 53V44.856H148.581V53H146.981ZM147.781 43.544C147.515 43.544 147.285 43.448 147.093 43.256C146.901 43.0533 146.805 42.8187 146.805 42.552C146.805 42.2747 146.901 42.0453 147.093 41.864C147.285 41.672 147.515 41.576 147.781 41.576C148.059 41.576 148.293 41.672 148.485 41.864C148.677 42.0453 148.773 42.2747 148.773 42.552C148.773 42.8187 148.677 43.0533 148.485 43.256C148.293 43.448 148.059 43.544 147.781 43.544ZM154.658 53.16C153.869 53.16 153.149 52.9733 152.498 52.6C151.858 52.2267 151.351 51.72 150.978 51.08C150.605 50.44 150.418 49.7253 150.418 48.936C150.418 48.1467 150.605 47.432 150.978 46.792C151.351 46.152 151.858 45.6453 152.498 45.272C153.149 44.888 153.869 44.696 154.658 44.696C155.458 44.696 156.178 44.888 156.818 45.272C157.458 45.6453 157.965 46.152 158.338 46.792C158.711 47.432 158.898 48.1467 158.898 48.936C158.898 49.7253 158.711 50.44 158.338 51.08C157.965 51.72 157.458 52.2267 156.818 52.6C156.178 52.9733 155.458 53.16 154.658 53.16ZM154.658 51.752C155.159 51.752 155.613 51.6293 156.018 51.384C156.423 51.128 156.743 50.7867 156.978 50.36C157.213 49.9333 157.33 49.4533 157.33 48.92C157.33 48.3973 157.207 47.928 156.962 47.512C156.727 47.0853 156.407 46.744 156.002 46.488C155.607 46.232 155.159 46.104 154.658 46.104C154.157 46.104 153.703 46.232 153.298 46.488C152.903 46.744 152.583 47.0853 152.338 47.512C152.103 47.928 151.986 48.3973 151.986 48.92C151.986 49.4533 152.103 49.9333 152.338 50.36C152.573 50.7867 152.893 51.128 153.298 51.384C153.703 51.6293 154.157 51.752 154.658 51.752ZM160.731 53V44.856H162.331V45.688C162.96 45.0267 163.776 44.696 164.779 44.696C165.408 44.696 165.958 44.8293 166.427 45.096C166.907 45.3627 167.28 45.736 167.547 46.216C167.824 46.696 167.963 47.2507 167.963 47.88V53H166.363V48.152C166.363 47.512 166.182 47.0107 165.819 46.648C165.467 46.2747 164.971 46.088 164.331 46.088C163.904 46.088 163.52 46.1787 163.179 46.36C162.838 46.5413 162.555 46.8027 162.331 47.144V53H160.731ZM173.985 53V41.8H178.833C179.569 41.8 180.209 41.9227 180.753 42.168C181.297 42.4133 181.718 42.76 182.017 43.208C182.315 43.6453 182.465 44.1627 182.465 44.76C182.465 45.304 182.326 45.784 182.049 46.2C181.771 46.616 181.382 46.9467 180.881 47.192C181.51 47.416 182.001 47.7573 182.353 48.216C182.715 48.664 182.897 49.192 182.897 49.8C182.897 50.4507 182.737 51.016 182.417 51.496C182.097 51.976 181.649 52.3493 181.073 52.616C180.497 52.872 179.819 53 179.041 53H173.985ZM175.665 46.552H178.737C179.366 46.552 179.867 46.4027 180.241 46.104C180.614 45.8053 180.801 45.4 180.801 44.888C180.801 44.376 180.614 43.9707 180.241 43.672C179.867 43.3733 179.366 43.224 178.737 43.224H175.665V46.552ZM175.665 51.576H178.913C179.617 51.576 180.171 51.4107 180.577 51.08C180.993 50.7493 181.201 50.3013 181.201 49.736C181.201 49.1813 180.993 48.7387 180.577 48.408C180.171 48.0667 179.617 47.896 178.913 47.896H175.665V51.576ZM187.423 53.144C186.836 53.144 186.319 53.0427 185.871 52.84C185.423 52.6267 185.071 52.3333 184.815 51.96C184.559 51.5867 184.431 51.1547 184.431 50.664C184.431 49.896 184.724 49.2933 185.311 48.856C185.898 48.408 186.703 48.184 187.727 48.184C188.527 48.184 189.268 48.3387 189.951 48.648V47.784C189.951 47.1973 189.78 46.76 189.439 46.472C189.108 46.184 188.618 46.04 187.967 46.04C187.594 46.04 187.204 46.0987 186.799 46.216C186.394 46.3227 185.94 46.4933 185.439 46.728L184.847 45.528C185.466 45.24 186.042 45.032 186.575 44.904C187.108 44.7653 187.647 44.696 188.191 44.696C189.247 44.696 190.063 44.9467 190.639 45.448C191.226 45.9493 191.519 46.664 191.519 47.592V53H189.951V52.296C189.588 52.584 189.199 52.7973 188.783 52.936C188.367 53.0747 187.914 53.144 187.423 53.144ZM185.967 50.632C185.967 51.0267 186.132 51.3467 186.463 51.592C186.804 51.8373 187.247 51.96 187.791 51.96C188.218 51.96 188.607 51.896 188.959 51.768C189.322 51.64 189.652 51.4427 189.951 51.176V49.8C189.642 49.6187 189.316 49.4907 188.975 49.416C188.644 49.3307 188.271 49.288 187.855 49.288C187.268 49.288 186.804 49.4107 186.463 49.656C186.132 49.8907 185.967 50.216 185.967 50.632ZM193.683 53V44.856H195.283V45.688C195.912 45.0267 196.728 44.696 197.731 44.696C198.36 44.696 198.909 44.8293 199.379 45.096C199.859 45.3627 200.232 45.736 200.499 46.216C200.776 46.696 200.915 47.2507 200.915 47.88V53H199.315V48.152C199.315 47.512 199.133 47.0107 198.771 46.648C198.419 46.2747 197.923 46.088 197.283 46.088C196.856 46.088 196.472 46.1787 196.131 46.36C195.789 46.5413 195.507 46.8027 195.283 47.144V53H193.683ZM203.081 53V41.8L204.681 41.496V48.424L208.633 44.856H210.505L206.297 48.664L210.729 53H208.617L204.681 49.176V53H203.081ZM220.207 53.176C219.237 53.176 218.394 52.9733 217.679 52.568C216.965 52.1627 216.415 51.592 216.031 50.856C215.647 50.1093 215.455 49.2293 215.455 48.216V41.8H217.135V48.216C217.135 48.9093 217.258 49.512 217.503 50.024C217.759 50.536 218.117 50.9307 218.575 51.208C219.045 51.4853 219.589 51.624 220.207 51.624C220.847 51.624 221.397 51.4853 221.855 51.208C222.314 50.9307 222.666 50.536 222.911 50.024C223.167 49.512 223.295 48.9093 223.295 48.216V41.8H224.975V48.216C224.975 49.2293 224.778 50.1093 224.383 50.856C223.999 51.592 223.45 52.1627 222.735 52.568C222.021 52.9733 221.178 53.176 220.207 53.176ZM227.182 53V44.856H228.782V45.688C229.411 45.0267 230.227 44.696 231.23 44.696C231.859 44.696 232.408 44.8293 232.878 45.096C233.358 45.3627 233.731 45.736 233.998 46.216C234.275 46.696 234.414 47.2507 234.414 47.88V53H232.814V48.152C232.814 47.512 232.632 47.0107 232.27 46.648C231.918 46.2747 231.422 46.088 230.782 46.088C230.355 46.088 229.971 46.1787 229.63 46.36C229.288 46.5413 229.006 46.8027 228.782 47.144V53H227.182ZM238.782 53L235.262 44.856H237.022L239.566 50.952L242.11 44.856H243.806L240.318 53H238.782ZM248.788 53.144C247.988 53.144 247.263 52.9573 246.612 52.584C245.972 52.2107 245.46 51.704 245.076 51.064C244.703 50.424 244.516 49.7093 244.516 48.92C244.516 48.1413 244.697 47.4373 245.06 46.808C245.423 46.168 245.913 45.6613 246.532 45.288C247.151 44.904 247.839 44.712 248.596 44.712C249.353 44.712 250.025 44.904 250.612 45.288C251.199 45.6613 251.663 46.1733 252.004 46.824C252.356 47.464 252.532 48.1893 252.532 49V49.448H246.116C246.201 49.896 246.367 50.296 246.612 50.648C246.868 51 247.188 51.2773 247.572 51.48C247.967 51.6827 248.393 51.784 248.852 51.784C249.247 51.784 249.625 51.7253 249.988 51.608C250.361 51.48 250.671 51.2987 250.916 51.064L251.94 52.072C251.46 52.4347 250.964 52.7067 250.452 52.888C249.951 53.0587 249.396 53.144 248.788 53.144ZM246.132 48.248H250.948C250.884 47.8213 250.735 47.448 250.5 47.128C250.276 46.7973 249.993 46.5413 249.652 46.36C249.321 46.168 248.959 46.072 248.564 46.072C248.159 46.072 247.785 46.1627 247.444 46.344C247.103 46.5253 246.815 46.7813 246.58 47.112C246.356 47.432 246.207 47.8107 246.132 48.248ZM254.376 53V44.856H255.976V53H254.376ZM255.176 43.544C254.909 43.544 254.68 43.448 254.488 43.256C254.296 43.0533 254.2 42.8187 254.2 42.552C254.2 42.2747 254.296 42.0453 254.488 41.864C254.68 41.672 254.909 41.576 255.176 41.576C255.453 41.576 255.688 41.672 255.88 41.864C256.072 42.0453 256.168 42.2747 256.168 42.552C256.168 42.8187 256.072 43.0533 255.88 43.256C255.688 43.448 255.453 43.544 255.176 43.544ZM258.18 53V41.8L259.78 41.496V53H258.18ZM264.785 53.16C264.081 53.16 263.419 53.0587 262.801 52.856C262.193 52.6427 261.665 52.344 261.217 51.96L262.097 50.904C262.513 51.2347 262.939 51.4907 263.377 51.672C263.825 51.8427 264.278 51.928 264.737 51.928C265.313 51.928 265.782 51.816 266.145 51.592C266.507 51.368 266.689 51.0747 266.689 50.712C266.689 50.4133 266.582 50.1787 266.369 50.008C266.155 49.8373 265.825 49.72 265.377 49.656L263.905 49.448C263.094 49.3307 262.486 49.08 262.081 48.696C261.675 48.312 261.473 47.8 261.473 47.16C261.473 46.6693 261.606 46.2427 261.873 45.88C262.139 45.5067 262.513 45.2187 262.993 45.016C263.473 44.8027 264.033 44.696 264.673 44.696C265.259 44.696 265.825 44.7813 266.369 44.952C266.913 45.1227 267.435 45.3893 267.937 45.752L267.121 46.808C266.673 46.5093 266.235 46.2907 265.809 46.152C265.393 46.0133 264.971 45.944 264.545 45.944C264.054 45.944 263.659 46.0507 263.361 46.264C263.062 46.4667 262.913 46.7333 262.913 47.064C262.913 47.3627 263.014 47.5973 263.217 47.768C263.43 47.928 263.777 48.04 264.257 48.104L265.729 48.312C266.539 48.4293 267.153 48.68 267.569 49.064C267.985 49.4373 268.193 49.944 268.193 50.584C268.193 51.0747 268.043 51.5173 267.745 51.912C267.446 52.296 267.041 52.6 266.529 52.824C266.017 53.048 265.435 53.16 264.785 53.16ZM273.598 53V41.8H275.23L281.486 50.12V41.8H283.07V53H281.598L275.198 44.424V53H273.598ZM289.396 53.144C288.596 53.144 287.87 52.9573 287.22 52.584C286.58 52.2107 286.068 51.704 285.684 51.064C285.31 50.424 285.124 49.7093 285.124 48.92C285.124 48.1413 285.305 47.4373 285.668 46.808C286.03 46.168 286.521 45.6613 287.14 45.288C287.758 44.904 288.446 44.712 289.204 44.712C289.961 44.712 290.633 44.904 291.22 45.288C291.806 45.6613 292.27 46.1733 292.612 46.824C292.964 47.464 293.14 48.1893 293.14 49V49.448H286.724C286.809 49.896 286.974 50.296 287.22 50.648C287.476 51 287.796 51.2773 288.18 51.48C288.574 51.6827 289.001 51.784 289.46 51.784C289.854 51.784 290.233 51.7253 290.596 51.608C290.969 51.48 291.278 51.2987 291.524 51.064L292.548 52.072C292.068 52.4347 291.572 52.7067 291.06 52.888C290.558 53.0587 290.004 53.144 289.396 53.144ZM286.74 48.248H291.556C291.492 47.8213 291.342 47.448 291.108 47.128C290.884 46.7973 290.601 46.5413 290.26 46.36C289.929 46.168 289.566 46.072 289.172 46.072C288.766 46.072 288.393 46.1627 288.052 46.344C287.71 46.5253 287.422 46.7813 287.188 47.112C286.964 47.432 286.814 47.8107 286.74 48.248ZM296.347 53L294.075 44.856H295.627L297.211 50.84L299.067 44.856H300.443L302.299 50.84L303.883 44.856H305.387L303.099 53H301.563L299.739 47.032L297.899 53H296.347ZM310.706 53V41.8H312.386V46.6H318.338V41.8H320.018V53H318.338V48.12H312.386V53H310.706ZM322.428 53V44.856H324.028V53H322.428ZM323.228 43.544C322.961 43.544 322.732 43.448 322.54 43.256C322.348 43.0533 322.252 42.8187 322.252 42.552C322.252 42.2747 322.348 42.0453 322.54 41.864C322.732 41.672 322.961 41.576 323.228 41.576C323.505 41.576 323.74 41.672 323.932 41.864C324.124 42.0453 324.22 42.2747 324.22 42.552C324.22 42.8187 324.124 43.0533 323.932 43.256C323.74 43.448 323.505 43.544 323.228 43.544ZM330.264 56.424C329.667 56.424 329.085 56.3547 328.52 56.216C327.955 56.0773 327.443 55.88 326.984 55.624L327.592 54.376C328.072 54.6213 328.52 54.7973 328.936 54.904C329.363 55.0213 329.789 55.08 330.216 55.08C330.931 55.08 331.469 54.9147 331.832 54.584C332.205 54.2533 332.392 53.768 332.392 53.128V52.2C331.677 52.7653 330.861 53.048 329.944 53.048C329.197 53.048 328.509 52.8667 327.88 52.504C327.261 52.1307 326.771 51.6293 326.408 51C326.045 50.36 325.864 49.656 325.864 48.888C325.864 48.1093 326.045 47.4053 326.408 46.776C326.781 46.136 327.277 45.6347 327.896 45.272C328.525 44.8987 329.229 44.712 330.008 44.712C330.445 44.712 330.867 44.7867 331.272 44.936C331.688 45.0747 332.067 45.2773 332.408 45.544V44.856H333.992V53.128C333.992 54.184 333.667 54.9947 333.016 55.56C332.376 56.136 331.459 56.424 330.264 56.424ZM330.152 51.672C330.621 51.672 331.048 51.592 331.432 51.432C331.816 51.2613 332.136 51.0213 332.392 50.712V47.064C332.136 46.7653 331.811 46.5307 331.416 46.36C331.032 46.1893 330.611 46.104 330.152 46.104C329.64 46.104 329.176 46.2267 328.76 46.472C328.355 46.7173 328.029 47.0533 327.784 47.48C327.549 47.896 327.432 48.3653 327.432 48.888C327.432 49.4107 327.549 49.8853 327.784 50.312C328.029 50.728 328.355 51.0587 328.76 51.304C329.176 51.5493 329.64 51.672 330.152 51.672ZM336.193 53V41.8L337.793 41.448V45.688C338.422 45.0267 339.238 44.696 340.241 44.696C340.87 44.696 341.419 44.8293 341.889 45.096C342.369 45.3627 342.742 45.736 343.009 46.216C343.286 46.696 343.425 47.2507 343.425 47.88V53H341.825V48.152C341.825 47.512 341.643 47.0107 341.281 46.648C340.918 46.2747 340.422 46.088 339.793 46.088C339.366 46.088 338.982 46.1787 338.641 46.36C338.299 46.5413 338.017 46.8027 337.793 47.144V53H336.193ZM345.383 49.176V47.784H351.143V49.176H345.383ZM355.978 53V48.552L351.466 41.8H353.418L356.858 47.064L360.298 41.8H362.17L357.658 48.584V53H355.978ZM363.231 53V44.856H364.831V53H363.231ZM364.031 43.544C363.764 43.544 363.535 43.448 363.343 43.256C363.151 43.0533 363.055 42.8187 363.055 42.552C363.055 42.2747 363.151 42.0453 363.343 41.864C363.535 41.672 363.764 41.576 364.031 41.576C364.308 41.576 364.543 41.672 364.735 41.864C364.927 42.0453 365.023 42.2747 365.023 42.552C365.023 42.8187 364.927 43.0533 364.735 43.256C364.543 43.448 364.308 43.544 364.031 43.544ZM370.939 53.144C370.139 53.144 369.414 52.9573 368.763 52.584C368.123 52.2107 367.611 51.704 367.227 51.064C366.854 50.424 366.667 49.7093 366.667 48.92C366.667 48.1413 366.849 47.4373 367.211 46.808C367.574 46.168 368.065 45.6613 368.683 45.288C369.302 44.904 369.99 44.712 370.747 44.712C371.505 44.712 372.177 44.904 372.763 45.288C373.35 45.6613 373.814 46.1733 374.155 46.824C374.507 47.464 374.683 48.1893 374.683 49V49.448H368.267C368.353 49.896 368.518 50.296 368.763 50.648C369.019 51 369.339 51.2773 369.723 51.48C370.118 51.6827 370.545 51.784 371.003 51.784C371.398 51.784 371.777 51.7253 372.139 51.608C372.513 51.48 372.822 51.2987 373.067 51.064L374.091 52.072C373.611 52.4347 373.115 52.7067 372.603 52.888C372.102 53.0587 371.547 53.144 370.939 53.144ZM368.283 48.248H373.099C373.035 47.8213 372.886 47.448 372.651 47.128C372.427 46.7973 372.145 46.5413 371.803 46.36C371.473 46.168 371.11 46.072 370.715 46.072C370.31 46.072 369.937 46.1627 369.595 46.344C369.254 46.5253 368.966 46.7813 368.731 47.112C368.507 47.432 368.358 47.8107 368.283 48.248ZM376.527 53V41.8L378.127 41.496V53H376.527ZM384.076 53.128C383.318 53.128 382.625 52.9413 381.996 52.568C381.366 52.1947 380.87 51.6933 380.508 51.064C380.145 50.424 379.964 49.7093 379.964 48.92C379.964 48.1307 380.145 47.4213 380.508 46.792C380.881 46.1627 381.382 45.6613 382.012 45.288C382.641 44.9147 383.34 44.728 384.108 44.728C384.556 44.728 384.988 44.7973 385.404 44.936C385.82 45.0747 386.204 45.2773 386.556 45.544V41.8L388.156 41.496V53H386.572V52.216C385.878 52.824 385.046 53.128 384.076 53.128ZM384.284 51.736C384.753 51.736 385.18 51.6507 385.564 51.48C385.958 51.3093 386.289 51.064 386.556 50.744V47.08C386.289 46.7813 385.958 46.5467 385.564 46.376C385.18 46.1947 384.753 46.104 384.284 46.104C383.772 46.104 383.308 46.2267 382.892 46.472C382.476 46.7173 382.145 47.0533 381.9 47.48C381.654 47.896 381.532 48.3707 381.532 48.904C381.532 49.4373 381.654 49.9173 381.9 50.344C382.145 50.7707 382.476 51.112 382.892 51.368C383.308 51.6133 383.772 51.736 384.284 51.736ZM395.906 51.496H398.21C398.797 51.496 399.341 51.3947 399.842 51.192C400.343 50.9787 400.781 50.6907 401.154 50.328C401.538 49.9547 401.831 49.5227 402.034 49.032C402.247 48.5307 402.354 47.9867 402.354 47.4C402.354 46.824 402.247 46.2853 402.034 45.784C401.831 45.2827 401.538 44.8507 401.154 44.488C400.781 44.1147 400.343 43.8267 399.842 43.624C399.341 43.4107 398.797 43.304 398.21 43.304H395.906V51.496ZM394.226 53V41.8H398.178C399.021 41.8 399.799 41.944 400.514 42.232C401.229 42.5093 401.853 42.8987 402.386 43.4C402.919 43.9013 403.335 44.4933 403.634 45.176C403.933 45.8587 404.082 46.6 404.082 47.4C404.082 48.2107 403.933 48.9573 403.634 49.64C403.346 50.312 402.935 50.8987 402.402 51.4C401.869 51.9013 401.239 52.296 400.514 52.584C399.799 52.8613 399.021 53 398.178 53H394.226ZM409.883 53.144C409.083 53.144 408.358 52.9573 407.707 52.584C407.067 52.2107 406.555 51.704 406.171 51.064C405.798 50.424 405.611 49.7093 405.611 48.92C405.611 48.1413 405.792 47.4373 406.155 46.808C406.518 46.168 407.008 45.6613 407.627 45.288C408.246 44.904 408.934 44.712 409.691 44.712C410.448 44.712 411.12 44.904 411.707 45.288C412.294 45.6613 412.758 46.1733 413.099 46.824C413.451 47.464 413.627 48.1893 413.627 49V49.448H407.211C407.296 49.896 407.462 50.296 407.707 50.648C407.963 51 408.283 51.2773 408.667 51.48C409.062 51.6827 409.488 51.784 409.947 51.784C410.342 51.784 410.72 51.7253 411.083 51.608C411.456 51.48 411.766 51.2987 412.011 51.064L413.035 52.072C412.555 52.4347 412.059 52.7067 411.547 52.888C411.046 53.0587 410.491 53.144 409.883 53.144ZM407.227 48.248H412.043C411.979 47.8213 411.83 47.448 411.595 47.128C411.371 46.7973 411.088 46.5413 410.747 46.36C410.416 46.168 410.054 46.072 409.659 46.072C409.254 46.072 408.88 46.1627 408.539 46.344C408.198 46.5253 407.91 46.7813 407.675 47.112C407.451 47.432 407.302 47.8107 407.227 48.248ZM415.471 56.264V44.856H417.055V45.64C417.738 45.032 418.57 44.728 419.551 44.728C420.319 44.728 421.012 44.9147 421.631 45.288C422.26 45.6613 422.756 46.1627 423.119 46.792C423.482 47.4213 423.663 48.1307 423.663 48.92C423.663 49.7093 423.476 50.424 423.103 51.064C422.74 51.6933 422.244 52.1947 421.615 52.568C420.996 52.9413 420.298 53.128 419.519 53.128C419.071 53.128 418.639 53.0587 418.223 52.92C417.807 52.7707 417.423 52.5627 417.071 52.296V56.264H415.471ZM419.343 51.736C419.866 51.736 420.33 51.6133 420.735 51.368C421.151 51.1227 421.482 50.792 421.727 50.376C421.972 49.9493 422.095 49.4693 422.095 48.936C422.095 48.4027 421.972 47.9227 421.727 47.496C421.482 47.0693 421.151 46.7333 420.735 46.488C420.33 46.2427 419.866 46.12 419.343 46.12C418.884 46.12 418.458 46.2053 418.063 46.376C417.668 46.5467 417.338 46.7867 417.071 47.096V50.776C417.338 51.0747 417.668 51.3093 418.063 51.48C418.468 51.6507 418.895 51.736 419.343 51.736ZM429.382 53.16C428.592 53.16 427.872 52.9733 427.222 52.6C426.582 52.2267 426.075 51.72 425.702 51.08C425.328 50.44 425.142 49.7253 425.142 48.936C425.142 48.1467 425.328 47.432 425.702 46.792C426.075 46.152 426.582 45.6453 427.222 45.272C427.872 44.888 428.592 44.696 429.382 44.696C430.182 44.696 430.902 44.888 431.542 45.272C432.182 45.6453 432.688 46.152 433.062 46.792C433.435 47.432 433.622 48.1467 433.622 48.936C433.622 49.7253 433.435 50.44 433.062 51.08C432.688 51.72 432.182 52.2267 431.542 52.6C430.902 52.9733 430.182 53.16 429.382 53.16ZM429.382 51.752C429.883 51.752 430.336 51.6293 430.742 51.384C431.147 51.128 431.467 50.7867 431.702 50.36C431.936 49.9333 432.054 49.4533 432.054 48.92C432.054 48.3973 431.931 47.928 431.686 47.512C431.451 47.0853 431.131 46.744 430.726 46.488C430.331 46.232 429.883 46.104 429.382 46.104C428.88 46.104 428.427 46.232 428.022 46.488C427.627 46.744 427.307 47.0853 427.062 47.512C426.827 47.928 426.71 48.3973 426.71 48.92C426.71 49.4533 426.827 49.9333 427.062 50.36C427.296 50.7867 427.616 51.128 428.022 51.384C428.427 51.6293 428.88 51.752 429.382 51.752ZM438.255 53.16C437.551 53.16 436.889 53.0587 436.271 52.856C435.663 52.6427 435.135 52.344 434.687 51.96L435.567 50.904C435.983 51.2347 436.409 51.4907 436.847 51.672C437.295 51.8427 437.748 51.928 438.207 51.928C438.783 51.928 439.252 51.816 439.615 51.592C439.977 51.368 440.159 51.0747 440.159 50.712C440.159 50.4133 440.052 50.1787 439.839 50.008C439.625 49.8373 439.295 49.72 438.847 49.656L437.375 49.448C436.564 49.3307 435.956 49.08 435.551 48.696C435.145 48.312 434.943 47.8 434.943 47.16C434.943 46.6693 435.076 46.2427 435.343 45.88C435.609 45.5067 435.983 45.2187 436.463 45.016C436.943 44.8027 437.503 44.696 438.143 44.696C438.729 44.696 439.295 44.7813 439.839 44.952C440.383 45.1227 440.905 45.3893 441.407 45.752L440.591 46.808C440.143 46.5093 439.705 46.2907 439.279 46.152C438.863 46.0133 438.441 45.944 438.015 45.944C437.524 45.944 437.129 46.0507 436.831 46.264C436.532 46.4667 436.383 46.7333 436.383 47.064C436.383 47.3627 436.484 47.5973 436.687 47.768C436.9 47.928 437.247 48.04 437.727 48.104L439.199 48.312C440.009 48.4293 440.623 48.68 441.039 49.064C441.455 49.4373 441.663 49.944 441.663 50.584C441.663 51.0747 441.513 51.5173 441.215 51.912C440.916 52.296 440.511 52.6 439.999 52.824C439.487 53.048 438.905 53.16 438.255 53.16ZM443.212 53V44.856H444.812V53H443.212ZM444.012 43.544C443.745 43.544 443.516 43.448 443.324 43.256C443.132 43.0533 443.036 42.8187 443.036 42.552C443.036 42.2747 443.132 42.0453 443.324 41.864C443.516 41.672 443.745 41.576 444.012 41.576C444.289 41.576 444.524 41.672 444.716 41.864C444.908 42.0453 445.004 42.2747 445.004 42.552C445.004 42.8187 444.908 43.0533 444.716 43.256C444.524 43.448 444.289 43.544 444.012 43.544ZM450.505 53.144C449.715 53.144 449.113 52.9627 448.697 52.6C448.281 52.2267 448.073 51.688 448.073 50.984V46.2H446.345V44.856H448.073V42.776L449.657 42.392V44.856H452.057V46.2H449.657V50.616C449.657 51.032 449.747 51.3307 449.929 51.512C450.121 51.6827 450.43 51.768 450.857 51.768C451.081 51.768 451.278 51.752 451.449 51.72C451.63 51.688 451.822 51.64 452.025 51.576V52.92C451.811 52.9947 451.561 53.048 451.273 53.08C450.995 53.1227 450.739 53.144 450.505 53.144ZM106.016 77L110.64 65.8H112.624L117.2 77H115.376L114.08 73.72H109.072L107.76 77H106.016ZM109.616 72.328H113.536L111.584 67.4L109.616 72.328ZM121.885 77.144C121.106 77.144 120.397 76.9573 119.757 76.584C119.117 76.2107 118.61 75.704 118.237 75.064C117.874 74.424 117.693 73.7093 117.693 72.92C117.693 72.1307 117.88 71.4213 118.253 70.792C118.626 70.152 119.128 69.6453 119.757 69.272C120.397 68.888 121.106 68.696 121.885 68.696C122.504 68.696 123.096 68.8133 123.661 69.048C124.237 69.2827 124.733 69.6133 125.149 70.04L124.157 71.144C123.848 70.8027 123.501 70.5467 123.117 70.376C122.733 70.2053 122.333 70.12 121.917 70.12C121.426 70.12 120.978 70.2427 120.573 70.488C120.178 70.7333 119.864 71.0693 119.629 71.496C119.394 71.9227 119.277 72.3973 119.277 72.92C119.277 73.4427 119.394 73.9173 119.629 74.344C119.864 74.7707 120.184 75.112 120.589 75.368C120.994 75.6133 121.448 75.736 121.949 75.736C122.365 75.736 122.754 75.656 123.117 75.496C123.48 75.3253 123.821 75.08 124.141 74.76L125.117 75.784C124.69 76.2213 124.194 76.5573 123.629 76.792C123.074 77.0267 122.493 77.144 121.885 77.144ZM130.314 77.144C129.536 77.144 128.826 76.9573 128.186 76.584C127.546 76.2107 127.04 75.704 126.666 75.064C126.304 74.424 126.122 73.7093 126.122 72.92C126.122 72.1307 126.309 71.4213 126.682 70.792C127.056 70.152 127.557 69.6453 128.186 69.272C128.826 68.888 129.536 68.696 130.314 68.696C130.933 68.696 131.525 68.8133 132.09 69.048C132.666 69.2827 133.162 69.6133 133.578 70.04L132.586 71.144C132.277 70.8027 131.93 70.5467 131.546 70.376C131.162 70.2053 130.762 70.12 130.346 70.12C129.856 70.12 129.408 70.2427 129.002 70.488C128.608 70.7333 128.293 71.0693 128.058 71.496C127.824 71.9227 127.706 72.3973 127.706 72.92C127.706 73.4427 127.824 73.9173 128.058 74.344C128.293 74.7707 128.613 75.112 129.018 75.368C129.424 75.6133 129.877 75.736 130.378 75.736C130.794 75.736 131.184 75.656 131.546 75.496C131.909 75.3253 132.25 75.08 132.57 74.76L133.546 75.784C133.12 76.2213 132.624 76.5573 132.058 76.792C131.504 77.0267 130.922 77.144 130.314 77.144ZM138.792 77.16C138.002 77.16 137.282 76.9733 136.632 76.6C135.992 76.2267 135.485 75.72 135.112 75.08C134.738 74.44 134.552 73.7253 134.552 72.936C134.552 72.1467 134.738 71.432 135.112 70.792C135.485 70.152 135.992 69.6453 136.632 69.272C137.282 68.888 138.002 68.696 138.792 68.696C139.592 68.696 140.312 68.888 140.952 69.272C141.592 69.6453 142.098 70.152 142.472 70.792C142.845 71.432 143.032 72.1467 143.032 72.936C143.032 73.7253 142.845 74.44 142.472 75.08C142.098 75.72 141.592 76.2267 140.952 76.6C140.312 76.9733 139.592 77.16 138.792 77.16ZM138.792 75.752C139.293 75.752 139.746 75.6293 140.152 75.384C140.557 75.128 140.877 74.7867 141.112 74.36C141.346 73.9333 141.464 73.4533 141.464 72.92C141.464 72.3973 141.341 71.928 141.096 71.512C140.861 71.0853 140.541 70.744 140.136 70.488C139.741 70.232 139.293 70.104 138.792 70.104C138.29 70.104 137.837 70.232 137.432 70.488C137.037 70.744 136.717 71.0853 136.472 71.512C136.237 71.928 136.12 72.3973 136.12 72.92C136.12 73.4533 136.237 73.9333 136.472 74.36C136.706 74.7867 137.026 75.128 137.432 75.384C137.837 75.6293 138.29 75.752 138.792 75.752ZM148.017 77.16C147.387 77.16 146.833 77.0267 146.353 76.76C145.873 76.4933 145.499 76.12 145.233 75.64C144.966 75.1493 144.833 74.5893 144.833 73.96V68.856H146.417V73.688C146.417 74.328 146.598 74.8347 146.961 75.208C147.334 75.5813 147.83 75.768 148.449 75.768C148.886 75.768 149.275 75.6773 149.617 75.496C149.958 75.304 150.235 75.0373 150.449 74.696V68.856H152.049V77H150.449V76.168C149.819 76.8293 149.009 77.16 148.017 77.16ZM154.263 77V68.856H155.863V69.688C156.492 69.0267 157.308 68.696 158.311 68.696C158.94 68.696 159.489 68.8293 159.959 69.096C160.439 69.3627 160.812 69.736 161.079 70.216C161.356 70.696 161.495 71.2507 161.495 71.88V77H159.895V72.152C159.895 71.512 159.713 71.0107 159.351 70.648C158.999 70.2747 158.503 70.088 157.863 70.088C157.436 70.088 157.052 70.1787 156.711 70.36C156.369 70.5413 156.087 70.8027 155.863 71.144V77H154.263ZM166.914 77.144C166.125 77.144 165.522 76.9627 165.106 76.6C164.69 76.2267 164.482 75.688 164.482 74.984V70.2H162.754V68.856H164.482V66.776L166.066 66.392V68.856H168.466V70.2H166.066V74.616C166.066 75.032 166.157 75.3307 166.338 75.512C166.53 75.6827 166.84 75.768 167.266 75.768C167.49 75.768 167.688 75.752 167.858 75.72C168.04 75.688 168.232 75.64 168.434 75.576V76.92C168.221 76.9947 167.97 77.048 167.682 77.08C167.405 77.1227 167.149 77.144 166.914 77.144ZM172.922 77.16C172.218 77.16 171.556 77.0587 170.938 76.856C170.33 76.6427 169.802 76.344 169.354 75.96L170.234 74.904C170.65 75.2347 171.076 75.4907 171.514 75.672C171.962 75.8427 172.415 75.928 172.874 75.928C173.45 75.928 173.919 75.816 174.282 75.592C174.644 75.368 174.826 75.0747 174.826 74.712C174.826 74.4133 174.719 74.1787 174.506 74.008C174.292 73.8373 173.962 73.72 173.514 73.656L172.042 73.448C171.231 73.3307 170.623 73.08 170.218 72.696C169.812 72.312 169.61 71.8 169.61 71.16C169.61 70.6693 169.743 70.2427 170.01 69.88C170.276 69.5067 170.65 69.2187 171.13 69.016C171.61 68.8027 172.17 68.696 172.81 68.696C173.396 68.696 173.962 68.7813 174.506 68.952C175.05 69.1227 175.572 69.3893 176.074 69.752L175.258 70.808C174.81 70.5093 174.372 70.2907 173.946 70.152C173.53 70.0133 173.108 69.944 172.682 69.944C172.191 69.944 171.796 70.0507 171.498 70.264C171.199 70.4667 171.05 70.7333 171.05 71.064C171.05 71.3627 171.151 71.5973 171.354 71.768C171.567 71.928 171.914 72.04 172.394 72.104L173.866 72.312C174.676 72.4293 175.29 72.68 175.706 73.064C176.122 73.4373 176.33 73.944 176.33 74.584C176.33 75.0747 176.18 75.5173 175.882 75.912C175.583 76.296 175.178 76.6 174.666 76.824C174.154 77.048 173.572 77.16 172.922 77.16ZM182.759 77V70.2H180.871V68.856H182.759V67.624C182.759 66.7707 182.993 66.12 183.463 65.672C183.943 65.224 184.625 65 185.511 65C185.735 65 185.943 65.016 186.135 65.048C186.337 65.0693 186.519 65.1067 186.679 65.16V66.536C186.487 66.4827 186.316 66.4453 186.167 66.424C186.017 66.392 185.852 66.376 185.671 66.376C185.223 66.376 184.887 66.4827 184.663 66.696C184.449 66.8987 184.343 67.224 184.343 67.672V68.856H186.679V70.2H184.343V77H182.759ZM191.719 77.16C190.93 77.16 190.21 76.9733 189.559 76.6C188.919 76.2267 188.412 75.72 188.039 75.08C187.666 74.44 187.479 73.7253 187.479 72.936C187.479 72.1467 187.666 71.432 188.039 70.792C188.412 70.152 188.919 69.6453 189.559 69.272C190.21 68.888 190.93 68.696 191.719 68.696C192.519 68.696 193.239 68.888 193.879 69.272C194.519 69.6453 195.026 70.152 195.399 70.792C195.772 71.432 195.959 72.1467 195.959 72.936C195.959 73.7253 195.772 74.44 195.399 75.08C195.026 75.72 194.519 76.2267 193.879 76.6C193.239 76.9733 192.519 77.16 191.719 77.16ZM191.719 75.752C192.22 75.752 192.674 75.6293 193.079 75.384C193.484 75.128 193.804 74.7867 194.039 74.36C194.274 73.9333 194.391 73.4533 194.391 72.92C194.391 72.3973 194.268 71.928 194.023 71.512C193.788 71.0853 193.468 70.744 193.063 70.488C192.668 70.232 192.22 70.104 191.719 70.104C191.218 70.104 190.764 70.232 190.359 70.488C189.964 70.744 189.644 71.0853 189.399 71.512C189.164 71.928 189.047 72.3973 189.047 72.92C189.047 73.4533 189.164 73.9333 189.399 74.36C189.634 74.7867 189.954 75.128 190.359 75.384C190.764 75.6293 191.218 75.752 191.719 75.752ZM197.792 77V68.856H199.392V69.896C199.648 69.512 199.963 69.2133 200.336 69C200.72 68.776 201.152 68.664 201.632 68.664C201.963 68.6747 202.235 68.7227 202.448 68.808V70.248C202.299 70.184 202.144 70.1413 201.984 70.12C201.824 70.088 201.664 70.072 201.504 70.072C201.035 70.072 200.619 70.2 200.256 70.456C199.893 70.7013 199.605 71.064 199.392 71.544V77H197.792ZM211.697 77.16C210.801 77.16 209.937 76.984 209.105 76.632C208.273 76.28 207.537 75.784 206.897 75.144L207.921 73.96C208.529 74.5573 209.148 75 209.777 75.288C210.417 75.576 211.084 75.72 211.777 75.72C212.321 75.72 212.796 75.6453 213.201 75.496C213.617 75.336 213.937 75.112 214.161 74.824C214.385 74.536 214.497 74.2107 214.497 73.848C214.497 73.3467 214.321 72.9627 213.969 72.696C213.617 72.4293 213.036 72.2267 212.225 72.088L210.353 71.784C209.329 71.6027 208.561 71.272 208.049 70.792C207.548 70.312 207.297 69.672 207.297 68.872C207.297 68.232 207.468 67.672 207.809 67.192C208.151 66.7013 208.631 66.3227 209.249 66.056C209.879 65.7893 210.604 65.656 211.425 65.656C212.236 65.656 213.031 65.7893 213.809 66.056C214.599 66.312 215.308 66.6853 215.937 67.176L215.009 68.456C213.804 67.5387 212.583 67.08 211.345 67.08C210.855 67.08 210.428 67.1493 210.065 67.288C209.703 67.4267 209.42 67.624 209.217 67.88C209.015 68.1253 208.913 68.4133 208.913 68.744C208.913 69.2027 209.068 69.5547 209.377 69.8C209.687 70.0347 210.199 70.2053 210.913 70.312L212.721 70.616C213.905 70.808 214.775 71.1547 215.329 71.656C215.884 72.1573 216.161 72.8453 216.161 73.72C216.161 74.4027 215.975 75.0053 215.601 75.528C215.228 76.04 214.705 76.44 214.033 76.728C213.361 77.016 212.583 77.16 211.697 77.16ZM220.656 77.144C220.07 77.144 219.552 77.0427 219.104 76.84C218.656 76.6267 218.304 76.3333 218.048 75.96C217.792 75.5867 217.664 75.1547 217.664 74.664C217.664 73.896 217.958 73.2933 218.544 72.856C219.131 72.408 219.936 72.184 220.96 72.184C221.76 72.184 222.502 72.3387 223.184 72.648V71.784C223.184 71.1973 223.014 70.76 222.672 70.472C222.342 70.184 221.851 70.04 221.2 70.04C220.827 70.04 220.438 70.0987 220.032 70.216C219.627 70.3227 219.174 70.4933 218.672 70.728L218.08 69.528C218.699 69.24 219.275 69.032 219.808 68.904C220.342 68.7653 220.88 68.696 221.424 68.696C222.48 68.696 223.296 68.9467 223.872 69.448C224.459 69.9493 224.752 70.664 224.752 71.592V77H223.184V76.296C222.822 76.584 222.432 76.7973 222.016 76.936C221.6 77.0747 221.147 77.144 220.656 77.144ZM219.2 74.632C219.2 75.0267 219.366 75.3467 219.696 75.592C220.038 75.8373 220.48 75.96 221.024 75.96C221.451 75.96 221.84 75.896 222.192 75.768C222.555 75.64 222.886 75.4427 223.184 75.176V73.8C222.875 73.6187 222.55 73.4907 222.208 73.416C221.878 73.3307 221.504 73.288 221.088 73.288C220.502 73.288 220.038 73.4107 219.696 73.656C219.366 73.8907 219.2 74.216 219.2 74.632ZM229.118 77L225.598 68.856H227.358L229.902 74.952L232.446 68.856H234.142L230.654 77H229.118ZM238.391 77L234.871 68.856H236.631L239.175 74.952L241.719 68.856H243.415L239.927 77H238.391ZM245.444 80.44C245.273 80.44 245.113 80.4293 244.964 80.408C244.814 80.3973 244.692 80.376 244.596 80.344V78.936C244.788 78.9787 245.022 79 245.3 79C246.046 79 246.585 78.6 246.916 77.8L247.268 77.016L244.004 68.856H245.78L248.148 75.064L250.772 68.856H252.5L248.564 78.008C248.308 78.584 248.036 79.048 247.748 79.4C247.46 79.7627 247.129 80.024 246.756 80.184C246.382 80.3547 245.945 80.44 245.444 80.44ZM261.461 77.16C260.565 77.16 259.701 76.984 258.869 76.632C258.037 76.28 257.301 75.784 256.661 75.144L257.685 73.96C258.293 74.5573 258.912 75 259.541 75.288C260.181 75.576 260.848 75.72 261.541 75.72C262.085 75.72 262.56 75.6453 262.965 75.496C263.381 75.336 263.701 75.112 263.925 74.824C264.149 74.536 264.261 74.2107 264.261 73.848C264.261 73.3467 264.085 72.9627 263.733 72.696C263.381 72.4293 262.8 72.2267 261.989 72.088L260.117 71.784C259.093 71.6027 258.325 71.272 257.813 70.792C257.312 70.312 257.061 69.672 257.061 68.872C257.061 68.232 257.232 67.672 257.573 67.192C257.914 66.7013 258.394 66.3227 259.013 66.056C259.642 65.7893 260.368 65.656 261.189 65.656C262 65.656 262.794 65.7893 263.573 66.056C264.362 66.312 265.072 66.6853 265.701 67.176L264.773 68.456C263.568 67.5387 262.346 67.08 261.109 67.08C260.618 67.08 260.192 67.1493 259.829 67.288C259.466 67.4267 259.184 67.624 258.981 67.88C258.778 68.1253 258.677 68.4133 258.677 68.744C258.677 69.2027 258.832 69.5547 259.141 69.8C259.45 70.0347 259.962 70.2053 260.677 70.312L262.485 70.616C263.669 70.808 264.538 71.1547 265.093 71.656C265.648 72.1573 265.925 72.8453 265.925 73.72C265.925 74.4027 265.738 75.0053 265.365 75.528C264.992 76.04 264.469 76.44 263.797 76.728C263.125 77.016 262.346 77.16 261.461 77.16ZM270.42 77.144C269.833 77.144 269.316 77.0427 268.868 76.84C268.42 76.6267 268.068 76.3333 267.812 75.96C267.556 75.5867 267.428 75.1547 267.428 74.664C267.428 73.896 267.721 73.2933 268.308 72.856C268.895 72.408 269.7 72.184 270.724 72.184C271.524 72.184 272.265 72.3387 272.948 72.648V71.784C272.948 71.1973 272.777 70.76 272.436 70.472C272.105 70.184 271.615 70.04 270.964 70.04C270.591 70.04 270.201 70.0987 269.796 70.216C269.391 70.3227 268.937 70.4933 268.436 70.728L267.844 69.528C268.463 69.24 269.039 69.032 269.572 68.904C270.105 68.7653 270.644 68.696 271.188 68.696C272.244 68.696 273.06 68.9467 273.636 69.448C274.223 69.9493 274.516 70.664 274.516 71.592V77H272.948V76.296C272.585 76.584 272.196 76.7973 271.78 76.936C271.364 77.0747 270.911 77.144 270.42 77.144ZM268.964 74.632C268.964 75.0267 269.129 75.3467 269.46 75.592C269.801 75.8373 270.244 75.96 270.788 75.96C271.215 75.96 271.604 75.896 271.956 75.768C272.319 75.64 272.649 75.4427 272.948 75.176V73.8C272.639 73.6187 272.313 73.4907 271.972 73.416C271.641 73.3307 271.268 73.288 270.852 73.288C270.265 73.288 269.801 73.4107 269.46 73.656C269.129 73.8907 268.964 74.216 268.964 74.632ZM278.882 77L275.362 68.856H277.122L279.666 74.952L282.21 68.856H283.906L280.418 77H278.882ZM288.888 77.144C288.088 77.144 287.363 76.9573 286.712 76.584C286.072 76.2107 285.56 75.704 285.176 75.064C284.803 74.424 284.616 73.7093 284.616 72.92C284.616 72.1413 284.797 71.4373 285.16 70.808C285.523 70.168 286.013 69.6613 286.632 69.288C287.251 68.904 287.939 68.712 288.696 68.712C289.453 68.712 290.125 68.904 290.712 69.288C291.299 69.6613 291.763 70.1733 292.104 70.824C292.456 71.464 292.632 72.1893 292.632 73V73.448H286.216C286.301 73.896 286.467 74.296 286.712 74.648C286.968 75 287.288 75.2773 287.672 75.48C288.067 75.6827 288.493 75.784 288.952 75.784C289.347 75.784 289.725 75.7253 290.088 75.608C290.461 75.48 290.771 75.2987 291.016 75.064L292.04 76.072C291.56 76.4347 291.064 76.7067 290.552 76.888C290.051 77.0587 289.496 77.144 288.888 77.144ZM286.232 72.248H291.048C290.984 71.8213 290.835 71.448 290.6 71.128C290.376 70.7973 290.093 70.5413 289.752 70.36C289.421 70.168 289.059 70.072 288.664 70.072C288.259 70.072 287.885 70.1627 287.544 70.344C287.203 70.5253 286.915 70.7813 286.68 71.112C286.456 71.432 286.307 71.8107 286.232 72.248ZM294.476 77V68.856H296.076V69.896C296.332 69.512 296.647 69.2133 297.02 69C297.404 68.776 297.836 68.664 298.316 68.664C298.647 68.6747 298.919 68.7227 299.132 68.808V70.248C298.983 70.184 298.828 70.1413 298.668 70.12C298.508 70.088 298.348 70.072 298.188 70.072C297.719 70.072 297.303 70.2 296.94 70.456C296.577 70.7013 296.289 71.064 296.076 71.544V77H294.476ZM303.533 77.16C302.829 77.16 302.168 77.0587 301.549 76.856C300.941 76.6427 300.413 76.344 299.965 75.96L300.845 74.904C301.261 75.2347 301.688 75.4907 302.125 75.672C302.573 75.8427 303.027 75.928 303.485 75.928C304.061 75.928 304.531 75.816 304.893 75.592C305.256 75.368 305.437 75.0747 305.437 74.712C305.437 74.4133 305.331 74.1787 305.117 74.008C304.904 73.8373 304.573 73.72 304.125 73.656L302.653 73.448C301.843 73.3307 301.235 73.08 300.829 72.696C300.424 72.312 300.221 71.8 300.221 71.16C300.221 70.6693 300.355 70.2427 300.621 69.88C300.888 69.5067 301.261 69.2187 301.741 69.016C302.221 68.8027 302.781 68.696 303.421 68.696C304.008 68.696 304.573 68.7813 305.117 68.952C305.661 69.1227 306.184 69.3893 306.685 69.752L305.869 70.808C305.421 70.5093 304.984 70.2907 304.557 70.152C304.141 70.0133 303.72 69.944 303.293 69.944C302.803 69.944 302.408 70.0507 302.109 70.264C301.811 70.4667 301.661 70.7333 301.661 71.064C301.661 71.3627 301.763 71.5973 301.965 71.768C302.179 71.928 302.525 72.04 303.005 72.104L304.477 72.312C305.288 72.4293 305.901 72.68 306.317 73.064C306.733 73.4373 306.941 73.944 306.941 74.584C306.941 75.0747 306.792 75.5173 306.493 75.912C306.195 76.296 305.789 76.6 305.277 76.824C304.765 77.048 304.184 77.16 303.533 77.16Z" fill="#1C2027"/>
<circle cx="70" cy="62" r="26" fill="#1C2027"/>
<path d="M58.511 52.7144H65.5741C65.7749 52.7144 65.9614 52.8187 66.068 52.9907C67.8644 55.8898 71.3697 61.4775 72.1829 62.7432C73.0072 64.0265 73.8832 63.3453 74.1923 62.8383L78.8393 55.326C79.0818 54.9339 78.8029 54.4254 78.3455 54.4254H75.5002C75.296 54.4254 75.1068 54.5334 75.0015 54.7101L72.5288 58.8539C72.3147 59.2125 71.809 59.2369 71.5622 58.9004L71.1323 58.3141C70.9891 58.1189 70.9794 57.8548 71.1078 57.6494L74.021 52.9886C74.1277 52.8179 74.3135 52.7144 74.5133 52.7144H81.4888C81.9349 52.7144 82.215 53.2003 81.9927 53.5913C80.2439 56.6683 77.11 61.9851 75.4289 64.1216C73.574 66.4791 71.8737 65.405 70.9978 64.3117L64.9863 54.6995C64.8795 54.5289 64.6937 54.4254 64.494 54.4254H61.8009C61.3423 54.4254 61.0636 54.9363 61.3085 55.3283L69.5891 68.5799C69.8149 68.9411 70.3342 68.9466 70.5673 68.5902L71.646 66.9413C71.7777 66.74 71.7626 66.5583 71.9884 66.6368C72.4549 66.7992 73.2901 67.6298 73.0276 68.052L70.6105 71.939C70.3832 72.3044 69.8571 72.3065 69.6269 71.9431L58.0206 53.6202C57.7724 53.2285 58.0508 52.7144 58.511 52.7144Z" fill="#FFFEFF"/>
</g>
<defs>
<linearGradient id="paint0_linear_1_5657" x1="263" y1="59" x2="263" y2="162.5" gradientUnits="userSpaceOnUse">
<stop stop-color="#FFFEFF" stop-opacity="0"/>
<stop offset="1" stop-color="#FFFEFF"/>
</linearGradient>
<clipPath id="clip0_1_5657">
<rect width="526" height="197" fill="white"/>
</clipPath>
</defs>
</svg>
