<svg width="526" height="197" viewBox="0 0 526 197" fill="none" xmlns="http://www.w3.org/2000/svg">
<g clip-path="url(#clip0_1_5659)">
<path d="M26.5 34C26.5 25.4396 33.4396 18.5 42 18.5H484C492.56 18.5 499.5 25.4396 499.5 34V196.5H26.5V34Z" stroke="#1C2027"/>
<rect y="59" width="526" height="168" fill="url(#paint0_linear_1_5659)"/>
<path d="M108.044 109V100.278L106.392 101.006V100.068L108.408 99.2H109.066V109H108.044ZM114.961 109.154C114.177 109.154 113.486 108.939 112.889 108.51C112.292 108.081 111.82 107.488 111.475 106.732C111.139 105.967 110.971 105.089 110.971 104.1C110.971 103.111 111.139 102.238 111.475 101.482C111.82 100.717 112.292 100.119 112.889 99.69C113.486 99.2607 114.177 99.046 114.961 99.046C115.745 99.046 116.436 99.2607 117.033 99.69C117.63 100.119 118.097 100.717 118.433 101.482C118.778 102.238 118.951 103.111 118.951 104.1C118.951 105.089 118.778 105.967 118.433 106.732C118.097 107.488 117.63 108.081 117.033 108.51C116.436 108.939 115.745 109.154 114.961 109.154ZM114.961 108.244C115.568 108.244 116.09 108.076 116.529 107.74C116.977 107.395 117.322 106.909 117.565 106.284C117.808 105.659 117.929 104.931 117.929 104.1C117.929 103.26 117.808 102.532 117.565 101.916C117.322 101.291 116.977 100.81 116.529 100.474C116.09 100.129 115.568 99.956 114.961 99.956C114.364 99.956 113.841 100.129 113.393 100.474C112.945 100.81 112.6 101.291 112.357 101.916C112.114 102.532 111.993 103.26 111.993 104.1C111.993 104.931 112.114 105.659 112.357 106.284C112.6 106.909 112.945 107.395 113.393 107.74C113.841 108.076 114.364 108.244 114.961 108.244ZM123.22 109L127.28 99.2H128.582L132.614 109H131.438L130.206 105.92H125.586L124.34 109H123.22ZM125.964 104.996H129.828L127.896 100.194L125.964 104.996ZM133.828 111.856V101.986H134.85V102.742C135.457 102.163 136.213 101.874 137.118 101.874C137.781 101.874 138.378 102.037 138.91 102.364C139.442 102.681 139.862 103.111 140.17 103.652C140.488 104.193 140.646 104.805 140.646 105.486C140.646 106.167 140.488 106.783 140.17 107.334C139.862 107.875 139.442 108.309 138.91 108.636C138.378 108.953 137.776 109.112 137.104 109.112C136.694 109.112 136.297 109.042 135.914 108.902C135.532 108.762 135.182 108.561 134.864 108.3V111.856H133.828ZM137.02 108.202C137.515 108.202 137.958 108.085 138.35 107.852C138.742 107.609 139.05 107.287 139.274 106.886C139.508 106.475 139.624 106.013 139.624 105.5C139.624 104.987 139.508 104.525 139.274 104.114C139.05 103.703 138.742 103.381 138.35 103.148C137.958 102.905 137.515 102.784 137.02 102.784C136.582 102.784 136.171 102.873 135.788 103.05C135.415 103.218 135.107 103.456 134.864 103.764V107.236C135.107 107.535 135.42 107.773 135.802 107.95C136.185 108.118 136.591 108.202 137.02 108.202ZM142.366 109V101.986H143.402V102.98C143.617 102.616 143.887 102.336 144.214 102.14C144.55 101.935 144.933 101.832 145.362 101.832C145.605 101.832 145.824 101.865 146.02 101.93V102.882C145.899 102.835 145.777 102.803 145.656 102.784C145.535 102.765 145.413 102.756 145.292 102.756C144.863 102.756 144.485 102.882 144.158 103.134C143.841 103.377 143.589 103.731 143.402 104.198V109H142.366ZM147.164 109.084C146.968 109.084 146.8 109.014 146.66 108.874C146.52 108.734 146.45 108.566 146.45 108.37C146.45 108.174 146.52 108.006 146.66 107.866C146.8 107.726 146.968 107.656 147.164 107.656C147.36 107.656 147.528 107.726 147.668 107.866C147.808 108.006 147.878 108.174 147.878 108.37C147.878 108.566 147.808 108.734 147.668 108.874C147.528 109.014 147.36 109.084 147.164 109.084ZM153.168 109V108.258L157.088 103.974C157.396 103.638 157.634 103.344 157.802 103.092C157.98 102.831 158.101 102.588 158.166 102.364C158.241 102.14 158.278 101.902 158.278 101.65C158.278 101.155 158.082 100.749 157.69 100.432C157.308 100.105 156.818 99.942 156.22 99.942C155.763 99.942 155.338 100.031 154.946 100.208C154.554 100.385 154.116 100.693 153.63 101.132L153.042 100.432C153.556 99.9653 154.074 99.62 154.596 99.396C155.119 99.1627 155.665 99.046 156.234 99.046C156.822 99.046 157.345 99.158 157.802 99.382C158.26 99.5967 158.619 99.8953 158.88 100.278C159.142 100.661 159.272 101.099 159.272 101.594C159.272 101.921 159.23 102.224 159.146 102.504C159.062 102.775 158.913 103.069 158.698 103.386C158.484 103.694 158.176 104.067 157.774 104.506L154.428 108.132L159.482 108.118V109H153.168ZM164.984 109.154C164.2 109.154 163.509 108.939 162.912 108.51C162.315 108.081 161.843 107.488 161.498 106.732C161.162 105.967 160.994 105.089 160.994 104.1C160.994 103.111 161.162 102.238 161.498 101.482C161.843 100.717 162.315 100.119 162.912 99.69C163.509 99.2607 164.2 99.046 164.984 99.046C165.768 99.046 166.459 99.2607 167.056 99.69C167.653 100.119 168.12 100.717 168.456 101.482C168.801 102.238 168.974 103.111 168.974 104.1C168.974 105.089 168.801 105.967 168.456 106.732C168.12 107.488 167.653 108.081 167.056 108.51C166.459 108.939 165.768 109.154 164.984 109.154ZM164.984 108.244C165.591 108.244 166.113 108.076 166.552 107.74C167 107.395 167.345 106.909 167.588 106.284C167.831 105.659 167.952 104.931 167.952 104.1C167.952 103.26 167.831 102.532 167.588 101.916C167.345 101.291 167 100.81 166.552 100.474C166.113 100.129 165.591 99.956 164.984 99.956C164.387 99.956 163.864 100.129 163.416 100.474C162.968 100.81 162.623 101.291 162.38 101.916C162.137 102.532 162.016 103.26 162.016 104.1C162.016 104.931 162.137 105.659 162.38 106.284C162.623 106.909 162.968 107.395 163.416 107.74C163.864 108.076 164.387 108.244 164.984 108.244ZM170.162 109V108.258L174.082 103.974C174.39 103.638 174.628 103.344 174.796 103.092C174.973 102.831 175.094 102.588 175.16 102.364C175.234 102.14 175.272 101.902 175.272 101.65C175.272 101.155 175.076 100.749 174.684 100.432C174.301 100.105 173.811 99.942 173.214 99.942C172.756 99.942 172.332 100.031 171.94 100.208C171.548 100.385 171.109 100.693 170.624 101.132L170.036 100.432C170.549 99.9653 171.067 99.62 171.59 99.396C172.112 99.1627 172.658 99.046 173.228 99.046C173.816 99.046 174.338 99.158 174.796 99.382C175.253 99.5967 175.612 99.8953 175.874 100.278C176.135 100.661 176.266 101.099 176.266 101.594C176.266 101.921 176.224 102.224 176.14 102.504C176.056 102.775 175.906 103.069 175.692 103.386C175.477 103.694 175.169 104.067 174.768 104.506L171.422 108.132L176.476 108.118V109H170.162ZM182.938 109V106.382H177.366V105.57L182.868 99.2H183.96V105.5H185.136V106.382H183.96V109H182.938ZM178.626 105.5H182.938V100.502L178.626 105.5Z" fill="#8D8F93"/>
<path d="M110.592 53L106.016 41.8H107.824L111.616 51.336L115.472 41.8H117.2L112.56 53H110.592ZM121.293 53.144C120.493 53.144 119.768 52.9573 119.117 52.584C118.477 52.2107 117.965 51.704 117.581 51.064C117.208 50.424 117.021 49.7093 117.021 48.92C117.021 48.1413 117.202 47.4373 117.565 46.808C117.928 46.168 118.418 45.6613 119.037 45.288C119.656 44.904 120.344 44.712 121.101 44.712C121.858 44.712 122.53 44.904 123.117 45.288C123.704 45.6613 124.168 46.1733 124.509 46.824C124.861 47.464 125.037 48.1893 125.037 49V49.448H118.621C118.706 49.896 118.872 50.296 119.117 50.648C119.373 51 119.693 51.2773 120.077 51.48C120.472 51.6827 120.898 51.784 121.357 51.784C121.752 51.784 122.13 51.7253 122.493 51.608C122.866 51.48 123.176 51.2987 123.421 51.064L124.445 52.072C123.965 52.4347 123.469 52.7067 122.957 52.888C122.456 53.0587 121.901 53.144 121.293 53.144ZM118.637 48.248H123.453C123.389 47.8213 123.24 47.448 123.005 47.128C122.781 46.7973 122.498 46.5413 122.157 46.36C121.826 46.168 121.464 46.072 121.069 46.072C120.664 46.072 120.29 46.1627 119.949 46.344C119.608 46.5253 119.32 46.7813 119.085 47.112C118.861 47.432 118.712 47.8107 118.637 48.248ZM126.881 53V44.856H128.481V45.896C128.737 45.512 129.052 45.2133 129.425 45C129.809 44.776 130.241 44.664 130.721 44.664C131.052 44.6747 131.324 44.7227 131.537 44.808V46.248C131.388 46.184 131.233 46.1413 131.073 46.12C130.913 46.088 130.753 46.072 130.593 46.072C130.124 46.072 129.708 46.2 129.345 46.456C128.982 46.7013 128.694 47.064 128.481 47.544V53H126.881ZM133.138 53V44.856H134.738V53H133.138ZM133.938 43.544C133.672 43.544 133.442 43.448 133.25 43.256C133.058 43.0533 132.962 42.8187 132.962 42.552C132.962 42.2747 133.058 42.0453 133.25 41.864C133.442 41.672 133.672 41.576 133.938 41.576C134.216 41.576 134.45 41.672 134.642 41.864C134.834 42.0453 134.93 42.2747 134.93 42.552C134.93 42.8187 134.834 43.0533 134.642 43.256C134.45 43.448 134.216 43.544 133.938 43.544ZM140.687 53.128C139.929 53.128 139.236 52.9413 138.607 52.568C137.977 52.1947 137.481 51.6933 137.119 51.064C136.756 50.424 136.575 49.7093 136.575 48.92C136.575 48.1307 136.756 47.4213 137.119 46.792C137.492 46.1627 137.993 45.6613 138.623 45.288C139.252 44.9147 139.951 44.728 140.719 44.728C141.167 44.728 141.599 44.7973 142.015 44.936C142.431 45.0747 142.815 45.2773 143.167 45.544V41.8L144.767 41.496V53H143.183V52.216C142.489 52.824 141.657 53.128 140.687 53.128ZM140.895 51.736C141.364 51.736 141.791 51.6507 142.175 51.48C142.569 51.3093 142.9 51.064 143.167 50.744V47.08C142.9 46.7813 142.569 46.5467 142.175 46.376C141.791 46.1947 141.364 46.104 140.895 46.104C140.383 46.104 139.919 46.2267 139.503 46.472C139.087 46.7173 138.756 47.0533 138.511 47.48C138.265 47.896 138.143 48.3707 138.143 48.904C138.143 49.4373 138.265 49.9173 138.511 50.344C138.756 50.7707 139.087 51.112 139.503 51.368C139.919 51.6133 140.383 51.736 140.895 51.736ZM146.981 53V44.856H148.581V53H146.981ZM147.781 43.544C147.515 43.544 147.285 43.448 147.093 43.256C146.901 43.0533 146.805 42.8187 146.805 42.552C146.805 42.2747 146.901 42.0453 147.093 41.864C147.285 41.672 147.515 41.576 147.781 41.576C148.059 41.576 148.293 41.672 148.485 41.864C148.677 42.0453 148.773 42.2747 148.773 42.552C148.773 42.8187 148.677 43.0533 148.485 43.256C148.293 43.448 148.059 43.544 147.781 43.544ZM154.658 53.16C153.869 53.16 153.149 52.9733 152.498 52.6C151.858 52.2267 151.351 51.72 150.978 51.08C150.605 50.44 150.418 49.7253 150.418 48.936C150.418 48.1467 150.605 47.432 150.978 46.792C151.351 46.152 151.858 45.6453 152.498 45.272C153.149 44.888 153.869 44.696 154.658 44.696C155.458 44.696 156.178 44.888 156.818 45.272C157.458 45.6453 157.965 46.152 158.338 46.792C158.711 47.432 158.898 48.1467 158.898 48.936C158.898 49.7253 158.711 50.44 158.338 51.08C157.965 51.72 157.458 52.2267 156.818 52.6C156.178 52.9733 155.458 53.16 154.658 53.16ZM154.658 51.752C155.159 51.752 155.613 51.6293 156.018 51.384C156.423 51.128 156.743 50.7867 156.978 50.36C157.213 49.9333 157.33 49.4533 157.33 48.92C157.33 48.3973 157.207 47.928 156.962 47.512C156.727 47.0853 156.407 46.744 156.002 46.488C155.607 46.232 155.159 46.104 154.658 46.104C154.157 46.104 153.703 46.232 153.298 46.488C152.903 46.744 152.583 47.0853 152.338 47.512C152.103 47.928 151.986 48.3973 151.986 48.92C151.986 49.4533 152.103 49.9333 152.338 50.36C152.573 50.7867 152.893 51.128 153.298 51.384C153.703 51.6293 154.157 51.752 154.658 51.752ZM160.731 53V44.856H162.331V45.688C162.96 45.0267 163.776 44.696 164.779 44.696C165.408 44.696 165.958 44.8293 166.427 45.096C166.907 45.3627 167.28 45.736 167.547 46.216C167.824 46.696 167.963 47.2507 167.963 47.88V53H166.363V48.152C166.363 47.512 166.182 47.0107 165.819 46.648C165.467 46.2747 164.971 46.088 164.331 46.088C163.904 46.088 163.52 46.1787 163.179 46.36C162.838 46.5413 162.555 46.8027 162.331 47.144V53H160.731ZM173.985 53V41.8H178.833C179.569 41.8 180.209 41.9227 180.753 42.168C181.297 42.4133 181.718 42.76 182.017 43.208C182.315 43.6453 182.465 44.1627 182.465 44.76C182.465 45.304 182.326 45.784 182.049 46.2C181.771 46.616 181.382 46.9467 180.881 47.192C181.51 47.416 182.001 47.7573 182.353 48.216C182.715 48.664 182.897 49.192 182.897 49.8C182.897 50.4507 182.737 51.016 182.417 51.496C182.097 51.976 181.649 52.3493 181.073 52.616C180.497 52.872 179.819 53 179.041 53H173.985ZM175.665 46.552H178.737C179.366 46.552 179.867 46.4027 180.241 46.104C180.614 45.8053 180.801 45.4 180.801 44.888C180.801 44.376 180.614 43.9707 180.241 43.672C179.867 43.3733 179.366 43.224 178.737 43.224H175.665V46.552ZM175.665 51.576H178.913C179.617 51.576 180.171 51.4107 180.577 51.08C180.993 50.7493 181.201 50.3013 181.201 49.736C181.201 49.1813 180.993 48.7387 180.577 48.408C180.171 48.0667 179.617 47.896 178.913 47.896H175.665V51.576ZM187.423 53.144C186.836 53.144 186.319 53.0427 185.871 52.84C185.423 52.6267 185.071 52.3333 184.815 51.96C184.559 51.5867 184.431 51.1547 184.431 50.664C184.431 49.896 184.724 49.2933 185.311 48.856C185.898 48.408 186.703 48.184 187.727 48.184C188.527 48.184 189.268 48.3387 189.951 48.648V47.784C189.951 47.1973 189.78 46.76 189.439 46.472C189.108 46.184 188.618 46.04 187.967 46.04C187.594 46.04 187.204 46.0987 186.799 46.216C186.394 46.3227 185.94 46.4933 185.439 46.728L184.847 45.528C185.466 45.24 186.042 45.032 186.575 44.904C187.108 44.7653 187.647 44.696 188.191 44.696C189.247 44.696 190.063 44.9467 190.639 45.448C191.226 45.9493 191.519 46.664 191.519 47.592V53H189.951V52.296C189.588 52.584 189.199 52.7973 188.783 52.936C188.367 53.0747 187.914 53.144 187.423 53.144ZM185.967 50.632C185.967 51.0267 186.132 51.3467 186.463 51.592C186.804 51.8373 187.247 51.96 187.791 51.96C188.218 51.96 188.607 51.896 188.959 51.768C189.322 51.64 189.652 51.4427 189.951 51.176V49.8C189.642 49.6187 189.316 49.4907 188.975 49.416C188.644 49.3307 188.271 49.288 187.855 49.288C187.268 49.288 186.804 49.4107 186.463 49.656C186.132 49.8907 185.967 50.216 185.967 50.632ZM193.683 53V44.856H195.283V45.688C195.912 45.0267 196.728 44.696 197.731 44.696C198.36 44.696 198.909 44.8293 199.379 45.096C199.859 45.3627 200.232 45.736 200.499 46.216C200.776 46.696 200.915 47.2507 200.915 47.88V53H199.315V48.152C199.315 47.512 199.133 47.0107 198.771 46.648C198.419 46.2747 197.923 46.088 197.283 46.088C196.856 46.088 196.472 46.1787 196.131 46.36C195.789 46.5413 195.507 46.8027 195.283 47.144V53H193.683ZM203.081 53V41.8L204.681 41.496V48.424L208.633 44.856H210.505L206.297 48.664L210.729 53H208.617L204.681 49.176V53H203.081ZM215.647 53V41.8H217.327V51.512H223.775V53H215.647ZM228.179 53.144C227.593 53.144 227.075 53.0427 226.627 52.84C226.179 52.6267 225.827 52.3333 225.571 51.96C225.315 51.5867 225.187 51.1547 225.187 50.664C225.187 49.896 225.481 49.2933 226.067 48.856C226.654 48.408 227.459 48.184 228.483 48.184C229.283 48.184 230.025 48.3387 230.707 48.648V47.784C230.707 47.1973 230.537 46.76 230.195 46.472C229.865 46.184 229.374 46.04 228.723 46.04C228.35 46.04 227.961 46.0987 227.555 46.216C227.15 46.3227 226.697 46.4933 226.195 46.728L225.603 45.528C226.222 45.24 226.798 45.032 227.331 44.904C227.865 44.7653 228.403 44.696 228.947 44.696C230.003 44.696 230.819 44.9467 231.395 45.448C231.982 45.9493 232.275 46.664 232.275 47.592V53H230.707V52.296C230.345 52.584 229.955 52.7973 229.539 52.936C229.123 53.0747 228.67 53.144 228.179 53.144ZM226.723 50.632C226.723 51.0267 226.889 51.3467 227.219 51.592C227.561 51.8373 228.003 51.96 228.547 51.96C228.974 51.96 229.363 51.896 229.715 51.768C230.078 51.64 230.409 51.4427 230.707 51.176V49.8C230.398 49.6187 230.073 49.4907 229.731 49.416C229.401 49.3307 229.027 49.288 228.611 49.288C228.025 49.288 227.561 49.4107 227.219 49.656C226.889 49.8907 226.723 50.216 226.723 50.632ZM237.513 53.16C236.884 53.16 236.329 53.0267 235.849 52.76C235.369 52.4933 234.996 52.12 234.729 51.64C234.462 51.1493 234.329 50.5893 234.329 49.96V44.856H235.913V49.688C235.913 50.328 236.094 50.8347 236.457 51.208C236.83 51.5813 237.326 51.768 237.945 51.768C238.382 51.768 238.772 51.6773 239.113 51.496C239.454 51.304 239.732 51.0373 239.945 50.696V44.856H241.545V53H239.945V52.168C239.316 52.8293 238.505 53.16 237.513 53.16ZM243.759 53V44.856H245.359V45.688C245.988 45.0267 246.804 44.696 247.807 44.696C248.436 44.696 248.986 44.8293 249.455 45.096C249.935 45.3627 250.308 45.736 250.575 46.216C250.852 46.696 250.991 47.2507 250.991 47.88V53H249.391V48.152C249.391 47.512 249.21 47.0107 248.847 46.648C248.495 46.2747 247.999 46.088 247.359 46.088C246.932 46.088 246.548 46.1787 246.207 46.36C245.866 46.5413 245.583 46.8027 245.359 47.144V53H243.759ZM256.981 53.144C256.202 53.144 255.493 52.9573 254.853 52.584C254.213 52.2107 253.706 51.704 253.333 51.064C252.97 50.424 252.789 49.7093 252.789 48.92C252.789 48.1307 252.976 47.4213 253.349 46.792C253.722 46.152 254.224 45.6453 254.853 45.272C255.493 44.888 256.202 44.696 256.981 44.696C257.6 44.696 258.192 44.8133 258.757 45.048C259.333 45.2827 259.829 45.6133 260.245 46.04L259.253 47.144C258.944 46.8027 258.597 46.5467 258.213 46.376C257.829 46.2053 257.429 46.12 257.013 46.12C256.522 46.12 256.074 46.2427 255.669 46.488C255.274 46.7333 254.96 47.0693 254.725 47.496C254.49 47.9227 254.373 48.3973 254.373 48.92C254.373 49.4427 254.49 49.9173 254.725 50.344C254.96 50.7707 255.28 51.112 255.685 51.368C256.09 51.6133 256.544 51.736 257.045 51.736C257.461 51.736 257.85 51.656 258.213 51.496C258.576 51.3253 258.917 51.08 259.237 50.76L260.213 51.784C259.786 52.2213 259.29 52.5573 258.725 52.792C258.17 53.0267 257.589 53.144 256.981 53.144ZM261.821 53V41.8L263.421 41.448V45.688C264.05 45.0267 264.866 44.696 265.869 44.696C266.498 44.696 267.048 44.8293 267.517 45.096C267.997 45.3627 268.37 45.736 268.637 46.216C268.914 46.696 269.053 47.2507 269.053 47.88V53H267.453V48.152C267.453 47.512 267.272 47.0107 266.909 46.648C266.546 46.2747 266.05 46.088 265.421 46.088C264.994 46.088 264.61 46.1787 264.269 46.36C263.928 46.5413 263.645 46.8027 263.421 47.144V53H261.821ZM275.123 53.144C274.323 53.144 273.598 52.9573 272.947 52.584C272.307 52.2107 271.795 51.704 271.411 51.064C271.038 50.424 270.851 49.7093 270.851 48.92C270.851 48.1413 271.032 47.4373 271.395 46.808C271.758 46.168 272.248 45.6613 272.867 45.288C273.486 44.904 274.174 44.712 274.931 44.712C275.688 44.712 276.36 44.904 276.947 45.288C277.534 45.6613 277.998 46.1733 278.339 46.824C278.691 47.464 278.867 48.1893 278.867 49V49.448H272.451C272.536 49.896 272.702 50.296 272.947 50.648C273.203 51 273.523 51.2773 273.907 51.48C274.302 51.6827 274.728 51.784 275.187 51.784C275.582 51.784 275.96 51.7253 276.323 51.608C276.696 51.48 277.006 51.2987 277.251 51.064L278.275 52.072C277.795 52.4347 277.299 52.7067 276.787 52.888C276.286 53.0587 275.731 53.144 275.123 53.144ZM272.467 48.248H277.283C277.219 47.8213 277.07 47.448 276.835 47.128C276.611 46.7973 276.328 46.5413 275.987 46.36C275.656 46.168 275.294 46.072 274.899 46.072C274.494 46.072 274.12 46.1627 273.779 46.344C273.438 46.5253 273.15 46.7813 272.915 47.112C272.691 47.432 272.542 47.8107 272.467 48.248ZM283.589 53.16C282.885 53.16 282.224 53.0587 281.605 52.856C280.997 52.6427 280.469 52.344 280.021 51.96L280.901 50.904C281.317 51.2347 281.744 51.4907 282.181 51.672C282.629 51.8427 283.082 51.928 283.541 51.928C284.117 51.928 284.586 51.816 284.949 51.592C285.312 51.368 285.493 51.0747 285.493 50.712C285.493 50.4133 285.386 50.1787 285.173 50.008C284.96 49.8373 284.629 49.72 284.181 49.656L282.709 49.448C281.898 49.3307 281.29 49.08 280.885 48.696C280.48 48.312 280.277 47.8 280.277 47.16C280.277 46.6693 280.41 46.2427 280.677 45.88C280.944 45.5067 281.317 45.2187 281.797 45.016C282.277 44.8027 282.837 44.696 283.477 44.696C284.064 44.696 284.629 44.7813 285.173 44.952C285.717 45.1227 286.24 45.3893 286.741 45.752L285.925 46.808C285.477 46.5093 285.04 46.2907 284.613 46.152C284.197 46.0133 283.776 45.944 283.349 45.944C282.858 45.944 282.464 46.0507 282.165 46.264C281.866 46.4667 281.717 46.7333 281.717 47.064C281.717 47.3627 281.818 47.5973 282.021 47.768C282.234 47.928 282.581 48.04 283.061 48.104L284.533 48.312C285.344 48.4293 285.957 48.68 286.373 49.064C286.789 49.4373 286.997 49.944 286.997 50.584C286.997 51.0747 286.848 51.5173 286.549 51.912C286.25 52.296 285.845 52.6 285.333 52.824C284.821 53.048 284.24 53.16 283.589 53.16ZM292.402 53V41.8H294.082V51.512H300.53V53H292.402ZM305.824 53.16C305.035 53.16 304.315 52.9733 303.664 52.6C303.024 52.2267 302.517 51.72 302.144 51.08C301.771 50.44 301.584 49.7253 301.584 48.936C301.584 48.1467 301.771 47.432 302.144 46.792C302.517 46.152 303.024 45.6453 303.664 45.272C304.315 44.888 305.035 44.696 305.824 44.696C306.624 44.696 307.344 44.888 307.984 45.272C308.624 45.6453 309.131 46.152 309.504 46.792C309.877 47.432 310.064 48.1467 310.064 48.936C310.064 49.7253 309.877 50.44 309.504 51.08C309.131 51.72 308.624 52.2267 307.984 52.6C307.344 52.9733 306.624 53.16 305.824 53.16ZM305.824 51.752C306.325 51.752 306.779 51.6293 307.184 51.384C307.589 51.128 307.909 50.7867 308.144 50.36C308.379 49.9333 308.496 49.4533 308.496 48.92C308.496 48.3973 308.373 47.928 308.128 47.512C307.893 47.0853 307.573 46.744 307.168 46.488C306.773 46.232 306.325 46.104 305.824 46.104C305.323 46.104 304.869 46.232 304.464 46.488C304.069 46.744 303.749 47.0853 303.504 47.512C303.269 47.928 303.152 48.3973 303.152 48.92C303.152 49.4533 303.269 49.9333 303.504 50.36C303.739 50.7867 304.059 51.128 304.464 51.384C304.869 51.6293 305.323 51.752 305.824 51.752ZM313.261 53L310.989 44.856H312.541L314.125 50.84L315.981 44.856H317.357L319.213 50.84L320.797 44.856H322.301L320.013 53H318.477L316.653 47.032L314.813 53H313.261ZM323.556 49.176V47.784H329.316V49.176H323.556ZM331.51 53V41.8H333.19V53H331.51ZM335.607 53V44.856H337.207V45.688C337.836 45.0267 338.652 44.696 339.655 44.696C340.284 44.696 340.834 44.8293 341.303 45.096C341.783 45.3627 342.156 45.736 342.423 46.216C342.7 46.696 342.839 47.2507 342.839 47.88V53H341.239V48.152C341.239 47.512 341.058 47.0107 340.695 46.648C340.343 46.2747 339.847 46.088 339.207 46.088C338.78 46.088 338.396 46.1787 338.055 46.36C337.714 46.5413 337.431 46.8027 337.207 47.144V53H335.607ZM348.259 53.144C347.47 53.144 346.867 52.9627 346.451 52.6C346.035 52.2267 345.827 51.688 345.827 50.984V46.2H344.099V44.856H345.827V42.776L347.411 42.392V44.856H349.811V46.2H347.411V50.616C347.411 51.032 347.502 51.3307 347.683 51.512C347.875 51.6827 348.184 51.768 348.611 51.768C348.835 51.768 349.032 51.752 349.203 51.72C349.384 51.688 349.576 51.64 349.779 51.576V52.92C349.566 52.9947 349.315 53.048 349.027 53.08C348.75 53.1227 348.494 53.144 348.259 53.144ZM355.089 53.144C354.289 53.144 353.563 52.9573 352.913 52.584C352.273 52.2107 351.761 51.704 351.377 51.064C351.003 50.424 350.817 49.7093 350.817 48.92C350.817 48.1413 350.998 47.4373 351.361 46.808C351.723 46.168 352.214 45.6613 352.833 45.288C353.451 44.904 354.139 44.712 354.897 44.712C355.654 44.712 356.326 44.904 356.913 45.288C357.499 45.6613 357.963 46.1733 358.305 46.824C358.657 47.464 358.833 48.1893 358.833 49V49.448H352.417C352.502 49.896 352.667 50.296 352.913 50.648C353.169 51 353.489 51.2773 353.873 51.48C354.267 51.6827 354.694 51.784 355.153 51.784C355.547 51.784 355.926 51.7253 356.289 51.608C356.662 51.48 356.971 51.2987 357.217 51.064L358.241 52.072C357.761 52.4347 357.265 52.7067 356.753 52.888C356.251 53.0587 355.697 53.144 355.089 53.144ZM352.433 48.248H357.249C357.185 47.8213 357.035 47.448 356.801 47.128C356.577 46.7973 356.294 46.5413 355.953 46.36C355.622 46.168 355.259 46.072 354.865 46.072C354.459 46.072 354.086 46.1627 353.745 46.344C353.403 46.5253 353.115 46.7813 352.881 47.112C352.657 47.432 352.507 47.8107 352.433 48.248ZM360.676 53V44.856H362.276V45.896C362.532 45.512 362.847 45.2133 363.22 45C363.604 44.776 364.036 44.664 364.516 44.664C364.847 44.6747 365.119 44.7227 365.332 44.808V46.248C365.183 46.184 365.028 46.1413 364.868 46.12C364.708 46.088 364.548 46.072 364.388 46.072C363.919 46.072 363.503 46.2 363.14 46.456C362.778 46.7013 362.49 47.064 362.276 47.544V53H360.676ZM370.369 53.144C369.569 53.144 368.844 52.9573 368.193 52.584C367.553 52.2107 367.041 51.704 366.657 51.064C366.284 50.424 366.097 49.7093 366.097 48.92C366.097 48.1413 366.279 47.4373 366.641 46.808C367.004 46.168 367.495 45.6613 368.113 45.288C368.732 44.904 369.42 44.712 370.177 44.712C370.935 44.712 371.607 44.904 372.193 45.288C372.78 45.6613 373.244 46.1733 373.585 46.824C373.937 47.464 374.113 48.1893 374.113 49V49.448H367.697C367.783 49.896 367.948 50.296 368.193 50.648C368.449 51 368.769 51.2773 369.153 51.48C369.548 51.6827 369.975 51.784 370.433 51.784C370.828 51.784 371.207 51.7253 371.569 51.608C371.943 51.48 372.252 51.2987 372.497 51.064L373.521 52.072C373.041 52.4347 372.545 52.7067 372.033 52.888C371.532 53.0587 370.977 53.144 370.369 53.144ZM367.713 48.248H372.529C372.465 47.8213 372.316 47.448 372.081 47.128C371.857 46.7973 371.575 46.5413 371.233 46.36C370.903 46.168 370.54 46.072 370.145 46.072C369.74 46.072 369.367 46.1627 369.025 46.344C368.684 46.5253 368.396 46.7813 368.161 47.112C367.937 47.432 367.788 47.8107 367.713 48.248ZM378.835 53.16C378.131 53.16 377.47 53.0587 376.851 52.856C376.243 52.6427 375.715 52.344 375.267 51.96L376.147 50.904C376.563 51.2347 376.99 51.4907 377.427 51.672C377.875 51.8427 378.329 51.928 378.787 51.928C379.363 51.928 379.833 51.816 380.195 51.592C380.558 51.368 380.739 51.0747 380.739 50.712C380.739 50.4133 380.633 50.1787 380.419 50.008C380.206 49.8373 379.875 49.72 379.427 49.656L377.955 49.448C377.145 49.3307 376.537 49.08 376.131 48.696C375.726 48.312 375.523 47.8 375.523 47.16C375.523 46.6693 375.657 46.2427 375.923 45.88C376.19 45.5067 376.563 45.2187 377.043 45.016C377.523 44.8027 378.083 44.696 378.723 44.696C379.31 44.696 379.875 44.7813 380.419 44.952C380.963 45.1227 381.486 45.3893 381.987 45.752L381.171 46.808C380.723 46.5093 380.286 46.2907 379.859 46.152C379.443 46.0133 379.022 45.944 378.595 45.944C378.105 45.944 377.71 46.0507 377.411 46.264C377.113 46.4667 376.963 46.7333 376.963 47.064C376.963 47.3627 377.065 47.5973 377.267 47.768C377.481 47.928 377.827 48.04 378.307 48.104L379.779 48.312C380.59 48.4293 381.203 48.68 381.619 49.064C382.035 49.4373 382.243 49.944 382.243 50.584C382.243 51.0747 382.094 51.5173 381.795 51.912C381.497 52.296 381.091 52.6 380.579 52.824C380.067 53.048 379.486 53.16 378.835 53.16ZM387.125 53.144C386.335 53.144 385.733 52.9627 385.317 52.6C384.901 52.2267 384.693 51.688 384.693 50.984V46.2H382.965V44.856H384.693V42.776L386.277 42.392V44.856H388.677V46.2H386.277V50.616C386.277 51.032 386.367 51.3307 386.549 51.512C386.741 51.6827 387.05 51.768 387.477 51.768C387.701 51.768 387.898 51.752 388.069 51.72C388.25 51.688 388.442 51.64 388.645 51.576V52.92C388.431 52.9947 388.181 53.048 387.893 53.08C387.615 53.1227 387.359 53.144 387.125 53.144ZM394.031 53V41.8H399.215C399.951 41.8 400.591 41.944 401.135 42.232C401.679 42.5093 402.106 42.8987 402.415 43.4C402.724 43.9013 402.879 44.4827 402.879 45.144C402.879 45.8053 402.724 46.3867 402.415 46.888C402.106 47.3893 401.674 47.784 401.119 48.072C400.575 48.3493 399.94 48.488 399.215 48.488H395.711V53H394.031ZM395.711 47.064H399.039C399.7 47.064 400.223 46.8933 400.607 46.552C401.002 46.2 401.199 45.736 401.199 45.16C401.199 44.584 401.002 44.1253 400.607 43.784C400.223 43.4427 399.7 43.272 399.039 43.272H395.711V47.064ZM407.75 53.144C406.95 53.144 406.225 52.9573 405.574 52.584C404.934 52.2107 404.422 51.704 404.038 51.064C403.665 50.424 403.478 49.7093 403.478 48.92C403.478 48.1413 403.66 47.4373 404.022 46.808C404.385 46.168 404.876 45.6613 405.494 45.288C406.113 44.904 406.801 44.712 407.558 44.712C408.316 44.712 408.988 44.904 409.574 45.288C410.161 45.6613 410.625 46.1733 410.966 46.824C411.318 47.464 411.494 48.1893 411.494 49V49.448H405.078C405.164 49.896 405.329 50.296 405.574 50.648C405.83 51 406.15 51.2773 406.534 51.48C406.929 51.6827 407.356 51.784 407.814 51.784C408.209 51.784 408.588 51.7253 408.95 51.608C409.324 51.48 409.633 51.2987 409.878 51.064L410.902 52.072C410.422 52.4347 409.926 52.7067 409.414 52.888C408.913 53.0587 408.358 53.144 407.75 53.144ZM405.094 48.248H409.91C409.846 47.8213 409.697 47.448 409.462 47.128C409.238 46.7973 408.956 46.5413 408.614 46.36C408.284 46.168 407.921 46.072 407.526 46.072C407.121 46.072 406.748 46.1627 406.406 46.344C406.065 46.5253 405.777 46.7813 405.542 47.112C405.318 47.432 405.169 47.8107 405.094 48.248ZM413.338 53V44.856H414.938V45.896C415.194 45.512 415.509 45.2133 415.882 45C416.266 44.776 416.698 44.664 417.178 44.664C417.509 44.6747 417.781 44.7227 417.994 44.808V46.248C417.845 46.184 417.69 46.1413 417.53 46.12C417.37 46.088 417.21 46.072 417.05 46.072C416.581 46.072 416.165 46.2 415.802 46.456C415.44 46.7013 415.152 47.064 414.938 47.544V53H413.338ZM422.396 53.16C421.692 53.16 421.031 53.0587 420.412 52.856C419.804 52.6427 419.276 52.344 418.828 51.96L419.708 50.904C420.124 51.2347 420.551 51.4907 420.988 51.672C421.436 51.8427 421.889 51.928 422.348 51.928C422.924 51.928 423.393 51.816 423.756 51.592C424.119 51.368 424.3 51.0747 424.3 50.712C424.3 50.4133 424.193 50.1787 423.98 50.008C423.767 49.8373 423.436 49.72 422.988 49.656L421.516 49.448C420.705 49.3307 420.097 49.08 419.692 48.696C419.287 48.312 419.084 47.8 419.084 47.16C419.084 46.6693 419.217 46.2427 419.484 45.88C419.751 45.5067 420.124 45.2187 420.604 45.016C421.084 44.8027 421.644 44.696 422.284 44.696C422.871 44.696 423.436 44.7813 423.98 44.952C424.524 45.1227 425.047 45.3893 425.548 45.752L424.732 46.808C424.284 46.5093 423.847 46.2907 423.42 46.152C423.004 46.0133 422.583 45.944 422.156 45.944C421.665 45.944 421.271 46.0507 420.972 46.264C420.673 46.4667 420.524 46.7333 420.524 47.064C420.524 47.3627 420.625 47.5973 420.828 47.768C421.041 47.928 421.388 48.04 421.868 48.104L423.34 48.312C424.151 48.4293 424.764 48.68 425.18 49.064C425.596 49.4373 425.804 49.944 425.804 50.584C425.804 51.0747 425.655 51.5173 425.356 51.912C425.057 52.296 424.652 52.6 424.14 52.824C423.628 53.048 423.047 53.16 422.396 53.16ZM431.303 53.16C430.514 53.16 429.794 52.9733 429.143 52.6C428.503 52.2267 427.997 51.72 427.623 51.08C427.25 50.44 427.063 49.7253 427.063 48.936C427.063 48.1467 427.25 47.432 427.623 46.792C427.997 46.152 428.503 45.6453 429.143 45.272C429.794 44.888 430.514 44.696 431.303 44.696C432.103 44.696 432.823 44.888 433.463 45.272C434.103 45.6453 434.61 46.152 434.983 46.792C435.357 47.432 435.543 48.1467 435.543 48.936C435.543 49.7253 435.357 50.44 434.983 51.08C434.61 51.72 434.103 52.2267 433.463 52.6C432.823 52.9733 432.103 53.16 431.303 53.16ZM431.303 51.752C431.805 51.752 432.258 51.6293 432.663 51.384C433.069 51.128 433.389 50.7867 433.623 50.36C433.858 49.9333 433.975 49.4533 433.975 48.92C433.975 48.3973 433.853 47.928 433.607 47.512C433.373 47.0853 433.053 46.744 432.647 46.488C432.253 46.232 431.805 46.104 431.303 46.104C430.802 46.104 430.349 46.232 429.943 46.488C429.549 46.744 429.229 47.0853 428.983 47.512C428.749 47.928 428.631 48.3973 428.631 48.92C428.631 49.4533 428.749 49.9333 428.983 50.36C429.218 50.7867 429.538 51.128 429.943 51.384C430.349 51.6293 430.802 51.752 431.303 51.752ZM437.376 53V44.856H438.976V45.688C439.606 45.0267 440.422 44.696 441.424 44.696C442.054 44.696 442.603 44.8293 443.072 45.096C443.552 45.3627 443.926 45.736 444.192 46.216C444.47 46.696 444.608 47.2507 444.608 47.88V53H443.008V48.152C443.008 47.512 442.827 47.0107 442.464 46.648C442.112 46.2747 441.616 46.088 440.976 46.088C440.55 46.088 440.166 46.1787 439.824 46.36C439.483 46.5413 439.2 46.8027 438.976 47.144V53H437.376ZM449.351 53.144C448.764 53.144 448.247 53.0427 447.799 52.84C447.351 52.6267 446.999 52.3333 446.743 51.96C446.487 51.5867 446.359 51.1547 446.359 50.664C446.359 49.896 446.652 49.2933 447.239 48.856C447.825 48.408 448.631 48.184 449.655 48.184C450.455 48.184 451.196 48.3387 451.879 48.648V47.784C451.879 47.1973 451.708 46.76 451.367 46.472C451.036 46.184 450.545 46.04 449.895 46.04C449.521 46.04 449.132 46.0987 448.727 46.216C448.321 46.3227 447.868 46.4933 447.367 46.728L446.775 45.528C447.393 45.24 447.969 45.032 448.503 44.904C449.036 44.7653 449.575 44.696 450.119 44.696C451.175 44.696 451.991 44.9467 452.567 45.448C453.153 45.9493 453.447 46.664 453.447 47.592V53H451.879V52.296C451.516 52.584 451.127 52.7973 450.711 52.936C450.295 53.0747 449.841 53.144 449.351 53.144ZM447.895 50.632C447.895 51.0267 448.06 51.3467 448.391 51.592C448.732 51.8373 449.175 51.96 449.719 51.96C450.145 51.96 450.535 51.896 450.887 51.768C451.249 51.64 451.58 51.4427 451.879 51.176V49.8C451.569 49.6187 451.244 49.4907 450.903 49.416C450.572 49.3307 450.199 49.288 449.783 49.288C449.196 49.288 448.732 49.4107 448.391 49.656C448.06 49.8907 447.895 50.216 447.895 50.632ZM455.61 53V41.8L457.21 41.496V53H455.61ZM107.136 77V65.8H108.816V75.512H115.264V77H107.136ZM120.558 77.16C119.769 77.16 119.049 76.9733 118.398 76.6C117.758 76.2267 117.251 75.72 116.878 75.08C116.505 74.44 116.318 73.7253 116.318 72.936C116.318 72.1467 116.505 71.432 116.878 70.792C117.251 70.152 117.758 69.6453 118.398 69.272C119.049 68.888 119.769 68.696 120.558 68.696C121.358 68.696 122.078 68.888 122.718 69.272C123.358 69.6453 123.865 70.152 124.238 70.792C124.611 71.432 124.798 72.1467 124.798 72.936C124.798 73.7253 124.611 74.44 124.238 75.08C123.865 75.72 123.358 76.2267 122.718 76.6C122.078 76.9733 121.358 77.16 120.558 77.16ZM120.558 75.752C121.059 75.752 121.513 75.6293 121.918 75.384C122.323 75.128 122.643 74.7867 122.878 74.36C123.113 73.9333 123.23 73.4533 123.23 72.92C123.23 72.3973 123.107 71.928 122.862 71.512C122.627 71.0853 122.307 70.744 121.902 70.488C121.507 70.232 121.059 70.104 120.558 70.104C120.057 70.104 119.603 70.232 119.198 70.488C118.803 70.744 118.483 71.0853 118.238 71.512C118.003 71.928 117.886 72.3973 117.886 72.92C117.886 73.4533 118.003 73.9333 118.238 74.36C118.473 74.7867 118.793 75.128 119.198 75.384C119.603 75.6293 120.057 75.752 120.558 75.752ZM129.285 77.144C128.698 77.144 128.181 77.0427 127.733 76.84C127.285 76.6267 126.933 76.3333 126.677 75.96C126.421 75.5867 126.293 75.1547 126.293 74.664C126.293 73.896 126.586 73.2933 127.173 72.856C127.76 72.408 128.565 72.184 129.589 72.184C130.389 72.184 131.13 72.3387 131.813 72.648V71.784C131.813 71.1973 131.642 70.76 131.301 70.472C130.97 70.184 130.48 70.04 129.829 70.04C129.456 70.04 129.066 70.0987 128.661 70.216C128.256 70.3227 127.802 70.4933 127.301 70.728L126.709 69.528C127.328 69.24 127.904 69.032 128.437 68.904C128.97 68.7653 129.509 68.696 130.053 68.696C131.109 68.696 131.925 68.9467 132.501 69.448C133.088 69.9493 133.381 70.664 133.381 71.592V77H131.813V76.296C131.45 76.584 131.061 76.7973 130.645 76.936C130.229 77.0747 129.776 77.144 129.285 77.144ZM127.829 74.632C127.829 75.0267 127.994 75.3467 128.325 75.592C128.666 75.8373 129.109 75.96 129.653 75.96C130.08 75.96 130.469 75.896 130.821 75.768C131.184 75.64 131.514 75.4427 131.813 75.176V73.8C131.504 73.6187 131.178 73.4907 130.837 73.416C130.506 73.3307 130.133 73.288 129.717 73.288C129.13 73.288 128.666 73.4107 128.325 73.656C127.994 73.8907 127.829 74.216 127.829 74.632ZM135.545 77V68.856H137.145V69.688C137.774 69.0267 138.59 68.696 139.593 68.696C140.222 68.696 140.771 68.8293 141.241 69.096C141.721 69.3627 142.094 69.736 142.361 70.216C142.638 70.696 142.777 71.2507 142.777 71.88V77H141.177V72.152C141.177 71.512 140.995 71.0107 140.633 70.648C140.281 70.2747 139.785 70.088 139.145 70.088C138.718 70.088 138.334 70.1787 137.993 70.36C137.651 70.5413 137.369 70.8027 137.145 71.144V77H135.545ZM148.798 77V65.8H153.982C154.718 65.8 155.358 65.944 155.902 66.232C156.446 66.5093 156.873 66.8987 157.182 67.4C157.492 67.9013 157.646 68.4827 157.646 69.144C157.646 69.8053 157.492 70.3867 157.182 70.888C156.873 71.3893 156.441 71.784 155.886 72.072C155.342 72.3493 154.708 72.488 153.982 72.488H150.478V77H148.798ZM150.478 71.064H153.806C154.468 71.064 154.99 70.8933 155.374 70.552C155.769 70.2 155.966 69.736 155.966 69.16C155.966 68.584 155.769 68.1253 155.374 67.784C154.99 67.4427 154.468 67.272 153.806 67.272H150.478V71.064ZM159.458 77V68.856H161.058V69.896C161.314 69.512 161.628 69.2133 162.002 69C162.386 68.776 162.818 68.664 163.298 68.664C163.628 68.6747 163.9 68.7227 164.114 68.808V70.248C163.964 70.184 163.81 70.1413 163.65 70.12C163.49 70.088 163.33 70.072 163.17 70.072C162.7 70.072 162.284 70.2 161.922 70.456C161.559 70.7013 161.271 71.064 161.058 71.544V77H159.458ZM169.119 77.16C168.329 77.16 167.609 76.9733 166.959 76.6C166.319 76.2267 165.812 75.72 165.439 75.08C165.065 74.44 164.879 73.7253 164.879 72.936C164.879 72.1467 165.065 71.432 165.439 70.792C165.812 70.152 166.319 69.6453 166.959 69.272C167.609 68.888 168.329 68.696 169.119 68.696C169.919 68.696 170.639 68.888 171.279 69.272C171.919 69.6453 172.425 70.152 172.799 70.792C173.172 71.432 173.359 72.1467 173.359 72.936C173.359 73.7253 173.172 74.44 172.799 75.08C172.425 75.72 171.919 76.2267 171.279 76.6C170.639 76.9733 169.919 77.16 169.119 77.16ZM169.119 75.752C169.62 75.752 170.073 75.6293 170.479 75.384C170.884 75.128 171.204 74.7867 171.439 74.36C171.673 73.9333 171.791 73.4533 171.791 72.92C171.791 72.3973 171.668 71.928 171.423 71.512C171.188 71.0853 170.868 70.744 170.463 70.488C170.068 70.232 169.62 70.104 169.119 70.104C168.617 70.104 168.164 70.232 167.759 70.488C167.364 70.744 167.044 71.0853 166.799 71.512C166.564 71.928 166.447 72.3973 166.447 72.92C166.447 73.4533 166.564 73.9333 166.799 74.36C167.033 74.7867 167.353 75.128 167.759 75.384C168.164 75.6293 168.617 75.752 169.119 75.752ZM179.223 80.424C178.626 80.424 178.045 80.3547 177.479 80.216C176.914 80.0773 176.402 79.88 175.943 79.624L176.551 78.376C177.031 78.6213 177.479 78.7973 177.895 78.904C178.322 79.0213 178.749 79.08 179.175 79.08C179.89 79.08 180.429 78.9147 180.791 78.584C181.165 78.2533 181.351 77.768 181.351 77.128V76.2C180.637 76.7653 179.821 77.048 178.903 77.048C178.157 77.048 177.469 76.8667 176.839 76.504C176.221 76.1307 175.73 75.6293 175.367 75C175.005 74.36 174.823 73.656 174.823 72.888C174.823 72.1093 175.005 71.4053 175.367 70.776C175.741 70.136 176.237 69.6347 176.855 69.272C177.485 68.8987 178.189 68.712 178.967 68.712C179.405 68.712 179.826 68.7867 180.231 68.936C180.647 69.0747 181.026 69.2773 181.367 69.544V68.856H182.951V77.128C182.951 78.184 182.626 78.9947 181.975 79.56C181.335 80.136 180.418 80.424 179.223 80.424ZM179.111 75.672C179.581 75.672 180.007 75.592 180.391 75.432C180.775 75.2613 181.095 75.0213 181.351 74.712V71.064C181.095 70.7653 180.77 70.5307 180.375 70.36C179.991 70.1893 179.57 70.104 179.111 70.104C178.599 70.104 178.135 70.2267 177.719 70.472C177.314 70.7173 176.989 71.0533 176.743 71.48C176.509 71.896 176.391 72.3653 176.391 72.888C176.391 73.4107 176.509 73.8853 176.743 74.312C176.989 74.728 177.314 75.0587 177.719 75.304C178.135 75.5493 178.599 75.672 179.111 75.672ZM185.152 77V68.856H186.752V69.896C187.008 69.512 187.323 69.2133 187.696 69C188.08 68.776 188.512 68.664 188.992 68.664C189.323 68.6747 189.595 68.7227 189.808 68.808V70.248C189.659 70.184 189.504 70.1413 189.344 70.12C189.184 70.088 189.024 70.072 188.864 70.072C188.395 70.072 187.979 70.2 187.616 70.456C187.253 70.7013 186.965 71.064 186.752 71.544V77H185.152ZM193.657 77.144C193.071 77.144 192.553 77.0427 192.105 76.84C191.657 76.6267 191.305 76.3333 191.049 75.96C190.793 75.5867 190.665 75.1547 190.665 74.664C190.665 73.896 190.959 73.2933 191.545 72.856C192.132 72.408 192.937 72.184 193.961 72.184C194.761 72.184 195.503 72.3387 196.185 72.648V71.784C196.185 71.1973 196.015 70.76 195.673 70.472C195.343 70.184 194.852 70.04 194.201 70.04C193.828 70.04 193.439 70.0987 193.033 70.216C192.628 70.3227 192.175 70.4933 191.673 70.728L191.081 69.528C191.7 69.24 192.276 69.032 192.809 68.904C193.343 68.7653 193.881 68.696 194.425 68.696C195.481 68.696 196.297 68.9467 196.873 69.448C197.46 69.9493 197.753 70.664 197.753 71.592V77H196.185V76.296C195.823 76.584 195.433 76.7973 195.017 76.936C194.601 77.0747 194.148 77.144 193.657 77.144ZM192.201 74.632C192.201 75.0267 192.367 75.3467 192.697 75.592C193.039 75.8373 193.481 75.96 194.025 75.96C194.452 75.96 194.841 75.896 195.193 75.768C195.556 75.64 195.887 75.4427 196.185 75.176V73.8C195.876 73.6187 195.551 73.4907 195.209 73.416C194.879 73.3307 194.505 73.288 194.089 73.288C193.503 73.288 193.039 73.4107 192.697 73.656C192.367 73.8907 192.201 74.216 192.201 74.632ZM199.917 77V68.856H201.517V69.64C202.125 69.0107 202.888 68.696 203.805 68.696C204.36 68.696 204.85 68.8187 205.277 69.064C205.714 69.3093 206.061 69.64 206.317 70.056C206.658 69.608 207.058 69.272 207.517 69.048C207.976 68.8133 208.493 68.696 209.069 68.696C209.677 68.696 210.205 68.8293 210.653 69.096C211.112 69.3627 211.469 69.736 211.725 70.216C211.992 70.696 212.125 71.2507 212.125 71.88V77H210.525V72.152C210.525 71.512 210.354 71.0107 210.013 70.648C209.682 70.2747 209.229 70.088 208.653 70.088C208.258 70.088 207.901 70.1787 207.581 70.36C207.261 70.5413 206.984 70.8187 206.749 71.192C206.77 71.2987 206.786 71.4107 206.797 71.528C206.808 71.6453 206.813 71.7627 206.813 71.88V77H205.229V72.152C205.229 71.512 205.058 71.0107 204.717 70.648C204.386 70.2747 203.933 70.088 203.357 70.088C202.973 70.088 202.626 70.1733 202.317 70.344C202.008 70.504 201.741 70.7493 201.517 71.08V77H199.917ZM223.532 77.176C222.7 77.176 221.926 77.032 221.212 76.744C220.508 76.4453 219.884 76.0347 219.34 75.512C218.806 74.9787 218.39 74.3653 218.092 73.672C217.804 72.968 217.66 72.2107 217.66 71.4C217.66 70.5893 217.804 69.8373 218.092 69.144C218.39 68.44 218.806 67.8267 219.34 67.304C219.884 66.7707 220.513 66.36 221.228 66.072C221.942 65.7733 222.71 65.624 223.532 65.624C224.118 65.624 224.689 65.704 225.244 65.864C225.809 66.0133 226.326 66.232 226.796 66.52C227.276 66.808 227.692 67.1547 228.044 67.56L226.924 68.712C226.508 68.2107 226.001 67.832 225.404 67.576C224.806 67.3093 224.182 67.176 223.532 67.176C222.934 67.176 222.38 67.2827 221.868 67.496C221.366 67.7093 220.929 68.008 220.556 68.392C220.182 68.7653 219.889 69.208 219.676 69.72C219.473 70.232 219.372 70.792 219.372 71.4C219.372 71.9973 219.473 72.552 219.676 73.064C219.889 73.576 220.188 74.024 220.572 74.408C220.956 74.792 221.404 75.0907 221.916 75.304C222.428 75.5173 222.982 75.624 223.58 75.624C224.23 75.624 224.844 75.496 225.42 75.24C226.006 74.9733 226.502 74.6 226.908 74.12L228.012 75.24C227.638 75.6347 227.212 75.9813 226.732 76.28C226.262 76.568 225.75 76.792 225.196 76.952C224.652 77.1013 224.097 77.176 223.532 77.176ZM233.421 77.16C232.632 77.16 231.912 76.9733 231.261 76.6C230.621 76.2267 230.114 75.72 229.741 75.08C229.368 74.44 229.181 73.7253 229.181 72.936C229.181 72.1467 229.368 71.432 229.741 70.792C230.114 70.152 230.621 69.6453 231.261 69.272C231.912 68.888 232.632 68.696 233.421 68.696C234.221 68.696 234.941 68.888 235.581 69.272C236.221 69.6453 236.728 70.152 237.101 70.792C237.474 71.432 237.661 72.1467 237.661 72.936C237.661 73.7253 237.474 74.44 237.101 75.08C236.728 75.72 236.221 76.2267 235.581 76.6C234.941 76.9733 234.221 77.16 233.421 77.16ZM233.421 75.752C233.922 75.752 234.376 75.6293 234.781 75.384C235.186 75.128 235.506 74.7867 235.741 74.36C235.976 73.9333 236.093 73.4533 236.093 72.92C236.093 72.3973 235.97 71.928 235.725 71.512C235.49 71.0853 235.17 70.744 234.765 70.488C234.37 70.232 233.922 70.104 233.421 70.104C232.92 70.104 232.466 70.232 232.061 70.488C231.666 70.744 231.346 71.0853 231.101 71.512C230.866 71.928 230.749 72.3973 230.749 72.92C230.749 73.4533 230.866 73.9333 231.101 74.36C231.336 74.7867 231.656 75.128 232.061 75.384C232.466 75.6293 232.92 75.752 233.421 75.752ZM239.494 77V68.856H241.094V69.64C241.702 69.0107 242.465 68.696 243.382 68.696C243.937 68.696 244.427 68.8187 244.854 69.064C245.291 69.3093 245.638 69.64 245.894 70.056C246.235 69.608 246.635 69.272 247.094 69.048C247.553 68.8133 248.07 68.696 248.646 68.696C249.254 68.696 249.782 68.8293 250.23 69.096C250.689 69.3627 251.046 69.736 251.302 70.216C251.569 70.696 251.702 71.2507 251.702 71.88V77H250.102V72.152C250.102 71.512 249.931 71.0107 249.59 70.648C249.259 70.2747 248.806 70.088 248.23 70.088C247.835 70.088 247.478 70.1787 247.158 70.36C246.838 70.5413 246.561 70.8187 246.326 71.192C246.347 71.2987 246.363 71.4107 246.374 71.528C246.385 71.6453 246.39 71.7627 246.39 71.88V77H244.806V72.152C244.806 71.512 244.635 71.0107 244.294 70.648C243.963 70.2747 243.51 70.088 242.934 70.088C242.55 70.088 242.203 70.1733 241.894 70.344C241.585 70.504 241.318 70.7493 241.094 71.08V77H239.494ZM253.861 80.264V68.856H255.445V69.64C256.128 69.032 256.96 68.728 257.941 68.728C258.709 68.728 259.402 68.9147 260.021 69.288C260.65 69.6613 261.146 70.1627 261.509 70.792C261.872 71.4213 262.053 72.1307 262.053 72.92C262.053 73.7093 261.866 74.424 261.493 75.064C261.13 75.6933 260.634 76.1947 260.005 76.568C259.386 76.9413 258.688 77.128 257.909 77.128C257.461 77.128 257.029 77.0587 256.613 76.92C256.197 76.7707 255.813 76.5627 255.461 76.296V80.264H253.861ZM257.733 75.736C258.256 75.736 258.72 75.6133 259.125 75.368C259.541 75.1227 259.872 74.792 260.117 74.376C260.362 73.9493 260.485 73.4693 260.485 72.936C260.485 72.4027 260.362 71.9227 260.117 71.496C259.872 71.0693 259.541 70.7333 259.125 70.488C258.72 70.2427 258.256 70.12 257.733 70.12C257.274 70.12 256.848 70.2053 256.453 70.376C256.058 70.5467 255.728 70.7867 255.461 71.096V74.776C255.728 75.0747 256.058 75.3093 256.453 75.48C256.858 75.6507 257.285 75.736 257.733 75.736ZM267.804 77.144C267.004 77.144 266.278 76.9573 265.628 76.584C264.988 76.2107 264.476 75.704 264.092 75.064C263.718 74.424 263.532 73.7093 263.532 72.92C263.532 72.1413 263.713 71.4373 264.076 70.808C264.438 70.168 264.929 69.6613 265.548 69.288C266.166 68.904 266.854 68.712 267.612 68.712C268.369 68.712 269.041 68.904 269.628 69.288C270.214 69.6613 270.678 70.1733 271.02 70.824C271.372 71.464 271.548 72.1893 271.548 73V73.448H265.132C265.217 73.896 265.382 74.296 265.628 74.648C265.884 75 266.204 75.2773 266.588 75.48C266.982 75.6827 267.409 75.784 267.868 75.784C268.262 75.784 268.641 75.7253 269.004 75.608C269.377 75.48 269.686 75.2987 269.932 75.064L270.956 76.072C270.476 76.4347 269.98 76.7067 269.468 76.888C268.966 77.0587 268.412 77.144 267.804 77.144ZM265.148 72.248H269.964C269.9 71.8213 269.75 71.448 269.516 71.128C269.292 70.7973 269.009 70.5413 268.668 70.36C268.337 70.168 267.974 70.072 267.58 70.072C267.174 70.072 266.801 70.1627 266.46 70.344C266.118 70.5253 265.83 70.7813 265.596 71.112C265.372 71.432 265.222 71.8107 265.148 72.248ZM276.645 77.144C275.856 77.144 275.253 76.9627 274.837 76.6C274.421 76.2267 274.213 75.688 274.213 74.984V70.2H272.485V68.856H274.213V66.776L275.797 66.392V68.856H278.197V70.2H275.797V74.616C275.797 75.032 275.888 75.3307 276.069 75.512C276.261 75.6827 276.57 75.768 276.997 75.768C277.221 75.768 277.418 75.752 277.589 75.72C277.77 75.688 277.962 75.64 278.165 75.576V76.92C277.952 76.9947 277.701 77.048 277.413 77.08C277.136 77.1227 276.88 77.144 276.645 77.144ZM279.696 77V68.856H281.296V77H279.696ZM280.496 67.544C280.229 67.544 280 67.448 279.808 67.256C279.616 67.0533 279.52 66.8187 279.52 66.552C279.52 66.2747 279.616 66.0453 279.808 65.864C280 65.672 280.229 65.576 280.496 65.576C280.773 65.576 281.008 65.672 281.2 65.864C281.392 66.0453 281.488 66.2747 281.488 66.552C281.488 66.8187 281.392 67.0533 281.2 67.256C281.008 67.448 280.773 67.544 280.496 67.544ZM286.988 77.144C286.199 77.144 285.596 76.9627 285.18 76.6C284.764 76.2267 284.556 75.688 284.556 74.984V70.2H282.828V68.856H284.556V66.776L286.14 66.392V68.856H288.54V70.2H286.14V74.616C286.14 75.032 286.231 75.3307 286.412 75.512C286.604 75.6827 286.914 75.768 287.34 75.768C287.564 75.768 287.762 75.752 287.932 75.72C288.114 75.688 288.306 75.64 288.508 75.576V76.92C288.295 76.9947 288.044 77.048 287.756 77.08C287.479 77.1227 287.223 77.144 286.988 77.144ZM290.039 77V68.856H291.639V77H290.039ZM290.839 67.544C290.572 67.544 290.343 67.448 290.151 67.256C289.959 67.0533 289.863 66.8187 289.863 66.552C289.863 66.2747 289.959 66.0453 290.151 65.864C290.343 65.672 290.572 65.576 290.839 65.576C291.116 65.576 291.351 65.672 291.543 65.864C291.735 66.0453 291.831 66.2747 291.831 66.552C291.831 66.8187 291.735 67.0533 291.543 67.256C291.351 67.448 291.116 67.544 290.839 67.544ZM296.467 77L292.947 68.856H294.707L297.251 74.952L299.795 68.856H301.491L298.003 77H296.467ZM306.474 77.144C305.674 77.144 304.948 76.9573 304.298 76.584C303.658 76.2107 303.146 75.704 302.762 75.064C302.388 74.424 302.202 73.7093 302.202 72.92C302.202 72.1413 302.383 71.4373 302.746 70.808C303.108 70.168 303.599 69.6613 304.218 69.288C304.836 68.904 305.524 68.712 306.282 68.712C307.039 68.712 307.711 68.904 308.298 69.288C308.884 69.6613 309.348 70.1733 309.69 70.824C310.042 71.464 310.218 72.1893 310.218 73V73.448H303.802C303.887 73.896 304.052 74.296 304.298 74.648C304.554 75 304.874 75.2773 305.258 75.48C305.652 75.6827 306.079 75.784 306.538 75.784C306.932 75.784 307.311 75.7253 307.674 75.608C308.047 75.48 308.356 75.2987 308.602 75.064L309.626 76.072C309.146 76.4347 308.65 76.7067 308.138 76.888C307.636 77.0587 307.082 77.144 306.474 77.144ZM303.818 72.248H308.634C308.57 71.8213 308.42 71.448 308.186 71.128C307.962 70.7973 307.679 70.5413 307.338 70.36C307.007 70.168 306.644 70.072 306.25 70.072C305.844 70.072 305.471 70.1627 305.13 70.344C304.788 70.5253 304.5 70.7813 304.266 71.112C304.042 71.432 303.892 71.8107 303.818 72.248ZM315.917 77V65.8H317.597V77H315.917ZM320.014 77V68.856H321.614V69.688C322.243 69.0267 323.059 68.696 324.062 68.696C324.691 68.696 325.241 68.8293 325.71 69.096C326.19 69.3627 326.563 69.736 326.83 70.216C327.107 70.696 327.246 71.2507 327.246 71.88V77H325.646V72.152C325.646 71.512 325.465 71.0107 325.102 70.648C324.75 70.2747 324.254 70.088 323.614 70.088C323.187 70.088 322.803 70.1787 322.462 70.36C322.121 70.5413 321.838 70.8027 321.614 71.144V77H320.014ZM332.666 77.144C331.876 77.144 331.274 76.9627 330.858 76.6C330.442 76.2267 330.234 75.688 330.234 74.984V70.2H328.506V68.856H330.234V66.776L331.818 66.392V68.856H334.218V70.2H331.818V74.616C331.818 75.032 331.908 75.3307 332.09 75.512C332.282 75.6827 332.591 75.768 333.018 75.768C333.242 75.768 333.439 75.752 333.61 75.72C333.791 75.688 333.983 75.64 334.186 75.576V76.92C333.972 76.9947 333.722 77.048 333.434 77.08C333.156 77.1227 332.9 77.144 332.666 77.144ZM339.496 77.144C338.696 77.144 337.97 76.9573 337.32 76.584C336.68 76.2107 336.168 75.704 335.784 75.064C335.41 74.424 335.224 73.7093 335.224 72.92C335.224 72.1413 335.405 71.4373 335.768 70.808C336.13 70.168 336.621 69.6613 337.24 69.288C337.858 68.904 338.546 68.712 339.304 68.712C340.061 68.712 340.733 68.904 341.32 69.288C341.906 69.6613 342.37 70.1733 342.712 70.824C343.064 71.464 343.24 72.1893 343.24 73V73.448H336.824C336.909 73.896 337.074 74.296 337.32 74.648C337.576 75 337.896 75.2773 338.28 75.48C338.674 75.6827 339.101 75.784 339.56 75.784C339.954 75.784 340.333 75.7253 340.696 75.608C341.069 75.48 341.378 75.2987 341.624 75.064L342.648 76.072C342.168 76.4347 341.672 76.7067 341.16 76.888C340.658 77.0587 340.104 77.144 339.496 77.144ZM336.84 72.248H341.656C341.592 71.8213 341.442 71.448 341.208 71.128C340.984 70.7973 340.701 70.5413 340.36 70.36C340.029 70.168 339.666 70.072 339.272 70.072C338.866 70.072 338.493 70.1627 338.152 70.344C337.81 70.5253 337.522 70.7813 337.288 71.112C337.064 71.432 336.914 71.8107 336.84 72.248ZM345.083 77V68.856H346.683V69.896C346.939 69.512 347.254 69.2133 347.627 69C348.011 68.776 348.443 68.664 348.923 68.664C349.254 68.6747 349.526 68.7227 349.739 68.808V70.248C349.59 70.184 349.435 70.1413 349.275 70.12C349.115 70.088 348.955 70.072 348.795 70.072C348.326 70.072 347.91 70.2 347.547 70.456C347.185 70.7013 346.897 71.064 346.683 71.544V77H345.083ZM354.776 77.144C353.976 77.144 353.251 76.9573 352.6 76.584C351.96 76.2107 351.448 75.704 351.064 75.064C350.691 74.424 350.504 73.7093 350.504 72.92C350.504 72.1413 350.685 71.4373 351.048 70.808C351.411 70.168 351.901 69.6613 352.52 69.288C353.139 68.904 353.827 68.712 354.584 68.712C355.341 68.712 356.013 68.904 356.6 69.288C357.187 69.6613 357.651 70.1733 357.992 70.824C358.344 71.464 358.52 72.1893 358.52 73V73.448H352.104C352.189 73.896 352.355 74.296 352.6 74.648C352.856 75 353.176 75.2773 353.56 75.48C353.955 75.6827 354.381 75.784 354.84 75.784C355.235 75.784 355.613 75.7253 355.976 75.608C356.349 75.48 356.659 75.2987 356.904 75.064L357.928 76.072C357.448 76.4347 356.952 76.7067 356.44 76.888C355.939 77.0587 355.384 77.144 354.776 77.144ZM352.12 72.248H356.936C356.872 71.8213 356.723 71.448 356.488 71.128C356.264 70.7973 355.981 70.5413 355.64 70.36C355.309 70.168 354.947 70.072 354.552 70.072C354.147 70.072 353.773 70.1627 353.432 70.344C353.091 70.5253 352.803 70.7813 352.568 71.112C352.344 71.432 352.195 71.8107 352.12 72.248ZM363.242 77.16C362.538 77.16 361.877 77.0587 361.258 76.856C360.65 76.6427 360.122 76.344 359.674 75.96L360.554 74.904C360.97 75.2347 361.397 75.4907 361.834 75.672C362.282 75.8427 362.735 75.928 363.194 75.928C363.77 75.928 364.239 75.816 364.602 75.592C364.965 75.368 365.146 75.0747 365.146 74.712C365.146 74.4133 365.039 74.1787 364.826 74.008C364.613 73.8373 364.282 73.72 363.834 73.656L362.362 73.448C361.551 73.3307 360.943 73.08 360.538 72.696C360.133 72.312 359.93 71.8 359.93 71.16C359.93 70.6693 360.063 70.2427 360.33 69.88C360.597 69.5067 360.97 69.2187 361.45 69.016C361.93 68.8027 362.49 68.696 363.13 68.696C363.717 68.696 364.282 68.7813 364.826 68.952C365.37 69.1227 365.893 69.3893 366.394 69.752L365.578 70.808C365.13 70.5093 364.693 70.2907 364.266 70.152C363.85 70.0133 363.429 69.944 363.002 69.944C362.511 69.944 362.117 70.0507 361.818 70.264C361.519 70.4667 361.37 70.7333 361.37 71.064C361.37 71.3627 361.471 71.5973 361.674 71.768C361.887 71.928 362.234 72.04 362.714 72.104L364.186 72.312C364.997 72.4293 365.61 72.68 366.026 73.064C366.442 73.4373 366.65 73.944 366.65 74.584C366.65 75.0747 366.501 75.5173 366.202 75.912C365.903 76.296 365.498 76.6 364.986 76.824C364.474 77.048 363.893 77.16 363.242 77.16ZM371.531 77.144C370.742 77.144 370.139 76.9627 369.723 76.6C369.307 76.2267 369.099 75.688 369.099 74.984V70.2H367.371V68.856H369.099V66.776L370.683 66.392V68.856H373.083V70.2H370.683V74.616C370.683 75.032 370.774 75.3307 370.955 75.512C371.147 75.6827 371.457 75.768 371.883 75.768C372.107 75.768 372.305 75.752 372.475 75.72C372.657 75.688 372.849 75.64 373.051 75.576V76.92C372.838 76.9947 372.587 77.048 372.299 77.08C372.022 77.1227 371.766 77.144 371.531 77.144ZM378.438 77V65.8H383.51C384.257 65.8 384.907 65.9387 385.462 66.216C386.027 66.4933 386.465 66.8827 386.774 67.384C387.094 67.8747 387.254 68.4507 387.254 69.112C387.254 69.848 387.046 70.4827 386.63 71.016C386.214 71.5493 385.654 71.9333 384.95 72.168L387.446 77H385.59L383.27 72.408H380.118V77H378.438ZM380.118 71H383.382C384.043 71 384.571 70.8347 384.966 70.504C385.371 70.1627 385.574 69.704 385.574 69.128C385.574 68.5733 385.371 68.1253 384.966 67.784C384.571 67.4427 384.043 67.272 383.382 67.272H380.118V71ZM391.533 77.144C390.946 77.144 390.429 77.0427 389.981 76.84C389.533 76.6267 389.181 76.3333 388.925 75.96C388.669 75.5867 388.541 75.1547 388.541 74.664C388.541 73.896 388.834 73.2933 389.421 72.856C390.007 72.408 390.813 72.184 391.837 72.184C392.637 72.184 393.378 72.3387 394.061 72.648V71.784C394.061 71.1973 393.89 70.76 393.549 70.472C393.218 70.184 392.727 70.04 392.077 70.04C391.703 70.04 391.314 70.0987 390.909 70.216C390.503 70.3227 390.05 70.4933 389.549 70.728L388.957 69.528C389.575 69.24 390.151 69.032 390.685 68.904C391.218 68.7653 391.757 68.696 392.301 68.696C393.357 68.696 394.173 68.9467 394.749 69.448C395.335 69.9493 395.629 70.664 395.629 71.592V77H394.061V76.296C393.698 76.584 393.309 76.7973 392.893 76.936C392.477 77.0747 392.023 77.144 391.533 77.144ZM390.077 74.632C390.077 75.0267 390.242 75.3467 390.573 75.592C390.914 75.8373 391.357 75.96 391.901 75.96C392.327 75.96 392.717 75.896 393.069 75.768C393.431 75.64 393.762 75.4427 394.061 75.176V73.8C393.751 73.6187 393.426 73.4907 393.085 73.416C392.754 73.3307 392.381 73.288 391.965 73.288C391.378 73.288 390.914 73.4107 390.573 73.656C390.242 73.8907 390.077 74.216 390.077 74.632ZM401.046 77.144C400.256 77.144 399.654 76.9627 399.238 76.6C398.822 76.2267 398.614 75.688 398.614 74.984V70.2H396.886V68.856H398.614V66.776L400.198 66.392V68.856H402.598V70.2H400.198V74.616C400.198 75.032 400.288 75.3307 400.47 75.512C400.662 75.6827 400.971 75.768 401.398 75.768C401.622 75.768 401.819 75.752 401.99 75.72C402.171 75.688 402.363 75.64 402.566 75.576V76.92C402.352 76.9947 402.102 77.048 401.814 77.08C401.536 77.1227 401.28 77.144 401.046 77.144ZM407.875 77.144C407.075 77.144 406.35 76.9573 405.699 76.584C405.059 76.2107 404.547 75.704 404.163 75.064C403.79 74.424 403.603 73.7093 403.603 72.92C403.603 72.1413 403.785 71.4373 404.147 70.808C404.51 70.168 405.001 69.6613 405.619 69.288C406.238 68.904 406.926 68.712 407.683 68.712C408.441 68.712 409.113 68.904 409.699 69.288C410.286 69.6613 410.75 70.1733 411.091 70.824C411.443 71.464 411.619 72.1893 411.619 73V73.448H405.203C405.289 73.896 405.454 74.296 405.699 74.648C405.955 75 406.275 75.2773 406.659 75.48C407.054 75.6827 407.481 75.784 407.939 75.784C408.334 75.784 408.713 75.7253 409.075 75.608C409.449 75.48 409.758 75.2987 410.003 75.064L411.027 76.072C410.547 76.4347 410.051 76.7067 409.539 76.888C409.038 77.0587 408.483 77.144 407.875 77.144ZM405.219 72.248H410.035C409.971 71.8213 409.822 71.448 409.587 71.128C409.363 70.7973 409.081 70.5413 408.739 70.36C408.409 70.168 408.046 70.072 407.651 70.072C407.246 70.072 406.873 70.1627 406.531 70.344C406.19 70.5253 405.902 70.7813 405.667 71.112C405.443 71.432 405.294 71.8107 405.219 72.248ZM416.342 77.16C415.638 77.16 414.976 77.0587 414.358 76.856C413.75 76.6427 413.222 76.344 412.774 75.96L413.654 74.904C414.07 75.2347 414.496 75.4907 414.934 75.672C415.382 75.8427 415.835 75.928 416.294 75.928C416.87 75.928 417.339 75.816 417.702 75.592C418.064 75.368 418.246 75.0747 418.246 74.712C418.246 74.4133 418.139 74.1787 417.926 74.008C417.712 73.8373 417.382 73.72 416.934 73.656L415.462 73.448C414.651 73.3307 414.043 73.08 413.638 72.696C413.232 72.312 413.03 71.8 413.03 71.16C413.03 70.6693 413.163 70.2427 413.43 69.88C413.696 69.5067 414.07 69.2187 414.55 69.016C415.03 68.8027 415.59 68.696 416.23 68.696C416.816 68.696 417.382 68.7813 417.926 68.952C418.47 69.1227 418.992 69.3893 419.494 69.752L418.678 70.808C418.23 70.5093 417.792 70.2907 417.366 70.152C416.95 70.0133 416.528 69.944 416.102 69.944C415.611 69.944 415.216 70.0507 414.918 70.264C414.619 70.4667 414.47 70.7333 414.47 71.064C414.47 71.3627 414.571 71.5973 414.774 71.768C414.987 71.928 415.334 72.04 415.814 72.104L417.286 72.312C418.096 72.4293 418.71 72.68 419.126 73.064C419.542 73.4373 419.75 73.944 419.75 74.584C419.75 75.0747 419.6 75.5173 419.302 75.912C419.003 76.296 418.598 76.6 418.086 76.824C417.574 77.048 416.992 77.16 416.342 77.16Z" fill="#1C2027"/>
<circle cx="70" cy="62" r="26" fill="#1C2027"/>
<path d="M58.511 52.7144H65.5741C65.7749 52.7144 65.9614 52.8187 66.068 52.9907C67.8644 55.8898 71.3697 61.4775 72.1829 62.7432C73.0072 64.0265 73.8832 63.3453 74.1923 62.8383L78.8393 55.326C79.0818 54.9339 78.8029 54.4254 78.3455 54.4254H75.5002C75.296 54.4254 75.1068 54.5334 75.0015 54.7101L72.5288 58.8539C72.3147 59.2125 71.809 59.2369 71.5622 58.9004L71.1323 58.3141C70.9891 58.1189 70.9794 57.8548 71.1078 57.6494L74.021 52.9886C74.1277 52.8179 74.3135 52.7144 74.5133 52.7144H81.4888C81.9349 52.7144 82.215 53.2003 81.9927 53.5913C80.2439 56.6683 77.11 61.9851 75.4289 64.1216C73.574 66.4791 71.8737 65.405 70.9978 64.3117L64.9863 54.6995C64.8795 54.5289 64.6937 54.4254 64.494 54.4254H61.8009C61.3423 54.4254 61.0636 54.9363 61.3085 55.3283L69.5891 68.5799C69.8149 68.9411 70.3342 68.9466 70.5673 68.5902L71.646 66.9413C71.7777 66.74 71.7626 66.5583 71.9884 66.6368C72.4549 66.7992 73.2901 67.6298 73.0276 68.052L70.6105 71.939C70.3832 72.3044 69.8571 72.3065 69.6269 71.9431L58.0206 53.6202C57.7724 53.2285 58.0508 52.7144 58.511 52.7144Z" fill="#FFFEFF"/>
</g>
<defs>
<linearGradient id="paint0_linear_1_5659" x1="263" y1="59" x2="263" y2="162.5" gradientUnits="userSpaceOnUse">
<stop stop-color="#FFFEFF" stop-opacity="0"/>
<stop offset="1" stop-color="#FFFEFF"/>
</linearGradient>
<clipPath id="clip0_1_5659">
<rect width="526" height="197" fill="white"/>
</clipPath>
</defs>
</svg>
