<svg width="526" height="197" viewBox="0 0 526 197" fill="none" xmlns="http://www.w3.org/2000/svg">
<g clip-path="url(#clip0_1_5658)">
<path d="M26.5 34C26.5 25.4396 33.4396 18.5 42 18.5H484C492.56 18.5 499.5 25.4396 499.5 34V196.5H26.5V34Z" stroke="#1C2027"/>
<rect y="59" width="526" height="168" fill="url(#paint0_linear_1_5658)"/>
<path d="M108.044 109V100.278L106.392 101.006V100.068L108.408 99.2H109.066V109H108.044ZM111.769 109L116.641 100.082H110.761V99.2H117.733V99.984L112.917 109H111.769ZM122.738 109V99.2H124.25L127.596 106.158L130.928 99.2H132.44V109H131.418V100.432L127.582 108.3L123.746 100.446V109H122.738ZM136.751 109.126C136.238 109.126 135.785 109.037 135.393 108.86C135.01 108.683 134.707 108.435 134.483 108.118C134.268 107.801 134.161 107.432 134.161 107.012C134.161 106.349 134.413 105.827 134.917 105.444C135.421 105.061 136.102 104.87 136.961 104.87C137.717 104.87 138.403 105.029 139.019 105.346V104.422C139.019 103.862 138.86 103.442 138.543 103.162C138.226 102.873 137.764 102.728 137.157 102.728C136.812 102.728 136.462 102.779 136.107 102.882C135.762 102.975 135.379 103.129 134.959 103.344L134.567 102.546C135.071 102.303 135.538 102.126 135.967 102.014C136.396 101.902 136.826 101.846 137.255 101.846C138.142 101.846 138.823 102.056 139.299 102.476C139.784 102.896 140.027 103.498 140.027 104.282V109H139.019V108.314C138.702 108.585 138.352 108.79 137.969 108.93C137.596 109.061 137.19 109.126 136.751 109.126ZM135.155 106.984C135.155 107.376 135.318 107.698 135.645 107.95C135.981 108.193 136.41 108.314 136.933 108.314C137.353 108.314 137.736 108.249 138.081 108.118C138.426 107.987 138.739 107.782 139.019 107.502V106.186C138.73 105.99 138.422 105.85 138.095 105.766C137.768 105.673 137.4 105.626 136.989 105.626C136.429 105.626 135.981 105.752 135.645 106.004C135.318 106.247 135.155 106.573 135.155 106.984ZM142.195 111.996C142.064 111.996 141.938 111.987 141.817 111.968C141.705 111.959 141.612 111.945 141.537 111.926V110.988C141.696 111.025 141.892 111.044 142.125 111.044C142.741 111.044 143.208 110.68 143.525 109.952L143.945 108.986L141.089 101.986H142.237L144.505 107.74L146.955 101.986H148.075L144.575 110.092C144.379 110.54 144.169 110.904 143.945 111.184C143.721 111.464 143.464 111.669 143.175 111.8C142.895 111.931 142.568 111.996 142.195 111.996ZM152.41 109V108.258L156.33 103.974C156.638 103.638 156.876 103.344 157.044 103.092C157.221 102.831 157.342 102.588 157.408 102.364C157.482 102.14 157.52 101.902 157.52 101.65C157.52 101.155 157.324 100.749 156.932 100.432C156.549 100.105 156.059 99.942 155.462 99.942C155.004 99.942 154.58 100.031 154.188 100.208C153.796 100.385 153.357 100.693 152.872 101.132L152.284 100.432C152.797 99.9653 153.315 99.62 153.838 99.396C154.36 99.1627 154.906 99.046 155.476 99.046C156.064 99.046 156.586 99.158 157.044 99.382C157.501 99.5967 157.86 99.8953 158.122 100.278C158.383 100.661 158.514 101.099 158.514 101.594C158.514 101.921 158.472 102.224 158.388 102.504C158.304 102.775 158.154 103.069 157.94 103.386C157.725 103.694 157.417 104.067 157.016 104.506L153.67 108.132L158.724 108.118V109H152.41ZM164.226 109.154C163.442 109.154 162.751 108.939 162.154 108.51C161.556 108.081 161.085 107.488 160.74 106.732C160.404 105.967 160.236 105.089 160.236 104.1C160.236 103.111 160.404 102.238 160.74 101.482C161.085 100.717 161.556 100.119 162.154 99.69C162.751 99.2607 163.442 99.046 164.226 99.046C165.01 99.046 165.7 99.2607 166.298 99.69C166.895 100.119 167.362 100.717 167.698 101.482C168.043 102.238 168.216 103.111 168.216 104.1C168.216 105.089 168.043 105.967 167.698 106.732C167.362 107.488 166.895 108.081 166.298 108.51C165.7 108.939 165.01 109.154 164.226 109.154ZM164.226 108.244C164.832 108.244 165.355 108.076 165.794 107.74C166.242 107.395 166.587 106.909 166.83 106.284C167.072 105.659 167.194 104.931 167.194 104.1C167.194 103.26 167.072 102.532 166.83 101.916C166.587 101.291 166.242 100.81 165.794 100.474C165.355 100.129 164.832 99.956 164.226 99.956C163.628 99.956 163.106 100.129 162.658 100.474C162.21 100.81 161.864 101.291 161.622 101.916C161.379 102.532 161.258 103.26 161.258 104.1C161.258 104.931 161.379 105.659 161.622 106.284C161.864 106.909 162.21 107.395 162.658 107.74C163.106 108.076 163.628 108.244 164.226 108.244ZM169.403 109V108.258L173.323 103.974C173.631 103.638 173.869 103.344 174.037 103.092C174.215 102.831 174.336 102.588 174.401 102.364C174.476 102.14 174.513 101.902 174.513 101.65C174.513 101.155 174.317 100.749 173.925 100.432C173.543 100.105 173.053 99.942 172.455 99.942C171.998 99.942 171.573 100.031 171.181 100.208C170.789 100.385 170.351 100.693 169.865 101.132L169.277 100.432C169.791 99.9653 170.309 99.62 170.831 99.396C171.354 99.1627 171.9 99.046 172.469 99.046C173.057 99.046 173.58 99.158 174.037 99.382C174.495 99.5967 174.854 99.8953 175.115 100.278C175.377 100.661 175.507 101.099 175.507 101.594C175.507 101.921 175.465 102.224 175.381 102.504C175.297 102.775 175.148 103.069 174.933 103.386C174.719 103.694 174.411 104.067 174.009 104.506L170.663 108.132L175.717 108.118V109H169.403ZM182.18 109V106.382H176.608V105.57L182.11 99.2H183.202V105.5H184.378V106.382H183.202V109H182.18ZM177.868 105.5H182.18V100.502L177.868 105.5Z" fill="#8D8F93"/>
<path d="M107.136 53V41.8H108.768L115.024 50.12V41.8H116.608V53H115.136L108.736 44.424V53H107.136ZM122.934 53.144C122.134 53.144 121.408 52.9573 120.758 52.584C120.118 52.2107 119.606 51.704 119.222 51.064C118.848 50.424 118.662 49.7093 118.662 48.92C118.662 48.1413 118.843 47.4373 119.206 46.808C119.568 46.168 120.059 45.6613 120.678 45.288C121.296 44.904 121.984 44.712 122.742 44.712C123.499 44.712 124.171 44.904 124.758 45.288C125.344 45.6613 125.808 46.1733 126.15 46.824C126.502 47.464 126.678 48.1893 126.678 49V49.448H120.262C120.347 49.896 120.512 50.296 120.758 50.648C121.014 51 121.334 51.2773 121.718 51.48C122.112 51.6827 122.539 51.784 122.998 51.784C123.392 51.784 123.771 51.7253 124.134 51.608C124.507 51.48 124.816 51.2987 125.062 51.064L126.086 52.072C125.606 52.4347 125.11 52.7067 124.598 52.888C124.096 53.0587 123.542 53.144 122.934 53.144ZM120.278 48.248H125.094C125.03 47.8213 124.88 47.448 124.646 47.128C124.422 46.7973 124.139 46.5413 123.798 46.36C123.467 46.168 123.104 46.072 122.71 46.072C122.304 46.072 121.931 46.1627 121.59 46.344C121.248 46.5253 120.96 46.7813 120.726 47.112C120.502 47.432 120.352 47.8107 120.278 48.248ZM129.885 53L127.613 44.856H129.165L130.749 50.84L132.605 44.856H133.981L135.837 50.84L137.421 44.856H138.925L136.637 53H135.101L133.277 47.032L131.437 53H129.885ZM144.244 53V41.8H145.924V53H144.244ZM148.341 53V44.856H149.941V45.688C150.57 45.0267 151.386 44.696 152.389 44.696C153.018 44.696 153.568 44.8293 154.037 45.096C154.517 45.3627 154.89 45.736 155.157 46.216C155.434 46.696 155.573 47.2507 155.573 47.88V53H153.973V48.152C153.973 47.512 153.792 47.0107 153.429 46.648C153.077 46.2747 152.581 46.088 151.941 46.088C151.514 46.088 151.13 46.1787 150.789 46.36C150.448 46.5413 150.165 46.8027 149.941 47.144V53H148.341ZM160.539 53.16C159.835 53.16 159.174 53.0587 158.555 52.856C157.947 52.6427 157.419 52.344 156.971 51.96L157.851 50.904C158.267 51.2347 158.694 51.4907 159.131 51.672C159.579 51.8427 160.032 51.928 160.491 51.928C161.067 51.928 161.536 51.816 161.899 51.592C162.262 51.368 162.443 51.0747 162.443 50.712C162.443 50.4133 162.336 50.1787 162.123 50.008C161.91 49.8373 161.579 49.72 161.131 49.656L159.659 49.448C158.848 49.3307 158.24 49.08 157.835 48.696C157.43 48.312 157.227 47.8 157.227 47.16C157.227 46.6693 157.36 46.2427 157.627 45.88C157.894 45.5067 158.267 45.2187 158.747 45.016C159.227 44.8027 159.787 44.696 160.427 44.696C161.014 44.696 161.579 44.7813 162.123 44.952C162.667 45.1227 163.19 45.3893 163.691 45.752L162.875 46.808C162.427 46.5093 161.99 46.2907 161.563 46.152C161.147 46.0133 160.726 45.944 160.299 45.944C159.808 45.944 159.414 46.0507 159.115 46.264C158.816 46.4667 158.667 46.7333 158.667 47.064C158.667 47.3627 158.768 47.5973 158.971 47.768C159.184 47.928 159.531 48.04 160.011 48.104L161.483 48.312C162.294 48.4293 162.907 48.68 163.323 49.064C163.739 49.4373 163.947 49.944 163.947 50.584C163.947 51.0747 163.798 51.5173 163.499 51.912C163.2 52.296 162.795 52.6 162.283 52.824C161.771 53.048 161.19 53.16 160.539 53.16ZM168.649 53.16C168.019 53.16 167.465 53.0267 166.985 52.76C166.505 52.4933 166.131 52.12 165.865 51.64C165.598 51.1493 165.465 50.5893 165.465 49.96V44.856H167.049V49.688C167.049 50.328 167.23 50.8347 167.593 51.208C167.966 51.5813 168.462 51.768 169.081 51.768C169.518 51.768 169.907 51.6773 170.249 51.496C170.59 51.304 170.867 51.0373 171.081 50.696V44.856H172.681V53H171.081V52.168C170.451 52.8293 169.641 53.16 168.649 53.16ZM174.895 53V44.856H176.495V45.896C176.751 45.512 177.065 45.2133 177.439 45C177.823 44.776 178.255 44.664 178.735 44.664C179.065 44.6747 179.337 44.7227 179.551 44.808V46.248C179.401 46.184 179.247 46.1413 179.087 46.12C178.927 46.088 178.767 46.072 178.607 46.072C178.137 46.072 177.721 46.2 177.359 46.456C176.996 46.7013 176.708 47.064 176.495 47.544V53H174.895ZM183.4 53.144C182.813 53.144 182.296 53.0427 181.848 52.84C181.4 52.6267 181.048 52.3333 180.792 51.96C180.536 51.5867 180.408 51.1547 180.408 50.664C180.408 49.896 180.701 49.2933 181.288 48.856C181.875 48.408 182.68 48.184 183.704 48.184C184.504 48.184 185.245 48.3387 185.928 48.648V47.784C185.928 47.1973 185.757 46.76 185.416 46.472C185.085 46.184 184.595 46.04 183.944 46.04C183.571 46.04 183.181 46.0987 182.776 46.216C182.371 46.3227 181.917 46.4933 181.416 46.728L180.824 45.528C181.443 45.24 182.019 45.032 182.552 44.904C183.085 44.7653 183.624 44.696 184.168 44.696C185.224 44.696 186.04 44.9467 186.616 45.448C187.203 45.9493 187.496 46.664 187.496 47.592V53H185.928V52.296C185.565 52.584 185.176 52.7973 184.76 52.936C184.344 53.0747 183.891 53.144 183.4 53.144ZM181.944 50.632C181.944 51.0267 182.109 51.3467 182.44 51.592C182.781 51.8373 183.224 51.96 183.768 51.96C184.195 51.96 184.584 51.896 184.936 51.768C185.299 51.64 185.629 51.4427 185.928 51.176V49.8C185.619 49.6187 185.293 49.4907 184.952 49.416C184.621 49.3307 184.248 49.288 183.832 49.288C183.245 49.288 182.781 49.4107 182.44 49.656C182.109 49.8907 181.944 50.216 181.944 50.632ZM189.66 53V44.856H191.26V45.688C191.889 45.0267 192.705 44.696 193.708 44.696C194.337 44.696 194.886 44.8293 195.356 45.096C195.836 45.3627 196.209 45.736 196.476 46.216C196.753 46.696 196.892 47.2507 196.892 47.88V53H195.292V48.152C195.292 47.512 195.11 47.0107 194.748 46.648C194.396 46.2747 193.9 46.088 193.26 46.088C192.833 46.088 192.449 46.1787 192.108 46.36C191.766 46.5413 191.484 46.8027 191.26 47.144V53H189.66ZM202.882 53.144C202.103 53.144 201.394 52.9573 200.754 52.584C200.114 52.2107 199.607 51.704 199.234 51.064C198.871 50.424 198.69 49.7093 198.69 48.92C198.69 48.1307 198.876 47.4213 199.25 46.792C199.623 46.152 200.124 45.6453 200.754 45.272C201.394 44.888 202.103 44.696 202.882 44.696C203.5 44.696 204.092 44.8133 204.658 45.048C205.234 45.2827 205.73 45.6133 206.146 46.04L205.154 47.144C204.844 46.8027 204.498 46.5467 204.114 46.376C203.73 46.2053 203.33 46.12 202.914 46.12C202.423 46.12 201.975 46.2427 201.57 46.488C201.175 46.7333 200.86 47.0693 200.626 47.496C200.391 47.9227 200.274 48.3973 200.274 48.92C200.274 49.4427 200.391 49.9173 200.626 50.344C200.86 50.7707 201.18 51.112 201.586 51.368C201.991 51.6133 202.444 51.736 202.946 51.736C203.362 51.736 203.751 51.656 204.114 51.496C204.476 51.3253 204.818 51.08 205.138 50.76L206.114 51.784C205.687 52.2213 205.191 52.5573 204.626 52.792C204.071 53.0267 203.49 53.144 202.882 53.144ZM211.391 53.144C210.591 53.144 209.866 52.9573 209.215 52.584C208.575 52.2107 208.063 51.704 207.679 51.064C207.306 50.424 207.119 49.7093 207.119 48.92C207.119 48.1413 207.3 47.4373 207.663 46.808C208.026 46.168 208.516 45.6613 209.135 45.288C209.754 44.904 210.442 44.712 211.199 44.712C211.956 44.712 212.628 44.904 213.215 45.288C213.802 45.6613 214.266 46.1733 214.607 46.824C214.959 47.464 215.135 48.1893 215.135 49V49.448H208.719C208.804 49.896 208.97 50.296 209.215 50.648C209.471 51 209.791 51.2773 210.175 51.48C210.57 51.6827 210.996 51.784 211.455 51.784C211.85 51.784 212.228 51.7253 212.591 51.608C212.964 51.48 213.274 51.2987 213.519 51.064L214.543 52.072C214.063 52.4347 213.567 52.7067 213.055 52.888C212.554 53.0587 211.999 53.144 211.391 53.144ZM208.735 48.248H213.551C213.487 47.8213 213.338 47.448 213.103 47.128C212.879 46.7973 212.596 46.5413 212.255 46.36C211.924 46.168 211.562 46.072 211.167 46.072C210.762 46.072 210.388 46.1627 210.047 46.344C209.706 46.5253 209.418 46.7813 209.183 47.112C208.959 47.432 208.81 47.8107 208.735 48.248ZM226.179 53.176C225.368 53.176 224.611 53.032 223.907 52.744C223.203 52.4453 222.579 52.0347 222.035 51.512C221.501 50.9787 221.085 50.3653 220.787 49.672C220.499 48.968 220.355 48.2107 220.355 47.4C220.355 46.5893 220.499 45.8373 220.787 45.144C221.085 44.44 221.501 43.8267 222.035 43.304C222.579 42.7707 223.203 42.36 223.907 42.072C224.611 41.7733 225.368 41.624 226.179 41.624C226.989 41.624 227.747 41.7733 228.451 42.072C229.165 42.36 229.789 42.7707 230.323 43.304C230.856 43.8267 231.272 44.44 231.571 45.144C231.869 45.8373 232.019 46.5893 232.019 47.4C232.019 48.2107 231.869 48.968 231.571 49.672C231.272 50.3653 230.856 50.9787 230.323 51.512C229.789 52.0347 229.165 52.4453 228.451 52.744C227.747 53.032 226.989 53.176 226.179 53.176ZM226.195 51.624C226.771 51.624 227.304 51.5173 227.795 51.304C228.296 51.0907 228.733 50.7973 229.107 50.424C229.48 50.04 229.773 49.592 229.987 49.08C230.2 48.5573 230.307 47.9973 230.307 47.4C230.307 46.792 230.2 46.232 229.987 45.72C229.773 45.208 229.48 44.7653 229.107 44.392C228.733 44.008 228.296 43.7093 227.795 43.496C227.304 43.2827 226.771 43.176 226.195 43.176C225.608 43.176 225.064 43.2827 224.563 43.496C224.061 43.7093 223.624 44.008 223.251 44.392C222.877 44.7653 222.584 45.208 222.371 45.72C222.168 46.232 222.067 46.792 222.067 47.4C222.067 47.9973 222.168 48.5573 222.371 49.08C222.584 49.592 222.877 50.04 223.251 50.424C223.624 50.7973 224.061 51.0907 224.563 51.304C225.064 51.5173 225.608 51.624 226.195 51.624ZM233.916 56.264V44.856H235.5V45.64C236.183 45.032 237.015 44.728 237.996 44.728C238.764 44.728 239.457 44.9147 240.076 45.288C240.705 45.6613 241.201 46.1627 241.564 46.792C241.927 47.4213 242.108 48.1307 242.108 48.92C242.108 49.7093 241.921 50.424 241.548 51.064C241.185 51.6933 240.689 52.1947 240.06 52.568C239.441 52.9413 238.743 53.128 237.964 53.128C237.516 53.128 237.084 53.0587 236.668 52.92C236.252 52.7707 235.868 52.5627 235.516 52.296V56.264H233.916ZM237.788 51.736C238.311 51.736 238.775 51.6133 239.18 51.368C239.596 51.1227 239.927 50.792 240.172 50.376C240.417 49.9493 240.54 49.4693 240.54 48.936C240.54 48.4027 240.417 47.9227 240.172 47.496C239.927 47.0693 239.596 46.7333 239.18 46.488C238.775 46.2427 238.311 46.12 237.788 46.12C237.329 46.12 236.903 46.2053 236.508 46.376C236.113 46.5467 235.783 46.7867 235.516 47.096V50.776C235.783 51.0747 236.113 51.3093 236.508 51.48C236.913 51.6507 237.34 51.736 237.788 51.736ZM246.974 53.144C246.185 53.144 245.582 52.9627 245.166 52.6C244.75 52.2267 244.542 51.688 244.542 50.984V46.2H242.814V44.856H244.542V42.776L246.126 42.392V44.856H248.526V46.2H246.126V50.616C246.126 51.032 246.217 51.3307 246.398 51.512C246.59 51.6827 246.899 51.768 247.326 51.768C247.55 51.768 247.747 51.752 247.918 51.72C248.099 51.688 248.291 51.64 248.494 51.576V52.92C248.281 52.9947 248.03 53.048 247.742 53.08C247.465 53.1227 247.209 53.144 246.974 53.144ZM250.025 53V44.856H251.625V53H250.025ZM250.825 43.544C250.558 43.544 250.329 43.448 250.137 43.256C249.945 43.0533 249.849 42.8187 249.849 42.552C249.849 42.2747 249.945 42.0453 250.137 41.864C250.329 41.672 250.558 41.576 250.825 41.576C251.102 41.576 251.337 41.672 251.529 41.864C251.721 42.0453 251.817 42.2747 251.817 42.552C251.817 42.8187 251.721 43.0533 251.529 43.256C251.337 43.448 251.102 43.544 250.825 43.544ZM257.701 53.16C256.912 53.16 256.192 52.9733 255.541 52.6C254.901 52.2267 254.394 51.72 254.021 51.08C253.648 50.44 253.461 49.7253 253.461 48.936C253.461 48.1467 253.648 47.432 254.021 46.792C254.394 46.152 254.901 45.6453 255.541 45.272C256.192 44.888 256.912 44.696 257.701 44.696C258.501 44.696 259.221 44.888 259.861 45.272C260.501 45.6453 261.008 46.152 261.381 46.792C261.754 47.432 261.941 48.1467 261.941 48.936C261.941 49.7253 261.754 50.44 261.381 51.08C261.008 51.72 260.501 52.2267 259.861 52.6C259.221 52.9733 258.501 53.16 257.701 53.16ZM257.701 51.752C258.202 51.752 258.656 51.6293 259.061 51.384C259.466 51.128 259.786 50.7867 260.021 50.36C260.256 49.9333 260.373 49.4533 260.373 48.92C260.373 48.3973 260.25 47.928 260.005 47.512C259.77 47.0853 259.45 46.744 259.045 46.488C258.65 46.232 258.202 46.104 257.701 46.104C257.2 46.104 256.746 46.232 256.341 46.488C255.946 46.744 255.626 47.0853 255.381 47.512C255.146 47.928 255.029 48.3973 255.029 48.92C255.029 49.4533 255.146 49.9333 255.381 50.36C255.616 50.7867 255.936 51.128 256.341 51.384C256.746 51.6293 257.2 51.752 257.701 51.752ZM263.774 53V44.856H265.374V45.688C266.003 45.0267 266.819 44.696 267.822 44.696C268.451 44.696 269.001 44.8293 269.47 45.096C269.95 45.3627 270.323 45.736 270.59 46.216C270.867 46.696 271.006 47.2507 271.006 47.88V53H269.406V48.152C269.406 47.512 269.225 47.0107 268.862 46.648C268.51 46.2747 268.014 46.088 267.374 46.088C266.947 46.088 266.563 46.1787 266.222 46.36C265.881 46.5413 265.598 46.8027 265.374 47.144V53H263.774ZM275.972 53.16C275.268 53.16 274.607 53.0587 273.988 52.856C273.38 52.6427 272.852 52.344 272.404 51.96L273.284 50.904C273.7 51.2347 274.127 51.4907 274.564 51.672C275.012 51.8427 275.465 51.928 275.924 51.928C276.5 51.928 276.969 51.816 277.332 51.592C277.695 51.368 277.876 51.0747 277.876 50.712C277.876 50.4133 277.769 50.1787 277.556 50.008C277.343 49.8373 277.012 49.72 276.564 49.656L275.092 49.448C274.281 49.3307 273.673 49.08 273.268 48.696C272.863 48.312 272.66 47.8 272.66 47.16C272.66 46.6693 272.793 46.2427 273.06 45.88C273.327 45.5067 273.7 45.2187 274.18 45.016C274.66 44.8027 275.22 44.696 275.86 44.696C276.447 44.696 277.012 44.7813 277.556 44.952C278.1 45.1227 278.623 45.3893 279.124 45.752L278.308 46.808C277.86 46.5093 277.423 46.2907 276.996 46.152C276.58 46.0133 276.159 45.944 275.732 45.944C275.241 45.944 274.847 46.0507 274.548 46.264C274.249 46.4667 274.1 46.7333 274.1 47.064C274.1 47.3627 274.201 47.5973 274.404 47.768C274.617 47.928 274.964 48.04 275.444 48.104L276.916 48.312C277.727 48.4293 278.34 48.68 278.756 49.064C279.172 49.4373 279.38 49.944 279.38 50.584C279.38 51.0747 279.231 51.5173 278.932 51.912C278.633 52.296 278.228 52.6 277.716 52.824C277.204 53.048 276.623 53.16 275.972 53.16ZM285.809 53V46.2H283.921V44.856H285.809V43.624C285.809 42.7707 286.044 42.12 286.513 41.672C286.993 41.224 287.676 41 288.561 41C288.785 41 288.993 41.016 289.185 41.048C289.388 41.0693 289.569 41.1067 289.729 41.16V42.536C289.537 42.4827 289.367 42.4453 289.217 42.424C289.068 42.392 288.903 42.376 288.721 42.376C288.273 42.376 287.937 42.4827 287.713 42.696C287.5 42.8987 287.393 43.224 287.393 43.672V44.856H289.729V46.2H287.393V53H285.809ZM291.273 53V44.856H292.873V45.896C293.129 45.512 293.443 45.2133 293.817 45C294.201 44.776 294.633 44.664 295.113 44.664C295.443 44.6747 295.715 44.7227 295.929 44.808V46.248C295.779 46.184 295.625 46.1413 295.465 46.12C295.305 46.088 295.145 46.072 294.985 46.072C294.515 46.072 294.099 46.2 293.737 46.456C293.374 46.7013 293.086 47.064 292.873 47.544V53H291.273ZM300.933 53.16C300.144 53.16 299.424 52.9733 298.773 52.6C298.133 52.2267 297.627 51.72 297.253 51.08C296.88 50.44 296.693 49.7253 296.693 48.936C296.693 48.1467 296.88 47.432 297.253 46.792C297.627 46.152 298.133 45.6453 298.773 45.272C299.424 44.888 300.144 44.696 300.933 44.696C301.733 44.696 302.453 44.888 303.093 45.272C303.733 45.6453 304.24 46.152 304.613 46.792C304.987 47.432 305.173 48.1467 305.173 48.936C305.173 49.7253 304.987 50.44 304.613 51.08C304.24 51.72 303.733 52.2267 303.093 52.6C302.453 52.9733 301.733 53.16 300.933 53.16ZM300.933 51.752C301.435 51.752 301.888 51.6293 302.293 51.384C302.699 51.128 303.019 50.7867 303.253 50.36C303.488 49.9333 303.605 49.4533 303.605 48.92C303.605 48.3973 303.483 47.928 303.237 47.512C303.003 47.0853 302.683 46.744 302.277 46.488C301.883 46.232 301.435 46.104 300.933 46.104C300.432 46.104 299.979 46.232 299.573 46.488C299.179 46.744 298.859 47.0853 298.613 47.512C298.379 47.928 298.261 48.3973 298.261 48.92C298.261 49.4533 298.379 49.9333 298.613 50.36C298.848 50.7867 299.168 51.128 299.573 51.384C299.979 51.6293 300.432 51.752 300.933 51.752ZM307.007 53V44.856H308.607V45.64C309.215 45.0107 309.977 44.696 310.895 44.696C311.449 44.696 311.94 44.8187 312.367 45.064C312.804 45.3093 313.151 45.64 313.407 46.056C313.748 45.608 314.148 45.272 314.607 45.048C315.065 44.8133 315.583 44.696 316.159 44.696C316.767 44.696 317.295 44.8293 317.743 45.096C318.201 45.3627 318.559 45.736 318.815 46.216C319.081 46.696 319.215 47.2507 319.215 47.88V53H317.615V48.152C317.615 47.512 317.444 47.0107 317.103 46.648C316.772 46.2747 316.319 46.088 315.743 46.088C315.348 46.088 314.991 46.1787 314.671 46.36C314.351 46.5413 314.073 46.8187 313.839 47.192C313.86 47.2987 313.876 47.4107 313.887 47.528C313.897 47.6453 313.903 47.7627 313.903 47.88V53H312.319V48.152C312.319 47.512 312.148 47.0107 311.807 46.648C311.476 46.2747 311.023 46.088 310.447 46.088C310.063 46.088 309.716 46.1733 309.407 46.344C309.097 46.504 308.831 46.7493 308.607 47.08V53H307.007ZM328.685 53L324.109 41.8H325.917L329.709 51.336L333.565 41.8H335.293L330.653 53H328.685ZM339.386 53.144C338.586 53.144 337.861 52.9573 337.21 52.584C336.57 52.2107 336.058 51.704 335.674 51.064C335.301 50.424 335.114 49.7093 335.114 48.92C335.114 48.1413 335.295 47.4373 335.658 46.808C336.021 46.168 336.511 45.6613 337.13 45.288C337.749 44.904 338.437 44.712 339.194 44.712C339.951 44.712 340.623 44.904 341.21 45.288C341.797 45.6613 342.261 46.1733 342.602 46.824C342.954 47.464 343.13 48.1893 343.13 49V49.448H336.714C336.799 49.896 336.965 50.296 337.21 50.648C337.466 51 337.786 51.2773 338.17 51.48C338.565 51.6827 338.991 51.784 339.45 51.784C339.845 51.784 340.223 51.7253 340.586 51.608C340.959 51.48 341.269 51.2987 341.514 51.064L342.538 52.072C342.058 52.4347 341.562 52.7067 341.05 52.888C340.549 53.0587 339.994 53.144 339.386 53.144ZM336.73 48.248H341.546C341.482 47.8213 341.333 47.448 341.098 47.128C340.874 46.7973 340.591 46.5413 340.25 46.36C339.919 46.168 339.557 46.072 339.162 46.072C338.757 46.072 338.383 46.1627 338.042 46.344C337.701 46.5253 337.413 46.7813 337.178 47.112C336.954 47.432 336.805 47.8107 336.73 48.248ZM344.974 53V44.856H346.574V45.896C346.83 45.512 347.145 45.2133 347.518 45C347.902 44.776 348.334 44.664 348.814 44.664C349.145 44.6747 349.417 44.7227 349.63 44.808V46.248C349.481 46.184 349.326 46.1413 349.166 46.12C349.006 46.088 348.846 46.072 348.686 46.072C348.217 46.072 347.801 46.2 347.438 46.456C347.075 46.7013 346.787 47.064 346.574 47.544V53H344.974ZM351.232 53V44.856H352.832V53H351.232ZM352.032 43.544C351.765 43.544 351.536 43.448 351.344 43.256C351.152 43.0533 351.056 42.8187 351.056 42.552C351.056 42.2747 351.152 42.0453 351.344 41.864C351.536 41.672 351.765 41.576 352.032 41.576C352.309 41.576 352.544 41.672 352.736 41.864C352.928 42.0453 353.024 42.2747 353.024 42.552C353.024 42.8187 352.928 43.0533 352.736 43.256C352.544 43.448 352.309 43.544 352.032 43.544ZM358.78 53.128C358.023 53.128 357.329 52.9413 356.7 52.568C356.071 52.1947 355.575 51.6933 355.212 51.064C354.849 50.424 354.668 49.7093 354.668 48.92C354.668 48.1307 354.849 47.4213 355.212 46.792C355.585 46.1627 356.087 45.6613 356.716 45.288C357.345 44.9147 358.044 44.728 358.812 44.728C359.26 44.728 359.692 44.7973 360.108 44.936C360.524 45.0747 360.908 45.2773 361.26 45.544V41.8L362.86 41.496V53H361.276V52.216C360.583 52.824 359.751 53.128 358.78 53.128ZM358.988 51.736C359.457 51.736 359.884 51.6507 360.268 51.48C360.663 51.3093 360.993 51.064 361.26 50.744V47.08C360.993 46.7813 360.663 46.5467 360.268 46.376C359.884 46.1947 359.457 46.104 358.988 46.104C358.476 46.104 358.012 46.2267 357.596 46.472C357.18 46.7173 356.849 47.0533 356.604 47.48C356.359 47.896 356.236 48.3707 356.236 48.904C356.236 49.4373 356.359 49.9173 356.604 50.344C356.849 50.7707 357.18 51.112 357.596 51.368C358.012 51.6133 358.476 51.736 358.988 51.736ZM365.075 53V44.856H366.675V53H365.075ZM365.875 43.544C365.608 43.544 365.379 43.448 365.187 43.256C364.995 43.0533 364.899 42.8187 364.899 42.552C364.899 42.2747 364.995 42.0453 365.187 41.864C365.379 41.672 365.608 41.576 365.875 41.576C366.152 41.576 366.387 41.672 366.579 41.864C366.771 42.0453 366.867 42.2747 366.867 42.552C366.867 42.8187 366.771 43.0533 366.579 43.256C366.387 43.448 366.152 43.544 365.875 43.544ZM372.751 53.16C371.962 53.16 371.242 52.9733 370.591 52.6C369.951 52.2267 369.444 51.72 369.071 51.08C368.698 50.44 368.511 49.7253 368.511 48.936C368.511 48.1467 368.698 47.432 369.071 46.792C369.444 46.152 369.951 45.6453 370.591 45.272C371.242 44.888 371.962 44.696 372.751 44.696C373.551 44.696 374.271 44.888 374.911 45.272C375.551 45.6453 376.058 46.152 376.431 46.792C376.804 47.432 376.991 48.1467 376.991 48.936C376.991 49.7253 376.804 50.44 376.431 51.08C376.058 51.72 375.551 52.2267 374.911 52.6C374.271 52.9733 373.551 53.16 372.751 53.16ZM372.751 51.752C373.252 51.752 373.706 51.6293 374.111 51.384C374.516 51.128 374.836 50.7867 375.071 50.36C375.306 49.9333 375.423 49.4533 375.423 48.92C375.423 48.3973 375.3 47.928 375.055 47.512C374.82 47.0853 374.5 46.744 374.095 46.488C373.7 46.232 373.252 46.104 372.751 46.104C372.25 46.104 371.796 46.232 371.391 46.488C370.996 46.744 370.676 47.0853 370.431 47.512C370.196 47.928 370.079 48.3973 370.079 48.92C370.079 49.4533 370.196 49.9333 370.431 50.36C370.666 50.7867 370.986 51.128 371.391 51.384C371.796 51.6293 372.25 51.752 372.751 51.752ZM378.824 53V44.856H380.424V45.688C381.053 45.0267 381.869 44.696 382.872 44.696C383.501 44.696 384.051 44.8293 384.52 45.096C385 45.3627 385.373 45.736 385.64 46.216C385.917 46.696 386.056 47.2507 386.056 47.88V53H384.456V48.152C384.456 47.512 384.275 47.0107 383.912 46.648C383.56 46.2747 383.064 46.088 382.424 46.088C381.997 46.088 381.613 46.1787 381.272 46.36C380.931 46.5413 380.648 46.8027 380.424 47.144V53H378.824ZM392.078 53V41.8H396.926C397.662 41.8 398.302 41.9227 398.846 42.168C399.39 42.4133 399.811 42.76 400.11 43.208C400.409 43.6453 400.558 44.1627 400.558 44.76C400.558 45.304 400.419 45.784 400.142 46.2C399.865 46.616 399.475 46.9467 398.974 47.192C399.603 47.416 400.094 47.7573 400.446 48.216C400.809 48.664 400.99 49.192 400.99 49.8C400.99 50.4507 400.83 51.016 400.51 51.496C400.19 51.976 399.742 52.3493 399.166 52.616C398.59 52.872 397.913 53 397.134 53H392.078ZM393.758 46.552H396.83C397.459 46.552 397.961 46.4027 398.334 46.104C398.707 45.8053 398.894 45.4 398.894 44.888C398.894 44.376 398.707 43.9707 398.334 43.672C397.961 43.3733 397.459 43.224 396.83 43.224H393.758V46.552ZM393.758 51.576H397.006C397.71 51.576 398.265 51.4107 398.67 51.08C399.086 50.7493 399.294 50.3013 399.294 49.736C399.294 49.1813 399.086 48.7387 398.67 48.408C398.265 48.0667 397.71 47.896 397.006 47.896H393.758V51.576ZM405.516 53.144C404.93 53.144 404.412 53.0427 403.964 52.84C403.516 52.6267 403.164 52.3333 402.908 51.96C402.652 51.5867 402.524 51.1547 402.524 50.664C402.524 49.896 402.818 49.2933 403.404 48.856C403.991 48.408 404.796 48.184 405.82 48.184C406.62 48.184 407.362 48.3387 408.044 48.648V47.784C408.044 47.1973 407.874 46.76 407.532 46.472C407.202 46.184 406.711 46.04 406.06 46.04C405.687 46.04 405.298 46.0987 404.892 46.216C404.487 46.3227 404.034 46.4933 403.532 46.728L402.94 45.528C403.559 45.24 404.135 45.032 404.668 44.904C405.202 44.7653 405.74 44.696 406.284 44.696C407.34 44.696 408.156 44.9467 408.732 45.448C409.319 45.9493 409.612 46.664 409.612 47.592V53H408.044V52.296C407.682 52.584 407.292 52.7973 406.876 52.936C406.46 53.0747 406.007 53.144 405.516 53.144ZM404.06 50.632C404.06 51.0267 404.226 51.3467 404.556 51.592C404.898 51.8373 405.34 51.96 405.884 51.96C406.311 51.96 406.7 51.896 407.052 51.768C407.415 51.64 407.746 51.4427 408.044 51.176V49.8C407.735 49.6187 407.41 49.4907 407.068 49.416C406.738 49.3307 406.364 49.288 405.948 49.288C405.362 49.288 404.898 49.4107 404.556 49.656C404.226 49.8907 404.06 50.216 404.06 50.632ZM411.776 53V44.856H413.376V45.688C414.005 45.0267 414.821 44.696 415.824 44.696C416.453 44.696 417.003 44.8293 417.472 45.096C417.952 45.3627 418.325 45.736 418.592 46.216C418.869 46.696 419.008 47.2507 419.008 47.88V53H417.408V48.152C417.408 47.512 417.227 47.0107 416.864 46.648C416.512 46.2747 416.016 46.088 415.376 46.088C414.949 46.088 414.565 46.1787 414.224 46.36C413.883 46.5413 413.6 46.8027 413.376 47.144V53H411.776ZM421.174 53V41.8L422.774 41.496V48.424L426.726 44.856H428.598L424.39 48.664L428.822 53H426.71L422.774 49.176V53H421.174ZM439.084 53.176C438.274 53.176 437.516 53.032 436.812 52.744C436.108 52.4453 435.484 52.0347 434.94 51.512C434.407 50.9787 433.991 50.3653 433.692 49.672C433.404 48.968 433.26 48.2107 433.26 47.4C433.26 46.5893 433.404 45.8373 433.692 45.144C433.991 44.44 434.407 43.8267 434.94 43.304C435.484 42.7707 436.108 42.36 436.812 42.072C437.516 41.7733 438.274 41.624 439.084 41.624C439.895 41.624 440.652 41.7733 441.356 42.072C442.071 42.36 442.695 42.7707 443.228 43.304C443.762 43.8267 444.178 44.44 444.476 45.144C444.775 45.8373 444.924 46.5893 444.924 47.4C444.924 48.2107 444.775 48.968 444.476 49.672C444.178 50.3653 443.762 50.9787 443.228 51.512C442.695 52.0347 442.071 52.4453 441.356 52.744C440.652 53.032 439.895 53.176 439.084 53.176ZM439.1 51.624C439.676 51.624 440.21 51.5173 440.7 51.304C441.202 51.0907 441.639 50.7973 442.012 50.424C442.386 50.04 442.679 49.592 442.892 49.08C443.106 48.5573 443.212 47.9973 443.212 47.4C443.212 46.792 443.106 46.232 442.892 45.72C442.679 45.208 442.386 44.7653 442.012 44.392C441.639 44.008 441.202 43.7093 440.7 43.496C440.21 43.2827 439.676 43.176 439.1 43.176C438.514 43.176 437.97 43.2827 437.468 43.496C436.967 43.7093 436.53 44.008 436.156 44.392C435.783 44.7653 435.49 45.208 435.276 45.72C435.074 46.232 434.972 46.792 434.972 47.4C434.972 47.9973 435.074 48.5573 435.276 49.08C435.49 49.592 435.783 50.04 436.156 50.424C436.53 50.7973 436.967 51.0907 437.468 51.304C437.97 51.5173 438.514 51.624 439.1 51.624ZM448.038 53V46.2H446.15V44.856H448.038V43.624C448.038 42.7707 448.272 42.12 448.742 41.672C449.222 41.224 449.904 41 450.79 41C451.014 41 451.222 41.016 451.414 41.048C451.616 41.0693 451.798 41.1067 451.958 41.16V42.536C451.766 42.4827 451.595 42.4453 451.446 42.424C451.296 42.392 451.131 42.376 450.95 42.376C450.502 42.376 450.166 42.4827 449.942 42.696C449.728 42.8987 449.622 43.224 449.622 43.672V44.856H451.958V46.2H449.622V53H448.038ZM454.826 53V46.2H452.938V44.856H454.826V43.624C454.826 42.7707 455.061 42.12 455.53 41.672C456.01 41.224 456.693 41 457.578 41C457.802 41 458.01 41.016 458.202 41.048C458.405 41.0693 458.586 41.1067 458.746 41.16V42.536C458.554 42.4827 458.384 42.4453 458.234 42.424C458.085 42.392 457.92 42.376 457.738 42.376C457.29 42.376 456.954 42.4827 456.73 42.696C456.517 42.8987 456.41 43.224 456.41 43.672V44.856H458.746V46.2H456.41V53H454.826ZM463.819 53.144C463.019 53.144 462.293 52.9573 461.643 52.584C461.003 52.2107 460.491 51.704 460.107 51.064C459.733 50.424 459.547 49.7093 459.547 48.92C459.547 48.1413 459.728 47.4373 460.091 46.808C460.453 46.168 460.944 45.6613 461.563 45.288C462.181 44.904 462.869 44.712 463.627 44.712C464.384 44.712 465.056 44.904 465.643 45.288C466.229 45.6613 466.693 46.1733 467.035 46.824C467.387 47.464 467.563 48.1893 467.563 49V49.448H461.147C461.232 49.896 461.397 50.296 461.643 50.648C461.899 51 462.219 51.2773 462.603 51.48C462.997 51.6827 463.424 51.784 463.883 51.784C464.277 51.784 464.656 51.7253 465.019 51.608C465.392 51.48 465.701 51.2987 465.947 51.064L466.971 52.072C466.491 52.4347 465.995 52.7067 465.483 52.888C464.981 53.0587 464.427 53.144 463.819 53.144ZM461.163 48.248H465.979C465.915 47.8213 465.765 47.448 465.531 47.128C465.307 46.7973 465.024 46.5413 464.683 46.36C464.352 46.168 463.989 46.072 463.595 46.072C463.189 46.072 462.816 46.1627 462.475 46.344C462.133 46.5253 461.845 46.7813 461.611 47.112C461.387 47.432 461.237 47.8107 461.163 48.248ZM469.406 53V44.856H471.006V45.896C471.262 45.512 471.577 45.2133 471.95 45C472.334 44.776 472.766 44.664 473.246 44.664C473.577 44.6747 473.849 44.7227 474.062 44.808V46.248C473.913 46.184 473.758 46.1413 473.598 46.12C473.438 46.088 473.278 46.072 473.118 46.072C472.649 46.072 472.233 46.2 471.87 46.456C471.508 46.7013 471.22 47.064 471.006 47.544V53H469.406ZM112.528 77.176C111.696 77.176 110.923 77.032 110.208 76.744C109.504 76.4453 108.88 76.0347 108.336 75.512C107.803 74.9787 107.387 74.3653 107.088 73.672C106.8 72.968 106.656 72.2107 106.656 71.4C106.656 70.5893 106.8 69.8373 107.088 69.144C107.387 68.44 107.803 67.8267 108.336 67.304C108.88 66.7707 109.509 66.36 110.224 66.072C110.939 65.7733 111.707 65.624 112.528 65.624C113.115 65.624 113.685 65.704 114.24 65.864C114.805 66.0133 115.323 66.232 115.792 66.52C116.272 66.808 116.688 67.1547 117.04 67.56L115.92 68.712C115.504 68.2107 114.997 67.832 114.4 67.576C113.803 67.3093 113.179 67.176 112.528 67.176C111.931 67.176 111.376 67.2827 110.864 67.496C110.363 67.7093 109.925 68.008 109.552 68.392C109.179 68.7653 108.885 69.208 108.672 69.72C108.469 70.232 108.368 70.792 108.368 71.4C108.368 71.9973 108.469 72.552 108.672 73.064C108.885 73.576 109.184 74.024 109.568 74.408C109.952 74.792 110.4 75.0907 110.912 75.304C111.424 75.5173 111.979 75.624 112.576 75.624C113.227 75.624 113.84 75.496 114.416 75.24C115.003 74.9733 115.499 74.6 115.904 74.12L117.008 75.24C116.635 75.6347 116.208 75.9813 115.728 76.28C115.259 76.568 114.747 76.792 114.192 76.952C113.648 77.1013 113.093 77.176 112.528 77.176ZM122.417 77.16C121.628 77.16 120.908 76.9733 120.257 76.6C119.617 76.2267 119.111 75.72 118.737 75.08C118.364 74.44 118.177 73.7253 118.177 72.936C118.177 72.1467 118.364 71.432 118.737 70.792C119.111 70.152 119.617 69.6453 120.257 69.272C120.908 68.888 121.628 68.696 122.417 68.696C123.217 68.696 123.937 68.888 124.577 69.272C125.217 69.6453 125.724 70.152 126.097 70.792C126.471 71.432 126.657 72.1467 126.657 72.936C126.657 73.7253 126.471 74.44 126.097 75.08C125.724 75.72 125.217 76.2267 124.577 76.6C123.937 76.9733 123.217 77.16 122.417 77.16ZM122.417 75.752C122.919 75.752 123.372 75.6293 123.777 75.384C124.183 75.128 124.503 74.7867 124.737 74.36C124.972 73.9333 125.089 73.4533 125.089 72.92C125.089 72.3973 124.967 71.928 124.721 71.512C124.487 71.0853 124.167 70.744 123.761 70.488C123.367 70.232 122.919 70.104 122.417 70.104C121.916 70.104 121.463 70.232 121.057 70.488C120.663 70.744 120.343 71.0853 120.097 71.512C119.863 71.928 119.745 72.3973 119.745 72.92C119.745 73.4533 119.863 73.9333 120.097 74.36C120.332 74.7867 120.652 75.128 121.057 75.384C121.463 75.6293 121.916 75.752 122.417 75.752ZM128.49 77V68.856H130.09V69.64C130.698 69.0107 131.461 68.696 132.378 68.696C132.933 68.696 133.424 68.8187 133.85 69.064C134.288 69.3093 134.634 69.64 134.89 70.056C135.232 69.608 135.632 69.272 136.09 69.048C136.549 68.8133 137.066 68.696 137.642 68.696C138.25 68.696 138.778 68.8293 139.226 69.096C139.685 69.3627 140.042 69.736 140.298 70.216C140.565 70.696 140.698 71.2507 140.698 71.88V77H139.098V72.152C139.098 71.512 138.928 71.0107 138.586 70.648C138.256 70.2747 137.802 70.088 137.226 70.088C136.832 70.088 136.474 70.1787 136.154 70.36C135.834 70.5413 135.557 70.8187 135.322 71.192C135.344 71.2987 135.36 71.4107 135.37 71.528C135.381 71.6453 135.386 71.7627 135.386 71.88V77H133.802V72.152C133.802 71.512 133.632 71.0107 133.29 70.648C132.96 70.2747 132.506 70.088 131.93 70.088C131.546 70.088 131.2 70.1733 130.89 70.344C130.581 70.504 130.314 70.7493 130.09 71.08V77H128.49ZM142.857 80.264V68.856H144.441V69.64C145.124 69.032 145.956 68.728 146.937 68.728C147.705 68.728 148.398 68.9147 149.017 69.288C149.646 69.6613 150.142 70.1627 150.505 70.792C150.868 71.4213 151.049 72.1307 151.049 72.92C151.049 73.7093 150.862 74.424 150.489 75.064C150.126 75.6933 149.63 76.1947 149.001 76.568C148.382 76.9413 147.684 77.128 146.905 77.128C146.457 77.128 146.025 77.0587 145.609 76.92C145.193 76.7707 144.809 76.5627 144.457 76.296V80.264H142.857ZM146.729 75.736C147.252 75.736 147.716 75.6133 148.121 75.368C148.537 75.1227 148.868 74.792 149.113 74.376C149.358 73.9493 149.481 73.4693 149.481 72.936C149.481 72.4027 149.358 71.9227 149.113 71.496C148.868 71.0693 148.537 70.7333 148.121 70.488C147.716 70.2427 147.252 70.12 146.729 70.12C146.27 70.12 145.844 70.2053 145.449 70.376C145.054 70.5467 144.724 70.7867 144.457 71.096V74.776C144.724 75.0747 145.054 75.3093 145.449 75.48C145.854 75.6507 146.281 75.736 146.729 75.736ZM152.896 77V68.856H154.496V69.896C154.752 69.512 155.067 69.2133 155.44 69C155.824 68.776 156.256 68.664 156.736 68.664C157.067 68.6747 157.339 68.7227 157.552 68.808V70.248C157.403 70.184 157.248 70.1413 157.088 70.12C156.928 70.088 156.768 70.072 156.608 70.072C156.139 70.072 155.723 70.2 155.36 70.456C154.997 70.7013 154.709 71.064 154.496 71.544V77H152.896ZM162.589 77.144C161.789 77.144 161.063 76.9573 160.413 76.584C159.773 76.2107 159.261 75.704 158.877 75.064C158.503 74.424 158.317 73.7093 158.317 72.92C158.317 72.1413 158.498 71.4373 158.861 70.808C159.223 70.168 159.714 69.6613 160.333 69.288C160.951 68.904 161.639 68.712 162.397 68.712C163.154 68.712 163.826 68.904 164.413 69.288C164.999 69.6613 165.463 70.1733 165.805 70.824C166.157 71.464 166.333 72.1893 166.333 73V73.448H159.917C160.002 73.896 160.167 74.296 160.413 74.648C160.669 75 160.989 75.2773 161.373 75.48C161.767 75.6827 162.194 75.784 162.653 75.784C163.047 75.784 163.426 75.7253 163.789 75.608C164.162 75.48 164.471 75.2987 164.717 75.064L165.741 76.072C165.261 76.4347 164.765 76.7067 164.253 76.888C163.751 77.0587 163.197 77.144 162.589 77.144ZM159.933 72.248H164.749C164.685 71.8213 164.535 71.448 164.301 71.128C164.077 70.7973 163.794 70.5413 163.453 70.36C163.122 70.168 162.759 70.072 162.365 70.072C161.959 70.072 161.586 70.1627 161.245 70.344C160.903 70.5253 160.615 70.7813 160.381 71.112C160.157 71.432 160.007 71.8107 159.933 72.248ZM168.176 77V65.8L169.776 65.448V69.688C170.406 69.0267 171.222 68.696 172.224 68.696C172.854 68.696 173.403 68.8293 173.872 69.096C174.352 69.3627 174.726 69.736 174.992 70.216C175.27 70.696 175.408 71.2507 175.408 71.88V77H173.808V72.152C173.808 71.512 173.627 71.0107 173.264 70.648C172.902 70.2747 172.406 70.088 171.776 70.088C171.35 70.088 170.966 70.1787 170.624 70.36C170.283 70.5413 170 70.8027 169.776 71.144V77H168.176ZM181.479 77.144C180.679 77.144 179.953 76.9573 179.303 76.584C178.663 76.2107 178.151 75.704 177.767 75.064C177.393 74.424 177.207 73.7093 177.207 72.92C177.207 72.1413 177.388 71.4373 177.751 70.808C178.113 70.168 178.604 69.6613 179.223 69.288C179.841 68.904 180.529 68.712 181.287 68.712C182.044 68.712 182.716 68.904 183.303 69.288C183.889 69.6613 184.353 70.1733 184.695 70.824C185.047 71.464 185.223 72.1893 185.223 73V73.448H178.807C178.892 73.896 179.057 74.296 179.303 74.648C179.559 75 179.879 75.2773 180.263 75.48C180.657 75.6827 181.084 75.784 181.543 75.784C181.937 75.784 182.316 75.7253 182.679 75.608C183.052 75.48 183.361 75.2987 183.607 75.064L184.631 76.072C184.151 76.4347 183.655 76.7067 183.143 76.888C182.641 77.0587 182.087 77.144 181.479 77.144ZM178.823 72.248H183.639C183.575 71.8213 183.425 71.448 183.191 71.128C182.967 70.7973 182.684 70.5413 182.343 70.36C182.012 70.168 181.649 70.072 181.255 70.072C180.849 70.072 180.476 70.1627 180.135 70.344C179.793 70.5253 179.505 70.7813 179.271 71.112C179.047 71.432 178.897 71.8107 178.823 72.248ZM187.066 77V68.856H188.666V69.688C189.296 69.0267 190.112 68.696 191.114 68.696C191.744 68.696 192.293 68.8293 192.762 69.096C193.242 69.3627 193.616 69.736 193.882 70.216C194.16 70.696 194.298 71.2507 194.298 71.88V77H192.698V72.152C192.698 71.512 192.517 71.0107 192.154 70.648C191.802 70.2747 191.306 70.088 190.666 70.088C190.24 70.088 189.856 70.1787 189.514 70.36C189.173 70.5413 188.89 70.8027 188.666 71.144V77H187.066ZM199.265 77.16C198.561 77.16 197.899 77.0587 197.281 76.856C196.673 76.6427 196.145 76.344 195.697 75.96L196.577 74.904C196.993 75.2347 197.419 75.4907 197.857 75.672C198.305 75.8427 198.758 75.928 199.217 75.928C199.793 75.928 200.262 75.816 200.625 75.592C200.987 75.368 201.169 75.0747 201.169 74.712C201.169 74.4133 201.062 74.1787 200.849 74.008C200.635 73.8373 200.305 73.72 199.857 73.656L198.385 73.448C197.574 73.3307 196.966 73.08 196.561 72.696C196.155 72.312 195.953 71.8 195.953 71.16C195.953 70.6693 196.086 70.2427 196.353 69.88C196.619 69.5067 196.993 69.2187 197.473 69.016C197.953 68.8027 198.513 68.696 199.153 68.696C199.739 68.696 200.305 68.7813 200.849 68.952C201.393 69.1227 201.915 69.3893 202.417 69.752L201.601 70.808C201.153 70.5093 200.715 70.2907 200.289 70.152C199.873 70.0133 199.451 69.944 199.025 69.944C198.534 69.944 198.139 70.0507 197.841 70.264C197.542 70.4667 197.393 70.7333 197.393 71.064C197.393 71.3627 197.494 71.5973 197.697 71.768C197.91 71.928 198.257 72.04 198.737 72.104L200.209 72.312C201.019 72.4293 201.633 72.68 202.049 73.064C202.465 73.4373 202.673 73.944 202.673 74.584C202.673 75.0747 202.523 75.5173 202.225 75.912C201.926 76.296 201.521 76.6 201.009 76.824C200.497 77.048 199.915 77.16 199.265 77.16ZM204.222 77V68.856H205.822V77H204.222ZM205.022 67.544C204.755 67.544 204.526 67.448 204.334 67.256C204.142 67.0533 204.046 66.8187 204.046 66.552C204.046 66.2747 204.142 66.0453 204.334 65.864C204.526 65.672 204.755 65.576 205.022 65.576C205.299 65.576 205.534 65.672 205.726 65.864C205.918 66.0453 206.014 66.2747 206.014 66.552C206.014 66.8187 205.918 67.0533 205.726 67.256C205.534 67.448 205.299 67.544 205.022 67.544ZM210.65 77L207.13 68.856H208.89L211.434 74.952L213.978 68.856H215.674L212.186 77H210.65ZM220.657 77.144C219.857 77.144 219.131 76.9573 218.481 76.584C217.841 76.2107 217.329 75.704 216.945 75.064C216.571 74.424 216.385 73.7093 216.385 72.92C216.385 72.1413 216.566 71.4373 216.929 70.808C217.291 70.168 217.782 69.6613 218.401 69.288C219.019 68.904 219.707 68.712 220.465 68.712C221.222 68.712 221.894 68.904 222.481 69.288C223.067 69.6613 223.531 70.1733 223.873 70.824C224.225 71.464 224.401 72.1893 224.401 73V73.448H217.985C218.07 73.896 218.235 74.296 218.481 74.648C218.737 75 219.057 75.2773 219.441 75.48C219.835 75.6827 220.262 75.784 220.721 75.784C221.115 75.784 221.494 75.7253 221.857 75.608C222.23 75.48 222.539 75.2987 222.785 75.064L223.809 76.072C223.329 76.4347 222.833 76.7067 222.321 76.888C221.819 77.0587 221.265 77.144 220.657 77.144ZM218.001 72.248H222.817C222.753 71.8213 222.603 71.448 222.369 71.128C222.145 70.7973 221.862 70.5413 221.521 70.36C221.19 70.168 220.827 70.072 220.433 70.072C220.027 70.072 219.654 70.1627 219.313 70.344C218.971 70.5253 218.683 70.7813 218.449 71.112C218.225 71.432 218.075 71.8107 218.001 72.248ZM235.492 77.176C234.66 77.176 233.887 77.032 233.172 76.744C232.468 76.4453 231.844 76.0347 231.3 75.512C230.767 74.9787 230.351 74.3653 230.052 73.672C229.764 72.968 229.62 72.2107 229.62 71.4C229.62 70.5893 229.764 69.8373 230.052 69.144C230.351 68.44 230.767 67.8267 231.3 67.304C231.844 66.7707 232.474 66.36 233.188 66.072C233.903 65.7733 234.671 65.624 235.492 65.624C236.079 65.624 236.65 65.704 237.204 65.864C237.77 66.0133 238.287 66.232 238.756 66.52C239.236 66.808 239.652 67.1547 240.004 67.56L238.884 68.712C238.468 68.2107 237.962 67.832 237.364 67.576C236.767 67.3093 236.143 67.176 235.492 67.176C234.895 67.176 234.34 67.2827 233.828 67.496C233.327 67.7093 232.89 68.008 232.516 68.392C232.143 68.7653 231.85 69.208 231.636 69.72C231.434 70.232 231.332 70.792 231.332 71.4C231.332 71.9973 231.434 72.552 231.636 73.064C231.85 73.576 232.148 74.024 232.532 74.408C232.916 74.792 233.364 75.0907 233.876 75.304C234.388 75.5173 234.943 75.624 235.54 75.624C236.191 75.624 236.804 75.496 237.38 75.24C237.967 74.9733 238.463 74.6 238.868 74.12L239.972 75.24C239.599 75.6347 239.172 75.9813 238.692 76.28C238.223 76.568 237.711 76.792 237.156 76.952C236.612 77.1013 236.058 77.176 235.492 77.176ZM245.382 77.16C244.592 77.16 243.872 76.9733 243.222 76.6C242.582 76.2267 242.075 75.72 241.702 75.08C241.328 74.44 241.142 73.7253 241.142 72.936C241.142 72.1467 241.328 71.432 241.702 70.792C242.075 70.152 242.582 69.6453 243.222 69.272C243.872 68.888 244.592 68.696 245.382 68.696C246.182 68.696 246.902 68.888 247.542 69.272C248.182 69.6453 248.688 70.152 249.062 70.792C249.435 71.432 249.622 72.1467 249.622 72.936C249.622 73.7253 249.435 74.44 249.062 75.08C248.688 75.72 248.182 76.2267 247.542 76.6C246.902 76.9733 246.182 77.16 245.382 77.16ZM245.382 75.752C245.883 75.752 246.336 75.6293 246.742 75.384C247.147 75.128 247.467 74.7867 247.702 74.36C247.936 73.9333 248.054 73.4533 248.054 72.92C248.054 72.3973 247.931 71.928 247.686 71.512C247.451 71.0853 247.131 70.744 246.726 70.488C246.331 70.232 245.883 70.104 245.382 70.104C244.88 70.104 244.427 70.232 244.022 70.488C243.627 70.744 243.307 71.0853 243.062 71.512C242.827 71.928 242.71 72.3973 242.71 72.92C242.71 73.4533 242.827 73.9333 243.062 74.36C243.296 74.7867 243.616 75.128 244.022 75.384C244.427 75.6293 244.88 75.752 245.382 75.752ZM253.844 77L250.324 68.856H252.084L254.628 74.952L257.172 68.856H258.868L255.38 77H253.844ZM263.851 77.144C263.051 77.144 262.325 76.9573 261.675 76.584C261.035 76.2107 260.523 75.704 260.139 75.064C259.765 74.424 259.579 73.7093 259.579 72.92C259.579 72.1413 259.76 71.4373 260.123 70.808C260.485 70.168 260.976 69.6613 261.595 69.288C262.213 68.904 262.901 68.712 263.659 68.712C264.416 68.712 265.088 68.904 265.675 69.288C266.261 69.6613 266.725 70.1733 267.067 70.824C267.419 71.464 267.595 72.1893 267.595 73V73.448H261.179C261.264 73.896 261.429 74.296 261.675 74.648C261.931 75 262.251 75.2773 262.635 75.48C263.029 75.6827 263.456 75.784 263.915 75.784C264.309 75.784 264.688 75.7253 265.051 75.608C265.424 75.48 265.733 75.2987 265.979 75.064L267.003 76.072C266.523 76.4347 266.027 76.7067 265.515 76.888C265.013 77.0587 264.459 77.144 263.851 77.144ZM261.195 72.248H266.011C265.947 71.8213 265.797 71.448 265.563 71.128C265.339 70.7973 265.056 70.5413 264.715 70.36C264.384 70.168 264.021 70.072 263.627 70.072C263.221 70.072 262.848 70.1627 262.507 70.344C262.165 70.5253 261.877 70.7813 261.643 71.112C261.419 71.432 261.269 71.8107 261.195 72.248ZM269.438 77V68.856H271.038V69.896C271.294 69.512 271.609 69.2133 271.982 69C272.366 68.776 272.798 68.664 273.278 68.664C273.609 68.6747 273.881 68.7227 274.094 68.808V70.248C273.945 70.184 273.79 70.1413 273.63 70.12C273.47 70.088 273.31 70.072 273.15 70.072C272.681 70.072 272.265 70.2 271.902 70.456C271.54 70.7013 271.252 71.064 271.038 71.544V77H269.438ZM277.944 77.144C277.357 77.144 276.84 77.0427 276.392 76.84C275.944 76.6267 275.592 76.3333 275.336 75.96C275.08 75.5867 274.952 75.1547 274.952 74.664C274.952 73.896 275.245 73.2933 275.832 72.856C276.418 72.408 277.224 72.184 278.248 72.184C279.048 72.184 279.789 72.3387 280.472 72.648V71.784C280.472 71.1973 280.301 70.76 279.96 70.472C279.629 70.184 279.138 70.04 278.488 70.04C278.114 70.04 277.725 70.0987 277.32 70.216C276.914 70.3227 276.461 70.4933 275.96 70.728L275.368 69.528C275.986 69.24 276.562 69.032 277.096 68.904C277.629 68.7653 278.168 68.696 278.712 68.696C279.768 68.696 280.584 68.9467 281.16 69.448C281.746 69.9493 282.04 70.664 282.04 71.592V77H280.472V76.296C280.109 76.584 279.72 76.7973 279.304 76.936C278.888 77.0747 278.434 77.144 277.944 77.144ZM276.488 74.632C276.488 75.0267 276.653 75.3467 276.984 75.592C277.325 75.8373 277.768 75.96 278.312 75.96C278.738 75.96 279.128 75.896 279.48 75.768C279.842 75.64 280.173 75.4427 280.472 75.176V73.8C280.162 73.6187 279.837 73.4907 279.496 73.416C279.165 73.3307 278.792 73.288 278.376 73.288C277.789 73.288 277.325 73.4107 276.984 73.656C276.653 73.8907 276.488 74.216 276.488 74.632ZM288.235 80.424C287.638 80.424 287.057 80.3547 286.491 80.216C285.926 80.0773 285.414 79.88 284.955 79.624L285.563 78.376C286.043 78.6213 286.491 78.7973 286.907 78.904C287.334 79.0213 287.761 79.08 288.187 79.08C288.902 79.08 289.441 78.9147 289.803 78.584C290.177 78.2533 290.363 77.768 290.363 77.128V76.2C289.649 76.7653 288.833 77.048 287.915 77.048C287.169 77.048 286.481 76.8667 285.851 76.504C285.233 76.1307 284.742 75.6293 284.379 75C284.017 74.36 283.835 73.656 283.835 72.888C283.835 72.1093 284.017 71.4053 284.379 70.776C284.753 70.136 285.249 69.6347 285.867 69.272C286.497 68.8987 287.201 68.712 287.979 68.712C288.417 68.712 288.838 68.7867 289.243 68.936C289.659 69.0747 290.038 69.2773 290.379 69.544V68.856H291.963V77.128C291.963 78.184 291.638 78.9947 290.987 79.56C290.347 80.136 289.43 80.424 288.235 80.424ZM288.123 75.672C288.593 75.672 289.019 75.592 289.403 75.432C289.787 75.2613 290.107 75.0213 290.363 74.712V71.064C290.107 70.7653 289.782 70.5307 289.387 70.36C289.003 70.1893 288.582 70.104 288.123 70.104C287.611 70.104 287.147 70.2267 286.731 70.472C286.326 70.7173 286.001 71.0533 285.755 71.48C285.521 71.896 285.403 72.3653 285.403 72.888C285.403 73.4107 285.521 73.8853 285.755 74.312C286.001 74.728 286.326 75.0587 286.731 75.304C287.147 75.5493 287.611 75.672 288.123 75.672ZM298.068 77.144C297.268 77.144 296.543 76.9573 295.892 76.584C295.252 76.2107 294.74 75.704 294.356 75.064C293.983 74.424 293.796 73.7093 293.796 72.92C293.796 72.1413 293.977 71.4373 294.34 70.808C294.703 70.168 295.193 69.6613 295.812 69.288C296.431 68.904 297.119 68.712 297.876 68.712C298.633 68.712 299.305 68.904 299.892 69.288C300.479 69.6613 300.943 70.1733 301.284 70.824C301.636 71.464 301.812 72.1893 301.812 73V73.448H295.396C295.481 73.896 295.647 74.296 295.892 74.648C296.148 75 296.468 75.2773 296.852 75.48C297.247 75.6827 297.673 75.784 298.132 75.784C298.527 75.784 298.905 75.7253 299.268 75.608C299.641 75.48 299.951 75.2987 300.196 75.064L301.22 76.072C300.74 76.4347 300.244 76.7067 299.732 76.888C299.231 77.0587 298.676 77.144 298.068 77.144ZM295.412 72.248H300.228C300.164 71.8213 300.015 71.448 299.78 71.128C299.556 70.7973 299.273 70.5413 298.932 70.36C298.601 70.168 298.239 70.072 297.844 70.072C297.439 70.072 297.065 70.1627 296.724 70.344C296.383 70.5253 296.095 70.7813 295.86 71.112C295.636 71.432 295.487 71.8107 295.412 72.248Z" fill="#1C2027"/>
<circle cx="70" cy="62" r="26" fill="#1C2027"/>
<path d="M58.511 52.7144H65.5741C65.7749 52.7144 65.9614 52.8187 66.068 52.9907C67.8644 55.8898 71.3697 61.4775 72.1829 62.7432C73.0072 64.0265 73.8832 63.3453 74.1923 62.8383L78.8393 55.326C79.0818 54.9339 78.8029 54.4254 78.3455 54.4254H75.5002C75.296 54.4254 75.1068 54.5334 75.0015 54.7101L72.5288 58.8539C72.3147 59.2125 71.809 59.2369 71.5622 58.9004L71.1323 58.3141C70.9891 58.1189 70.9794 57.8548 71.1078 57.6494L74.021 52.9886C74.1277 52.8179 74.3135 52.7144 74.5133 52.7144H81.4888C81.9349 52.7144 82.215 53.2003 81.9927 53.5913C80.2439 56.6683 77.11 61.9851 75.4289 64.1216C73.574 66.4791 71.8737 65.405 70.9978 64.3117L64.9863 54.6995C64.8795 54.5289 64.6937 54.4254 64.494 54.4254H61.8009C61.3423 54.4254 61.0636 54.9363 61.3085 55.3283L69.5891 68.5799C69.8149 68.9411 70.3342 68.9466 70.5673 68.5902L71.646 66.9413C71.7777 66.74 71.7626 66.5583 71.9884 66.6368C72.4549 66.7992 73.2901 67.6298 73.0276 68.052L70.6105 71.939C70.3832 72.3044 69.8571 72.3065 69.6269 71.9431L58.0206 53.6202C57.7724 53.2285 58.0508 52.7144 58.511 52.7144Z" fill="#FFFEFF"/>
</g>
<defs>
<linearGradient id="paint0_linear_1_5658" x1="263" y1="59" x2="263" y2="162.5" gradientUnits="userSpaceOnUse">
<stop stop-color="#FFFEFF" stop-opacity="0"/>
<stop offset="1" stop-color="#FFFEFF"/>
</linearGradient>
<clipPath id="clip0_1_5658">
<rect width="526" height="197" fill="white"/>
</clipPath>
</defs>
</svg>
