<svg width="83" height="39" viewBox="0 0 83 39" fill="none" xmlns="http://www.w3.org/2000/svg">
<rect width="83" height="39" rx="19.5" fill="#1C2027"/>
<path d="M24.278 25.5V12.9H33.602V14.556H26.168V18.426H31.064V20.028H26.168V25.5H24.278ZM34.2222 25.5V16.338H36.0222V17.508C36.3102 17.076 36.6642 16.74 37.0842 16.5C37.5162 16.248 38.0022 16.122 38.5422 16.122C38.9142 16.134 39.2202 16.188 39.4602 16.284V17.904C39.2922 17.832 39.1182 17.784 38.9382 17.76C38.7582 17.724 38.5782 17.706 38.3982 17.706C37.8702 17.706 37.4022 17.85 36.9942 18.138C36.5862 18.414 36.2622 18.822 36.0222 19.362V25.5H34.2222ZM44.7665 25.662C43.8665 25.662 43.0505 25.452 42.3185 25.032C41.5985 24.612 41.0225 24.042 40.5905 23.322C40.1705 22.602 39.9605 21.798 39.9605 20.91C39.9605 20.034 40.1645 19.242 40.5725 18.534C40.9805 17.814 41.5325 17.244 42.2285 16.824C42.9245 16.392 43.6985 16.176 44.5505 16.176C45.4025 16.176 46.1585 16.392 46.8185 16.824C47.4785 17.244 48.0005 17.82 48.3845 18.552C48.7805 19.272 48.9785 20.088 48.9785 21V21.504H41.7605C41.8565 22.008 42.0425 22.458 42.3185 22.854C42.6065 23.25 42.9665 23.562 43.3985 23.79C43.8425 24.018 44.3225 24.132 44.8385 24.132C45.2825 24.132 45.7085 24.066 46.1165 23.934C46.5365 23.79 46.8845 23.586 47.1605 23.322L48.3125 24.456C47.7725 24.864 47.2145 25.17 46.6385 25.374C46.0745 25.566 45.4505 25.662 44.7665 25.662ZM41.7785 20.154H47.1965C47.1245 19.674 46.9565 19.254 46.6925 18.894C46.4405 18.522 46.1225 18.234 45.7385 18.03C45.3665 17.814 44.9585 17.706 44.5145 17.706C44.0585 17.706 43.6385 17.808 43.2545 18.012C42.8705 18.216 42.5465 18.504 42.2825 18.876C42.0305 19.236 41.8625 19.662 41.7785 20.154ZM55.12 25.662C54.22 25.662 53.404 25.452 52.672 25.032C51.952 24.612 51.376 24.042 50.944 23.322C50.524 22.602 50.314 21.798 50.314 20.91C50.314 20.034 50.518 19.242 50.926 18.534C51.334 17.814 51.886 17.244 52.582 16.824C53.278 16.392 54.052 16.176 54.904 16.176C55.756 16.176 56.512 16.392 57.172 16.824C57.832 17.244 58.354 17.82 58.738 18.552C59.134 19.272 59.332 20.088 59.332 21V21.504H52.114C52.21 22.008 52.396 22.458 52.672 22.854C52.96 23.25 53.32 23.562 53.752 23.79C54.196 24.018 54.676 24.132 55.192 24.132C55.636 24.132 56.062 24.066 56.47 23.934C56.89 23.79 57.238 23.586 57.514 23.322L58.666 24.456C58.126 24.864 57.568 25.17 56.992 25.374C56.428 25.566 55.804 25.662 55.12 25.662ZM52.132 20.154H57.55C57.478 19.674 57.31 19.254 57.046 18.894C56.794 18.522 56.476 18.234 56.092 18.03C55.72 17.814 55.312 17.706 54.868 17.706C54.412 17.706 53.992 17.808 53.608 18.012C53.224 18.216 52.9 18.504 52.636 18.876C52.384 19.236 52.216 19.662 52.132 20.154Z" fill="#FFFEFF"/>
</svg>
