<svg width="42" height="42" viewBox="0 0 42 42" fill="none" xmlns="http://www.w3.org/2000/svg">
<circle cx="21" cy="21" r="20.5" stroke="#8D8F93"/>
<path d="M30.5 20.787H18.145M13.784 20.787H12M13.784 20.787C13.784 20.2088 14.0137 19.6543 14.4225 19.2455C14.8313 18.8367 15.3858 18.607 15.964 18.607C16.5422 18.607 17.0967 18.8367 17.5055 19.2455C17.9143 19.6543 18.144 20.2088 18.144 20.787C18.144 21.3652 17.9143 21.9197 17.5055 22.3285C17.0967 22.7373 16.5422 22.967 15.964 22.967C15.3858 22.967 14.8313 22.7373 14.4225 22.3285C14.0137 21.9197 13.784 21.3652 13.784 20.787ZM30.5 27.394H24.752M24.752 27.394C24.752 27.9723 24.5218 28.5274 24.1128 28.9363C23.7039 29.3453 23.1493 29.575 22.571 29.575C21.9928 29.575 21.4383 29.3443 21.0295 28.9355C20.6207 28.5267 20.391 27.9722 20.391 27.394M24.752 27.394C24.752 26.8157 24.5218 26.2616 24.1128 25.8527C23.7039 25.4437 23.1493 25.214 22.571 25.214C21.9928 25.214 21.4383 25.4437 21.0295 25.8525C20.6207 26.2613 20.391 26.8158 20.391 27.394M20.391 27.394H12M30.5 14.18H27.395M23.034 14.18H12M23.034 14.18C23.034 13.6018 23.2637 13.0473 23.6725 12.6385C24.0813 12.2297 24.6358 12 25.214 12C25.5003 12 25.7838 12.0564 26.0483 12.1659C26.3127 12.2755 26.5531 12.4361 26.7555 12.6385C26.9579 12.8409 27.1185 13.0813 27.2281 13.3458C27.3376 13.6102 27.394 13.8937 27.394 14.18C27.394 14.4663 27.3376 14.7498 27.2281 15.0143C27.1185 15.2787 26.9579 15.5191 26.7555 15.7215C26.5531 15.9239 26.3127 16.0845 26.0483 16.1941C25.7838 16.3036 25.5003 16.36 25.214 16.36C24.6358 16.36 24.0813 16.1303 23.6725 15.7215C23.2637 15.3127 23.034 14.7582 23.034 14.18Z" stroke="#8D8F93" stroke-width="1.5" stroke-miterlimit="10" stroke-linecap="round"/>
</svg>
