<svg width="42" height="42" viewBox="0 0 42 42" fill="none" xmlns="http://www.w3.org/2000/svg">
<circle cx="21" cy="21" r="20.5" fill="white" stroke="#C3EC6A"/>
<path d="M29.1637 26.4277C29.0387 26.4277 28.915 26.4032 28.7996 26.3554C28.6842 26.3076 28.5793 26.2376 28.491 26.1493C28.4027 26.061 28.3327 25.9561 28.2849 25.8407C28.2371 25.7253 28.2126 25.6016 28.2126 25.4766L28.2136 15.6732L15.0495 28.8374C14.8712 29.0156 14.6294 29.1158 14.3773 29.1158C14.1253 29.1158 13.8835 29.0157 13.7053 28.8374C13.527 28.6592 13.4269 28.4174 13.4269 28.1653C13.4269 27.9132 13.527 27.6715 13.7053 27.4932L26.8695 14.329L17.066 14.33C16.8138 14.33 16.5719 14.2298 16.3935 14.0515C16.2152 13.8731 16.115 13.6312 16.115 13.379C16.115 13.1268 16.2152 12.8849 16.3936 12.7065C16.5719 12.5282 16.8138 12.428 17.066 12.428L29.1639 12.4278C29.2888 12.4277 29.4125 12.4522 29.5279 12.5C29.6433 12.5478 29.7482 12.6178 29.8365 12.7061C29.9248 12.7945 29.9949 12.8993 30.0427 13.0147C30.0904 13.1302 30.115 13.2539 30.1149 13.3788L30.1147 25.4766C30.1148 25.6015 30.0902 25.7252 30.0424 25.8406C29.9947 25.9561 29.9246 26.0609 29.8363 26.1493C29.748 26.2376 29.6431 26.3076 29.5277 26.3554C29.4123 26.4032 29.2886 26.4277 29.1637 26.4277Z" fill="#C3EC6A"/>
</svg>
