<svg width="26" height="25" viewBox="0 0 26 25" fill="none" xmlns="http://www.w3.org/2000/svg">
<path d="M24.1429 14.2857H23.7857C18.8546 14.2857 14.8571 18.2832 14.8571 23.2143C14.8571 23.6879 14.6615 24.1421 14.3132 24.477C13.9649 24.8119 13.4925 25 13 25C12.5075 25 12.0351 24.8119 11.6868 24.477C11.3385 24.1421 11.1429 23.6879 11.1429 23.2143C11.1429 18.2832 7.1454 14.2857 2.21429 14.2857H1.85714C1.3646 14.2857 0.892227 14.0976 0.543945 13.7627C0.195663 13.4278 0 12.9736 0 12.5C0 12.0264 0.195663 11.5722 0.543945 11.2373C0.892227 10.9024 1.3646 10.7143 1.85714 10.7143H2.21429C7.1454 10.7143 11.1429 6.71683 11.1429 1.78571C11.1429 1.31211 11.3385 0.85791 11.6868 0.523023C12.0351 0.188137 12.5075 0 13 0C13.4925 0 13.9649 0.188137 14.3132 0.523023C14.6615 0.85791 14.8571 1.31211 14.8571 1.78571C14.8571 6.71683 18.8546 10.7143 23.7857 10.7143H24.1429C24.6354 10.7143 25.1078 10.9024 25.4561 11.2373C25.8043 11.5722 26 12.0264 26 12.5C26 12.9736 25.8043 13.4278 25.4561 13.7627C25.1078 14.0976 24.6354 14.2857 24.1429 14.2857Z" fill="#FFFEFF"/>
</svg>
