<svg width="294" height="195" viewBox="0 0 294 195" fill="none" xmlns="http://www.w3.org/2000/svg">
<g clip-path="url(#clip0_1_27787)">
<path d="M254.542 107.217C242.044 107.217 231.869 97.0427 231.869 84.5447C231.869 72.0466 242.044 61.8718 254.542 61.8718C267.04 61.8718 277.215 72.0466 277.215 84.5447C277.215 97.0427 267.04 107.217 254.542 107.217ZM254.542 64.807C243.662 64.807 234.804 73.6646 234.804 84.5447C234.804 95.4247 243.662 104.282 254.542 104.282C265.422 104.282 274.28 95.4247 274.28 84.5447C274.28 73.6646 265.422 64.807 254.542 64.807Z" fill="#C0D56B"/>
<path d="M254.543 107.177V143.509H218.211C218.211 123.44 234.474 107.177 254.543 107.177Z" fill="#D6E29A"/>
<path d="M290.865 143.499H254.543V107.166C274.602 107.176 290.865 123.439 290.865 143.499Z" fill="#C0D56B"/>
<path d="M199.726 115.618C180.901 115.618 165.582 100.299 165.582 81.4742C165.582 62.6493 180.901 47.3301 199.726 47.3301C218.551 47.3301 233.87 62.6493 233.87 81.4742C233.87 100.299 218.561 115.618 199.726 115.618ZM199.726 51.7485C183.339 51.7485 170 65.0867 170 81.4742C170 97.8617 183.339 111.2 199.726 111.2C216.124 111.2 229.452 97.8617 229.452 81.4742C229.462 65.0763 216.124 51.7485 199.726 51.7485Z" fill="#C0D56B"/>
<path d="M199.727 115.556V170.268H145.016C145.016 140.055 169.514 115.556 199.727 115.556Z" fill="#D7E39B"/>
<path d="M254.438 170.268H199.727V115.556C229.94 115.556 254.438 140.055 254.438 170.268Z" fill="#AECB3C"/>
<path d="M45.7675 114.011C31.3922 114.011 19.7031 102.322 19.7031 87.9463C19.7031 73.5709 31.3922 61.8818 45.7675 61.8818C60.1429 61.8818 71.832 73.5709 71.832 87.9463C71.832 102.322 60.1429 114.011 45.7675 114.011ZM45.7675 65.2423C33.2487 65.2423 23.074 75.4275 23.074 87.9359C23.074 100.455 33.2591 110.629 45.7675 110.629C58.2863 110.629 68.4611 100.444 68.4611 87.9359C68.4611 75.4275 58.2863 65.2423 45.7675 65.2423Z" fill="#C0D56B"/>
<path d="M45.7674 113.959V155.726H4C4 132.659 22.7004 113.959 45.7674 113.959Z" fill="#D6E29A"/>
<path d="M87.535 155.726H45.7676V113.959C68.8345 113.959 87.535 132.659 87.535 155.726Z" fill="#C0D56B"/>
<path d="M114.409 119.591C88.3341 119.591 67.1133 98.3807 67.1133 72.2956C67.1133 46.2104 88.3237 25 114.409 25C140.494 25 161.704 46.2104 161.704 72.2956C161.704 98.3807 140.484 119.591 114.409 119.591ZM114.409 31.1298C91.7049 31.1298 73.2327 49.602 73.2327 72.3059C73.2327 95.0099 91.7049 113.482 114.409 113.482C137.113 113.482 155.585 95.0099 155.585 72.3059C155.585 49.602 137.113 31.1298 114.409 31.1298Z" fill="#5E1EE5"/>
<path d="M114.407 119.498V195.264H38.6406C38.6406 153.435 72.5669 119.498 114.407 119.498Z" fill="#AF8FF2"/>
<path d="M189.561 195.254H113.795V119.487C155.635 119.477 189.561 153.414 189.561 195.254Z" fill="#5E1EE5"/>
</g>
<defs>
<clipPath id="clip0_1_27787">
<rect width="294" height="195" fill="white"/>
</clipPath>
</defs>
</svg>
