<svg width="64" height="64" viewBox="0 0 64 64" fill="none" xmlns="http://www.w3.org/2000/svg">
<circle cx="32" cy="32" r="32" fill="white"/>
<path fill-rule="evenodd" clip-rule="evenodd" d="M20.8665 17.8115C21.0836 17.6229 21.3518 17.5029 21.637 17.4667C21.9223 17.4304 22.2119 17.4796 22.4693 17.6079L48.6485 30.6983C48.8906 30.8189 49.0942 31.0047 49.2365 31.2346C49.3788 31.4646 49.4542 31.7296 49.4542 32.0001C49.4542 32.2705 49.3788 32.5356 49.2365 32.7655C49.0942 32.9955 48.8906 33.1812 48.6485 33.3018L22.4693 46.3922C22.212 46.521 21.9222 46.5705 21.6367 46.5346C21.3512 46.4986 21.0828 46.3788 20.8654 46.1902C20.6481 46.0016 20.4915 45.7528 20.4156 45.4752C20.3397 45.1977 20.3478 44.9038 20.4389 44.6309L24.1651 33.4546H32C32.3857 33.4546 32.7557 33.3013 33.0284 33.0285C33.3012 32.7558 33.4544 32.3858 33.4544 32.0001C33.4544 31.6143 33.3012 31.2444 33.0284 30.9716C32.7557 30.6988 32.3857 30.5456 32 30.5456H24.1651L20.4375 19.3693C20.3468 19.0964 20.3391 18.8028 20.4152 18.5256C20.4913 18.2483 20.6493 17.9998 20.8665 17.8115Z" fill="#5E1EE5"/>
</svg>
