<svg width="40" height="40" viewBox="0 0 40 40" fill="none" xmlns="http://www.w3.org/2000/svg">
<circle cx="20" cy="20" r="20" fill="#D4C4F6"/>
<path d="M28.2758 20.0005C28.2758 20.2639 28.1712 20.5165 27.985 20.7027C27.7987 20.8889 27.5461 20.9936 27.2827 20.9936H20.9931V27.2832C20.9931 27.5466 20.8885 27.7992 20.7022 27.9855C20.516 28.1717 20.2634 28.2763 20 28.2763C19.7366 28.2763 19.484 28.1717 19.2978 27.9855C19.1115 27.7992 19.0069 27.5466 19.0069 27.2832V20.9936H12.7172C12.4538 20.9936 12.2012 20.8889 12.015 20.7027C11.8288 20.5165 11.7241 20.2639 11.7241 20.0005C11.7241 19.7371 11.8288 19.4845 12.015 19.2982C12.2012 19.112 12.4538 19.0074 12.7172 19.0074H19.0069V12.7177C19.0069 12.4543 19.1115 12.2017 19.2978 12.0155C19.484 11.8292 19.7366 11.7246 20 11.7246C20.2634 11.7246 20.516 11.8292 20.7022 12.0155C20.8885 12.2017 20.9931 12.4543 20.9931 12.7177V19.0074H27.2827C27.5461 19.0074 27.7987 19.112 27.985 19.2982C28.1712 19.4845 28.2758 19.7371 28.2758 20.0005Z" fill="#5E1EE5"/>
</svg>
