<svg width="658" height="630" viewBox="0 0 658 630" fill="none" xmlns="http://www.w3.org/2000/svg">
<g clip-path="url(#clip0_367_867)">
<path d="M-111.792 188H-1.3225C-0.707077 188 0.215988 188.308 0.523705 188.923C24.5254 230.758 74.3752 316.889 85.7606 335.961C97.146 355.033 108.839 344.882 113.147 337.499L182.383 216.3C183.306 214.762 182.075 213.224 180.536 213.224H127.61C126.994 213.224 126.071 213.532 125.763 214.455L85.7606 286.743C85.1451 287.974 82.9913 288.281 82.0681 287.051L68.5287 267.056C68.2209 266.441 67.9132 265.518 68.5287 264.903L112.224 189.23C112.532 188.615 113.147 188.308 114.07 188.308H222.693C224.232 188.308 225.155 189.846 224.54 191.384C202.077 234.449 154.381 322.734 129.764 356.879C104.531 391.639 81.1449 375.951 69.4518 359.647L-14.2464 214.762C-14.5541 214.147 -15.1695 213.84 -16.0926 213.84H-66.8654C-68.404 213.84 -69.6348 215.685 -68.7117 216.916L54.9892 431.013C55.9123 432.244 57.7589 432.551 58.6821 431.013L80.5295 395.023C81.1449 394.1 82.3756 393.792 83.2988 394.1C86.6836 395.33 94.6842 397.791 102.992 395.946C105.146 395.638 107.301 397.791 106.07 399.637L59.2971 480.846C58.374 482.384 56.5279 482.384 55.6047 480.846L-113.638 191.691C-114.561 189.846 -113.638 188 -111.792 188Z" fill="#AF8FF2" fill-opacity="0.35"/>
<path d="M340.983 323.89H246.205V326.113H340.983V323.89Z" fill="#1B2027"/>
<path d="M290.449 433.95H263.436C262.813 433.95 262.324 433.461 262.324 432.839V343.56C262.324 342.937 262.813 342.448 263.436 342.448H290.449C291.071 342.448 291.56 342.937 291.56 343.56V432.839C291.56 433.439 291.071 433.95 290.449 433.95ZM264.547 431.728H289.337V344.671H264.547V431.728Z" fill="#1B2027"/>
<path d="M323.753 433.95H296.741C296.118 433.95 295.629 433.461 295.629 432.839V343.56C295.629 342.937 296.118 342.448 296.741 342.448H323.753C324.376 342.448 324.865 342.937 324.865 343.56V432.839C324.865 433.439 324.376 433.95 323.753 433.95ZM297.852 431.728H322.642V344.671H297.852V431.728Z" fill="#1B2027"/>
<path d="M121.369 238.878H77.1032C75.8804 238.878 74.8799 239.879 74.8799 241.101V265.304C74.8799 266.527 75.8804 267.527 77.1032 267.527H81.8832V432.506C81.8832 433.728 82.8837 434.728 84.1065 434.728H114.387C115.61 434.728 116.611 433.728 116.611 432.506V267.527H121.391C122.614 267.527 123.614 266.527 123.614 265.304V241.101C123.592 239.879 122.591 238.878 121.369 238.878ZM112.142 430.305H86.3297V267.549H112.164V430.305H112.142ZM119.145 263.082H114.365H84.1065H79.3264V243.323H119.167V263.082H119.145Z" fill="#1B2027"/>
<path d="M186.466 238.878H142.178C140.956 238.878 139.955 239.879 139.955 241.101V265.304C139.955 266.527 140.956 267.527 142.178 267.527H146.958V432.506C146.958 433.728 147.959 434.728 149.182 434.728H179.463C180.685 434.728 181.686 433.728 181.686 432.506V267.527H186.466C187.689 267.527 188.689 266.527 188.689 265.304V241.101C188.689 239.879 187.689 238.878 186.466 238.878ZM177.239 430.305H151.405V267.549H177.239V430.305ZM184.243 263.082H179.463H149.182H144.402V243.323H184.243V263.082Z" fill="#1B2027"/>
<path d="M251.564 238.878H207.276C206.053 238.878 205.053 239.879 205.053 241.101V265.327C205.053 266.549 206.053 267.549 207.276 267.549H212.056V432.528C212.056 433.75 213.057 434.751 214.279 434.751H244.56C245.783 434.751 246.784 433.75 246.784 432.528V267.549H251.564C252.786 267.549 253.787 266.549 253.787 265.327V241.101C253.787 239.879 252.786 238.878 251.564 238.878ZM242.337 430.305H216.503V267.549H242.337V430.305ZM249.34 263.104H209.499V243.323H249.34V263.104Z" fill="#1B2027"/>
<path d="M379.513 238.878H335.225C334.002 238.878 333.002 239.879 333.002 241.101V265.327C333.002 266.549 334.002 267.549 335.225 267.549H340.005V432.528C340.005 433.75 341.006 434.751 342.229 434.751H372.51C373.732 434.751 374.733 433.75 374.733 432.528V267.549H379.513C380.736 267.549 381.736 266.549 381.736 265.327V241.101C381.736 239.879 380.736 238.878 379.513 238.878ZM370.286 430.305H344.452V267.549H370.286V430.305ZM377.29 263.104H337.449V243.323H377.29V263.104Z" fill="#1B2027"/>
<path d="M444.588 238.878H400.3C399.078 238.878 398.077 239.879 398.077 241.101V265.304C398.077 266.527 399.078 267.527 400.3 267.527H405.08V432.506C405.08 433.728 406.081 434.728 407.304 434.728H437.585C438.808 434.728 439.808 433.728 439.808 432.506V267.527H444.588C445.811 267.527 446.811 266.527 446.811 265.304V241.101C446.811 239.879 445.833 238.878 444.588 238.878ZM435.384 430.305H409.549V267.549H435.384V430.305ZM442.365 263.082H437.585H407.304H402.524V243.323H442.365V263.082Z" fill="#1B2027"/>
<path d="M509.685 238.878H465.397C464.174 238.878 463.174 239.879 463.174 241.101V265.304C463.174 266.527 464.174 267.527 465.397 267.527H470.177V432.506C470.177 433.728 471.178 434.728 472.4 434.728H502.681C503.904 434.728 504.905 433.728 504.905 432.506V267.527H509.685C510.908 267.527 511.908 266.527 511.908 265.304V241.101C511.908 239.879 510.908 238.878 509.685 238.878ZM500.458 430.305H474.624V267.549H500.458V430.305ZM507.461 263.082H502.681H472.4H467.62V243.323H507.461V263.082Z" fill="#1B2027"/>
<path d="M524.247 456.02H504.949V432.728C504.949 431.506 503.949 430.505 502.726 430.505H84.1059C82.8831 430.505 81.8826 431.506 81.8826 432.728V456.02H62.5846C61.3618 456.02 60.3613 457.02 60.3613 458.243V483.757C60.3613 484.98 61.3618 485.98 62.5846 485.98H524.247C525.47 485.98 526.471 484.98 526.471 483.757V458.243C526.471 457.02 525.492 456.02 524.247 456.02ZM86.3292 434.95H500.525V456.02H86.3292V434.95ZM522.024 481.535H64.7856V460.465H84.0837H502.726H522.024V481.535Z" fill="#1B2027"/>
<path d="M511.908 231.344H74.8795C73.6567 231.344 72.6562 230.343 72.6562 229.121V219.364C72.6562 218.142 73.6567 217.142 74.8795 217.142H511.908C513.131 217.142 514.132 218.142 514.132 219.364V229.121C514.132 230.343 513.131 231.344 511.908 231.344ZM77.1028 226.899H509.685V221.587H77.1028V226.899Z" fill="#1B2027"/>
<path d="M512.864 205.296L294.339 101.037C293.739 100.748 293.027 100.748 292.427 101.037L73.9235 205.296C72.9897 205.74 72.4784 206.785 72.7229 207.785C72.9453 208.807 73.8568 209.518 74.9018 209.518H120.39C120.479 209.541 120.568 209.563 120.657 209.563H466.176C466.265 209.563 466.354 209.541 466.442 209.518H511.931C512.976 209.518 513.865 208.807 514.109 207.785C514.31 206.785 513.798 205.74 512.864 205.296ZM130.461 205.096L293.405 127.351L456.349 205.096H130.461ZM464.486 205.096L294.139 123.795C293.672 123.573 293.094 123.573 292.627 123.795L122.28 205.096H84.6842L293.383 105.526L502.082 205.096H464.486Z" fill="#1B2027"/>
<path d="M340.206 314.489L294.273 280.995C293.873 280.706 293.361 280.706 292.961 280.995L246.984 314.533L242.537 317.778V320.601H344.652V317.711L340.206 314.489ZM245.494 318.378L246.984 317.289L293.628 283.262L340.206 317.245L341.762 318.378H245.494Z" fill="#1B2027"/>
<path d="M293.583 196.517C279.932 196.517 268.815 185.404 268.815 171.758C268.815 158.111 279.932 146.999 293.583 146.999C307.234 146.999 318.35 158.111 318.35 171.758C318.35 185.404 307.256 196.517 293.583 196.517ZM293.583 149.221C281.155 149.221 271.039 159.334 271.039 171.758C271.039 184.182 281.155 194.294 293.583 194.294C306.011 194.294 316.127 184.182 316.127 171.758C316.127 159.334 306.011 149.221 293.583 149.221Z" fill="#1B2027"/>
<path d="M293.583 190.116C303.725 190.116 311.947 181.896 311.947 171.758C311.947 161.619 303.725 153.399 293.583 153.399C283.441 153.399 275.219 161.619 275.219 171.758C275.219 181.896 283.441 190.116 293.583 190.116Z" fill="#1B2027"/>
<path d="M281.311 163.823H289.292C289.337 163.823 289.404 163.845 289.426 163.89C291.16 166.913 294.762 173.136 295.584 174.514C296.407 175.892 297.252 175.158 297.563 174.625L302.565 165.868C302.632 165.757 302.543 165.646 302.432 165.646H298.608C298.564 165.646 298.497 165.668 298.475 165.735L295.584 170.958C295.54 171.046 295.384 171.069 295.318 170.98L294.339 169.535C294.317 169.491 294.295 169.424 294.339 169.38L297.496 163.912C297.519 163.868 297.563 163.845 297.63 163.845H305.478C305.589 163.845 305.656 163.957 305.611 164.068C303.988 167.179 300.542 173.558 298.764 176.025C296.941 178.536 295.251 177.403 294.406 176.225L288.359 165.757C288.336 165.712 288.292 165.69 288.225 165.69H284.557C284.446 165.69 284.357 165.824 284.424 165.912L293.361 181.381C293.428 181.47 293.561 181.492 293.628 181.381L295.206 178.781C295.251 178.714 295.34 178.692 295.406 178.714C295.651 178.803 296.229 178.981 296.829 178.848C296.985 178.825 297.141 178.981 297.052 179.114L293.672 184.982C293.606 185.093 293.472 185.093 293.406 184.982L281.178 164.09C281.111 163.957 281.178 163.823 281.311 163.823Z" fill="white"/>
<path d="M569.447 489.314H17.3632C15.5179 489.314 14.0283 487.825 14.0283 485.98C14.0283 484.135 15.5179 482.646 17.3632 482.646H569.447C571.292 482.646 572.781 484.135 572.781 485.98C572.781 487.825 571.292 489.314 569.447 489.314Z" fill="#1B2027"/>
<path d="M130.462 523.008C129.239 523.008 128.238 522.007 128.238 520.785V508.717H243.982V485.958C243.982 484.735 244.982 483.735 246.205 483.735C247.428 483.735 248.428 484.735 248.428 485.958V513.162H132.685V520.785C132.685 522.007 131.684 523.008 130.462 523.008Z" fill="#1B2027"/>
<path d="M69.055 505.605H40.3525V485.98C40.3525 484.757 41.353 483.757 42.5758 483.757C43.7986 483.757 44.7991 484.757 44.7991 485.98V501.16H69.0772C70.3 501.16 71.3005 502.16 71.3005 503.382C71.3005 504.605 70.3 505.605 69.055 505.605Z" fill="#1B2027"/>
<path d="M402.546 543.432H375.066V485.98C375.066 484.757 376.067 483.757 377.29 483.757C378.512 483.757 379.513 484.757 379.513 485.98V538.987H402.546C403.769 538.987 404.769 539.987 404.769 541.21C404.769 542.432 403.769 543.432 402.546 543.432Z" fill="#1B2027"/>
<path d="M483.073 515.806H377.29C376.067 515.806 375.066 514.806 375.066 513.584C375.066 512.361 376.067 511.361 377.29 511.361H483.073C484.296 511.361 485.296 512.361 485.296 513.584C485.296 514.806 484.296 515.806 483.073 515.806Z" fill="#1B2027"/>
<path d="M534.497 529.808H511.93C510.708 529.808 509.707 528.808 509.707 527.586C509.707 526.363 510.708 525.363 511.93 525.363H530.05V485.98C530.05 484.757 531.05 483.757 532.273 483.757C533.496 483.757 534.497 484.757 534.497 485.98V529.808Z" fill="#1B2027"/>
<path d="M71.8338 508.916C74.8912 508.916 77.3698 506.439 77.3698 503.382C77.3698 500.326 74.8912 497.848 71.8338 497.848C68.7764 497.848 66.2979 500.326 66.2979 503.382C66.2979 506.439 68.7764 508.916 71.8338 508.916Z" fill="#1B2027"/>
<path d="M40.3519 361.095C42.648 361.095 44.5094 359.235 44.5094 356.939C44.5094 354.644 42.648 352.783 40.3519 352.783C38.0557 352.783 36.1943 354.644 36.1943 356.939C36.1943 359.235 38.0557 361.095 40.3519 361.095Z" fill="#1B2027"/>
<path d="M587.322 236.1C589.618 236.1 591.479 234.24 591.479 231.944C591.479 229.649 589.618 227.788 587.322 227.788C585.026 227.788 583.164 229.649 583.164 231.944C583.164 234.24 585.026 236.1 587.322 236.1Z" fill="#1B2027"/>
<path d="M130.462 529.053C133.519 529.053 135.998 526.575 135.998 523.519C135.998 520.462 133.519 517.984 130.462 517.984C127.404 517.984 124.926 520.462 124.926 523.519C124.926 526.575 127.404 529.053 130.462 529.053Z" fill="#1B2027"/>
<path d="M405.303 546.744C408.36 546.744 410.838 544.266 410.838 541.21C410.838 538.153 408.36 535.676 405.303 535.676C402.245 535.676 399.767 538.153 399.767 541.21C399.767 544.266 402.245 546.744 405.303 546.744Z" fill="#1B2027"/>
<path d="M485.341 519.118C488.398 519.118 490.877 516.64 490.877 513.584C490.877 510.528 488.398 508.05 485.341 508.05C482.283 508.05 479.805 510.528 479.805 513.584C479.805 516.64 482.283 519.118 485.341 519.118Z" fill="#1B2027"/>
<path d="M508.618 533.12C511.675 533.12 514.154 530.642 514.154 527.586C514.154 524.529 511.675 522.052 508.618 522.052C505.561 522.052 503.082 524.529 503.082 527.586C503.082 530.642 505.561 533.12 508.618 533.12Z" fill="#1B2027"/>
<path d="M122.547 114.416C128.305 111.927 132.351 106.171 132.351 99.5031C132.351 90.5463 125.059 83.2563 116.099 83.2563C107.14 83.2563 99.8472 90.5463 99.8472 99.5031C99.8472 106.171 103.894 111.905 109.652 114.416C97.7351 117.328 88.8643 128.04 88.8643 140.842V141.954H143.312V140.842C143.334 128.063 134.464 117.328 122.547 114.416ZM102.093 99.5253C102.093 91.7909 108.385 85.5011 116.122 85.5011C123.859 85.5011 130.15 91.7909 130.15 99.5253C130.15 107.26 123.859 113.55 116.122 113.55C108.385 113.55 102.093 107.238 102.093 99.5253ZM91.132 139.731C91.71 126.462 102.693 115.839 116.099 115.839C129.528 115.839 140.511 126.462 141.089 139.731H91.132Z" fill="#1B2027"/>
<path d="M184.065 83.2788C172.704 83.2788 163.455 92.5246 163.455 103.882C163.455 115.239 172.704 124.462 184.065 124.462C195.426 124.462 204.675 115.217 204.675 103.859C204.675 92.5023 195.426 83.2788 184.065 83.2788ZM184.065 122.24C173.927 122.24 165.678 113.994 165.678 103.859C165.678 93.7247 173.927 85.4791 184.065 85.4791C194.203 85.4791 202.451 93.7247 202.451 103.859C202.451 113.994 194.203 122.24 184.065 122.24Z" fill="#1B2027"/>
<path d="M192.757 102.748H186.755C186.466 102.015 185.887 101.459 185.154 101.148V89.8354C185.154 89.2131 184.665 88.7241 184.042 88.7241C183.42 88.7241 182.931 89.2131 182.931 89.8354V101.148C181.863 101.593 181.107 102.637 181.107 103.86C181.107 105.482 182.419 106.793 184.042 106.793C185.265 106.793 186.31 106.038 186.755 104.971H192.757C193.38 104.971 193.869 104.482 193.869 103.86C193.869 103.237 193.38 102.748 192.757 102.748Z" fill="#1B2027"/>
<path d="M36.1498 151.822C24.7889 151.822 15.54 161.068 15.54 172.425C15.54 183.782 24.7889 193.028 36.1498 193.028C47.5107 193.028 56.7595 183.782 56.7595 172.425C56.7595 161.068 47.5107 151.822 36.1498 151.822ZM36.1498 190.783C26.0117 190.783 17.7633 182.537 17.7633 172.402C17.7633 162.268 26.0117 154.022 36.1498 154.022C46.2879 154.022 54.5363 162.268 54.5363 172.402C54.5363 182.537 46.2879 190.783 36.1498 190.783Z" fill="#1B2027"/>
<path d="M34.3934 179.048C34.1044 179.048 33.8154 178.937 33.6153 178.714L26.0561 171.158C25.6115 170.713 25.6115 170.024 26.0561 169.58C26.5008 169.135 27.19 169.135 27.6347 169.58L34.4157 176.359L44.6872 166.068C45.1318 165.624 45.821 165.624 46.2657 166.068C46.7104 166.513 46.7104 167.202 46.2657 167.646L35.1938 178.714C34.9715 178.937 34.7047 179.048 34.3934 179.048Z" fill="#1B2027"/>
<path d="M628.475 322.757L629.075 324.89L637.991 322.357L570.336 382.521C570.336 382.499 570.336 382.476 570.336 382.454C570.336 378.654 567.246 375.564 563.444 375.564C561.554 375.564 559.843 376.32 558.62 377.565L501.593 430.928L503.105 432.55L556.574 382.521C556.597 386.277 559.687 389.344 563.444 389.344C565.089 389.344 566.601 388.722 567.78 387.744L567.935 387.61C568.091 387.477 568.246 387.366 568.38 387.21L639.369 324.068L636.056 332.803L638.146 333.581L643.927 318.334L628.475 322.757ZM563.489 387.121C560.91 387.121 558.82 385.032 558.82 382.454C558.82 379.876 560.91 377.787 563.489 377.787C566.068 377.787 568.158 379.876 568.158 382.454C568.158 383.677 567.668 384.788 566.89 385.632L566.379 386.099C565.579 386.721 564.578 387.121 563.489 387.121Z" fill="#1B2027"/>
<path d="M116.188 141.131H113.965V187.871H116.188V141.131Z" fill="#1B2027"/>
<path d="M185.176 124.462H182.953V154.556H185.176V124.462Z" fill="#1B2027"/>
<path d="M80.9496 205.074H78.7263V179.048H54.5371V176.825H80.9496V205.074Z" fill="#1B2027"/>
<path d="M585.587 289.196V297.998H574.915V292.93H561.376V303.043H549.281V307.554H537.187V323.912H549.281H550.704H561.376H562.799H573.47H574.893H585.565H586.988H599.082V289.196H585.587ZM548.992 322.201H538.921V309.288H548.992V322.201ZM561.087 322.201H551.015V304.776H561.087V322.201ZM573.181 322.201H563.11V294.664H573.181V322.201ZM585.298 322.201H575.227V299.731H585.298V322.201ZM597.393 322.201H587.321V290.93H597.393V322.201Z" fill="#1B2027"/>
<path d="M541.945 303.376L540.366 301.798L551.772 290.552L565.778 285.418L578.251 286.863L594.214 276.528L595.414 278.395L578.807 289.174L566.045 287.685L552.772 292.552L541.945 303.376Z" fill="#1B2027"/>
<path d="M600.973 337.648H535.319C527.605 337.648 521.335 331.38 521.335 323.668V277.706C521.335 269.994 527.605 263.726 535.319 263.726H600.973C608.687 263.726 614.957 269.994 614.957 277.706V323.668C614.957 331.38 608.687 337.648 600.973 337.648ZM535.319 265.949C528.827 265.949 523.558 271.216 523.558 277.706V323.668C523.558 330.158 528.827 335.425 535.319 335.425H600.973C607.465 335.425 612.734 330.158 612.734 323.668V277.706C612.734 271.216 607.465 265.949 600.973 265.949H535.319Z" fill="#1B2027"/>
<path d="M557.152 265.949H554.929V175.536H445.455V173.313H556.041C556.663 173.313 557.152 173.802 557.152 174.425V265.949Z" fill="#1B2027"/>
<path d="M588.433 229.121H586.21V216.853H556.04V214.63H587.322C587.944 214.63 588.433 215.119 588.433 215.742V229.121Z" fill="#1B2027"/>
<path d="M411.95 161.534H409.727V127.329C409.727 126.707 410.216 126.218 410.838 126.218H452.747V128.44H411.95V161.534Z" fill="#1B2027"/>
<path d="M540.211 154.089H462.73C456.772 154.089 451.925 149.243 451.925 143.287V108.104C451.925 102.148 456.772 97.3027 462.73 97.3027H540.211C546.169 97.3027 551.016 102.148 551.016 108.104V143.287C551.016 149.243 546.169 154.089 540.211 154.089ZM462.708 99.5253C457.972 99.5253 454.126 103.37 454.126 108.104V143.287C454.126 148.021 457.972 151.866 462.708 151.866H540.189C544.924 151.866 548.771 148.021 548.771 143.287V108.104C548.771 103.37 544.924 99.5253 540.189 99.5253H462.708Z" fill="#1B2027"/>
<path d="M539.5 110.505H462.397C461.352 110.505 460.507 109.66 460.507 108.616V105.882C460.507 104.837 461.352 103.993 462.397 103.993H539.5C540.545 103.993 541.389 104.837 541.389 105.882V108.616C541.389 109.66 540.545 110.505 539.5 110.505Z" fill="#1B2027"/>
<path d="M539.5 120.262H462.397C461.352 120.262 460.507 119.417 460.507 118.372V115.639C460.507 114.594 461.352 113.75 462.397 113.75H539.5C540.545 113.75 541.389 114.594 541.389 115.639V118.372C541.389 119.395 540.545 120.262 539.5 120.262Z" fill="#1B2027"/>
<path d="M484.14 133.308H462.374C461.329 133.308 460.484 132.463 460.484 131.419V128.685C460.484 127.64 461.329 126.796 462.374 126.796H484.14C485.185 126.796 486.03 127.64 486.03 128.685V131.419C486.03 132.463 485.185 133.308 484.14 133.308Z" fill="#1B2027"/>
<path d="M484.14 146.354H462.374C461.329 146.354 460.484 145.51 460.484 144.465V141.731C460.484 140.687 461.329 139.842 462.374 139.842H484.14C485.185 139.842 486.03 140.687 486.03 141.731V144.465C486.03 145.51 485.185 146.354 484.14 146.354Z" fill="#1B2027"/>
<path d="M506.35 136.975C505.505 136.219 504.238 135.664 502.459 135.264V131.863C503.193 132.197 503.86 132.775 504.438 133.619L504.772 134.086L507.417 131.508L507.15 131.174C505.861 129.574 504.282 128.596 502.482 128.241V125.551H499.969V128.152C499.058 128.263 498.213 128.507 497.501 128.907C496.657 129.352 495.967 129.974 495.478 130.73C494.989 131.485 494.722 132.352 494.722 133.308C494.722 134.73 495.189 135.864 496.123 136.731C496.946 137.486 498.213 138.064 499.858 138.442V142.265C498.746 141.976 497.835 141.331 497.012 140.309L496.679 139.887L494.122 142.443L494.389 142.776C495.1 143.665 495.967 144.376 496.99 144.91C497.857 145.354 498.835 145.643 499.858 145.776V148.399H502.348V145.776C503.326 145.643 504.193 145.376 504.949 144.976C505.839 144.51 506.528 143.865 507.017 143.087C507.506 142.309 507.751 141.398 507.751 140.398C507.751 138.953 507.284 137.797 506.35 136.975ZM503.86 140.553C503.86 141.042 503.704 141.442 503.371 141.754C503.104 141.998 502.771 142.176 502.326 142.287V139.02C502.971 139.22 503.304 139.442 503.46 139.575C503.749 139.82 503.86 140.131 503.86 140.553ZM498.569 133.219C498.569 132.797 498.724 132.441 499.058 132.152C499.302 131.93 499.591 131.774 499.969 131.685V134.753C499.525 134.597 499.191 134.419 498.969 134.219C498.702 133.952 498.569 133.641 498.569 133.219Z" fill="#1B2027"/>
<path d="M135.063 174.425H132.84V176.647H135.063V174.425Z" fill="#1B2027"/>
<path d="M135.063 168.846H132.84V171.647H135.063V168.846Z" fill="#1B2027"/>
<path d="M135.063 166.046H132.84V163.823C132.84 163.201 133.329 162.712 133.951 162.712H136.175V164.934H135.063V166.046Z" fill="#1B2027"/>
<path d="M154.117 164.934H149.626V162.712H154.117V164.934ZM145.157 164.934H140.666V162.712H145.157V164.934Z" fill="#1B2027"/>
<path d="M160.831 162.712H158.607V164.934H160.831V162.712Z" fill="#1B2027"/>
<path d="M522.447 333.203H520.224V335.425H522.447V333.203Z" fill="#1B2027"/>
<path d="M522.447 354.873H520.224V350.005H522.447V354.873ZM522.447 345.138H520.224V340.271H522.447V345.138Z" fill="#1B2027"/>
<path d="M521.336 363.074H519.112V360.851H520.224V359.74H522.447V361.962C522.447 362.562 521.958 363.074 521.336 363.074Z" fill="#1B2027"/>
<path d="M515.244 364.185H513.021V361.962C513.021 361.34 513.51 360.851 514.132 360.851H516.355V363.074H515.244V364.185Z" fill="#1B2027"/>
<path d="M515.244 394.256H513.021V389.255H515.244V394.256ZM515.244 384.232H513.021V379.231H515.244V384.232ZM515.244 374.186H513.021V369.186H515.244V374.186Z" fill="#1B2027"/>
<path d="M515.244 399.256H513.021V401.479H515.244V399.256Z" fill="#1B2027"/>
<path d="M475.491 186.76H473.268V188.982H475.491V186.76Z" fill="#1B2027"/>
<path d="M549.214 188.982H544.612V186.76H549.214V188.982ZM539.988 188.982H535.386V186.76H539.988V188.982ZM530.783 188.982H526.181V186.76H530.783V188.982ZM521.557 188.982H516.955V186.76H521.557V188.982ZM512.352 188.982H507.75V186.76H512.352V188.982ZM503.126 188.982H498.524V186.76H503.126V188.982ZM493.922 188.982H489.319V186.76H493.922V188.982ZM484.695 188.982H480.093V186.76H484.695V188.982Z" fill="#1B2027"/>
<path d="M556.04 186.76H553.816V188.982H556.04V186.76Z" fill="#1B2027"/>
<path d="M79.015 396.167H74.5685V393.944H79.015V396.167ZM70.122 396.167H65.6754V393.944H70.122V396.167ZM61.2289 396.167H56.7823V393.944H61.2289V396.167ZM57.8717 390.633H55.6484V386.188H57.8717V390.633ZM57.8717 381.743H55.6484V377.298H57.8717V381.743ZM57.8717 372.853H55.6484V368.407H57.8717V372.853ZM57.8717 363.962H55.6484V359.517H57.8717V363.962ZM57.8717 355.072H55.6484V350.627H57.8717V355.072ZM57.8717 346.182H55.6484V341.737H57.8717V346.182ZM57.8717 337.292H55.6484V332.847H57.8717V337.292ZM57.8717 328.402H55.6484V323.957H57.8717V328.402ZM57.8717 319.512H55.6484V315.067H57.8717V319.512ZM57.8717 310.622H55.6484V306.176H57.8717V310.622ZM57.8717 301.731H55.6484V297.286H57.8717V301.731ZM57.8717 292.841H55.6484V288.396H57.8717V292.841ZM57.8717 283.951H55.6484V280.773C55.6484 280.151 56.1376 279.662 56.7601 279.662H58.0273V281.884H57.8717V283.951ZM84.6844 281.884H80.2378V279.662H84.6844V281.884ZM75.7913 281.884H71.3447V279.662H75.7913V281.884ZM66.8982 281.884H62.4517V279.662H66.8982V281.884Z" fill="#1B2027"/>
<path d="M81.8826 402.59H39.2402V359.873H41.4635V400.368H81.8826V402.59Z" fill="#1B2027"/>
<path d="M269.594 523.185H267.793V520.962H268.482V519.429H270.705V522.074C270.705 522.674 270.194 523.185 269.594 523.185ZM263.346 523.185H258.9V520.962H263.346V523.185ZM254.453 523.185H250.007V520.962H254.453V523.185ZM245.56 523.185H241.114V520.962H245.56V523.185ZM236.667 523.185H232.221V520.962H236.667V523.185ZM230.531 520.429H228.308V515.984H230.531V520.429ZM270.705 514.962H268.482V510.516H270.705V514.962ZM230.531 511.539H228.308V507.094H230.531V511.539ZM270.705 506.071H268.482V501.626H270.705V506.071ZM230.531 502.649H228.308V498.204H230.531V502.649ZM270.705 497.181H268.482V492.736H270.705V497.181ZM230.531 493.759H228.308V489.313H230.531V493.759Z" fill="#1B2027"/>
<path d="M386.494 511.361H384.271V507.072H386.494V511.361ZM386.494 502.649H384.271V498.204H386.494V502.649ZM386.494 493.759H384.271V489.313H386.494V493.759Z" fill="#1B2027"/>
</g>
<defs>
<clipPath id="clip0_367_867">
<rect width="658" height="630" fill="white"/>
</clipPath>
</defs>
</svg>
