<svg width="40" height="40" viewBox="0 0 40 40" fill="none" xmlns="http://www.w3.org/2000/svg">
<rect width="40" height="40" rx="8" fill="#F3EEFF"/>
<path d="M10 14C10 12.1144 10 11.1716 10.5858 10.5858C11.1716 10 12.1144 10 14 10C15.8856 10 16.8284 10 17.4142 10.5858C18 11.1716 18 12.1144 18 14V16C18 17.8856 18 18.8284 17.4142 19.4142C16.8284 20 15.8856 20 14 20C12.1144 20 11.1716 20 10.5858 19.4142C10 18.8284 10 17.8856 10 16V14Z" stroke="#5E1EE5" stroke-width="1.5"/>
<path d="M10 27C10 26.0681 10 25.6022 10.1522 25.2346C10.3552 24.7446 10.7446 24.3552 11.2346 24.1522C11.6022 24 12.0681 24 13 24H15C15.9319 24 16.3978 24 16.7654 24.1522C17.2554 24.3552 17.6448 24.7446 17.8478 25.2346C18 25.6022 18 26.0681 18 27C18 27.9319 18 28.3978 17.8478 28.7654C17.6448 29.2554 17.2554 29.6448 16.7654 29.8478C16.3978 30 15.9319 30 15 30H13C12.0681 30 11.6022 30 11.2346 29.8478C10.7446 29.6448 10.3552 29.2554 10.1522 28.7654C10 28.3978 10 27.9319 10 27Z" stroke="#AF8FF2" stroke-width="1.5"/>
<path d="M22 24C22 22.1144 22 21.1716 22.5858 20.5858C23.1716 20 24.1144 20 26 20C27.8856 20 28.8284 20 29.4142 20.5858C30 21.1716 30 22.1144 30 24V26C30 27.8856 30 28.8284 29.4142 29.4142C28.8284 30 27.8856 30 26 30C24.1144 30 23.1716 30 22.5858 29.4142C22 28.8284 22 27.8856 22 26V24Z" stroke="#5E1EE5" stroke-width="1.5"/>
<path d="M22 13C22 12.0681 22 11.6022 22.1522 11.2346C22.3552 10.7446 22.7446 10.3552 23.2346 10.1522C23.6022 10 24.0681 10 25 10H27C27.9319 10 28.3978 10 28.7654 10.1522C29.2554 10.3552 29.6448 10.7446 29.8478 11.2346C30 11.6022 30 12.0681 30 13C30 13.9319 30 14.3978 29.8478 14.7654C29.6448 15.2554 29.2554 15.6448 28.7654 15.8478C28.3978 16 27.9319 16 27 16H25C24.0681 16 23.6022 16 23.2346 15.8478C22.7446 15.6448 22.3552 15.2554 22.1522 14.7654C22 14.3978 22 13.9319 22 13Z" stroke="#AF8FF2" stroke-width="1.5"/>
</svg>
