<svg width="40" height="40" viewBox="0 0 40 40" fill="none" xmlns="http://www.w3.org/2000/svg">
<rect width="40" height="40" rx="8" fill="#EBECF1"/>
<path d="M22 26C26.4183 26 30 22.4183 30 18C30 13.5817 26.4183 10 22 10C17.5817 10 14 13.5817 14 18C14 22.4183 17.5817 26 22 26Z" stroke="#55585D" stroke-width="1.5" stroke-linecap="round"/>
<path d="M11.1566 19C10.4252 20.1176 10 21.4535 10 22.8888C10 26.8162 13.1838 30 17.1112 30C18.5465 30 19.8824 29.5748 21 28.8434" stroke="#8D8F93" stroke-width="1.5" stroke-linecap="round"/>
<path d="M23.7712 16.2049C23.555 15.2928 22.4546 14.4697 21.1337 15.0855C19.8128 15.7012 19.603 17.6824 21.601 17.8928C22.5041 17.988 23.0928 17.7825 23.6319 18.3638C24.1709 18.9451 24.2711 20.5618 22.8931 20.9975C21.5151 21.4331 20.1506 20.7524 20.002 19.7857M21.9862 14.0039V14.8729M21.9862 21.1316V22.004" stroke="#55585D" stroke-width="1.5" stroke-linecap="round" stroke-linejoin="round"/>
</svg>
