<svg width="40" height="40" viewBox="0 0 40 40" fill="none" xmlns="http://www.w3.org/2000/svg">
<rect width="40" height="40" rx="8" fill="#EBECF1"/>
<path d="M22.4531 20.8948C22.3016 21.5215 21.5857 21.9644 20.1539 22.8502C18.7697 23.7064 18.0777 24.1346 17.5199 23.9625C17.2893 23.8913 17.0792 23.7562 16.9098 23.57C16.5 23.1198 16.5 22.2465 16.5 20.5C16.5 18.7535 16.5 17.8802 16.9098 17.4299C17.0792 17.2438 17.2893 17.1087 17.5199 17.0375C18.0777 16.8654 18.7697 17.2936 20.1539 18.1498C21.5857 19.0356 22.3016 19.4785 22.4531 20.1052C22.5156 20.3639 22.5156 20.6361 22.4531 20.8948Z" stroke="#55585D" stroke-width="1.5" stroke-linejoin="round"/>
<path d="M10 20.5C10 16.0217 10 13.7825 11.3912 12.3912C12.7825 11 15.0217 11 19.5 11C23.9783 11 26.2175 11 27.6088 12.3912C29 13.7825 29 16.0217 29 20.5C29 24.9783 29 27.2175 27.6088 28.6088C26.2175 30 23.9783 30 19.5 30C15.0217 30 12.7825 30 11.3912 28.6088C10 27.2175 10 24.9783 10 20.5Z" stroke="#8D8F93" stroke-width="1.5"/>
</svg>
