<svg width="40" height="40" viewBox="0 0 40 40" fill="none" xmlns="http://www.w3.org/2000/svg">
<rect opacity="0.15" width="40" height="40" rx="8" fill="#8D8F93"/>
<path d="M25 19.8045C25 19.4588 25 19.286 25.052 19.132C25.2032 18.6844 25.6018 18.5108 26.0011 18.3289C26.45 18.1244 26.6744 18.0222 26.8968 18.0042C27.1493 17.9838 27.4022 18.0382 27.618 18.1593C27.9041 18.3198 28.1036 18.6249 28.3079 18.873C29.2513 20.0188 29.7229 20.5918 29.8955 21.2236C30.0348 21.7334 30.0348 22.2666 29.8955 22.7764C29.6438 23.6979 28.8485 24.4704 28.2598 25.1854C27.9587 25.5511 27.8081 25.734 27.618 25.8407C27.4022 25.9618 27.1493 26.0162 26.8968 25.9958C26.6744 25.9778 26.45 25.8756 26.0011 25.6711C25.6018 25.4892 25.2032 25.3156 25.052 24.868C25 24.714 25 24.5412 25 24.1955V19.8045Z" stroke="#5E1EE5" stroke-width="1.5"/>
<path d="M15 19.8046C15 19.3694 14.9878 18.9782 14.6359 18.6722C14.5079 18.5609 14.3382 18.4836 13.9989 18.329C13.55 18.1246 13.3256 18.0224 13.1032 18.0044C12.4359 17.9504 12.0769 18.4058 11.6921 18.8732C10.7488 20.019 10.2771 20.5919 10.1045 21.2237C9.96518 21.7336 9.96518 22.2668 10.1045 22.7766C10.3562 23.6981 11.1515 24.4705 11.7402 25.1856C12.1113 25.6363 12.4658 26.0475 13.1032 25.996C13.3256 25.978 13.55 25.8757 13.9989 25.6713C14.3382 25.5167 14.5079 25.4394 14.6359 25.3281C14.9878 25.0221 15 24.631 15 24.1957V19.8046Z" stroke="#5E1EE5" stroke-width="1.5"/>
<path d="M28 18.5V17C28 13.134 24.4183 10 20 10C15.5817 10 12 13.134 12 17V18.5" stroke="#5E1EE5" stroke-width="1.5" stroke-linecap="round" stroke-linejoin="round"/>
<path d="M28 25.5C28 30 24 30 20 30" stroke="#5E1EE5" stroke-width="1.5" stroke-linecap="round" stroke-linejoin="round"/>
</svg>
