<svg width="40" height="40" viewBox="0 0 40 40" fill="none" xmlns="http://www.w3.org/2000/svg">
<rect opacity="0.1" width="40" height="40" rx="8" fill="#8D8F93"/>
<path d="M10 20C10 16.4625 10 14.6938 11.0528 13.5129C11.2212 13.324 11.4068 13.1494 11.6075 12.9909C12.8621 12 14.7414 12 18.5 12H21.5C25.2586 12 27.1379 12 28.3925 12.9909C28.5932 13.1494 28.7788 13.324 28.9472 13.5129C30 14.6938 30 16.4625 30 20C30 23.5375 30 25.3062 28.9472 26.4871C28.7788 26.676 28.5932 26.8506 28.3925 27.0091C27.1379 28 25.2586 28 21.5 28H18.5C14.7414 28 12.8621 28 11.6075 27.0091C11.4068 26.8506 11.2212 26.676 11.0528 26.4871C10 25.3062 10 23.5375 10 20Z" stroke="#5E1EE5" stroke-width="1.5" stroke-linecap="round" stroke-linejoin="round"/>
<path d="M18 24H19.5" stroke="#AF8FF2" stroke-width="1.5" stroke-miterlimit="10" stroke-linecap="round" stroke-linejoin="round"/>
<path d="M22.5 24H26" stroke="#AF8FF2" stroke-width="1.5" stroke-miterlimit="10" stroke-linecap="round" stroke-linejoin="round"/>
<path d="M10 17H30" stroke="#5E1EE5" stroke-width="1.5" stroke-linejoin="round"/>
</svg>
