<svg width="40" height="40" viewBox="0 0 40 40" fill="none" xmlns="http://www.w3.org/2000/svg">
<rect opacity="0.1" width="40" height="40" rx="8" fill="#8D8F93"/>
<path d="M10 20C10 25.5228 14.4771 30 20 30C25.5228 30 30 25.5228 30 20C30 14.4771 25.5228 10 20 10C15.8994 10 12.3752 12.4682 10.8321 16M10 12.5L10.5 16.5L14.5 15.5" stroke="#5E1EE5" stroke-width="1.5" stroke-linecap="round" stroke-linejoin="round"/>
<path d="M22.7266 18.0601C22.6277 17.2975 21.7536 16.0652 20.182 16.0652C18.3559 16.0652 17.5876 17.0785 17.4317 17.5851C17.1884 18.2628 17.2371 19.6561 19.3774 19.808C22.0531 19.998 23.1249 20.3144 22.9886 21.955C22.8522 23.5956 21.3607 23.95 20.182 23.9119C19.0032 23.874 17.0748 23.3316 17 21.8724M19.9949 14.499V16.0688M19.9949 23.9021V25.499" stroke="#AF8FF2" stroke-width="1.5" stroke-linecap="round"/>
</svg>
