<svg width="40" height="40" viewBox="0 0 40 40" fill="none" xmlns="http://www.w3.org/2000/svg">
<rect opacity="0.1" width="40" height="40" rx="8" fill="#8D8F93"/>
<path d="M10 22C10 18.4934 10 16.74 10.908 15.5599C11.0742 15.3439 11.2599 15.1458 11.4624 14.9685C12.5688 14 14.2125 14 17.5 14H22.5C25.7875 14 27.4312 14 28.5376 14.9685C28.7401 15.1458 28.9258 15.3439 29.092 15.5599C30 16.74 30 18.4934 30 22C30 25.5066 30 27.26 29.092 28.4401C28.9258 28.6561 28.7401 28.8542 28.5376 29.0315C27.4312 30 25.7875 30 22.5 30H17.5C14.2125 30 12.5688 30 11.4624 29.0315C11.2599 28.8542 11.0742 28.6561 10.908 28.4401C10 27.26 10 25.5066 10 22Z" stroke="#5E1EE5" stroke-width="1.5"/>
<path d="M24 14C24 12.1144 24 11.1716 23.4142 10.5858C22.8284 10 21.8856 10 20 10C18.1144 10 17.1716 10 16.5858 10.5858C16 11.1716 16 12.1144 16 14" stroke="#5E1EE5" stroke-width="1.5" stroke-linecap="round" stroke-linejoin="round"/>
<path d="M20 19C18.8954 19 18 19.6716 18 20.5C18 21.3284 18.8954 22 20 22C21.1046 22 22 22.6716 22 23.5C22 24.3284 21.1046 25 20 25M20 19C20.8708 19 21.6116 19.4174 21.8862 20M20 19V18M20 25C19.1292 25 18.3884 24.5826 18.1138 24M20 25V26" stroke="#AF8FF2" stroke-width="1.5" stroke-linecap="round"/>
<path d="M14 20H10" stroke="#5E1EE5" stroke-width="1.5" stroke-linecap="round"/>
<path d="M30 20H26" stroke="#5E1EE5" stroke-width="1.5" stroke-linecap="round"/>
</svg>
