<svg width="40" height="40" viewBox="0 0 40 40" fill="none" xmlns="http://www.w3.org/2000/svg">
<rect width="40" height="40" rx="8" fill="#EBECF1"/>
<path d="M24.502 18.0023C25.3458 18.0023 26.3198 17.919 26.801 18.7523C27.002 19.1004 27.002 19.5677 27.002 20.5023V21.5023C27.002 22.4369 27.002 22.9042 26.801 23.2523C26.3198 24.0857 25.3458 24.0023 24.502 24.0023C23.6581 24.0023 22.6841 24.0857 22.2029 23.2523C22.002 22.9042 22.002 22.4369 22.002 21.5023V20.5023C22.002 19.5677 22.002 19.1004 22.2029 18.7523C22.6841 17.919 23.6581 18.0023 24.502 18.0023Z" stroke="#8D8F93" stroke-width="1.5" stroke-linecap="round" stroke-linejoin="round"/>
<path d="M15.502 12.0023C16.3459 12.0023 17.3198 11.9189 17.801 12.7523C18.002 13.1004 18.002 13.5677 18.002 14.5023V21.5023C18.002 22.4369 18.002 22.9042 17.801 23.2523C17.3198 24.0857 16.3459 24.0023 15.502 24.0023C14.6581 24.0023 13.6841 24.0857 13.2029 23.2523C13.002 22.9042 13.002 22.4369 13.002 21.5023V14.5023C13.002 13.5677 13.002 13.1004 13.2029 12.7523C13.6841 11.9189 14.6581 12.0023 15.502 12.0023Z" stroke="#55585D" stroke-width="1.5" stroke-linecap="round" stroke-linejoin="round"/>
<path d="M30 28H10" stroke="#55585D" stroke-width="1.5" stroke-linecap="round" stroke-linejoin="round"/>
</svg>
