<svg width="40" height="40" viewBox="0 0 40 40" fill="none" xmlns="http://www.w3.org/2000/svg">
<rect width="40" height="40" rx="8" fill="#EBECF1"/>
<path d="M10 20C10 25.5228 14.4771 30 20 30C25.5228 30 30 25.5228 30 20C30 14.4771 25.5228 10 20 10C15.8994 10 12.3752 12.4682 10.8321 16M10 12.5L10.5 16.5L14.5 15.5" stroke="#55585D" stroke-width="1.5" stroke-linecap="round" stroke-linejoin="round"/>
<path d="M22.7258 18.0601C22.6269 17.2975 21.7529 16.0652 20.1813 16.0652C18.3552 16.0652 17.5868 17.0785 17.4309 17.5851C17.1877 18.2628 17.2363 19.6561 19.3767 19.808C22.0523 19.998 23.1241 20.3144 22.9878 21.955C22.8514 23.5956 21.36 23.95 20.1813 23.9119C19.0025 23.874 17.0741 23.3316 16.9993 21.8724M19.9942 14.499V16.0688M19.9942 23.9021V25.499" stroke="#8D8F93" stroke-width="1.5" stroke-linecap="round"/>
</svg>
