<svg width="40" height="40" viewBox="0 0 40 40" fill="none" xmlns="http://www.w3.org/2000/svg">
<rect opacity="0.1" width="40" height="40" rx="8" fill="#8D8F93"/>
<path d="M18 15.0268C18.483 12.1732 20.9665 10 23.9575 10C27.2947 10 30 12.7053 30 16.0425C30 19.0335 27.8268 21.517 24.9732 22" stroke="#AF8FF2" stroke-width="1.5" stroke-linecap="round" stroke-linejoin="round"/>
<path d="M16 30C19.3137 30 22 27.3137 22 24C22 20.6863 19.3137 18 16 18C12.6863 18 10 20.6863 10 24C10 27.3137 12.6863 30 16 30Z" stroke="#5E1EE5" stroke-width="1.5" stroke-linecap="round" stroke-linejoin="round"/>
<path d="M10 17C10 13.6829 12.6829 11 16 11L15.1429 12.7143" stroke="#5E1EE5" stroke-width="1.5" stroke-linecap="round" stroke-linejoin="round"/>
<path d="M30 23C30 26.3171 27.3171 29 24 29L24.8571 27.2857" stroke="#5E1EE5" stroke-width="1.5" stroke-linecap="round" stroke-linejoin="round"/>
</svg>
