<svg width="11" height="11" viewBox="0 0 11 11" fill="none" xmlns="http://www.w3.org/2000/svg">
<path d="M10.1959 9.02091C10.1203 9.02095 10.0453 9.00608 9.97538 8.97714C9.90545 8.9482 9.84192 8.90576 9.7884 8.85224C9.73489 8.79873 9.69245 8.73519 9.6635 8.66526C9.63456 8.59533 9.61969 8.52038 9.61973 8.4447L9.62034 2.50486L1.64425 10.4809C1.53625 10.589 1.38977 10.6496 1.23703 10.6496C1.08429 10.6496 0.937809 10.589 0.829809 10.481C0.721809 10.373 0.661136 10.2265 0.661139 10.0737C0.661141 9.92101 0.721819 9.77452 0.829823 9.66652L8.80591 1.69043L2.86607 1.69104C2.71325 1.69104 2.56668 1.63033 2.45862 1.52227C2.35056 1.41421 2.28986 1.26765 2.28986 1.11483C2.28986 0.962006 2.35057 0.815441 2.45864 0.707377C2.5667 0.599313 2.71327 0.538602 2.86609 0.538599L10.1961 0.538473C10.2718 0.53843 10.3467 0.553305 10.4166 0.582246C10.4866 0.611188 10.5501 0.653629 10.6036 0.707143C10.6571 0.760658 10.6996 0.824195 10.7285 0.894124C10.7575 0.964053 10.7723 1.039 10.7723 1.11468L10.7722 8.44468C10.7722 8.52036 10.7573 8.59531 10.7284 8.66524C10.6994 8.73517 10.657 8.79871 10.6035 8.85223C10.55 8.90574 10.4864 8.94819 10.4165 8.97713C10.3466 9.00607 10.2716 9.02095 10.1959 9.02091Z" fill="#FFFEFF"/>
</svg>
