<svg width="290" height="146" viewBox="0 0 290 146" fill="none" xmlns="http://www.w3.org/2000/svg">
<rect width="290" height="146" rx="24" fill="#FFFEFF"/>
<path d="M233.334 41.154C232.513 41.154 231.794 40.944 231.178 40.524C230.562 40.0947 230.077 39.502 229.722 38.746C229.377 37.9807 229.204 37.0987 229.204 36.1C229.204 35.1013 229.377 34.224 229.722 33.468C230.077 32.7027 230.562 32.11 231.178 31.69C231.794 31.2607 232.513 31.046 233.334 31.046C234.146 31.046 234.86 31.2607 235.476 31.69C236.092 32.11 236.573 32.7027 236.918 33.468C237.273 34.224 237.45 35.1013 237.45 36.1C237.45 37.0987 237.273 37.9807 236.918 38.746C236.573 39.502 236.092 40.0947 235.476 40.524C234.86 40.944 234.146 41.154 233.334 41.154ZM233.334 39.936C233.894 39.936 234.379 39.782 234.79 39.474C235.201 39.1567 235.518 38.7087 235.742 38.13C235.966 37.5513 236.078 36.8747 236.078 36.1C236.078 35.316 235.966 34.6393 235.742 34.07C235.518 33.4913 235.201 33.048 234.79 32.74C234.379 32.4227 233.894 32.264 233.334 32.264C232.774 32.264 232.284 32.4227 231.864 32.74C231.453 33.048 231.136 33.4913 230.912 34.07C230.688 34.6393 230.576 35.316 230.576 36.1C230.576 36.8747 230.688 37.5513 230.912 38.13C231.136 38.7087 231.453 39.1567 231.864 39.474C232.284 39.782 232.774 39.936 233.334 39.936ZM238.325 43.002L239.193 39.74H240.677L239.389 43.002H238.325ZM246.062 41.14C245.278 41.14 244.587 40.9393 243.99 40.538C243.392 40.1367 242.926 39.5813 242.59 38.872C242.254 38.1533 242.086 37.3227 242.086 36.38C242.086 35.3067 242.272 34.3733 242.646 33.58C243.019 32.7773 243.542 32.1567 244.214 31.718C244.895 31.27 245.688 31.046 246.594 31.046C247.042 31.046 247.485 31.116 247.924 31.256C248.372 31.3867 248.759 31.578 249.086 31.83L248.372 32.824C248.082 32.6373 247.779 32.4973 247.462 32.404C247.154 32.3107 246.827 32.264 246.482 32.264C245.847 32.264 245.301 32.4273 244.844 32.754C244.396 33.0713 244.05 33.5333 243.808 34.14C243.565 34.7467 243.439 35.4793 243.43 36.338C243.775 35.8807 244.19 35.526 244.676 35.274C245.161 35.0127 245.665 34.882 246.188 34.882C246.832 34.882 247.401 35.0127 247.896 35.274C248.39 35.526 248.778 35.8807 249.058 36.338C249.338 36.7953 249.478 37.318 249.478 37.906C249.478 38.522 249.328 39.0773 249.03 39.572C248.731 40.0573 248.325 40.44 247.812 40.72C247.298 41 246.715 41.14 246.062 41.14ZM245.992 35.96C245.506 35.96 245.044 36.072 244.606 36.296C244.176 36.52 243.803 36.828 243.486 37.22C243.57 37.7707 243.724 38.256 243.948 38.676C244.181 39.0867 244.475 39.4087 244.83 39.642C245.184 39.866 245.581 39.978 246.02 39.978C246.43 39.978 246.794 39.8893 247.112 39.712C247.429 39.5347 247.676 39.292 247.854 38.984C248.04 38.676 248.134 38.326 248.134 37.934C248.134 37.5513 248.04 37.2107 247.854 36.912C247.676 36.6133 247.424 36.38 247.098 36.212C246.78 36.044 246.412 35.96 245.992 35.96ZM255.051 41.14C254.267 41.14 253.576 40.9393 252.979 40.538C252.381 40.1367 251.915 39.5813 251.579 38.872C251.243 38.1533 251.075 37.3227 251.075 36.38C251.075 35.3067 251.261 34.3733 251.635 33.58C252.008 32.7773 252.531 32.1567 253.203 31.718C253.884 31.27 254.677 31.046 255.583 31.046C256.031 31.046 256.474 31.116 256.913 31.256C257.361 31.3867 257.748 31.578 258.075 31.83L257.361 32.824C257.071 32.6373 256.768 32.4973 256.451 32.404C256.143 32.3107 255.816 32.264 255.471 32.264C254.836 32.264 254.29 32.4273 253.833 32.754C253.385 33.0713 253.039 33.5333 252.797 34.14C252.554 34.7467 252.428 35.4793 252.419 36.338C252.764 35.8807 253.179 35.526 253.665 35.274C254.15 35.0127 254.654 34.882 255.177 34.882C255.821 34.882 256.39 35.0127 256.885 35.274C257.379 35.526 257.767 35.8807 258.047 36.338C258.327 36.7953 258.467 37.318 258.467 37.906C258.467 38.522 258.317 39.0773 258.019 39.572C257.72 40.0573 257.314 40.44 256.801 40.72C256.287 41 255.704 41.14 255.051 41.14ZM254.981 35.96C254.495 35.96 254.033 36.072 253.595 36.296C253.165 36.52 252.792 36.828 252.475 37.22C252.559 37.7707 252.713 38.256 252.937 38.676C253.17 39.0867 253.464 39.4087 253.819 39.642C254.173 39.866 254.57 39.978 255.009 39.978C255.419 39.978 255.783 39.8893 256.101 39.712C256.418 39.5347 256.665 39.292 256.843 38.984C257.029 38.676 257.123 38.326 257.123 37.934C257.123 37.5513 257.029 37.2107 256.843 36.912C256.665 36.6133 256.413 36.38 256.087 36.212C255.769 36.044 255.401 35.96 254.981 35.96ZM261.842 36.17C261.198 36.17 260.68 35.9367 260.288 35.47C259.896 35.0033 259.7 34.3967 259.7 33.65C259.7 32.894 259.896 32.2873 260.288 31.83C260.68 31.3633 261.198 31.13 261.842 31.13C262.476 31.13 262.99 31.3633 263.382 31.83C263.774 32.2873 263.974 32.894 263.984 33.65C263.974 34.3967 263.774 35.0033 263.382 35.47C262.99 35.9367 262.476 36.17 261.842 36.17ZM261.842 35.372C262.224 35.372 262.528 35.218 262.752 34.91C262.976 34.5927 263.088 34.1727 263.088 33.65C263.088 33.118 262.976 32.698 262.752 32.39C262.528 32.0727 262.224 31.914 261.842 31.914C261.459 31.914 261.156 32.0727 260.932 32.39C260.717 32.698 260.605 33.118 260.596 33.65C260.605 34.1727 260.717 34.5927 260.932 34.91C261.156 35.218 261.459 35.372 261.842 35.372ZM261.338 41L266.854 31.2H267.96L262.43 41H261.338ZM267.526 41.07C266.882 41.07 266.364 40.8367 265.972 40.37C265.58 39.9033 265.384 39.2967 265.384 38.55C265.384 37.794 265.58 37.1873 265.972 36.73C266.364 36.2633 266.882 36.03 267.526 36.03C268.16 36.03 268.674 36.2633 269.066 36.73C269.458 37.1873 269.658 37.794 269.668 38.55C269.658 39.2967 269.458 39.9033 269.066 40.37C268.674 40.8367 268.16 41.07 267.526 41.07ZM267.526 40.272C267.908 40.272 268.212 40.118 268.436 39.81C268.66 39.4927 268.772 39.0727 268.772 38.55C268.772 38.018 268.66 37.598 268.436 37.29C268.212 36.9727 267.908 36.814 267.526 36.814C267.143 36.814 266.84 36.9727 266.616 37.29C266.401 37.598 266.289 38.018 266.28 38.55C266.289 39.0727 266.401 39.4927 266.616 39.81C266.84 40.118 267.143 40.272 267.526 40.272Z" fill="#1C2027"/>
<path d="M224.439 39.3861C224.363 39.3862 224.288 39.3713 224.218 39.3424C224.148 39.3134 224.085 39.271 224.031 39.2175C223.978 39.164 223.935 39.1004 223.906 39.0305C223.877 38.9606 223.862 38.8856 223.862 38.8099L223.863 32.8701L215.887 40.8462C215.779 40.9542 215.632 41.0149 215.48 41.0149C215.327 41.0149 215.18 40.9542 215.072 40.8462C214.964 40.7382 214.904 40.5917 214.904 40.439C214.904 40.2862 214.964 40.1398 215.072 40.0318L223.049 32.0557L217.109 32.0563C216.956 32.0563 216.809 31.9956 216.701 31.8875C216.593 31.7794 216.533 31.6329 216.533 31.4801C216.533 31.3272 216.593 31.1807 216.701 31.0726C216.809 30.9645 216.956 30.9038 217.109 30.9038L224.439 30.9037C224.514 30.9037 224.589 30.9185 224.659 30.9475C224.729 30.9764 224.793 31.0189 224.846 31.0724C224.9 31.1259 224.942 31.1894 224.971 31.2594C225 31.3293 225.015 31.4042 225.015 31.4799L225.015 38.8099C225.015 38.8856 225 38.9605 224.971 39.0305C224.942 39.1004 224.9 39.1639 224.846 39.2175C224.793 39.271 224.729 39.3134 224.659 39.3424C224.589 39.3713 224.514 39.3862 224.439 39.3861Z" fill="#1C2027"/>
<rect x="20" y="20" width="62" height="62" rx="16" fill="#1C2027"/>
<path d="M100.16 49.22C99.12 49.22 98.1533 49.04 97.26 48.68C96.38 48.3067 95.6 47.7933 94.92 47.14C94.2533 46.4733 93.7333 45.7067 93.36 44.84C93 43.96 92.82 43.0133 92.82 42C92.82 40.9867 93 40.0467 93.36 39.18C93.7333 38.3 94.2533 37.5333 94.92 36.88C95.6 36.2133 96.3867 35.7 97.28 35.34C98.1733 34.9667 99.1333 34.78 100.16 34.78C100.893 34.78 101.607 34.88 102.3 35.08C103.007 35.2667 103.653 35.54 104.24 35.9C104.84 36.26 105.36 36.6933 105.8 37.2L104.4 38.64C103.88 38.0133 103.247 37.54 102.5 37.22C101.753 36.8867 100.973 36.72 100.16 36.72C99.4133 36.72 98.72 36.8533 98.08 37.12C97.4533 37.3867 96.9067 37.76 96.44 38.24C95.9733 38.7067 95.6067 39.26 95.34 39.9C95.0867 40.54 94.96 41.24 94.96 42C94.96 42.7467 95.0867 43.44 95.34 44.08C95.6067 44.72 95.98 45.28 96.46 45.76C96.94 46.24 97.5 46.6133 98.14 46.88C98.78 47.1467 99.4733 47.28 100.22 47.28C101.033 47.28 101.8 47.12 102.52 46.8C103.253 46.4667 103.873 46 104.38 45.4L105.76 46.8C105.293 47.2933 104.76 47.7267 104.16 48.1C103.573 48.46 102.933 48.74 102.24 48.94C101.56 49.1267 100.867 49.22 100.16 49.22ZM111.195 49.18C110.461 49.18 109.815 49.0533 109.255 48.8C108.695 48.5333 108.255 48.1667 107.935 47.7C107.615 47.2333 107.455 46.6933 107.455 46.08C107.455 45.12 107.821 44.3667 108.555 43.82C109.288 43.26 110.295 42.98 111.575 42.98C112.575 42.98 113.501 43.1733 114.355 43.56V42.48C114.355 41.7467 114.141 41.2 113.715 40.84C113.301 40.48 112.688 40.3 111.875 40.3C111.408 40.3 110.921 40.3733 110.415 40.52C109.908 40.6533 109.341 40.8667 108.715 41.16L107.975 39.66C108.748 39.3 109.468 39.04 110.135 38.88C110.801 38.7067 111.475 38.62 112.155 38.62C113.475 38.62 114.495 38.9333 115.215 39.56C115.948 40.1867 116.315 41.08 116.315 42.24V49H114.355V48.12C113.901 48.48 113.415 48.7467 112.895 48.92C112.375 49.0933 111.808 49.18 111.195 49.18ZM109.375 46.04C109.375 46.5333 109.581 46.9333 109.995 47.24C110.421 47.5467 110.975 47.7 111.655 47.7C112.188 47.7 112.675 47.62 113.115 47.46C113.568 47.3 113.981 47.0533 114.355 46.72V45C113.968 44.7733 113.561 44.6133 113.135 44.52C112.721 44.4133 112.255 44.36 111.735 44.36C111.001 44.36 110.421 44.5133 109.995 44.82C109.581 45.1133 109.375 45.52 109.375 46.04ZM119.019 49V38.82H121.019V39.86C121.806 39.0333 122.826 38.62 124.079 38.62C124.866 38.62 125.552 38.7867 126.139 39.12C126.739 39.4533 127.206 39.92 127.539 40.52C127.886 41.12 128.059 41.8133 128.059 42.6V49H126.059V42.94C126.059 42.14 125.832 41.5133 125.379 41.06C124.939 40.5933 124.319 40.36 123.519 40.36C122.986 40.36 122.506 40.4733 122.079 40.7C121.652 40.9267 121.299 41.2533 121.019 41.68V49H119.019ZM132.087 49.14C131.74 49.14 131.44 49.02 131.187 48.78C130.947 48.5267 130.827 48.2267 130.827 47.88C130.827 47.5333 130.947 47.24 131.187 47C131.44 46.7467 131.74 46.62 132.087 46.62C132.433 46.62 132.727 46.7467 132.967 47C133.22 47.24 133.347 47.5333 133.347 47.88C133.347 48.2267 133.22 48.5267 132.967 48.78C132.727 49.02 132.433 49.14 132.087 49.14ZM138.507 47.12H141.387C142.12 47.12 142.8 46.9933 143.427 46.74C144.053 46.4733 144.6 46.1133 145.067 45.66C145.547 45.1933 145.913 44.6533 146.167 44.04C146.433 43.4133 146.567 42.7333 146.567 42C146.567 41.28 146.433 40.6067 146.167 39.98C145.913 39.3533 145.547 38.8133 145.067 38.36C144.6 37.8933 144.053 37.5333 143.427 37.28C142.8 37.0133 142.12 36.88 141.387 36.88H138.507V47.12ZM136.407 49V35H141.347C142.4 35 143.373 35.18 144.267 35.54C145.16 35.8867 145.94 36.3733 146.607 37C147.273 37.6267 147.793 38.3667 148.167 39.22C148.54 40.0733 148.727 41 148.727 42C148.727 43.0133 148.54 43.9467 148.167 44.8C147.807 45.64 147.293 46.3733 146.627 47C145.96 47.6267 145.173 48.12 144.267 48.48C143.373 48.8267 142.4 49 141.347 49H136.407ZM155.938 49.2C154.951 49.2 154.051 48.9667 153.238 48.5C152.438 48.0333 151.805 47.4 151.338 46.6C150.871 45.8 150.638 44.9067 150.638 43.92C150.638 42.9333 150.871 42.04 151.338 41.24C151.805 40.44 152.438 39.8067 153.238 39.34C154.051 38.86 154.951 38.62 155.938 38.62C156.938 38.62 157.838 38.86 158.638 39.34C159.438 39.8067 160.071 40.44 160.538 41.24C161.005 42.04 161.238 42.9333 161.238 43.92C161.238 44.9067 161.005 45.8 160.538 46.6C160.071 47.4 159.438 48.0333 158.638 48.5C157.838 48.9667 156.938 49.2 155.938 49.2ZM155.938 47.44C156.565 47.44 157.131 47.2867 157.638 46.98C158.145 46.66 158.545 46.2333 158.838 45.7C159.131 45.1667 159.278 44.5667 159.278 43.9C159.278 43.2467 159.125 42.66 158.818 42.14C158.525 41.6067 158.125 41.18 157.618 40.86C157.125 40.54 156.565 40.38 155.938 40.38C155.311 40.38 154.745 40.54 154.238 40.86C153.745 41.18 153.345 41.6067 153.038 42.14C152.745 42.66 152.598 43.2467 152.598 43.9C152.598 44.5667 152.745 45.1667 153.038 45.7C153.331 46.2333 153.731 46.66 154.238 46.98C154.745 47.2867 155.311 47.44 155.938 47.44ZM163.529 49V35L165.529 34.62V49H163.529ZM168.285 49V35L170.285 34.62V49H168.285ZM176.26 49.18C175.527 49.18 174.88 49.0533 174.32 48.8C173.76 48.5333 173.32 48.1667 173 47.7C172.68 47.2333 172.52 46.6933 172.52 46.08C172.52 45.12 172.887 44.3667 173.62 43.82C174.353 43.26 175.36 42.98 176.64 42.98C177.64 42.98 178.567 43.1733 179.42 43.56V42.48C179.42 41.7467 179.207 41.2 178.78 40.84C178.367 40.48 177.753 40.3 176.94 40.3C176.473 40.3 175.987 40.3733 175.48 40.52C174.973 40.6533 174.407 40.8667 173.78 41.16L173.04 39.66C173.813 39.3 174.533 39.04 175.2 38.88C175.867 38.7067 176.54 38.62 177.22 38.62C178.54 38.62 179.56 38.9333 180.28 39.56C181.013 40.1867 181.38 41.08 181.38 42.24V49H179.42V48.12C178.967 48.48 178.48 48.7467 177.96 48.92C177.44 49.0933 176.873 49.18 176.26 49.18ZM174.44 46.04C174.44 46.5333 174.647 46.9333 175.06 47.24C175.487 47.5467 176.04 47.7 176.72 47.7C177.253 47.7 177.74 47.62 178.18 47.46C178.633 47.3 179.047 47.0533 179.42 46.72V45C179.033 44.7733 178.627 44.6133 178.2 44.52C177.787 44.4133 177.32 44.36 176.8 44.36C176.067 44.36 175.487 44.5133 175.06 44.82C174.647 45.1133 174.44 45.52 174.44 46.04ZM184.085 49V38.82H186.085V40.12C186.405 39.64 186.798 39.2667 187.265 39C187.745 38.72 188.285 38.58 188.885 38.58C189.298 38.5933 189.638 38.6533 189.905 38.76V40.56C189.718 40.48 189.525 40.4267 189.325 40.4C189.125 40.36 188.925 40.34 188.725 40.34C188.138 40.34 187.618 40.5 187.165 40.82C186.711 41.1267 186.351 41.58 186.085 42.18V49H184.085Z" fill="#1C2027"/>
<path d="M96.032 70.132C95.328 70.132 94.712 69.952 94.184 69.592C93.656 69.224 93.24 68.716 92.936 68.068C92.64 67.412 92.492 66.656 92.492 65.8C92.492 64.944 92.64 64.192 92.936 63.544C93.24 62.888 93.656 62.38 94.184 62.02C94.712 61.652 95.328 61.468 96.032 61.468C96.728 61.468 97.34 61.652 97.868 62.02C98.396 62.38 98.808 62.888 99.104 63.544C99.408 64.192 99.56 64.944 99.56 65.8C99.56 66.656 99.408 67.412 99.104 68.068C98.808 68.716 98.396 69.224 97.868 69.592C97.34 69.952 96.728 70.132 96.032 70.132ZM96.032 69.088C96.512 69.088 96.928 68.956 97.28 68.692C97.632 68.42 97.904 68.036 98.096 67.54C98.288 67.044 98.384 66.464 98.384 65.8C98.384 65.128 98.288 64.548 98.096 64.06C97.904 63.564 97.632 63.184 97.28 62.92C96.928 62.648 96.512 62.512 96.032 62.512C95.552 62.512 95.132 62.648 94.772 62.92C94.42 63.184 94.148 63.564 93.956 64.06C93.764 64.548 93.668 65.128 93.668 65.8C93.668 66.464 93.764 67.044 93.956 67.54C94.148 68.036 94.42 68.42 94.772 68.692C95.132 68.956 95.552 69.088 96.032 69.088ZM101.486 70.084C101.278 70.084 101.098 70.012 100.946 69.868C100.802 69.716 100.73 69.536 100.73 69.328C100.73 69.12 100.802 68.944 100.946 68.8C101.098 68.648 101.278 68.572 101.486 68.572C101.694 68.572 101.87 68.648 102.014 68.8C102.166 68.944 102.242 69.12 102.242 69.328C102.242 69.536 102.166 69.716 102.014 69.868C101.87 70.012 101.694 70.084 101.486 70.084ZM106.941 70.12C106.269 70.12 105.677 69.948 105.165 69.604C104.653 69.26 104.253 68.784 103.965 68.176C103.677 67.56 103.533 66.848 103.533 66.04C103.533 65.12 103.693 64.32 104.013 63.64C104.333 62.952 104.781 62.42 105.357 62.044C105.941 61.66 106.621 61.468 107.397 61.468C107.781 61.468 108.161 61.528 108.537 61.648C108.921 61.76 109.253 61.924 109.533 62.14L108.921 62.992C108.673 62.832 108.413 62.712 108.141 62.632C107.877 62.552 107.597 62.512 107.301 62.512C106.757 62.512 106.289 62.652 105.897 62.932C105.513 63.204 105.217 63.6 105.009 64.12C104.801 64.64 104.693 65.268 104.685 66.004C104.981 65.612 105.337 65.308 105.753 65.092C106.169 64.868 106.601 64.756 107.049 64.756C107.601 64.756 108.089 64.868 108.513 65.092C108.937 65.308 109.269 65.612 109.509 66.004C109.749 66.396 109.869 66.844 109.869 67.348C109.869 67.876 109.741 68.352 109.485 68.776C109.229 69.192 108.881 69.52 108.441 69.76C108.001 70 107.501 70.12 106.941 70.12ZM106.881 65.68C106.465 65.68 106.069 65.776 105.693 65.968C105.325 66.16 105.005 66.424 104.733 66.76C104.805 67.232 104.937 67.648 105.129 68.008C105.329 68.36 105.581 68.636 105.885 68.836C106.189 69.028 106.529 69.124 106.905 69.124C107.257 69.124 107.569 69.048 107.841 68.896C108.113 68.744 108.325 68.536 108.477 68.272C108.637 68.008 108.717 67.708 108.717 67.372C108.717 67.044 108.637 66.752 108.477 66.496C108.325 66.24 108.109 66.04 107.829 65.896C107.557 65.752 107.241 65.68 106.881 65.68ZM111.511 70L115.519 62.62H110.623V61.6H116.767V62.476L112.855 70H111.511ZM120.754 70.132C119.634 70.132 118.662 69.752 117.838 68.992L118.546 68.2C118.906 68.528 119.262 68.768 119.614 68.92C119.974 69.064 120.366 69.136 120.79 69.136C121.174 69.136 121.506 69.064 121.786 68.92C122.066 68.768 122.286 68.56 122.446 68.296C122.606 68.024 122.686 67.716 122.686 67.372C122.686 66.868 122.506 66.46 122.146 66.148C121.794 65.836 121.334 65.68 120.766 65.68C120.478 65.68 120.19 65.72 119.902 65.8C119.622 65.872 119.33 65.984 119.026 66.136L118.222 65.896L118.414 61.6H123.406V62.596H119.398L119.278 65.2C119.582 65.048 119.878 64.94 120.166 64.876C120.454 64.804 120.758 64.768 121.078 64.768C121.638 64.768 122.122 64.876 122.53 65.092C122.946 65.3 123.27 65.596 123.502 65.98C123.734 66.364 123.85 66.808 123.85 67.312C123.85 67.872 123.718 68.364 123.454 68.788C123.198 69.204 122.838 69.532 122.374 69.772C121.91 70.012 121.37 70.132 120.754 70.132ZM127.699 61.468C128.371 61.468 128.963 61.644 129.475 61.996C129.987 62.34 130.387 62.816 130.675 63.424C130.963 64.032 131.107 64.74 131.107 65.548C131.107 66.468 130.947 67.272 130.627 67.96C130.307 68.64 129.855 69.172 129.271 69.556C128.695 69.932 128.019 70.12 127.243 70.12C126.867 70.12 126.487 70.06 126.103 69.94C125.719 69.82 125.387 69.66 125.107 69.46L125.719 68.596C125.967 68.756 126.227 68.88 126.499 68.968C126.771 69.048 127.051 69.088 127.339 69.088C127.883 69.088 128.347 68.948 128.731 68.668C129.123 68.388 129.423 67.988 129.631 67.468C129.839 66.94 129.947 66.316 129.955 65.596C129.659 65.988 129.303 66.296 128.887 66.52C128.471 66.736 128.039 66.844 127.591 66.844C127.039 66.844 126.551 66.732 126.127 66.508C125.703 66.276 125.371 65.968 125.131 65.584C124.891 65.192 124.771 64.744 124.771 64.24C124.771 63.704 124.899 63.228 125.155 62.812C125.411 62.396 125.759 62.068 126.199 61.828C126.639 61.588 127.139 61.468 127.699 61.468ZM127.759 65.92C128.175 65.92 128.567 65.824 128.935 65.632C129.311 65.432 129.635 65.164 129.907 64.828C129.843 64.348 129.711 63.932 129.511 63.58C129.319 63.228 129.071 62.956 128.767 62.764C128.463 62.564 128.119 62.464 127.735 62.464C127.391 62.464 127.079 62.54 126.799 62.692C126.527 62.844 126.311 63.052 126.151 63.316C125.999 63.58 125.923 63.88 125.923 64.216C125.923 64.544 125.999 64.84 126.151 65.104C126.311 65.36 126.531 65.56 126.811 65.704C127.091 65.848 127.407 65.92 127.759 65.92ZM135.44 70.132C134.84 70.132 134.276 70.028 133.748 69.82C133.228 69.604 132.776 69.296 132.392 68.896L133.172 68.152C133.508 68.504 133.848 68.756 134.192 68.908C134.544 69.052 134.956 69.124 135.428 69.124C135.804 69.124 136.136 69.06 136.424 68.932C136.72 68.804 136.948 68.628 137.108 68.404C137.268 68.18 137.348 67.92 137.348 67.624C137.348 67.352 137.276 67.112 137.132 66.904C136.996 66.688 136.808 66.524 136.568 66.412C136.336 66.292 136.06 66.232 135.74 66.232H134.72V65.26H135.656C136.08 65.26 136.42 65.136 136.676 64.888C136.932 64.64 137.06 64.316 137.06 63.916C137.06 63.652 136.988 63.412 136.844 63.196C136.7 62.98 136.5 62.812 136.244 62.692C135.996 62.564 135.712 62.5 135.392 62.5C134.968 62.5 134.592 62.576 134.264 62.728C133.944 62.872 133.612 63.128 133.268 63.496L132.488 62.752C132.872 62.336 133.316 62.02 133.82 61.804C134.324 61.58 134.856 61.468 135.416 61.468C135.96 61.468 136.44 61.568 136.856 61.768C137.28 61.968 137.612 62.248 137.852 62.608C138.1 62.96 138.224 63.36 138.224 63.808C138.224 64.248 138.076 64.644 137.78 64.996C137.492 65.34 137.112 65.58 136.64 65.716C137.208 65.836 137.66 66.076 137.996 66.436C138.332 66.788 138.5 67.204 138.5 67.684C138.5 68.156 138.368 68.576 138.104 68.944C137.848 69.312 137.488 69.604 137.024 69.82C136.56 70.028 136.032 70.132 135.44 70.132ZM140.291 70L144.299 62.62H139.403V61.6H145.547V62.476L141.635 70H140.291ZM147.574 70L151.582 62.62H146.686V61.6H152.83V62.476L148.918 70H147.574ZM156.901 61.468C157.573 61.468 158.165 61.644 158.677 61.996C159.189 62.34 159.589 62.816 159.877 63.424C160.165 64.032 160.309 64.74 160.309 65.548C160.309 66.468 160.149 67.272 159.829 67.96C159.509 68.64 159.057 69.172 158.473 69.556C157.897 69.932 157.221 70.12 156.445 70.12C156.069 70.12 155.689 70.06 155.305 69.94C154.921 69.82 154.589 69.66 154.309 69.46L154.921 68.596C155.169 68.756 155.429 68.88 155.701 68.968C155.973 69.048 156.253 69.088 156.541 69.088C157.085 69.088 157.549 68.948 157.933 68.668C158.325 68.388 158.625 67.988 158.833 67.468C159.041 66.94 159.149 66.316 159.157 65.596C158.861 65.988 158.505 66.296 158.089 66.52C157.673 66.736 157.241 66.844 156.793 66.844C156.241 66.844 155.753 66.732 155.329 66.508C154.905 66.276 154.573 65.968 154.333 65.584C154.093 65.192 153.973 64.744 153.973 64.24C153.973 63.704 154.101 63.228 154.357 62.812C154.613 62.396 154.961 62.068 155.401 61.828C155.841 61.588 156.341 61.468 156.901 61.468ZM156.961 65.92C157.377 65.92 157.769 65.824 158.137 65.632C158.513 65.432 158.837 65.164 159.109 64.828C159.045 64.348 158.913 63.932 158.713 63.58C158.521 63.228 158.273 62.956 157.969 62.764C157.665 62.564 157.321 62.464 156.937 62.464C156.593 62.464 156.281 62.54 156.001 62.692C155.729 62.844 155.513 63.052 155.353 63.316C155.201 63.58 155.125 63.88 155.125 64.216C155.125 64.544 155.201 64.84 155.353 65.104C155.513 65.36 155.733 65.56 156.013 65.704C156.293 65.848 156.609 65.92 156.961 65.92Z" fill="#6E6E6E"/>
<path d="M211.852 61V52.6H215.74C216.292 52.6 216.772 52.708 217.18 52.924C217.588 53.132 217.908 53.424 218.14 53.8C218.372 54.176 218.488 54.612 218.488 55.108C218.488 55.604 218.372 56.04 218.14 56.416C217.908 56.792 217.584 57.088 217.168 57.304C216.76 57.512 216.284 57.616 215.74 57.616H213.112V61H211.852ZM213.112 56.548H215.608C216.104 56.548 216.496 56.42 216.784 56.164C217.08 55.9 217.228 55.552 217.228 55.12C217.228 54.688 217.08 54.344 216.784 54.088C216.496 53.832 216.104 53.704 215.608 53.704H213.112V56.548ZM222.142 61.108C221.542 61.108 220.998 60.968 220.51 60.688C220.03 60.408 219.646 60.028 219.358 59.548C219.078 59.068 218.938 58.532 218.938 57.94C218.938 57.356 219.074 56.828 219.346 56.356C219.618 55.876 219.986 55.496 220.45 55.216C220.914 54.928 221.43 54.784 221.998 54.784C222.566 54.784 223.07 54.928 223.51 55.216C223.95 55.496 224.298 55.88 224.554 56.368C224.818 56.848 224.95 57.392 224.95 58V58.336H220.138C220.202 58.672 220.326 58.972 220.51 59.236C220.702 59.5 220.942 59.708 221.23 59.86C221.526 60.012 221.846 60.088 222.19 60.088C222.486 60.088 222.77 60.044 223.042 59.956C223.322 59.86 223.554 59.724 223.738 59.548L224.506 60.304C224.146 60.576 223.774 60.78 223.39 60.916C223.014 61.044 222.598 61.108 222.142 61.108ZM220.15 57.436H223.762C223.714 57.116 223.602 56.836 223.426 56.596C223.258 56.348 223.046 56.156 222.79 56.02C222.542 55.876 222.27 55.804 221.974 55.804C221.67 55.804 221.39 55.872 221.134 56.008C220.878 56.144 220.662 56.336 220.486 56.584C220.318 56.824 220.206 57.108 220.15 57.436ZM226.333 61V54.892H227.533V55.672C227.725 55.384 227.961 55.16 228.241 55C228.529 54.832 228.853 54.748 229.213 54.748C229.461 54.756 229.665 54.792 229.825 54.856V55.936C229.713 55.888 229.597 55.856 229.477 55.84C229.357 55.816 229.237 55.804 229.117 55.804C228.765 55.804 228.453 55.9 228.181 56.092C227.909 56.276 227.693 56.548 227.533 56.908V61H226.333ZM233.773 61V54.892H234.973V55.48C235.429 55.008 236.001 54.772 236.689 54.772C237.105 54.772 237.473 54.864 237.793 55.048C238.121 55.232 238.381 55.48 238.573 55.792C238.829 55.456 239.129 55.204 239.473 55.036C239.817 54.86 240.205 54.772 240.637 54.772C241.093 54.772 241.489 54.872 241.825 55.072C242.169 55.272 242.437 55.552 242.629 55.912C242.829 56.272 242.929 56.688 242.929 57.16V61H241.729V57.364C241.729 56.884 241.601 56.508 241.345 56.236C241.097 55.956 240.757 55.816 240.325 55.816C240.029 55.816 239.761 55.884 239.521 56.02C239.281 56.156 239.073 56.364 238.897 56.644C238.913 56.724 238.925 56.808 238.933 56.896C238.941 56.984 238.945 57.072 238.945 57.16V61H237.757V57.364C237.757 56.884 237.629 56.508 237.373 56.236C237.125 55.956 236.785 55.816 236.353 55.816C236.065 55.816 235.805 55.88 235.573 56.008C235.341 56.128 235.141 56.312 234.973 56.56V61H233.773ZM247.453 61.12C246.861 61.12 246.321 60.98 245.833 60.7C245.353 60.42 244.973 60.04 244.693 59.56C244.413 59.08 244.273 58.544 244.273 57.952C244.273 57.36 244.413 56.824 244.693 56.344C244.973 55.864 245.353 55.484 245.833 55.204C246.321 54.916 246.861 54.772 247.453 54.772C248.053 54.772 248.593 54.916 249.073 55.204C249.553 55.484 249.933 55.864 250.213 56.344C250.493 56.824 250.633 57.36 250.633 57.952C250.633 58.544 250.493 59.08 250.213 59.56C249.933 60.04 249.553 60.42 249.073 60.7C248.593 60.98 248.053 61.12 247.453 61.12ZM247.453 60.064C247.829 60.064 248.169 59.972 248.473 59.788C248.777 59.596 249.017 59.34 249.193 59.02C249.369 58.7 249.457 58.34 249.457 57.94C249.457 57.548 249.365 57.196 249.181 56.884C249.005 56.564 248.765 56.308 248.461 56.116C248.165 55.924 247.829 55.828 247.453 55.828C247.077 55.828 246.737 55.924 246.433 56.116C246.137 56.308 245.897 56.564 245.713 56.884C245.537 57.196 245.449 57.548 245.449 57.94C245.449 58.34 245.537 58.7 245.713 59.02C245.889 59.34 246.129 59.596 246.433 59.788C246.737 59.972 247.077 60.064 247.453 60.064ZM252.007 61V54.892H253.207V55.516C253.679 55.02 254.291 54.772 255.043 54.772C255.515 54.772 255.927 54.872 256.279 55.072C256.639 55.272 256.919 55.552 257.119 55.912C257.327 56.272 257.431 56.688 257.431 57.16V61H256.231V57.364C256.231 56.884 256.095 56.508 255.823 56.236C255.559 55.956 255.187 55.816 254.707 55.816C254.387 55.816 254.099 55.884 253.843 56.02C253.587 56.156 253.375 56.352 253.207 56.608V61H252.007ZM261.496 61.108C260.904 61.108 260.452 60.972 260.14 60.7C259.828 60.42 259.672 60.016 259.672 59.488V55.9H258.376V54.892H259.672V53.332L260.86 53.044V54.892H262.66V55.9H260.86V59.212C260.86 59.524 260.928 59.748 261.064 59.884C261.208 60.012 261.44 60.076 261.76 60.076C261.928 60.076 262.076 60.064 262.204 60.04C262.34 60.016 262.484 59.98 262.636 59.932V60.94C262.476 60.996 262.288 61.036 262.072 61.06C261.864 61.092 261.672 61.108 261.496 61.108ZM263.784 61V52.6L264.984 52.336V55.516C265.456 55.02 266.068 54.772 266.82 54.772C267.292 54.772 267.704 54.872 268.056 55.072C268.416 55.272 268.696 55.552 268.896 55.912C269.104 56.272 269.208 56.688 269.208 57.16V61H268.008V57.364C268.008 56.884 267.872 56.508 267.6 56.236C267.328 55.956 266.956 55.816 266.484 55.816C266.164 55.816 265.876 55.884 265.62 56.02C265.364 56.156 265.152 56.352 264.984 56.608V61H263.784Z" fill="#6E6E6E"/>
<path d="M66 41.25H59.3333C58.0073 41.25 56.7355 41.7636 55.7978 42.6779C54.8601 43.5921 54.3333 44.8321 54.3333 46.125C54.3333 47.4179 54.8601 48.6579 55.7978 49.5721C56.7355 50.4864 58.0073 51 59.3333 51H61C62.3261 51 63.5979 51.5136 64.5355 52.4279C65.4732 53.3421 66 54.5821 66 55.875C66 57.1679 65.4732 58.4079 64.5355 59.3221C63.5979 60.2364 62.3261 60.75 61 60.75H54.3333M47.6667 60.75H46C43.3478 60.75 40.8043 59.7228 38.9289 57.8943C37.0536 56.0658 36 53.5859 36 51C36 48.4141 37.0536 45.9342 38.9289 44.1057C40.8043 42.2772 43.3478 41.25 46 41.25H47.6667M59.3333 64V60.75M61 41.25V38" stroke="#FFFEFF" stroke-width="2.5" stroke-linecap="round" stroke-linejoin="round"/>
</svg>
