<svg width="290" height="146" viewBox="0 0 290 146" fill="none" xmlns="http://www.w3.org/2000/svg">
<rect width="290" height="146" rx="24" fill="#5E1EE5"/>
<path d="M233.788 41.154C232.939 41.154 232.187 40.944 231.534 40.524C230.89 40.0947 230.386 39.502 230.022 38.746C229.667 37.9807 229.49 37.0987 229.49 36.1C229.49 35.092 229.667 34.21 230.022 33.454C230.386 32.698 230.89 32.11 231.534 31.69C232.187 31.2607 232.939 31.046 233.788 31.046C234.647 31.046 235.398 31.2607 236.042 31.69C236.695 32.11 237.199 32.698 237.554 33.454C237.918 34.21 238.1 35.092 238.1 36.1C238.1 37.0987 237.918 37.9807 237.554 38.746C237.199 39.502 236.695 40.0947 236.042 40.524C235.398 40.944 234.647 41.154 233.788 41.154ZM233.788 39.488C234.292 39.488 234.726 39.3527 235.09 39.082C235.454 38.8113 235.734 38.4193 235.93 37.906C236.135 37.3927 236.238 36.7907 236.238 36.1C236.238 35.4 236.135 34.798 235.93 34.294C235.734 33.7807 235.454 33.3887 235.09 33.118C234.726 32.8473 234.292 32.712 233.788 32.712C233.293 32.712 232.864 32.8473 232.5 33.118C232.136 33.3887 231.851 33.7807 231.646 34.294C231.45 34.798 231.352 35.4 231.352 36.1C231.352 36.7907 231.45 37.3927 231.646 37.906C231.851 38.4193 232.136 38.8113 232.5 39.082C232.864 39.3527 233.293 39.488 233.788 39.488ZM238.633 43.114L239.585 39.432H241.573L240.075 43.114H238.633ZM243.057 41V39.684L247.145 35.54C247.341 35.3347 247.495 35.1433 247.607 34.966C247.728 34.7887 247.812 34.616 247.859 34.448C247.915 34.2707 247.943 34.0933 247.943 33.916C247.943 33.552 247.789 33.2487 247.481 33.006C247.182 32.7633 246.799 32.642 246.333 32.642C245.885 32.642 245.469 32.7353 245.087 32.922C244.704 33.0993 244.284 33.4073 243.827 33.846L242.791 32.586C243.341 32.0727 243.915 31.69 244.513 31.438C245.11 31.1767 245.735 31.046 246.389 31.046C247.051 31.046 247.635 31.1627 248.139 31.396C248.643 31.6293 249.035 31.9513 249.315 32.362C249.595 32.7727 249.735 33.2533 249.735 33.804C249.735 34.1213 249.688 34.42 249.595 34.7C249.511 34.98 249.371 35.2647 249.175 35.554C248.979 35.834 248.717 36.1373 248.391 36.464L245.423 39.446L249.889 39.432V41H243.057ZM252.119 41L256.515 32.81H251.027V31.2H258.489V32.572L254.303 41H252.119ZM261.871 36.17C261.19 36.17 260.644 35.9413 260.233 35.484C259.832 35.0173 259.631 34.4013 259.631 33.636C259.631 32.8893 259.836 32.2827 260.247 31.816C260.658 31.3493 261.199 31.116 261.871 31.116C262.534 31.116 263.07 31.3493 263.481 31.816C263.892 32.2827 264.097 32.8893 264.097 33.636C264.097 34.4013 263.892 35.0173 263.481 35.484C263.08 35.9413 262.543 36.17 261.871 36.17ZM261.871 35.148C262.207 35.148 262.468 35.0173 262.655 34.756C262.851 34.4853 262.949 34.112 262.949 33.636C262.949 33.1787 262.851 32.8147 262.655 32.544C262.459 32.2733 262.198 32.138 261.871 32.138C261.535 32.138 261.269 32.2733 261.073 32.544C260.886 32.8147 260.788 33.1787 260.779 33.636C260.788 34.112 260.886 34.4853 261.073 34.756C261.26 35.0173 261.526 35.148 261.871 35.148ZM261.325 41L266.869 31.2H268.297L262.753 41H261.325ZM267.891 41.07C267.21 41.07 266.664 40.8413 266.253 40.384C265.852 39.9173 265.651 39.3013 265.651 38.536C265.651 37.7893 265.856 37.1827 266.267 36.716C266.678 36.2493 267.219 36.016 267.891 36.016C268.554 36.016 269.09 36.2493 269.501 36.716C269.912 37.1827 270.117 37.7893 270.117 38.536C270.117 39.3013 269.912 39.9173 269.501 40.384C269.1 40.8413 268.563 41.07 267.891 41.07ZM267.891 40.048C268.227 40.048 268.488 39.9173 268.675 39.656C268.871 39.3853 268.969 39.012 268.969 38.536C268.969 38.0787 268.871 37.7147 268.675 37.444C268.479 37.1733 268.218 37.038 267.891 37.038C267.555 37.038 267.289 37.1733 267.093 37.444C266.906 37.7147 266.808 38.0787 266.799 38.536C266.808 39.012 266.906 39.3853 267.093 39.656C267.28 39.9173 267.546 40.048 267.891 40.048Z" fill="#A7E83C"/>
<path d="M224.439 39.3861C224.363 39.3862 224.288 39.3713 224.218 39.3424C224.148 39.3134 224.085 39.271 224.031 39.2175C223.978 39.164 223.935 39.1004 223.906 39.0305C223.877 38.9606 223.862 38.8856 223.862 38.8099L223.863 32.8701L215.887 40.8462C215.779 40.9542 215.632 41.0149 215.48 41.0149C215.327 41.0149 215.18 40.9542 215.072 40.8462C214.964 40.7382 214.904 40.5917 214.904 40.439C214.904 40.2862 214.964 40.1398 215.072 40.0318L223.049 32.0557L217.109 32.0563C216.956 32.0563 216.809 31.9956 216.701 31.8875C216.593 31.7794 216.533 31.6329 216.533 31.4801C216.533 31.3272 216.593 31.1807 216.701 31.0726C216.809 30.9645 216.956 30.9038 217.109 30.9038L224.439 30.9037C224.514 30.9037 224.589 30.9185 224.659 30.9475C224.729 30.9764 224.793 31.0189 224.846 31.0724C224.9 31.1259 224.942 31.1894 224.971 31.2594C225 31.3293 225.015 31.4042 225.015 31.4799L225.015 38.8099C225.015 38.8856 225 38.9605 224.971 39.0305C224.942 39.1004 224.9 39.1639 224.846 39.2175C224.793 39.271 224.729 39.3134 224.659 39.3424C224.589 39.3713 224.514 39.3862 224.439 39.3861Z" fill="#A7E83C"/>
<rect x="20" y="20" width="62" height="62" rx="16" fill="#FFFEFF"/>
<path d="M93.42 49V35H103.74V36.84H95.52V41.04H100.92V42.82H95.52V47.16H103.82V49H93.42ZM112.079 49.22C110.865 49.22 109.812 48.9667 108.919 48.46C108.025 47.9533 107.339 47.24 106.859 46.32C106.379 45.3867 106.139 44.2867 106.139 43.02V35H108.239V43.02C108.239 43.8867 108.392 44.64 108.699 45.28C109.019 45.92 109.465 46.4133 110.039 46.76C110.625 47.1067 111.305 47.28 112.079 47.28C112.879 47.28 113.565 47.1067 114.139 46.76C114.712 46.4133 115.152 45.92 115.459 45.28C115.779 44.64 115.939 43.8867 115.939 43.02V35H118.039V43.02C118.039 44.2867 117.792 45.3867 117.299 46.32C116.819 47.24 116.132 47.9533 115.239 48.46C114.345 48.9667 113.292 49.22 112.079 49.22ZM121.036 49V35H127.376C128.31 35 129.123 35.1733 129.816 35.52C130.523 35.8667 131.07 36.3533 131.456 36.98C131.856 37.5933 132.056 38.3133 132.056 39.14C132.056 40.06 131.796 40.8533 131.276 41.52C130.756 42.1867 130.056 42.6667 129.176 42.96L132.296 49H129.976L127.076 43.26H123.136V49H121.036ZM123.136 41.5H127.216C128.043 41.5 128.703 41.2933 129.196 40.88C129.703 40.4533 129.956 39.88 129.956 39.16C129.956 38.4667 129.703 37.9067 129.196 37.48C128.703 37.0533 128.043 36.84 127.216 36.84H123.136V41.5ZM141.3 49.22C140.287 49.22 139.34 49.04 138.46 48.68C137.58 48.3067 136.8 47.7933 136.12 47.14C135.453 46.4733 134.933 45.7067 134.56 44.84C134.2 43.96 134.02 43.0133 134.02 42C134.02 40.9867 134.2 40.0467 134.56 39.18C134.933 38.3 135.453 37.5333 136.12 36.88C136.8 36.2133 137.58 35.7 138.46 35.34C139.34 34.9667 140.287 34.78 141.3 34.78C142.313 34.78 143.26 34.9667 144.14 35.34C145.033 35.7 145.813 36.2133 146.48 36.88C147.147 37.5333 147.667 38.3 148.04 39.18C148.413 40.0467 148.6 40.9867 148.6 42C148.6 43.0133 148.413 43.96 148.04 44.84C147.667 45.7067 147.147 46.4733 146.48 47.14C145.813 47.7933 145.033 48.3067 144.14 48.68C143.26 49.04 142.313 49.22 141.3 49.22ZM141.32 47.28C142.04 47.28 142.707 47.1467 143.32 46.88C143.947 46.6133 144.493 46.2467 144.96 45.78C145.427 45.3 145.793 44.74 146.06 44.1C146.327 43.4467 146.46 42.7467 146.46 42C146.46 41.24 146.327 40.54 146.06 39.9C145.793 39.26 145.427 38.7067 144.96 38.24C144.493 37.76 143.947 37.3867 143.32 37.12C142.707 36.8533 142.04 36.72 141.32 36.72C140.587 36.72 139.907 36.8533 139.28 37.12C138.653 37.3867 138.107 37.76 137.64 38.24C137.173 38.7067 136.807 39.26 136.54 39.9C136.287 40.54 136.16 41.24 136.16 42C136.16 42.7467 136.287 43.4467 136.54 44.1C136.807 44.74 137.173 45.3 137.64 45.78C138.107 46.2467 138.653 46.6133 139.28 46.88C139.907 47.1467 140.587 47.28 141.32 47.28Z" fill="#FFFEFF"/>
<path d="M93.812 70V62.836L92.3 63.472V62.416L94.244 61.6H95V70H93.812ZM96.3374 71.716L97.0814 68.92H98.3534L97.2494 71.716H96.3374ZM102.981 70.132C102.277 70.132 101.661 69.952 101.133 69.592C100.605 69.224 100.189 68.716 99.8848 68.068C99.5888 67.412 99.4408 66.656 99.4408 65.8C99.4408 64.944 99.5888 64.192 99.8848 63.544C100.189 62.888 100.605 62.38 101.133 62.02C101.661 61.652 102.277 61.468 102.981 61.468C103.677 61.468 104.289 61.652 104.817 62.02C105.345 62.38 105.757 62.888 106.053 63.544C106.357 64.192 106.509 64.944 106.509 65.8C106.509 66.656 106.357 67.412 106.053 68.068C105.757 68.716 105.345 69.224 104.817 69.592C104.289 69.952 103.677 70.132 102.981 70.132ZM102.981 69.088C103.461 69.088 103.877 68.956 104.229 68.692C104.581 68.42 104.853 68.036 105.045 67.54C105.237 67.044 105.333 66.464 105.333 65.8C105.333 65.128 105.237 64.548 105.045 64.06C104.853 63.564 104.581 63.184 104.229 62.92C103.877 62.648 103.461 62.512 102.981 62.512C102.501 62.512 102.081 62.648 101.721 62.92C101.369 63.184 101.097 63.564 100.905 64.06C100.713 64.548 100.617 65.128 100.617 65.8C100.617 66.464 100.713 67.044 100.905 67.54C101.097 68.036 101.369 68.42 101.721 68.692C102.081 68.956 102.501 69.088 102.981 69.088ZM110.912 70.132C110.312 70.132 109.78 70.028 109.316 69.82C108.86 69.612 108.5 69.324 108.236 68.956C107.972 68.588 107.84 68.168 107.84 67.696C107.84 67.368 107.916 67.064 108.068 66.784C108.228 66.504 108.448 66.26 108.728 66.052C109.016 65.844 109.34 65.696 109.7 65.608C109.236 65.464 108.86 65.22 108.572 64.876C108.284 64.532 108.14 64.148 108.14 63.724C108.14 63.292 108.26 62.908 108.5 62.572C108.748 62.228 109.08 61.96 109.496 61.768C109.912 61.568 110.384 61.468 110.912 61.468C111.44 61.468 111.912 61.568 112.328 61.768C112.752 61.96 113.084 62.228 113.324 62.572C113.564 62.908 113.684 63.292 113.684 63.724C113.684 64.148 113.54 64.532 113.252 64.876C112.964 65.22 112.588 65.464 112.124 65.608C112.676 65.752 113.124 66.016 113.468 66.4C113.812 66.776 113.984 67.208 113.984 67.696C113.984 68.168 113.852 68.588 113.588 68.956C113.332 69.324 112.972 69.612 112.508 69.82C112.044 70.028 111.512 70.132 110.912 70.132ZM110.912 65.164C111.224 65.164 111.504 65.104 111.752 64.984C112 64.864 112.196 64.7 112.34 64.492C112.484 64.284 112.556 64.052 112.556 63.796C112.556 63.532 112.484 63.296 112.34 63.088C112.196 62.872 112 62.708 111.752 62.596C111.504 62.476 111.224 62.416 110.912 62.416C110.6 62.416 110.32 62.476 110.072 62.596C109.824 62.708 109.628 62.868 109.484 63.076C109.34 63.284 109.268 63.52 109.268 63.784C109.268 64.048 109.34 64.284 109.484 64.492C109.628 64.7 109.824 64.864 110.072 64.984C110.32 65.104 110.6 65.164 110.912 65.164ZM110.912 69.184C111.28 69.184 111.608 69.12 111.896 68.992C112.184 68.856 112.412 68.672 112.58 68.44C112.748 68.2 112.832 67.932 112.832 67.636C112.832 67.34 112.748 67.076 112.58 66.844C112.412 66.604 112.184 66.42 111.896 66.292C111.608 66.156 111.28 66.088 110.912 66.088C110.544 66.088 110.216 66.156 109.928 66.292C109.64 66.428 109.412 66.612 109.244 66.844C109.076 67.076 108.992 67.34 108.992 67.636C108.992 67.932 109.076 68.2 109.244 68.44C109.412 68.672 109.64 68.856 109.928 68.992C110.216 69.12 110.544 69.184 110.912 69.184Z" fill="#8D8F93"/>
<path d="M211.852 61V52.6H215.74C216.292 52.6 216.772 52.708 217.18 52.924C217.588 53.132 217.908 53.424 218.14 53.8C218.372 54.176 218.488 54.612 218.488 55.108C218.488 55.604 218.372 56.04 218.14 56.416C217.908 56.792 217.584 57.088 217.168 57.304C216.76 57.512 216.284 57.616 215.74 57.616H213.112V61H211.852ZM213.112 56.548H215.608C216.104 56.548 216.496 56.42 216.784 56.164C217.08 55.9 217.228 55.552 217.228 55.12C217.228 54.688 217.08 54.344 216.784 54.088C216.496 53.832 216.104 53.704 215.608 53.704H213.112V56.548ZM222.142 61.108C221.542 61.108 220.998 60.968 220.51 60.688C220.03 60.408 219.646 60.028 219.358 59.548C219.078 59.068 218.938 58.532 218.938 57.94C218.938 57.356 219.074 56.828 219.346 56.356C219.618 55.876 219.986 55.496 220.45 55.216C220.914 54.928 221.43 54.784 221.998 54.784C222.566 54.784 223.07 54.928 223.51 55.216C223.95 55.496 224.298 55.88 224.554 56.368C224.818 56.848 224.95 57.392 224.95 58V58.336H220.138C220.202 58.672 220.326 58.972 220.51 59.236C220.702 59.5 220.942 59.708 221.23 59.86C221.526 60.012 221.846 60.088 222.19 60.088C222.486 60.088 222.77 60.044 223.042 59.956C223.322 59.86 223.554 59.724 223.738 59.548L224.506 60.304C224.146 60.576 223.774 60.78 223.39 60.916C223.014 61.044 222.598 61.108 222.142 61.108ZM220.15 57.436H223.762C223.714 57.116 223.602 56.836 223.426 56.596C223.258 56.348 223.046 56.156 222.79 56.02C222.542 55.876 222.27 55.804 221.974 55.804C221.67 55.804 221.39 55.872 221.134 56.008C220.878 56.144 220.662 56.336 220.486 56.584C220.318 56.824 220.206 57.108 220.15 57.436ZM226.333 61V54.892H227.533V55.672C227.725 55.384 227.961 55.16 228.241 55C228.529 54.832 228.853 54.748 229.213 54.748C229.461 54.756 229.665 54.792 229.825 54.856V55.936C229.713 55.888 229.597 55.856 229.477 55.84C229.357 55.816 229.237 55.804 229.117 55.804C228.765 55.804 228.453 55.9 228.181 56.092C227.909 56.276 227.693 56.548 227.533 56.908V61H226.333ZM233.773 61V54.892H234.973V55.48C235.429 55.008 236.001 54.772 236.689 54.772C237.105 54.772 237.473 54.864 237.793 55.048C238.121 55.232 238.381 55.48 238.573 55.792C238.829 55.456 239.129 55.204 239.473 55.036C239.817 54.86 240.205 54.772 240.637 54.772C241.093 54.772 241.489 54.872 241.825 55.072C242.169 55.272 242.437 55.552 242.629 55.912C242.829 56.272 242.929 56.688 242.929 57.16V61H241.729V57.364C241.729 56.884 241.601 56.508 241.345 56.236C241.097 55.956 240.757 55.816 240.325 55.816C240.029 55.816 239.761 55.884 239.521 56.02C239.281 56.156 239.073 56.364 238.897 56.644C238.913 56.724 238.925 56.808 238.933 56.896C238.941 56.984 238.945 57.072 238.945 57.16V61H237.757V57.364C237.757 56.884 237.629 56.508 237.373 56.236C237.125 55.956 236.785 55.816 236.353 55.816C236.065 55.816 235.805 55.88 235.573 56.008C235.341 56.128 235.141 56.312 234.973 56.56V61H233.773ZM247.453 61.12C246.861 61.12 246.321 60.98 245.833 60.7C245.353 60.42 244.973 60.04 244.693 59.56C244.413 59.08 244.273 58.544 244.273 57.952C244.273 57.36 244.413 56.824 244.693 56.344C244.973 55.864 245.353 55.484 245.833 55.204C246.321 54.916 246.861 54.772 247.453 54.772C248.053 54.772 248.593 54.916 249.073 55.204C249.553 55.484 249.933 55.864 250.213 56.344C250.493 56.824 250.633 57.36 250.633 57.952C250.633 58.544 250.493 59.08 250.213 59.56C249.933 60.04 249.553 60.42 249.073 60.7C248.593 60.98 248.053 61.12 247.453 61.12ZM247.453 60.064C247.829 60.064 248.169 59.972 248.473 59.788C248.777 59.596 249.017 59.34 249.193 59.02C249.369 58.7 249.457 58.34 249.457 57.94C249.457 57.548 249.365 57.196 249.181 56.884C249.005 56.564 248.765 56.308 248.461 56.116C248.165 55.924 247.829 55.828 247.453 55.828C247.077 55.828 246.737 55.924 246.433 56.116C246.137 56.308 245.897 56.564 245.713 56.884C245.537 57.196 245.449 57.548 245.449 57.94C245.449 58.34 245.537 58.7 245.713 59.02C245.889 59.34 246.129 59.596 246.433 59.788C246.737 59.972 247.077 60.064 247.453 60.064ZM252.007 61V54.892H253.207V55.516C253.679 55.02 254.291 54.772 255.043 54.772C255.515 54.772 255.927 54.872 256.279 55.072C256.639 55.272 256.919 55.552 257.119 55.912C257.327 56.272 257.431 56.688 257.431 57.16V61H256.231V57.364C256.231 56.884 256.095 56.508 255.823 56.236C255.559 55.956 255.187 55.816 254.707 55.816C254.387 55.816 254.099 55.884 253.843 56.02C253.587 56.156 253.375 56.352 253.207 56.608V61H252.007ZM261.496 61.108C260.904 61.108 260.452 60.972 260.14 60.7C259.828 60.42 259.672 60.016 259.672 59.488V55.9H258.376V54.892H259.672V53.332L260.86 53.044V54.892H262.66V55.9H260.86V59.212C260.86 59.524 260.928 59.748 261.064 59.884C261.208 60.012 261.44 60.076 261.76 60.076C261.928 60.076 262.076 60.064 262.204 60.04C262.34 60.016 262.484 59.98 262.636 59.932V60.94C262.476 60.996 262.288 61.036 262.072 61.06C261.864 61.092 261.672 61.108 261.496 61.108ZM263.784 61V52.6L264.984 52.336V55.516C265.456 55.02 266.068 54.772 266.82 54.772C267.292 54.772 267.704 54.872 268.056 55.072C268.416 55.272 268.696 55.552 268.896 55.912C269.104 56.272 269.208 56.688 269.208 57.16V61H268.008V57.364C268.008 56.884 267.872 56.508 267.6 56.236C267.328 55.956 266.956 55.816 266.484 55.816C266.164 55.816 265.876 55.884 265.62 56.02C265.364 56.156 265.152 56.352 264.984 56.608V61H263.784Z" fill="#8D8F93"/>
<path d="M41 48H56.2M41 54H52.4M60 42C58.1976 40.0615 55.8481 38.9914 53.4133 39.0001C52.0992 39.0196 50.8012 39.3456 49.5935 39.9592C48.3857 40.5729 47.2919 41.4623 46.3744 42.5766C45.4569 43.6909 44.7338 45.0084 44.2464 46.4537C43.7589 47.899 43.5166 49.4438 43.5333 51C43.5333 57.6 47.9667 63 53.4133 63C55.9467 63 58.2267 61.8 60 60" stroke="#1C2027" stroke-width="2.5" stroke-linecap="round" stroke-linejoin="round"/>
</svg>
