<svg width="290" height="146" viewBox="0 0 290 146" fill="none" xmlns="http://www.w3.org/2000/svg">
<rect width="290" height="146" rx="24" fill="#99E51E"/>
<path d="M233.361 41.154C232.54 41.154 231.821 40.944 231.205 40.524C230.589 40.0947 230.104 39.502 229.749 38.746C229.404 37.9807 229.231 37.0987 229.231 36.1C229.231 35.1013 229.404 34.224 229.749 33.468C230.104 32.7027 230.589 32.11 231.205 31.69C231.821 31.2607 232.54 31.046 233.361 31.046C234.173 31.046 234.887 31.2607 235.503 31.69C236.119 32.11 236.6 32.7027 236.945 33.468C237.3 34.224 237.477 35.1013 237.477 36.1C237.477 37.0987 237.3 37.9807 236.945 38.746C236.6 39.502 236.119 40.0947 235.503 40.524C234.887 40.944 234.173 41.154 233.361 41.154ZM233.361 39.936C233.921 39.936 234.407 39.782 234.817 39.474C235.228 39.1567 235.545 38.7087 235.769 38.13C235.993 37.5513 236.105 36.8747 236.105 36.1C236.105 35.316 235.993 34.6393 235.769 34.07C235.545 33.4913 235.228 33.048 234.817 32.74C234.407 32.4227 233.921 32.264 233.361 32.264C232.801 32.264 232.311 32.4227 231.891 32.74C231.481 33.048 231.163 33.4913 230.939 34.07C230.715 34.6393 230.603 35.316 230.603 36.1C230.603 36.8747 230.715 37.5513 230.939 38.13C231.163 38.7087 231.481 39.1567 231.891 39.474C232.311 39.782 232.801 39.936 233.361 39.936ZM238.352 43.002L239.22 39.74H240.704L239.416 43.002H238.352ZM247.403 41V38.508H241.845V37.402L247.235 31.2H248.789V37.332H249.979V38.508H248.789V41H247.403ZM243.497 37.332H247.403V32.838L243.497 37.332ZM254.379 31.046C255.163 31.046 255.853 31.2513 256.451 31.662C257.048 32.0633 257.515 32.6187 257.851 33.328C258.187 34.0373 258.355 34.8633 258.355 35.806C258.355 36.8793 258.168 37.8173 257.795 38.62C257.421 39.4133 256.894 40.034 256.213 40.482C255.541 40.9207 254.752 41.14 253.847 41.14C253.408 41.14 252.965 41.07 252.517 40.93C252.069 40.79 251.681 40.6033 251.355 40.37L252.069 39.362C252.358 39.5487 252.661 39.6933 252.979 39.796C253.296 39.8893 253.623 39.936 253.959 39.936C254.593 39.936 255.135 39.7727 255.583 39.446C256.04 39.1193 256.39 38.6527 256.633 38.046C256.875 37.43 257.001 36.702 257.011 35.862C256.665 36.3193 256.25 36.6787 255.765 36.94C255.279 37.192 254.775 37.318 254.253 37.318C253.609 37.318 253.039 37.1873 252.545 36.926C252.05 36.6553 251.663 36.296 251.383 35.848C251.103 35.3907 250.963 34.868 250.963 34.28C250.963 33.6547 251.112 33.0993 251.411 32.614C251.709 32.1287 252.115 31.746 252.629 31.466C253.142 31.186 253.725 31.046 254.379 31.046ZM254.449 36.24C254.934 36.24 255.391 36.128 255.821 35.904C256.259 35.6707 256.637 35.358 256.955 34.966C256.88 34.406 256.726 33.9207 256.493 33.51C256.269 33.0993 255.979 32.782 255.625 32.558C255.27 32.3247 254.869 32.208 254.421 32.208C254.019 32.208 253.655 32.2967 253.329 32.474C253.011 32.6513 252.759 32.894 252.573 33.202C252.395 33.51 252.307 33.86 252.307 34.252C252.307 34.6347 252.395 34.98 252.573 35.288C252.759 35.5867 253.016 35.82 253.343 35.988C253.669 36.156 254.038 36.24 254.449 36.24ZM261.842 36.17C261.198 36.17 260.68 35.9367 260.288 35.47C259.896 35.0033 259.7 34.3967 259.7 33.65C259.7 32.894 259.896 32.2873 260.288 31.83C260.68 31.3633 261.198 31.13 261.842 31.13C262.476 31.13 262.99 31.3633 263.382 31.83C263.774 32.2873 263.974 32.894 263.984 33.65C263.974 34.3967 263.774 35.0033 263.382 35.47C262.99 35.9367 262.476 36.17 261.842 36.17ZM261.842 35.372C262.224 35.372 262.528 35.218 262.752 34.91C262.976 34.5927 263.088 34.1727 263.088 33.65C263.088 33.118 262.976 32.698 262.752 32.39C262.528 32.0727 262.224 31.914 261.842 31.914C261.459 31.914 261.156 32.0727 260.932 32.39C260.717 32.698 260.605 33.118 260.596 33.65C260.605 34.1727 260.717 34.5927 260.932 34.91C261.156 35.218 261.459 35.372 261.842 35.372ZM261.338 41L266.854 31.2H267.96L262.43 41H261.338ZM267.526 41.07C266.882 41.07 266.364 40.8367 265.972 40.37C265.58 39.9033 265.384 39.2967 265.384 38.55C265.384 37.794 265.58 37.1873 265.972 36.73C266.364 36.2633 266.882 36.03 267.526 36.03C268.16 36.03 268.674 36.2633 269.066 36.73C269.458 37.1873 269.658 37.794 269.668 38.55C269.658 39.2967 269.458 39.9033 269.066 40.37C268.674 40.8367 268.16 41.07 267.526 41.07ZM267.526 40.272C267.908 40.272 268.212 40.118 268.436 39.81C268.66 39.4927 268.772 39.0727 268.772 38.55C268.772 38.018 268.66 37.598 268.436 37.29C268.212 36.9727 267.908 36.814 267.526 36.814C267.143 36.814 266.84 36.9727 266.616 37.29C266.401 37.598 266.289 38.018 266.28 38.55C266.289 39.0727 266.401 39.4927 266.616 39.81C266.84 40.118 267.143 40.272 267.526 40.272Z" fill="#1C2027"/>
<path d="M224.439 39.3861C224.363 39.3862 224.288 39.3713 224.218 39.3424C224.148 39.3134 224.085 39.271 224.031 39.2175C223.978 39.164 223.935 39.1004 223.906 39.0305C223.877 38.9606 223.862 38.8856 223.862 38.8099L223.863 32.8701L215.887 40.8462C215.779 40.9542 215.632 41.0149 215.48 41.0149C215.327 41.0149 215.18 40.9542 215.072 40.8462C214.964 40.7382 214.904 40.5917 214.904 40.439C214.904 40.2862 214.964 40.1398 215.072 40.0318L223.049 32.0557L217.109 32.0563C216.956 32.0563 216.809 31.9956 216.701 31.8875C216.593 31.7794 216.533 31.6329 216.533 31.4801C216.533 31.3272 216.593 31.1807 216.701 31.0726C216.809 30.9645 216.956 30.9038 217.109 30.9038L224.439 30.9037C224.514 30.9037 224.589 30.9185 224.659 30.9475C224.729 30.9764 224.793 31.0189 224.846 31.0724C224.9 31.1259 224.942 31.1894 224.971 31.2594C225 31.3293 225.015 31.4042 225.015 31.4799L225.015 38.8099C225.015 38.8856 225 38.9605 224.971 39.0305C224.942 39.1004 224.9 39.1639 224.846 39.2175C224.793 39.271 224.729 39.3134 224.659 39.3424C224.589 39.3713 224.514 39.3862 224.439 39.3861Z" fill="#1C2027"/>
<rect x="20" y="20" width="62" height="62" rx="16" fill="#FFFEFF"/>
<path d="M93.42 49V35H99.9C100.82 35 101.62 35.18 102.3 35.54C102.98 35.8867 103.513 36.3733 103.9 37C104.287 37.6267 104.48 38.3533 104.48 39.18C104.48 40.0067 104.287 40.7333 103.9 41.36C103.513 41.9867 102.973 42.48 102.28 42.84C101.6 43.1867 100.807 43.36 99.9 43.36H95.52V49H93.42ZM95.52 41.58H99.68C100.507 41.58 101.16 41.3667 101.64 40.94C102.133 40.5 102.38 39.92 102.38 39.2C102.38 38.48 102.133 37.9067 101.64 37.48C101.16 37.0533 100.507 36.84 99.68 36.84H95.52V41.58ZM110.529 49.2C109.543 49.2 108.643 48.9667 107.829 48.5C107.029 48.0333 106.396 47.4 105.929 46.6C105.463 45.8 105.229 44.9067 105.229 43.92C105.229 42.9333 105.463 42.04 105.929 41.24C106.396 40.44 107.029 39.8067 107.829 39.34C108.643 38.86 109.543 38.62 110.529 38.62C111.529 38.62 112.429 38.86 113.229 39.34C114.029 39.8067 114.663 40.44 115.129 41.24C115.596 42.04 115.829 42.9333 115.829 43.92C115.829 44.9067 115.596 45.8 115.129 46.6C114.663 47.4 114.029 48.0333 113.229 48.5C112.429 48.9667 111.529 49.2 110.529 49.2ZM110.529 47.44C111.156 47.44 111.723 47.2867 112.229 46.98C112.736 46.66 113.136 46.2333 113.429 45.7C113.723 45.1667 113.869 44.5667 113.869 43.9C113.869 43.2467 113.716 42.66 113.409 42.14C113.116 41.6067 112.716 41.18 112.209 40.86C111.716 40.54 111.156 40.38 110.529 40.38C109.903 40.38 109.336 40.54 108.829 40.86C108.336 41.18 107.936 41.6067 107.629 42.14C107.336 42.66 107.189 43.2467 107.189 43.9C107.189 44.5667 107.336 45.1667 107.629 45.7C107.923 46.2333 108.323 46.66 108.829 46.98C109.336 47.2867 109.903 47.44 110.529 47.44ZM122.061 49.2C121.274 49.2 120.581 49.0333 119.981 48.7C119.381 48.3667 118.914 47.9 118.581 47.3C118.247 46.6867 118.081 45.9867 118.081 45.2V38.82H120.061V44.86C120.061 45.66 120.287 46.2933 120.741 46.76C121.207 47.2267 121.827 47.46 122.601 47.46C123.147 47.46 123.634 47.3467 124.061 47.12C124.487 46.88 124.834 46.5467 125.101 46.12V38.82H127.101V49H125.101V47.96C124.314 48.7867 123.301 49.2 122.061 49.2ZM129.868 49V38.82H131.868V39.86C132.655 39.0333 133.675 38.62 134.928 38.62C135.715 38.62 136.402 38.7867 136.988 39.12C137.588 39.4533 138.055 39.92 138.388 40.52C138.735 41.12 138.908 41.8133 138.908 42.6V49H136.908V42.94C136.908 42.14 136.682 41.5133 136.228 41.06C135.788 40.5933 135.168 40.36 134.368 40.36C133.835 40.36 133.355 40.4733 132.928 40.7C132.502 40.9267 132.148 41.2533 131.868 41.68V49H129.868ZM146.296 49.16C145.349 49.16 144.483 48.9267 143.696 48.46C142.909 47.9933 142.289 47.3667 141.836 46.58C141.383 45.78 141.156 44.8867 141.156 43.9C141.156 42.9133 141.383 42.0267 141.836 41.24C142.303 40.4533 142.929 39.8267 143.716 39.36C144.503 38.8933 145.376 38.66 146.336 38.66C146.896 38.66 147.436 38.7467 147.956 38.92C148.476 39.0933 148.956 39.3467 149.396 39.68V35L151.396 34.62V49H149.416V48.02C148.549 48.78 147.509 49.16 146.296 49.16ZM146.556 47.42C147.143 47.42 147.676 47.3133 148.156 47.1C148.649 46.8867 149.063 46.58 149.396 46.18V41.6C149.063 41.2267 148.649 40.9333 148.156 40.72C147.676 40.4933 147.143 40.38 146.556 40.38C145.916 40.38 145.336 40.5333 144.816 40.84C144.296 41.1467 143.883 41.5667 143.576 42.1C143.269 42.62 143.116 43.2133 143.116 43.88C143.116 44.5467 143.269 45.1467 143.576 45.68C143.883 46.2133 144.296 46.64 144.816 46.96C145.336 47.2667 145.916 47.42 146.556 47.42Z" fill="#1C2027"/>
<path d="M93.812 70V62.836L92.3 63.472V62.416L94.244 61.6H95V70H93.812ZM96.3374 71.716L97.0814 68.92H98.3534L97.2494 71.716H96.3374ZM100.386 70V62.836L98.8738 63.472V62.416L100.818 61.6H101.574V70H100.386ZM106.259 70.132C105.659 70.132 105.127 70.028 104.663 69.82C104.207 69.612 103.847 69.324 103.583 68.956C103.319 68.588 103.187 68.168 103.187 67.696C103.187 67.368 103.263 67.064 103.415 66.784C103.575 66.504 103.795 66.26 104.075 66.052C104.363 65.844 104.687 65.696 105.047 65.608C104.583 65.464 104.207 65.22 103.919 64.876C103.631 64.532 103.487 64.148 103.487 63.724C103.487 63.292 103.607 62.908 103.847 62.572C104.095 62.228 104.427 61.96 104.843 61.768C105.259 61.568 105.731 61.468 106.259 61.468C106.787 61.468 107.259 61.568 107.675 61.768C108.099 61.96 108.431 62.228 108.671 62.572C108.911 62.908 109.031 63.292 109.031 63.724C109.031 64.148 108.887 64.532 108.599 64.876C108.311 65.22 107.935 65.464 107.471 65.608C108.023 65.752 108.471 66.016 108.815 66.4C109.159 66.776 109.331 67.208 109.331 67.696C109.331 68.168 109.199 68.588 108.935 68.956C108.679 69.324 108.319 69.612 107.855 69.82C107.391 70.028 106.859 70.132 106.259 70.132ZM106.259 65.164C106.571 65.164 106.851 65.104 107.099 64.984C107.347 64.864 107.543 64.7 107.687 64.492C107.831 64.284 107.903 64.052 107.903 63.796C107.903 63.532 107.831 63.296 107.687 63.088C107.543 62.872 107.347 62.708 107.099 62.596C106.851 62.476 106.571 62.416 106.259 62.416C105.947 62.416 105.667 62.476 105.419 62.596C105.171 62.708 104.975 62.868 104.831 63.076C104.687 63.284 104.615 63.52 104.615 63.784C104.615 64.048 104.687 64.284 104.831 64.492C104.975 64.7 105.171 64.864 105.419 64.984C105.667 65.104 105.947 65.164 106.259 65.164ZM106.259 69.184C106.627 69.184 106.955 69.12 107.243 68.992C107.531 68.856 107.759 68.672 107.927 68.44C108.095 68.2 108.179 67.932 108.179 67.636C108.179 67.34 108.095 67.076 107.927 66.844C107.759 66.604 107.531 66.42 107.243 66.292C106.955 66.156 106.627 66.088 106.259 66.088C105.891 66.088 105.563 66.156 105.275 66.292C104.987 66.428 104.759 66.612 104.591 66.844C104.423 67.076 104.339 67.34 104.339 67.636C104.339 67.932 104.423 68.2 104.591 68.44C104.759 68.672 104.987 68.856 105.275 68.992C105.563 69.12 105.891 69.184 106.259 69.184Z" fill="#6E6E6E"/>
<path d="M211.852 61V52.6H215.74C216.292 52.6 216.772 52.708 217.18 52.924C217.588 53.132 217.908 53.424 218.14 53.8C218.372 54.176 218.488 54.612 218.488 55.108C218.488 55.604 218.372 56.04 218.14 56.416C217.908 56.792 217.584 57.088 217.168 57.304C216.76 57.512 216.284 57.616 215.74 57.616H213.112V61H211.852ZM213.112 56.548H215.608C216.104 56.548 216.496 56.42 216.784 56.164C217.08 55.9 217.228 55.552 217.228 55.12C217.228 54.688 217.08 54.344 216.784 54.088C216.496 53.832 216.104 53.704 215.608 53.704H213.112V56.548ZM222.142 61.108C221.542 61.108 220.998 60.968 220.51 60.688C220.03 60.408 219.646 60.028 219.358 59.548C219.078 59.068 218.938 58.532 218.938 57.94C218.938 57.356 219.074 56.828 219.346 56.356C219.618 55.876 219.986 55.496 220.45 55.216C220.914 54.928 221.43 54.784 221.998 54.784C222.566 54.784 223.07 54.928 223.51 55.216C223.95 55.496 224.298 55.88 224.554 56.368C224.818 56.848 224.95 57.392 224.95 58V58.336H220.138C220.202 58.672 220.326 58.972 220.51 59.236C220.702 59.5 220.942 59.708 221.23 59.86C221.526 60.012 221.846 60.088 222.19 60.088C222.486 60.088 222.77 60.044 223.042 59.956C223.322 59.86 223.554 59.724 223.738 59.548L224.506 60.304C224.146 60.576 223.774 60.78 223.39 60.916C223.014 61.044 222.598 61.108 222.142 61.108ZM220.15 57.436H223.762C223.714 57.116 223.602 56.836 223.426 56.596C223.258 56.348 223.046 56.156 222.79 56.02C222.542 55.876 222.27 55.804 221.974 55.804C221.67 55.804 221.39 55.872 221.134 56.008C220.878 56.144 220.662 56.336 220.486 56.584C220.318 56.824 220.206 57.108 220.15 57.436ZM226.333 61V54.892H227.533V55.672C227.725 55.384 227.961 55.16 228.241 55C228.529 54.832 228.853 54.748 229.213 54.748C229.461 54.756 229.665 54.792 229.825 54.856V55.936C229.713 55.888 229.597 55.856 229.477 55.84C229.357 55.816 229.237 55.804 229.117 55.804C228.765 55.804 228.453 55.9 228.181 56.092C227.909 56.276 227.693 56.548 227.533 56.908V61H226.333ZM233.773 61V54.892H234.973V55.48C235.429 55.008 236.001 54.772 236.689 54.772C237.105 54.772 237.473 54.864 237.793 55.048C238.121 55.232 238.381 55.48 238.573 55.792C238.829 55.456 239.129 55.204 239.473 55.036C239.817 54.86 240.205 54.772 240.637 54.772C241.093 54.772 241.489 54.872 241.825 55.072C242.169 55.272 242.437 55.552 242.629 55.912C242.829 56.272 242.929 56.688 242.929 57.16V61H241.729V57.364C241.729 56.884 241.601 56.508 241.345 56.236C241.097 55.956 240.757 55.816 240.325 55.816C240.029 55.816 239.761 55.884 239.521 56.02C239.281 56.156 239.073 56.364 238.897 56.644C238.913 56.724 238.925 56.808 238.933 56.896C238.941 56.984 238.945 57.072 238.945 57.16V61H237.757V57.364C237.757 56.884 237.629 56.508 237.373 56.236C237.125 55.956 236.785 55.816 236.353 55.816C236.065 55.816 235.805 55.88 235.573 56.008C235.341 56.128 235.141 56.312 234.973 56.56V61H233.773ZM247.453 61.12C246.861 61.12 246.321 60.98 245.833 60.7C245.353 60.42 244.973 60.04 244.693 59.56C244.413 59.08 244.273 58.544 244.273 57.952C244.273 57.36 244.413 56.824 244.693 56.344C244.973 55.864 245.353 55.484 245.833 55.204C246.321 54.916 246.861 54.772 247.453 54.772C248.053 54.772 248.593 54.916 249.073 55.204C249.553 55.484 249.933 55.864 250.213 56.344C250.493 56.824 250.633 57.36 250.633 57.952C250.633 58.544 250.493 59.08 250.213 59.56C249.933 60.04 249.553 60.42 249.073 60.7C248.593 60.98 248.053 61.12 247.453 61.12ZM247.453 60.064C247.829 60.064 248.169 59.972 248.473 59.788C248.777 59.596 249.017 59.34 249.193 59.02C249.369 58.7 249.457 58.34 249.457 57.94C249.457 57.548 249.365 57.196 249.181 56.884C249.005 56.564 248.765 56.308 248.461 56.116C248.165 55.924 247.829 55.828 247.453 55.828C247.077 55.828 246.737 55.924 246.433 56.116C246.137 56.308 245.897 56.564 245.713 56.884C245.537 57.196 245.449 57.548 245.449 57.94C245.449 58.34 245.537 58.7 245.713 59.02C245.889 59.34 246.129 59.596 246.433 59.788C246.737 59.972 247.077 60.064 247.453 60.064ZM252.007 61V54.892H253.207V55.516C253.679 55.02 254.291 54.772 255.043 54.772C255.515 54.772 255.927 54.872 256.279 55.072C256.639 55.272 256.919 55.552 257.119 55.912C257.327 56.272 257.431 56.688 257.431 57.16V61H256.231V57.364C256.231 56.884 256.095 56.508 255.823 56.236C255.559 55.956 255.187 55.816 254.707 55.816C254.387 55.816 254.099 55.884 253.843 56.02C253.587 56.156 253.375 56.352 253.207 56.608V61H252.007ZM261.496 61.108C260.904 61.108 260.452 60.972 260.14 60.7C259.828 60.42 259.672 60.016 259.672 59.488V55.9H258.376V54.892H259.672V53.332L260.86 53.044V54.892H262.66V55.9H260.86V59.212C260.86 59.524 260.928 59.748 261.064 59.884C261.208 60.012 261.44 60.076 261.76 60.076C261.928 60.076 262.076 60.064 262.204 60.04C262.34 60.016 262.484 59.98 262.636 59.932V60.94C262.476 60.996 262.288 61.036 262.072 61.06C261.864 61.092 261.672 61.108 261.496 61.108ZM263.784 61V52.6L264.984 52.336V55.516C265.456 55.02 266.068 54.772 266.82 54.772C267.292 54.772 267.704 54.872 268.056 55.072C268.416 55.272 268.696 55.552 268.896 55.912C269.104 56.272 269.208 56.688 269.208 57.16V61H268.008V57.364C268.008 56.884 267.872 56.508 267.6 56.236C267.328 55.956 266.956 55.816 266.484 55.816C266.164 55.816 265.876 55.884 265.62 56.02C265.364 56.156 265.152 56.352 264.984 56.608V61H263.784Z" fill="#6E6E6E"/>
<path d="M61.6667 58.5988H45.6667C46.5392 57.5631 47.0078 56.2971 47 54.9971V51.3954H55C55.3536 51.3954 55.6928 51.2689 55.9428 51.0438C56.1929 50.8186 56.3333 50.5132 56.3333 50.1948C56.3333 49.8764 56.1929 49.571 55.9428 49.3459C55.6928 49.1207 55.3536 48.9942 55 48.9942H47V45.2605C46.9988 43.9666 47.4724 42.7087 48.347 41.6822C49.2217 40.6557 50.4484 39.918 51.8366 39.584C53.2248 39.2499 54.6966 39.3382 56.0234 39.8349C57.3502 40.3317 58.4575 41.2092 59.1733 42.331C59.2616 42.4676 59.3788 42.5872 59.5185 42.6828C59.6581 42.7785 59.8173 42.8484 59.987 42.8886C60.1567 42.9287 60.3336 42.9383 60.5074 42.9168C60.6812 42.8953 60.8486 42.8431 61 42.7633C61.305 42.6049 61.528 42.3443 61.6204 42.0384C61.7129 41.7325 61.6672 41.4061 61.4933 41.1305C60.4797 39.5554 58.918 38.3248 57.0498 37.629C55.1816 36.9332 53.1108 36.8109 51.1576 37.281C49.2045 37.751 47.4777 38.7873 46.2441 40.2297C45.0106 41.672 44.3391 43.44 44.3333 45.2605V48.9942H40.3333C39.9797 48.9942 39.6406 49.1207 39.3905 49.3459C39.1405 49.571 39 49.8764 39 50.1948C39 50.5132 39.1405 50.8186 39.3905 51.0438C39.6406 51.2689 39.9797 51.3954 40.3333 51.3954H44.3333V54.9971C44.3333 55.9524 43.9119 56.8685 43.1618 57.5439C42.4116 58.2194 41.3942 58.5988 40.3333 58.5988C39.9797 58.5988 39.6406 58.7253 39.3905 58.9505C39.1405 59.1756 39 59.481 39 59.7994C39 60.1178 39.1405 60.4232 39.3905 60.6484C39.6406 60.8735 39.9797 61 40.3333 61H61.6667C62.0203 61 62.3594 60.8735 62.6095 60.6484C62.8595 60.4232 63 60.1178 63 59.7994C63 59.481 62.8595 59.1756 62.6095 58.9505C62.3594 58.7253 62.0203 58.5988 61.6667 58.5988Z" fill="#1C2027"/>
</svg>
