<svg width="290" height="146" viewBox="0 0 290 146" fill="none" xmlns="http://www.w3.org/2000/svg">
<rect width="290" height="146" rx="24" fill="#1C2027"/>
<path d="M233.788 41.154C232.939 41.154 232.187 40.944 231.534 40.524C230.89 40.0947 230.386 39.502 230.022 38.746C229.667 37.9807 229.49 37.0987 229.49 36.1C229.49 35.092 229.667 34.21 230.022 33.454C230.386 32.698 230.89 32.11 231.534 31.69C232.187 31.2607 232.939 31.046 233.788 31.046C234.647 31.046 235.398 31.2607 236.042 31.69C236.695 32.11 237.199 32.698 237.554 33.454C237.918 34.21 238.1 35.092 238.1 36.1C238.1 37.0987 237.918 37.9807 237.554 38.746C237.199 39.502 236.695 40.0947 236.042 40.524C235.398 40.944 234.647 41.154 233.788 41.154ZM233.788 39.488C234.292 39.488 234.726 39.3527 235.09 39.082C235.454 38.8113 235.734 38.4193 235.93 37.906C236.135 37.3927 236.238 36.7907 236.238 36.1C236.238 35.4 236.135 34.798 235.93 34.294C235.734 33.7807 235.454 33.3887 235.09 33.118C234.726 32.8473 234.292 32.712 233.788 32.712C233.293 32.712 232.864 32.8473 232.5 33.118C232.136 33.3887 231.851 33.7807 231.646 34.294C231.45 34.798 231.352 35.4 231.352 36.1C231.352 36.7907 231.45 37.3927 231.646 37.906C231.851 38.4193 232.136 38.8113 232.5 39.082C232.864 39.3527 233.293 39.488 233.788 39.488ZM238.633 43.114L239.585 39.432H241.573L240.075 43.114H238.633ZM243.057 41V39.684L247.145 35.54C247.341 35.3347 247.495 35.1433 247.607 34.966C247.728 34.7887 247.812 34.616 247.859 34.448C247.915 34.2707 247.943 34.0933 247.943 33.916C247.943 33.552 247.789 33.2487 247.481 33.006C247.182 32.7633 246.799 32.642 246.333 32.642C245.885 32.642 245.469 32.7353 245.087 32.922C244.704 33.0993 244.284 33.4073 243.827 33.846L242.791 32.586C243.341 32.0727 243.915 31.69 244.513 31.438C245.11 31.1767 245.735 31.046 246.389 31.046C247.051 31.046 247.635 31.1627 248.139 31.396C248.643 31.6293 249.035 31.9513 249.315 32.362C249.595 32.7727 249.735 33.2533 249.735 33.804C249.735 34.1213 249.688 34.42 249.595 34.7C249.511 34.98 249.371 35.2647 249.175 35.554C248.979 35.834 248.717 36.1373 248.391 36.464L245.423 39.446L249.889 39.432V41H243.057ZM252.119 41L256.515 32.81H251.027V31.2H258.489V32.572L254.303 41H252.119ZM261.871 36.17C261.19 36.17 260.644 35.9413 260.233 35.484C259.832 35.0173 259.631 34.4013 259.631 33.636C259.631 32.8893 259.836 32.2827 260.247 31.816C260.658 31.3493 261.199 31.116 261.871 31.116C262.534 31.116 263.07 31.3493 263.481 31.816C263.892 32.2827 264.097 32.8893 264.097 33.636C264.097 34.4013 263.892 35.0173 263.481 35.484C263.08 35.9413 262.543 36.17 261.871 36.17ZM261.871 35.148C262.207 35.148 262.468 35.0173 262.655 34.756C262.851 34.4853 262.949 34.112 262.949 33.636C262.949 33.1787 262.851 32.8147 262.655 32.544C262.459 32.2733 262.198 32.138 261.871 32.138C261.535 32.138 261.269 32.2733 261.073 32.544C260.886 32.8147 260.788 33.1787 260.779 33.636C260.788 34.112 260.886 34.4853 261.073 34.756C261.26 35.0173 261.526 35.148 261.871 35.148ZM261.325 41L266.869 31.2H268.297L262.753 41H261.325ZM267.891 41.07C267.21 41.07 266.664 40.8413 266.253 40.384C265.852 39.9173 265.651 39.3013 265.651 38.536C265.651 37.7893 265.856 37.1827 266.267 36.716C266.678 36.2493 267.219 36.016 267.891 36.016C268.554 36.016 269.09 36.2493 269.501 36.716C269.912 37.1827 270.117 37.7893 270.117 38.536C270.117 39.3013 269.912 39.9173 269.501 40.384C269.1 40.8413 268.563 41.07 267.891 41.07ZM267.891 40.048C268.227 40.048 268.488 39.9173 268.675 39.656C268.871 39.3853 268.969 39.012 268.969 38.536C268.969 38.0787 268.871 37.7147 268.675 37.444C268.479 37.1733 268.218 37.038 267.891 37.038C267.555 37.038 267.289 37.1733 267.093 37.444C266.906 37.7147 266.808 38.0787 266.799 38.536C266.808 39.012 266.906 39.3853 267.093 39.656C267.28 39.9173 267.546 40.048 267.891 40.048Z" fill="#CB3C3C"/>
<path d="M223.386 40.4386C223.386 40.3629 223.371 40.288 223.342 40.2181C223.313 40.1481 223.271 40.0846 223.217 40.0311C223.164 39.9776 223.1 39.9351 223.03 39.9062C222.961 39.8772 222.886 39.8624 222.81 39.8624L216.87 39.863L224.846 31.8869C224.954 31.7789 225.015 31.6324 225.015 31.4797C225.015 31.327 224.954 31.1805 224.846 31.0725C224.738 30.9645 224.592 30.9038 224.439 30.9038C224.286 30.9038 224.14 30.9645 224.032 31.0725L216.056 39.0486L216.056 33.1087C216.056 32.9559 215.996 32.8094 215.888 32.7013C215.779 32.5932 215.633 32.5325 215.48 32.5325C215.327 32.5325 215.181 32.5933 215.073 32.7013C214.965 32.8094 214.904 32.9559 214.904 33.1088L214.904 40.4388C214.904 40.5144 214.919 40.5894 214.947 40.6593C214.976 40.7293 215.019 40.7928 215.072 40.8463C215.126 40.8998 215.189 40.9423 215.259 40.9712C215.329 41.0001 215.404 41.015 215.48 41.015L222.81 41.0148C222.886 41.0149 222.961 41 223.03 40.9711C223.1 40.9421 223.164 40.8997 223.217 40.8462C223.271 40.7926 223.313 40.7291 223.342 40.6592C223.371 40.5892 223.386 40.5143 223.386 40.4386Z" fill="#CB3C3C"/>
<rect x="20" y="20" width="62" height="62" rx="16" fill="#FFFEFF"/>
<path d="M54.0451 49.72H47.9549C47.0216 49.72 46.1266 49.3304 45.4667 48.637C44.8068 47.9435 44.4361 47.0029 44.4361 46.0222C44.4361 45.0415 44.8068 44.101 45.4667 43.4075C46.1266 42.7141 47.0216 42.3245 47.9549 42.3245H57.6993V39.7645H52.5226V35H50.0865V39.7645H47.9549C46.3755 39.7645 44.8609 40.4238 43.7441 41.5973C42.6274 42.7709 42 44.3626 42 46.0222C42 47.6819 42.6274 49.2736 43.7441 50.4471C44.8609 51.6207 46.3755 52.28 47.9549 52.28H54.0451C54.978 52.2811 55.8724 52.671 56.5321 53.3643C57.1918 54.0575 57.5629 54.9974 57.5639 55.9778V56.2622C57.5629 57.2426 57.1918 58.1825 56.5321 58.8757C55.8724 59.569 54.978 59.9589 54.0451 59.96H43.7369V62.52H50.0865V67H52.5226V62.52H54.0451C55.6239 62.5181 57.1375 61.8582 58.2539 60.6851C59.3703 59.5119 59.9982 57.9213 60 56.2622V55.9778C59.9982 54.3187 59.3703 52.7281 58.2539 51.5549C57.1375 50.3818 55.6239 49.7219 54.0451 49.72Z" fill="#1C2027"/>
<path d="M99.12 49.22C97.9067 49.22 96.8533 48.9667 95.96 48.46C95.0667 47.9533 94.38 47.24 93.9 46.32C93.42 45.3867 93.18 44.2867 93.18 43.02V35H95.28V43.02C95.28 43.8867 95.4333 44.64 95.74 45.28C96.06 45.92 96.5067 46.4133 97.08 46.76C97.6667 47.1067 98.3467 47.28 99.12 47.28C99.92 47.28 100.607 47.1067 101.18 46.76C101.753 46.4133 102.193 45.92 102.5 45.28C102.82 44.64 102.98 43.8867 102.98 43.02V35H105.08V43.02C105.08 44.2867 104.833 45.3867 104.34 46.32C103.86 47.24 103.173 47.9533 102.28 48.46C101.387 48.9667 100.333 49.22 99.12 49.22ZM112.818 49.2C111.698 49.2 110.618 48.98 109.578 48.54C108.538 48.1 107.618 47.48 106.818 46.68L108.098 45.2C108.858 45.9467 109.631 46.5 110.418 46.86C111.218 47.22 112.051 47.4 112.918 47.4C113.598 47.4 114.191 47.3067 114.698 47.12C115.218 46.92 115.618 46.64 115.898 46.28C116.178 45.92 116.318 45.5133 116.318 45.06C116.318 44.4333 116.098 43.9533 115.658 43.62C115.218 43.2867 114.491 43.0333 113.478 42.86L111.138 42.48C109.858 42.2533 108.898 41.84 108.258 41.24C107.631 40.64 107.318 39.84 107.318 38.84C107.318 38.04 107.531 37.34 107.958 36.74C108.384 36.1267 108.984 35.6533 109.758 35.32C110.544 34.9867 111.451 34.82 112.478 34.82C113.491 34.82 114.484 34.9867 115.458 35.32C116.444 35.64 117.331 36.1067 118.118 36.72L116.958 38.32C115.451 37.1733 113.924 36.6 112.378 36.6C111.764 36.6 111.231 36.6867 110.778 36.86C110.324 37.0333 109.971 37.28 109.718 37.6C109.464 37.9067 109.338 38.2667 109.338 38.68C109.338 39.2533 109.531 39.6933 109.918 40C110.304 40.2933 110.944 40.5067 111.838 40.64L114.098 41.02C115.578 41.26 116.664 41.6933 117.358 42.32C118.051 42.9467 118.398 43.8067 118.398 44.9C118.398 45.7533 118.164 46.5067 117.698 47.16C117.231 47.8 116.578 48.3 115.738 48.66C114.898 49.02 113.924 49.2 112.818 49.2ZM122.843 47.12H125.723C126.457 47.12 127.137 46.9933 127.763 46.74C128.39 46.4733 128.937 46.1133 129.403 45.66C129.883 45.1933 130.25 44.6533 130.503 44.04C130.77 43.4133 130.903 42.7333 130.903 42C130.903 41.28 130.77 40.6067 130.503 39.98C130.25 39.3533 129.883 38.8133 129.403 38.36C128.937 37.8933 128.39 37.5333 127.763 37.28C127.137 37.0133 126.457 36.88 125.723 36.88H122.843V47.12ZM120.743 49V35H125.683C126.737 35 127.71 35.18 128.603 35.54C129.497 35.8867 130.277 36.3733 130.943 37C131.61 37.6267 132.13 38.3667 132.503 39.22C132.877 40.0733 133.063 41 133.063 42C133.063 43.0133 132.877 43.9467 132.503 44.8C132.143 45.64 131.63 46.3733 130.963 47C130.297 47.6267 129.51 48.12 128.603 48.48C127.71 48.8267 126.737 49 125.683 49H120.743Z" fill="#FFFEFF"/>
<path d="M96.032 70.132C95.328 70.132 94.712 69.952 94.184 69.592C93.656 69.224 93.24 68.716 92.936 68.068C92.64 67.412 92.492 66.656 92.492 65.8C92.492 64.944 92.64 64.192 92.936 63.544C93.24 62.888 93.656 62.38 94.184 62.02C94.712 61.652 95.328 61.468 96.032 61.468C96.728 61.468 97.34 61.652 97.868 62.02C98.396 62.38 98.808 62.888 99.104 63.544C99.408 64.192 99.56 64.944 99.56 65.8C99.56 66.656 99.408 67.412 99.104 68.068C98.808 68.716 98.396 69.224 97.868 69.592C97.34 69.952 96.728 70.132 96.032 70.132ZM96.032 69.088C96.512 69.088 96.928 68.956 97.28 68.692C97.632 68.42 97.904 68.036 98.096 67.54C98.288 67.044 98.384 66.464 98.384 65.8C98.384 65.128 98.288 64.548 98.096 64.06C97.904 63.564 97.632 63.184 97.28 62.92C96.928 62.648 96.512 62.512 96.032 62.512C95.552 62.512 95.132 62.648 94.772 62.92C94.42 63.184 94.148 63.564 93.956 64.06C93.764 64.548 93.668 65.128 93.668 65.8C93.668 66.464 93.764 67.044 93.956 67.54C94.148 68.036 94.42 68.42 94.772 68.692C95.132 68.956 95.552 69.088 96.032 69.088ZM101.486 70.084C101.278 70.084 101.098 70.012 100.946 69.868C100.802 69.716 100.73 69.536 100.73 69.328C100.73 69.12 100.802 68.944 100.946 68.8C101.098 68.648 101.278 68.572 101.486 68.572C101.694 68.572 101.87 68.648 102.014 68.8C102.166 68.944 102.242 69.12 102.242 69.328C102.242 69.536 102.166 69.716 102.014 69.868C101.87 70.012 101.694 70.084 101.486 70.084ZM106.365 61.468C107.037 61.468 107.629 61.644 108.141 61.996C108.653 62.34 109.053 62.816 109.341 63.424C109.629 64.032 109.773 64.74 109.773 65.548C109.773 66.468 109.613 67.272 109.293 67.96C108.973 68.64 108.521 69.172 107.937 69.556C107.361 69.932 106.685 70.12 105.909 70.12C105.533 70.12 105.153 70.06 104.769 69.94C104.385 69.82 104.053 69.66 103.773 69.46L104.385 68.596C104.633 68.756 104.893 68.88 105.165 68.968C105.437 69.048 105.717 69.088 106.005 69.088C106.549 69.088 107.013 68.948 107.397 68.668C107.789 68.388 108.089 67.988 108.297 67.468C108.505 66.94 108.613 66.316 108.621 65.596C108.325 65.988 107.969 66.296 107.553 66.52C107.137 66.736 106.705 66.844 106.257 66.844C105.705 66.844 105.217 66.732 104.793 66.508C104.369 66.276 104.037 65.968 103.797 65.584C103.557 65.192 103.437 64.744 103.437 64.24C103.437 63.704 103.565 63.228 103.821 62.812C104.077 62.396 104.425 62.068 104.865 61.828C105.305 61.588 105.805 61.468 106.365 61.468ZM106.425 65.92C106.841 65.92 107.233 65.824 107.601 65.632C107.977 65.432 108.301 65.164 108.573 64.828C108.509 64.348 108.377 63.932 108.177 63.58C107.985 63.228 107.737 62.956 107.433 62.764C107.129 62.564 106.785 62.464 106.401 62.464C106.057 62.464 105.745 62.54 105.465 62.692C105.193 62.844 104.977 63.052 104.817 63.316C104.665 63.58 104.589 63.88 104.589 64.216C104.589 64.544 104.665 64.84 104.817 65.104C104.977 65.36 105.197 65.56 105.477 65.704C105.757 65.848 106.073 65.92 106.425 65.92ZM110.91 70V69.16L114.318 65.536C114.55 65.296 114.73 65.08 114.858 64.888C114.986 64.696 115.074 64.516 115.122 64.348C115.178 64.172 115.206 63.988 115.206 63.796C115.206 63.42 115.054 63.108 114.75 62.86C114.446 62.612 114.062 62.488 113.598 62.488C113.214 62.488 112.854 62.564 112.518 62.716C112.182 62.868 111.81 63.132 111.402 63.508L110.754 62.716C111.202 62.3 111.662 61.988 112.134 61.78C112.614 61.572 113.11 61.468 113.622 61.468C114.158 61.468 114.63 61.564 115.038 61.756C115.446 61.948 115.762 62.216 115.986 62.56C116.218 62.896 116.334 63.284 116.334 63.724C116.334 64.004 116.298 64.264 116.226 64.504C116.154 64.736 116.03 64.984 115.854 65.248C115.678 65.504 115.43 65.8 115.11 66.136L112.374 69.016L116.502 69.004V70H110.91ZM117.806 70V69.16L121.214 65.536C121.446 65.296 121.626 65.08 121.754 64.888C121.882 64.696 121.97 64.516 122.018 64.348C122.074 64.172 122.102 63.988 122.102 63.796C122.102 63.42 121.95 63.108 121.646 62.86C121.342 62.612 120.958 62.488 120.494 62.488C120.11 62.488 119.75 62.564 119.414 62.716C119.078 62.868 118.706 63.132 118.298 63.508L117.65 62.716C118.098 62.3 118.558 61.988 119.03 61.78C119.51 61.572 120.006 61.468 120.518 61.468C121.054 61.468 121.526 61.564 121.934 61.756C122.342 61.948 122.658 62.216 122.882 62.56C123.114 62.896 123.23 63.284 123.23 63.724C123.23 64.004 123.194 64.264 123.122 64.504C123.05 64.736 122.926 64.984 122.75 65.248C122.574 65.504 122.326 65.8 122.006 66.136L119.27 69.016L123.398 69.004V70H117.806ZM125.926 70V62.836L124.414 63.472V62.416L126.358 61.6H127.114V70H125.926ZM132.147 70.12C131.475 70.12 130.883 69.948 130.371 69.604C129.859 69.26 129.459 68.784 129.171 68.176C128.883 67.56 128.739 66.848 128.739 66.04C128.739 65.12 128.899 64.32 129.219 63.64C129.539 62.952 129.987 62.42 130.563 62.044C131.147 61.66 131.827 61.468 132.603 61.468C132.987 61.468 133.367 61.528 133.743 61.648C134.127 61.76 134.459 61.924 134.739 62.14L134.127 62.992C133.879 62.832 133.619 62.712 133.347 62.632C133.083 62.552 132.803 62.512 132.507 62.512C131.963 62.512 131.495 62.652 131.103 62.932C130.719 63.204 130.423 63.6 130.215 64.12C130.007 64.64 129.899 65.268 129.891 66.004C130.187 65.612 130.543 65.308 130.959 65.092C131.375 64.868 131.807 64.756 132.255 64.756C132.807 64.756 133.295 64.868 133.719 65.092C134.143 65.308 134.475 65.612 134.715 66.004C134.955 66.396 135.075 66.844 135.075 67.348C135.075 67.876 134.947 68.352 134.691 68.776C134.435 69.192 134.087 69.52 133.647 69.76C133.207 70 132.707 70.12 132.147 70.12ZM132.087 65.68C131.671 65.68 131.275 65.776 130.899 65.968C130.531 66.16 130.211 66.424 129.939 66.76C130.011 67.232 130.143 67.648 130.335 68.008C130.535 68.36 130.787 68.636 131.091 68.836C131.395 69.028 131.735 69.124 132.111 69.124C132.463 69.124 132.775 69.048 133.047 68.896C133.319 68.744 133.531 68.536 133.683 68.272C133.843 68.008 133.923 67.708 133.923 67.372C133.923 67.044 133.843 66.752 133.683 66.496C133.531 66.24 133.315 66.04 133.035 65.896C132.763 65.752 132.447 65.68 132.087 65.68ZM139.864 70.132C139.16 70.132 138.544 69.952 138.016 69.592C137.488 69.224 137.072 68.716 136.768 68.068C136.472 67.412 136.324 66.656 136.324 65.8C136.324 64.944 136.472 64.192 136.768 63.544C137.072 62.888 137.488 62.38 138.016 62.02C138.544 61.652 139.16 61.468 139.864 61.468C140.56 61.468 141.172 61.652 141.7 62.02C142.228 62.38 142.64 62.888 142.936 63.544C143.24 64.192 143.392 64.944 143.392 65.8C143.392 66.656 143.24 67.412 142.936 68.068C142.64 68.716 142.228 69.224 141.7 69.592C141.172 69.952 140.56 70.132 139.864 70.132ZM139.864 69.088C140.344 69.088 140.76 68.956 141.112 68.692C141.464 68.42 141.736 68.036 141.928 67.54C142.12 67.044 142.216 66.464 142.216 65.8C142.216 65.128 142.12 64.548 141.928 64.06C141.736 63.564 141.464 63.184 141.112 62.92C140.76 62.648 140.344 62.512 139.864 62.512C139.384 62.512 138.964 62.648 138.604 62.92C138.252 63.184 137.98 63.564 137.788 64.06C137.596 64.548 137.5 65.128 137.5 65.8C137.5 66.464 137.596 67.044 137.788 67.54C137.98 68.036 138.252 68.42 138.604 68.692C138.964 68.956 139.384 69.088 139.864 69.088ZM144.406 70V69.16L147.814 65.536C148.046 65.296 148.226 65.08 148.354 64.888C148.482 64.696 148.57 64.516 148.618 64.348C148.674 64.172 148.702 63.988 148.702 63.796C148.702 63.42 148.55 63.108 148.246 62.86C147.942 62.612 147.558 62.488 147.094 62.488C146.71 62.488 146.35 62.564 146.014 62.716C145.678 62.868 145.306 63.132 144.898 63.508L144.25 62.716C144.698 62.3 145.158 61.988 145.63 61.78C146.11 61.572 146.606 61.468 147.118 61.468C147.654 61.468 148.126 61.564 148.534 61.756C148.942 61.948 149.258 62.216 149.482 62.56C149.714 62.896 149.83 63.284 149.83 63.724C149.83 64.004 149.794 64.264 149.722 64.504C149.65 64.736 149.526 64.984 149.35 65.248C149.174 65.504 148.926 65.8 148.606 66.136L145.87 69.016L149.998 69.004V70H144.406ZM151.303 70V69.16L154.711 65.536C154.943 65.296 155.123 65.08 155.251 64.888C155.379 64.696 155.467 64.516 155.515 64.348C155.571 64.172 155.599 63.988 155.599 63.796C155.599 63.42 155.447 63.108 155.143 62.86C154.839 62.612 154.455 62.488 153.991 62.488C153.607 62.488 153.247 62.564 152.911 62.716C152.575 62.868 152.203 63.132 151.795 63.508L151.147 62.716C151.595 62.3 152.055 61.988 152.527 61.78C153.007 61.572 153.503 61.468 154.015 61.468C154.551 61.468 155.023 61.564 155.431 61.756C155.839 61.948 156.155 62.216 156.379 62.56C156.611 62.896 156.727 63.284 156.727 63.724C156.727 64.004 156.691 64.264 156.619 64.504C156.547 64.736 156.423 64.984 156.247 65.248C156.071 65.504 155.823 65.8 155.503 66.136L152.767 69.016L156.895 69.004V70H151.303Z" fill="#8D8F93"/>
<path d="M211.852 61V52.6H215.74C216.292 52.6 216.772 52.708 217.18 52.924C217.588 53.132 217.908 53.424 218.14 53.8C218.372 54.176 218.488 54.612 218.488 55.108C218.488 55.604 218.372 56.04 218.14 56.416C217.908 56.792 217.584 57.088 217.168 57.304C216.76 57.512 216.284 57.616 215.74 57.616H213.112V61H211.852ZM213.112 56.548H215.608C216.104 56.548 216.496 56.42 216.784 56.164C217.08 55.9 217.228 55.552 217.228 55.12C217.228 54.688 217.08 54.344 216.784 54.088C216.496 53.832 216.104 53.704 215.608 53.704H213.112V56.548ZM222.142 61.108C221.542 61.108 220.998 60.968 220.51 60.688C220.03 60.408 219.646 60.028 219.358 59.548C219.078 59.068 218.938 58.532 218.938 57.94C218.938 57.356 219.074 56.828 219.346 56.356C219.618 55.876 219.986 55.496 220.45 55.216C220.914 54.928 221.43 54.784 221.998 54.784C222.566 54.784 223.07 54.928 223.51 55.216C223.95 55.496 224.298 55.88 224.554 56.368C224.818 56.848 224.95 57.392 224.95 58V58.336H220.138C220.202 58.672 220.326 58.972 220.51 59.236C220.702 59.5 220.942 59.708 221.23 59.86C221.526 60.012 221.846 60.088 222.19 60.088C222.486 60.088 222.77 60.044 223.042 59.956C223.322 59.86 223.554 59.724 223.738 59.548L224.506 60.304C224.146 60.576 223.774 60.78 223.39 60.916C223.014 61.044 222.598 61.108 222.142 61.108ZM220.15 57.436H223.762C223.714 57.116 223.602 56.836 223.426 56.596C223.258 56.348 223.046 56.156 222.79 56.02C222.542 55.876 222.27 55.804 221.974 55.804C221.67 55.804 221.39 55.872 221.134 56.008C220.878 56.144 220.662 56.336 220.486 56.584C220.318 56.824 220.206 57.108 220.15 57.436ZM226.333 61V54.892H227.533V55.672C227.725 55.384 227.961 55.16 228.241 55C228.529 54.832 228.853 54.748 229.213 54.748C229.461 54.756 229.665 54.792 229.825 54.856V55.936C229.713 55.888 229.597 55.856 229.477 55.84C229.357 55.816 229.237 55.804 229.117 55.804C228.765 55.804 228.453 55.9 228.181 56.092C227.909 56.276 227.693 56.548 227.533 56.908V61H226.333ZM233.773 61V54.892H234.973V55.48C235.429 55.008 236.001 54.772 236.689 54.772C237.105 54.772 237.473 54.864 237.793 55.048C238.121 55.232 238.381 55.48 238.573 55.792C238.829 55.456 239.129 55.204 239.473 55.036C239.817 54.86 240.205 54.772 240.637 54.772C241.093 54.772 241.489 54.872 241.825 55.072C242.169 55.272 242.437 55.552 242.629 55.912C242.829 56.272 242.929 56.688 242.929 57.16V61H241.729V57.364C241.729 56.884 241.601 56.508 241.345 56.236C241.097 55.956 240.757 55.816 240.325 55.816C240.029 55.816 239.761 55.884 239.521 56.02C239.281 56.156 239.073 56.364 238.897 56.644C238.913 56.724 238.925 56.808 238.933 56.896C238.941 56.984 238.945 57.072 238.945 57.16V61H237.757V57.364C237.757 56.884 237.629 56.508 237.373 56.236C237.125 55.956 236.785 55.816 236.353 55.816C236.065 55.816 235.805 55.88 235.573 56.008C235.341 56.128 235.141 56.312 234.973 56.56V61H233.773ZM247.453 61.12C246.861 61.12 246.321 60.98 245.833 60.7C245.353 60.42 244.973 60.04 244.693 59.56C244.413 59.08 244.273 58.544 244.273 57.952C244.273 57.36 244.413 56.824 244.693 56.344C244.973 55.864 245.353 55.484 245.833 55.204C246.321 54.916 246.861 54.772 247.453 54.772C248.053 54.772 248.593 54.916 249.073 55.204C249.553 55.484 249.933 55.864 250.213 56.344C250.493 56.824 250.633 57.36 250.633 57.952C250.633 58.544 250.493 59.08 250.213 59.56C249.933 60.04 249.553 60.42 249.073 60.7C248.593 60.98 248.053 61.12 247.453 61.12ZM247.453 60.064C247.829 60.064 248.169 59.972 248.473 59.788C248.777 59.596 249.017 59.34 249.193 59.02C249.369 58.7 249.457 58.34 249.457 57.94C249.457 57.548 249.365 57.196 249.181 56.884C249.005 56.564 248.765 56.308 248.461 56.116C248.165 55.924 247.829 55.828 247.453 55.828C247.077 55.828 246.737 55.924 246.433 56.116C246.137 56.308 245.897 56.564 245.713 56.884C245.537 57.196 245.449 57.548 245.449 57.94C245.449 58.34 245.537 58.7 245.713 59.02C245.889 59.34 246.129 59.596 246.433 59.788C246.737 59.972 247.077 60.064 247.453 60.064ZM252.007 61V54.892H253.207V55.516C253.679 55.02 254.291 54.772 255.043 54.772C255.515 54.772 255.927 54.872 256.279 55.072C256.639 55.272 256.919 55.552 257.119 55.912C257.327 56.272 257.431 56.688 257.431 57.16V61H256.231V57.364C256.231 56.884 256.095 56.508 255.823 56.236C255.559 55.956 255.187 55.816 254.707 55.816C254.387 55.816 254.099 55.884 253.843 56.02C253.587 56.156 253.375 56.352 253.207 56.608V61H252.007ZM261.496 61.108C260.904 61.108 260.452 60.972 260.14 60.7C259.828 60.42 259.672 60.016 259.672 59.488V55.9H258.376V54.892H259.672V53.332L260.86 53.044V54.892H262.66V55.9H260.86V59.212C260.86 59.524 260.928 59.748 261.064 59.884C261.208 60.012 261.44 60.076 261.76 60.076C261.928 60.076 262.076 60.064 262.204 60.04C262.34 60.016 262.484 59.98 262.636 59.932V60.94C262.476 60.996 262.288 61.036 262.072 61.06C261.864 61.092 261.672 61.108 261.496 61.108ZM263.784 61V52.6L264.984 52.336V55.516C265.456 55.02 266.068 54.772 266.82 54.772C267.292 54.772 267.704 54.872 268.056 55.072C268.416 55.272 268.696 55.552 268.896 55.912C269.104 56.272 269.208 56.688 269.208 57.16V61H268.008V57.364C268.008 56.884 267.872 56.508 267.6 56.236C267.328 55.956 266.956 55.816 266.484 55.816C266.164 55.816 265.876 55.884 265.62 56.02C265.364 56.156 265.152 56.352 264.984 56.608V61H263.784Z" fill="#8D8F93"/>
</svg>
