<svg width="262" height="53" viewBox="0 0 262 53" fill="none" xmlns="http://www.w3.org/2000/svg">
<rect width="52" height="53" rx="16" fill="#EBE2FF"/>
<rect x="70" width="52" height="53" rx="16" fill="#EBE2FF"/>
<rect x="140" width="52" height="53" rx="16" fill="#EBE2FF"/>
<rect x="210" width="52" height="53" rx="16" fill="#EBE2FF"/>
<path d="M18 28.0833V34.4167C18 34.8366 18.1532 35.2393 18.426 35.5363C18.6988 35.8332 19.0688 36 19.4545 36H32.5455C32.9312 36 33.3012 35.8332 33.574 35.5363C33.8468 35.2393 34 34.8366 34 34.4167V28.0833M26 30.4583V17.3958M30.3636 21.75L26 17L21.6364 21.75" stroke="#1C2027" stroke-width="1.5" stroke-linecap="round" stroke-linejoin="round"/>
<path d="M160.93 25.3838C160.849 25.4641 160.754 25.5278 160.649 25.5713C160.544 25.6147 160.432 25.6371 160.319 25.6371C160.205 25.6371 160.093 25.6147 159.988 25.5713C159.883 25.5278 159.788 25.4641 159.708 25.3838L156.253 21.9294C156.173 21.8492 156.109 21.754 156.066 21.6491C156.022 21.5443 156 21.4319 156 21.3184C156 21.205 156.022 21.0926 156.066 20.9877C156.109 20.8829 156.173 20.7877 156.253 20.7075L159.708 17.2531C159.788 17.1728 159.883 17.1092 159.988 17.0658C160.093 17.0223 160.205 17 160.319 17C160.432 17 160.544 17.0223 160.649 17.0658C160.754 17.1092 160.849 17.1728 160.93 17.2531C161.092 17.4151 161.183 17.6349 161.183 17.8641C161.183 17.9775 161.16 18.0899 161.117 18.1947C161.073 18.2996 161.01 18.3948 160.93 18.4751L158.949 20.4549H174.136C174.365 20.4549 174.584 20.5458 174.746 20.7078C174.908 20.8697 174.999 21.0894 174.999 21.3184C174.999 21.5475 174.908 21.7671 174.746 21.9291C174.584 22.0911 174.365 22.182 174.136 22.182H158.949L160.93 24.1618C161.01 24.242 161.074 24.3373 161.117 24.4421C161.16 24.5469 161.183 24.6593 161.183 24.7728C161.183 24.8863 161.16 24.9987 161.117 25.1035C161.074 25.2084 161.01 25.3036 160.93 25.3838ZM171.292 35.7469L174.747 32.2925C174.827 32.2123 174.891 32.1171 174.934 32.0123C174.978 31.9074 175 31.795 175 31.6816C175 31.5681 174.978 31.4557 174.934 31.3508C174.891 31.246 174.827 31.1508 174.747 31.0706L171.292 27.6162C171.13 27.4541 170.911 27.3631 170.681 27.3631C170.452 27.3631 170.233 27.4541 170.07 27.6162C169.908 27.7782 169.817 27.998 169.817 28.2272C169.817 28.4564 169.908 28.6761 170.07 28.8382L172.051 30.818H156.864C156.635 30.818 156.416 30.9089 156.254 31.0709C156.092 31.2329 156.001 31.4525 156.001 31.6816C156.001 31.9106 156.092 32.1303 156.254 32.2922C156.416 32.4542 156.635 32.5451 156.864 32.5451H172.051L170.07 34.5249C169.908 34.687 169.817 34.9068 169.817 35.1359C169.817 35.3651 169.908 35.5849 170.07 35.7469C170.233 35.909 170.452 36 170.681 36C170.911 36 171.13 35.909 171.292 35.7469Z" fill="#1C2027"/>
<path d="M232 22.8462V21.3846C232 20.2217 232.421 19.1065 233.172 18.2842C233.922 17.4619 234.939 17 236 17C237.061 17 238.078 17.4619 238.828 18.2842C239.579 19.1065 240 20.2217 240 21.3846V22.8462M228.667 22.8462C228.49 22.8462 228.32 22.9231 228.195 23.0602C228.07 23.1972 228 23.3831 228 23.5769V33.4423C228 34.8235 229.073 36 230.333 36H241.667C242.927 36 244 34.8806 244 33.4994V23.5769C244 23.3831 243.93 23.1972 243.805 23.0602C243.68 22.9231 243.51 22.8462 243.333 22.8462H228.667Z" stroke="#1C2027" stroke-width="1.5" stroke-linecap="round" stroke-linejoin="round"/>
<path d="M232 26H240" stroke="#1C2027" stroke-width="1.5" stroke-linecap="round"/>
<path d="M103.182 36.5002H89.3198C88.9334 36.4844 88.5539 36.3926 88.203 36.23C87.8521 36.0674 87.5367 35.8372 87.2749 35.5526C87.013 35.268 86.8099 34.9346 86.677 34.5713C86.5442 34.2081 86.4843 33.8223 86.5007 33.4359V30.093C86.5007 29.8714 86.5888 29.6588 86.7455 29.5021C86.9022 29.3454 87.1148 29.2573 87.3364 29.2573C87.5581 29.2573 87.7706 29.3454 87.9274 29.5021C88.0841 29.6588 88.1721 29.8714 88.1721 30.093V33.4359C88.1434 33.7668 88.243 34.096 88.4505 34.3553C88.658 34.6147 88.9573 34.7842 89.2864 34.8288H103.182C103.511 34.7842 103.81 34.6147 104.017 34.3553C104.225 34.096 104.325 33.7668 104.296 33.4359V30.093C104.296 29.8714 104.384 29.6588 104.541 29.5021C104.697 29.3454 104.91 29.2573 105.132 29.2573C105.353 29.2573 105.566 29.3454 105.723 29.5021C105.879 29.6588 105.967 29.8714 105.967 30.093V33.4359C106.001 34.2107 105.727 34.9674 105.205 35.5413C104.683 36.1151 103.956 36.4598 103.182 36.5002Z" fill="#1C2027"/>
<path d="M96.2505 30.9285C96.1407 30.929 96.0319 30.9076 95.9305 30.8655C95.8291 30.8234 95.7371 30.7615 95.66 30.6834L91.2028 26.2262C91.0552 26.0678 90.9748 25.8583 90.9786 25.6418C90.9825 25.4253 91.0702 25.2187 91.2233 25.0656C91.3764 24.9125 91.583 24.8248 91.7995 24.8209C92.016 24.8171 92.2255 24.8975 92.384 25.0451L96.2505 28.9117L100.117 25.0451C100.276 24.8975 100.485 24.8171 100.702 24.8209C100.918 24.8248 101.125 24.9125 101.278 25.0656C101.431 25.2187 101.519 25.4253 101.522 25.6418C101.526 25.8583 101.446 26.0678 101.298 26.2262L96.8411 30.6834C96.7639 30.7615 96.672 30.8234 96.5705 30.8655C96.4691 30.9076 96.3603 30.929 96.2505 30.9285Z" fill="#1C2027"/>
<path d="M96.2498 30.9286C96.029 30.9257 95.8181 30.8367 95.662 30.6806C95.5059 30.5245 95.4169 30.3136 95.4141 30.0929V17.8357C95.4141 17.6141 95.5021 17.4015 95.6588 17.2448C95.8156 17.088 96.0281 17 96.2498 17C96.4714 17 96.684 17.088 96.8407 17.2448C96.9974 17.4015 97.0855 17.6141 97.0855 17.8357V30.0929C97.0826 30.3136 96.9936 30.5245 96.8375 30.6806C96.6814 30.8367 96.4705 30.9257 96.2498 30.9286Z" fill="#1C2027"/>
</svg>
