<svg width="52" height="53" viewBox="0 0 52 53" fill="none" xmlns="http://www.w3.org/2000/svg">
<rect width="52" height="53" rx="16" fill="#CEB7FF"/>
<path d="M28.7068 25.42H23.2932C22.4637 25.42 21.6681 25.0913 21.0815 24.5062C20.495 23.9211 20.1654 23.1275 20.1654 22.3C20.1654 21.4725 20.495 20.679 21.0815 20.0939C21.6681 19.5087 22.4637 19.18 23.2932 19.18H31.9549V17.02H27.3534V13H25.188V17.02H23.2932C21.8894 17.02 20.543 17.5763 19.5504 18.5665C18.5577 19.5567 18 20.8997 18 22.3C18 23.7004 18.5577 25.0433 19.5504 26.0335C20.543 27.0237 21.8894 27.58 23.2932 27.58H28.7068C29.536 27.5809 30.3311 27.9099 30.9174 28.4948C31.5038 29.0798 31.8337 29.8728 31.8346 30.7V30.94C31.8337 31.7672 31.5038 32.5602 30.9174 33.1452C30.3311 33.7301 29.536 34.0591 28.7068 34.06H19.5439V36.22H25.188V40H27.3534V36.22H28.7068C30.1101 36.2184 31.4556 35.6616 32.4479 34.6718C33.4402 33.6819 33.9984 32.3399 34 30.94V30.7C33.9984 29.3001 33.4402 27.9581 32.4479 26.9682C31.4556 25.9784 30.1101 25.4216 28.7068 25.42Z" fill="#FFFEFF"/>
</svg>
