<svg width="382" height="143" viewBox="0 0 382 143" fill="none" xmlns="http://www.w3.org/2000/svg">
<g clip-path="url(#clip0_1_2607)">
<path fill-rule="evenodd" clip-rule="evenodd" d="M261 71.6487C277.569 71.6487 291 58.3382 291 41.9189C291 37.4332 294.2 33 298.686 33H366C374.837 33 382 40.1634 382 49V127C382 135.837 374.837 143 366 143H16C7.16345 143 0 135.837 0 127V49C0 40.1634 7.16344 33 16 33H223.314C227.8 33 231 37.4332 231 41.9189C231 58.3382 244.431 71.6487 261 71.6487Z" fill="#FFFEFF"/>
<rect x="-4.33105" y="65.6807" width="130.197" height="40" rx="4" transform="rotate(25.2544 -4.33105 65.6807)" fill="#EEEEEE"/>
<rect x="2.88525" y="18.896" width="99.9956" height="40" rx="4" transform="rotate(25.2544 2.88525 18.896)" fill="#EEEEEE"/>
<rect x="61.0654" y="1" width="53.6326" height="31.2799" rx="4" transform="rotate(25.2544 61.0654 1)" fill="#EEEEEE"/>
<rect x="82" y="98.2837" width="81" height="40" rx="4" transform="rotate(-64.7877 82 98.2837)" fill="#EEEEEE"/>
<rect x="140" y="83.2837" width="81" height="32.5056" rx="4" transform="rotate(-64.7877 140 83.2837)" fill="#EEEEEE"/>
<rect x="177" y="92.9736" width="62.9729" height="25.2713" rx="4" transform="rotate(-64.7877 177 92.9736)" fill="#EEEEEE"/>
<rect x="204.185" y="106.838" width="48.4538" height="25.2713" rx="4" transform="rotate(-64.7877 204.185 106.838)" fill="#EEEEEE"/>
<rect x="110" y="149.974" width="62.9729" height="25.2713" rx="4" transform="rotate(-64.7877 110 149.974)" fill="#EEEEEE"/>
<rect x="145" y="154.974" width="62.9729" height="56.6798" rx="4" transform="rotate(-64.7877 145 154.974)" fill="#EEEEEE"/>
<rect x="217" y="149.974" width="78.0734" height="49.6961" rx="4" transform="rotate(-64.7877 217 149.974)" fill="#EEEEEE"/>
<rect x="278" y="156.636" width="78.0734" height="49.6961" rx="4" transform="rotate(-64.7877 278 156.636)" fill="#EEEEEE"/>
<rect x="320.325" y="81.9453" width="77.3103" height="49.6961" rx="4" transform="rotate(-64.7877 320.325 81.9453)" fill="#EEEEEE"/>
<rect x="278" y="85.6768" width="78.1188" height="27.6619" rx="4" transform="rotate(-64.7877 278 85.6768)" fill="#EEEEEE"/>
<rect x="345" y="154.404" width="65.6589" height="27.6619" rx="4" transform="rotate(-64.7877 345 154.404)" fill="#EEEEEE"/>
<rect x="-14.9346" y="116" width="81" height="40" rx="4" transform="rotate(25.2544 -14.9346 116)" fill="#EEEEEE"/>
</g>
<circle cx="261" cy="42" r="35" fill="#ACEA49" stroke="#FFFEFF" stroke-width="14"/>
<path d="M260.5 29C263.285 29 265.955 30.1274 267.925 32.1341C269.894 34.1408 271 36.8625 271 39.7005C271 44.2221 267.882 49.1498 261.728 54.5363C261.385 54.8359 260.949 55.0004 260.498 55C260.047 54.9996 259.611 54.8343 259.269 54.5341L258.862 54.1741C252.98 48.9281 250 44.1211 250 39.7005C250 36.8625 251.106 34.1408 253.075 32.1341C255.045 30.1274 257.715 29 260.5 29ZM260.5 35.5849C259.429 35.5849 258.402 36.0185 257.644 36.7903C256.887 37.5621 256.462 38.609 256.462 39.7005C256.462 40.792 256.887 41.8388 257.644 42.6106C258.402 43.3824 259.429 43.816 260.5 43.816C261.571 43.816 262.598 43.3824 263.356 42.6106C264.113 41.8388 264.538 40.792 264.538 39.7005C264.538 38.609 264.113 37.5621 263.356 36.7903C262.598 36.0185 261.571 35.5849 260.5 35.5849Z" fill="#1C2027"/>
<defs>
<clipPath id="clip0_1_2607">
<rect y="33" width="382" height="110" rx="11" fill="white"/>
</clipPath>
</defs>
</svg>
