<svg width="382" height="136" viewBox="0 0 382 136" fill="none" xmlns="http://www.w3.org/2000/svg">
<rect x="0.5" y="0.5" width="381" height="135" rx="15.5" stroke="#8D8F93"/>
<circle cx="97" cy="68" r="43" fill="#DDDDDE" stroke="#FFFEFF" stroke-width="4"/>
<path d="M100.581 58.7653C100.664 59.3328 100.691 59.9072 100.661 60.48L100.663 60.46C100.663 63.5853 100.653 66.7107 100.671 69.836C101.534 70.2893 102.552 70.568 103.63 70.596H103.639L103.737 70.5973C104.399 70.5985 105.051 70.4326 105.633 70.1147L105.612 70.1253C106.231 69.7775 106.75 69.2742 107.119 68.664L107.13 68.6453C107.535 67.9573 107.81 67.1991 107.942 66.4093L107.947 66.3707C108.1 65.4406 108.148 64.4958 108.089 63.5547L108.091 63.5893C108.076 62.1316 107.766 60.6925 107.178 59.3613L107.205 59.4293C106.868 58.7131 106.41 58.062 105.851 57.5053L105.85 57.504C105.335 56.9907 104.761 56.543 104.139 56.1707L104.098 56.148C102.721 55.3601 101.261 54.7321 99.7453 54.276L99.5924 54.236C98.6037 53.916 97.6085 53.6093 96.6107 53.316C94.8668 52.816 93.1149 52.336 91.3314 52V81.8573L98.0079 84C98.0132 75.632 98.0132 67.2644 98.0079 58.8973L98.0066 58.8173C98.0066 58.3373 98.1542 57.8933 98.4073 57.528L98.4021 57.5347C98.4939 57.4157 98.6161 57.3243 98.7554 57.2702C98.8948 57.2162 99.046 57.2016 99.193 57.228L99.1877 57.2267C99.4961 57.284 99.7677 57.4173 99.9904 57.608L99.9878 57.6053C100.298 57.904 100.511 58.3027 100.576 58.7493L100.577 58.76L100.581 58.7653ZM83.147 76.4613C85.4379 75.6333 87.7276 74.796 90.0225 73.9733C90.0358 73.815 90.0393 73.6561 90.0331 73.4973V70.0453C87.1305 71.0813 84.2331 72.1293 81.3306 73.168C80.6227 73.4293 79.9043 73.6613 79.211 73.96C78.3809 74.2941 77.5878 74.7155 76.8449 75.2173L76.891 75.188C76.574 75.3922 76.3155 75.6767 76.141 76.0133L76.1357 76.0253C76.0535 76.2026 76.0077 76.3949 76.0009 76.5906C75.9941 76.7863 76.0265 76.9813 76.0961 77.164L76.0922 77.1547C76.2754 77.584 76.5588 77.94 76.9147 78.2013L76.9213 78.2067C77.5408 78.6573 78.2658 79.008 79.0475 79.2147L79.0936 79.2253C81.1342 79.932 83.4858 80.3387 85.9309 80.3387C86.0852 80.3387 86.2394 80.3373 86.3936 80.3333H86.3712C87.644 80.3036 88.9121 80.1662 90.1622 79.9227L90.0199 79.9453C90.0383 79.7507 90.0278 79.5547 90.0304 79.36V76.4347C89.0497 76.7893 88.0703 77.1507 87.0909 77.5093C86.7335 77.6562 86.3644 77.7721 85.9876 77.856L85.9389 77.8653C85.3531 77.9886 84.7563 78.0507 84.158 78.0507H84.1145C83.5767 78.0512 83.0427 77.9592 82.5354 77.7787L82.5683 77.7893C82.3754 77.7268 82.2133 77.5924 82.1149 77.4133L82.1122 77.4093C82.0912 77.3282 82.0936 77.2426 82.119 77.1628C82.1445 77.0829 82.192 77.0121 82.2559 76.9587C82.5037 76.7387 82.8016 76.5667 83.1272 76.4627L83.1443 76.4573L83.147 76.4613ZM116.344 74.2213C115.755 73.7293 115.08 73.3534 114.354 73.1133L114.311 73.1013C113.904 72.9707 113.508 72.808 113.101 72.6827C111.213 72.084 109.042 71.7387 106.792 71.7387H106.648H106.656C105.995 71.7627 105.333 71.7813 104.675 71.8587C102.672 72.0787 100.842 72.504 99.102 73.12L99.276 73.0667V77.12C101.687 76.2667 104.093 75.404 106.502 74.5493C107.287 74.2919 108.108 74.1623 108.933 74.1653H109.001H108.997L109.077 74.164C109.62 74.164 110.142 74.2587 110.627 74.432L110.594 74.4213C110.784 74.4828 110.946 74.614 111.046 74.7893L111.049 74.7933C111.07 74.8971 111.059 75.0051 111.017 75.1022C110.975 75.1993 110.904 75.2806 110.814 75.3347L110.811 75.336C110.41 75.6056 109.97 75.8094 109.506 75.94L109.473 75.948C106.09 77.1693 102.707 78.3893 99.3248 79.608C99.2536 79.6213 99.2813 79.7093 99.2747 79.76V83.5387C103.721 81.9218 108.168 80.3062 112.616 78.692C113.492 78.4013 114.211 78.1093 114.907 77.7787L114.785 77.8307C115.456 77.52 116.063 77.0865 116.577 76.552L116.578 76.5507C116.839 76.272 117 75.8947 117 75.4787V75.4627C116.979 75.2221 116.91 74.9897 116.798 74.7768C116.685 74.5639 116.531 74.3763 116.345 74.2253L116.341 74.2227L116.344 74.2213Z" fill="#0F0F0F"/>
<circle cx="158" cy="68" r="43" fill="#DDDEDE" stroke="#FFFEFF" stroke-width="4"/>
<g clip-path="url(#clip0_1_2583)">
<path d="M145.611 63.3185C145.49 62.8704 145.254 62.4618 144.927 62.1335C144.6 61.8052 144.192 61.5686 143.745 61.4474C142.11 61 135.527 61 135.527 61C135.527 61 128.945 61.0136 127.309 61.461C126.862 61.5822 126.455 61.8188 126.128 62.1471C125.8 62.4754 125.565 62.8839 125.444 63.3321C124.949 66.2474 124.757 70.6894 125.457 73.4879C125.578 73.936 125.814 74.3446 126.141 74.6729C126.469 75.0012 126.876 75.2378 127.323 75.359C128.958 75.8064 135.541 75.8064 135.541 75.8064C135.541 75.8064 142.123 75.8064 143.759 75.359C144.206 75.2378 144.613 75.0012 144.94 74.6729C145.268 74.3446 145.503 73.936 145.624 73.4879C146.146 70.5686 146.307 66.1294 145.611 63.3187" fill="#FF0000"/>
<path d="M133.432 71.5761L138.893 68.4034L133.432 65.2305V71.5761Z" fill="white"/>
<path d="M188.323 65.2982C189.04 65.2982 189.58 65.4337 189.959 65.6913C190.337 65.949 190.608 66.3558 190.77 66.9118C190.932 67.4677 191 68.2268 191 69.2031V70.7896H187.526V71.2777L187.58 72.62C187.62 72.9184 187.688 73.1353 187.796 73.2709C187.904 73.4065 188.08 73.4743 188.31 73.4743C188.621 73.4743 188.837 73.3523 188.945 73.1083C189.067 72.8642 189.121 72.4574 189.134 71.9015L190.932 72.0099C190.946 72.0913 190.946 72.1998 190.946 72.3353C190.946 73.1895 190.716 73.8269 190.243 74.2471C189.77 74.6674 189.121 74.8844 188.269 74.8844C187.242 74.8844 186.526 74.559 186.12 73.9218C185.715 73.2844 185.498 72.281 185.498 70.9387V69.2981C185.544 66.9931 185.948 65.3049 188.323 65.2982ZM163.331 65.4745V72.2675C163.331 72.6743 163.372 72.9727 163.466 73.1489C163.658 73.5259 164.156 73.4295 164.426 73.2438C164.582 73.138 164.708 72.9931 164.791 72.8236V65.4743H166.859V74.7352H165.237L165.061 73.5962H165.021C164.575 74.4504 163.912 74.8843 163.034 74.8843C161.681 74.8809 161.351 73.9036 161.272 72.911L161.267 72.841C161.257 72.6907 161.251 72.5401 161.249 72.3895V65.4745H163.331ZM173.996 65.4745V72.2675C173.996 72.6743 174.036 72.9727 174.131 73.1489C174.323 73.5259 174.82 73.4295 175.091 73.2438C175.247 73.138 175.372 72.9931 175.455 72.8236V65.4743H177.524V74.7352H175.901L175.726 73.5962H175.685C175.239 74.4504 174.577 74.8843 173.698 74.8843C172.346 74.8809 172.015 73.9036 171.936 72.911L171.931 72.841C171.922 72.6907 171.916 72.5401 171.914 72.3895V65.4745H173.996ZM157.33 65.2982C158.005 65.2982 158.56 65.4337 158.965 65.7185C159.371 66.0032 159.681 66.4372 159.871 67.0337C160.06 67.6303 160.155 68.4302 160.155 69.4201V70.7624C160.155 71.7522 160.06 72.5387 159.871 73.1352C159.681 73.732 159.384 74.1658 158.965 74.4506C158.546 74.7217 157.978 74.8708 157.276 74.8708C156.546 74.8844 155.978 74.7353 155.559 74.4641C155.14 74.1794 154.842 73.7454 154.667 73.1489C154.491 72.5523 154.41 71.7658 154.41 70.7761V69.4336C154.41 68.4437 154.505 67.6302 154.707 67.0336C154.91 66.4235 155.221 65.9895 155.654 65.7185C156.086 65.4472 156.64 65.2981 157.33 65.2981M180.768 61.583V66.4642H180.781C180.97 66.1117 181.214 65.827 181.552 65.61C181.867 65.3972 182.239 65.2839 182.619 65.2846C183.119 65.2846 183.498 65.4202 183.782 65.6777C184.066 65.949 184.268 66.3693 184.39 66.9524C184.508 67.5172 184.575 68.2984 184.579 69.2834L184.579 69.3795V70.8438C184.579 72.2132 184.404 73.2302 184.079 73.8811C183.741 74.5319 183.228 74.8574 182.525 74.8574C182.133 74.8574 181.781 74.7624 181.457 74.5862C181.17 74.4184 180.932 74.178 180.767 73.889L180.741 73.8403H180.7L180.484 74.7217H178.767V61.5831L180.768 61.583ZM172.495 62.0576V63.7387H170.441V74.7352H168.413V63.7389H166.345V62.0577L172.495 62.0576ZM150.206 62.0576L150.208 62.0627C150.227 62.1508 150.501 63.3696 150.801 64.7895L150.825 64.902L150.861 65.0721L150.885 65.1862L150.897 65.2435L150.921 65.3584L150.933 65.4159L150.956 65.5311L150.991 65.6996C151.194 66.6829 151.388 67.669 151.504 68.3761H151.558C151.669 67.7418 151.83 66.9301 152.002 66.1014L152.047 65.8849C152.07 65.7765 152.093 65.6682 152.116 65.5601L152.151 65.3924C152.385 64.2941 152.625 63.1974 152.873 62.1022L152.876 62.0847L152.883 62.0576H154.951L152.558 70.6134V74.7217H150.517V70.6268H150.504L148.138 62.0574L150.206 62.0576ZM157.289 66.7354C157.005 66.7354 156.816 66.8846 156.694 67.1965C156.573 67.5084 156.519 67.9828 156.519 68.6474V71.5354C156.519 72.2134 156.573 72.7149 156.681 73.0134C156.789 73.3117 156.992 73.4608 157.289 73.4608C157.573 73.4608 157.776 73.3117 157.897 73.0134C158.019 72.7149 158.073 72.2134 158.073 71.5354V68.6472C158.073 67.9828 158.019 67.4947 157.897 67.1964C157.776 66.8846 157.573 66.7354 157.289 66.7354ZM181.133 67.0067C180.968 67.1593 180.851 67.3474 180.781 67.5826L180.768 67.6303V72.8912C180.935 73.1759 181.173 73.3658 181.592 73.3793C181.808 73.3793 181.984 73.298 182.119 73.1353C182.254 72.9727 182.349 72.7015 182.403 72.3217C182.455 71.9573 182.482 71.4554 182.484 70.816V69.5286C182.484 68.7965 182.457 68.2406 182.417 67.8473C182.362 67.4541 182.295 67.1693 182.173 67.0067C181.938 66.6676 181.43 66.6718 181.133 67.0067ZM188.283 66.6948C188.053 66.7083 187.891 66.7761 187.796 66.8982C187.688 67.0337 187.62 67.2371 187.58 67.5354C187.54 67.8277 187.527 68.8492 187.526 68.8901V69.5558H189.04V68.9687V68.9799C189.039 69.1852 189.035 68.8609 189.025 68.4627L189.024 68.4092C189.016 68.0593 189.003 67.6691 188.986 67.5354C188.945 67.2235 188.877 67.0065 188.769 66.8846C188.661 66.7625 188.499 66.6948 188.283 66.6948" fill="#282828"/>
</g>
<circle cx="217" cy="68" r="43" fill="#DDDDDE" stroke="#FFFEFF" stroke-width="4"/>
<path d="M228.162 84.355C225.9 86.5187 223.431 86.177 221.054 85.1522C218.539 84.1045 216.231 84.059 213.577 85.1522C210.254 86.5642 208.501 86.1543 206.516 84.355C195.255 72.8993 196.916 55.4537 209.701 54.816C212.816 54.9754 214.985 56.5013 216.808 56.638C219.531 56.0914 222.139 54.5199 225.046 54.7249C228.531 54.9982 231.162 56.3647 232.892 58.8244C225.693 63.0833 227.4 72.4438 234 75.0629C232.685 78.4791 230.977 81.8726 228.139 84.3778L228.162 84.355ZM216.577 54.6793C216.231 49.6005 220.408 45.4099 225.208 45C225.877 50.8759 219.808 55.2487 216.577 54.6793Z" fill="#1C2027"/>
<circle cx="284" cy="68" r="43" fill="#1C2027" stroke="#FFFEFF" stroke-width="4"/>
<path d="M273.608 74.36V68.568H268.264V66.648H273.608V60.856H275.592V66.648H280.936V68.568H275.592V74.36H273.608ZM293.535 79.352C290.591 79.352 288.053 78.3387 285.919 76.312L287.359 74.744C288.341 75.6613 289.311 76.3333 290.271 76.76C291.253 77.1653 292.351 77.368 293.567 77.368C294.655 77.368 295.615 77.144 296.447 76.696C297.279 76.248 297.919 75.6187 298.367 74.808C298.837 73.9973 299.071 73.0693 299.071 72.024C299.071 70.5307 298.559 69.3253 297.535 68.408C296.533 67.4907 295.21 67.032 293.567 67.032C292.714 67.032 291.882 67.1387 291.071 67.352C290.261 67.544 289.418 67.864 288.543 68.312L286.943 67.8L287.455 56.6H300.191V58.616H289.439L289.087 66.36C289.941 65.9333 290.762 65.6347 291.551 65.464C292.341 65.272 293.173 65.176 294.047 65.176C295.519 65.176 296.799 65.464 297.887 66.04C298.997 66.5947 299.85 67.384 300.447 68.408C301.066 69.4107 301.375 70.584 301.375 71.928C301.375 73.4 301.045 74.6907 300.383 75.8C299.722 76.9093 298.805 77.784 297.631 78.424C296.458 79.0427 295.093 79.352 293.535 79.352Z" fill="#FFFEFF"/>
<defs>
<clipPath id="clip0_1_2583">
<rect width="66" height="15" fill="white" transform="translate(125 61)"/>
</clipPath>
</defs>
</svg>
