<svg width="822" height="296" viewBox="0 0 822 296" fill="none" xmlns="http://www.w3.org/2000/svg">
<g filter="url(#filter0_d_1_2481)">
<g clip-path="url(#clip0_1_2481)">
<rect x="10" y="10" width="802" height="276" rx="24" fill="#FFFEFF"/>
<circle cx="708" cy="51" r="20.5" stroke="#8D8F93"/>
<path d="M717.5 50.787H705.145M700.784 50.787H699M700.784 50.787C700.784 50.2088 701.014 49.6543 701.423 49.2455C701.831 48.8367 702.386 48.607 702.964 48.607C703.542 48.607 704.097 48.8367 704.505 49.2455C704.914 49.6543 705.144 50.2088 705.144 50.787C705.144 51.3652 704.914 51.9197 704.505 52.3285C704.097 52.7373 703.542 52.967 702.964 52.967C702.386 52.967 701.831 52.7373 701.423 52.3285C701.014 51.9197 700.784 51.3652 700.784 50.787ZM717.5 57.394H711.752M711.752 57.394C711.752 57.9723 711.522 58.5274 711.113 58.9363C710.704 59.3453 710.149 59.575 709.571 59.575C708.993 59.575 708.438 59.3443 708.03 58.9355C707.621 58.5267 707.391 57.9722 707.391 57.394M711.752 57.394C711.752 56.8157 711.522 56.2616 711.113 55.8527C710.704 55.4437 710.149 55.214 709.571 55.214C708.993 55.214 708.438 55.4437 708.03 55.8525C707.621 56.2613 707.391 56.8158 707.391 57.394M707.391 57.394H699M717.5 44.18H714.395M710.034 44.18H699M710.034 44.18C710.034 43.6018 710.264 43.0473 710.673 42.6385C711.081 42.2297 711.636 42 712.214 42C712.5 42 712.784 42.0564 713.048 42.1659C713.313 42.2755 713.553 42.4361 713.755 42.6385C713.958 42.8409 714.119 43.0813 714.228 43.3458C714.338 43.6102 714.394 43.8937 714.394 44.18C714.394 44.4663 714.338 44.7498 714.228 45.0143C714.119 45.2787 713.958 45.5191 713.755 45.7215C713.553 45.9239 713.313 46.0845 713.048 46.1941C712.784 46.3036 712.5 46.36 712.214 46.36C711.636 46.36 711.081 46.1303 710.673 45.7215C710.264 45.3127 710.034 44.7582 710.034 44.18Z" stroke="#8D8F93" stroke-width="1.5" stroke-miterlimit="10" stroke-linecap="round"/>
<path d="M41.62 58V52.44L35.98 44H38.42L42.72 50.58L47.02 44H49.36L43.72 52.48V58H41.62ZM53.2013 58.2C52.2146 58.2 51.3146 57.9667 50.5012 57.5C49.7012 57.0333 49.0679 56.4 48.6012 55.6C48.1346 54.8 47.9012 53.9067 47.9012 52.92C47.9012 51.9333 48.1346 51.04 48.6012 50.24C49.0679 49.44 49.7012 48.8067 50.5012 48.34C51.3146 47.86 52.2146 47.62 53.2013 47.62C54.2013 47.62 55.1012 47.86 55.9013 48.34C56.7013 48.8067 57.3346 49.44 57.8012 50.24C58.2679 51.04 58.5013 51.9333 58.5013 52.92C58.5013 53.9067 58.2679 54.8 57.8012 55.6C57.3346 56.4 56.7013 57.0333 55.9013 57.5C55.1012 57.9667 54.2013 58.2 53.2013 58.2ZM53.2013 56.44C53.8279 56.44 54.3946 56.2867 54.9012 55.98C55.4079 55.66 55.8079 55.2333 56.1012 54.7C56.3946 54.1667 56.5413 53.5667 56.5413 52.9C56.5413 52.2467 56.3879 51.66 56.0813 51.14C55.7879 50.6067 55.3879 50.18 54.8813 49.86C54.3879 49.54 53.8279 49.38 53.2013 49.38C52.5746 49.38 52.0079 49.54 51.5012 49.86C51.0079 50.18 50.6079 50.6067 50.3012 51.14C50.0079 51.66 49.8612 52.2467 49.8612 52.9C49.8612 53.5667 50.0079 54.1667 50.3012 54.7C50.5946 55.2333 50.9946 55.66 51.5012 55.98C52.0079 56.2867 52.5746 56.44 53.2013 56.44ZM64.7325 58.2C63.9458 58.2 63.2525 58.0333 62.6525 57.7C62.0525 57.3667 61.5858 56.9 61.2525 56.3C60.9192 55.6867 60.7525 54.9867 60.7525 54.2V47.82H62.7325V53.86C62.7325 54.66 62.9592 55.2933 63.4125 55.76C63.8792 56.2267 64.4992 56.46 65.2725 56.46C65.8192 56.46 66.3058 56.3467 66.7325 56.12C67.1592 55.88 67.5058 55.5467 67.7725 55.12V47.82H69.7725V58H67.7725V56.96C66.9858 57.7867 65.9725 58.2 64.7325 58.2ZM72.5402 58V47.82H74.5402V49.12C74.8602 48.64 75.2535 48.2667 75.7202 48C76.2002 47.72 76.7402 47.58 77.3402 47.58C77.7535 47.5933 78.0935 47.6533 78.3602 47.76V49.56C78.1735 49.48 77.9802 49.4267 77.7802 49.4C77.5802 49.36 77.3802 49.34 77.1802 49.34C76.5935 49.34 76.0735 49.5 75.6202 49.82C75.1668 50.1267 74.8068 50.58 74.5402 51.18V58H72.5402ZM89.8217 58.18C88.8217 58.18 87.9151 57.9467 87.1017 57.48C86.3017 57.0133 85.6617 56.38 85.1817 55.58C84.7151 54.78 84.4817 53.8867 84.4817 52.9C84.4817 51.9267 84.7084 51.0467 85.1617 50.26C85.6151 49.46 86.2284 48.8267 87.0017 48.36C87.7751 47.88 88.6351 47.64 89.5817 47.64C90.5284 47.64 91.3684 47.88 92.1017 48.36C92.8351 48.8267 93.4151 49.4667 93.8417 50.28C94.2817 51.08 94.5017 51.9867 94.5017 53V53.56H86.4817C86.5884 54.12 86.7951 54.62 87.1017 55.06C87.4217 55.5 87.8217 55.8467 88.3017 56.1C88.7951 56.3533 89.3284 56.48 89.9017 56.48C90.3951 56.48 90.8684 56.4067 91.3217 56.26C91.7884 56.1 92.1751 55.8733 92.4817 55.58L93.7617 56.84C93.1617 57.2933 92.5417 57.6333 91.9017 57.86C91.2751 58.0733 90.5817 58.18 89.8217 58.18ZM86.5017 52.06H92.5217C92.4417 51.5267 92.2551 51.06 91.9617 50.66C91.6817 50.2467 91.3284 49.9267 90.9017 49.7C90.4884 49.46 90.0351 49.34 89.5417 49.34C89.0351 49.34 88.5684 49.4533 88.1417 49.68C87.7151 49.9067 87.3551 50.2267 87.0617 50.64C86.7817 51.04 86.5951 51.5133 86.5017 52.06ZM94.9439 58L98.9039 52.78L95.1039 47.82H97.4439L100.064 51.3L102.684 47.82H104.944L101.184 52.76L105.184 58H102.844L100.024 54.24L97.2039 58H94.9439ZM106.816 62.08V47.82H108.796V48.8C109.649 48.04 110.689 47.66 111.916 47.66C112.876 47.66 113.743 47.8933 114.516 48.36C115.303 48.8267 115.923 49.4533 116.376 50.24C116.829 51.0267 117.056 51.9133 117.056 52.9C117.056 53.8867 116.823 54.78 116.356 55.58C115.903 56.3667 115.283 56.9933 114.496 57.46C113.723 57.9267 112.849 58.16 111.876 58.16C111.316 58.16 110.776 58.0733 110.256 57.9C109.736 57.7133 109.256 57.4533 108.816 57.12V62.08H106.816ZM111.656 56.42C112.309 56.42 112.889 56.2667 113.396 55.96C113.916 55.6533 114.329 55.24 114.636 54.72C114.943 54.1867 115.096 53.5867 115.096 52.92C115.096 52.2533 114.943 51.6533 114.636 51.12C114.329 50.5867 113.916 50.1667 113.396 49.86C112.889 49.5533 112.309 49.4 111.656 49.4C111.083 49.4 110.549 49.5067 110.056 49.72C109.563 49.9333 109.149 50.2333 108.816 50.62V55.22C109.149 55.5933 109.563 55.8867 110.056 56.1C110.563 56.3133 111.096 56.42 111.656 56.42ZM124.244 58.18C123.244 58.18 122.338 57.9467 121.524 57.48C120.724 57.0133 120.084 56.38 119.604 55.58C119.138 54.78 118.904 53.8867 118.904 52.9C118.904 51.9267 119.131 51.0467 119.584 50.26C120.038 49.46 120.651 48.8267 121.424 48.36C122.198 47.88 123.058 47.64 124.004 47.64C124.951 47.64 125.791 47.88 126.524 48.36C127.258 48.8267 127.838 49.4667 128.264 50.28C128.704 51.08 128.924 51.9867 128.924 53V53.56H120.904C121.011 54.12 121.218 54.62 121.524 55.06C121.844 55.5 122.244 55.8467 122.724 56.1C123.218 56.3533 123.751 56.48 124.324 56.48C124.818 56.48 125.291 56.4067 125.744 56.26C126.211 56.1 126.598 55.8733 126.904 55.58L128.184 56.84C127.584 57.2933 126.964 57.6333 126.324 57.86C125.698 58.0733 125.004 58.18 124.244 58.18ZM120.924 52.06H126.944C126.864 51.5267 126.678 51.06 126.384 50.66C126.104 50.2467 125.751 49.9267 125.324 49.7C124.911 49.46 124.458 49.34 123.964 49.34C123.458 49.34 122.991 49.4533 122.564 49.68C122.138 49.9067 121.778 50.2267 121.484 50.64C121.204 51.04 121.018 51.5133 120.924 52.06ZM131.229 58V47.82H133.229V48.86C134.016 48.0333 135.036 47.62 136.289 47.62C137.076 47.62 137.763 47.7867 138.349 48.12C138.949 48.4533 139.416 48.92 139.749 49.52C140.096 50.12 140.269 50.8133 140.269 51.6V58H138.269V51.94C138.269 51.14 138.043 50.5133 137.589 50.06C137.149 49.5933 136.529 49.36 135.729 49.36C135.196 49.36 134.716 49.4733 134.289 49.7C133.863 49.9267 133.509 50.2533 133.229 50.68V58H131.229ZM146.477 58.2C145.597 58.2 144.77 58.0733 143.997 57.82C143.237 57.5533 142.577 57.18 142.017 56.7L143.117 55.38C143.637 55.7933 144.17 56.1133 144.717 56.34C145.277 56.5533 145.844 56.66 146.417 56.66C147.137 56.66 147.724 56.52 148.177 56.24C148.63 55.96 148.857 55.5933 148.857 55.14C148.857 54.7667 148.724 54.4733 148.457 54.26C148.19 54.0467 147.777 53.9 147.217 53.82L145.377 53.56C144.364 53.4133 143.604 53.1 143.097 52.62C142.59 52.14 142.337 51.5 142.337 50.7C142.337 50.0867 142.504 49.5533 142.837 49.1C143.17 48.6333 143.637 48.2733 144.237 48.02C144.837 47.7533 145.537 47.62 146.337 47.62C147.07 47.62 147.777 47.7267 148.457 47.94C149.137 48.1533 149.79 48.4867 150.417 48.94L149.397 50.26C148.837 49.8867 148.29 49.6133 147.757 49.44C147.237 49.2667 146.71 49.18 146.177 49.18C145.564 49.18 145.07 49.3133 144.697 49.58C144.324 49.8333 144.137 50.1667 144.137 50.58C144.137 50.9533 144.264 51.2467 144.517 51.46C144.784 51.66 145.217 51.8 145.817 51.88L147.657 52.14C148.67 52.2867 149.437 52.6 149.957 53.08C150.477 53.5467 150.737 54.18 150.737 54.98C150.737 55.5933 150.55 56.1467 150.177 56.64C149.804 57.12 149.297 57.5 148.657 57.78C148.017 58.06 147.29 58.2 146.477 58.2ZM157.651 58.18C156.651 58.18 155.745 57.9467 154.931 57.48C154.131 57.0133 153.491 56.38 153.011 55.58C152.545 54.78 152.311 53.8867 152.311 52.9C152.311 51.9267 152.538 51.0467 152.991 50.26C153.445 49.46 154.058 48.8267 154.831 48.36C155.605 47.88 156.465 47.64 157.411 47.64C158.358 47.64 159.198 47.88 159.931 48.36C160.665 48.8267 161.245 49.4667 161.671 50.28C162.111 51.08 162.331 51.9867 162.331 53V53.56H154.311C154.418 54.12 154.625 54.62 154.931 55.06C155.251 55.5 155.651 55.8467 156.131 56.1C156.625 56.3533 157.158 56.48 157.731 56.48C158.225 56.48 158.698 56.4067 159.151 56.26C159.618 56.1 160.005 55.8733 160.311 55.58L161.591 56.84C160.991 57.2933 160.371 57.6333 159.731 57.86C159.105 58.0733 158.411 58.18 157.651 58.18ZM154.331 52.06H160.351C160.271 51.5267 160.085 51.06 159.791 50.66C159.511 50.2467 159.158 49.9267 158.731 49.7C158.318 49.46 157.865 49.34 157.371 49.34C156.865 49.34 156.398 49.4533 155.971 49.68C155.545 49.9067 155.185 50.2267 154.891 50.64C154.611 51.04 154.425 51.5133 154.331 52.06ZM168.234 58.2C167.354 58.2 166.527 58.0733 165.754 57.82C164.994 57.5533 164.334 57.18 163.774 56.7L164.874 55.38C165.394 55.7933 165.927 56.1133 166.474 56.34C167.034 56.5533 167.601 56.66 168.174 56.66C168.894 56.66 169.481 56.52 169.934 56.24C170.387 55.96 170.614 55.5933 170.614 55.14C170.614 54.7667 170.481 54.4733 170.214 54.26C169.947 54.0467 169.534 53.9 168.974 53.82L167.134 53.56C166.121 53.4133 165.361 53.1 164.854 52.62C164.347 52.14 164.094 51.5 164.094 50.7C164.094 50.0867 164.261 49.5533 164.594 49.1C164.927 48.6333 165.394 48.2733 165.994 48.02C166.594 47.7533 167.294 47.62 168.094 47.62C168.827 47.62 169.534 47.7267 170.214 47.94C170.894 48.1533 171.547 48.4867 172.174 48.94L171.154 50.26C170.594 49.8867 170.047 49.6133 169.514 49.44C168.994 49.2667 168.467 49.18 167.934 49.18C167.321 49.18 166.827 49.3133 166.454 49.58C166.081 49.8333 165.894 50.1667 165.894 50.58C165.894 50.9533 166.021 51.2467 166.274 51.46C166.541 51.66 166.974 51.8 167.574 51.88L169.414 52.14C170.427 52.2867 171.194 52.6 171.714 53.08C172.234 53.5467 172.494 54.18 172.494 54.98C172.494 55.5933 172.307 56.1467 171.934 56.64C171.561 57.12 171.054 57.5 170.414 57.78C169.774 58.06 169.047 58.2 168.234 58.2ZM183.37 58.18C182.384 58.18 181.63 57.9533 181.11 57.5C180.59 57.0333 180.33 56.36 180.33 55.48V49.5H178.17V47.82H180.33V45.22L182.31 44.74V47.82H185.31V49.5H182.31V55.02C182.31 55.54 182.424 55.9133 182.65 56.14C182.89 56.3533 183.277 56.46 183.81 56.46C184.09 56.46 184.337 56.44 184.55 56.4C184.777 56.36 185.017 56.3 185.27 56.22V57.9C185.004 57.9933 184.69 58.06 184.33 58.1C183.984 58.1533 183.664 58.18 183.37 58.18ZM187.184 58V44L189.184 43.56V48.86C189.971 48.0333 190.991 47.62 192.244 47.62C193.031 47.62 193.717 47.7867 194.304 48.12C194.904 48.4533 195.371 48.92 195.704 49.52C196.051 50.12 196.224 50.8133 196.224 51.6V58H194.224V51.94C194.224 51.14 193.997 50.5133 193.544 50.06C193.091 49.5933 192.471 49.36 191.684 49.36C191.151 49.36 190.671 49.4733 190.244 49.7C189.817 49.9267 189.464 50.2533 189.184 50.68V58H187.184ZM198.932 58V47.82H200.932V58H198.932ZM199.932 46.18C199.598 46.18 199.312 46.06 199.072 45.82C198.832 45.5667 198.712 45.2733 198.712 44.94C198.712 44.5933 198.832 44.3067 199.072 44.08C199.312 43.84 199.598 43.72 199.932 43.72C200.278 43.72 200.572 43.84 200.812 44.08C201.052 44.3067 201.172 44.5933 201.172 44.94C201.172 45.2733 201.052 45.5667 200.812 45.82C200.572 46.06 200.278 46.18 199.932 46.18ZM207.187 58.2C206.307 58.2 205.48 58.0733 204.707 57.82C203.947 57.5533 203.287 57.18 202.727 56.7L203.827 55.38C204.347 55.7933 204.88 56.1133 205.427 56.34C205.987 56.5533 206.554 56.66 207.127 56.66C207.847 56.66 208.434 56.52 208.887 56.24C209.34 55.96 209.567 55.5933 209.567 55.14C209.567 54.7667 209.434 54.4733 209.167 54.26C208.9 54.0467 208.487 53.9 207.927 53.82L206.087 53.56C205.074 53.4133 204.314 53.1 203.807 52.62C203.3 52.14 203.047 51.5 203.047 50.7C203.047 50.0867 203.214 49.5533 203.547 49.1C203.88 48.6333 204.347 48.2733 204.947 48.02C205.547 47.7533 206.247 47.62 207.047 47.62C207.78 47.62 208.487 47.7267 209.167 47.94C209.847 48.1533 210.5 48.4867 211.127 48.94L210.107 50.26C209.547 49.8867 209 49.6133 208.467 49.44C207.947 49.2667 207.42 49.18 206.887 49.18C206.274 49.18 205.78 49.3133 205.407 49.58C205.034 49.8333 204.847 50.1667 204.847 50.58C204.847 50.9533 204.974 51.2467 205.227 51.46C205.494 51.66 205.927 51.8 206.527 51.88L208.367 52.14C209.38 52.2867 210.147 52.6 210.667 53.08C211.187 53.5467 211.447 54.18 211.447 54.98C211.447 55.5933 211.26 56.1467 210.887 56.64C210.514 57.12 210.007 57.5 209.367 57.78C208.727 58.06 208 58.2 207.187 58.2ZM218.644 62.3C218.43 62.3 218.23 62.2867 218.044 62.26C217.857 62.2467 217.704 62.22 217.584 62.18V60.42C217.824 60.4733 218.117 60.5 218.464 60.5C219.397 60.5 220.07 60 220.484 59L220.924 58.02L216.844 47.82H219.064L222.024 55.58L225.304 47.82H227.464L222.544 59.26C222.224 59.98 221.884 60.56 221.524 61C221.164 61.4533 220.75 61.78 220.284 61.98C219.817 62.1933 219.27 62.3 218.644 62.3ZM233.693 58.18C232.693 58.18 231.786 57.9467 230.973 57.48C230.173 57.0133 229.533 56.38 229.053 55.58C228.586 54.78 228.353 53.8867 228.353 52.9C228.353 51.9267 228.579 51.0467 229.033 50.26C229.486 49.46 230.099 48.8267 230.873 48.36C231.646 47.88 232.506 47.64 233.453 47.64C234.399 47.64 235.239 47.88 235.973 48.36C236.706 48.8267 237.286 49.4667 237.713 50.28C238.153 51.08 238.373 51.9867 238.373 53V53.56H230.353C230.459 54.12 230.666 54.62 230.973 55.06C231.293 55.5 231.693 55.8467 232.173 56.1C232.666 56.3533 233.199 56.48 233.773 56.48C234.266 56.48 234.739 56.4067 235.193 56.26C235.659 56.1 236.046 55.8733 236.353 55.58L237.633 56.84C237.033 57.2933 236.413 57.6333 235.773 57.86C235.146 58.0733 234.453 58.18 233.693 58.18ZM230.373 52.06H236.393C236.313 51.5267 236.126 51.06 235.833 50.66C235.553 50.2467 235.199 49.9267 234.773 49.7C234.359 49.46 233.906 49.34 233.413 49.34C232.906 49.34 232.439 49.4533 232.013 49.68C231.586 49.9067 231.226 50.2267 230.933 50.64C230.653 51.04 230.466 51.5133 230.373 52.06ZM243.761 58.18C243.028 58.18 242.381 58.0533 241.821 57.8C241.261 57.5333 240.821 57.1667 240.501 56.7C240.181 56.2333 240.021 55.6933 240.021 55.08C240.021 54.12 240.388 53.3667 241.121 52.82C241.854 52.26 242.861 51.98 244.141 51.98C245.141 51.98 246.068 52.1733 246.921 52.56V51.48C246.921 50.7467 246.708 50.2 246.281 49.84C245.868 49.48 245.254 49.3 244.441 49.3C243.974 49.3 243.488 49.3733 242.981 49.52C242.474 49.6533 241.908 49.8667 241.281 50.16L240.541 48.66C241.314 48.3 242.034 48.04 242.701 47.88C243.368 47.7067 244.041 47.62 244.721 47.62C246.041 47.62 247.061 47.9333 247.781 48.56C248.514 49.1867 248.881 50.08 248.881 51.24V58H246.921V57.12C246.468 57.48 245.981 57.7467 245.461 57.92C244.941 58.0933 244.374 58.18 243.761 58.18ZM241.941 55.04C241.941 55.5333 242.148 55.9333 242.561 56.24C242.988 56.5467 243.541 56.7 244.221 56.7C244.754 56.7 245.241 56.62 245.681 56.46C246.134 56.3 246.548 56.0533 246.921 55.72V54C246.534 53.7733 246.128 53.6133 245.701 53.52C245.288 53.4133 244.821 53.36 244.301 53.36C243.568 53.36 242.988 53.5133 242.561 53.82C242.148 54.1133 241.941 54.52 241.941 55.04ZM251.585 58V47.82H253.585V49.12C253.905 48.64 254.299 48.2667 254.765 48C255.245 47.72 255.785 47.58 256.385 47.58C256.799 47.5933 257.139 47.6533 257.405 47.76V49.56C257.219 49.48 257.025 49.4267 256.825 49.4C256.625 49.36 256.425 49.34 256.225 49.34C255.639 49.34 255.119 49.5 254.665 49.82C254.212 50.1267 253.852 50.58 253.585 51.18V58H251.585Z" fill="#1C2027"/>
<path d="M-3 183.295C13.6176 152.519 53.9897 93.1476 82.537 101.864C118.221 112.76 107.726 169.532 165.975 183.295C224.224 197.058 211.105 120.788 249.413 116.774C287.721 112.76 293.493 174.119 335.475 178.707C377.456 183.295 372.733 116.774 426.259 116.774C479.785 116.774 496.578 135.125 520.192 156.916L520.514 157.213C543.822 178.722 545.554 180.32 583.164 156.916C613.391 138.106 643.5 133.404 669.226 133.404C694.952 133.404 671.01 178.019 734.822 191.323C795.083 203.887 811.103 163.23 811.963 137.738V133.404C812.011 134.787 812.013 136.236 811.963 137.738V302L-3 293.972V183.295Z" fill="#F3EEFD"/>
<path d="M10 183.339C16.6044 174.476 38.0829 164.368 71.1622 194.837C78.3409 199.388 97.5222 204.753 116.818 189.806C140.939 171.123 135.77 211.364 160.752 207.771C185.734 204.178 188.318 148.128 213.3 151.721C238.281 155.314 227.083 179.028 253.787 175.435C275.129 167 269.121 151.577 292.552 159.625C321.841 169.686 325.287 151.721 358.021 151.721C390.756 151.721 395.925 171.842 429.521 169.686C463.117 167.53 447.611 151.721 474.316 151.721C501.02 151.721 487.237 163.937 524.279 169.686C561.321 175.435 539.785 157.469 575.966 151.721C612.146 145.972 601.809 163.218 636.266 163.937C670.724 164.656 659.525 133.756 687.091 133.037C714.657 132.319 693.121 145.972 719.826 145.253C746.531 144.535 730.163 107.168 770.651 93.5142C780.414 90.8793 802.352 88.0528 812 97.8258" stroke="#B99FEF" stroke-width="2"/>
<rect x="30.25" y="231.25" width="56.5" height="28.5" rx="14.25" stroke="#1C2027" stroke-width="0.5"/>
<path d="M47.962 240.862C47.662 240.862 47.404 240.754 47.188 240.538C46.972 240.31 46.864 240.046 46.864 239.746C46.864 239.434 46.972 239.176 47.188 238.972C47.404 238.756 47.662 238.648 47.962 238.648C48.274 238.648 48.538 238.756 48.754 238.972C48.97 239.176 49.078 239.434 49.078 239.746C49.078 240.046 48.97 240.31 48.754 240.538C48.538 240.754 48.274 240.862 47.962 240.862ZM46.252 255.352C46.06 255.352 45.874 255.334 45.694 255.298C45.502 255.274 45.346 255.25 45.226 255.226V253.786C45.43 253.834 45.67 253.858 45.946 253.858C46.342 253.858 46.624 253.768 46.792 253.588C46.972 253.42 47.062 253.138 47.062 252.742V242.338H48.862V252.868C48.862 253.66 48.634 254.272 48.178 254.704C47.734 255.136 47.092 255.352 46.252 255.352ZM54.2399 251.662C53.5799 251.662 52.9979 251.548 52.4939 251.32C51.9899 251.08 51.5939 250.75 51.3059 250.33C51.0179 249.91 50.8739 249.424 50.8739 248.872C50.8739 248.008 51.2039 247.33 51.8639 246.838C52.5239 246.334 53.4299 246.082 54.5819 246.082C55.4819 246.082 56.3159 246.256 57.0839 246.604V245.632C57.0839 244.972 56.8919 244.48 56.5079 244.156C56.1359 243.832 55.5839 243.67 54.8519 243.67C54.4319 243.67 53.9939 243.736 53.5379 243.868C53.0819 243.988 52.5719 244.18 52.0079 244.444L51.3419 243.094C52.0379 242.77 52.6859 242.536 53.2859 242.392C53.8859 242.236 54.4919 242.158 55.1039 242.158C56.2919 242.158 57.2099 242.44 57.8579 243.004C58.5179 243.568 58.8479 244.372 58.8479 245.416V251.5H57.0839V250.708C56.6759 251.032 56.2379 251.272 55.7699 251.428C55.3019 251.584 54.7919 251.662 54.2399 251.662ZM52.6019 248.836C52.6019 249.28 52.7879 249.64 53.1599 249.916C53.5439 250.18 54.0419 250.312 54.6539 250.312C55.1339 250.312 55.5719 250.246 55.9679 250.114C56.3759 249.97 56.7479 249.748 57.0839 249.448V247.9C56.7359 247.696 56.3699 247.552 55.9859 247.468C55.6139 247.372 55.1939 247.324 54.7259 247.324C54.0659 247.324 53.5439 247.462 53.1599 247.738C52.7879 248.002 52.6019 248.368 52.6019 248.836ZM61.282 251.5V242.338H63.082V243.274C63.79 242.53 64.708 242.158 65.836 242.158C66.544 242.158 67.162 242.308 67.69 242.608C68.23 242.908 68.65 243.328 68.95 243.868C69.262 244.408 69.418 245.032 69.418 245.74V251.5H67.618V246.046C67.618 245.326 67.414 244.762 67.006 244.354C66.61 243.934 66.052 243.724 65.332 243.724C64.852 243.724 64.42 243.826 64.036 244.03C63.652 244.234 63.334 244.528 63.082 244.912V251.5H61.282Z" fill="#1C2027"/>
<rect x="113.25" y="231.25" width="60.5" height="28.5" rx="14.25" stroke="#1C2027" stroke-width="0.5"/>
<path d="M131.43 251.5V243.85H129.306V242.338H131.43V240.952C131.43 239.992 131.694 239.26 132.222 238.756C132.762 238.252 133.53 238 134.526 238C134.778 238 135.012 238.018 135.228 238.054C135.456 238.078 135.66 238.12 135.84 238.18V239.728C135.624 239.668 135.432 239.626 135.264 239.602C135.096 239.566 134.91 239.548 134.706 239.548C134.202 239.548 133.824 239.668 133.572 239.908C133.332 240.136 133.212 240.502 133.212 241.006V242.338H135.84V243.85H133.212V251.5H131.43ZM141.546 251.662C140.646 251.662 139.83 251.452 139.098 251.032C138.378 250.612 137.802 250.042 137.37 249.322C136.95 248.602 136.74 247.798 136.74 246.91C136.74 246.034 136.944 245.242 137.352 244.534C137.76 243.814 138.312 243.244 139.008 242.824C139.704 242.392 140.478 242.176 141.33 242.176C142.182 242.176 142.938 242.392 143.598 242.824C144.258 243.244 144.78 243.82 145.164 244.552C145.56 245.272 145.758 246.088 145.758 247V247.504H138.54C138.636 248.008 138.822 248.458 139.098 248.854C139.386 249.25 139.746 249.562 140.178 249.79C140.622 250.018 141.102 250.132 141.618 250.132C142.062 250.132 142.488 250.066 142.896 249.934C143.316 249.79 143.664 249.586 143.94 249.322L145.092 250.456C144.552 250.864 143.994 251.17 143.418 251.374C142.854 251.566 142.23 251.662 141.546 251.662ZM138.558 246.154H143.976C143.904 245.674 143.736 245.254 143.472 244.894C143.22 244.522 142.902 244.234 142.518 244.03C142.146 243.814 141.738 243.706 141.294 243.706C140.838 243.706 140.418 243.808 140.034 244.012C139.65 244.216 139.326 244.504 139.062 244.876C138.81 245.236 138.642 245.662 138.558 246.154ZM147.833 251.5V238.9L149.633 238.558V243.202C150.401 242.53 151.331 242.194 152.423 242.194C153.287 242.194 154.067 242.404 154.763 242.824C155.471 243.244 156.029 243.808 156.437 244.516C156.845 245.224 157.049 246.022 157.049 246.91C157.049 247.798 156.839 248.602 156.419 249.322C156.011 250.03 155.453 250.594 154.745 251.014C154.049 251.434 153.263 251.644 152.387 251.644C151.883 251.644 151.391 251.566 150.911 251.41C150.443 251.242 150.011 251.008 149.615 250.708V251.5H147.833ZM152.189 250.078C152.777 250.078 153.299 249.94 153.755 249.664C154.223 249.388 154.595 249.016 154.871 248.548C155.147 248.068 155.285 247.528 155.285 246.928C155.285 246.328 155.147 245.788 154.871 245.308C154.595 244.828 154.223 244.45 153.755 244.174C153.299 243.898 152.777 243.76 152.189 243.76C151.673 243.76 151.193 243.856 150.749 244.048C150.305 244.24 149.933 244.51 149.633 244.858V248.998C149.933 249.334 150.305 249.598 150.749 249.79C151.205 249.982 151.685 250.078 152.189 250.078Z" fill="#1C2027"/>
<rect x="200.25" y="231.25" width="64.5" height="28.5" rx="14.25" stroke="#1C2027" stroke-width="0.5"/>
<path d="M217.062 251.5V242.338H218.862V243.22C219.546 242.512 220.404 242.158 221.436 242.158C222.06 242.158 222.612 242.296 223.092 242.572C223.584 242.848 223.974 243.22 224.262 243.688C224.646 243.184 225.096 242.806 225.612 242.554C226.128 242.29 226.71 242.158 227.358 242.158C228.042 242.158 228.636 242.308 229.14 242.608C229.656 242.908 230.058 243.328 230.346 243.868C230.646 244.408 230.796 245.032 230.796 245.74V251.5H228.996V246.046C228.996 245.326 228.804 244.762 228.42 244.354C228.048 243.934 227.538 243.724 226.89 243.724C226.446 243.724 226.044 243.826 225.684 244.03C225.324 244.234 225.012 244.546 224.748 244.966C224.772 245.086 224.79 245.212 224.802 245.344C224.814 245.476 224.82 245.608 224.82 245.74V251.5H223.038V246.046C223.038 245.326 222.846 244.762 222.462 244.354C222.09 243.934 221.58 243.724 220.932 243.724C220.5 243.724 220.11 243.82 219.762 244.012C219.414 244.192 219.114 244.468 218.862 244.84V251.5H217.062ZM236.123 251.662C235.463 251.662 234.881 251.548 234.377 251.32C233.873 251.08 233.477 250.75 233.189 250.33C232.901 249.91 232.757 249.424 232.757 248.872C232.757 248.008 233.087 247.33 233.747 246.838C234.407 246.334 235.313 246.082 236.465 246.082C237.365 246.082 238.199 246.256 238.967 246.604V245.632C238.967 244.972 238.775 244.48 238.391 244.156C238.019 243.832 237.467 243.67 236.735 243.67C236.315 243.67 235.877 243.736 235.421 243.868C234.965 243.988 234.455 244.18 233.891 244.444L233.225 243.094C233.921 242.77 234.569 242.536 235.169 242.392C235.769 242.236 236.375 242.158 236.987 242.158C238.175 242.158 239.093 242.44 239.741 243.004C240.401 243.568 240.731 244.372 240.731 245.416V251.5H238.967V250.708C238.559 251.032 238.121 251.272 237.653 251.428C237.185 251.584 236.675 251.662 236.123 251.662ZM234.485 248.836C234.485 249.28 234.671 249.64 235.043 249.916C235.427 250.18 235.925 250.312 236.537 250.312C237.017 250.312 237.455 250.246 237.851 250.114C238.259 249.97 238.631 249.748 238.967 249.448V247.9C238.619 247.696 238.253 247.552 237.869 247.468C237.497 247.372 237.077 247.324 236.609 247.324C235.949 247.324 235.427 247.462 235.043 247.738C234.671 248.002 234.485 248.368 234.485 248.836ZM243.165 251.5V242.338H244.965V243.508C245.253 243.076 245.607 242.74 246.027 242.5C246.459 242.248 246.945 242.122 247.485 242.122C247.857 242.134 248.163 242.188 248.403 242.284V243.904C248.235 243.832 248.061 243.784 247.881 243.76C247.701 243.724 247.521 243.706 247.341 243.706C246.813 243.706 246.345 243.85 245.937 244.138C245.529 244.414 245.205 244.822 244.965 245.362V251.5H243.165Z" fill="#1C2027"/>
<rect x="291.25" y="231.25" width="59.5" height="28.5" rx="14.25" stroke="#1C2027" stroke-width="0.5"/>
<path d="M310.96 251.662C310.3 251.662 309.718 251.548 309.214 251.32C308.71 251.08 308.314 250.75 308.026 250.33C307.738 249.91 307.594 249.424 307.594 248.872C307.594 248.008 307.924 247.33 308.584 246.838C309.244 246.334 310.15 246.082 311.302 246.082C312.202 246.082 313.036 246.256 313.804 246.604V245.632C313.804 244.972 313.612 244.48 313.228 244.156C312.856 243.832 312.304 243.67 311.572 243.67C311.152 243.67 310.714 243.736 310.258 243.868C309.802 243.988 309.292 244.18 308.728 244.444L308.062 243.094C308.758 242.77 309.406 242.536 310.006 242.392C310.606 242.236 311.212 242.158 311.824 242.158C313.012 242.158 313.93 242.44 314.578 243.004C315.238 243.568 315.568 244.372 315.568 245.416V251.5H313.804V250.708C313.396 251.032 312.958 251.272 312.49 251.428C312.022 251.584 311.512 251.662 310.96 251.662ZM309.322 248.836C309.322 249.28 309.508 249.64 309.88 249.916C310.264 250.18 310.762 250.312 311.374 250.312C311.854 250.312 312.292 250.246 312.688 250.114C313.096 249.97 313.468 249.748 313.804 249.448V247.9C313.456 247.696 313.09 247.552 312.706 247.468C312.334 247.372 311.914 247.324 311.446 247.324C310.786 247.324 310.264 247.462 309.88 247.738C309.508 248.002 309.322 248.368 309.322 248.836ZM318.002 255.172V242.338H319.784V243.22C320.552 242.536 321.488 242.194 322.592 242.194C323.456 242.194 324.236 242.404 324.932 242.824C325.64 243.244 326.198 243.808 326.606 244.516C327.014 245.224 327.218 246.022 327.218 246.91C327.218 247.798 327.008 248.602 326.588 249.322C326.18 250.03 325.622 250.594 324.914 251.014C324.218 251.434 323.432 251.644 322.556 251.644C322.052 251.644 321.566 251.566 321.098 251.41C320.63 251.242 320.198 251.008 319.802 250.708V255.172H318.002ZM322.358 250.078C322.946 250.078 323.468 249.94 323.924 249.664C324.392 249.388 324.764 249.016 325.04 248.548C325.316 248.068 325.454 247.528 325.454 246.928C325.454 246.328 325.316 245.788 325.04 245.308C324.764 244.828 324.392 244.45 323.924 244.174C323.468 243.898 322.946 243.76 322.358 243.76C321.842 243.76 321.362 243.856 320.918 244.048C320.474 244.24 320.102 244.51 319.802 244.858V248.998C320.102 249.334 320.474 249.598 320.918 249.79C321.374 249.982 321.854 250.078 322.358 250.078ZM329.296 251.5V242.338H331.096V243.508C331.384 243.076 331.738 242.74 332.158 242.5C332.59 242.248 333.076 242.122 333.616 242.122C333.988 242.134 334.294 242.188 334.534 242.284V243.904C334.366 243.832 334.192 243.784 334.012 243.76C333.832 243.724 333.652 243.706 333.472 243.706C332.944 243.706 332.476 243.85 332.068 244.138C331.66 244.414 331.336 244.822 331.096 245.362V251.5H329.296Z" fill="#1C2027"/>
<rect x="377" y="231" width="68" height="29" rx="14.5" fill="#5E1EE5"/>
<path d="M394.062 251.5V242.338H395.862V243.22C396.546 242.512 397.404 242.158 398.436 242.158C399.06 242.158 399.612 242.296 400.092 242.572C400.584 242.848 400.974 243.22 401.262 243.688C401.646 243.184 402.096 242.806 402.612 242.554C403.128 242.29 403.71 242.158 404.358 242.158C405.042 242.158 405.636 242.308 406.14 242.608C406.656 242.908 407.058 243.328 407.346 243.868C407.646 244.408 407.796 245.032 407.796 245.74V251.5H405.996V246.046C405.996 245.326 405.804 244.762 405.42 244.354C405.048 243.934 404.538 243.724 403.89 243.724C403.446 243.724 403.044 243.826 402.684 244.03C402.324 244.234 402.012 244.546 401.748 244.966C401.772 245.086 401.79 245.212 401.802 245.344C401.814 245.476 401.82 245.608 401.82 245.74V251.5H400.038V246.046C400.038 245.326 399.846 244.762 399.462 244.354C399.09 243.934 398.58 243.724 397.932 243.724C397.5 243.724 397.11 243.82 396.762 244.012C396.414 244.192 396.114 244.468 395.862 244.84V251.5H394.062ZM413.123 251.662C412.463 251.662 411.881 251.548 411.377 251.32C410.873 251.08 410.477 250.75 410.189 250.33C409.901 249.91 409.757 249.424 409.757 248.872C409.757 248.008 410.087 247.33 410.747 246.838C411.407 246.334 412.313 246.082 413.465 246.082C414.365 246.082 415.199 246.256 415.967 246.604V245.632C415.967 244.972 415.775 244.48 415.391 244.156C415.019 243.832 414.467 243.67 413.735 243.67C413.315 243.67 412.877 243.736 412.421 243.868C411.965 243.988 411.455 244.18 410.891 244.444L410.225 243.094C410.921 242.77 411.569 242.536 412.169 242.392C412.769 242.236 413.375 242.158 413.987 242.158C415.175 242.158 416.093 242.44 416.741 243.004C417.401 243.568 417.731 244.372 417.731 245.416V251.5H415.967V250.708C415.559 251.032 415.121 251.272 414.653 251.428C414.185 251.584 413.675 251.662 413.123 251.662ZM411.485 248.836C411.485 249.28 411.671 249.64 412.043 249.916C412.427 250.18 412.925 250.312 413.537 250.312C414.017 250.312 414.455 250.246 414.851 250.114C415.259 249.97 415.631 249.748 415.967 249.448V247.9C415.619 247.696 415.253 247.552 414.869 247.468C414.497 247.372 414.077 247.324 413.609 247.324C412.949 247.324 412.427 247.462 412.043 247.738C411.671 248.002 411.485 248.368 411.485 248.836ZM420.601 255.37C420.409 255.37 420.229 255.358 420.061 255.334C419.893 255.322 419.755 255.298 419.647 255.262V253.678C419.863 253.726 420.127 253.75 420.439 253.75C421.279 253.75 421.885 253.3 422.257 252.4L422.653 251.518L418.981 242.338H420.979L423.643 249.322L426.595 242.338H428.539L424.111 252.634C423.823 253.282 423.517 253.804 423.193 254.2C422.869 254.608 422.497 254.902 422.077 255.082C421.657 255.274 421.165 255.37 420.601 255.37Z" fill="#FFFEFF"/>
<rect x="471.25" y="231.25" width="57.5" height="28.5" rx="14.25" stroke="#1C2027" stroke-width="0.5"/>
<path d="M488.962 240.862C488.662 240.862 488.404 240.754 488.188 240.538C487.972 240.31 487.864 240.046 487.864 239.746C487.864 239.434 487.972 239.176 488.188 238.972C488.404 238.756 488.662 238.648 488.962 238.648C489.274 238.648 489.538 238.756 489.754 238.972C489.97 239.176 490.078 239.434 490.078 239.746C490.078 240.046 489.97 240.31 489.754 240.538C489.538 240.754 489.274 240.862 488.962 240.862ZM487.252 255.352C487.06 255.352 486.874 255.334 486.694 255.298C486.502 255.274 486.346 255.25 486.226 255.226V253.786C486.43 253.834 486.67 253.858 486.946 253.858C487.342 253.858 487.624 253.768 487.792 253.588C487.972 253.42 488.062 253.138 488.062 252.742V242.338H489.862V252.868C489.862 253.66 489.634 254.272 489.178 254.704C488.734 255.136 488.092 255.352 487.252 255.352ZM495.888 251.68C495.18 251.68 494.556 251.53 494.016 251.23C493.476 250.93 493.056 250.51 492.756 249.97C492.456 249.418 492.306 248.788 492.306 248.08V242.338H494.088V247.774C494.088 248.494 494.292 249.064 494.7 249.484C495.12 249.904 495.678 250.114 496.374 250.114C496.866 250.114 497.304 250.012 497.688 249.808C498.072 249.592 498.384 249.292 498.624 248.908V242.338H500.424V251.5H498.624V250.564C497.916 251.308 497.004 251.68 495.888 251.68ZM502.915 251.5V242.338H504.715V243.274C505.423 242.53 506.341 242.158 507.469 242.158C508.177 242.158 508.795 242.308 509.323 242.608C509.863 242.908 510.283 243.328 510.583 243.868C510.895 244.408 511.051 245.032 511.051 245.74V251.5H509.251V246.046C509.251 245.326 509.047 244.762 508.639 244.354C508.243 243.934 507.685 243.724 506.965 243.724C506.485 243.724 506.053 243.826 505.669 244.03C505.285 244.234 504.967 244.528 504.715 244.912V251.5H502.915Z" fill="#1C2027"/>
<rect x="555.25" y="231.25" width="50.5" height="28.5" rx="14.25" stroke="#1C2027" stroke-width="0.5"/>
<path d="M572.962 240.862C572.662 240.862 572.404 240.754 572.188 240.538C571.972 240.31 571.864 240.046 571.864 239.746C571.864 239.434 571.972 239.176 572.188 238.972C572.404 238.756 572.662 238.648 572.962 238.648C573.274 238.648 573.538 238.756 573.754 238.972C573.97 239.176 574.078 239.434 574.078 239.746C574.078 240.046 573.97 240.31 573.754 240.538C573.538 240.754 573.274 240.862 572.962 240.862ZM571.252 255.352C571.06 255.352 570.874 255.334 570.694 255.298C570.502 255.274 570.346 255.25 570.226 255.226V253.786C570.43 253.834 570.67 253.858 570.946 253.858C571.342 253.858 571.624 253.768 571.792 253.588C571.972 253.42 572.062 253.138 572.062 252.742V242.338H573.862V252.868C573.862 253.66 573.634 254.272 573.178 254.704C572.734 255.136 572.092 255.352 571.252 255.352ZM579.888 251.68C579.18 251.68 578.556 251.53 578.016 251.23C577.476 250.93 577.056 250.51 576.756 249.97C576.456 249.418 576.306 248.788 576.306 248.08V242.338H578.088V247.774C578.088 248.494 578.292 249.064 578.7 249.484C579.12 249.904 579.678 250.114 580.374 250.114C580.866 250.114 581.304 250.012 581.688 249.808C582.072 249.592 582.384 249.292 582.624 248.908V242.338H584.424V251.5H582.624V250.564C581.916 251.308 581.004 251.68 579.888 251.68ZM586.915 251.5V238.9L588.715 238.558V251.5H586.915Z" fill="#1C2027"/>
<rect x="632.25" y="231.25" width="63.5" height="28.5" rx="14.25" stroke="#1C2027" stroke-width="0.5"/>
<path d="M651.96 251.662C651.3 251.662 650.718 251.548 650.214 251.32C649.71 251.08 649.314 250.75 649.026 250.33C648.738 249.91 648.594 249.424 648.594 248.872C648.594 248.008 648.924 247.33 649.584 246.838C650.244 246.334 651.15 246.082 652.302 246.082C653.202 246.082 654.036 246.256 654.804 246.604V245.632C654.804 244.972 654.612 244.48 654.228 244.156C653.856 243.832 653.304 243.67 652.572 243.67C652.152 243.67 651.714 243.736 651.258 243.868C650.802 243.988 650.292 244.18 649.728 244.444L649.062 243.094C649.758 242.77 650.406 242.536 651.006 242.392C651.606 242.236 652.212 242.158 652.824 242.158C654.012 242.158 654.93 242.44 655.578 243.004C656.238 243.568 656.568 244.372 656.568 245.416V251.5H654.804V250.708C654.396 251.032 653.958 251.272 653.49 251.428C653.022 251.584 652.512 251.662 651.96 251.662ZM650.322 248.836C650.322 249.28 650.508 249.64 650.88 249.916C651.264 250.18 651.762 250.312 652.374 250.312C652.854 250.312 653.292 250.246 653.688 250.114C654.096 249.97 654.468 249.748 654.804 249.448V247.9C654.456 247.696 654.09 247.552 653.706 247.468C653.334 247.372 652.914 247.324 652.446 247.324C651.786 247.324 651.264 247.462 650.88 247.738C650.508 248.002 650.322 248.368 650.322 248.836ZM662.46 251.68C661.752 251.68 661.128 251.53 660.588 251.23C660.048 250.93 659.628 250.51 659.328 249.97C659.028 249.418 658.878 248.788 658.878 248.08V242.338H660.66V247.774C660.66 248.494 660.864 249.064 661.272 249.484C661.692 249.904 662.25 250.114 662.946 250.114C663.438 250.114 663.876 250.012 664.26 249.808C664.644 249.592 664.956 249.292 665.196 248.908V242.338H666.996V251.5H665.196V250.564C664.488 251.308 663.576 251.68 662.46 251.68ZM674.023 255.352C673.351 255.352 672.697 255.274 672.061 255.118C671.425 254.962 670.849 254.74 670.333 254.452L671.017 253.048C671.557 253.324 672.061 253.522 672.529 253.642C673.009 253.774 673.489 253.84 673.969 253.84C674.773 253.84 675.379 253.654 675.787 253.282C676.207 252.91 676.417 252.364 676.417 251.644V250.6C675.613 251.236 674.695 251.554 673.663 251.554C672.823 251.554 672.049 251.35 671.341 250.942C670.645 250.522 670.093 249.958 669.685 249.25C669.277 248.53 669.073 247.738 669.073 246.874C669.073 245.998 669.277 245.206 669.685 244.498C670.105 243.778 670.663 243.214 671.359 242.806C672.067 242.386 672.859 242.176 673.735 242.176C674.227 242.176 674.701 242.26 675.157 242.428C675.625 242.584 676.051 242.812 676.435 243.112V242.338H678.217V251.644C678.217 252.832 677.851 253.744 677.119 254.38C676.399 255.028 675.367 255.352 674.023 255.352ZM673.897 250.006C674.425 250.006 674.905 249.916 675.337 249.736C675.769 249.544 676.129 249.274 676.417 248.926V244.822C676.129 244.486 675.763 244.222 675.319 244.03C674.887 243.838 674.413 243.742 673.897 243.742C673.321 243.742 672.799 243.88 672.331 244.156C671.875 244.432 671.509 244.81 671.233 245.29C670.969 245.758 670.837 246.286 670.837 246.874C670.837 247.462 670.969 247.996 671.233 248.476C671.509 248.944 671.875 249.316 672.331 249.592C672.799 249.868 673.321 250.006 673.897 250.006Z" fill="#1C2027"/>
<rect x="722.25" y="231.25" width="62.5" height="28.5" rx="14.25" stroke="#1C2027" stroke-width="0.5"/>
<path d="M742.212 251.68C741.42 251.68 740.676 251.566 739.98 251.338C739.296 251.098 738.702 250.762 738.198 250.33L739.188 249.142C739.656 249.514 740.136 249.802 740.628 250.006C741.132 250.198 741.642 250.294 742.158 250.294C742.806 250.294 743.334 250.168 743.742 249.916C744.15 249.664 744.354 249.334 744.354 248.926C744.354 248.59 744.234 248.326 743.994 248.134C743.754 247.942 743.382 247.81 742.878 247.738L741.222 247.504C740.31 247.372 739.626 247.09 739.17 246.658C738.714 246.226 738.486 245.65 738.486 244.93C738.486 244.378 738.636 243.898 738.936 243.49C739.236 243.07 739.656 242.746 740.196 242.518C740.736 242.278 741.366 242.158 742.086 242.158C742.746 242.158 743.382 242.254 743.994 242.446C744.606 242.638 745.194 242.938 745.758 243.346L744.84 244.534C744.336 244.198 743.844 243.952 743.364 243.796C742.896 243.64 742.422 243.562 741.942 243.562C741.39 243.562 740.946 243.682 740.61 243.922C740.274 244.15 740.106 244.45 740.106 244.822C740.106 245.158 740.22 245.422 740.448 245.614C740.688 245.794 741.078 245.92 741.618 245.992L743.274 246.226C744.186 246.358 744.876 246.64 745.344 247.072C745.812 247.492 746.046 248.062 746.046 248.782C746.046 249.334 745.878 249.832 745.542 250.276C745.206 250.708 744.75 251.05 744.174 251.302C743.598 251.554 742.944 251.68 742.212 251.68ZM752.269 251.662C751.369 251.662 750.553 251.452 749.821 251.032C749.101 250.612 748.525 250.042 748.093 249.322C747.673 248.602 747.463 247.798 747.463 246.91C747.463 246.034 747.667 245.242 748.075 244.534C748.483 243.814 749.035 243.244 749.731 242.824C750.427 242.392 751.201 242.176 752.053 242.176C752.905 242.176 753.661 242.392 754.321 242.824C754.981 243.244 755.503 243.82 755.887 244.552C756.283 245.272 756.481 246.088 756.481 247V247.504H749.263C749.359 248.008 749.545 248.458 749.821 248.854C750.109 249.25 750.469 249.562 750.901 249.79C751.345 250.018 751.825 250.132 752.341 250.132C752.785 250.132 753.211 250.066 753.619 249.934C754.039 249.79 754.387 249.586 754.663 249.322L755.815 250.456C755.275 250.864 754.717 251.17 754.141 251.374C753.577 251.566 752.953 251.662 752.269 251.662ZM749.281 246.154H754.699C754.627 245.674 754.459 245.254 754.195 244.894C753.943 244.522 753.625 244.234 753.241 244.03C752.869 243.814 752.461 243.706 752.017 243.706C751.561 243.706 751.141 243.808 750.757 244.012C750.373 244.216 750.049 244.504 749.785 244.876C749.533 245.236 749.365 245.662 749.281 246.154ZM758.555 255.172V242.338H760.337V243.22C761.105 242.536 762.041 242.194 763.145 242.194C764.009 242.194 764.789 242.404 765.485 242.824C766.193 243.244 766.751 243.808 767.159 244.516C767.567 245.224 767.771 246.022 767.771 246.91C767.771 247.798 767.561 248.602 767.141 249.322C766.733 250.03 766.175 250.594 765.467 251.014C764.771 251.434 763.985 251.644 763.109 251.644C762.605 251.644 762.119 251.566 761.651 251.41C761.183 251.242 760.751 251.008 760.355 250.708V255.172H758.555ZM762.911 250.078C763.499 250.078 764.021 249.94 764.477 249.664C764.945 249.388 765.317 249.016 765.593 248.548C765.869 248.068 766.007 247.528 766.007 246.928C766.007 246.328 765.869 245.788 765.593 245.308C765.317 244.828 764.945 244.45 764.477 244.174C764.021 243.898 763.499 243.76 762.911 243.76C762.395 243.76 761.915 243.856 761.471 244.048C761.027 244.24 760.655 244.51 760.355 244.858V248.998C760.655 249.334 761.027 249.598 761.471 249.79C761.927 249.982 762.407 250.078 762.911 250.078Z" fill="#1C2027"/>
<rect x="288.25" y="81.25" width="111.5" height="28.5" rx="14.25" stroke="#1C2027" stroke-width="0.5"/>
<path d="M308.112 102.572V101.18C307.355 101.116 306.645 100.935 305.984 100.636C305.323 100.327 304.747 99.916 304.256 99.404L305.152 98.316C305.995 99.18 306.981 99.6973 308.112 99.868V96.492L307.424 96.348C306.368 96.1347 305.611 95.8147 305.152 95.388C304.704 94.9613 304.48 94.3533 304.48 93.564C304.48 92.9667 304.629 92.444 304.928 91.996C305.237 91.548 305.664 91.2013 306.208 90.956C306.752 90.7107 307.387 90.5827 308.112 90.572V89.228H309.024V90.604C309.653 90.6787 310.272 90.828 310.88 91.052C311.499 91.276 312.069 91.5693 312.592 91.932L311.856 93.148C311.365 92.828 310.885 92.572 310.416 92.38C309.947 92.1773 309.483 92.0387 309.024 91.964V95.196L309.696 95.308C310.837 95.5533 311.648 95.8893 312.128 96.316C312.608 96.7427 312.848 97.34 312.848 98.108C312.848 98.7053 312.688 99.2333 312.368 99.692C312.048 100.14 311.6 100.497 311.024 100.764C310.459 101.02 309.792 101.164 309.024 101.196V102.572H308.112ZM308.112 95.036V91.9C307.472 91.9107 306.955 92.0547 306.56 92.332C306.165 92.6093 305.968 92.9773 305.968 93.436C305.968 93.7347 306.027 93.9853 306.144 94.188C306.261 94.3907 306.459 94.556 306.736 94.684C307.013 94.8013 307.387 94.908 307.856 95.004L308.112 95.036ZM309.024 99.916C309.696 99.8733 310.245 99.7027 310.672 99.404C311.099 99.0947 311.312 98.7 311.312 98.22C311.312 97.9213 311.248 97.676 311.12 97.484C311.003 97.292 310.795 97.132 310.496 97.004C310.208 96.876 309.797 96.764 309.264 96.668L309.024 96.62V99.916ZM319.697 101.5V91.948L317.681 92.796V91.388L320.273 90.3H321.281V101.5H319.697ZM323.064 103.788L324.056 100.06H325.752L324.28 103.788H323.064ZM327.736 101.5V100.38L332.28 95.548C332.589 95.228 332.829 94.94 333 94.684C333.171 94.428 333.288 94.188 333.352 93.964C333.427 93.7293 333.464 93.484 333.464 93.228C333.464 92.7267 333.261 92.3107 332.856 91.98C332.451 91.6493 331.939 91.484 331.32 91.484C330.808 91.484 330.328 91.5853 329.88 91.788C329.432 91.9907 328.936 92.3427 328.392 92.844L327.528 91.788C328.125 91.2333 328.739 90.8173 329.368 90.54C330.008 90.2627 330.669 90.124 331.352 90.124C332.067 90.124 332.696 90.252 333.24 90.508C333.784 90.764 334.205 91.1213 334.504 91.58C334.813 92.028 334.968 92.5453 334.968 93.132C334.968 93.5053 334.92 93.852 334.824 94.172C334.728 94.4813 334.563 94.812 334.328 95.164C334.093 95.5053 333.763 95.9 333.336 96.348L329.688 100.188L335.192 100.172V101.5H327.736ZM341.523 101.676C340.584 101.676 339.763 101.436 339.059 100.956C338.355 100.465 337.8 99.788 337.395 98.924C337 98.0493 336.803 97.0413 336.803 95.9C336.803 94.7587 337 93.756 337.395 92.892C337.8 92.0173 338.355 91.34 339.059 90.86C339.763 90.3693 340.584 90.124 341.523 90.124C342.451 90.124 343.267 90.3693 343.971 90.86C344.675 91.34 345.224 92.0173 345.619 92.892C346.024 93.756 346.227 94.7587 346.227 95.9C346.227 97.0413 346.024 98.0493 345.619 98.924C345.224 99.788 344.675 100.465 343.971 100.956C343.267 101.436 342.451 101.676 341.523 101.676ZM341.523 100.284C342.163 100.284 342.718 100.108 343.187 99.756C343.656 99.3933 344.019 98.8813 344.275 98.22C344.531 97.5587 344.659 96.7853 344.659 95.9C344.659 95.004 344.531 94.2307 344.275 93.58C344.019 92.9187 343.656 92.412 343.187 92.06C342.718 91.6973 342.163 91.516 341.523 91.516C340.883 91.516 340.328 91.6973 339.859 92.06C339.39 92.412 339.022 92.9187 338.755 93.58C338.499 94.2307 338.371 95.004 338.371 95.9C338.371 96.7853 338.499 97.5587 338.755 98.22C339.022 98.8813 339.39 99.3933 339.859 99.756C340.328 100.108 340.883 100.284 341.523 100.284ZM352.577 101.676C351.639 101.676 350.817 101.436 350.113 100.956C349.409 100.465 348.855 99.788 348.449 98.924C348.055 98.0493 347.857 97.0413 347.857 95.9C347.857 94.7587 348.055 93.756 348.449 92.892C348.855 92.0173 349.409 91.34 350.113 90.86C350.817 90.3693 351.639 90.124 352.577 90.124C353.505 90.124 354.321 90.3693 355.025 90.86C355.729 91.34 356.279 92.0173 356.673 92.892C357.079 93.756 357.281 94.7587 357.281 95.9C357.281 97.0413 357.079 98.0493 356.673 98.924C356.279 99.788 355.729 100.465 355.025 100.956C354.321 101.436 353.505 101.676 352.577 101.676ZM352.577 100.284C353.217 100.284 353.772 100.108 354.241 99.756C354.711 99.3933 355.073 98.8813 355.329 98.22C355.585 97.5587 355.713 96.7853 355.713 95.9C355.713 95.004 355.585 94.2307 355.329 93.58C355.073 92.9187 354.711 92.412 354.241 92.06C353.772 91.6973 353.217 91.516 352.577 91.516C351.937 91.516 351.383 91.6973 350.913 92.06C350.444 92.412 350.076 92.9187 349.809 93.58C349.553 94.2307 349.425 95.004 349.425 95.9C349.425 96.7853 349.553 97.5587 349.809 98.22C350.076 98.8813 350.444 99.3933 350.913 99.756C351.383 100.108 351.937 100.284 352.577 100.284Z" fill="#1C2027"/>
<path d="M359.849 101.612C359.572 101.612 359.332 101.516 359.129 101.324C358.937 101.121 358.841 100.881 358.841 100.604C358.841 100.327 358.937 100.092 359.129 99.9C359.332 99.6973 359.572 99.596 359.849 99.596C360.127 99.596 360.361 99.6973 360.553 99.9C360.756 100.092 360.857 100.327 360.857 100.604C360.857 100.881 360.756 101.121 360.553 101.324C360.361 101.516 360.127 101.612 359.849 101.612ZM367.139 101.676C366.2 101.676 365.379 101.436 364.675 100.956C363.971 100.465 363.416 99.788 363.011 98.924C362.616 98.0493 362.419 97.0413 362.419 95.9C362.419 94.7587 362.616 93.756 363.011 92.892C363.416 92.0173 363.971 91.34 364.675 90.86C365.379 90.3693 366.2 90.124 367.139 90.124C368.067 90.124 368.883 90.3693 369.587 90.86C370.291 91.34 370.84 92.0173 371.235 92.892C371.64 93.756 371.843 94.7587 371.843 95.9C371.843 97.0413 371.64 98.0493 371.235 98.924C370.84 99.788 370.291 100.465 369.587 100.956C368.883 101.436 368.067 101.676 367.139 101.676ZM367.139 100.284C367.779 100.284 368.334 100.108 368.803 99.756C369.272 99.3933 369.635 98.8813 369.891 98.22C370.147 97.5587 370.275 96.7853 370.275 95.9C370.275 95.004 370.147 94.2307 369.891 93.58C369.635 92.9187 369.272 92.412 368.803 92.06C368.334 91.6973 367.779 91.516 367.139 91.516C366.499 91.516 365.944 91.6973 365.475 92.06C365.006 92.412 364.638 92.9187 364.371 93.58C364.115 94.2307 363.987 95.004 363.987 95.9C363.987 96.7853 364.115 97.5587 364.371 98.22C364.638 98.8813 365.006 99.3933 365.475 99.756C365.944 100.108 366.499 100.284 367.139 100.284ZM378.193 101.676C377.255 101.676 376.433 101.436 375.729 100.956C375.025 100.465 374.471 99.788 374.065 98.924C373.671 98.0493 373.473 97.0413 373.473 95.9C373.473 94.7587 373.671 93.756 374.065 92.892C374.471 92.0173 375.025 91.34 375.729 90.86C376.433 90.3693 377.255 90.124 378.193 90.124C379.121 90.124 379.937 90.3693 380.641 90.86C381.345 91.34 381.895 92.0173 382.289 92.892C382.695 93.756 382.897 94.7587 382.897 95.9C382.897 97.0413 382.695 98.0493 382.289 98.924C381.895 99.788 381.345 100.465 380.641 100.956C379.937 101.436 379.121 101.676 378.193 101.676ZM378.193 100.284C378.833 100.284 379.388 100.108 379.857 99.756C380.327 99.3933 380.689 98.8813 380.945 98.22C381.201 97.5587 381.329 96.7853 381.329 95.9C381.329 95.004 381.201 94.2307 380.945 93.58C380.689 92.9187 380.327 92.412 379.857 92.06C379.388 91.6973 378.833 91.516 378.193 91.516C377.553 91.516 376.999 91.6973 376.529 92.06C376.06 92.412 375.692 92.9187 375.425 93.58C375.169 94.2307 375.041 95.004 375.041 95.9C375.041 96.7853 375.169 97.5587 375.425 98.22C375.692 98.8813 376.06 99.3933 376.529 99.756C376.999 100.108 377.553 100.284 378.193 100.284Z" fill="#B6B6B6"/>
<rect x="422" y="81" width="116" height="29" rx="14.5" fill="#A5E839"/>
<path d="M442.112 102.572V101.18C441.355 101.116 440.645 100.935 439.984 100.636C439.323 100.327 438.747 99.916 438.256 99.404L439.152 98.316C439.995 99.18 440.981 99.6973 442.112 99.868V96.492L441.424 96.348C440.368 96.1347 439.611 95.8147 439.152 95.388C438.704 94.9613 438.48 94.3533 438.48 93.564C438.48 92.9667 438.629 92.444 438.928 91.996C439.237 91.548 439.664 91.2013 440.208 90.956C440.752 90.7107 441.387 90.5827 442.112 90.572V89.228H443.024V90.604C443.653 90.6787 444.272 90.828 444.88 91.052C445.499 91.276 446.069 91.5693 446.592 91.932L445.856 93.148C445.365 92.828 444.885 92.572 444.416 92.38C443.947 92.1773 443.483 92.0387 443.024 91.964V95.196L443.696 95.308C444.837 95.5533 445.648 95.8893 446.128 96.316C446.608 96.7427 446.848 97.34 446.848 98.108C446.848 98.7053 446.688 99.2333 446.368 99.692C446.048 100.14 445.6 100.497 445.024 100.764C444.459 101.02 443.792 101.164 443.024 101.196V102.572H442.112ZM442.112 95.036V91.9C441.472 91.9107 440.955 92.0547 440.56 92.332C440.165 92.6093 439.968 92.9773 439.968 93.436C439.968 93.7347 440.027 93.9853 440.144 94.188C440.261 94.3907 440.459 94.556 440.736 94.684C441.013 94.8013 441.387 94.908 441.856 95.004L442.112 95.036ZM443.024 99.916C443.696 99.8733 444.245 99.7027 444.672 99.404C445.099 99.0947 445.312 98.7 445.312 98.22C445.312 97.9213 445.248 97.676 445.12 97.484C445.003 97.292 444.795 97.132 444.496 97.004C444.208 96.876 443.797 96.764 443.264 96.668L443.024 96.62V99.916ZM455.921 101.676C455.121 101.676 454.369 101.537 453.665 101.26C452.971 100.972 452.369 100.561 451.857 100.028L452.897 99.036C453.345 99.5053 453.798 99.8413 454.257 100.044C454.726 100.236 455.275 100.332 455.905 100.332C456.406 100.332 456.849 100.247 457.233 100.076C457.627 99.9053 457.931 99.6707 458.145 99.372C458.358 99.0733 458.465 98.7267 458.465 98.332C458.465 97.9693 458.369 97.6493 458.177 97.372C457.995 97.084 457.745 96.8653 457.425 96.716C457.115 96.556 456.747 96.476 456.321 96.476H454.961V95.18H456.209C456.774 95.18 457.227 95.0147 457.569 94.684C457.91 94.3533 458.081 93.9213 458.081 93.388C458.081 93.036 457.985 92.716 457.793 92.428C457.601 92.14 457.334 91.916 456.993 91.756C456.662 91.5853 456.283 91.5 455.857 91.5C455.291 91.5 454.79 91.6013 454.353 91.804C453.926 91.996 453.483 92.3373 453.025 92.828L451.985 91.836C452.497 91.2813 453.089 90.86 453.761 90.572C454.433 90.2733 455.142 90.124 455.889 90.124C456.614 90.124 457.254 90.2573 457.809 90.524C458.374 90.7907 458.817 91.164 459.137 91.644C459.467 92.1133 459.633 92.6467 459.633 93.244C459.633 93.8307 459.435 94.3587 459.041 94.828C458.657 95.2867 458.15 95.6067 457.521 95.788C458.278 95.948 458.881 96.268 459.329 96.748C459.777 97.2173 460.001 97.772 460.001 98.412C460.001 99.0413 459.825 99.6013 459.473 100.092C459.131 100.583 458.651 100.972 458.033 101.26C457.414 101.537 456.71 101.676 455.921 101.676ZM461.236 103.788L462.228 100.06H463.924L462.452 103.788H461.236ZM465.908 101.5V100.38L470.452 95.548C470.761 95.228 471.001 94.94 471.172 94.684C471.342 94.428 471.46 94.188 471.524 93.964C471.598 93.7293 471.636 93.484 471.636 93.228C471.636 92.7267 471.433 92.3107 471.028 91.98C470.622 91.6493 470.11 91.484 469.492 91.484C468.98 91.484 468.5 91.5853 468.052 91.788C467.604 91.9907 467.108 92.3427 466.564 92.844L465.7 91.788C466.297 91.2333 466.91 90.8173 467.54 90.54C468.18 90.2627 468.841 90.124 469.524 90.124C470.238 90.124 470.868 90.252 471.412 90.508C471.956 90.764 472.377 91.1213 472.676 91.58C472.985 92.028 473.14 92.5453 473.14 93.132C473.14 93.5053 473.092 93.852 472.996 94.172C472.9 94.4813 472.734 94.812 472.5 95.164C472.265 95.5053 471.934 95.9 471.508 96.348L467.86 100.188L473.364 100.172V101.5H465.908ZM479.695 101.676C478.756 101.676 477.935 101.436 477.231 100.956C476.527 100.465 475.972 99.788 475.567 98.924C475.172 98.0493 474.975 97.0413 474.975 95.9C474.975 94.7587 475.172 93.756 475.567 92.892C475.972 92.0173 476.527 91.34 477.231 90.86C477.935 90.3693 478.756 90.124 479.695 90.124C480.623 90.124 481.439 90.3693 482.143 90.86C482.847 91.34 483.396 92.0173 483.791 92.892C484.196 93.756 484.399 94.7587 484.399 95.9C484.399 97.0413 484.196 98.0493 483.791 98.924C483.396 99.788 482.847 100.465 482.143 100.956C481.439 101.436 480.623 101.676 479.695 101.676ZM479.695 100.284C480.335 100.284 480.889 100.108 481.359 99.756C481.828 99.3933 482.191 98.8813 482.447 98.22C482.703 97.5587 482.831 96.7853 482.831 95.9C482.831 95.004 482.703 94.2307 482.447 93.58C482.191 92.9187 481.828 92.412 481.359 92.06C480.889 91.6973 480.335 91.516 479.695 91.516C479.055 91.516 478.5 91.6973 478.031 92.06C477.561 92.412 477.193 92.9187 476.927 93.58C476.671 94.2307 476.543 95.004 476.543 95.9C476.543 96.7853 476.671 97.5587 476.927 98.22C477.193 98.8813 477.561 99.3933 478.031 99.756C478.5 100.108 479.055 100.284 479.695 100.284ZM490.749 101.676C489.81 101.676 488.989 101.436 488.285 100.956C487.581 100.465 487.026 99.788 486.621 98.924C486.226 98.0493 486.029 97.0413 486.029 95.9C486.029 94.7587 486.226 93.756 486.621 92.892C487.026 92.0173 487.581 91.34 488.285 90.86C488.989 90.3693 489.81 90.124 490.749 90.124C491.677 90.124 492.493 90.3693 493.197 90.86C493.901 91.34 494.45 92.0173 494.845 92.892C495.25 93.756 495.453 94.7587 495.453 95.9C495.453 97.0413 495.25 98.0493 494.845 98.924C494.45 99.788 493.901 100.465 493.197 100.956C492.493 101.436 491.677 101.676 490.749 101.676ZM490.749 100.284C491.389 100.284 491.944 100.108 492.413 99.756C492.882 99.3933 493.245 98.8813 493.501 98.22C493.757 97.5587 493.885 96.7853 493.885 95.9C493.885 95.004 493.757 94.2307 493.501 93.58C493.245 92.9187 492.882 92.412 492.413 92.06C491.944 91.6973 491.389 91.516 490.749 91.516C490.109 91.516 489.554 91.6973 489.085 92.06C488.616 92.412 488.248 92.9187 487.981 93.58C487.725 94.2307 487.597 95.004 487.597 95.9C487.597 96.7853 487.725 97.5587 487.981 98.22C488.248 98.8813 488.616 99.3933 489.085 99.756C489.554 100.108 490.109 100.284 490.749 100.284Z" fill="#1C2027"/>
<path d="M498.021 101.612C497.744 101.612 497.504 101.516 497.301 101.324C497.109 101.121 497.013 100.881 497.013 100.604C497.013 100.327 497.109 100.092 497.301 99.9C497.504 99.6973 497.744 99.596 498.021 99.596C498.299 99.596 498.533 99.6973 498.725 99.9C498.928 100.092 499.029 100.327 499.029 100.604C499.029 100.881 498.928 101.121 498.725 101.324C498.533 101.516 498.299 101.612 498.021 101.612ZM505.311 101.676C504.372 101.676 503.551 101.436 502.847 100.956C502.143 100.465 501.588 99.788 501.183 98.924C500.788 98.0493 500.591 97.0413 500.591 95.9C500.591 94.7587 500.788 93.756 501.183 92.892C501.588 92.0173 502.143 91.34 502.847 90.86C503.551 90.3693 504.372 90.124 505.311 90.124C506.239 90.124 507.055 90.3693 507.759 90.86C508.463 91.34 509.012 92.0173 509.407 92.892C509.812 93.756 510.015 94.7587 510.015 95.9C510.015 97.0413 509.812 98.0493 509.407 98.924C509.012 99.788 508.463 100.465 507.759 100.956C507.055 101.436 506.239 101.676 505.311 101.676ZM505.311 100.284C505.951 100.284 506.506 100.108 506.975 99.756C507.444 99.3933 507.807 98.8813 508.063 98.22C508.319 97.5587 508.447 96.7853 508.447 95.9C508.447 95.004 508.319 94.2307 508.063 93.58C507.807 92.9187 507.444 92.412 506.975 92.06C506.506 91.6973 505.951 91.516 505.311 91.516C504.671 91.516 504.116 91.6973 503.647 92.06C503.178 92.412 502.81 92.9187 502.543 93.58C502.287 94.2307 502.159 95.004 502.159 95.9C502.159 96.7853 502.287 97.5587 502.543 98.22C502.81 98.8813 503.178 99.3933 503.647 99.756C504.116 100.108 504.671 100.284 505.311 100.284ZM516.365 101.676C515.427 101.676 514.605 101.436 513.901 100.956C513.197 100.465 512.643 99.788 512.237 98.924C511.843 98.0493 511.645 97.0413 511.645 95.9C511.645 94.7587 511.843 93.756 512.237 92.892C512.643 92.0173 513.197 91.34 513.901 90.86C514.605 90.3693 515.427 90.124 516.365 90.124C517.293 90.124 518.109 90.3693 518.813 90.86C519.517 91.34 520.067 92.0173 520.461 92.892C520.867 93.756 521.069 94.7587 521.069 95.9C521.069 97.0413 520.867 98.0493 520.461 98.924C520.067 99.788 519.517 100.465 518.813 100.956C518.109 101.436 517.293 101.676 516.365 101.676ZM516.365 100.284C517.005 100.284 517.56 100.108 518.029 99.756C518.499 99.3933 518.861 98.8813 519.117 98.22C519.373 97.5587 519.501 96.7853 519.501 95.9C519.501 95.004 519.373 94.2307 519.117 93.58C518.861 92.9187 518.499 92.412 518.029 92.06C517.56 91.6973 517.005 91.516 516.365 91.516C515.725 91.516 515.171 91.6973 514.701 92.06C514.232 92.412 513.864 92.9187 513.597 93.58C513.341 94.2307 513.213 95.004 513.213 95.9C513.213 96.7853 513.341 97.5587 513.597 98.22C513.864 98.8813 514.232 99.3933 514.701 99.756C515.171 100.108 515.725 100.284 516.365 100.284Z" fill="#7B854F"/>
<path d="M409.75 223.5L406.17 231H414.83L411.25 223.5H409.75ZM411.25 98.5L414.83 91H406.17L409.75 98.5H411.25ZM411.25 224.25V97.75H409.75V224.25H411.25Z" fill="#5E1EE5"/>
<circle cx="411" cy="168" r="7.5" fill="#FFFEFF" stroke="#5E1EE5" stroke-width="7"/>
<rect x="-3" y="91" width="144" height="211" fill="url(#paint0_linear_1_2481)"/>
<rect x="687" y="81" width="144" height="221" fill="url(#paint1_linear_1_2481)"/>
<rect x="10" y="208" width="802" height="93" fill="url(#paint2_linear_1_2481)"/>
<circle cx="765" cy="51" r="20.5" fill="white" stroke="#8D8F93"/>
<path d="M773.164 56.4277C773.039 56.4277 772.915 56.4032 772.8 56.3554C772.684 56.3076 772.579 56.2376 772.491 56.1493C772.403 56.061 772.333 55.9561 772.285 55.8407C772.237 55.7253 772.213 55.6016 772.213 55.4766L772.214 45.6732L759.049 58.8374C758.871 59.0156 758.629 59.1158 758.377 59.1158C758.125 59.1158 757.884 59.0157 757.705 58.8374C757.527 58.6592 757.427 58.4174 757.427 58.1653C757.427 57.9132 757.527 57.6715 757.705 57.4932L770.869 44.329L761.066 44.33C760.814 44.33 760.572 44.2298 760.394 44.0515C760.215 43.8731 760.115 43.6312 760.115 43.379C760.115 43.1268 760.215 42.8849 760.394 42.7065C760.572 42.5282 760.814 42.428 761.066 42.428L773.164 42.4278C773.289 42.4277 773.412 42.4522 773.528 42.5C773.643 42.5478 773.748 42.6178 773.837 42.7061C773.925 42.7945 773.995 42.8993 774.043 43.0147C774.09 43.1302 774.115 43.2539 774.115 43.3788L774.115 55.4766C774.115 55.6015 774.09 55.7252 774.042 55.8406C773.995 55.9561 773.925 56.0609 773.836 56.1493C773.748 56.2376 773.643 56.3076 773.528 56.3554C773.412 56.4032 773.289 56.4277 773.164 56.4277Z" fill="#8D8F93"/>
</g>
</g>
<defs>
<filter id="filter0_d_1_2481" x="0" y="0" width="822" height="296" filterUnits="userSpaceOnUse" color-interpolation-filters="sRGB">
<feFlood flood-opacity="0" result="BackgroundImageFix"/>
<feColorMatrix in="SourceAlpha" type="matrix" values="0 0 0 0 0 0 0 0 0 0 0 0 0 0 0 0 0 0 127 0" result="hardAlpha"/>
<feOffset/>
<feGaussianBlur stdDeviation="5"/>
<feComposite in2="hardAlpha" operator="out"/>
<feColorMatrix type="matrix" values="0 0 0 0 0.552941 0 0 0 0 0.560784 0 0 0 0 0.576471 0 0 0 0.25 0"/>
<feBlend mode="normal" in2="BackgroundImageFix" result="effect1_dropShadow_1_2481"/>
<feBlend mode="normal" in="SourceGraphic" in2="effect1_dropShadow_1_2481" result="shape"/>
</filter>
<linearGradient id="paint0_linear_1_2481" x1="141" y1="196.5" x2="-3" y2="196.5" gradientUnits="userSpaceOnUse">
<stop stop-color="#FFFEFF" stop-opacity="0"/>
<stop offset="1" stop-color="#FFFEFF"/>
</linearGradient>
<linearGradient id="paint1_linear_1_2481" x1="687" y1="191.5" x2="817" y2="191.5" gradientUnits="userSpaceOnUse">
<stop stop-color="#FFFEFF" stop-opacity="0"/>
<stop offset="1" stop-color="#FFFEFF"/>
</linearGradient>
<linearGradient id="paint2_linear_1_2481" x1="411" y1="208" x2="411" y2="301" gradientUnits="userSpaceOnUse">
<stop stop-color="#FFFEFF" stop-opacity="0"/>
<stop offset="1" stop-color="#FFFEFF"/>
</linearGradient>
<clipPath id="clip0_1_2481">
<rect x="10" y="10" width="802" height="276" rx="24" fill="white"/>
</clipPath>
</defs>
</svg>
